<svg xmlns="http://www.w3.org/2000/svg" viewBox="0 0 463.45 322.95"><defs><style>.cls-1{fill:#2e1111;}.cls-2{fill:#5e1414;}.cls-3{fill:#8c8c8c;}.cls-4{fill:#a7a9ac;}.cls-5{fill:#7f2121;}.cls-6{fill:#5e5f5f;}.cls-7{fill:#fff;}.cls-8{fill:#102128;}.cls-9{fill:#8dc63f;}.cls-10{fill:none;}.cls-11{fill:#684b3d;}.cls-12{fill:#b5917c;}.cls-13{fill:#ceab97;}.cls-14{fill:#e6e6e6;}</style></defs><title>house-illustration</title><g id="Layer_2" data-name="Layer 2"><g id="Layer_1-2" data-name="Layer 1"><rect class="cls-1" x="299.9" y="20.7" width="8.67" height="26.46"/><polygon class="cls-1" points="345.29 102.03 340.56 37.53 336.62 84.03 223.9 84.03 223.9 102.03 345.29 102.03"/><polygon class="cls-2" points="340.56 37.53 215.23 37.53 215.23 84.03 223.9 84.03 336.62 84.03 340.56 37.53"/><rect class="cls-3" x="233.01" y="84.03" width="91.56" height="88.67"/><rect class="cls-4" x="324.56" y="84.03" width="12.06" height="88.67"/><polygon class="cls-4" points="260.71 74.41 288.08 47.16 315.45 74.41 260.71 74.41"/><polygon class="cls-4" points="233.01 172.7 134.9 172.7 134.9 55.03 183.56 6.36 233.01 55.03 233.01 172.7"/><polygon class="cls-5" points="121.23 75.06 114.87 68.7 183.56 0 246.93 63.36 240.56 69.73 183.56 12.73 121.23 75.06"/><path class="cls-6" d="M149.16,73V99.65h22.47V73Zm21.3,12.08H161V74.41h9.45ZM150.34,74.41h9.45V85.1h-9.45Zm0,11.93h9.45V98.26h-9.45ZM161,98.26V86.33h9.45V98.26Z"/><rect class="cls-7" x="150.34" y="86.33" width="9.45" height="11.93"/><rect class="cls-7" x="161.01" y="86.33" width="9.45" height="11.93"/><rect class="cls-7" x="150.34" y="74.41" width="9.45" height="10.69"/><rect class="cls-7" x="161.01" y="74.41" width="9.45" height="10.69"/><path class="cls-6" d="M187.91,73V99.65h22.47V73Zm21.3,12.08h-9.45V74.41h9.45ZM189.09,74.41h9.45V85.1h-9.45Zm0,11.93h9.45V98.26h-9.45Zm10.68,11.93V86.33h9.45V98.26Z"/><rect class="cls-7" x="189.09" y="86.33" width="9.45" height="11.93"/><rect class="cls-7" x="199.76" y="86.33" width="9.45" height="11.93"/><rect class="cls-7" x="189.09" y="74.41" width="9.45" height="10.69"/><rect class="cls-7" x="199.76" y="74.41" width="9.45" height="10.69"/><path class="cls-6" d="M283.09,53.72V67.84H295V53.72Zm11.29,6.41h-5V54.46h5Zm-10.67-5.67h5v5.67h-5Zm0,6.32h5V67.1h-5Zm5.66,6.32V60.78h5V67.1Z"/><rect class="cls-7" x="283.71" y="60.78" width="5.01" height="6.32"/><rect class="cls-7" x="289.37" y="60.78" width="5.01" height="6.32"/><rect class="cls-7" x="283.71" y="54.46" width="5.01" height="5.67"/><rect class="cls-7" x="289.37" y="54.46" width="5.01" height="5.67"/><path class="cls-6" d="M250.4,102v26.63h22.47V102Zm21.3,12.08h-9.45V103.42h9.45Zm-20.13-10.69H261v10.69h-9.45Zm0,11.93H261v11.93h-9.45Zm10.68,11.93V115.35h9.45v11.93Z"/><rect class="cls-7" x="251.57" y="115.35" width="9.45" height="11.93"/><rect class="cls-7" x="262.25" y="115.35" width="9.45" height="11.93"/><rect class="cls-7" x="251.57" y="103.42" width="9.45" height="10.69"/><rect class="cls-7" x="262.25" y="103.42" width="9.45" height="10.69"/><path class="cls-6" d="M283.15,102v26.63h22.47V102Zm21.3,12.08H295V103.42h9.45Zm-20.13-10.69h9.45v10.69h-9.45Zm0,11.93h9.45v11.93h-9.45ZM295,127.27V115.35h9.45v11.93Z"/><rect class="cls-7" x="284.32" y="115.35" width="9.45" height="11.93"/><rect class="cls-7" x="295" y="115.35" width="9.45" height="11.93"/><rect class="cls-7" x="284.32" y="103.42" width="9.45" height="10.69"/><rect class="cls-7" x="295" y="103.42" width="9.45" height="10.69"/><path class="cls-8" d="M328.2,102v26.63l7.1-2.07V104.1ZM335,114.3l-2.74-.07v-9.75l2.74.72Zm-6.35-10.76,3.22.84v9.84l-3.22-.09Zm0,11.81h3.22v11l-3.22.84Zm3.61,10.87V115.35H335V125.5Z"/><polygon class="cls-7" points="331.86 115.35 328.63 115.35 328.63 127.16 331.86 126.32 331.86 115.35"/><polygon class="cls-7" points="332.24 115.35 332.24 126.22 334.99 125.5 334.99 115.35 332.24 115.35"/><polygon class="cls-7" points="331.86 104.38 328.63 103.53 328.63 114.13 331.86 114.21 331.86 104.38"/><polygon class="cls-7" points="332.24 114.22 334.99 114.3 334.99 105.19 332.24 104.48 332.24 114.22"/><path class="cls-9" d="M85.15,172.36C99.53,149.86,123.28,131.55,120,102c-1.29-11.69-14.14-52.13-26.9-52.33-11.62-.19-29.89,25-33.26,35-5.23,15.44-2.76,33.57,1.89,48.81C62.74,136.69,83.3,175.25,85.15,172.36Z"/><path class="cls-9" d="M335.23,192.65c11-17.25,29.24-31.29,26.73-54-1-9-10.84-40-20.62-40.12-8.91-.14-22.91,19.17-25.5,26.8-4,11.83-2.12,25.74,1.45,37.42C318.05,165.31,333.81,194.87,335.23,192.65Z"/><path class="cls-9" d="M380.3,189.75c9.32-14.59,24.73-26.46,22.61-45.63-.84-7.58-9.17-33.8-17.44-33.93-7.54-.12-19.38,16.22-21.57,22.67-3.39,10-1.79,21.77,1.22,31.65C365.77,166.63,379.1,191.63,380.3,189.75Z"/><path class="cls-10" d="M229.78,169.77c0-.43-.09-.86-.17-1.27C229.68,168.91,229.74,169.34,229.78,169.77Z"/><path class="cls-10" d="M215,156.85l-1.27-.26Z"/><path class="cls-10" d="M209.45,155.87q-1.18-.17-2.43-.31Q208.27,155.7,209.45,155.87Z"/><path class="cls-10" d="M219.3,158c5.5,1.89,8.83,5.13,10,9.31C228.13,163.12,224.8,159.88,219.3,158Z"/><path class="cls-11" d="M50.74,155.08a72.52,72.52,0,0,1,8.91-1.53C50.87,145.1,42,136.73,29.14,133c-4.61-1.33-13.38-3-17.5.15-5.48,4.23-1.29,11.91,1.17,17.37.74,1.64,1.54,3.22,2.4,4.75.66-.21,1.31-.39,1.95-.54A75.87,75.87,0,0,1,50.74,155.08Z"/><path class="cls-11" d="M215.39,254.85c-12.31-1.79-24.47-5.54-36.83-6.15s-22.84-4.86-34.67-6.65c-14.87-2.25-28.78-2.6-42.36-8.15.56.45,1.13.9,1.71,1.32a87.22,87.22,0,0,0,17.17,9.35c11.81,5,23.17,9,34.82,14.63,12.37,6,23.24,7.5,36.83,7.5,16.23,0,33.77.79,49.81-1.32,4.89-.64,9.79-1,14.7-1.42a176.91,176.91,0,0,1-18.81-7A219.21,219.21,0,0,1,215.39,254.85Z"/><path class="cls-12" d="M178.56,248.7c12.36.61,24.52,4.36,36.83,6.15A219.21,219.21,0,0,0,237.77,257c-19.46-8.43-37.78-19.75-56.37-29.78-22.15-11.94-44.4-17.48-68.18-24.34-11.85-3.42-23.27-8.26-35.31-10.17-10.52-1.66-20.81-5.36-31.33-5.33-7.38,0-24.89,2.16-25.63-7a10.08,10.08,0,0,1,.45-3.65c3.29-11.21,16.07-17.86,26.35-20.83,1-.29,2-.54,3-.78a75.87,75.87,0,0,0-33.59-.35c-.63.15-1.28.33-1.95.54C5.64,158.3-6.19,167.4,3.78,176A41.51,41.51,0,0,0,13.16,182C9.7,185.87,7.52,191,10,196c1.15,2.31,3.34,3.65,5.93,4.45,4.87,1.51,11.23,1.13,15.1,1.68A237.68,237.68,0,0,1,54.6,206.7C69.7,210.42,79,220.93,92,229a62.88,62.88,0,0,0,9.49,4.85c13.58,5.55,27.49,5.9,42.36,8.15C155.73,243.84,166.31,248.1,178.56,248.7Z"/><path class="cls-13" d="M228,179.41a25.89,25.89,0,0,0,1.47-4.63A25.88,25.88,0,0,1,228,179.41Z"/><path class="cls-14" d="M198.12,188.43c4.89,1.75,9.9,3.16,14.28,4.31a28.3,28.3,0,0,0,4.34-1.49,22,22,0,0,0,5.58-3.48,18.12,18.12,0,0,0,4.08-5.06,35.26,35.26,0,0,0,1.57-3.29,25.88,25.88,0,0,0,1.47-4.63,19.24,19.24,0,0,0,.35-2.42,15.63,15.63,0,0,0,0-2.59c0-.43-.09-.86-.17-1.27s-.17-.81-.28-1.2c-1.2-4.18-4.53-7.42-10-9.31-.66-.23-1.33-.44-2.05-.63s-1.42-.35-2.2-.51l-1.27-.26c-1.33-.26-2.77-.5-4.32-.72q-1.18-.17-2.43-.31c-1.25-.14-2.55-.27-3.87-.37L201,155a72.86,72.86,0,0,0-15.09.6,20.63,20.63,0,0,0-5.88,4.55,22.88,22.88,0,0,0-2.64,3.7C170.85,175.6,184,183.38,198.12,188.43Z"/><path class="cls-12" d="M463.45,221.86c-6-.42-12.06-1.16-16.1-1.17-22.19,0-43.31,7.88-61.92,14.51-13.58-1.63-29.52-2.26-42.64-6.3-2-.18-4-.36-6.06-.56l-.39,0-1.61-.18L334,228l-1.43-.18-.86-.12-1.31-.19-1-.17-1.18-.2q-1-.19-2.08-.41l-.83-.19-1.35-.32-.91-.24-1.26-.35-.92-.29-1.23-.41-.91-.33-1.23-.47-.88-.36-1.25-.56-.82-.39c-.46-.23-.91-.47-1.36-.71l-.68-.37c-.68-.38-1.35-.78-2-1.21-10.88-7-23.23-11.52-35.15-16.52-7.29-3.06-5.85-5.73-5.48-12.67.29-5.45,0-11,0-16.47-.64,13.68-13,24.49-26.67,21.15-14-3.43-11.81-13.28-13.44-23.69a19.25,19.25,0,0,1-.35,2.42,25.88,25.88,0,0,1-1.47,4.63,35.26,35.26,0,0,1-1.57,3.29,18.12,18.12,0,0,1-4.08,5.06,22,22,0,0,1-5.58,3.48,28.28,28.28,0,0,1-4.34,1.49c4.65,1.22,8.58,2.12,10.84,2.78,22.7,6.54,44.35,20.13,66,29.35C321,238.38,360.56,246,395.08,241.53c12-1.56,24.27-3.86,36.11-.67,12.6,3.4,20.52,12.23,31.37,18.5l.89.49Z"/><path class="cls-13" d="M463.45,210.92c-2.1-2-4.21-4-6.37-5.95h0c-.61-.55-1.23-1.09-1.85-1.63-11.6-10-23.28-21.19-37.47-27.83-22.63-10.6-52.32-18.48-77.31-15-13.87,1.94-25.36,5.59-40.05,4.83-14.18-.74-26.59-4.44-40-7.83C245,153.62,230.11,149.79,214,150c-7.93.12-19.83,1.13-28.11,5.62A72.86,72.86,0,0,1,201,155l2.12.14c1.33.1,2.62.23,3.87.37q1.25.14,2.43.31c1.55.22,3,.46,4.32.72l1.27.26c.79.17,1.54.34,2.2.51s1.4.4,2.05.63c5.5,1.89,8.83,5.13,10,9.31q.17.59.28,1.2c.08.42.13.84.17,1.27a15.62,15.62,0,0,1,0,2.59c1.63,10.41-.58,20.26,13.44,23.69,13.64,3.34,26-7.47,26.67-21.15,0,5.46.29,11,0,16.47-.36,6.94-1.81,9.61,5.48,12.67,11.92,5,24.27,9.5,35.15,16.52.67.43,1.34.83,2,1.21l.68.37c.45.24.91.49,1.36.71l.82.39,1.25.56.88.36,1.23.47.91.33,1.23.41.92.29,1.26.35.91.24,1.35.32.83.19q1,.22,2.08.41l1.18.2,1,.17,1.31.19.86.12L334,228l.7.08,1.61.18.39,0c2,.21,4,.39,6.06.56,13.13,4,29.06,4.67,42.64,6.3,18.61-6.63,39.73-14.53,61.92-14.51,4,0,10.06.75,16.1,1.17Z"/><path class="cls-13" d="M263.38,265.87c30.47,7.66,62.6,14.83,88.52,34,11.31,8.37,22.38,16.43,34.7,23.07h76.86v-63.1l-.89-.49c-10.85-6.27-18.77-15.1-31.37-18.5-11.84-3.19-24.16-.9-36.11.67C360.56,246,321,238.38,289.23,224.86c-21.66-9.22-43.3-22.81-66-29.35-2.26-.65-6.19-1.56-10.84-2.78q1.13-.29,2.22-.66-1.09.37-2.22.66c-4.37-1.14-9.38-2.56-14.28-4.31-14.15-5.05-27.27-12.83-20.69-24.53-5.36-.26-10.57-.33-15-.53-13.43-.61-26.57-3.51-40-4.67-20.18-1.73-42.07-7.42-62.75-5.15a72.5,72.5,0,0,0-8.91,1.53c-1,.24-2,.49-3,.78-10.28,3-23.06,9.62-26.35,20.83a10.08,10.08,0,0,0-.45,3.65c.74,9.16,18.25,7,25.63,7,10.53,0,20.82,3.67,31.33,5.33,12,1.9,23.46,6.75,35.31,10.17,23.78,6.86,46,12.4,68.18,24.34,18.59,10,36.91,21.34,56.37,29.78a176.94,176.94,0,0,0,18.81,7C258.83,264.64,261.09,265.29,263.38,265.87Z"/></g></g></svg>