<?xml version="1.0" encoding="UTF-8"?>
<svg width="745px" height="514px" viewBox="0 0 745 514" version="1.1" xmlns="http://www.w3.org/2000/svg" xmlns:xlink="http://www.w3.org/1999/xlink">
    <!-- Generator: Sketch 55.1 (78136) - https://sketchapp.com -->
    <title>family-outside-home</title>
    <desc>Created with Sketch.</desc>
    <g id="family-outside-home" stroke="none" stroke-width="1" fill="none" fill-rule="evenodd">
        <path d="M666.394,448.302 L31.323,448.302 C16.208,448.302 3.841,435.936 3.841,420.821 C3.841,405.706 16.208,393.34 31.323,393.34 L666.394,393.34 C681.508,393.34 693.875,405.706 693.875,420.821 C693.875,435.936 681.508,448.302 666.394,448.302" id="Fill-2" fill="#86BD56" transform="translate(348.858000, 420.821000) scale(-1, 1) translate(-348.858000, -420.821000) "></path>
        <polyline id="Fill-3" fill="#344753" transform="translate(582.947500, 344.216500) scale(-1, 1) translate(-582.947500, -344.216500) " points="577.78 404.146 582.948 404.395 588.115 404.163 585.281 284.038 580.614 284.038 577.78 404.146"></polyline>
        <path d="M631.15,260.883 C631.15,287.513 609.56,309.093 582.94,309.093 C556.32,309.093 534.74,287.513 534.74,260.883 C534.74,234.263 556.32,167.329 582.94,167.329 C609.56,167.329 631.15,234.263 631.15,260.883" id="Fill-4" fill="#81B753" transform="translate(582.945000, 238.211000) scale(-1, 1) translate(-582.945000, -238.211000) "></path>
        <path d="M582.95,260.883 C582.95,287.513 561.36,309.093 534.74,309.093 L534.74,167.329 C561.36,167.329 582.95,234.263 582.95,260.883" id="Fill-5" fill="#638F3F" transform="translate(558.845000, 238.211000) scale(-1, 1) translate(-558.845000, -238.211000) "></path>
        <polyline id="Fill-6" fill="#344753" transform="translate(667.877000, 344.216500) scale(-1, 1) translate(-667.877000, -344.216500) " points="662.709 404.146 667.877 404.395 673.045 404.163 670.21 284.038 665.544 284.038 662.709 404.146"></polyline>
        <path d="M716.08,260.883 C716.08,287.513 694.49,309.093 667.87,309.093 C641.25,309.093 619.67,287.513 619.67,260.883 C619.67,234.263 641.25,167.329 667.87,167.329 C694.49,167.329 716.08,234.263 716.08,260.883" id="Fill-7" fill="#81B753" transform="translate(667.875000, 238.211000) scale(-1, 1) translate(-667.875000, -238.211000) "></path>
        <path d="M667.88,260.883 C667.88,287.513 646.29,309.093 619.67,309.093 L619.67,167.329 C646.29,167.329 667.88,234.263 667.88,260.883" id="Fill-8" fill="#638F3F" transform="translate(643.775000, 238.211000) scale(-1, 1) translate(-643.775000, -238.211000) "></path>
        <path d="M651.123,447.908 L46.593,447.908 C37.38,447.908 29.841,440.369 29.841,431.156 C29.841,421.942 37.38,414.404 46.593,414.404 L651.123,414.404 C660.336,414.404 667.875,421.942 667.875,431.156 C667.875,440.369 660.336,447.908 651.123,447.908" id="Fill-9" fill="#6FA544" transform="translate(348.858000, 431.156000) scale(-1, 1) translate(-348.858000, -431.156000) "></path>
        <polyline id="Fill-10" fill="#E7827A" transform="translate(342.031000, 140.043500) scale(-1, 1) translate(-342.031000, -140.043500) " points="552.71 197.851 131.352 197.851 131.352 82.236 552.71 106.255 552.71 197.851"></polyline>
        <polygon id="Fill-11" fill="#D57875" transform="translate(230.491500, 146.658500) scale(-1, 1) translate(-230.491500, -146.658500) " points="132.602 199.133 328.381 199.133 328.381 94.184 132.602 94.184"></polygon>
        <polygon id="Fill-12" fill="#FFFFFE" transform="translate(291.783000, 166.216000) scale(-1, 1) translate(-291.783000, -166.216000) " points="289.348 199.234 294.218 199.234 294.218 133.198 289.348 133.198"></polygon>
        <polygon id="Fill-13" fill="#FFFFFE" transform="translate(255.607500, 166.216000) scale(-1, 1) translate(-255.607500, -166.216000) " points="253.173 199.234 258.042 199.234 258.042 133.198 253.173 133.198"></polygon>
        <polygon id="Fill-14" fill="#FFFFFE" transform="translate(273.695500, 135.536000) scale(-1, 1) translate(-273.695500, -135.536000) " points="253.173 137.971 294.218 137.971 294.218 133.101 253.173 133.101"></polygon>
        <polygon id="Fill-15" fill="#FFFFFE" transform="translate(256.035000, 166.216000) scale(-1, 1) translate(-256.035000, -166.216000) " points="253.6 199.234 258.47 199.234 258.47 133.198 253.6 133.198"></polygon>
        <polygon id="Fill-16" fill="#FFFFFE" transform="translate(219.859500, 166.216000) scale(-1, 1) translate(-219.859500, -166.216000) " points="217.425 199.234 222.294 199.234 222.294 133.198 217.425 133.198"></polygon>
        <polygon id="Fill-17" fill="#FFFFFE" transform="translate(237.947500, 135.536000) scale(-1, 1) translate(-237.947500, -135.536000) " points="217.425 137.971 258.47 137.971 258.47 133.101 217.425 133.101"></polygon>
        <polygon id="Fill-18" fill="#575B61" transform="translate(273.695000, 168.602500) scale(-1, 1) translate(-273.695000, -168.602500) " points="258.042 199.234 289.348 199.234 289.348 137.971 258.042 137.971"></polygon>
        <polyline id="Fill-19" fill="#313D41" transform="translate(273.909000, 168.022500) scale(-1, 1) translate(-273.909000, -168.022500) " points="258.47 137.971 289.348 198.074 258.47 198.074 258.47 137.971"></polyline>
        <polygon id="Fill-20" fill="#575B61" transform="translate(237.520000, 168.602500) scale(-1, 1) translate(-237.520000, -168.602500) " points="221.867 199.234 253.173 199.234 253.173 137.971 221.867 137.971"></polygon>
        <polyline id="Fill-21" fill="#313D41" transform="translate(237.733500, 168.022500) scale(-1, 1) translate(-237.733500, -168.022500) " points="222.294 137.971 253.173 198.074 222.294 198.074 222.294 137.971"></polyline>
        <polygon id="Fill-22" fill="#E7827A" transform="translate(320.421500, 297.649000) scale(-1, 1) translate(-320.421500, -297.649000) " points="86.883 397.447 553.96 397.447 553.96 197.851 86.883 197.851"></polygon>
        <polygon id="Fill-23" fill="#2C3E4A" transform="translate(467.160500, 300.671000) scale(-1, 1) translate(-467.160500, -300.671000) " points="380.361 403.491 553.96 403.491 553.96 197.851 380.361 197.851"></polygon>
        <polygon id="Fill-24" fill="#1D2B35" transform="translate(317.634000, 207.851000) scale(-1, 1) translate(-317.634000, -207.851000) " points="75.75 217.851 559.518 217.851 559.518 197.851 75.75 197.851"></polygon>
        <polygon id="Fill-25" fill="#FFFFFE" transform="translate(329.355000, 323.616500) scale(-1, 1) translate(-329.355000, -323.616500) " points="278.349 397.447 380.361 397.447 380.361 249.786 278.349 249.786"></polygon>
        <polygon id="Fill-26" fill="#575B61" transform="translate(329.354500, 326.474000) scale(-1, 1) translate(-329.354500, -326.474000) " points="284.324 397.447 374.385 397.447 374.385 255.501 284.324 255.501"></polygon>
        <polygon id="Fill-27" fill="#FFFFFE" transform="translate(233.318500, 323.616500) scale(-1, 1) translate(-233.318500, -323.616500) " points="182.313 397.447 284.324 397.447 284.324 249.786 182.313 249.786"></polygon>
        <polygon id="Fill-28" fill="#575B61" transform="translate(233.318500, 326.474000) scale(-1, 1) translate(-233.318500, -326.474000) " points="188.288 397.447 278.349 397.447 278.349 255.501 188.288 255.501"></polygon>
        <polygon id="Fill-29" fill="#FFFFFE" transform="translate(137.889000, 323.616500) scale(-1, 1) translate(-137.889000, -323.616500) " points="86.883 397.447 188.895 397.447 188.895 249.786 86.883 249.786"></polygon>
        <polygon id="Fill-30" fill="#575B61" transform="translate(137.888500, 326.474000) scale(-1, 1) translate(-137.888500, -326.474000) " points="92.858 397.447 182.919 397.447 182.919 255.501 92.858 255.501"></polygon>
        <polyline id="Fill-31" fill="#313D41" transform="translate(137.888500, 326.474000) scale(-1, 1) translate(-137.888500, -326.474000) " points="92.858 255.501 182.919 298.09 92.858 305.038 182.759 352.616 92.858 352.616 182.919 397.447 92.858 397.447 92.858 255.501"></polyline>
        <polyline id="Fill-32" fill="#313D41" transform="translate(329.354500, 326.474000) scale(-1, 1) translate(-329.354500, -326.474000) " points="284.324 255.501 374.385 298.09 284.324 305.038 374.225 352.616 284.324 352.616 374.385 397.447 284.324 397.447 284.324 255.501"></polyline>
        <polygon id="Fill-33" fill="#FFFFFE" transform="translate(137.889000, 301.564000) scale(-1, 1) translate(-137.889000, -301.564000) " points="90.78 305.038 184.998 305.038 184.998 298.09 90.78 298.09"></polygon>
        <polygon id="Fill-34" fill="#FFFFFE" transform="translate(137.889000, 356.090000) scale(-1, 1) translate(-137.889000, -356.090000) " points="90.78 359.564 184.998 359.564 184.998 352.616 90.78 352.616"></polygon>
        <polygon id="Fill-35" fill="#FFFFFE" transform="translate(329.355000, 301.564000) scale(-1, 1) translate(-329.355000, -301.564000) " points="282.246 305.038 376.464 305.038 376.464 298.09 282.246 298.09"></polygon>
        <polygon id="Fill-36" fill="#FFFFFE" transform="translate(329.355000, 356.090000) scale(-1, 1) translate(-329.355000, -356.090000) " points="282.246 359.564 376.464 359.564 376.464 352.616 282.246 352.616"></polygon>
        <polygon id="Fill-37" fill="#FFFFFE" transform="translate(233.622000, 400.921000) scale(-1, 1) translate(-233.622000, -400.921000) " points="86.883 404.395 380.361 404.395 380.361 397.447 86.883 397.447"></polygon>
        <polygon id="Fill-38" fill="#FFFFFE" transform="translate(233.318500, 272.307000) scale(-1, 1) translate(-233.318500, -272.307000) " points="224.985 293.518 241.652 293.518 241.652 251.096 224.985 251.096"></polygon>
        <polygon id="Fill-39" fill="#FFFFFE" transform="translate(233.318500, 345.482500) scale(-1, 1) translate(-233.318500, -345.482500) " points="232.91 397.447 233.727 397.447 233.727 293.518 232.91 293.518"></polygon>
        <polygon id="Fill-40" fill="#D57875" transform="translate(233.622000, 227.351000) scale(-1, 1) translate(-233.622000, -227.351000) " points="86.883 236.851 380.361 236.851 380.361 217.851 86.883 217.851"></polygon>
        <polygon id="Fill-41" fill="#273740" transform="translate(467.168000, 227.351000) scale(-1, 1) translate(-467.168000, -227.351000) " points="380.376 236.851 553.96 236.851 553.96 217.851 380.376 217.851"></polygon>
        <polygon id="Fill-42" fill="#273740" transform="translate(467.168000, 250.018000) scale(-1, 1) translate(-467.168000, -250.018000) " points="380.376 251.518 553.96 251.518 553.96 248.518 380.376 248.518"></polygon>
        <polygon id="Fill-43" fill="#344753" transform="translate(467.152000, 245.018000) scale(-1, 1) translate(-467.152000, -245.018000) " points="380.344 248.518 553.96 248.518 553.96 241.518 380.344 241.518"></polygon>
        <polygon id="Fill-44" fill="#273740" transform="translate(467.168000, 268.018000) scale(-1, 1) translate(-467.168000, -268.018000) " points="380.376 269.518 553.96 269.518 553.96 266.518 380.376 266.518"></polygon>
        <polygon id="Fill-45" fill="#344753" transform="translate(467.152000, 263.018000) scale(-1, 1) translate(-467.152000, -263.018000) " points="380.344 266.518 553.96 266.518 553.96 259.518 380.344 259.518"></polygon>
        <polygon id="Fill-46" fill="#273740" transform="translate(467.168000, 285.538000) scale(-1, 1) translate(-467.168000, -285.538000) " points="380.376 287.038 553.96 287.038 553.96 284.038 380.376 284.038"></polygon>
        <polygon id="Fill-47" fill="#344753" transform="translate(467.152000, 280.538000) scale(-1, 1) translate(-467.152000, -280.538000) " points="380.344 284.038 553.96 284.038 553.96 277.038 380.344 277.038"></polygon>
        <polygon id="Fill-48" fill="#FFFFFE" transform="translate(506.895500, 159.859000) scale(-1, 1) translate(-506.895500, -159.859000) " points="503.992 199.234 509.799 199.234 509.799 120.484 503.992 120.484"></polygon>
        <polygon id="Fill-49" fill="#FFFFFE" transform="translate(463.754500, 159.859000) scale(-1, 1) translate(-463.754500, -159.859000) " points="460.851 199.234 466.658 199.234 466.658 120.484 460.851 120.484"></polygon>
        <polygon id="Fill-50" fill="#FFFFFE" transform="translate(485.325000, 123.271500) scale(-1, 1) translate(-485.325000, -123.271500) " points="460.851 126.175 509.799 126.175 509.799 120.368 460.851 120.368"></polygon>
        <polygon id="Fill-51" fill="#FFFFFE" transform="translate(464.264500, 159.859000) scale(-1, 1) translate(-464.264500, -159.859000) " points="461.361 199.234 467.168 199.234 467.168 120.484 461.361 120.484"></polygon>
        <polygon id="Fill-52" fill="#FFFFFE" transform="translate(421.124500, 159.859000) scale(-1, 1) translate(-421.124500, -159.859000) " points="418.221 199.234 424.028 199.234 424.028 120.484 418.221 120.484"></polygon>
        <polygon id="Fill-53" fill="#FFFFFE" transform="translate(442.694500, 123.271500) scale(-1, 1) translate(-442.694500, -123.271500) " points="418.221 126.175 467.168 126.175 467.168 120.368 418.221 120.368"></polygon>
        <polygon id="Fill-54" fill="#575B61" transform="translate(485.325000, 162.704500) scale(-1, 1) translate(-485.325000, -162.704500) " points="466.658 199.234 503.992 199.234 503.992 126.175 466.658 126.175"></polygon>
        <polyline id="Fill-55" fill="#313D41" transform="translate(485.580000, 162.013000) scale(-1, 1) translate(-485.580000, -162.013000) " points="467.168 126.175 503.992 197.851 467.168 197.851 467.168 126.175"></polyline>
        <polygon id="Fill-56" fill="#575B61" transform="translate(442.184500, 162.704500) scale(-1, 1) translate(-442.184500, -162.704500) " points="423.518 199.234 460.851 199.234 460.851 126.175 423.518 126.175"></polygon>
        <polyline id="Fill-57" fill="#313D41" transform="translate(442.439500, 162.013000) scale(-1, 1) translate(-442.439500, -162.013000) " points="424.028 126.175 460.851 197.851 424.028 197.851 424.028 126.175"></polyline>
        <polygon id="Fill-58" fill="#273740" transform="translate(467.168000, 303.538000) scale(-1, 1) translate(-467.168000, -303.538000) " points="380.376 305.038 553.96 305.038 553.96 302.038 380.376 302.038"></polygon>
        <polygon id="Fill-59" fill="#344753" transform="translate(467.152000, 298.538000) scale(-1, 1) translate(-467.152000, -298.538000) " points="380.344 302.038 553.96 302.038 553.96 295.038 380.344 295.038"></polygon>
        <polygon id="Fill-60" fill="#273740" transform="translate(467.168000, 321.684000) scale(-1, 1) translate(-467.168000, -321.684000) " points="380.376 323.184 553.96 323.184 553.96 320.184 380.376 320.184"></polygon>
        <polygon id="Fill-61" fill="#344753" transform="translate(467.152000, 316.684000) scale(-1, 1) translate(-467.152000, -316.684000) " points="380.344 320.184 553.96 320.184 553.96 313.184 380.344 313.184"></polygon>
        <polygon id="Fill-62" fill="#273740" transform="translate(467.168000, 339.684000) scale(-1, 1) translate(-467.168000, -339.684000) " points="380.376 341.184 553.96 341.184 553.96 338.184 380.376 338.184"></polygon>
        <polygon id="Fill-63" fill="#344753" transform="translate(467.152000, 334.684000) scale(-1, 1) translate(-467.152000, -334.684000) " points="380.344 338.184 553.96 338.184 553.96 331.184 380.344 331.184"></polygon>
        <polygon id="Fill-64" fill="#273740" transform="translate(467.168000, 357.205000) scale(-1, 1) translate(-467.168000, -357.205000) " points="380.376 358.705 553.96 358.705 553.96 355.705 380.376 355.705"></polygon>
        <polygon id="Fill-65" fill="#344753" transform="translate(467.152000, 352.205000) scale(-1, 1) translate(-467.152000, -352.205000) " points="380.344 355.705 553.96 355.705 553.96 348.705 380.344 348.705"></polygon>
        <polygon id="Fill-66" fill="#273740" transform="translate(467.168000, 375.205000) scale(-1, 1) translate(-467.168000, -375.205000) " points="380.376 376.705 553.96 376.705 553.96 373.705 380.376 373.705"></polygon>
        <polygon id="Fill-67" fill="#344753" transform="translate(467.152000, 370.205000) scale(-1, 1) translate(-467.152000, -370.205000) " points="380.344 373.705 553.96 373.705 553.96 366.705 380.344 366.705"></polygon>
        <polygon id="Fill-68" fill="#273740" transform="translate(467.168000, 391.205000) scale(-1, 1) translate(-467.168000, -391.205000) " points="380.376 392.705 553.96 392.705 553.96 389.705 380.376 389.705"></polygon>
        <polygon id="Fill-69" fill="#344753" transform="translate(467.152000, 386.205000) scale(-1, 1) translate(-467.152000, -386.205000) " points="380.344 389.705 553.96 389.705 553.96 382.705 380.344 382.705"></polygon>
        <polygon id="Fill-70" fill="#344753" transform="translate(317.634000, 201.684500) scale(-1, 1) translate(-317.634000, -201.684500) " points="70.25 205.518 565.018 205.518 565.018 197.851 70.25 197.851"></polygon>
        <polyline id="Fill-71" fill="#D57875" transform="translate(441.170500, 95.934500) scale(-1, 1) translate(-441.170500, -95.934500) " points="328.381 83.518 328.381 94.184 553.821 108.351 553.96 96.681 328.381 83.518"></polyline>
        <polyline id="Fill-72" fill="#C27274" transform="translate(230.537000, 105.016000) scale(-1, 1) translate(-230.537000, -105.016000) " points="132.602 102.268 132.693 96.681 328.472 107.537 328.472 113.351 132.602 102.268"></polyline>
        <polygon id="Fill-73" fill="#C27274" transform="translate(326.324500, 147.266000) scale(-1, 1) translate(-326.324500, -147.266000) " points="324.268 197.851 328.381 197.851 328.381 96.681 324.268 96.681"></polygon>
        <polyline id="Fill-74" fill="#1D2B35" transform="translate(341.518000, 89.601000) scale(-1, 1) translate(-341.518000, -89.601000) " points="560.018 108.351 123.018 83.518 123.018 70.851 560.018 95.684 560.018 108.351"></polyline>
        <polyline id="Fill-75" fill="#344753" transform="translate(341.518000, 82.100500) scale(-1, 1) translate(-341.518000, -82.100500) " points="565.687 102.268 117.349 74.6 117.349 61.933 565.687 89.601 565.687 102.268"></polyline>
        <polygon id="Fill-76" fill="#2C3E4A" transform="translate(137.892500, 162.013000) scale(-1, 1) translate(-137.892500, -162.013000) " points="97.394 198.166 178.391 198.166 178.391 125.86 97.394 125.86"></polygon>
        <polygon id="Fill-77" fill="#273740" transform="translate(137.896000, 134.958000) scale(-1, 1) translate(-137.896000, -134.958000) " points="97.401 135.658 178.391 135.658 178.391 134.258 97.401 134.258"></polygon>
        <polygon id="Fill-78" fill="#344753" transform="translate(137.888500, 132.625000) scale(-1, 1) translate(-137.888500, -132.625000) " points="97.386 134.258 178.391 134.258 178.391 130.992 97.386 130.992"></polygon>
        <polygon id="Fill-79" fill="#273740" transform="translate(137.896000, 143.133000) scale(-1, 1) translate(-137.896000, -143.133000) " points="97.401 143.833 178.391 143.833 178.391 142.433 97.401 142.433"></polygon>
        <polygon id="Fill-80" fill="#344753" transform="translate(137.888500, 140.800000) scale(-1, 1) translate(-137.888500, -140.800000) " points="97.386 142.433 178.391 142.433 178.391 139.167 97.386 139.167"></polygon>
        <polygon id="Fill-81" fill="#273740" transform="translate(137.896000, 151.531000) scale(-1, 1) translate(-137.896000, -151.531000) " points="97.401 152.231 178.391 152.231 178.391 150.831 97.401 150.831"></polygon>
        <polygon id="Fill-82" fill="#344753" transform="translate(137.888500, 149.198000) scale(-1, 1) translate(-137.888500, -149.198000) " points="97.386 150.831 178.391 150.831 178.391 147.565 97.386 147.565"></polygon>
        <polygon id="Fill-83" fill="#273740" transform="translate(137.896000, 159.998000) scale(-1, 1) translate(-137.896000, -159.998000) " points="97.401 160.698 178.391 160.698 178.391 159.298 97.401 159.298"></polygon>
        <polygon id="Fill-84" fill="#344753" transform="translate(137.888500, 157.665000) scale(-1, 1) translate(-137.888500, -157.665000) " points="97.386 159.298 178.391 159.298 178.391 156.032 97.386 156.032"></polygon>
        <polygon id="Fill-85" fill="#273740" transform="translate(137.896000, 168.396000) scale(-1, 1) translate(-137.896000, -168.396000) " points="97.401 169.096 178.391 169.096 178.391 167.696 97.401 167.696"></polygon>
        <polygon id="Fill-86" fill="#344753" transform="translate(137.888500, 166.063000) scale(-1, 1) translate(-137.888500, -166.063000) " points="97.386 167.696 178.391 167.696 178.391 164.43 97.386 164.43"></polygon>
        <polygon id="Fill-87" fill="#273740" transform="translate(137.896000, 176.570500) scale(-1, 1) translate(-137.896000, -176.570500) " points="97.401 177.27 178.391 177.27 178.391 175.871 97.401 175.871"></polygon>
        <polygon id="Fill-88" fill="#344753" transform="translate(137.888500, 174.238000) scale(-1, 1) translate(-137.888500, -174.238000) " points="97.386 175.871 178.391 175.871 178.391 172.605 97.386 172.605"></polygon>
        <polygon id="Fill-89" fill="#273740" transform="translate(137.896000, 184.969000) scale(-1, 1) translate(-137.896000, -184.969000) " points="97.401 185.669 178.391 185.669 178.391 184.269 97.401 184.269"></polygon>
        <polygon id="Fill-90" fill="#344753" transform="translate(137.888500, 182.636000) scale(-1, 1) translate(-137.888500, -182.636000) " points="97.386 184.269 178.391 184.269 178.391 181.003 97.386 181.003"></polygon>
        <polygon id="Fill-91" fill="#273740" transform="translate(137.896000, 192.434000) scale(-1, 1) translate(-137.896000, -192.434000) " points="97.401 193.134 178.391 193.134 178.391 191.734 97.401 191.734"></polygon>
        <polygon id="Fill-92" fill="#344753" transform="translate(137.888500, 190.101000) scale(-1, 1) translate(-137.888500, -190.101000) " points="97.386 191.734 178.391 191.734 178.391 188.468 97.386 188.468"></polygon>
        <path d="M386.222,51.765 C386.222,34.798 399.976,21.044 416.943,21.044 C433.909,21.044 447.663,34.798 447.663,51.765 L386.222,51.765" id="Fill-93" fill="#FFFFFE" transform="translate(416.942500, 36.404500) scale(-1, 1) translate(-416.942500, -36.404500) "></path>
        <path d="M363.5,51.765 C363.5,41.481 371.836,33.144 382.12,33.144 C392.404,33.144 400.741,41.481 400.741,51.765 L363.5,51.765" id="Fill-94" fill="#FFFFFE" transform="translate(382.120500, 42.454500) scale(-1, 1) translate(-382.120500, -42.454500) "></path>
        <path d="M353.385,51.765 C353.385,47.544 356.807,44.122 361.028,44.122 C365.249,44.122 368.671,47.544 368.671,51.765 L353.385,51.765" id="Fill-95" fill="#FFFFFE" transform="translate(361.028000, 47.943500) scale(-1, 1) translate(-361.028000, -47.943500) "></path>
        <path d="M440.304,51.765 C440.304,46.22 444.798,41.726 450.343,41.726 C455.887,41.726 460.381,46.22 460.381,51.765 L440.304,51.765" id="Fill-96" fill="#FFFFFE" transform="translate(450.342500, 46.745500) scale(-1, 1) translate(-450.342500, -46.745500) "></path>
        <path d="M624.975,112.35 C624.975,92.285 641.242,76.019 661.308,76.019 C681.373,76.019 697.639,92.285 697.639,112.35 L624.975,112.35" id="Fill-97" fill="#FFFFFE" transform="translate(661.307000, 94.184500) scale(-1, 1) translate(-661.307000, -94.184500) "></path>
        <path d="M598.102,112.35 C598.102,100.188 607.962,90.328 620.124,90.328 C632.286,90.328 642.146,100.188 642.146,112.35 L598.102,112.35" id="Fill-98" fill="#FFFFFE" transform="translate(620.124000, 101.339000) scale(-1, 1) translate(-620.124000, -101.339000) "></path>
        <path d="M586.139,112.35 C586.139,107.358 590.185,103.311 595.178,103.311 C600.17,103.311 604.217,107.358 604.217,112.35 L586.139,112.35" id="Fill-99" fill="#FFFFFE" transform="translate(595.178000, 107.830500) scale(-1, 1) translate(-595.178000, -107.830500) "></path>
        <path d="M688.935,112.35 C688.935,105.793 694.25,100.478 700.807,100.478 C707.364,100.478 712.68,105.793 712.68,112.35 L688.935,112.35" id="Fill-100" fill="#FFFFFE" transform="translate(700.807500, 106.414000) scale(-1, 1) translate(-700.807500, -106.414000) "></path>
        <path d="M64.199,402.916 C64.199,405.168 57.484,406.993 49.199,406.993 C40.915,406.993 34.199,405.168 34.199,402.916 C34.199,400.665 40.915,398.84 49.199,398.84 C57.484,398.84 64.199,400.665 64.199,402.916" id="Fill-101" fill="#6FA544" transform="translate(49.199000, 402.916500) scale(-1, 1) translate(-49.199000, -402.916500) "></path>
        <polyline id="Fill-102" fill="#344753" transform="translate(49.199000, 344.216500) scale(-1, 1) translate(-49.199000, -344.216500) " points="44.031 404.146 49.199 404.395 54.367 404.163 51.533 284.038 46.866 284.038 44.031 404.146"></polyline>
        <path d="M97.401,260.883 C97.401,287.513 75.811,309.093 49.191,309.093 C22.571,309.093 0.991,287.513 0.991,260.883 C0.991,234.263 22.571,212.683 49.191,212.683 C75.811,212.683 97.401,234.263 97.401,260.883" id="Fill-103" fill="#81B753" transform="translate(49.196000, 260.888000) scale(-1, 1) translate(-49.196000, -260.888000) "></path>
        <path d="M49.201,260.883 C49.201,287.513 27.611,309.093 0.991,309.093 L0.991,212.683 C27.611,212.683 49.201,234.263 49.201,260.883" id="Fill-104" fill="#638F3F" transform="translate(25.096000, 260.888000) scale(-1, 1) translate(-25.096000, -260.888000) "></path>
        <path d="M50.189,407.703 C50.189,409.955 43.474,411.78 35.189,411.78 C26.905,411.78 20.189,409.955 20.189,407.703 C20.189,405.452 26.905,403.626 35.189,403.626 C43.474,403.626 50.189,405.452 50.189,407.703" id="Fill-105" fill="#6FA544" transform="translate(35.189000, 407.703000) scale(-1, 1) translate(-35.189000, -407.703000) "></path>
        <path d="M49.862,393.798 C49.862,401.904 43.291,408.472 35.188,408.472 C27.085,408.472 20.516,401.904 20.516,393.798 C20.516,385.695 27.085,366.646 35.188,366.646 C43.291,366.646 49.862,385.695 49.862,393.798" id="Fill-106" fill="#81B753" transform="translate(35.189000, 387.559000) scale(-1, 1) translate(-35.189000, -387.559000) "></path>
        <path d="M35.19,393.798 C35.19,401.904 28.619,408.472 20.516,408.472 L20.516,366.646 C28.619,366.646 35.19,385.695 35.19,393.798" id="Fill-107" fill="#638F3F" transform="translate(27.853000, 387.559000) scale(-1, 1) translate(-27.853000, -387.559000) "></path>
        <path d="M170.841,407.703 C170.841,409.955 164.125,411.78 155.841,411.78 C147.557,411.78 140.841,409.955 140.841,407.703 C140.841,405.452 147.557,403.626 155.841,403.626 C164.125,403.626 170.841,405.452 170.841,407.703" id="Fill-108" fill="#6FA544" transform="translate(155.841000, 407.703000) scale(-1, 1) translate(-155.841000, -407.703000) "></path>
        <path d="M170.514,393.798 C170.514,401.904 163.942,408.472 155.839,408.472 C147.737,408.472 141.168,401.904 141.168,393.798 C141.168,385.695 147.737,366.646 155.839,366.646 C163.942,366.646 170.514,385.695 170.514,393.798" id="Fill-109" fill="#81B753" transform="translate(155.841000, 387.559000) scale(-1, 1) translate(-155.841000, -387.559000) "></path>
        <path d="M155.843,393.798 C155.843,401.904 149.271,408.472 141.168,408.472 L141.168,366.646 C149.271,366.646 155.843,385.695 155.843,393.798" id="Fill-110" fill="#638F3F" transform="translate(148.505500, 387.559000) scale(-1, 1) translate(-148.505500, -387.559000) "></path>
        <path d="M320.422,407.703 C320.422,409.955 313.707,411.78 305.422,411.78 C297.138,411.78 290.422,409.955 290.422,407.703 C290.422,405.452 297.138,403.626 305.422,403.626 C313.707,403.626 320.422,405.452 320.422,407.703" id="Fill-111" fill="#6FA544" transform="translate(305.422000, 407.703000) scale(-1, 1) translate(-305.422000, -407.703000) "></path>
        <path d="M320.095,393.798 C320.095,401.904 313.524,408.472 305.421,408.472 C297.318,408.472 290.749,401.904 290.749,393.798 C290.749,385.695 297.318,366.646 305.421,366.646 C313.524,366.646 320.095,385.695 320.095,393.798" id="Fill-112" fill="#81B753" transform="translate(305.422000, 387.559000) scale(-1, 1) translate(-305.422000, -387.559000) "></path>
        <path d="M305.423,393.798 C305.423,401.904 298.852,408.472 290.749,408.472 L290.749,366.646 C298.852,366.646 305.423,385.695 305.423,393.798" id="Fill-113" fill="#638F3F" transform="translate(298.086000, 387.559000) scale(-1, 1) translate(-298.086000, -387.559000) "></path>
        <path d="M74.031,408.504 C74.031,410.313 68.635,411.78 61.979,411.78 C55.322,411.78 49.926,410.313 49.926,408.504 C49.926,406.695 55.322,405.229 61.979,405.229 C68.635,405.229 74.031,406.695 74.031,408.504" id="Fill-114" fill="#6FA544" transform="translate(61.978500, 408.504500) scale(-1, 1) translate(-61.978500, -408.504500) "></path>
        <path d="M73.768,397.331 C73.768,403.844 68.488,409.122 61.978,409.122 C55.467,409.122 50.189,403.844 50.189,397.331 C50.189,390.821 55.467,375.515 61.978,375.515 C68.488,375.515 73.768,390.821 73.768,397.331" id="Fill-115" fill="#81B753" transform="translate(61.978500, 392.318500) scale(-1, 1) translate(-61.978500, -392.318500) "></path>
        <path d="M61.979,397.331 C61.979,403.844 56.699,409.122 50.189,409.122 L50.189,375.515 C56.699,375.515 61.979,390.821 61.979,397.331" id="Fill-116" fill="#638F3F" transform="translate(56.084000, 392.318500) scale(-1, 1) translate(-56.084000, -392.318500) "></path>
        <path d="M485.977,514.523 L323.466,514.523 C324.091,501.711 327.255,489.63 332.428,478.853 C333.392,476.839 334.429,474.871 335.533,472.956 C338.398,467.969 341.716,463.315 345.426,459.06 C346.357,457.983 347.314,456.939 348.298,455.916 C348.371,455.836 348.451,455.756 348.524,455.683 C350,454.16 351.523,452.704 353.098,451.308 C359.667,445.484 367.094,440.743 375.145,437.353 C375.198,437.333 375.245,437.313 375.291,437.293 C384.42,433.47 394.34,431.376 404.718,431.376 C413.035,431.376 421.06,432.719 428.62,435.225 C428.666,435.238 428.706,435.252 428.753,435.272 C430.501,435.857 432.23,436.502 433.932,437.206 C433.985,437.226 434.032,437.246 434.078,437.266 C438.34,439.042 442.429,441.202 446.305,443.695 C449.377,445.67 452.315,447.851 455.101,450.231 C455.101,450.231 455.114,450.238 455.121,450.244 L455.141,450.264 C455.373,450.464 455.613,450.67 455.846,450.883 C457.647,452.445 459.383,454.094 461.045,455.822 C461.497,456.294 461.949,456.767 462.394,457.252 C463.465,458.409 464.502,459.599 465.499,460.822 C469.262,465.37 472.58,470.336 475.392,475.655 C476.509,477.749 477.546,479.897 478.497,482.098 C482.792,492.037 485.418,502.981 485.977,514.523" id="Fill-117" fill="#343534" transform="translate(404.721500, 472.949500) scale(-1, 1) translate(-404.721500, -472.949500) "></path>
        <path d="M372.893,394.92 C366.043,397.923 358.055,394.803 355.053,387.953 C352.051,381.102 355.17,373.115 362.021,370.112 C368.871,367.11 376.859,370.229 379.861,377.08 C382.864,383.93 379.744,391.918 372.893,394.92 Z M361.088,367.985 C353.063,371.502 349.408,380.859 352.926,388.885 C356.443,396.91 365.8,400.565 373.826,397.048 C381.851,393.53 385.506,384.173 381.988,376.147 C378.471,368.122 369.114,364.467 361.088,367.985 L361.088,367.985 Z" id="Fill-118" fill="#694F3C" transform="translate(367.457000, 382.516204) scale(-1, 1) translate(-367.457000, -382.516204) "></path>
        <path d="M461.010893,366.846 C465.778893,371.006 467.111893,378.084 463.842893,383.782 C460.686893,389.283 454.256893,391.73 448.417893,390.078 C448.048893,390.781 447.646893,391.469 447.216893,392.141 C454.203893,394.406 462.056893,391.562 465.857893,384.938 C469.599893,378.415 468.191893,370.351 462.912893,365.438 L461.010893,366.846" id="Fill-119" fill="#694F3C" transform="translate(457.589946, 379.173628) scale(-1, 1) translate(-457.589946, -379.173628) "></path>
        <path d="M358.996,379.581 C353.539,379.858 348.23,376.798 345.907,371.496 C345.264,370.03 344.909,368.513 344.808,367.004 C344.016,366.921 343.236,366.797 342.463,366.646 C342.533,368.585 342.953,370.543 343.78,372.428 C346.559,378.77 352.985,382.376 359.519,381.877 C359.343,381.111 359.17,380.345 358.996,379.581" id="Fill-120" fill="#694F3C" transform="translate(350.991000, 374.284403) scale(-1, 1) translate(-350.991000, -374.284403) "></path>
        <polyline id="Fill-121" fill="#F7CA91" transform="translate(404.799500, 455.523000) scale(-1, 1) translate(-404.799500, -455.523000) " points="426.272 486.687 404.759 514.133 383.327 486.687 383.327 396.913 426.272 396.913 426.272 486.687"></polyline>
        <path d="M426.272,422.224 C426.272,422.224 411.273,426.844 406.205,426.844 C400.536,426.844 383.327,422.224 383.327,422.224 L383.327,353.672 L426.272,353.672 L426.272,422.224" id="Fill-122" fill="#EAAA64" transform="translate(404.799500, 390.258000) scale(-1, 1) translate(-404.799500, -390.258000) "></path>
        <path d="M370.096,359.452 L362.791,359.452 C360.421,359.452 358.499,358.135 358.499,356.512 C358.499,354.888 360.421,353.572 362.791,353.572 L370.096,353.572 C372.467,353.572 374.389,354.888 374.389,356.512 C374.389,358.135 372.467,359.452 370.096,359.452" id="Fill-123" fill="#DF5C4B" transform="translate(366.444000, 356.512000) scale(-1, 1) translate(-366.444000, -356.512000) "></path>
        <path d="M449.328,375.428 C449.328,376.866 449.264,378.287 449.141,379.689 C447.729,395.839 438.385,409.548 425.284,416.386 C419.568,419.376 413.13,421.053 406.322,421.053 C399.407,421.053 392.876,419.321 387.096,416.25 C373.995,409.294 364.706,395.446 363.457,379.187 C363.359,377.947 363.312,376.695 363.312,375.428 L363.312,323.765 C363.312,321.481 363.47,319.238 363.777,317.044 C366.838,295.032 384.717,278.144 406.314,278.144 L406.322,278.144 C427.919,278.144 445.798,295.037 448.863,317.044 C449.17,319.238 449.328,321.486 449.328,323.769 L449.328,375.428 Z" id="Fill-124" fill="#F7CA91" transform="translate(406.320000, 349.598500) scale(-1, 1) translate(-406.320000, -349.598500) "></path>
        <path d="M400.451,367.94 C400.617,371.092 403.241,373.597 406.454,373.597 C409.667,373.597 412.291,371.092 412.458,367.94 L400.451,367.94" id="Fill-125" fill="#DF5C4B" transform="translate(406.454500, 370.768500) scale(-1, 1) translate(-406.454500, -370.768500) "></path>
        <path d="M474.798047,310.926 C466.768047,299.745 465.418047,299.745 465.418047,299.745 C465.418047,299.745 464.226047,280.403 457.568047,272.413 C450.910047,264.423 437.774047,250.782 419.600047,252.73 C414.673047,253.259 410.267047,254.793 406.454047,256.744 C402.641047,254.793 398.235047,253.259 393.309047,252.73 C375.134047,250.782 361.998047,264.423 355.340047,272.413 C348.682047,280.403 347.490047,299.745 347.490047,299.745 C347.490047,299.745 346.141047,299.745 338.110047,310.926 C330.080047,322.107 330.688047,333.995 330.688047,333.995 C331.947047,373.555 363.831047,378.281 363.831047,378.281 L363.364047,354.404 L363.888047,328.538 L363.888047,327.813 C363.888047,322.35 368.238047,317.875 373.700047,317.741 C373.932047,317.735 374.171047,317.729 374.414047,317.722 C384.856047,317.432 392.114047,315.702 406.454047,308.828 C420.794047,315.702 428.053047,317.432 438.494047,317.722 C438.738047,317.729 438.976047,317.735 439.208047,317.741 C444.670047,317.875 449.021047,322.35 449.021047,327.813 L449.544047,354.404 L449.078047,378.281 C449.078047,378.281 480.961047,373.555 482.221047,333.995 C482.221047,333.995 482.828047,322.107 474.798047,310.926" id="Fill-126" fill="#FFE386" transform="translate(406.454524, 315.411445) scale(-1, 1) translate(-406.454524, -315.411445) "></path>
        <path d="M399.33,390.443 C399.348,390.53 399.367,390.618 399.389,390.704 C400.169,393.881 403.037,396.237 406.455,396.237 C409.872,396.237 412.739,393.881 413.52,390.704 C413.541,390.618 413.56,390.53 413.579,390.443 L399.33,390.443" id="Fill-127" fill="#CA2B2E" transform="translate(406.454500, 393.340000) scale(-1, 1) translate(-406.454500, -393.340000) "></path>
        <path d="M462.466367,341.848 L462.274367,363.418 C454.936367,363.353 449.029367,358.471 449.083367,352.515 C449.135367,346.559 455.128367,341.783 462.466367,341.848" id="Fill-128" fill="#F3BA6F" transform="translate(455.774684, 352.632672) scale(-1, 1) translate(-455.774684, -352.632672) "></path>
        <path d="M457.125076,353.576 L453.274076,353.542 C450.903076,353.52 448.970076,354.819 448.955,356.443 C448.941076,358.067 450.851076,359.4 453.222076,359.421 L457.158076,359.456 L457.125076,353.576" id="Fill-129" fill="#DF5C4B" transform="translate(453.056538, 356.498862) scale(-1, 1) translate(-453.056538, -356.498862) "></path>
        <path d="M350.108646,341.848 L350.299646,363.418 C357.638646,363.353 363.544646,358.471 363.491646,352.515 C363.438646,346.559 357.446646,341.783 350.108646,341.848" id="Fill-130" fill="#F3BA6F" transform="translate(356.800323, 352.632672) scale(-1, 1) translate(-356.800323, -352.632672) "></path>
        <path d="M355.449924,353.576 L359.300924,353.542 C361.671924,353.52 363.604924,354.819 363.62,356.443 C363.633924,358.067 361.723924,359.4 359.352924,359.421 L355.416924,359.456 L355.449924,353.576" id="Fill-131" fill="#DF5C4B" transform="translate(359.518462, 356.498862) scale(-1, 1) translate(-359.518462, -356.498862) "></path>
        <path d="M379.591,362.171 L386.154,362.171 C388.284,362.171 390.011,360.713 390.011,358.915 C390.011,357.116 388.284,355.659 386.154,355.659 L379.591,355.659 C377.461,355.659 375.734,357.116 375.734,358.915 C375.734,360.713 377.461,362.171 379.591,362.171" id="Fill-132" fill="#EA8D7D" transform="translate(382.872500, 358.915000) scale(-1, 1) translate(-382.872500, -358.915000) "></path>
        <path d="M390.327017,332.752 L375.496017,332.975 C373.084017,333.012 371.111017,331.856 371.088815,330.393 C371.066017,328.93 373.004017,327.715 375.416017,327.679 L390.247017,327.456 C392.659017,327.419 394.633017,328.575 394.655203,330.038 C394.677017,331.501 392.739017,332.716 390.327017,332.752" id="Fill-133" fill="#FFE386" transform="translate(382.872009, 330.215500) scale(-1, 1) rotate(15.000000) translate(-382.872009, -330.215500) "></path>
        <path d="M382.908,348.479 C382.908,350.447 384.503,352.042 386.47,352.042 C388.438,352.042 390.033,350.447 390.033,348.479 C390.033,346.512 388.438,344.917 386.47,344.917 C384.503,344.917 382.908,346.512 382.908,348.479" id="Fill-134" fill="#834736" transform="translate(386.470500, 348.479500) scale(-1, 1) translate(-386.470500, -348.479500) "></path>
        <path d="M387.185,348.271 L375.711,348.271 C374.607,348.271 373.711,347.375 373.711,346.271 C373.711,345.166 374.607,344.271 375.711,344.271 L387.185,344.271 C388.289,344.271 389.185,345.166 389.185,346.271 C389.185,347.375 388.289,348.271 387.185,348.271" id="Fill-135" fill="#834736" transform="translate(381.448000, 346.271000) scale(-1, 1) translate(-381.448000, -346.271000) "></path>
        <path d="M426.486,362.171 L433.049,362.171 C435.179,362.171 436.906,360.713 436.906,358.915 C436.906,357.116 435.179,355.659 433.049,355.659 L426.486,355.659 C424.356,355.659 422.629,357.116 422.629,358.915 C422.629,360.713 424.356,362.171 426.486,362.171" id="Fill-136" fill="#EA8D7D" transform="translate(429.767500, 358.915000) scale(-1, 1) translate(-429.767500, -358.915000) "></path>
        <path d="M440.223,333.752 L425.392,333.975 C422.98,334.012 421.006,332.856 420.983815,331.393 C420.962,329.93 422.9,328.715 425.312,328.679 L440.143,328.456 C442.555,328.419 444.529,329.575 444.551185,331.038 C444.573,332.501 442.635,333.716 440.223,333.752" id="Fill-137" fill="#FFE386" transform="translate(432.767500, 331.215500) scale(-1, 1) rotate(-15.000000) translate(-432.767500, -331.215500) "></path>
        <path d="M429.731,348.479 C429.731,350.447 428.136,352.042 426.169,352.042 C424.202,352.042 422.607,350.447 422.607,348.479 C422.607,346.512 424.202,344.917 426.169,344.917 C428.136,344.917 429.731,346.512 429.731,348.479" id="Fill-138" fill="#834736" transform="translate(426.169000, 348.479500) scale(-1, 1) translate(-426.169000, -348.479500) "></path>
        <path d="M436.928,348.271 L425.455,348.271 C424.35,348.271 423.455,347.375 423.455,346.271 C423.455,345.166 424.35,344.271 425.455,344.271 L436.928,344.271 C438.033,344.271 438.928,345.166 438.928,346.271 C438.928,347.375 438.033,348.271 436.928,348.271" id="Fill-139" fill="#834736" transform="translate(431.191500, 346.271000) scale(-1, 1) translate(-431.191500, -346.271000) "></path>
        <path d="M449.494,372.832 C449.494,374.8 451.089,376.395 453.056,376.395 C455.024,376.395 456.619,374.8 456.619,372.832 C456.619,370.865 455.024,369.27 453.056,369.27 C451.089,369.27 449.494,370.865 449.494,372.832" id="Fill-140" fill="#F2F1F0" transform="translate(453.056500, 372.832500) scale(-1, 1) translate(-453.056500, -372.832500) "></path>
        <path d="M355.956,372.832 C355.956,374.8 357.551,376.395 359.518,376.395 C361.486,376.395 363.081,374.8 363.081,372.832 C363.081,370.865 361.486,369.27 359.518,369.27 C357.551,369.27 355.956,370.865 355.956,372.832" id="Fill-141" fill="#F2F1F0" transform="translate(359.518500, 372.832500) scale(-1, 1) translate(-359.518500, -372.832500) "></path>
        <path d="M453.057,371.352 C452.505,371.352 452.057,370.904 452.057,370.352 L452.057,360.526 C452.057,359.973 452.505,359.526 453.057,359.526 C453.61,359.526 454.057,359.973 454.057,360.526 L454.057,370.352 C454.057,370.904 453.61,371.352 453.057,371.352" id="Fill-142" fill="#F2F1F0" transform="translate(453.057000, 365.439000) scale(-1, 1) translate(-453.057000, -365.439000) "></path>
        <path d="M359.519,371.352 C358.966,371.352 358.519,370.904 358.519,370.352 L358.519,360.526 C358.519,359.973 358.966,359.526 359.519,359.526 C360.072,359.526 360.519,359.973 360.519,360.526 L360.519,370.352 C360.519,370.904 360.072,371.352 359.519,371.352" id="Fill-143" fill="#F2F1F0" transform="translate(359.519000, 365.439000) scale(-1, 1) translate(-359.519000, -365.439000) "></path>
        <path d="M477.015,472.956 L477.015,514.523 L473.91,514.523 L473.91,478.853 C474.874,476.839 475.911,474.871 477.015,472.956" id="Fill-144" fill="#4D4E4C" transform="translate(475.462500, 493.739500) scale(-1, 1) translate(-475.462500, -493.739500) "></path>
        <path d="M464.017,455.683 L464.017,514.523 L460.919,514.523 L460.919,459.06 C461.85,457.983 462.807,456.939 463.791,455.916 C463.864,455.836 463.944,455.756 464.017,455.683" id="Fill-145" fill="#4D4E4C" transform="translate(462.468000, 485.103000) scale(-1, 1) translate(-462.468000, -485.103000) "></path>
        <polygon id="Fill-146" fill="#4D4E4C" transform="translate(449.470000, 483.843000) scale(-1, 1) translate(-449.470000, -483.843000) " points="447.921 514.523 451.019 514.523 451.019 453.163 447.921 453.163"></polygon>
        <polygon id="Fill-147" fill="#4D4E4C" transform="translate(436.475500, 483.843000) scale(-1, 1) translate(-436.475500, -483.843000) " points="434.923 514.523 438.028 514.523 438.028 453.163 434.923 453.163"></polygon>
        <polygon id="Fill-148" fill="#4D4E4C" transform="translate(423.477500, 483.843000) scale(-1, 1) translate(-423.477500, -483.843000) " points="421.925 514.523 425.03 514.523 425.03 453.163 421.925 453.163"></polygon>
        <polyline id="Fill-149" fill="#4D4E4C" transform="translate(411.722500, 482.995500) scale(-1, 1) translate(-411.722500, -482.995500) " points="408.927 451.468 414.518 514.523 411.413 514.523 411.413 453.163 408.927 451.468"></polyline>
        <polygon id="Fill-150" fill="#4D4E4C" transform="translate(397.481500, 483.843000) scale(-1, 1) translate(-397.481500, -483.843000) " points="395.929 514.523 399.034 514.523 399.034 453.163 395.929 453.163"></polygon>
        <polygon id="Fill-151" fill="#4D4E4C" transform="translate(384.487000, 483.843000) scale(-1, 1) translate(-384.487000, -483.843000) " points="382.938 514.523 386.036 514.523 386.036 453.163 382.938 453.163"></polygon>
        <polygon id="Fill-152" fill="#4D4E4C" transform="translate(371.489000, 483.843000) scale(-1, 1) translate(-371.489000, -483.843000) " points="369.94 514.523 373.038 514.523 373.038 453.163 369.94 453.163"></polygon>
        <polygon id="Fill-153" fill="#4D4E4C" transform="translate(358.494500, 483.843000) scale(-1, 1) translate(-358.494500, -483.843000) " points="356.942 514.523 360.047 514.523 360.047 453.163 356.942 453.163"></polygon>
        <path d="M347.049,460.822 L347.049,514.523 L343.944,514.523 L343.944,457.252 C345.015,458.409 346.052,459.599 347.049,460.822" id="Fill-154" fill="#4D4E4C" transform="translate(345.496500, 485.887500) scale(-1, 1) translate(-345.496500, -485.887500) "></path>
        <path d="M334.051,482.098 L334.051,514.523 L330.946,514.523 L330.946,475.655 C332.063,477.749 333.1,479.897 334.051,482.098" id="Fill-155" fill="#4D4E4C" transform="translate(332.498500, 495.089000) scale(-1, 1) translate(-332.498500, -495.089000) "></path>
        <path d="M461.145,514.433 L461.032,514.355 L461.026,514.355 L460.959,514.303 L460.713,514.133 L460.574,514.035 L415.403,483.025 L424.419,467.095 L404.732,455.555 C406.275,453.983 407.877,452.477 409.532,451.036 C416.101,445.324 423.528,440.675 431.579,437.35 C431.632,437.33 431.679,437.311 431.725,437.291 L458.586,507.58 L460.966,513.957 L460.999,514.035 L461.012,514.068 L461.032,514.107 L461.032,514.113 L461.099,514.303 L461.145,514.433" id="Fill-156" fill="#1A1919" transform="translate(432.938500, 475.862000) scale(-1, 1) translate(-432.938500, -475.862000) "></path>
        <path d="M457.708,514.133 L457.661,514.1 L456.325,513.031 L417.657,482.027 L423.979,466.541 L404.964,453.344 L406.327,451.036 C412.896,445.324 420.323,440.675 428.374,437.35 L457.688,514.094 L457.708,514.133" id="Fill-157" fill="#4D4E4C" transform="translate(431.336000, 475.741500) scale(-1, 1) translate(-431.336000, -475.741500) "></path>
        <path d="M385.124,467.095 L394.14,483.025 L348.969,514.035 L348.83,514.133 L348.584,514.303 L348.517,514.355 L348.511,514.355 L348.398,514.433 L348.444,514.303 L348.517,514.113 L348.517,514.107 L348.531,514.068 L348.544,514.035 L348.577,513.957 L350.957,507.58 L377.851,437.206 C377.904,437.226 377.951,437.246 377.997,437.265 C382.259,439.006 386.348,441.125 390.224,443.57 C393.296,445.507 396.234,447.645 399.02,449.98 C399.02,449.98 399.033,449.986 399.04,449.993 L399.06,450.012 C399.292,450.208 399.532,450.41 399.765,450.619 C401.566,452.151 403.302,453.768 404.964,455.463 L385.124,467.095" id="Fill-158" fill="#1A1919" transform="translate(376.681000, 475.819500) scale(-1, 1) translate(-376.681000, -475.819500) "></path>
        <path d="M385.717,466.541 L392.039,482.027 L353.371,513.031 L352.035,514.1 L351.988,514.133 L352.008,514.094 L381.355,437.265 C385.617,439.006 389.706,441.125 393.582,443.57 C396.654,445.507 399.592,447.645 402.378,449.98 C402.378,449.98 402.391,449.986 402.398,449.993 L402.418,450.012 C402.65,450.208 402.89,450.41 403.123,450.619 L404.732,453.344 L385.717,466.541" id="Fill-159" fill="#4D4E4C" transform="translate(378.360000, 475.699000) scale(-1, 1) translate(-378.360000, -475.699000) "></path>
        <polyline id="Fill-160" fill="#E4E4E3" transform="translate(387.606000, 464.329000) scale(-1, 1) translate(-387.606000, -464.329000) " points="375.365 501.582 375.365 450.565 391.885 427.076 399.847 437.266 375.365 501.582"></polyline>
        <polyline id="Fill-161" fill="#E4E4E3" transform="translate(422.001000, 464.329000) scale(-1, 1) translate(-422.001000, -464.329000) " points="434.242 501.582 434.242 450.565 417.721 427.076 409.76 437.266 434.242 501.582"></polyline>
        <polyline id="Fill-162" fill="#B53735" transform="translate(357.170500, 500.679000) scale(-1, 1) translate(-357.170500, -500.679000) " points="368.922 508.801 345.419 508.801 368.922 492.557 368.922 508.801"></polyline>
        <polyline id="Fill-163" fill="#DE4C3F" transform="translate(358.494500, 499.764000) scale(-1, 1) translate(-358.494500, -499.764000) " points="345.419 508.801 371.57 508.801 345.419 490.727 345.419 508.801"></polyline>
        <path d="M746.014,514.489 L544.128,514.489 C545.572,487.422 558.13,463.227 577.421,446.216 C580.711,443.312 584.193,440.618 587.852,438.155 C595.379,433.085 603.639,428.986 612.45,426.054 C613.503,425.701 614.561,425.365 615.624,425.051 C624.942,422.274 634.827,420.781 645.071,420.781 C699.099,420.781 743.226,462.279 746.014,514.489" id="Fill-164" fill="#343534" transform="translate(645.071000, 467.635000) scale(-1, 1) translate(-645.071000, -467.635000) "></path>
        <polygon id="Fill-165" fill="#F6C27C" transform="translate(645.006500, 428.253500) scale(-1, 1) translate(-645.006500, -428.253500) " points="615.821 474.639 674.192 474.639 674.192 381.868 615.821 381.868"></polygon>
        <polyline id="Fill-166" fill="#CBCCCB" transform="translate(644.978500, 480.393500) scale(-1, 1) translate(-644.978500, -480.393500) " points="679.073 446.134 663.108 514.653 626.819 514.653 610.884 446.134 679.073 446.134"></polyline>
        <path d="M656.357,416.763 L645.864,427.891 L652.46,458.649 C652.46,458.649 656.46,460.673 664.461,460.673 C672.462,460.673 673.262,461.01 677.263,455.949 C681.263,450.889 682.504,448.864 682.504,448.864 L656.357,416.763" id="Fill-167" fill="#8A8B8A" transform="translate(664.184000, 438.720327) scale(-1, 1) translate(-664.184000, -438.720327) "></path>
        <path d="M633.589,416.614 L644.081,427.742 L637.486,458.499 C637.486,458.499 633.485,460.524 625.485,460.524 C617.484,460.524 616.684,460.861 612.683,455.8 C608.683,450.739 607.442,448.715 607.442,448.715 L633.589,416.614" id="Fill-168" fill="#8A8B8A" transform="translate(625.761500, 438.571327) scale(-1, 1) translate(-625.761500, -438.571327) "></path>
        <polyline id="Fill-169" fill="#4F7B8A" transform="translate(645.006500, 457.459500) scale(-1, 1) translate(-645.006500, -457.459500) " points="650.141 468.839 656.009 446.08 634.004 446.08 639.872 468.839 650.141 468.839"></polyline>
        <polyline id="Fill-170" fill="#70909B" transform="translate(645.006500, 491.744000) scale(-1, 1) translate(-645.006500, -491.744000) " points="650.173 468.839 639.84 468.839 630.234 514.649 659.779 514.649 650.173 468.839"></polyline>
        <path d="M674.192,423.572 C674.192,423.572 653.805,429.201 646.917,429.201 C639.212,429.201 615.821,423.572 615.821,423.572 L615.821,340.051 L674.192,340.051 L674.192,423.572" id="Fill-171" fill="#EAAA64" transform="translate(645.006500, 384.626000) scale(-1, 1) translate(-645.006500, -384.626000) "></path>
        <path d="M658.539,414.031 L648.046,425.159 L654.642,455.916 C654.642,455.916 658.642,457.941 666.643,457.941 C674.644,457.941 675.444,458.278 679.445,453.217 C683.445,448.156 684.685,446.132 684.685,446.132 L658.539,414.031" id="Fill-172" fill="#CBCCCB" transform="translate(666.365500, 435.988327) scale(-1, 1) translate(-666.365500, -435.988327) "></path>
        <path d="M711.553,507.86 L712.638,514.489 L712.655,514.577 L712.721,514.985 L712.17,514.489 L668.76,475.255 L683.053,461.794 L663.139,446.216 C666.429,443.312 669.911,440.618 673.57,438.155 C676.028,436.502 678.557,434.953 681.163,433.515 C686.348,430.644 691.815,428.214 697.523,426.275 L711.553,507.86" id="Fill-173" fill="#1A1919" transform="translate(687.930000, 470.630000) scale(-1, 1) translate(-687.930000, -470.630000) "></path>
        <path d="M592.657,426.275 C598.365,428.214 603.831,430.644 609.017,433.515 C611.623,434.953 614.152,436.502 616.61,438.155 C620.269,440.618 623.751,443.312 627.041,446.216 L607.127,461.794 L621.42,475.255 L578.01,514.489 L577.459,514.985 L577.525,514.577 L577.542,514.489 L578.628,507.86 L592.657,426.275" id="Fill-174" fill="#1A1919" transform="translate(602.250000, 470.630000) scale(-1, 1) translate(-602.250000, -470.630000) "></path>
        <path d="M631.474,414.031 L641.966,425.159 L635.371,455.916 C635.371,455.916 631.37,457.941 623.37,457.941 C615.369,457.941 614.569,458.278 610.568,453.217 C606.568,448.156 605.327,446.132 605.327,446.132 L631.474,414.031" id="Fill-175" fill="#CBCCCB" transform="translate(623.646500, 435.988327) scale(-1, 1) translate(-623.646500, -435.988327) "></path>
        <polyline id="Fill-176" fill="#4D4E4C" transform="translate(685.352000, 467.172000) scale(-1, 1) translate(-685.352000, -467.172000) " points="691.238 419.695 663.14 445.184 681.377 461.839 670.249 475.428 707.564 514.649 691.238 419.695"></polyline>
        <polyline id="Fill-177" fill="#4D4E4C" transform="translate(604.638000, 467.172000) scale(-1, 1) translate(-604.638000, -467.172000) " points="598.752 419.695 626.85 445.184 608.613 461.839 619.741 475.428 582.426 514.649 598.752 419.695"></polyline>
        <path d="M721.045,494.527 L696.616,494.527 C694.993,494.527 693.677,493.211 693.677,491.588 C693.677,489.965 694.993,488.649 696.616,488.649 L721.045,488.649 C722.668,488.649 723.984,489.965 723.984,491.588 C723.984,493.211 722.668,494.527 721.045,494.527" id="Fill-178" fill="#4D4E4C" transform="translate(708.830500, 491.588000) scale(-1, 1) translate(-708.830500, -491.588000) "></path>
        <path d="M713.728,330.433 L713.728,355.586 C705.17,355.586 698.233,349.956 698.233,343.009 C698.233,336.063 705.17,330.433 713.728,330.433" id="Fill-179" fill="#F3BA6F" transform="translate(705.980500, 343.009500) scale(-1, 1) translate(-705.980500, -343.009500) "></path>
        <path d="M576.556,330.433 L576.556,355.586 C585.114,355.586 592.052,349.956 592.052,343.009 C592.052,336.063 585.114,330.433 576.556,330.433" id="Fill-180" fill="#F3BA6F" transform="translate(584.304000, 343.009500) scale(-1, 1) translate(-584.304000, -343.009500) "></path>
        <path d="M595.616,350.963 L587.098,350.963 C584.334,350.963 582.092,349.428 582.092,347.535 C582.092,345.641 584.334,344.107 587.098,344.107 L595.616,344.107 C598.381,344.107 600.622,345.641 600.622,347.535 C600.622,349.428 598.381,350.963 595.616,350.963" id="Fill-181" fill="#DF5C4B" transform="translate(591.357000, 347.535000) scale(-1, 1) translate(-591.357000, -347.535000) "></path>
        <path d="M702.491,350.963 L693.974,350.963 C691.209,350.963 688.968,349.428 688.968,347.535 C688.968,345.641 691.209,344.107 693.974,344.107 L702.491,344.107 C705.256,344.107 707.497,345.641 707.497,347.535 C707.497,349.428 705.256,350.963 702.491,350.963" id="Fill-182" fill="#DF5C4B" transform="translate(698.232500, 347.535000) scale(-1, 1) translate(-698.232500, -347.535000) "></path>
        <path d="M698.229,369.59 C698.229,398.973 674.412,422.797 645.029,422.797 L644.864,422.797 C618.436,422.718 596.548,403.376 592.496,378.074 C592.051,375.313 591.822,372.48 591.822,369.59 L591.822,309.347 C591.822,279.964 604.917,252.805 634.293,252.805 L634.307,252.805 C663.69,252.805 698.229,279.972 698.229,309.354 L698.229,369.59 Z" id="Fill-183" fill="#F6C27C" transform="translate(645.025500, 337.801000) scale(-1, 1) translate(-645.025500, -337.801000) "></path>
        <path d="M697.555,378.074 C697.404,378.232 692.362,383.381 683.778,383.618 C675.05,383.855 667.348,376.747 667.348,376.747 L622.794,376.747 C622.794,376.747 615.092,383.855 606.364,383.618 C597.779,383.381 592.738,378.232 592.587,378.074 C596.633,403.339 618.81,422.658 645.187,422.794 L645.187,422.797 C645.21,422.797 645.233,422.796 645.256,422.795 C645.272,422.795 645.287,422.796 645.303,422.797 L645.303,422.794 C671.679,422.659 693.509,403.339 697.555,378.074" id="Fill-184" fill="#C49D67" transform="translate(645.071000, 399.772000) scale(-1, 1) translate(-645.071000, -399.772000) "></path>
        <path d="M667.346,376.747 L667.346,376.747 C667.346,370.689 664.173,365.779 660.26,365.779 L630.11,365.779 C626.197,365.779 623.024,370.689 623.024,376.747 L667.346,376.747" id="Fill-185" fill="#694F3C" transform="translate(645.185000, 371.263000) scale(-1, 1) translate(-645.185000, -371.263000) "></path>
        <path d="M638.184,360.861 C638.378,364.537 641.438,367.458 645.185,367.458 C648.932,367.458 651.992,364.537 652.186,360.861 L638.184,360.861" id="Fill-186" fill="#DF5C4B" transform="translate(645.185000, 364.159500) scale(-1, 1) translate(-645.185000, -364.159500) "></path>
        <path d="M648.651,396.791 L641.719,396.791 C639.47,396.791 637.646,395.93 637.646,394.868 C637.646,393.806 639.47,392.945 641.719,392.945 L648.651,392.945 C650.9,392.945 652.724,393.806 652.724,394.868 C652.724,395.93 650.9,396.791 648.651,396.791" id="Fill-187" fill="#7E4E38" transform="translate(645.185000, 394.868000) scale(-1, 1) translate(-645.185000, -394.868000) "></path>
        <path d="M634.686,382.121 C634.713,382.251 634.741,382.379 634.773,382.507 C635.923,387.189 640.149,390.66 645.186,390.66 C650.222,390.66 654.447,387.189 655.597,382.507 C655.629,382.379 655.657,382.251 655.684,382.121 L634.686,382.121" id="Fill-188" fill="#7E4E38" transform="translate(645.185000, 386.390500) scale(-1, 1) translate(-645.185000, -386.390500) "></path>
        <path d="M659.996002,326.354 L677.292002,326.369001 C680.106002,326.371 682.388002,324.092 682.391003,321.279 C682.393002,318.465 680.114002,316.183 677.301002,316.18 L660.005002,316.165997 C657.192002,316.163 654.909002,318.442 654.906999,321.255 C654.904002,324.069 657.183002,326.351 659.996002,326.354" id="Fill-189" fill="#694F3C" transform="translate(668.649001, 321.267499) scale(-1, 1) rotate(-10.000000) translate(-668.649001, -321.267499) "></path>
        <path d="M698.229,309.354 L698.229,339.103 C697.612,339.698 696.953,340.243 696.25,340.745 L695.493,340.767 C695.493,340.767 691.516,314.037 689.472,306.027 C686.353,293.827 685.808,285.408 675.229,290.335 C670.259,292.658 664.565,306.744 649.554,311.864 C629.617,318.663 622.703,295.534 615.467,290.779 C613.201,289.295 610.719,289.245 608.374,289.883 C602.694,291.432 598.656,296.725 598.068,302.864 L594.45,340.767 L593.801,340.745 C593.098,340.243 592.439,339.698 591.822,339.103 L591.822,309.347 C591.822,279.964 604.917,252.805 634.293,252.805 L634.307,252.805 C663.69,252.805 698.229,279.972 698.229,309.354" id="Fill-190" fill="#EAAA64" transform="translate(645.025500, 296.786000) scale(-1, 1) translate(-645.025500, -296.786000) "></path>
        <path d="M611.528998,326.354 L628.824998,326.369001 C631.637998,326.371 633.920998,324.092 633.923001,321.279 C633.925998,318.465 631.646998,316.183 628.833998,316.18 L611.537998,316.165997 C608.724998,316.163 606.441998,318.442 606.438997,321.255 C606.436998,324.069 608.715998,326.351 611.528998,326.354" id="Fill-191" fill="#694F3C" transform="translate(620.180999, 321.267499) scale(-1, 1) rotate(10.000000) translate(-620.180999, -321.267499) "></path>
        <polygon id="Fill-192" fill="#EAAA64" transform="translate(693.244500, 338.884000) scale(-1, 1) translate(-693.244500, -338.884000) " points="688.26 340.767 698.229 340.767 698.229 337.001 688.26 337.001"></polygon>
        <polygon id="Fill-193" fill="#EAAA64" transform="translate(596.222000, 338.884000) scale(-1, 1) translate(-596.222000, -338.884000) " points="591.822 340.767 600.622 340.767 600.622 337.001 591.822 337.001"></polygon>
        <path d="M706.882019,295.219 L706.882019,294.113 C706.882019,289.738 706.424019,286.386 705.727019,283.784 C705.454019,281.907 705.148019,279.992 704.776019,278.002 C697.528019,239.315 631.355019,202.43 595.579019,261.998 C594.445019,263.886 593.249019,265.735 592.779019,267.886 C592.236019,270.37 591.308019,273.631 590.037019,274.62 C587.897019,276.284 582.882019,279.612 582.882019,294.113 L582.882019,320.4 C582.882019,326.557 585.939019,332.313 591.042019,335.761 L591.677019,336.191 L595.529019,297.876 C596.145019,291.743 600.391019,286.445 606.359019,284.899 C608.823019,284.261 611.432019,284.307 613.809019,285.793 C621.417019,290.547 628.688019,313.68 649.643019,306.879 C665.421019,301.759 671.402019,287.671 676.627019,285.353 C687.743019,280.423 688.320019,288.842 691.598019,301.041 C693.749019,309.05 697.858019,336.191 697.858019,336.191 C697.858019,336.191 697.934019,336.102 698.061019,335.94 L698.086019,336.191 L698.722019,335.761 C703.824019,332.313 706.882019,326.557 706.882019,320.4 L706.882019,306.068 C707.066019,302.751 707.087019,299.145 706.882019,295.219" id="Fill-200" fill="#4D3A2C" transform="translate(644.955009, 283.435586) scale(-1, 1) translate(-644.955009, -283.435586) "></path>
        <path d="M672.803,341.568 C672.803,343.862 670.943,345.722 668.649,345.722 C666.355,345.722 664.495,343.862 664.495,341.568 C664.495,339.274 666.355,337.414 668.649,337.414 C670.943,337.414 672.803,339.274 672.803,341.568" id="Fill-201" fill="#834736" transform="translate(668.649000, 341.568000) scale(-1, 1) translate(-668.649000, -341.568000) "></path>
        <path d="M616.026,341.568 C616.026,343.862 617.886,345.722 620.181,345.722 C622.475,345.722 624.335,343.862 624.335,341.568 C624.335,339.274 622.475,337.414 620.181,337.414 C617.886,337.414 616.026,339.274 616.026,341.568" id="Fill-202" fill="#834736" transform="translate(620.180500, 341.568000) scale(-1, 1) translate(-620.180500, -341.568000) "></path>
        <path d="M686.183569,301.558 L686.183569,301.558 C683.783569,303.471 679.595569,302.208 676.828569,298.737 L651.779569,267.312 C649.012569,263.841 648.714569,259.477 651.114569,257.563 C653.514569,255.65 657.703569,256.913 660.470569,260.384 L685.519569,291.809 C688.286569,295.28 688.583569,299.645 686.183569,301.558" id="Fill-203" fill="#5D4635" transform="translate(668.649285, 279.560500) scale(-1, 1) translate(-668.649285, -279.560500) "></path>
        <path d="M596.358,514.32 L455.709,514.32 C455.742,513.81 455.767,513.307 455.806,512.798 L455.806,512.752 C456.406,504.969 458.321,497.546 461.339,490.698 C461.365,490.639 461.391,490.588 461.417,490.53 C462.152,488.872 462.951,487.247 463.816,485.661 C471.741,471.061 484.865,459.582 500.78,453.598 C502.128,453.088 503.489,452.624 504.875,452.198 C511.55,450.141 518.656,449.032 526.034,449.032 C533.431,449.032 540.563,450.147 547.263,452.217 C548.65,452.65 550.017,453.12 551.365,453.63 C565.23,458.86 576.979,468.275 585.002,480.283 C586.046,481.837 587.027,483.436 587.936,485.081 C588.11,485.384 588.278,485.7 588.445,486.009 C593.018,494.547 595.816,504.137 596.358,514.32" id="Fill-204" fill="#DE4C3F" transform="translate(526.033500, 481.676000) scale(-1, 1) translate(-526.033500, -481.676000) "></path>
        <polyline id="Fill-205" fill="#B53735" transform="translate(545.150000, 484.235000) scale(-1, 1) translate(-545.150000, -484.235000) " points="560.935 478.928 531.668 489.608 529.365 478.862 560.935 478.928"></polyline>
        <polyline id="Fill-206" fill="#B53735" transform="translate(506.742000, 484.235000) scale(-1, 1) translate(-506.742000, -484.235000) " points="490.957 478.928 520.223 489.608 522.527 478.862 490.957 478.928"></polyline>
        <polygon id="Fill-207" fill="#F6C27C" transform="translate(525.988500, 451.015000) scale(-1, 1) translate(-525.988500, -451.015000) " points="505.655 480.109 546.322 480.109 546.322 421.921 505.655 421.921"></polygon>
        <path d="M546.322,450.976 C546.322,450.976 532.118,454.897 527.32,454.897 C521.952,454.897 505.655,450.976 505.655,450.976 L505.655,392.788 L546.322,392.788 L546.322,450.976" id="Fill-208" fill="#EAAA64" transform="translate(525.988500, 423.842500) scale(-1, 1) translate(-525.988500, -423.842500) "></path>
        <path d="M477.438,379.5 L477.438,397.809 C483.667,397.809 488.717,393.71 488.717,388.654 C488.717,383.598 483.667,379.5 477.438,379.5" id="Fill-209" fill="#F3BA6F" transform="translate(483.077500, 388.654500) scale(-1, 1) translate(-483.077500, -388.654500) "></path>
        <path d="M491.312,394.443 L485.112,394.443 C483.1,394.443 481.468,393.326 481.468,391.948 C481.468,390.57 483.1,389.453 485.112,389.453 L491.312,389.453 C493.325,389.453 494.956,390.57 494.956,391.948 C494.956,393.326 493.325,394.443 491.312,394.443" id="Fill-210" fill="#DF5C4B" transform="translate(488.212000, 391.948000) scale(-1, 1) translate(-488.212000, -391.948000) "></path>
        <path d="M577.286,379.5 L577.286,397.809 C571.056,397.809 566.006,393.71 566.006,388.654 C566.006,383.598 571.056,379.5 577.286,379.5" id="Fill-211" fill="#F3BA6F" transform="translate(571.646000, 388.654500) scale(-1, 1) translate(-571.646000, -388.654500) "></path>
        <path d="M569.106,394.443 L562.907,394.443 C560.894,394.443 559.263,393.326 559.263,391.948 C559.263,390.57 560.894,389.453 562.907,389.453 L569.106,389.453 C571.119,389.453 572.75,390.57 572.75,391.948 C572.75,393.326 571.119,394.443 569.106,394.443" id="Fill-212" fill="#DF5C4B" transform="translate(566.006500, 391.948000) scale(-1, 1) translate(-566.006500, -391.948000) "></path>
        <path d="M566.009,408.004 C566.009,409.223 565.951,410.429 565.835,411.622 C565.596,414.189 565.112,416.684 564.396,419.077 C561.295,429.485 553.937,438.049 544.354,442.77 C539.207,445.311 533.41,446.73 527.277,446.73 C524.162,446.73 521.138,446.362 518.242,445.672 C515.34,444.975 512.567,443.957 509.962,442.654 C500.489,437.914 493.234,429.402 490.158,419.083 C489.397,416.555 488.9,413.911 488.674,411.197 C488.591,410.145 488.546,409.081 488.546,408.004 L488.546,364.152 C488.546,363.366 488.571,362.585 488.616,361.811 C488.681,360.676 488.797,359.554 488.965,358.445 C491.725,339.763 507.821,325.427 527.271,325.427 L527.277,325.427 C546.727,325.427 562.829,339.769 565.59,358.445 C565.751,359.554 565.867,360.676 565.938,361.811 C565.983,362.585 566.009,363.372 566.009,364.159 L566.009,408.004 Z" id="Fill-213" fill="#F6C27C" transform="translate(527.277500, 386.078500) scale(-1, 1) translate(-527.277500, -386.078500) "></path>
        <path d="M522.298,401.648 C522.439,404.324 524.666,406.45 527.394,406.45 C530.121,406.45 532.349,404.324 532.489,401.648 L522.298,401.648" id="Fill-214" fill="#DF5C4B" transform="translate(527.393500, 404.049000) scale(-1, 1) translate(-527.393500, -404.049000) "></path>
        <path d="M547.232,401.029 L541.661,401.029 C539.853,401.029 538.387,400.025 538.387,398.787 C538.387,397.549 539.853,396.545 541.661,396.545 L547.232,396.545 C549.04,396.545 550.506,397.549 550.506,398.787 C550.506,400.025 549.04,401.029 547.232,401.029" id="Fill-215" fill="#EC9967" transform="translate(544.446500, 398.787000) scale(-1, 1) translate(-544.446500, -398.787000) "></path>
        <path d="M511.956,401.029 L506.385,401.029 C504.577,401.029 503.111,400.025 503.111,398.787 C503.111,397.549 504.577,396.545 506.385,396.545 L511.956,396.545 C513.764,396.545 515.23,397.549 515.23,398.787 C515.23,400.025 513.764,401.029 511.956,401.029" id="Fill-216" fill="#EC9967" transform="translate(509.170500, 398.787000) scale(-1, 1) translate(-509.170500, -398.787000) "></path>
        <path d="M570.421,355.73 L570.421,399.939 C567.983,399.939 566.006,395.977 566.006,391.09 L567.417,358.184 C568.78,356.845 568.716,352.801 570.079,351.273 C570.305,352.728 570.421,354.217 570.421,355.73" id="Fill-217" fill="#FFE386" transform="translate(568.213500, 375.606000) scale(-1, 1) translate(-568.213500, -375.606000) "></path>
        <path d="M484.132,355.73 L484.132,399.939 C486.569,399.939 488.546,395.977 488.546,391.09 L487.196,358.184 C485.833,356.845 485.836,352.801 484.473,351.273 C484.247,352.728 484.132,354.217 484.132,355.73" id="Fill-218" fill="#FFE386" transform="translate(486.339000, 375.606000) scale(-1, 1) translate(-486.339000, -375.606000) "></path>
        <path d="M525.988,504.612 L525.988,504.612 C523.911,504.612 522.227,502.928 522.227,500.851 L522.227,480.176 L529.749,480.176 L529.749,500.851 C529.749,502.928 528.065,504.612 525.988,504.612" id="Fill-219" fill="#B53735" transform="translate(525.988000, 492.394000) scale(-1, 1) translate(-525.988000, -492.394000) "></path>
        <path d="M528.232,484.685 C528.232,485.924 527.228,486.929 525.989,486.929 C524.75,486.929 523.745,485.924 523.745,484.685 C523.745,483.446 524.75,482.442 525.989,482.442 C527.228,482.442 528.232,483.446 528.232,484.685" id="Fill-220" fill="#051A21" transform="translate(525.988500, 484.685500) scale(-1, 1) translate(-525.988500, -484.685500) "></path>
        <path d="M528.232,493.567 C528.232,494.806 527.228,495.811 525.989,495.811 C524.75,495.811 523.745,494.806 523.745,493.567 C523.745,492.328 524.75,491.324 525.989,491.324 C527.228,491.324 528.232,492.328 528.232,493.567" id="Fill-221" fill="#051A21" transform="translate(525.988500, 493.567500) scale(-1, 1) translate(-525.988500, -493.567500) "></path>
        <path d="M514.304,390.253 C514.29,390.19 514.277,390.127 514.261,390.065 C513.699,387.776 511.632,386.078 509.17,386.078 C506.708,386.078 504.642,387.776 504.08,390.065 C504.064,390.127 504.051,390.19 504.037,390.253 L514.304,390.253" id="Fill-222" fill="#786048" transform="translate(509.170500, 388.165500) scale(-1, 1) translate(-509.170500, -388.165500) "></path>
        <path d="M549.58,390.253 C549.566,390.19 549.553,390.127 549.537,390.065 C548.975,387.776 546.908,386.078 544.446,386.078 C541.984,386.078 539.918,387.776 539.356,390.065 C539.34,390.127 539.326,390.19 539.313,390.253 L549.58,390.253" id="Fill-223" fill="#786048" transform="translate(544.446500, 388.165500) scale(-1, 1) translate(-544.446500, -388.165500) "></path>
        <path d="M483.824,514.316 L455.707,514.316 L455.857,497.49 L475.401,485.079 C475.574,485.386 475.743,485.697 475.908,486.008 C480.48,494.546 483.278,504.139 483.824,514.316" id="Fill-224" fill="#F6C27C" transform="translate(469.765500, 499.697500) scale(-1, 1) translate(-469.765500, -499.697500) "></path>
        <path d="M483.674,486.008 L463.623,506.289 L463.623,497.49 L480.234,480.28 C481.278,481.835 482.257,483.436 483.167,485.079 C483.34,485.386 483.509,485.697 483.674,486.008" id="Fill-225" fill="#E4725A" transform="translate(473.648500, 493.284500) scale(-1, 1) translate(-473.648500, -493.284500) "></path>
        <path d="M568.242,514.316 L596.359,514.316 L596.209,497.49 L576.665,485.079 C576.492,485.386 576.323,485.697 576.158,486.008 C571.586,494.546 568.788,504.139 568.242,514.316" id="Fill-226" fill="#F6C27C" transform="translate(582.300500, 499.697500) scale(-1, 1) translate(-582.300500, -499.697500) "></path>
        <path d="M568.392,486.008 L588.443,506.289 L588.443,497.49 L571.832,480.28 C570.788,481.835 569.809,483.436 568.899,485.079 C568.726,485.386 568.557,485.697 568.392,486.008" id="Fill-227" fill="#E4725A" transform="translate(578.417500, 493.284500) scale(-1, 1) translate(-578.417500, -493.284500) "></path>
        <polyline id="Fill-228" fill="#4B6A73" transform="translate(524.819500, 470.795500) scale(-1, 1) translate(-524.819500, -470.795500) " points="510.914 461.415 538.725 461.415 535.742 480.176 510.914 480.176 510.914 461.415"></polyline>
        <path d="M551.287,453.63 C547.179,460.846 537.402,465.921 526.001,465.921 C514.58,465.921 504.791,460.833 500.702,453.598 C502.05,453.088 503.411,452.624 504.797,452.198 C509.485,457.306 517.237,460.64 526.001,460.64 C534.758,460.64 542.497,457.312 547.185,452.217 C548.572,452.65 549.939,453.12 551.287,453.63" id="Fill-229" fill="#051A21" transform="translate(525.994500, 459.059500) scale(-1, 1) translate(-525.994500, -459.059500) "></path>
        <path d="M569.008,339.879 L569.008,358.187 L485.483,358.187 L485.483,339.879 C485.483,329.929 490.461,321.139 498.071,315.87 C499.902,314.6 501.889,313.536 503.991,312.704 C507.299,311.408 510.898,310.692 514.664,310.692 L539.827,310.692 C545.799,310.692 551.357,312.491 555.981,315.567 C563.836,320.803 569.008,329.735 569.008,339.879" id="Fill-230" fill="#0E1F2D" transform="translate(527.245500, 334.439500) scale(-1, 1) translate(-527.245500, -334.439500) "></path>
        <path d="M566.009,380.365 C558.96,380.436 544.644,374.78 536.654,374.599 C527.277,374.38 527.277,374.38 527.277,374.38 C527.277,374.38 527.277,374.38 517.901,374.599 C509.91,374.78 495.594,380.436 488.546,380.365 L488.546,364.152 C488.546,363.366 488.571,362.585 488.616,361.811 L565.938,361.811 L566.009,380.365" id="Fill-231" fill="#EAAA64" transform="translate(527.277500, 371.088331) scale(-1, 1) translate(-527.277500, -371.088331) "></path>
        <path d="M568.943,358.184 L485.615,358.184 C485.615,358.184 480.754,373.335 485.615,376.129 C490.476,378.923 508.53,371.186 517.905,370.971 C527.279,370.756 527.279,370.756 527.279,370.756 C527.279,370.756 527.279,370.756 536.654,370.971 C546.028,371.186 564.083,378.923 568.943,376.129 C573.804,373.335 568.943,358.184 568.943,358.184" id="Fill-232" fill="#708494" transform="translate(527.279000, 367.460274) scale(-1, 1) translate(-527.279000, -367.460274) "></path>
        <path d="M560.915,358.187 L493.576,358.187 C493.576,358.187 496.375,345.438 495.375,340.382 C494.376,335.326 493.073,333.127 493.782,326.723 C494.086,324.002 495.988,319.804 498.071,315.87 C499.902,314.6 501.889,313.536 503.991,312.704 C507.299,311.408 510.898,310.692 514.664,310.692 L539.827,310.692 C545.799,310.692 551.357,312.491 555.981,315.567 C558.284,319.61 560.399,323.957 560.708,326.723 C561.418,333.127 560.115,335.326 559.115,340.382 C558.116,345.438 560.915,358.187 560.915,358.187" id="Fill-233" fill="#153045" transform="translate(527.245500, 334.439500) scale(-1, 1) translate(-527.245500, -334.439500) "></path>
        <path d="M528.455,428.117 L523.523,428.117 C521.922,428.117 520.624,427.505 520.624,426.749 C520.624,425.993 521.922,425.381 523.523,425.381 L528.455,425.381 C530.056,425.381 531.353,425.993 531.353,426.749 C531.353,427.505 530.056,428.117 528.455,428.117" id="Fill-234" fill="#7E4E38" transform="translate(525.988500, 426.749000) scale(-1, 1) translate(-525.988500, -426.749000) "></path>
        <path d="M518.518,417.68 C518.538,417.772 518.558,417.863 518.58,417.954 C519.399,421.285 522.406,423.755 525.989,423.755 C529.573,423.755 532.579,421.285 533.397,417.954 C533.42,417.863 533.44,417.772 533.459,417.68 L518.518,417.68" id="Fill-235" fill="#7E4E38" transform="translate(525.988500, 420.717500) scale(-1, 1) translate(-525.988500, -420.717500) "></path>
        <path d="M503.874,382.649 L514.463,382.658001 C516.186,382.659 517.583,381.636 517.584001,380.372 C517.585,379.109 516.189,378.083 514.467,378.082 L503.878,378.072997 C502.155,378.071 500.758,379.094 500.756999,380.358 C500.756,381.622 502.151,382.648 503.874,382.649" id="Fill-236" fill="#FFE386" transform="translate(509.170500, 380.365499) scale(-1, 1) translate(-509.170500, -380.365499) "></path>
        <path d="M539.15,382.649 L549.739,382.658001 C551.461,382.659 552.859,381.636 552.860001,380.372 C552.861,379.109 551.465,378.083 549.743,378.082 L539.154,378.072997 C537.431,378.071 536.034,379.094 536.032999,380.358 C536.032,381.622 537.428,382.648 539.15,382.649" id="Fill-237" fill="#FFE386" transform="translate(544.446500, 380.365499) scale(-1, 1) translate(-544.446500, -380.365499) "></path>
        <polyline id="Fill-238" fill="#E4725A" transform="translate(505.654500, 461.415000) scale(-1, 1) translate(-505.654500, -461.415000) " points="488.122 480.176 523.187 480.176 505.654 442.654 488.122 480.176"></polyline>
        <polyline id="Fill-239" fill="#E4725A" transform="translate(546.321500, 461.415000) scale(-1, 1) translate(-546.321500, -461.415000) " points="528.789 480.176 563.854 480.176 546.321 442.654 528.789 480.176"></polyline>
        <path d="M622.845,353.484 L617.274,353.484 C615.466,353.484 614,352.48 614,351.242 C614,350.004 615.466,349 617.274,349 L622.845,349 C624.653,349 626.119,350.004 626.119,351.242 C626.119,352.48 624.653,353.484 622.845,353.484" id="Fill-215" fill="#EC9967"></path>
        <path d="M671.845,353.484 L666.274,353.484 C664.466,353.484 663,352.48 663,351.242 C663,350.004 664.466,349 666.274,349 L671.845,349 C673.653,349 675.119,350.004 675.119,351.242 C675.119,352.48 673.653,353.484 671.845,353.484" id="Fill-215" fill="#EC9967"></path>
        <g id="emblem-light" transform="translate(511.000000, 319.000000)" fill-rule="nonzero">
            <g id="logo-core" transform="translate(0.976378, 0.325459)">
                <g id="H-bottom" transform="translate(4.472131, 22.259016)">
                    <g id="path-1-link" fill="#000000">
                        <path d="M19.6892898,1.43385591 C13.9528538,5.75237088 6.06718726,5.75237088 0.330751359,1.43385591 C-0.00632223148,1.17927771 -0.0960023652,0.738422846 0.120466915,0.480740072 L0.318381689,0.241684944 C0.537943386,-0.0191024033 0.955419858,-0.0315209016 1.25847684,0.19511583 C6.44446234,4.1007174 13.5786712,4.1007174 18.7646568,0.19511583 C19.0677137,-0.0315209016 19.4851902,-0.0191024033 19.7047519,0.241684944 L19.9026667,0.480740072 C20.1160435,0.74152742 20.0294558,1.17927771 19.6892898,1.43385591" id="path-1"></path>
                    </g>
                    <g id="path-1-link" fill="#14A84E">
                        <path d="M19.6892898,1.43385591 C13.9528538,5.75237088 6.06718726,5.75237088 0.330751359,1.43385591 C-0.00632223148,1.17927771 -0.0960023652,0.738422846 0.120466915,0.480740072 L0.318381689,0.241684944 C0.537943386,-0.0191024033 0.955419858,-0.0315209016 1.25847684,0.19511583 C6.44446234,4.1007174 13.5786712,4.1007174 18.7646568,0.19511583 C19.0677137,-0.0315209016 19.4851902,-0.0191024033 19.7047519,0.241684944 L19.9026667,0.480740072 C20.1160435,0.74152742 20.0294558,1.17927771 19.6892898,1.43385591" id="path-1"></path>
                    </g>
                </g>
                <g id="H-right" transform="translate(21.547541, 13.416393)">
                    <g id="path-3-link" fill="#000000">
                        <path d="M0.564314243,14.5548028 L0.564314243,14.5548028 C0.196440698,14.3722389 0.00477552459,14.0287713 0.137704643,13.79051 C2.17801142,10.0278377 2.85811371,5.41423223 1.72357947,0.834664125 C1.65247787,0.540705354 1.9028792,0.191049138 2.29239227,0.0579940885 L2.29239227,0.0579940885 C2.68190544,-0.0750609607 3.07450987,0.0796541443 3.12397194,0.308632646 C4.38834384,5.23166835 3.70824155,10.2227788 1.5319143,14.3289187 C1.35879739,14.6785749 0.935279148,14.7342724 0.564314243,14.5548028" id="path-3"></path>
                    </g>
                    <g id="path-3-link" fill="#81B753">
                        <path d="M0.564314243,14.5548028 L0.564314243,14.5548028 C0.196440698,14.3722389 0.00477552459,14.0287713 0.137704643,13.79051 C2.17801142,10.0278377 2.85811371,5.41423223 1.72357947,0.834664125 C1.65247787,0.540705354 1.9028792,0.191049138 2.29239227,0.0579940885 L2.29239227,0.0579940885 C2.68190544,-0.0750609607 3.07450987,0.0796541443 3.12397194,0.308632646 C4.38834384,5.23166835 3.70824155,10.2227788 1.5319143,14.3289187 C1.35879739,14.6785749 0.935279148,14.7342724 0.564314243,14.5548028" id="path-3"></path>
                    </g>
                </g>
                <g id="H-left" transform="translate(3.760656, 13.416393)">
                    <g id="path-5-link" fill="#000000">
                        <path d="M3.27641897,14.5527819 L3.25478822,14.5527819 C3.62251081,14.3704761 3.81409738,14.027494 3.68431293,13.7864795 C1.64175301,10.0260358 0.961929736,5.40968173 2.09599856,0.833496695 C2.16707099,0.539953528 1.91677242,0.190791482 1.52741909,0.0579245672 C1.13497566,-0.0749424492 0.742532226,0.0795540295 0.69618064,0.30820881 C-0.56767263,5.23046585 0.112150641,10.2207013 2.28758511,14.327217 C2.46372115,14.6763791 2.88706563,14.7350877 3.25787833,14.5558718" id="path-5"></path>
                    </g>
                    <g id="path-5-link" fill="#AF6A3D">
                        <path d="M3.27641897,14.5527819 L3.25478822,14.5527819 C3.62251081,14.3704761 3.81409738,14.027494 3.68431293,13.7864795 C1.64175301,10.0260358 0.961929736,5.40968173 2.09599856,0.833496695 C2.16707099,0.539953528 1.91677242,0.190791482 1.52741909,0.0579245672 C1.13497566,-0.0749424492 0.742532226,0.0795540295 0.69618064,0.30820881 C-0.56767263,5.23046585 0.112150641,10.2207013 2.28758511,14.327217 C2.46372115,14.6763791 2.88706563,14.7350877 3.25787833,14.5558718" id="path-5"></path>
                    </g>
                </g>
                <g id="A-cross" transform="translate(1.931148, 11.790164)">
                    <g id="path-7-link" fill="#000000">
                        <path d="M24.0781849,3.62234024 C16.6461878,1.16176027 8.61084378,1.16176027 1.1788467,3.62234024 C0.724015906,3.77305076 0.22586789,3.54852284 0.0680694544,3.11176984 C-0.0897289918,2.67501693 0.167080232,2.17674946 0.64666373,2.01988753 C8.4282926,-0.554494256 16.8380212,-0.554494256 24.6196501,2.01988753 C25.0992336,2.17982517 25.3560428,2.67501693 25.1982444,3.11176984 C25.0373519,3.54852284 24.5392038,3.77305076 24.0874671,3.62234024" id="path-7"></path>
                    </g>
                    <g id="path-7-link" fill="#F64D54">
                        <path d="M24.0781849,3.62234024 C16.6461878,1.16176027 8.61084378,1.16176027 1.1788467,3.62234024 C0.724015906,3.77305076 0.22586789,3.54852284 0.0680694544,3.11176984 C-0.0897289918,2.67501693 0.167080232,2.17674946 0.64666373,2.01988753 C8.4282926,-0.554494256 16.8380212,-0.554494256 24.6196501,2.01988753 C25.0992336,2.17982517 25.3560428,2.67501693 25.1982444,3.11176984 C25.0373519,3.54852284 24.5392038,3.77305076 24.0874671,3.62234024" id="path-7"></path>
                    </g>
                </g>
                <g id="A-right" transform="translate(14.534426, 0.000000)">
                    <g id="path-9-link" fill="#000000">
                        <path d="M0,1.08428782 L0,0.272445155 L0.118171085,0.272445155 C0.241922882,0.0951497872 0.439507938,0 0.640227551,0 L0.640229279,0 C0.765581489,0 0.892157944,0.0371101326 1.00273596,0.114498534 C6.74003616,4.04458212 11.7721587,10.4832296 14.462968,18.8574976 C14.6052407,19.3034646 14.4320391,19.9135721 14.0825433,20.1953984 C13.7299545,20.4741278 13.3371582,20.3316661 13.2041642,19.8887961 C10.7174853,11.582662 5.86474994,5.17188742 0.282094003,1.23870684 C0.241886495,1.20773692 0.204771872,1.17366999 0.170750134,1.13650608 C0.119985144,1.10544184 0.061505118,1.08725315 0,1.08428817 L0,1.08428782 Z" id="path-9"></path>
                    </g>
                    <g id="path-9-link" fill="#F0B573">
                        <path d="M0,1.08428782 L0,0.272445155 L0.118171085,0.272445155 C0.241922882,0.0951497872 0.439507938,0 0.640227551,0 L0.640229279,0 C0.765581489,0 0.892157944,0.0371101326 1.00273596,0.114498534 C6.74003616,4.04458212 11.7721587,10.4832296 14.462968,18.8574976 C14.6052407,19.3034646 14.4320391,19.9135721 14.0825433,20.1953984 C13.7299545,20.4741278 13.3371582,20.3316661 13.2041642,19.8887961 C10.7174853,11.582662 5.86474994,5.17188742 0.282094003,1.23870684 C0.241886495,1.20773692 0.204771872,1.17366999 0.170750134,1.13650608 C0.119985144,1.10544184 0.061505118,1.08725315 0,1.08428817 L0,1.08428782 Z" id="path-9"></path>
                    </g>
                </g>
                <g id="A-left">
                    <g id="path-11-link" fill="#000000">
                        <path d="M14.5344262,1.08428817 C14.5284811,1.08400157 14.5225078,1.08385721 14.5165105,1.08385721 C14.4639314,1.08385721 14.4144453,1.09314819 14.368052,1.11482713 C14.3278445,1.16128203 14.2845441,1.20463993 14.235058,1.23870684 C8.65240198,5.17188742 3.79966668,11.582662 1.31298778,19.8887961 C1.17999376,20.3316661 0.787197466,20.4803218 0.434608667,20.1953984 C0.0820198687,19.9104751 -0.0942745306,19.3034646 0.0510910268,18.8574976 C2.74499316,10.4801327 7.77402288,4.04767911 13.5113231,0.114498534 C13.7989613,-0.0837089919 14.1948505,-0.0124781626 14.3958879,0.272445155 L14.5344262,0.272445155 L14.5344262,1.08428782 L14.5344262,1.08428817 Z" id="path-11"></path>
                    </g>
                    <g id="path-11-link" fill="#3DA5D9">
                        <path d="M14.5344262,1.08428817 C14.5284811,1.08400157 14.5225078,1.08385721 14.5165105,1.08385721 C14.4639314,1.08385721 14.4144453,1.09314819 14.368052,1.11482713 C14.3278445,1.16128203 14.2845441,1.20463993 14.235058,1.23870684 C8.65240198,5.17188742 3.79966668,11.582662 1.31298778,19.8887961 C1.17999376,20.3316661 0.787197466,20.4803218 0.434608667,20.1953984 C0.0820198687,19.9104751 -0.0942745306,19.3034646 0.0510910268,18.8574976 C2.74499316,10.4801327 7.77402288,4.04767911 13.5113231,0.114498534 C13.7989613,-0.0837089919 14.1948505,-0.0124781626 14.3958879,0.272445155 L14.5344262,0.272445155 L14.5344262,1.08428782 L14.5344262,1.08428817 Z" id="path-11"></path>
                    </g>
                </g>
            </g>
            <g id="ring">
                <g id="path-13-link" fill="#000000">
                    <path d="M15.5015492,31 C6.94982508,31 0,24.0470765 0,15.4984508 C0,6.94982508 6.94982508,0 15.5015492,0 C24.0532733,0 31,6.95292354 31,15.5015492 C31,24.0501749 24.0470765,31 15.5015492,31 M15.5015492,1.3912044 C7.72133933,1.3912044 1.39430285,7.72133933 1.39430285,15.5015492 C1.39430285,23.2817591 7.72133933,29.6118941 15.5046477,29.6118941 C23.287956,29.6118941 29.6118941,23.2817591 29.6118941,15.5015492 C29.6118941,7.72133933 23.2817591,1.3912044 15.5015492,1.3912044" id="path-13"></path>
                </g>
                <g id="path-13-link" fill="#FFFFFF">
                    <path d="M15.5015492,31 C6.94982508,31 0,24.0470765 0,15.4984508 C0,6.94982508 6.94982508,0 15.5015492,0 C24.0532733,0 31,6.95292354 31,15.5015492 C31,24.0501749 24.0470765,31 15.5015492,31 M15.5015492,1.3912044 C7.72133933,1.3912044 1.39430285,7.72133933 1.39430285,15.5015492 C1.39430285,23.2817591 7.72133933,29.6118941 15.5046477,29.6118941 C23.287956,29.6118941 29.6118941,23.2817591 29.6118941,15.5015492 C29.6118941,7.72133933 23.2817591,1.3912044 15.5015492,1.3912044" id="path-13"></path>
                </g>
            </g>
        </g>
    </g>
</svg>