<?xml version="1.0" encoding="UTF-8"?>
<svg width="745px" height="514px" viewBox="0 0 745 514" version="1.1" 
    xmlns="http://www.w3.org/2000/svg" 
    xmlns:xlink="http://www.w3.org/1999/xlink">
    <!-- Generator: Sketch 55.1 (78136) - https://sketchapp.com -->
    <title>family-outside-home</title>
    <desc>Created with Sketch.</desc>
    <g id="family-outside-home" stroke="none" stroke-width="1" fill="none" fill-rule="evenodd">
        <g transform="translate(0.000000, 1.000000)">
            <g id="familyoutsidehome" transform="translate(373.500000, 257.000000) scale(-1, 1) translate(-373.500000, -257.000000) ">
                <path d="M715.678,447.302 L80.607,447.302 C65.492,447.302 53.125,434.936 53.125,419.821 C53.125,404.706 65.492,392.34 80.607,392.34 L715.678,392.34 C730.792,392.34 743.159,404.706 743.159,419.821 C743.159,434.936 730.792,447.302 715.678,447.302" id="Fill-2" fill="#81b753"></path>
                <polyline id="Fill-3" fill="#344753" points="158.885 403.146 164.053 403.395 169.22 403.163 166.386 283.038 161.719 283.038 158.885 403.146"></polyline>
                <path d="M212.26,259.883 C212.26,286.513 190.67,308.093 164.05,308.093 C137.43,308.093 115.85,286.513 115.85,259.883 C115.85,233.263 137.43,166.329 164.05,166.329 C190.67,166.329 212.26,233.263 212.26,259.883" id="Fill-4" fill="#14a84e"></path>
                <path d="M212.26,259.883 C212.26,286.513 190.67,308.093 164.05,308.093 L164.05,166.329 C190.67,166.329 212.26,233.263 212.26,259.883" id="Fill-5" fill="#14a84e"></path>
                <polyline id="Fill-6" fill="#344753" points="73.955 403.146 79.123 403.395 84.291 403.163 81.456 283.038 76.79 283.038 73.955 403.146"></polyline>
                <path d="M127.33,259.883 C127.33,286.513 105.74,308.093 79.12,308.093 C52.5,308.093 30.92,286.513 30.92,259.883 C30.92,233.263 52.5,166.329 79.12,166.329 C105.74,166.329 127.33,233.263 127.33,259.883" id="Fill-7" fill="#14a84e"></path>
                <path d="M127.33,259.883 C127.33,286.513 105.74,308.093 79.12,308.093 L79.12,166.329 C105.74,166.329 127.33,233.263 127.33,259.883" id="Fill-8" fill="#14a84e"></path>
                <path d="M700.407,446.908 L95.877,446.908 C86.664,446.908 79.125,439.369 79.125,430.156 C79.125,420.942 86.664,413.404 95.877,413.404 L700.407,413.404 C709.62,413.404 717.159,420.942 717.159,430.156 C717.159,439.369 709.62,446.908 700.407,446.908" id="Fill-9" fill="#14a84e"></path>
                <polyline id="Fill-10" fill="#E7827A" points="615.648 196.851 194.29 196.851 194.29 81.236 615.648 105.255 615.648 196.851"></polyline>
                <polygon id="Fill-11" fill="#D57875" points="418.619 198.133 614.398 198.133 614.398 93.184 418.619 93.184"></polygon>
                <polygon id="Fill-12" fill="#FFFFFE" points="452.782 198.234 457.652 198.234 457.652 132.198 452.782 132.198"></polygon>
                <polygon id="Fill-13" fill="#FFFFFE" points="488.958 198.234 493.827 198.234 493.827 132.198 488.958 132.198"></polygon>
                <polygon id="Fill-14" fill="#FFFFFE" points="452.782 136.971 493.827 136.971 493.827 132.101 452.782 132.101"></polygon>
                <polygon id="Fill-15" fill="#FFFFFE" points="488.53 198.234 493.4 198.234 493.4 132.198 488.53 132.198"></polygon>
                <polygon id="Fill-16" fill="#FFFFFE" points="524.706 198.234 529.575 198.234 529.575 132.198 524.706 132.198"></polygon>
                <polygon id="Fill-17" fill="#FFFFFE" points="488.53 136.971 529.575 136.971 529.575 132.101 488.53 132.101"></polygon>
                <polygon id="Fill-18" fill="#575B61" points="457.652 198.234 488.958 198.234 488.958 136.971 457.652 136.971"></polygon>
                <polyline id="Fill-19" fill="#313D41" points="457.652 136.971 488.53 197.074 457.652 197.074 457.652 136.971"></polyline>
                <polygon id="Fill-20" fill="#575B61" points="493.827 198.234 525.133 198.234 525.133 136.971 493.827 136.971"></polygon>
                <polyline id="Fill-21" fill="#313D41" points="493.827 136.971 524.706 197.074 493.827 197.074 493.827 136.971"></polyline>
                <polygon id="Fill-22" fill="#E7827A" points="193.04 396.447 660.117 396.447 660.117 196.851 193.04 196.851"></polygon>
                <polygon id="Fill-23" fill="#2C3E4A" points="193.04 402.491 366.639 402.491 366.639 196.851 193.04 196.851"></polygon>
                <polygon id="Fill-24" fill="#1D2B35" points="187.482 216.851 671.25 216.851 671.25 196.851 187.482 196.851"></polygon>
                <polygon id="Fill-25" fill="#FFFFFE" points="366.639 396.447 468.651 396.447 468.651 248.786 366.639 248.786"></polygon>
                <polygon id="Fill-26" fill="#575B61" points="372.615 396.447 462.676 396.447 462.676 254.501 372.615 254.501"></polygon>
                <polygon id="Fill-27" fill="#FFFFFE" points="462.676 396.447 564.687 396.447 564.687 248.786 462.676 248.786"></polygon>
                <polygon id="Fill-28" fill="#575B61" points="468.651 396.447 558.712 396.447 558.712 254.501 468.651 254.501"></polygon>
                <polygon id="Fill-29" fill="#FFFFFE" points="558.105 396.447 660.117 396.447 660.117 248.786 558.105 248.786"></polygon>
                <polygon id="Fill-30" fill="#575B61" points="564.081 396.447 654.142 396.447 654.142 254.501 564.081 254.501"></polygon>
                <polyline id="Fill-31" fill="#313D41" points="564.081 254.501 654.142 297.09 564.081 304.038 653.982 351.616 564.081 351.616 654.142 396.447 564.081 396.447 564.081 254.501"></polyline>
                <polyline id="Fill-32" fill="#313D41" points="372.615 254.501 462.676 297.09 372.615 304.038 462.516 351.616 372.615 351.616 462.676 396.447 372.615 396.447 372.615 254.501"></polyline>
                <polygon id="Fill-33" fill="#FFFFFE" points="562.002 304.038 656.22 304.038 656.22 297.09 562.002 297.09"></polygon>
                <polygon id="Fill-34" fill="#FFFFFE" points="562.002 358.564 656.22 358.564 656.22 351.616 562.002 351.616"></polygon>
                <polygon id="Fill-35" fill="#FFFFFE" points="370.536 304.038 464.754 304.038 464.754 297.09 370.536 297.09"></polygon>
                <polygon id="Fill-36" fill="#FFFFFE" points="370.536 358.564 464.754 358.564 464.754 351.616 370.536 351.616"></polygon>
                <polygon id="Fill-37" fill="#FFFFFE" points="366.639 403.395 660.117 403.395 660.117 396.447 366.639 396.447"></polygon>
                <polygon id="Fill-38" fill="#FFFFFE" points="505.348 292.518 522.015 292.518 522.015 250.096 505.348 250.096"></polygon>
                <polygon id="Fill-39" fill="#FFFFFE" points="513.273 396.447 514.09 396.447 514.09 292.518 513.273 292.518"></polygon>
                <polygon id="Fill-40" fill="#D57875" points="366.639 235.851 660.117 235.851 660.117 216.851 366.639 216.851"></polygon>
                <polygon id="Fill-41" fill="#273740" points="193.04 235.851 366.624 235.851 366.624 216.851 193.04 216.851"></polygon>
                <polygon id="Fill-42" fill="#273740" points="193.04 250.518 366.624 250.518 366.624 247.518 193.04 247.518"></polygon>
                <polygon id="Fill-43" fill="#344753" points="193.04 247.518 366.656 247.518 366.656 240.518 193.04 240.518"></polygon>
                <polygon id="Fill-44" fill="#273740" points="193.04 268.518 366.624 268.518 366.624 265.518 193.04 265.518"></polygon>
                <polygon id="Fill-45" fill="#344753" points="193.04 265.518 366.656 265.518 366.656 258.518 193.04 258.518"></polygon>
                <polygon id="Fill-46" fill="#273740" points="193.04 286.038 366.624 286.038 366.624 283.038 193.04 283.038"></polygon>
                <polygon id="Fill-47" fill="#344753" points="193.04 283.038 366.656 283.038 366.656 276.038 193.04 276.038"></polygon>
                <polygon id="Fill-48" fill="#FFFFFE" points="237.201 198.234 243.008 198.234 243.008 119.484 237.201 119.484"></polygon>
                <polygon id="Fill-49" fill="#FFFFFE" points="280.342 198.234 286.149 198.234 286.149 119.484 280.342 119.484"></polygon>
                <polygon id="Fill-50" fill="#FFFFFE" points="237.201 125.175 286.149 125.175 286.149 119.368 237.201 119.368"></polygon>
                <polygon id="Fill-51" fill="#FFFFFE" points="279.832 198.234 285.639 198.234 285.639 119.484 279.832 119.484"></polygon>
                <polygon id="Fill-52" fill="#FFFFFE" points="322.972 198.234 328.779 198.234 328.779 119.484 322.972 119.484"></polygon>
                <polygon id="Fill-53" fill="#FFFFFE" points="279.832 125.175 328.779 125.175 328.779 119.368 279.832 119.368"></polygon>
                <polygon id="Fill-54" fill="#575B61" points="243.008 198.234 280.342 198.234 280.342 125.175 243.008 125.175"></polygon>
                <polyline id="Fill-55" fill="#313D41" points="243.008 125.175 279.832 196.851 243.008 196.851 243.008 125.175"></polyline>
                <polygon id="Fill-56" fill="#575B61" points="286.149 198.234 323.482 198.234 323.482 125.175 286.149 125.175"></polygon>
                <polyline id="Fill-57" fill="#313D41" points="286.149 125.175 322.972 196.851 286.149 196.851 286.149 125.175"></polyline>
                <polygon id="Fill-58" fill="#273740" points="193.04 304.038 366.624 304.038 366.624 301.038 193.04 301.038"></polygon>
                <polygon id="Fill-59" fill="#344753" points="193.04 301.038 366.656 301.038 366.656 294.038 193.04 294.038"></polygon>
                <polygon id="Fill-60" fill="#273740" points="193.04 322.184 366.624 322.184 366.624 319.184 193.04 319.184"></polygon>
                <polygon id="Fill-61" fill="#344753" points="193.04 319.184 366.656 319.184 366.656 312.184 193.04 312.184"></polygon>
                <polygon id="Fill-62" fill="#273740" points="193.04 340.184 366.624 340.184 366.624 337.184 193.04 337.184"></polygon>
                <polygon id="Fill-63" fill="#344753" points="193.04 337.184 366.656 337.184 366.656 330.184 193.04 330.184"></polygon>
                <polygon id="Fill-64" fill="#273740" points="193.04 357.705 366.624 357.705 366.624 354.705 193.04 354.705"></polygon>
                <polygon id="Fill-65" fill="#344753" points="193.04 354.705 366.656 354.705 366.656 347.705 193.04 347.705"></polygon>
                <polygon id="Fill-66" fill="#273740" points="193.04 375.705 366.624 375.705 366.624 372.705 193.04 372.705"></polygon>
                <polygon id="Fill-67" fill="#344753" points="193.04 372.705 366.656 372.705 366.656 365.705 193.04 365.705"></polygon>
                <polygon id="Fill-68" fill="#273740" points="193.04 391.705 366.624 391.705 366.624 388.705 193.04 388.705"></polygon>
                <polygon id="Fill-69" fill="#344753" points="193.04 388.705 366.656 388.705 366.656 381.705 193.04 381.705"></polygon>
                <polygon id="Fill-70" fill="#344753" points="181.982 204.518 676.75 204.518 676.75 196.851 181.982 196.851"></polygon>
                <polyline id="Fill-71" fill="#D57875" points="193.04 82.518 193.04 93.184 418.48 107.351 418.619 95.681 193.04 82.518"></polyline>
                <polyline id="Fill-72" fill="#C27274" points="418.528 101.268 418.619 95.681 614.398 106.537 614.398 112.351 418.528 101.268"></polyline>
                <polygon id="Fill-73" fill="#C27274" points="418.619 196.851 422.732 196.851 422.732 95.681 418.619 95.681"></polygon>
                <polyline id="Fill-74" fill="#1D2B35" points="623.982 107.351 186.982 82.518 186.982 69.851 623.982 94.684 623.982 107.351"></polyline>
                <polyline id="Fill-75" fill="#344753" points="629.651 101.268 181.313 73.6 181.313 60.933 629.651 88.601 629.651 101.268"></polyline>
                <polygon id="Fill-76" fill="#2C3E4A" points="568.609 197.166 649.606 197.166 649.606 124.86 568.609 124.86"></polygon>
                <polygon id="Fill-77" fill="#273740" points="568.609 134.658 649.599 134.658 649.599 133.258 568.609 133.258"></polygon>
                <polygon id="Fill-78" fill="#344753" points="568.609 133.258 649.614 133.258 649.614 129.992 568.609 129.992"></polygon>
                <polygon id="Fill-79" fill="#273740" points="568.609 142.833 649.599 142.833 649.599 141.433 568.609 141.433"></polygon>
                <polygon id="Fill-80" fill="#344753" points="568.609 141.433 649.614 141.433 649.614 138.167 568.609 138.167"></polygon>
                <polygon id="Fill-81" fill="#273740" points="568.609 151.231 649.599 151.231 649.599 149.831 568.609 149.831"></polygon>
                <polygon id="Fill-82" fill="#344753" points="568.609 149.831 649.614 149.831 649.614 146.565 568.609 146.565"></polygon>
                <polygon id="Fill-83" fill="#273740" points="568.609 159.698 649.599 159.698 649.599 158.298 568.609 158.298"></polygon>
                <polygon id="Fill-84" fill="#344753" points="568.609 158.298 649.614 158.298 649.614 155.032 568.609 155.032"></polygon>
                <polygon id="Fill-85" fill="#273740" points="568.609 168.096 649.599 168.096 649.599 166.696 568.609 166.696"></polygon>
                <polygon id="Fill-86" fill="#344753" points="568.609 166.696 649.614 166.696 649.614 163.43 568.609 163.43"></polygon>
                <polygon id="Fill-87" fill="#273740" points="568.609 176.27 649.599 176.27 649.599 174.871 568.609 174.871"></polygon>
                <polygon id="Fill-88" fill="#344753" points="568.609 174.871 649.614 174.871 649.614 171.605 568.609 171.605"></polygon>
                <polygon id="Fill-89" fill="#273740" points="568.609 184.669 649.599 184.669 649.599 183.269 568.609 183.269"></polygon>
                <polygon id="Fill-90" fill="#344753" points="568.609 183.269 649.614 183.269 649.614 180.003 568.609 180.003"></polygon>
                <polygon id="Fill-91" fill="#273740" points="568.609 192.134 649.599 192.134 649.599 190.734 568.609 190.734"></polygon>
                <polygon id="Fill-92" fill="#344753" points="568.609 190.734 649.614 190.734 649.614 187.468 568.609 187.468"></polygon>
                <path d="M619.337,30.765 C619.337,13.798 633.091,0.044 650.058,0.044 C667.024,0.044 680.778,13.798 680.778,30.765 L619.337,30.765" id="Fill-93" fill="#FFFFFE"></path>
                <path d="M666.259,30.765 C666.259,20.481 674.595,12.144 684.879,12.144 C695.163,12.144 703.5,20.481 703.5,30.765 L666.259,30.765" id="Fill-94" fill="#FFFFFE"></path>
                <path d="M698.329,30.765 C698.329,26.544 701.751,23.122 705.972,23.122 C710.193,23.122 713.615,26.544 713.615,30.765 L698.329,30.765" id="Fill-95" fill="#FFFFFE"></path>
                <path d="M606.619,30.765 C606.619,25.22 611.113,20.726 616.658,20.726 C622.202,20.726 626.696,25.22 626.696,30.765 L606.619,30.765" id="Fill-96" fill="#FFFFFE"></path>
                <path d="M49.361,111.35 C49.361,91.285 65.628,75.019 85.694,75.019 C105.759,75.019 122.025,91.285 122.025,111.35 L49.361,111.35" id="Fill-97" fill="#FFFFFE"></path>
                <path d="M104.854,111.35 C104.854,99.188 114.714,89.328 126.876,89.328 C139.038,89.328 148.898,99.188 148.898,111.35 L104.854,111.35" id="Fill-98" fill="#FFFFFE"></path>
                <path d="M142.783,111.35 C142.783,106.358 146.829,102.311 151.822,102.311 C156.814,102.311 160.861,106.358 160.861,111.35 L142.783,111.35" id="Fill-99" fill="#FFFFFE"></path>
                <path d="M34.32,111.35 C34.32,104.793 39.635,99.478 46.192,99.478 C52.749,99.478 58.065,104.793 58.065,111.35 L34.32,111.35" id="Fill-100" fill="#FFFFFE"></path>
                <path d="M712.801,401.916 C712.801,404.168 706.086,405.993 697.801,405.993 C689.517,405.993 682.801,404.168 682.801,401.916 C682.801,399.665 689.517,397.84 697.801,397.84 C706.086,397.84 712.801,399.665 712.801,401.916" id="Fill-101" fill="#14a84e"></path>
                <polyline id="Fill-102" fill="#344753" points="692.633 403.146 697.801 403.395 702.969 403.163 700.135 283.038 695.468 283.038 692.633 403.146"></polyline>
                <path d="M746.009,259.883 C746.009,286.513 724.419,308.093 697.799,308.093 C671.179,308.093 649.599,286.513 649.599,259.883 C649.599,233.263 671.179,211.683 697.799,211.683 C724.419,211.683 746.009,233.263 746.009,259.883" id="Fill-103" fill="#14a84e"></path>
                <path d="M746.009,259.883 C746.009,286.513 724.419,308.093 697.799,308.093 L697.799,211.683 C724.419,211.683 746.009,233.263 746.009,259.883" id="Fill-104" fill="#14a84e"></path>
                <path d="M726.811,406.703 C726.811,408.955 720.096,410.78 711.811,410.78 C703.527,410.78 696.811,408.955 696.811,406.703 C696.811,404.452 703.527,402.626 711.811,402.626 C720.096,402.626 726.811,404.452 726.811,406.703" id="Fill-105" fill="#14a84e"></path>
                <path d="M726.484,392.798 C726.484,400.904 719.913,407.472 711.81,407.472 C703.707,407.472 697.138,400.904 697.138,392.798 C697.138,384.695 703.707,365.646 711.81,365.646 C719.913,365.646 726.484,384.695 726.484,392.798" id="Fill-106" fill="#14a84e"></path>
                <path d="M726.484,392.798 C726.484,400.904 719.913,407.472 711.81,407.472 L711.81,365.646 C719.913,365.646 726.484,384.695 726.484,392.798" id="Fill-107" fill="#14a84e"></path>
                <path d="M606.159,406.703 C606.159,408.955 599.443,410.78 591.159,410.78 C582.875,410.78 576.159,408.955 576.159,406.703 C576.159,404.452 582.875,402.626 591.159,402.626 C599.443,402.626 606.159,404.452 606.159,406.703" id="Fill-108" fill="#14a84e"></path>
                <path d="M605.832,392.798 C605.832,400.904 599.26,407.472 591.157,407.472 C583.055,407.472 576.486,400.904 576.486,392.798 C576.486,384.695 583.055,365.646 591.157,365.646 C599.26,365.646 605.832,384.695 605.832,392.798" id="Fill-109" fill="#14a84e"></path>
                <path d="M605.832,392.798 C605.832,400.904 599.26,407.472 591.157,407.472 L591.157,365.646 C599.26,365.646 605.832,384.695 605.832,392.798" id="Fill-110" fill="#14a84e"></path>
                <path d="M456.578,406.703 C456.578,408.955 449.863,410.78 441.578,410.78 C433.294,410.78 426.578,408.955 426.578,406.703 C426.578,404.452 433.294,402.626 441.578,402.626 C449.863,402.626 456.578,404.452 456.578,406.703" id="Fill-111" fill="#14a84e"></path>
                <path d="M456.251,392.798 C456.251,400.904 449.68,407.472 441.577,407.472 C433.474,407.472 426.905,400.904 426.905,392.798 C426.905,384.695 433.474,365.646 441.577,365.646 C449.68,365.646 456.251,384.695 456.251,392.798" id="Fill-112" fill="#14a84e"></path>
                <path d="M456.251,392.798 C456.251,400.904 449.68,407.472 441.577,407.472 L441.577,365.646 C449.68,365.646 456.251,384.695 456.251,392.798" id="Fill-113" fill="#14a84e"></path>
                <path d="M697.074,407.504 C697.074,409.313 691.678,410.78 685.022,410.78 C678.365,410.78 672.969,409.313 672.969,407.504 C672.969,405.695 678.365,404.229 685.022,404.229 C691.678,404.229 697.074,405.695 697.074,407.504" id="Fill-114" fill="#14a84e"></path>
                <path d="M696.811,396.331 C696.811,402.844 691.531,408.122 685.021,408.122 C678.51,408.122 673.232,402.844 673.232,396.331 C673.232,389.821 678.51,374.515 685.021,374.515 C691.531,374.515 696.811,389.821 696.811,396.331" id="Fill-115" fill="#14a84e"></path>
                <path d="M696.811,396.331 C696.811,402.844 691.531,408.122 685.021,408.122 L685.021,374.515 C691.531,374.515 696.811,389.821 696.811,396.331" id="Fill-116" fill="#14a84e"></path>
                <path d="M423.534,513.523 L261.023,513.523 C261.648,500.711 264.812,488.63 269.985,477.853 C270.949,475.839 271.986,473.871 273.09,471.956 C275.955,466.969 279.273,462.315 282.983,458.06 C283.914,456.983 284.871,455.939 285.855,454.916 C285.928,454.836 286.008,454.756 286.081,454.683 C287.557,453.16 289.08,451.704 290.655,450.308 C297.224,444.484 304.651,439.743 312.702,436.353 C312.755,436.333 312.802,436.313 312.848,436.293 C321.977,432.47 331.897,430.376 342.275,430.376 C350.592,430.376 358.617,431.719 366.177,434.225 C366.223,434.238 366.263,434.252 366.31,434.272 C368.058,434.857 369.787,435.502 371.489,436.206 C371.542,436.226 371.589,436.246 371.635,436.266 C375.897,438.042 379.986,440.202 383.862,442.695 C386.934,444.67 389.872,446.851 392.658,449.231 C392.658,449.231 392.671,449.238 392.678,449.244 L392.698,449.264 C392.93,449.464 393.17,449.67 393.403,449.883 C395.204,451.445 396.94,453.094 398.602,454.822 C399.054,455.294 399.506,455.767 399.951,456.252 C401.022,457.409 402.059,458.599 403.056,459.822 C406.819,464.37 410.137,469.336 412.949,474.655 C414.066,476.749 415.103,478.897 416.054,481.098 C420.349,491.037 422.975,501.981 423.534,513.523" id="Fill-117" fill="#343534"></path>
                <path d="M384.979,393.92 C378.129,396.923 370.141,393.803 367.139,386.953 C364.137,380.102 367.256,372.115 374.107,369.112 C380.957,366.11 388.945,369.229 391.947,376.08 C394.95,382.93 391.83,390.918 384.979,393.92 Z M373.174,366.985 C365.149,370.502 361.494,379.859 365.012,387.885 C368.529,395.91 377.886,399.565 385.912,396.048 C393.937,392.53 397.592,383.173 394.074,375.147 C390.557,367.122 381.2,363.467 373.174,366.985 L373.174,366.985 Z" id="Fill-118" fill="#694F3C"></path>
                <path d="M292.831,365.846 C297.599,370.006 298.932,377.084 295.663,382.782 C292.507,388.283 286.077,390.73 280.238,389.078 C279.869,389.781 279.467,390.469 279.037,391.141 C286.024,393.406 293.877,390.562 297.678,383.938 C301.42,377.415 300.012,369.351 294.733,364.438 L292.831,365.846" id="Fill-119" fill="#694F3C"></path>
                <path d="M404.014,378.581 C398.557,378.858 393.248,375.798 390.925,370.496 C390.282,369.03 389.927,367.513 389.826,366.004 C389.034,365.921 388.254,365.797 387.481,365.646 C387.551,367.585 387.971,369.543 388.798,371.428 C391.577,377.77 398.003,381.376 404.537,380.877 C404.361,380.111 404.188,379.345 404.014,378.581" id="Fill-120" fill="#694F3C"></path>
                <polyline id="Fill-121" fill="#F7CA91" points="363.673 485.687 342.16 513.133 320.728 485.687 320.728 395.913 363.673 395.913 363.673 485.687"></polyline>
                <path d="M363.673,421.224 C363.673,421.224 348.674,425.844 343.606,425.844 C337.937,425.844 320.728,421.224 320.728,421.224 L320.728,352.672 L363.673,352.672 L363.673,421.224" id="Fill-122" fill="#EAAA64"></path>
                <path d="M384.208,358.452 L376.903,358.452 C374.533,358.452 372.611,357.135 372.611,355.512 C372.611,353.888 374.533,352.572 376.903,352.572 L384.208,352.572 C386.579,352.572 388.501,353.888 388.501,355.512 C388.501,357.135 386.579,358.452 384.208,358.452" id="Fill-123" fill="#DF5C4B"></path>
                <path d="M383.688,374.428 C383.688,375.866 383.624,377.287 383.501,378.689 C382.089,394.839 372.745,408.548 359.644,415.386 C353.928,418.376 347.49,420.053 340.682,420.053 C333.767,420.053 327.236,418.321 321.456,415.25 C308.355,408.294 299.066,394.446 297.817,378.187 C297.719,376.947 297.672,375.695 297.672,374.428 L297.672,322.765 C297.672,320.481 297.83,318.238 298.137,316.044 C301.198,294.032 319.077,277.144 340.674,277.144 L340.682,277.144 C362.279,277.144 380.158,294.037 383.223,316.044 C383.53,318.238 383.688,320.486 383.688,322.769 L383.688,374.428 Z" id="Fill-124" fill="#F7CA91"></path>
                <path d="M334.542,366.94 C334.708,370.092 337.332,372.597 340.545,372.597 C343.758,372.597 346.382,370.092 346.549,366.94 L334.542,366.94" id="Fill-125" fill="#DF5C4B"></path>
                <path d="M408.889,309.926 C400.859,298.745 399.509,298.745 399.509,298.745 C399.509,298.745 398.317,279.403 391.659,271.413 C385.001,263.423 371.865,249.782 353.691,251.73 C348.764,252.259 344.358,253.793 340.545,255.744 C336.732,253.793 332.326,252.259 327.4,251.73 C309.225,249.782 296.089,263.423 289.431,271.413 C282.773,279.403 281.581,298.745 281.581,298.745 C281.581,298.745 280.232,298.745 272.201,309.926 C264.171,321.107 264.779,332.995 264.779,332.995 C266.038,372.555 297.922,377.281 297.922,377.281 L297.455,353.404 L297.979,327.538 L297.979,326.813 C297.979,321.35 302.329,316.875 307.791,316.741 C308.023,316.735 308.262,316.729 308.505,316.722 C318.947,316.432 326.205,314.702 340.545,307.828 C354.885,314.702 362.144,316.432 372.585,316.722 C372.829,316.729 373.067,316.735 373.299,316.741 C378.761,316.875 383.112,321.35 383.112,326.813 L383.635,353.404 L383.169,377.281 C383.169,377.281 415.052,372.555 416.312,332.995 C416.312,332.995 416.919,321.107 408.889,309.926" id="Fill-126" fill="#FFE386"></path>
                <path d="M333.421,389.443 C333.439,389.53 333.458,389.618 333.48,389.704 C334.26,392.881 337.128,395.237 340.546,395.237 C343.963,395.237 346.83,392.881 347.611,389.704 C347.632,389.618 347.651,389.53 347.67,389.443 L333.421,389.443" id="Fill-127" fill="#CA2B2E"></path>
                <path d="M297.917,340.848 L297.725,362.418 C290.387,362.353 284.48,357.471 284.534,351.515 C284.586,345.559 290.579,340.783 297.917,340.848" id="Fill-128" fill="#F3BA6F"></path>
                <path d="M298.012,352.576 L294.161,352.542 C291.79,352.52 289.857,353.819 289.841924,355.443 C289.828,357.067 291.738,358.4 294.109,358.421 L298.045,358.456 L298.012,352.576" id="Fill-129" fill="#DF5C4B"></path>
                <path d="M383.508,340.848 L383.699,362.418 C391.038,362.353 396.944,357.471 396.891,351.515 C396.838,345.559 390.846,340.783 383.508,340.848" id="Fill-130" fill="#F3BA6F"></path>
                <path d="M383.413,352.576 L387.264,352.542 C389.635,352.52 391.568,353.819 391.583076,355.443 C391.597,357.067 389.687,358.4 387.316,358.421 L383.38,358.456 L383.413,352.576" id="Fill-131" fill="#DF5C4B"></path>
                <path d="M360.846,361.171 L367.409,361.171 C369.539,361.171 371.266,359.713 371.266,357.915 C371.266,356.116 369.539,354.659 367.409,354.659 L360.846,354.659 C358.716,354.659 356.989,356.116 356.989,357.915 C356.989,359.713 358.716,361.171 360.846,361.171" id="Fill-132" fill="#EA8D7D"></path>
                <path d="M371.583,331.752 L356.752,331.975 C354.34,332.012 352.367,330.856 352.344797,329.393 C352.322,327.93 354.26,326.715 356.672,326.679 L371.503,326.456 C373.915,326.419 375.889,327.575 375.911185,329.038 C375.933,330.501 373.995,331.716 371.583,331.752" id="Fill-133" fill="#FFE386" transform="translate(364.127991, 329.215500) rotate(15.000000) translate(-364.127991, -329.215500) "></path>
                <path d="M356.967,347.479 C356.967,349.447 358.562,351.042 360.529,351.042 C362.497,351.042 364.092,349.447 364.092,347.479 C364.092,345.512 362.497,343.917 360.529,343.917 C358.562,343.917 356.967,345.512 356.967,347.479" id="Fill-134" fill="#834736"></path>
                <path d="M371.289,347.271 L359.815,347.271 C358.711,347.271 357.815,346.375 357.815,345.271 C357.815,344.166 358.711,343.271 359.815,343.271 L371.289,343.271 C372.393,343.271 373.289,344.166 373.289,345.271 C373.289,346.375 372.393,347.271 371.289,347.271" id="Fill-135" fill="#834736"></path>
                <path d="M313.951,361.171 L320.514,361.171 C322.644,361.171 324.371,359.713 324.371,357.915 C324.371,356.116 322.644,354.659 320.514,354.659 L313.951,354.659 C311.821,354.659 310.094,356.116 310.094,357.915 C310.094,359.713 311.821,361.171 313.951,361.171" id="Fill-136" fill="#EA8D7D"></path>
                <path d="M321.688,332.752 L306.857,332.975 C304.445,333.012 302.471,331.856 302.448815,330.393 C302.427,328.93 304.365,327.715 306.777,327.679 L321.608,327.456 C324.02,327.419 325.994,328.575 326.016185,330.038 C326.038,331.501 324.1,332.716 321.688,332.752" id="Fill-137" fill="#FFE386" transform="translate(314.232500, 330.215500) rotate(-15.000000) translate(-314.232500, -330.215500) "></path>
                <path d="M324.393,347.479 C324.393,349.447 322.798,351.042 320.831,351.042 C318.864,351.042 317.269,349.447 317.269,347.479 C317.269,345.512 318.864,343.917 320.831,343.917 C322.798,343.917 324.393,345.512 324.393,347.479" id="Fill-138" fill="#834736"></path>
                <path d="M321.545,347.271 L310.072,347.271 C308.967,347.271 308.072,346.375 308.072,345.271 C308.072,344.166 308.967,343.271 310.072,343.271 L321.545,343.271 C322.65,343.271 323.545,344.166 323.545,345.271 C323.545,346.375 322.65,347.271 321.545,347.271" id="Fill-139" fill="#834736"></path>
                <path d="M290.381,371.832 C290.381,373.8 291.976,375.395 293.943,375.395 C295.911,375.395 297.506,373.8 297.506,371.832 C297.506,369.865 295.911,368.27 293.943,368.27 C291.976,368.27 290.381,369.865 290.381,371.832" id="Fill-140" fill="#F2F1F0"></path>
                <path d="M383.919,371.832 C383.919,373.8 385.514,375.395 387.481,375.395 C389.449,375.395 391.044,373.8 391.044,371.832 C391.044,369.865 389.449,368.27 387.481,368.27 C385.514,368.27 383.919,369.865 383.919,371.832" id="Fill-141" fill="#F2F1F0"></path>
                <path d="M293.943,370.352 C293.391,370.352 292.943,369.904 292.943,369.352 L292.943,359.526 C292.943,358.973 293.391,358.526 293.943,358.526 C294.496,358.526 294.943,358.973 294.943,359.526 L294.943,369.352 C294.943,369.904 294.496,370.352 293.943,370.352" id="Fill-142" fill="#F2F1F0"></path>
                <path d="M387.481,370.352 C386.928,370.352 386.481,369.904 386.481,369.352 L386.481,359.526 C386.481,358.973 386.928,358.526 387.481,358.526 C388.034,358.526 388.481,358.973 388.481,359.526 L388.481,369.352 C388.481,369.904 388.034,370.352 387.481,370.352" id="Fill-143" fill="#F2F1F0"></path>
                <path d="M273.09,471.956 L273.09,513.523 L269.985,513.523 L269.985,477.853 C270.949,475.839 271.986,473.871 273.09,471.956" id="Fill-144" fill="#4D4E4C"></path>
                <path d="M286.081,454.683 L286.081,513.523 L282.983,513.523 L282.983,458.06 C283.914,456.983 284.871,455.939 285.855,454.916 C285.928,454.836 286.008,454.756 286.081,454.683" id="Fill-145" fill="#4D4E4C"></path>
                <polygon id="Fill-146" fill="#4D4E4C" points="295.981 513.523 299.079 513.523 299.079 452.163 295.981 452.163"></polygon>
                <polygon id="Fill-147" fill="#4D4E4C" points="308.972 513.523 312.077 513.523 312.077 452.163 308.972 452.163"></polygon>
                <polygon id="Fill-148" fill="#4D4E4C" points="321.97 513.523 325.075 513.523 325.075 452.163 321.97 452.163"></polygon>
                <polyline id="Fill-149" fill="#4D4E4C" points="332.482 450.468 338.073 513.523 334.968 513.523 334.968 452.163 332.482 450.468"></polyline>
                <polygon id="Fill-150" fill="#4D4E4C" points="347.966 513.523 351.071 513.523 351.071 452.163 347.966 452.163"></polygon>
                <polygon id="Fill-151" fill="#4D4E4C" points="360.964 513.523 364.062 513.523 364.062 452.163 360.964 452.163"></polygon>
                <polygon id="Fill-152" fill="#4D4E4C" points="373.962 513.523 377.06 513.523 377.06 452.163 373.962 452.163"></polygon>
                <polygon id="Fill-153" fill="#4D4E4C" points="386.953 513.523 390.058 513.523 390.058 452.163 386.953 452.163"></polygon>
                <path d="M403.056,459.822 L403.056,513.523 L399.951,513.523 L399.951,456.252 C401.022,457.409 402.059,458.599 403.056,459.822" id="Fill-154" fill="#4D4E4C"></path>
                <path d="M416.054,481.098 L416.054,513.523 L412.949,513.523 L412.949,474.655 C414.066,476.749 415.103,478.897 416.054,481.098" id="Fill-155" fill="#4D4E4C"></path>
                <path d="M342.268,513.433 L342.155,513.355 L342.149,513.355 L342.082,513.303 L341.836,513.133 L341.697,513.035 L296.526,482.025 L305.542,466.095 L285.855,454.555 C287.398,452.983 289,451.477 290.655,450.036 C297.224,444.324 304.651,439.675 312.702,436.35 C312.755,436.33 312.802,436.311 312.848,436.291 L339.709,506.58 L342.089,512.957 L342.122,513.035 L342.135,513.068 L342.155,513.107 L342.155,513.113 L342.222,513.303 L342.268,513.433" id="Fill-156" fill="#1A1919"></path>
                <path d="M342.036,513.133 L341.989,513.1 L340.653,512.031 L301.985,481.027 L308.307,465.541 L289.292,452.344 L290.655,450.036 C297.224,444.324 304.651,439.675 312.702,436.35 L342.016,513.094 L342.036,513.133" id="Fill-157" fill="#4D4E4C"></path>
                <path d="M378.762,466.095 L387.778,482.025 L342.607,513.035 L342.468,513.133 L342.222,513.303 L342.155,513.355 L342.149,513.355 L342.036,513.433 L342.082,513.303 L342.155,513.113 L342.155,513.107 L342.169,513.068 L342.182,513.035 L342.215,512.957 L344.595,506.58 L371.489,436.206 C371.542,436.226 371.589,436.246 371.635,436.265 C375.897,438.006 379.986,440.125 383.862,442.57 C386.934,444.507 389.872,446.645 392.658,448.98 C392.658,448.98 392.671,448.986 392.678,448.993 L392.698,449.012 C392.93,449.208 393.17,449.41 393.403,449.619 C395.204,451.151 396.94,452.768 398.602,454.463 L378.762,466.095" id="Fill-158" fill="#1A1919"></path>
                <path d="M375.997,465.541 L382.319,481.027 L343.651,512.031 L342.315,513.1 L342.268,513.133 L342.288,513.094 L371.635,436.265 C375.897,438.006 379.986,440.125 383.862,442.57 C386.934,444.507 389.872,446.645 392.658,448.98 C392.658,448.98 392.671,448.986 392.678,448.993 L392.698,449.012 C392.93,449.208 393.17,449.41 393.403,449.619 L395.012,452.344 L375.997,465.541" id="Fill-159" fill="#4D4E4C"></path>
                <polyline id="Fill-160" fill="#E4E4E3" points="347.153 500.582 347.153 449.565 363.673 426.076 371.635 436.266 347.153 500.582"></polyline>
                <polyline id="Fill-161" fill="#E4E4E3" points="337.24 500.582 337.24 449.565 320.719 426.076 312.758 436.266 337.24 500.582"></polyline>
                <polyline id="Fill-162" fill="#B53735" points="401.581 507.801 378.078 507.801 401.581 491.557 401.581 507.801"></polyline>
                <polyline id="Fill-163" fill="#DE4C3F" points="375.43 507.801 401.581 507.801 375.43 489.727 375.43 507.801"></polyline>
                <path d="M202.872,513.489 L0.986,513.489 C2.43,486.422 14.988,462.227 34.279,445.216 C37.569,442.312 41.051,439.618 44.71,437.155 C52.237,432.085 60.497,427.986 69.308,425.054 C70.361,424.701 71.419,424.365 72.482,424.051 C81.8,421.274 91.685,419.781 101.929,419.781 C155.957,419.781 200.084,461.279 202.872,513.489" id="Fill-164" fill="#343534"></path>
                <polygon id="Fill-165" fill="#F6C27C" points="72.808 473.639 131.179 473.639 131.179 380.868 72.808 380.868"></polygon>
                <polyline id="Fill-166" fill="#CBCCCB" points="136.116 445.134 120.151 513.653 83.862 513.653 67.927 445.134 136.116 445.134"></polyline>
                <path d="M74.989,415.763 L64.496,426.891 L71.092,457.649 C71.092,457.649 75.092,459.673 83.093,459.673 C91.094,459.673 91.894,460.01 95.895,454.949 C99.895,449.889 101.136,447.864 101.136,447.864 L74.989,415.763" id="Fill-167" fill="#8A8B8A"></path>
                <path d="M129.066,415.614 L139.558,426.742 L132.963,457.499 C132.963,457.499 128.962,459.524 120.962,459.524 C112.961,459.524 112.161,459.861 108.16,454.8 C104.16,449.739 102.919,447.715 102.919,447.715 L129.066,415.614" id="Fill-168" fill="#8A8B8A"></path>
                <polyline id="Fill-169" fill="#4F7B8A" points="107.128 467.839 112.996 445.08 90.991 445.08 96.859 467.839 107.128 467.839"></polyline>
                <polyline id="Fill-170" fill="#70909B" points="107.16 467.839 96.827 467.839 87.221 513.649 116.766 513.649 107.16 467.839"></polyline>
                <path d="M131.179,422.572 C131.179,422.572 110.792,428.201 103.904,428.201 C96.199,428.201 72.808,422.572 72.808,422.572 L72.808,339.051 L131.179,339.051 L131.179,422.572" id="Fill-171" fill="#EAAA64"></path>
                <path d="M72.808,413.031 L62.315,424.159 L68.911,454.916 C68.911,454.916 72.911,456.941 80.912,456.941 C88.913,456.941 89.713,457.278 93.714,452.217 C97.714,447.156 98.954,445.132 98.954,445.132 L72.808,413.031" id="Fill-172" fill="#CBCCCB"></path>
                <path d="M82.693,506.86 L83.778,513.489 L83.795,513.577 L83.861,513.985 L83.31,513.489 L39.9,474.255 L54.193,460.794 L34.279,445.216 C37.569,442.312 41.051,439.618 44.71,437.155 C47.168,435.502 49.697,433.953 52.303,432.515 C57.488,429.644 62.955,427.214 68.663,425.275 L82.693,506.86" id="Fill-173" fill="#1A1919"></path>
                <path d="M135.157,425.275 C140.865,427.214 146.331,429.644 151.517,432.515 C154.123,433.953 156.652,435.502 159.11,437.155 C162.769,439.618 166.251,442.312 169.541,445.216 L149.627,460.794 L163.92,474.255 L120.51,513.489 L119.959,513.985 L120.025,513.577 L120.042,513.489 L121.128,506.86 L135.157,425.275" id="Fill-174" fill="#1A1919"></path>
                <path d="M131.181,413.031 L141.673,424.159 L135.078,454.916 C135.078,454.916 131.077,456.941 123.077,456.941 C115.076,456.941 114.276,457.278 110.275,452.217 C106.275,447.156 105.034,445.132 105.034,445.132 L131.181,413.031" id="Fill-175" fill="#CBCCCB"></path>
                <polyline id="Fill-176" fill="#4D4E4C" points="67.534 418.695 39.436 444.184 57.673 460.839 46.545 474.428 83.86 513.649 67.534 418.695"></polyline>
                <polyline id="Fill-177" fill="#4D4E4C" points="136.476 418.695 164.574 444.184 146.337 460.839 157.465 474.428 120.15 513.649 136.476 418.695"></polyline>
                <path d="M50.384,493.527 L25.955,493.527 C24.332,493.527 23.016,492.211 23.016,490.588 C23.016,488.965 24.332,487.649 25.955,487.649 L50.384,487.649 C52.007,487.649 53.323,488.965 53.323,490.588 C53.323,492.211 52.007,493.527 50.384,493.527" id="Fill-178" fill="#4D4E4C"></path>
                <path d="M48.767,329.433 L48.767,354.586 C40.209,354.586 33.272,348.956 33.272,342.009 C33.272,335.063 40.209,329.433 48.767,329.433" id="Fill-179" fill="#F3BA6F"></path>
                <path d="M154.948,329.433 L154.948,354.586 C163.506,354.586 170.444,348.956 170.444,342.009 C170.444,335.063 163.506,329.433 154.948,329.433" id="Fill-180" fill="#F3BA6F"></path>
                <path d="M159.902,349.963 L151.384,349.963 C148.62,349.963 146.378,348.428 146.378,346.535 C146.378,344.641 148.62,343.107 151.384,343.107 L159.902,343.107 C162.667,343.107 164.908,344.641 164.908,346.535 C164.908,348.428 162.667,349.963 159.902,349.963" id="Fill-181" fill="#DF5C4B"></path>
                <path d="M53.026,349.963 L44.509,349.963 C41.744,349.963 39.503,348.428 39.503,346.535 C39.503,344.641 41.744,343.107 44.509,343.107 L53.026,343.107 C55.791,343.107 58.032,344.641 58.032,346.535 C58.032,348.428 55.791,349.963 53.026,349.963" id="Fill-182" fill="#DF5C4B"></path>
                <path d="M155.178,368.59 C155.178,397.973 131.361,421.797 101.978,421.797 L101.813,421.797 C75.385,421.718 53.497,402.376 49.445,377.074 C49,374.313 48.771,371.48 48.771,368.59 L48.771,308.347 C48.771,278.964 61.866,251.805 91.242,251.805 L91.256,251.805 C120.639,251.805 155.178,278.972 155.178,308.354 L155.178,368.59 Z" id="Fill-183" fill="#F6C27C"></path>
                <path d="M154.413,377.074 C154.262,377.232 149.22,382.381 140.636,382.618 C131.908,382.855 124.206,375.747 124.206,375.747 L79.652,375.747 C79.652,375.747 71.95,382.855 63.222,382.618 C54.637,382.381 49.596,377.232 49.445,377.074 C53.491,402.339 75.668,421.658 102.045,421.794 L102.045,421.797 C102.068,421.797 102.091,421.796 102.114,421.795 C102.13,421.795 102.145,421.796 102.161,421.797 L102.161,421.794 C128.537,421.659 150.367,402.339 154.413,377.074" id="Fill-184" fill="#C49D67"></path>
                <path d="M123.976,375.747 L123.976,375.747 C123.976,369.689 120.803,364.779 116.89,364.779 L86.74,364.779 C82.827,364.779 79.654,369.689 79.654,375.747 L123.976,375.747" id="Fill-185" fill="#694F3C"></path>
                <path d="M94.814,359.861 C95.008,363.537 98.068,366.458 101.815,366.458 C105.562,366.458 108.622,363.537 108.816,359.861 L94.814,359.861" id="Fill-186" fill="#DF5C4B"></path>
                <path d="M105.281,395.791 L98.349,395.791 C96.1,395.791 94.276,394.93 94.276,393.868 C94.276,392.806 96.1,391.945 98.349,391.945 L105.281,391.945 C107.53,391.945 109.354,392.806 109.354,393.868 C109.354,394.93 107.53,395.791 105.281,395.791" id="Fill-187" fill="#7E4E38"></path>
                <path d="M91.316,381.121 C91.343,381.251 91.371,381.379 91.403,381.507 C92.553,386.189 96.779,389.66 101.816,389.66 C106.852,389.66 111.077,386.189 112.227,381.507 C112.259,381.379 112.287,381.251 112.314,381.121 L91.316,381.121" id="Fill-188" fill="#7E4E38"></path>
                <path d="M69.698,325.354 L86.994,325.369001 C89.808,325.371 92.09,323.092 92.0930013,320.279 C92.095,317.465 89.816,315.183 87.003,315.18 L69.707,315.165997 C66.894,315.163 64.611,317.442 64.608997,320.255 C64.606,323.069 66.885,325.351 69.698,325.354" id="Fill-189" fill="#694F3C" transform="translate(78.350999, 320.267499) rotate(-10.000000) translate(-78.350999, -320.267499) "></path>
                <path d="M155.178,308.354 L155.178,338.103 C154.561,338.698 153.902,339.243 153.199,339.745 L152.442,339.767 C152.442,339.767 148.465,313.037 146.421,305.027 C143.302,292.827 142.757,284.408 132.178,289.335 C127.208,291.658 121.514,305.744 106.503,310.864 C86.566,317.663 79.652,294.534 72.416,289.779 C70.15,288.295 67.668,288.245 65.323,288.883 C59.643,290.432 55.605,295.725 55.017,301.864 L51.399,339.767 L50.75,339.745 C50.047,339.243 49.388,338.698 48.771,338.103 L48.771,308.347 C48.771,278.964 61.866,251.805 91.242,251.805 L91.256,251.805 C120.639,251.805 155.178,278.972 155.178,308.354" id="Fill-190" fill="#EAAA64"></path>
                <path d="M118.167,325.354 L135.463,325.369001 C138.276,325.371 140.559,323.092 140.561003,320.279 C140.564,317.465 138.285,315.183 135.472,315.18 L118.176,315.165997 C115.363,315.163 113.08,317.442 113.076999,320.255 C113.075,323.069 115.354,325.351 118.167,325.354" id="Fill-191" fill="#694F3C" transform="translate(126.819001, 320.267499) rotate(10.000000) translate(-126.819001, -320.267499) "></path>
                <polygon id="Fill-192" fill="#EAAA64" points="48.771 339.767 58.74 339.767 58.74 336.001 48.771 336.001"></polygon>
                <polygon id="Fill-193" fill="#EAAA64" points="146.378 339.767 155.178 339.767 155.178 336.001 146.378 336.001"></polygon>
                <path d="M163.972,294.219 L163.972,293.113 C163.972,288.738 163.514,285.386 162.817,282.784 C162.544,280.907 162.238,278.992 161.866,277.002 C154.618,238.315 88.445,201.43 52.669,260.998 C51.535,262.886 50.339,264.735 49.869,266.886 C49.326,269.37 48.398,272.631 47.127,273.62 C44.987,275.284 39.972,278.612 39.972,293.113 L39.972,319.4 C39.972,325.557 43.029,331.313 48.132,334.761 L48.767,335.191 L52.619,296.876 C53.235,290.743 57.481,285.445 63.449,283.899 C65.913,283.261 68.522,283.307 70.899,284.793 C78.507,289.547 85.778,312.68 106.733,305.879 C122.511,300.759 128.492,286.671 133.717,284.353 C144.833,279.423 145.41,287.842 148.688,300.041 C150.839,308.05 154.948,335.191 154.948,335.191 C154.948,335.191 155.024,335.102 155.151,334.94 L155.176,335.191 L155.812,334.761 C160.914,331.313 163.972,325.557 163.972,319.4 L163.972,305.068 C164.156,301.751 164.177,298.145 163.972,294.219" id="Fill-200" fill="#4D3A2C"></path>
                <path d="M82.505,340.568 C82.505,342.862 80.645,344.722 78.351,344.722 C76.057,344.722 74.197,342.862 74.197,340.568 C74.197,338.274 76.057,336.414 78.351,336.414 C80.645,336.414 82.505,338.274 82.505,340.568" id="Fill-201" fill="#834736"></path>
                <path d="M122.665,340.568 C122.665,342.862 124.525,344.722 126.82,344.722 C129.114,344.722 130.974,342.862 130.974,340.568 C130.974,338.274 129.114,336.414 126.82,336.414 C124.525,336.414 122.665,338.274 122.665,340.568" id="Fill-202" fill="#834736"></path>
                <path d="M95.885,300.558 L95.885,300.558 C93.485,302.471 89.297,301.208 86.53,297.737 L61.481,266.312 C58.714,262.841 58.416,258.477 60.816,256.563 C63.216,254.65 67.405,255.913 70.172,259.384 L95.221,290.809 C97.988,294.28 98.285,298.645 95.885,300.558" id="Fill-203" fill="#5D4635"></path>
                <path d="M291.291,513.32 L150.642,513.32 C150.675,512.81 150.7,512.307 150.739,511.798 L150.739,511.752 C151.339,503.969 153.254,496.546 156.272,489.698 C156.298,489.639 156.324,489.588 156.35,489.53 C157.085,487.872 157.884,486.247 158.749,484.661 C166.674,470.061 179.798,458.582 195.713,452.598 C197.061,452.088 198.422,451.624 199.808,451.198 C206.483,449.141 213.589,448.032 220.967,448.032 C228.364,448.032 235.496,449.147 242.196,451.217 C243.583,451.65 244.95,452.12 246.298,452.63 C260.163,457.86 271.912,467.275 279.935,479.283 C280.979,480.837 281.96,482.436 282.869,484.081 C283.043,484.384 283.211,484.7 283.378,485.009 C287.951,493.547 290.749,503.137 291.291,513.32" id="Fill-204" fill="#DE4C3F"></path>
                <polyline id="Fill-205" fill="#B53735" points="217.635 477.928 188.368 488.608 186.065 477.862 217.635 477.928"></polyline>
                <polyline id="Fill-206" fill="#B53735" points="224.473 477.928 253.739 488.608 256.043 477.862 224.473 477.928"></polyline>
                <polygon id="Fill-207" fill="#F6C27C" points="200.678 479.109 241.345 479.109 241.345 420.921 200.678 420.921"></polygon>
                <path d="M241.345,449.976 C241.345,449.976 227.141,453.897 222.343,453.897 C216.975,453.897 200.678,449.976 200.678,449.976 L200.678,391.788 L241.345,391.788 L241.345,449.976" id="Fill-208" fill="#EAAA64"></path>
                <path d="M258.283,378.5 L258.283,396.809 C264.512,396.809 269.562,392.71 269.562,387.654 C269.562,382.598 264.512,378.5 258.283,378.5" id="Fill-209" fill="#F3BA6F"></path>
                <path d="M261.888,393.443 L255.688,393.443 C253.676,393.443 252.044,392.326 252.044,390.948 C252.044,389.57 253.676,388.453 255.688,388.453 L261.888,388.453 C263.901,388.453 265.532,389.57 265.532,390.948 C265.532,392.326 263.901,393.443 261.888,393.443" id="Fill-210" fill="#DF5C4B"></path>
                <path d="M180.994,378.5 L180.994,396.809 C174.764,396.809 169.714,392.71 169.714,387.654 C169.714,382.598 174.764,378.5 180.994,378.5" id="Fill-211" fill="#F3BA6F"></path>
                <path d="M184.093,393.443 L177.894,393.443 C175.881,393.443 174.25,392.326 174.25,390.948 C174.25,389.57 175.881,388.453 177.894,388.453 L184.093,388.453 C186.106,388.453 187.737,389.57 187.737,390.948 C187.737,392.326 186.106,393.443 184.093,393.443" id="Fill-212" fill="#DF5C4B"></path>
                <path d="M258.454,407.004 C258.454,408.223 258.396,409.429 258.28,410.622 C258.041,413.189 257.557,415.684 256.841,418.077 C253.74,428.485 246.382,437.049 236.799,441.77 C231.652,444.311 225.855,445.73 219.722,445.73 C216.607,445.73 213.583,445.362 210.687,444.672 C207.785,443.975 205.012,442.957 202.407,441.654 C192.934,436.914 185.679,428.402 182.603,418.083 C181.842,415.555 181.345,412.911 181.119,410.197 C181.036,409.145 180.991,408.081 180.991,407.004 L180.991,363.152 C180.991,362.366 181.016,361.585 181.061,360.811 C181.126,359.676 181.242,358.554 181.41,357.445 C184.17,338.763 200.266,324.427 219.716,324.427 L219.722,324.427 C239.172,324.427 255.274,338.769 258.035,357.445 C258.196,358.554 258.312,359.676 258.383,360.811 C258.428,361.585 258.454,362.372 258.454,363.159 L258.454,407.004 Z" id="Fill-213" fill="#F6C27C"></path>
                <path d="M214.511,400.648 C214.652,403.324 216.879,405.45 219.607,405.45 C222.334,405.45 224.562,403.324 224.702,400.648 L214.511,400.648" id="Fill-214" fill="#DF5C4B"></path>
                <path d="M205.339,400.029 L199.768,400.029 C197.96,400.029 196.494,399.025 196.494,397.787 C196.494,396.549 197.96,395.545 199.768,395.545 L205.339,395.545 C207.147,395.545 208.613,396.549 208.613,397.787 C208.613,399.025 207.147,400.029 205.339,400.029" id="Fill-215" fill="#EC9967"></path>
                <path d="M240.615,400.029 L235.044,400.029 C233.236,400.029 231.77,399.025 231.77,397.787 C231.77,396.549 233.236,395.545 235.044,395.545 L240.615,395.545 C242.423,395.545 243.889,396.549 243.889,397.787 C243.889,399.025 242.423,400.029 240.615,400.029" id="Fill-216" fill="#EC9967"></path>
                <path d="M180.994,354.73 L180.994,398.939 C178.556,398.939 176.579,394.977 176.579,390.09 L177.99,357.184 C179.353,355.845 179.289,351.801 180.652,350.273 C180.878,351.728 180.994,353.217 180.994,354.73" id="Fill-217" fill="#FFE386"></path>
                <path d="M258.454,354.73 L258.454,398.939 C260.891,398.939 262.868,394.977 262.868,390.09 L261.518,357.184 C260.155,355.845 260.158,351.801 258.795,350.273 C258.569,351.728 258.454,353.217 258.454,354.73" id="Fill-218" fill="#FFE386"></path>
                <path d="M221.012,503.612 L221.012,503.612 C218.935,503.612 217.251,501.928 217.251,499.851 L217.251,479.176 L224.773,479.176 L224.773,499.851 C224.773,501.928 223.089,503.612 221.012,503.612" id="Fill-219" fill="#B53735"></path>
                <path d="M223.255,483.685 C223.255,484.924 222.251,485.929 221.012,485.929 C219.773,485.929 218.768,484.924 218.768,483.685 C218.768,482.446 219.773,481.442 221.012,481.442 C222.251,481.442 223.255,482.446 223.255,483.685" id="Fill-220" fill="#051A21"></path>
                <path d="M223.255,492.567 C223.255,493.806 222.251,494.811 221.012,494.811 C219.773,494.811 218.768,493.806 218.768,492.567 C218.768,491.328 219.773,490.324 221.012,490.324 C222.251,490.324 223.255,491.328 223.255,492.567" id="Fill-221" fill="#051A21"></path>
                <path d="M242.963,389.253 C242.949,389.19 242.936,389.127 242.92,389.065 C242.358,386.776 240.291,385.078 237.829,385.078 C235.367,385.078 233.301,386.776 232.739,389.065 C232.723,389.127 232.71,389.19 232.696,389.253 L242.963,389.253" id="Fill-222" fill="#786048"></path>
                <path d="M207.687,389.253 C207.673,389.19 207.66,389.127 207.644,389.065 C207.082,386.776 205.015,385.078 202.553,385.078 C200.091,385.078 198.025,386.776 197.463,389.065 C197.447,389.127 197.433,389.19 197.42,389.253 L207.687,389.253" id="Fill-223" fill="#786048"></path>
                <path d="M291.293,513.316 L263.176,513.316 L263.326,496.49 L282.87,484.079 C283.043,484.386 283.212,484.697 283.377,485.008 C287.949,493.546 290.747,503.139 291.293,513.316" id="Fill-224" fill="#F6C27C"></path>
                <path d="M283.377,485.008 L263.326,505.289 L263.326,496.49 L279.937,479.28 C280.981,480.835 281.96,482.436 282.87,484.079 C283.043,484.386 283.212,484.697 283.377,485.008" id="Fill-225" fill="#E4725A"></path>
                <path d="M150.641,513.316 L178.758,513.316 L178.608,496.49 L159.064,484.079 C158.891,484.386 158.722,484.697 158.557,485.008 C153.985,493.546 151.187,503.139 150.641,513.316" id="Fill-226" fill="#F6C27C"></path>
                <path d="M158.557,485.008 L178.608,505.289 L178.608,496.49 L161.997,479.28 C160.953,480.835 159.974,482.436 159.064,484.079 C158.891,484.386 158.722,484.697 158.557,485.008" id="Fill-227" fill="#E4725A"></path>
                <polyline id="Fill-228" fill="#4B6A73" points="208.275 460.415 236.086 460.415 233.103 479.176 208.275 479.176 208.275 460.415"></polyline>
                <path d="M246.298,452.63 C242.19,459.846 232.413,464.921 221.012,464.921 C209.591,464.921 199.802,459.833 195.713,452.598 C197.061,452.088 198.422,451.624 199.808,451.198 C204.496,456.306 212.248,459.64 221.012,459.64 C229.769,459.64 237.508,456.312 242.196,451.217 C243.583,451.65 244.95,452.12 246.298,452.63" id="Fill-229" fill="#051A21"></path>
                <path d="M261.517,338.879 L261.517,357.187 L177.992,357.187 L177.992,338.879 C177.992,328.929 182.97,320.139 190.58,314.87 C192.411,313.6 194.398,312.536 196.5,311.704 C199.808,310.408 203.407,309.692 207.173,309.692 L232.336,309.692 C238.308,309.692 243.866,311.491 248.49,314.567 C256.345,319.803 261.517,328.735 261.517,338.879" id="Fill-230" fill="#0E1F2D"></path>
                <path d="M258.454,379.365 C251.405,379.436 237.089,373.78 229.099,373.599 C219.722,373.38 219.722,373.38 219.722,373.38 C219.722,373.38 219.722,373.38 210.346,373.599 C202.355,373.78 188.039,379.436 180.991,379.365 L180.991,363.152 C180.991,362.366 181.016,361.585 181.061,360.811 L258.383,360.811 L258.454,379.365" id="Fill-231" fill="#EAAA64"></path>
                <path d="M261.385,357.184 L178.057,357.184 C178.057,357.184 173.196,372.335 178.057,375.129 C182.918,377.923 200.972,370.186 210.347,369.971 C219.721,369.756 219.721,369.756 219.721,369.756 C219.721,369.756 219.721,369.756 229.096,369.971 C238.47,370.186 256.525,377.923 261.385,375.129 C266.246,372.335 261.385,357.184 261.385,357.184" id="Fill-232" fill="#708494"></path>
                <path d="M253.424,357.187 L186.085,357.187 C186.085,357.187 188.884,344.438 187.884,339.382 C186.885,334.326 185.582,332.127 186.291,325.723 C186.595,323.002 188.497,318.804 190.58,314.87 C192.411,313.6 194.398,312.536 196.5,311.704 C199.808,310.408 203.407,309.692 207.173,309.692 L232.336,309.692 C238.308,309.692 243.866,311.491 248.49,314.567 C250.793,318.61 252.908,322.957 253.217,325.723 C253.927,332.127 252.624,334.326 251.624,339.382 C250.625,344.438 253.424,357.187 253.424,357.187" id="Fill-233" fill="#153045"></path>
                <path d="M223.478,427.117 L218.546,427.117 C216.945,427.117 215.647,426.505 215.647,425.749 C215.647,424.993 216.945,424.381 218.546,424.381 L223.478,424.381 C225.079,424.381 226.376,424.993 226.376,425.749 C226.376,426.505 225.079,427.117 223.478,427.117" id="Fill-234" fill="#7E4E38"></path>
                <path d="M213.541,416.68 C213.561,416.772 213.581,416.863 213.603,416.954 C214.422,420.285 217.429,422.755 221.012,422.755 C224.596,422.755 227.602,420.285 228.42,416.954 C228.443,416.863 228.463,416.772 228.482,416.68 L213.541,416.68" id="Fill-235" fill="#7E4E38"></path>
                <path d="M232.533,381.649 L243.122,381.658001 C244.845,381.659 246.242,380.636 246.243001,379.372 C246.244,378.109 244.848,377.083 243.126,377.082 L232.537,377.072997 C230.814,377.071 229.417,378.094 229.415999,379.358 C229.415,380.622 230.81,381.648 232.533,381.649" id="Fill-236" fill="#FFE386"></path>
                <path d="M197.257,381.649 L207.846,381.658001 C209.568,381.659 210.966,380.636 210.967001,379.372 C210.968,378.109 209.572,377.083 207.85,377.082 L197.261,377.072997 C195.538,377.071 194.141,378.094 194.139999,379.358 C194.139,380.622 195.535,381.648 197.257,381.649" id="Fill-237" fill="#FFE386"></path>
                <polyline id="Fill-238" fill="#E4725A" points="223.813 479.176 258.878 479.176 241.345 441.654 223.813 479.176"></polyline>
                <polyline id="Fill-239" fill="#E4725A" points="183.146 479.176 218.211 479.176 200.678 441.654 183.146 479.176"></polyline>
            </g>
            <path d="M622.845,352.484 L617.274,352.484 C615.466,352.484 614,351.48 614,350.242 C614,349.004 615.466,348 617.274,348 L622.845,348 C624.653,348 626.119,349.004 626.119,350.242 C626.119,351.48 624.653,352.484 622.845,352.484" id="Fill-215" fill="#EC9967"></path>
            <path d="M671.845,352.484 L666.274,352.484 C664.466,352.484 663,351.48 663,350.242 C663,349.004 664.466,348 666.274,348 L671.845,348 C673.653,348 675.119,349.004 675.119,350.242 C675.119,351.48 673.653,352.484 671.845,352.484" id="Fill-215" fill="#EC9967"></path>
        </g>
        <g id="emblem-light" transform="translate(511.000000, 319.000000)" fill-rule="nonzero">
            <g id="logo-core" transform="translate(0.976378, 0.325459)">
                <g id="H-bottom" transform="translate(4.472131, 22.259016)">
                    <g id="path-1-link" fill="#000000">
                        <path d="M19.6892898,1.43385591 C13.9528538,5.75237088 6.06718726,5.75237088 0.330751359,1.43385591 C-0.00632223148,1.17927771 -0.0960023652,0.738422846 0.120466915,0.480740072 L0.318381689,0.241684944 C0.537943386,-0.0191024033 0.955419858,-0.0315209016 1.25847684,0.19511583 C6.44446234,4.1007174 13.5786712,4.1007174 18.7646568,0.19511583 C19.0677137,-0.0315209016 19.4851902,-0.0191024033 19.7047519,0.241684944 L19.9026667,0.480740072 C20.1160435,0.74152742 20.0294558,1.17927771 19.6892898,1.43385591" id="path-1"></path>
                    </g>
                    <g id="path-1-link" fill="#14a84e">
                        <path d="M19.6892898,1.43385591 C13.9528538,5.75237088 6.06718726,5.75237088 0.330751359,1.43385591 C-0.00632223148,1.17927771 -0.0960023652,0.738422846 0.120466915,0.480740072 L0.318381689,0.241684944 C0.537943386,-0.0191024033 0.955419858,-0.0315209016 1.25847684,0.19511583 C6.44446234,4.1007174 13.5786712,4.1007174 18.7646568,0.19511583 C19.0677137,-0.0315209016 19.4851902,-0.0191024033 19.7047519,0.241684944 L19.9026667,0.480740072 C20.1160435,0.74152742 20.0294558,1.17927771 19.6892898,1.43385591" id="path-1"></path>
                    </g>
                </g>
                <g id="H-right" transform="translate(21.547541, 13.416393)">
                    <g id="path-3-link" fill="#000000">
                        <path d="M0.564314243,14.5548028 L0.564314243,14.5548028 C0.196440698,14.3722389 0.00477552459,14.0287713 0.137704643,13.79051 C2.17801142,10.0278377 2.85811371,5.41423223 1.72357947,0.834664125 C1.65247787,0.540705354 1.9028792,0.191049138 2.29239227,0.0579940885 L2.29239227,0.0579940885 C2.68190544,-0.0750609607 3.07450987,0.0796541443 3.12397194,0.308632646 C4.38834384,5.23166835 3.70824155,10.2227788 1.5319143,14.3289187 C1.35879739,14.6785749 0.935279148,14.7342724 0.564314243,14.5548028" id="path-3"></path>
                    </g>
                    <g id="path-3-link" fill="#14a84e">
                        <path d="M0.564314243,14.5548028 L0.564314243,14.5548028 C0.196440698,14.3722389 0.00477552459,14.0287713 0.137704643,13.79051 C2.17801142,10.0278377 2.85811371,5.41423223 1.72357947,0.834664125 C1.65247787,0.540705354 1.9028792,0.191049138 2.29239227,0.0579940885 L2.29239227,0.0579940885 C2.68190544,-0.0750609607 3.07450987,0.0796541443 3.12397194,0.308632646 C4.38834384,5.23166835 3.70824155,10.2227788 1.5319143,14.3289187 C1.35879739,14.6785749 0.935279148,14.7342724 0.564314243,14.5548028" id="path-3"></path>
                    </g>
                </g>
                <g id="H-left" transform="translate(3.760656, 13.416393)">
                    <g id="path-5-link" fill="#000000">
                        <path d="M3.27641897,14.5527819 L3.25478822,14.5527819 C3.62251081,14.3704761 3.81409738,14.027494 3.68431293,13.7864795 C1.64175301,10.0260358 0.961929736,5.40968173 2.09599856,0.833496695 C2.16707099,0.539953528 1.91677242,0.190791482 1.52741909,0.0579245672 C1.13497566,-0.0749424492 0.742532226,0.0795540295 0.69618064,0.30820881 C-0.56767263,5.23046585 0.112150641,10.2207013 2.28758511,14.327217 C2.46372115,14.6763791 2.88706563,14.7350877 3.25787833,14.5558718" id="path-5"></path>
                    </g>
                    <g id="path-5-link" fill="#AF6A3D">
                        <path d="M3.27641897,14.5527819 L3.25478822,14.5527819 C3.62251081,14.3704761 3.81409738,14.027494 3.68431293,13.7864795 C1.64175301,10.0260358 0.961929736,5.40968173 2.09599856,0.833496695 C2.16707099,0.539953528 1.91677242,0.190791482 1.52741909,0.0579245672 C1.13497566,-0.0749424492 0.742532226,0.0795540295 0.69618064,0.30820881 C-0.56767263,5.23046585 0.112150641,10.2207013 2.28758511,14.327217 C2.46372115,14.6763791 2.88706563,14.7350877 3.25787833,14.5558718" id="path-5"></path>
                    </g>
                </g>
                <g id="A-cross" transform="translate(1.931148, 11.790164)">
                    <g id="path-7-link" fill="#000000">
                        <path d="M24.0781849,3.62234024 C16.6461878,1.16176027 8.61084378,1.16176027 1.1788467,3.62234024 C0.724015906,3.77305076 0.22586789,3.54852284 0.0680694544,3.11176984 C-0.0897289918,2.67501693 0.167080232,2.17674946 0.64666373,2.01988753 C8.4282926,-0.554494256 16.8380212,-0.554494256 24.6196501,2.01988753 C25.0992336,2.17982517 25.3560428,2.67501693 25.1982444,3.11176984 C25.0373519,3.54852284 24.5392038,3.77305076 24.0874671,3.62234024" id="path-7"></path>
                    </g>
                    <g id="path-7-link" fill="#F64D54">
                        <path d="M24.0781849,3.62234024 C16.6461878,1.16176027 8.61084378,1.16176027 1.1788467,3.62234024 C0.724015906,3.77305076 0.22586789,3.54852284 0.0680694544,3.11176984 C-0.0897289918,2.67501693 0.167080232,2.17674946 0.64666373,2.01988753 C8.4282926,-0.554494256 16.8380212,-0.554494256 24.6196501,2.01988753 C25.0992336,2.17982517 25.3560428,2.67501693 25.1982444,3.11176984 C25.0373519,3.54852284 24.5392038,3.77305076 24.0874671,3.62234024" id="path-7"></path>
                    </g>
                </g>
                <g id="A-right" transform="translate(14.534426, 0.000000)">
                    <g id="path-9-link" fill="#000000">
                        <path d="M0,1.08428782 L0,0.272445155 L0.118171085,0.272445155 C0.241922882,0.0951497872 0.439507938,0 0.640227551,0 L0.640229279,0 C0.765581489,0 0.892157944,0.0371101326 1.00273596,0.114498534 C6.74003616,4.04458212 11.7721587,10.4832296 14.462968,18.8574976 C14.6052407,19.3034646 14.4320391,19.9135721 14.0825433,20.1953984 C13.7299545,20.4741278 13.3371582,20.3316661 13.2041642,19.8887961 C10.7174853,11.582662 5.86474994,5.17188742 0.282094003,1.23870684 C0.241886495,1.20773692 0.204771872,1.17366999 0.170750134,1.13650608 C0.119985144,1.10544184 0.061505118,1.08725315 0,1.08428817 L0,1.08428782 Z" id="path-9"></path>
                    </g>
                    <g id="path-9-link" fill="#F0B573">
                        <path d="M0,1.08428782 L0,0.272445155 L0.118171085,0.272445155 C0.241922882,0.0951497872 0.439507938,0 0.640227551,0 L0.640229279,0 C0.765581489,0 0.892157944,0.0371101326 1.00273596,0.114498534 C6.74003616,4.04458212 11.7721587,10.4832296 14.462968,18.8574976 C14.6052407,19.3034646 14.4320391,19.9135721 14.0825433,20.1953984 C13.7299545,20.4741278 13.3371582,20.3316661 13.2041642,19.8887961 C10.7174853,11.582662 5.86474994,5.17188742 0.282094003,1.23870684 C0.241886495,1.20773692 0.204771872,1.17366999 0.170750134,1.13650608 C0.119985144,1.10544184 0.061505118,1.08725315 0,1.08428817 L0,1.08428782 Z" id="path-9"></path>
                    </g>
                </g>
                <g id="A-left">
                    <g id="path-11-link" fill="#000000">
                        <path d="M14.5344262,1.08428817 C14.5284811,1.08400157 14.5225078,1.08385721 14.5165105,1.08385721 C14.4639314,1.08385721 14.4144453,1.09314819 14.368052,1.11482713 C14.3278445,1.16128203 14.2845441,1.20463993 14.235058,1.23870684 C8.65240198,5.17188742 3.79966668,11.582662 1.31298778,19.8887961 C1.17999376,20.3316661 0.787197466,20.4803218 0.434608667,20.1953984 C0.0820198687,19.9104751 -0.0942745306,19.3034646 0.0510910268,18.8574976 C2.74499316,10.4801327 7.77402288,4.04767911 13.5113231,0.114498534 C13.7989613,-0.0837089919 14.1948505,-0.0124781626 14.3958879,0.272445155 L14.5344262,0.272445155 L14.5344262,1.08428782 L14.5344262,1.08428817 Z" id="path-11"></path>
                    </g>
                    <g id="path-11-link" fill="#3DA5D9">
                        <path d="M14.5344262,1.08428817 C14.5284811,1.08400157 14.5225078,1.08385721 14.5165105,1.08385721 C14.4639314,1.08385721 14.4144453,1.09314819 14.368052,1.11482713 C14.3278445,1.16128203 14.2845441,1.20463993 14.235058,1.23870684 C8.65240198,5.17188742 3.79966668,11.582662 1.31298778,19.8887961 C1.17999376,20.3316661 0.787197466,20.4803218 0.434608667,20.1953984 C0.0820198687,19.9104751 -0.0942745306,19.3034646 0.0510910268,18.8574976 C2.74499316,10.4801327 7.77402288,4.04767911 13.5113231,0.114498534 C13.7989613,-0.0837089919 14.1948505,-0.0124781626 14.3958879,0.272445155 L14.5344262,0.272445155 L14.5344262,1.08428782 L14.5344262,1.08428817 Z" id="path-11"></path>
                    </g>
                </g>
            </g>
            <g id="ring">
                <g id="path-13-link" fill="#000000">
                    <path d="M15.5015492,31 C6.94982508,31 0,24.0470765 0,15.4984508 C0,6.94982508 6.94982508,0 15.5015492,0 C24.0532733,0 31,6.95292354 31,15.5015492 C31,24.0501749 24.0470765,31 15.5015492,31 M15.5015492,1.3912044 C7.72133933,1.3912044 1.39430285,7.72133933 1.39430285,15.5015492 C1.39430285,23.2817591 7.72133933,29.6118941 15.5046477,29.6118941 C23.287956,29.6118941 29.6118941,23.2817591 29.6118941,15.5015492 C29.6118941,7.72133933 23.2817591,1.3912044 15.5015492,1.3912044" id="path-13"></path>
                </g>
                <g id="path-13-link" fill="#FFFFFF">
                    <path d="M15.5015492,31 C6.94982508,31 0,24.0470765 0,15.4984508 C0,6.94982508 6.94982508,0 15.5015492,0 C24.0532733,0 31,6.95292354 31,15.5015492 C31,24.0501749 24.0470765,31 15.5015492,31 M15.5015492,1.3912044 C7.72133933,1.3912044 1.39430285,7.72133933 1.39430285,15.5015492 C1.39430285,23.2817591 7.72133933,29.6118941 15.5046477,29.6118941 C23.287956,29.6118941 29.6118941,23.2817591 29.6118941,15.5015492 C29.6118941,7.72133933 23.2817591,1.3912044 15.5015492,1.3912044" id="path-13"></path>
                </g>
            </g>
        </g>
    </g>
</svg>