<svg xmlns="http://www.w3.org/2000/svg" xmlns:xlink="http://www.w3.org/1999/xlink" viewBox="0 0 1280 710.59"><defs><style>.cls-1{fill:url(#linear-gradient);}.cls-2{fill:#81b652;}.cls-3{fill:none;}</style><linearGradient id="linear-gradient" x1="283.84" y1="462.17" x2="1027" y2="51.74" gradientUnits="userSpaceOnUse"><stop offset="0" stop-color="#0376e4"/><stop offset="0.93" stop-color="#4ca7fd"/></linearGradient></defs><title>Homepage-BG</title><g id="Layer_2" data-name="Layer 2"><g id="Layer_1-2" data-name="Layer 1"><path class="cls-1" d="M1280,530.94V0H0V650.9C52.78,661,105.67,609.73,264,613c44.33.91,72.32,5.6,111.87,14.18C430.07,531.42,982.39,570.47,1280,530.94Z"/><path class="cls-2" d="M819,704c100.52,10.55,256.46,13.93,461-33.09v-140c-297.61,39.53-849.93.48-904.13,96.24C416.42,636,469.11,648.87,564,666,670.39,685.2,769.08,698.76,819,704Z"/><path class="cls-3" d="M819,704c100.52,10.55,256.46,13.93,461-33.09v-140c-297.61,39.53-849.93.48-904.13,96.24C416.42,636,469.11,648.87,564,666,670.39,685.2,769.08,698.76,819,704Z"/></g></g></svg>