<svg id="Layer_1" data-name="Layer 1" xmlns="http://www.w3.org/2000/svg" xmlns:xlink="http://www.w3.org/1999/xlink" viewBox="0 0 1280 720"><defs><style>.cls-1{fill:url(#linear-gradient);}.cls-2{fill:url(#linear-gradient-2);}.cls-3{fill:#ca3a23;}.cls-15,.cls-3{opacity:0.99;}.cls-4{fill:#8acbc1;}.cls-5{fill:#fac36e;}.cls-6{fill:#63bfb7;}.cls-7{fill:#fccb7f;}.cls-8{fill:#45ada2;}.cls-9{fill:#f4b460;}.cls-10{fill:#e95844;}.cls-11{fill:#ed6941;}.cls-12{fill:#825e42;}.cls-13{fill:#e94835;}.cls-14{fill:#9a4b30;}.cls-15{fill:#d44120;}.cls-16{fill:#77543d;}</style><linearGradient id="linear-gradient" x1="1081.24" y1="-208.13" x2="283.84" y2="714.34" gradientUnits="userSpaceOnUse"><stop offset="0" stop-color="#81b652"/><stop offset="1" stop-color="#02427e"/></linearGradient><linearGradient id="linear-gradient-2" x1="1288.01" y1="127.4" x2="947.27" y2="412.59" gradientUnits="userSpaceOnUse"><stop offset="0" stop-color="#02427e"/><stop offset="0.4" stop-color="#326e6d"/><stop offset="1" stop-color="#81b652"/></linearGradient></defs><title>Contact</title><path class="cls-1" d="M0,0V720H327c222.61-43.38,306.31-79.91,322-110a81.52,81.52,0,0,1,17-23c50.67-47.67,153-14.58,182-6,123.41,36.45,316.79,41.53,432,23.64V0Z"/><circle class="cls-2" cx="1034" cy="340" r="299"/><path class="cls-3" d="M841.94,303.3c0,95.37,65.45,172.68,146.2,172.68s146.21-77.31,146.21-172.68-65.46-172.67-146.21-172.67-146.2,77.31-146.2,172.67Z"/><polygon class="cls-4" points="931 481 1052 481 1052 444 931 444 931 481 931 481"/><path class="cls-5" d="M1084,290v47.7c16.23,0,29.38-10.68,29.38-23.85S1100.23,290,1084,290Z"/><path class="cls-5" d="M900,290v47.7c-16.22,0-29.38-10.68-29.38-23.85S883.78,290,900,290Z"/><path class="cls-6" d="M808.31,641h366.38a175.6,175.6,0,0,0-17.19-67c-1.37-2.86-2.83-5.68-4.35-8.45-31-56.33-91.73-94.63-161.65-94.63-98,0-178.13,75.31-183.19,170.06Z"/><polygon class="cls-7" points="938 510.4 991 540.43 1044 510.4 1044 401 938 401 938 510.4 938 510.4"/><polygon class="cls-8" points="998.04 537.92 1052.29 557.71 1056.56 532.13 998.04 537.92 998.04 537.92"/><polygon class="cls-8" points="985.45 537.92 931.2 557.71 926.93 532.13 985.45 537.92 985.45 537.92"/><path class="cls-9" d="M938,476.57s37,10.22,49.53,10.22c14,0,56.47-10.22,56.47-10.22V325H938V476.57Z"/><path class="cls-10" d="M890.17,329h16.15c5.24,0,9.49-2.91,9.49-6.5s-4.25-6.5-9.49-6.5H890.17c-5.24,0-9.49,2.91-9.49,6.5s4.25,6.5,9.49,6.5Z"/><path class="cls-10" d="M1075.81,329H1092c5.24,0,9.49-2.91,9.49-6.5s-4.25-6.5-9.49-6.5h-16.15c-5.25,0-9.5,2.91-9.5,6.5s4.25,6.5,9.5,6.5Z"/><path class="cls-7" d="M890.61,249.89l8.5,114.22c0,55.72,36.67,100.89,92.39,100.89h0c55.71,0,92.38-45.17,92.38-100.89l8.5-114.23A100.87,100.87,0,0,0,991.52,149h0A100.89,100.89,0,0,0,890.61,249.89Z"/><path class="cls-10" d="M1005.08,348a13.3,13.3,0,0,1-26.55,0Z"/><path class="cls-11" d="M1042.86,332h14.9c4.84,0,8.77-2.69,8.77-6s-3.93-6-8.77-6h-14.9c-4.84,0-8.76,2.69-8.76,6s3.92,6,8.76,6Z"/><path class="cls-11" d="M940.75,332H925.84c-4.84,0-8.76-2.69-8.76-6s3.92-6,8.76-6h14.91c4.84,0,8.76,2.69,8.76,6s-3.92,6-8.76,6Z"/><path class="cls-12" d="M1042.75,291h21.63a3.5,3.5,0,0,0,3.5-3.5h0a3.5,3.5,0,0,0-3.5-3.5h-21.63a3.5,3.5,0,0,0-3.5,3.5h0a3.5,3.5,0,0,0,3.5,3.5Z"/><path class="cls-12" d="M922.48,291h21.63a3.5,3.5,0,0,0,3.5-3.5h0a3.5,3.5,0,0,0-3.5-3.5H922.48a3.5,3.5,0,0,0-3.5,3.5h0a3.5,3.5,0,0,0,3.5,3.5Z"/><path class="cls-13" d="M991.8,409.17h0a16.5,16.5,0,0,0,16.5-16.5h0a3.66,3.66,0,0,0-3.66-3.67H979a3.67,3.67,0,0,0-3.67,3.67h0a16.5,16.5,0,0,0,16.5,16.5Z"/><polygon class="cls-4" points="1061.67 534.91 991.38 541.63 1044.35 454.51 1061.67 534.91 1061.67 534.91"/><polygon class="cls-4" points="991.38 541.63 921.1 534.91 938.42 454.51 991.38 541.63 991.38 541.63"/><path class="cls-14" d="M919.92,311c0-.17.07-.33.11-.49a13.66,13.66,0,0,1,26.52,0l.12.49Z"/><path class="cls-14" d="M1040.19,311c0-.17.07-.33.11-.49a13.67,13.67,0,0,1,26.53,0c0,.16.07.33.11.49Z"/><path class="cls-15" d="M924.39,151.31c16.89-37.73,47.26-60.68,102.76-56.77,29,2,59,19.79,81.87,54.62,58.25,88.74,6.89,208.23-30.72,251.35,0,0-31.4-192.88-124.65-192.88-39.69,0-39.32-33.83-29.26-56.32Z"/><path class="cls-16" d="M873.1,290l15.15-5.15-32.78-96.48a14.8,14.8,0,0,1,7.61-17.76l40-19.79L896,136.45l-40,19.8a30.72,30.72,0,0,0-15.75,37l.06.16L873.1,290Z"/><path class="cls-12" d="M883.66,372.4l5.39-.47a11.06,11.06,0,0,0,10-11.95l-6.44-73.13a11.05,11.05,0,0,0-12-10l-5.39.47a11.06,11.06,0,0,0-10,11.95l6.45,73.13a11,11,0,0,0,11.94,10Z"/><path class="cls-15" d="M949.08,206.29s-54.71,45.32-54.71,94.25c0,0-106.68-169.91,52.3-182l2.41,87.78Z"/><path class="cls-16" d="M879.72,361.5h0a2.7,2.7,0,0,1-2.87-2.51l-4.34-64.85a2.7,2.7,0,0,1,2.51-2.87h0a2.69,2.69,0,0,1,2.87,2.51l4.34,64.85a2.7,2.7,0,0,1-2.51,2.87Z"/><path class="cls-12" d="M967,432.29v-8c-30,0-52.26-9.54-66.06-28.36a64,64,0,0,1-11.78-28.05l-8,.82a71.54,71.54,0,0,0,13.29,32c10.58,14.43,31.75,31.63,72.51,31.63Z"/><path class="cls-16" d="M953.52,436h31a10,10,0,0,0,10-10h0a10,10,0,0,0-10-10h-31a10,10,0,0,0-10,10h0a10,10,0,0,0,10,10Z"/><polygon class="cls-4" points="1039 641 1102 641 1102 612 1039 612 1039 641 1039 641"/><polygon class="cls-4" points="880 641 943 641 943 612 880 612 880 641 880 641"/><polygon class="cls-8" points="878 612.5 911 621 944 612.5 944 592 878 592 878 612.5 878 612.5"/><polygon class="cls-8" points="1038 612.5 1071 621 1104 612.5 1104 592 1038 592 1038 612.5 1038 612.5"/><path class="cls-4" d="M982,583.07a4.75,4.75,0,1,0,4.75-4.75,4.75,4.75,0,0,0-4.75,4.75Z"/><path class="cls-4" d="M982,626.91a4.75,4.75,0,1,0,4.75-4.75,4.75,4.75,0,0,0-4.75,4.75Z"/></svg>