<svg id="Layer_1" data-name="Layer 1" xmlns="http://www.w3.org/2000/svg" xmlns:xlink="http://www.w3.org/1999/xlink" viewBox="0 0 1280 720"><defs><style>.cls-1{fill:none;}.cls-1,.cls-2,.cls-3,.cls-4,.cls-5,.cls-6,.cls-7{clip-rule:evenodd;}.cls-2,.cls-34,.cls-36{fill:#f0b474;}.cls-3,.cls-37,.cls-39{fill:#ad6a3c;}.cls-4,.cls-40,.cls-42{fill:#389efe;}.cls-43,.cls-45,.cls-5{fill:#e75d3a;}.cls-46,.cls-48,.cls-6{fill:#81fcb9;}.cls-49,.cls-51,.cls-7{fill:#81b652;}.cls-8{fill:url(#linear-gradient);}.cls-9{fill:url(#linear-gradient-2);}.cls-10{clip-path:url(#clip-path);}.cls-11{fill:#3e5a27;}.cls-12{clip-path:url(#clip-path-2);}.cls-13{fill:#70a043;}.cls-14{clip-path:url(#clip-path-3);}.cls-15{fill:#253616;}.cls-16{clip-path:url(#clip-path-4);}.cls-17{fill:#bdd8a4;}.cls-18{clip-path:url(#clip-path-5);}.cls-19{fill:#d7e7c8;}.cls-20{clip-path:url(#clip-path-6);}.cls-21{fill:#a3c980;}.cls-22{clip-path:url(#clip-path-7);}.cls-23{clip-path:url(#clip-path-8);}.cls-24{clip-path:url(#clip-path-9);}.cls-25{clip-path:url(#clip-path-10);}.cls-26{clip-path:url(#clip-path-11);}.cls-27{clip-path:url(#clip-path-12);}.cls-28{fill:#88ba5e;}.cls-29{clip-path:url(#clip-path-13);}.cls-30{fill:#e7f1de;}.cls-31{clip-path:url(#clip-path-14);}.cls-32{clip-path:url(#clip-path-15);}.cls-33{clip-path:url(#clip-path-16);}.cls-34,.cls-37,.cls-40,.cls-43,.cls-46,.cls-49{fill-rule:evenodd;}.cls-35{clip-path:url(#clip-path-17);}.cls-38{clip-path:url(#clip-path-18);}.cls-41{clip-path:url(#clip-path-19);}.cls-44{clip-path:url(#clip-path-20);}.cls-47{clip-path:url(#clip-path-21);}.cls-50{clip-path:url(#clip-path-22);}</style><linearGradient id="linear-gradient" x1="-322.67" y1="918.9" x2="1115.77" y2="12.06" gradientUnits="userSpaceOnUse"><stop offset="0" stop-color="#037c3a"/><stop offset="1" stop-color="#1dfa81"/></linearGradient><linearGradient id="linear-gradient-2" x1="1451.48" y1="21.19" x2="970" y2="495.27" xlink:href="#linear-gradient"/><clipPath id="clip-path"><polyline id="SVGID" class="cls-1" points="1146.29 174.36 1002.89 157.77 851.6 368.79 851.6 395.27 885.76 419.57 885.76 644.18 915.6 675.23 1143.48 372.02 1143.48 219.69 1207.49 200.41 1146.29 174.36"/></clipPath><clipPath id="clip-path-2"><path id="SVGID-2" data-name="SVGID" class="cls-1" d="M885.76,413.79l-29.57-21V370.37L998.45,172,920,346.13l-34.24,47.76v19.9M915.18,668,890.35,642.2V419.57a5,5,0,0,0-.32-1.76l25.57-15.34v265l-.42.56"/></clipPath><clipPath id="clip-path-3"><path id="SVGID-3" data-name="SVGID" class="cls-1" d="M915.6,680a4.52,4.52,0,0,1-3.25-1.4L882.5,647.55a4.88,4.88,0,0,1-1.34-3.37V422.09L849,399.2a4.82,4.82,0,0,1-2-3.93V368.79a4.94,4.94,0,0,1,.91-2.86l151.29-211a4.51,4.51,0,0,1,4.19-1.89l143.41,16.58a4.39,4.39,0,0,1,1.23.33l61.2,26.05a4.83,4.83,0,0,1-.46,9l-60.7,18.28V372a4.89,4.89,0,0,1-1,2.94L919.23,678.16a4.54,4.54,0,0,1-3.35,1.83h-.28m-25.25-37.8L915.18,668l223.7-297.65V219.69a4.75,4.75,0,0,1,3.32-4.59l51.35-15.46L1145.14,179,1005,162.82,856.19,370.37v22.38l32.16,22.88a4.81,4.81,0,0,1,2,3.94V642.2"/></clipPath><clipPath id="clip-path-4"><polyline id="SVGID-4" data-name="SVGID" class="cls-1" points="1207.49 200.41 1037.05 182.88 885.76 393.89 885.76 420.37 915.6 402.47 915.6 675.23 1177.64 516.27 1177.64 244.79 1207.49 226.89 1207.49 200.41"/></clipPath><clipPath id="clip-path-5"><polyline id="SVGID-5" data-name="SVGID" class="cls-1" points="1190.99 235.21 1190.99 209.16 1050.18 194.68 1053.61 189.9 1045.14 183.98 1204.86 200.41 1204.86 226.89 1190.99 235.21"/></clipPath><clipPath id="clip-path-6"><polyline id="SVGID-6" data-name="SVGID" class="cls-1" points="1030.07 192.61 1027.62 192.35 1034.42 182.88 1036.87 183.13 1030.07 192.61"/></clipPath><clipPath id="clip-path-7"><polyline id="SVGID-7" data-name="SVGID" class="cls-1" points="1031.37 192.74 1030.07 192.61 1036.87 183.13 1038.16 183.26 1031.37 192.74"/></clipPath><clipPath id="clip-path-8"><polyline id="SVGID-8" data-name="SVGID" class="cls-1" points="1161.14 524.69 1161.14 253.54 1175.01 245.22 1175.01 516.27 1161.14 524.69"/></clipPath><clipPath id="clip-path-9"><polyline id="SVGID-9" data-name="SVGID" class="cls-1" points="918.71 672.84 918.71 400.08 888.86 417.98 888.86 391.5 1031.37 192.74 1050.18 194.68 914.41 384.04 914.41 386.99 944.26 369.09 944.26 657.34 918.71 672.84"/></clipPath><clipPath id="clip-path-10"><polyline id="SVGID-10" data-name="SVGID" class="cls-1" points="1044.69 183.66 1038.34 183.01 1040.15 180.49 1044.69 183.66"/></clipPath><clipPath id="clip-path-11"><polyline id="SVGID-11" data-name="SVGID" class="cls-1" points="1045.14 183.98 1038.16 183.26 1038.34 183.01 1044.69 183.66 1045.14 183.98"/></clipPath><clipPath id="clip-path-12"><polyline id="SVGID-12" data-name="SVGID" class="cls-1" points="1050.18 194.68 1031.37 192.74 1038.16 183.26 1045.14 183.98 1053.61 189.9 1050.18 194.68"/></clipPath><clipPath id="clip-path-13"><polyline id="SVGID-13" data-name="SVGID" class="cls-1" points="1207.49 226.36 1207.49 226.21 1210.59 224.35 1210.59 224.5 1207.49 226.36"/></clipPath><clipPath id="clip-path-14"><polyline id="SVGID-14" data-name="SVGID" class="cls-1" points="1206.29 227.08 1206.29 226.92 1207.49 226.21 1207.49 226.36 1206.29 227.08"/></clipPath><clipPath id="clip-path-15"><path id="SVGID-15" data-name="SVGID" class="cls-1" d="M915.6,680a4.43,4.43,0,0,1-2.28-.63,4.8,4.8,0,0,1-2.31-4.14V410.74l-23,13.76a4.42,4.42,0,0,1-4.6,0,4.81,4.81,0,0,1-2.3-4.13V393.89a4.88,4.88,0,0,1,.91-2.85l151.29-211a4.56,4.56,0,0,1,4.14-1.9l170.44,17.54a4.7,4.7,0,0,1,4.14,4.75v26.48a4.8,4.8,0,0,1-2.29,4.13l-27.55,16.52V516.27a4.83,4.83,0,0,1-2.28,4.13l-262,159A4.47,4.47,0,0,1,915.6,680Zm0-282.3a4.42,4.42,0,0,1,2.3.64,4.8,4.8,0,0,1,2.3,4.13V666.91l252.85-153.38V244.79a4.82,4.82,0,0,1,2.29-4.14l27.55-16.52v-19.4l-163.71-16.84L890.35,395.47V412.1l23-13.76A4.41,4.41,0,0,1,915.6,397.7Z"/></clipPath><clipPath id="clip-path-16"><path id="SVGID-16" data-name="SVGID" class="cls-1" d="M885.75,398.66a4.43,4.43,0,0,1-2.65-.88l-34.16-25.1a4.9,4.9,0,0,1-1.1-6.65,4.5,4.5,0,0,1,6.41-1.14L888.41,390a4.88,4.88,0,0,1,1.1,6.65,4.52,4.52,0,0,1-3.76,2"/></clipPath><clipPath id="clip-path-17"><polyline id="SVGID-17" data-name="SVGID" class="cls-2" points="972.44 612.63 993.98 599.72 993.98 542.17 972.44 555.09 972.44 612.63"/></clipPath><clipPath id="clip-path-18"><polyline id="SVGID-18" data-name="SVGID" class="cls-3" points="1005.7 592.69 1027.23 579.78 1027.23 509.88 1005.7 522.79 1005.7 592.69"/></clipPath><clipPath id="clip-path-19"><polyline id="SVGID-19" data-name="SVGID" class="cls-4" points="1038.95 572.75 1060.49 559.83 1060.49 467.14 1038.95 480.05 1038.95 572.75"/></clipPath><clipPath id="clip-path-20"><polyline id="SVGID-20" data-name="SVGID" class="cls-5" points="1072.21 552.8 1093.75 539.89 1093.75 411.73 1072.21 424.64 1072.21 552.8"/></clipPath><clipPath id="clip-path-21"><polyline id="SVGID-21" data-name="SVGID" class="cls-6" points="1105.47 532.86 1127.01 519.95 1127.01 334.56 1105.47 347.48 1105.47 532.86"/></clipPath><clipPath id="clip-path-22"><path id="SVGID-22" data-name="SVGID" class="cls-7" d="M1133.73,285.55c-6-14.62-9.57-39.35-10.57-59.64-9.07,22.17-22.69,50.12-34.9,68.15L1105,282.71a637.09,637.09,0,0,1-54.88,138.49c-25.81,47.41-53.38,81.52-77.63,96.07V538.2c28-16.77,59.12-54.93,87.7-107.42,25.21-46.32,46.66-100.9,59.5-151.21l14.09,6"/></clipPath></defs><title>Guaranteed Rent</title><path class="cls-8" d="M1280-3V627c-133.19,82.52-267.27-135.19-588-112C458.05,531.91,412.88,656.17,100,687c-34.54,3.4-68,6.7-100,8.92V-3Z"/><circle class="cls-9" cx="1082.5" cy="384.5" r="293.5"/><g class="cls-10"><rect class="cls-11" x="845.85" y="151.81" width="367.38" height="529.39"/></g><g class="cls-12"><rect class="cls-13" x="850.45" y="165.98" width="153.75" height="508.02"/></g><g class="cls-14"><rect class="cls-15" x="841.25" y="147.03" width="376.57" height="538.93"/></g><g class="cls-16"><rect class="cls-17" x="880.01" y="176.91" width="333.22" height="504.28"/></g><g class="cls-18"><rect class="cls-19" x="1039.4" y="178.01" width="171.2" height="63.16"/></g><g class="cls-20"><rect class="cls-21" x="1021.88" y="176.91" width="20.74" height="21.66"/></g><g class="cls-22"><rect class="cls-19" x="1024.33" y="177.16" width="19.58" height="21.55"/></g><g class="cls-23"><rect class="cls-19" x="1155.39" y="239.25" width="25.36" height="291.4"/></g><g class="cls-24"><rect class="cls-19" x="883.11" y="186.77" width="172.82" height="492.03"/></g><g class="cls-25"><rect class="cls-21" x="1032.6" y="174.52" width="17.84" height="15.11"/></g><g class="cls-26"><rect class="cls-19" x="1032.42" y="177.04" width="18.47" height="12.9"/></g><g class="cls-27"><rect class="cls-28" x="1025.62" y="177.29" width="33.73" height="23.35"/></g><g class="cls-29"><rect class="cls-30" x="1201.74" y="218.38" width="14.59" height="13.95"/></g><g class="cls-31"><rect class="cls-19" x="1200.55" y="220.24" width="12.68" height="12.81"/></g><g class="cls-32"><rect class="cls-15" x="875.42" y="172.13" width="342.41" height="513.83"/></g><g class="cls-33"><rect class="cls-15" x="841.25" y="358.04" width="54.85" height="46.58"/></g><polyline id="SVGID-23" data-name="SVGID" class="cls-34" points="972.44 612.63 993.98 599.72 993.98 542.17 972.44 555.09 972.44 612.63"/><g class="cls-35"><rect class="cls-36" x="966.7" y="536.2" width="33.03" height="82.4"/></g><polyline id="SVGID-24" data-name="SVGID" class="cls-37" points="1005.7 592.69 1027.23 579.78 1027.23 509.88 1005.7 522.79 1005.7 592.69"/><g class="cls-38"><rect class="cls-39" x="999.95" y="503.91" width="33.03" height="94.75"/></g><polyline id="SVGID-25" data-name="SVGID" class="cls-40" points="1038.95 572.75 1060.49 559.83 1060.49 467.14 1038.95 480.05 1038.95 572.75"/><g class="cls-41"><rect class="cls-42" x="1033.21" y="461.17" width="33.03" height="117.54"/></g><polyline id="SVGID-26" data-name="SVGID" class="cls-43" points="1072.21 552.8 1093.75 539.89 1093.75 411.73 1072.21 424.64 1072.21 552.8"/><g class="cls-44"><rect class="cls-45" x="1066.47" y="405.76" width="33.03" height="153.01"/></g><polyline id="SVGID-27" data-name="SVGID" class="cls-46" points="1105.47 532.86 1127.01 519.95 1127.01 334.56 1105.47 347.48 1105.47 532.86"/><g class="cls-47"><rect class="cls-48" x="1099.72" y="328.59" width="33.03" height="210.24"/></g><path id="SVGID-28" data-name="SVGID" class="cls-49" d="M1133.73,285.55c-6-14.62-9.57-39.35-10.57-59.64-9.07,22.17-22.69,50.12-34.9,68.15L1105,282.71a637.09,637.09,0,0,1-54.88,138.49c-25.81,47.41-53.38,81.52-77.63,96.07V538.2c28-16.77,59.12-54.93,87.7-107.42,25.21-46.32,46.66-100.9,59.5-151.21l14.09,6"/><g class="cls-50"><rect class="cls-51" x="966.7" y="219.94" width="172.78" height="324.22"/></g></svg>