<svg id="Layer_1" data-name="Layer 1" xmlns="http://www.w3.org/2000/svg" xmlns:xlink="http://www.w3.org/1999/xlink" viewBox="0 0 1280 720"><defs><style>.cls-1{fill:url(#linear-gradient);}.cls-2{fill:#81b652;}.cls-3{fill:none;}.cls-4{fill:#86bd56;}.cls-10,.cls-11,.cls-12,.cls-13,.cls-14,.cls-15,.cls-16,.cls-17,.cls-18,.cls-19,.cls-20,.cls-21,.cls-22,.cls-23,.cls-24,.cls-25,.cls-26,.cls-27,.cls-28,.cls-29,.cls-30,.cls-31,.cls-32,.cls-33,.cls-34,.cls-35,.cls-36,.cls-37,.cls-38,.cls-39,.cls-4,.cls-40,.cls-41,.cls-42,.cls-43,.cls-44,.cls-45,.cls-46,.cls-47,.cls-48,.cls-49,.cls-5,.cls-50,.cls-6,.cls-7,.cls-8,.cls-9{fill-rule:evenodd;}.cls-5{fill:#344753;}.cls-52,.cls-6{fill:#81b753;}.cls-7{fill:#638f3f;}.cls-8{fill:#6fa544;}.cls-9{fill:#e7827a;}.cls-10{fill:#d57875;}.cls-11{fill:#fffffe;}.cls-12{fill:#575b61;}.cls-13{fill:#313d41;}.cls-14{fill:#2c3e4a;}.cls-15{fill:#1d2b35;}.cls-16{fill:#273740;}.cls-17{fill:#c27274;}.cls-18{fill:#343534;}.cls-19{fill:#694f3c;}.cls-20{fill:#f7ca91;}.cls-21{fill:#eaaa64;}.cls-22{fill:#df5c4b;}.cls-23{fill:#ffe386;}.cls-24{fill:#ca2b2e;}.cls-25{fill:#f3ba6f;}.cls-26{fill:#ea8d7d;}.cls-27{fill:#834736;}.cls-28{fill:#f2f1f0;}.cls-29{fill:#4d4e4c;}.cls-30{fill:#1a1919;}.cls-31{fill:#e4e4e3;}.cls-32{fill:#b53735;}.cls-33{fill:#de4c3f;}.cls-34{fill:#f6c27c;}.cls-35{fill:#cbcccb;}.cls-36{fill:#8a8b8a;}.cls-37{fill:#4f7b8a;}.cls-38{fill:#70909b;}.cls-39{fill:#c49d67;}.cls-40{fill:#7e4e38;}.cls-41{fill:#4d3a2c;}.cls-42{fill:#5d4635;}.cls-43{fill:#ec9967;}.cls-44{fill:#051a21;}.cls-45{fill:#786048;}.cls-46{fill:#e4725a;}.cls-47{fill:#4b6a73;}.cls-48{fill:#0e1f2d;}.cls-49{fill:#708494;}.cls-50{fill:#153045;}.cls-51{fill:#14a84e;}.cls-53{fill:#af6a3d;}.cls-54{fill:#f64d54;}.cls-55{fill:#f0b573;}.cls-56{fill:#3da5d9;}.cls-57{fill:#fff;}.cls-58{fill:url(#linear-gradient-2);}</style><linearGradient id="linear-gradient" x1="283.84" y1="462.17" x2="1027" y2="51.74" gradientUnits="userSpaceOnUse"><stop offset="0" stop-color="#0376e4"/><stop offset="0.93" stop-color="#4ca7fd"/></linearGradient><linearGradient id="linear-gradient-2" x1="1149" y1="3" x2="1411" y2="3" gradientUnits="userSpaceOnUse"><stop offset="0" stop-color="#f2f2f2"/><stop offset="0.37" stop-color="#f8d9b9"/><stop offset="0.92" stop-color="#f8dabb"/></linearGradient></defs><title>Home</title><path class="cls-1" d="M1280,530.94V0H0V650.9C52.78,661,105.67,609.73,264,613c44.33.91,72.32,5.6,111.87,14.18C430.07,531.42,982.39,570.47,1280,530.94Z"/><path class="cls-2" d="M819,704c100.52,10.55,256.46,13.93,461-33.09v-140c-297.61,39.53-849.93.48-904.13,96.24C416.42,636,469.11,648.87,564,666,670.39,685.2,769.08,698.76,819,704Z"/><path class="cls-3" d="M819,704c100.52,10.55,256.46,13.93,461-33.09v-140c-297.61,39.53-849.93.48-904.13,96.24C416.42,636,469.11,648.87,564,666,670.39,685.2,769.08,698.76,819,704Z"/><g id="family-outside-home"><path id="Fill-2" class="cls-4" d="M553,647h635.36c13.42,0,25.28-9.44,27.57-22.67A27.57,27.57,0,0,0,1188.84,592h-635c-13.43,0-25.28,9.44-27.57,22.67A27.57,27.57,0,0,0,553.33,647"/><polyline id="Fill-3" class="cls-5" points="1110.35 602.11 1105.18 602.36 1100.01 602.13 1102.84 482 1107.51 482 1110.35 602.11"/><path id="Fill-4" class="cls-6" d="M1057,459.07a48.21,48.21,0,1,0,96.41,0c0-26.62-21.58-93.55-48.2-93.55S1057,432.45,1057,459.07"/><path id="Fill-5" class="cls-7" d="M1056.79,459.07A48.21,48.21,0,0,0,1105,507.28V365.52c-26.62,0-48.21,66.93-48.21,93.55"/><polyline id="Fill-6" class="cls-5" points="1195.28 602.11 1190.11 602.36 1184.94 602.13 1187.77 482 1192.44 482 1195.28 602.11"/><path id="Fill-7" class="cls-6" d="M1141.9,459.07a48.21,48.21,0,1,0,96.41,0c0-26.62-21.58-93.55-48.2-93.55s-48.21,66.93-48.21,93.55"/><path id="Fill-8" class="cls-7" d="M1141.79,459.07A48.21,48.21,0,0,0,1190,507.28V365.52c-26.62,0-48.21,66.93-48.21,93.55"/><path id="Fill-9" class="cls-8" d="M569,646h604c7.14,0,14.75-5.57,16.54-12.48A17,17,0,0,0,1173.35,612H569.2c-7.14,0-14.75,5.57-16.54,12.48A17,17,0,0,0,568.82,646"/><polyline id="Fill-10" class="cls-9" points="654 396 1075 396 1075 280.38 654 304.4 654 396"/><polygon id="Fill-11" class="cls-10" points="851 397 655 397 655 292 851 292 851 397"/><polygon id="Fill-12" class="cls-11" points="817 397 812 397 812 331 817 331 817 397"/><polygon id="Fill-13" class="cls-11" points="780 397 775 397 775 331 780 331 780 397"/><polygon id="Fill-14" class="cls-11" points="816 336 775 336 775 331 816 331 816 336"/><polygon id="Fill-15" class="cls-11" points="781 397 776 397 776 331 781 331 781 397"/><polygon id="Fill-16" class="cls-11" points="745 397 740 397 740 331 745 331 745 397"/><polygon id="Fill-17" class="cls-11" points="781 336 740 336 740 331 781 331 781 336"/><polygon id="Fill-18" class="cls-12" points="811 397 780 397 780 336 811 336 811 397"/><polyline id="Fill-19" class="cls-13" points="812 335.9 781.12 396 812 396 812 336"/><polygon id="Fill-20" class="cls-12" points="775 397 744 397 744 336 775 336 775 397"/><polyline id="Fill-21" class="cls-13" points="775 335.9 744.12 396 775 396 775 336"/><polygon id="Fill-22" class="cls-9" points="1076 596 609 596 609 396 1076 396 1076 596"/><polygon id="Fill-23" class="cls-14" points="1076 602 902 602 902 396 1076 396 1076 602"/><polygon id="Fill-24" class="cls-15" points="1082 416 598 416 598 396 1082 396 1082 416"/><polygon id="Fill-25" class="cls-11" points="903 596 801 596 801 448 903 448 903 596"/><polygon id="Fill-26" class="cls-12" points="897 596 807 596 807 454 897 454 897 596"/><polygon id="Fill-27" class="cls-11" points="807 596 705 596 705 448 807 448 807 596"/><polygon id="Fill-28" class="cls-12" points="801 596 711 596 711 454 801 454 801 596"/><polygon id="Fill-29" class="cls-11" points="711 596 609 596 609 448 711 448 711 596"/><polygon id="Fill-30" class="cls-12" points="705 596 615 596 615 454 705 454 705 596"/><polyline id="Fill-31" class="cls-13" points="705 453.52 614.6 496.27 705 503.24 614.76 551 705 551 614.6 596 705 596 705 454"/><polyline id="Fill-32" class="cls-13" points="897 453.52 806.6 496.27 897 503.24 806.76 551 897 551 806.6 596 897 596 897 454"/><polygon id="Fill-33" class="cls-11" points="707 503 613 503 613 496 707 496 707 503"/><polygon id="Fill-34" class="cls-11" points="707 558 613 558 613 551 707 551 707 558"/><polygon id="Fill-35" class="cls-11" points="899 503 805 503 805 496 899 496 899 503"/><polygon id="Fill-36" class="cls-11" points="899 558 805 558 805 551 899 551 899 558"/><polygon id="Fill-37" class="cls-11" points="902 603 609 603 609 596 902 596 902 603"/><polygon id="Fill-38" class="cls-11" points="764 491 747 491 747 449 764 449 764 491"/><polygon id="Fill-39" class="cls-11" points="756 596 755 596 755 492 756 492 756 596"/><polygon id="Fill-40" class="cls-10" points="902 435 609 435 609 416 902 416 902 435"/><polygon id="Fill-41" class="cls-16" points="1076 435 902 435 902 416 1076 416 1076 435"/><polygon id="Fill-42" class="cls-16" points="1076 450 902 450 902 447 1076 447 1076 450"/><polygon id="Fill-43" class="cls-5" points="1076 447 902 447 902 440 1076 440 1076 447"/><polygon id="Fill-44" class="cls-16" points="1076 468 902 468 902 465 1076 465 1076 468"/><polygon id="Fill-45" class="cls-5" points="1076 465 902 465 902 458 1076 458 1076 465"/><polygon id="Fill-46" class="cls-16" points="1076 485 902 485 902 482 1076 482 1076 485"/><polygon id="Fill-47" class="cls-5" points="1076 482 902 482 902 475 1076 475 1076 482"/><polygon id="Fill-48" class="cls-11" points="1032 398 1026 398 1026 319 1032 319 1032 398"/><polygon id="Fill-49" class="cls-11" points="989 398 983 398 983 319 989 319 989 398"/><polygon id="Fill-50" class="cls-11" points="1032 324 983 324 983 318 1032 318 1032 324"/><polygon id="Fill-51" class="cls-11" points="989 398 983 398 983 319 989 319 989 398"/><polygon id="Fill-52" class="cls-11" points="946 398 940 398 940 319 946 319 946 398"/><polygon id="Fill-53" class="cls-11" points="989 324 940 324 940 318 989 318 989 324"/><polygon id="Fill-54" class="cls-12" points="1026 397 989 397 989 324 1026 324 1026 397"/><polyline id="Fill-55" class="cls-13" points="1026 324.32 989.18 396 1026 396 1026 324"/><polygon id="Fill-56" class="cls-12" points="983 397 946 397 946 324 983 324 983 397"/><polyline id="Fill-57" class="cls-13" points="983 324.32 946.18 396 983 396 983 324"/><polygon id="Fill-58" class="cls-16" points="1076 503 902 503 902 500 1076 500 1076 503"/><polygon id="Fill-59" class="cls-5" points="1076 500 902 500 902 493 1076 493 1076 500"/><polygon id="Fill-60" class="cls-16" points="1076 521 902 521 902 518 1076 518 1076 521"/><polygon id="Fill-61" class="cls-5" points="1076 518 902 518 902 511 1076 511 1076 518"/><polygon id="Fill-62" class="cls-16" points="1076 539 902 539 902 536 1076 536 1076 539"/><polygon id="Fill-63" class="cls-5" points="1076 536 902 536 902 529 1076 529 1076 536"/><polygon id="Fill-64" class="cls-16" points="1076 557 902 557 902 554 1076 554 1076 557"/><polygon id="Fill-65" class="cls-5" points="1076 554 902 554 902 547 1076 547 1076 554"/><polygon id="Fill-66" class="cls-16" points="1076 575 902 575 902 572 1076 572 1076 575"/><polygon id="Fill-67" class="cls-5" points="1076 572 902 572 902 565 1076 565 1076 572"/><polygon id="Fill-68" class="cls-16" points="1076 591 902 591 902 588 1076 588 1076 591"/><polygon id="Fill-69" class="cls-5" points="1076 588 902 588 902 581 1076 581 1076 588"/><polygon id="Fill-70" class="cls-5" points="1087 404 592 404 592 396 1087 396 1087 404"/><polyline id="Fill-71" class="cls-10" points="1076 282 1076 292.38 851 306.52 850.86 294.87 1076 281.73"/><polyline id="Fill-72" class="cls-17" points="851 300 850.91 294.87 655 305.73 655 311.55 851 300.46"/><polygon id="Fill-73" class="cls-17" points="851 396 847 396 847 295 851 295 851 396"/><polyline id="Fill-74" class="cls-15" points="645 306.54 1082 281.71 1082 269.04 645 293.87 645 307"/><polyline id="Fill-75" class="cls-5" points="640 300.44 1088 272.8 1088 260.14 640 287.79 640 300"/><polygon id="Fill-76" class="cls-14" points="701 396 620 396 620 324 701 324 701 396"/><polygon id="Fill-77" class="cls-16" points="701 334 620 334 620 333 701 333 701 334"/><polygon id="Fill-78" class="cls-5" points="701 332 620 332 620 329 701 329 701 332"/><polygon id="Fill-79" class="cls-16" points="701 342 620 342 620 341 701 341 701 342"/><polygon id="Fill-80" class="cls-5" points="701 340 620 340 620 337 701 337 701 340"/><polygon id="Fill-81" class="cls-16" points="701 350 620 350 620 349 701 349 701 350"/><polygon id="Fill-82" class="cls-5" points="701 349 620 349 620 346 701 346 701 349"/><polygon id="Fill-83" class="cls-16" points="701 359 620 359 620 358 701 358 701 359"/><polygon id="Fill-84" class="cls-5" points="701 357 620 357 620 354 701 354 701 357"/><polygon id="Fill-85" class="cls-16" points="701 367 620 367 620 366 701 366 701 367"/><polygon id="Fill-86" class="cls-5" points="701 366 620 366 620 363 701 363 701 366"/><polygon id="Fill-87" class="cls-16" points="701 375 620 375 620 374 701 374 701 375"/><polygon id="Fill-88" class="cls-5" points="701 374 620 374 620 371 701 371 701 374"/><polygon id="Fill-89" class="cls-16" points="701 384 620 384 620 383 701 383 701 384"/><polygon id="Fill-90" class="cls-5" points="701 382 620 382 620 379 701 379 701 382"/><polygon id="Fill-91" class="cls-16" points="701 391 620 391 620 390 701 390 701 391"/><polygon id="Fill-92" class="cls-5" points="701 390 620 390 620 387 701 387 701 390"/><path id="Fill-93" class="cls-11" d="M969.89,250a30.72,30.72,0,0,0-61.44,0H970"/><path id="Fill-94" class="cls-11" d="M923,250a18.62,18.62,0,0,0-37.24,0H923"/><path id="Fill-95" class="cls-11" d="M890.9,250a7.64,7.64,0,0,0-15.28,0H891"/><path id="Fill-96" class="cls-11" d="M982.61,250a10,10,0,1,0-20.08,0H983"/><path id="Fill-97" class="cls-11" d="M1219.87,311a36.33,36.33,0,0,0-72.66,0H1220"/><path id="Fill-98" class="cls-11" d="M1164.38,311a22,22,0,0,0-44.05,0H1164"/><path id="Fill-99" class="cls-11" d="M1126.45,311a9,9,0,1,0-18.08,0H1126"/><path id="Fill-100" class="cls-11" d="M1234.91,311a11.87,11.87,0,0,0-23.74,0H1235"/><path id="Fill-101" class="cls-8" d="M556.43,601.11c0,2.25,6.71,4.07,15,4.07s15-1.82,15-4.07-6.72-4.08-15-4.08-15,1.83-15,4.08"/><polyline id="Fill-102" class="cls-5" points="576.6 602.11 571.43 602.36 566.26 602.13 569.1 482 573.76 482 576.6 602.11"/><path id="Fill-103" class="cls-6" d="M523.22,459.07a48.21,48.21,0,1,0,48.21-48.2,48.21,48.21,0,0,0-48.21,48.2"/><path id="Fill-104" class="cls-7" d="M522.79,459.07A48.21,48.21,0,0,0,571,507.28V410.87a48.21,48.21,0,0,0-48.21,48.2"/><path id="Fill-105" class="cls-8" d="M542.42,605.89c0,2.26,6.71,4.08,15,4.08s15-1.82,15-4.08-6.72-4.07-15-4.07-15,1.82-15,4.07"/><path id="Fill-106" class="cls-6" d="M542.75,592a14.67,14.67,0,0,0,29.34,0c0-8.1-6.57-27.15-14.67-27.15s-14.67,19-14.67,27.15"/><path id="Fill-107" class="cls-7" d="M542.33,592A14.67,14.67,0,0,0,557,606.66V564.84c-8.1,0-14.67,19-14.67,27.15"/><path id="Fill-108" class="cls-8" d="M663.07,605.89c0,2.26,6.72,4.08,15,4.08s15-1.82,15-4.08-6.71-4.07-15-4.07-15,1.82-15,4.07"/><path id="Fill-109" class="cls-6" d="M663.4,592a14.67,14.67,0,1,0,29.34,0c0-8.1-6.56-27.15-14.67-27.15s-14.67,19-14.67,27.15"/><path id="Fill-110" class="cls-7" d="M663.32,592A14.68,14.68,0,0,0,678,606.66V564.84c-8.1,0-14.68,19-14.68,27.15"/><path id="Fill-111" class="cls-8" d="M812.65,605.89c0,2.26,6.72,4.08,15,4.08s15-1.82,15-4.08-6.71-4.07-15-4.07-15,1.82-15,4.07"/><path id="Fill-112" class="cls-6" d="M813,592a14.68,14.68,0,0,0,29.35,0c0-8.1-6.57-27.15-14.68-27.15S813,583.89,813,592"/><path id="Fill-113" class="cls-7" d="M813.33,592A14.67,14.67,0,0,0,828,606.66V564.84c-8.1,0-14.67,19-14.67,27.15"/><path id="Fill-114" class="cls-8" d="M572.16,606.69c0,1.81,5.39,3.28,12.05,3.28s12-1.47,12-3.28-5.39-3.27-12-3.27-12.05,1.47-12.05,3.27"/><path id="Fill-115" class="cls-6" d="M572.42,595.52a11.79,11.79,0,1,0,23.58,0c0-6.51-5.28-21.81-11.79-21.81s-11.79,15.3-11.79,21.81"/><path id="Fill-116" class="cls-7" d="M572.21,595.52A11.79,11.79,0,0,0,584,607.31v-33.6c-6.51,0-11.79,15.3-11.79,21.81"/><path id="Fill-117" class="cls-18" d="M846,713h162.21a93,93,0,0,0-9-35.67q-1.46-3-3.11-5.9a87.06,87.06,0,0,0-9.89-13.89c-.93-1.08-1.89-2.12-2.87-3.15l-.23-.23q-2.22-2.28-4.57-4.37a80.1,80.1,0,0,0-22.05-14l-.15-.06a76.11,76.11,0,0,0-53.33-2.07l-.13,0c-1.75.58-3.48,1.23-5.18,1.93l-.14.06a78.28,78.28,0,0,0-12.23,6.43,82.19,82.19,0,0,0-8.8,6.54h0l0,0-.7.62c-1.8,1.56-3.54,3.21-5.2,4.94-.45.47-.91.94-1.35,1.43q-1.6,1.74-3.11,3.57a87.21,87.21,0,0,0-9.89,14.83c-1.12,2.1-2.15,4.24-3.1,6.44A92.94,92.94,0,0,0,845.7,713"/><path id="Fill-118" class="cls-19" d="M884.25,593.11a13.54,13.54,0,1,0-7-17.84A13.55,13.55,0,0,0,884.25,593.11Zm11.81-26.93a15.86,15.86,0,1,1-20.9,8.16,15.86,15.86,0,0,1,20.9-8.16Z"/><path id="Fill-119" class="cls-19" d="M976.4,565A13.54,13.54,0,0,0,989,588.27c.37.7.77,1.39,1.2,2.06a15.86,15.86,0,0,1-15.69-26.7l1.9,1.41"/><path id="Fill-120" class="cls-19" d="M865.22,577.77a13.48,13.48,0,0,0,14.18-12.58c.8-.08,1.58-.2,2.35-.35a15.85,15.85,0,0,1-17.06,15.23c.18-.77.35-1.53.53-2.3"/><polyline id="Fill-121" class="cls-20" points="906 684.77 927.54 712.22 949 684.77 949 595 906 595 906 685"/><path id="Fill-122" class="cls-21" d="M906,620.55s15,4.62,20.09,4.62c5.68,0,22.91-4.62,22.91-4.62V552H906v69"/><path id="Fill-123" class="cls-22" d="M885,558h7.4c2.42,0,4.38-1.34,4.38-3s-2-3-4.38-3H885c-2.42,0-4.38,1.34-4.38,3s2,3,4.38,3"/><path id="Fill-124" class="cls-20" d="M886,573.28c0,1.44.06,2.86.19,4.26,1.41,16.15,10.75,29.86,23.85,36.7a40.85,40.85,0,0,0,38.18-.13c13.1-7,22.39-20.81,23.64-37.07.09-1.24.14-2.49.14-3.76V521.62a49.57,49.57,0,0,0-.46-6.72c-3.07-22-20.94-38.9-42.53-38.9h0c-21.59,0-39.47,16.89-42.54,38.9a49.57,49.57,0,0,0-.46,6.72Z"/><path id="Fill-125" class="cls-22" d="M934.69,566a6,6,0,0,1-12,0H935"/><path id="Fill-126" class="cls-23" d="M860.09,509.12c8-11.18,9.38-11.18,9.38-11.18s1.19-19.35,7.85-27.34,19.79-21.63,38-19.68a37.6,37.6,0,0,1,13.14,4,37.72,37.72,0,0,1,13.15-4c18.17-1.95,31.31,11.69,38,19.68s7.85,27.34,7.85,27.34,1.35,0,9.38,11.18a39.85,39.85,0,0,1,7.42,23.07c-1.26,39.56-33.14,44.28-33.14,44.28l.46-23.88L971,526.73V526a10.07,10.07,0,0,0-9.81-10.07l-.72,0c-10.44-.29-17.7-2-32-8.89-14.34,6.87-21.59,8.6-32,8.89l-.71,0A10.07,10.07,0,0,0,885.87,526l-.53,26.59.47,23.88s-31.88-4.72-33.14-44.28a39.85,39.85,0,0,1,7.42-23.07"/><path id="Fill-127" class="cls-24" d="M935.81,589l-.06.26a7.28,7.28,0,0,1-14.19-.26H936"/><path id="Fill-128" class="cls-25" d="M971,540l.19,21.61c7.34-.07,13.25-5,13.19-10.9S978.34,540,971,540"/><path id="Fill-129" class="cls-22" d="M971,552l4,0c2.43,0,4.42,1.31,4.43,3s-1.95,3-4.38,3.06l-4,0,0-6"/><path id="Fill-130" class="cls-25" d="M886,540l-.19,21.61c-7.34-.07-13.25-5-13.19-10.9S878.66,540,886,540"/><path id="Fill-131" class="cls-22" d="M886,552l-4,0c-2.43,0-4.42,1.31-4.43,3s1.95,3,4.38,3.06l4,0,0-6"/><path id="Fill-132" class="cls-26" d="M909,561h-7.42c-2.29,0-4.15-1.57-4.15-3.5s1.86-3.5,4.15-3.5h7c2.29,0,4.15,1.57,4.15,3.5s-1.86,3.5-4.15,3.5"/><path id="Fill-133" class="cls-23" d="M898.56,532.79l14.38-3.63c2.34-.59,3.95-2.21,3.59-3.63s-2.54-2.09-4.88-1.5l-14.39,3.62c-2.33.59-3.94,2.22-3.59,3.63s2.55,2.09,4.89,1.51"/><path id="Fill-134" class="cls-27" d="M912.26,546.67a3.56,3.56,0,1,1-3.56-3.56,3.56,3.56,0,0,1,3.56,3.56"/><path id="Fill-135" class="cls-27" d="M898,546h11.33a2,2,0,0,0,2-1.35,2,2,0,0,0-1.89-2.65H898a2,2,0,0,0-2,1.35,2,2,0,0,0,1.89,2.65"/><path id="Fill-136" class="cls-26" d="M956,561h-7.53c-2.29,0-4.15-1.57-4.15-3.5s1.86-3.5,4.15-3.5h7.06c2.28,0,4.14,1.57,4.14,3.5s-1.86,3.5-4.14,3.5"/><path id="Fill-137" class="cls-23" d="M947.14,529.93,961.41,534c2.32.66,4.52,0,4.92-1.35s-1.15-3.09-3.47-3.74l-14.27-4.06c-2.32-.66-4.53-.05-4.93,1.35s1.16,3.09,3.48,3.75"/><path id="Fill-138" class="cls-27" d="M944.84,546.67a3.56,3.56,0,1,0,3.56-3.56,3.56,3.56,0,0,0-3.56,3.56"/><path id="Fill-139" class="cls-27" d="M948,546h11.08a2.06,2.06,0,0,0,2-1.35,2,2,0,0,0-1.9-2.65H947.77a2,2,0,0,0-2,1.35,2,2,0,0,0,1.9,2.65"/><path id="Fill-140" class="cls-28" d="M978.85,571a3.57,3.57,0,1,1-3.56-3.56,3.57,3.57,0,0,1,3.56,3.56"/><path id="Fill-141" class="cls-28" d="M885.31,571a3.56,3.56,0,1,1-3.56-3.56,3.56,3.56,0,0,1,3.56,3.56"/><path id="Fill-142" class="cls-28" d="M975,569.54a1,1,0,0,0,1-1v-9.82a1,1,0,0,0-2,0v9.82a1,1,0,0,0,1,1"/><path id="Fill-143" class="cls-28" d="M882,569.54a1,1,0,0,0,1-1v-9.82a1,1,0,0,0-2,0v9.82a1,1,0,0,0,1,1"/><path id="Fill-144" class="cls-29" d="M996,671v42h3V677.33q-1.39-3-3-5.9"/><path id="Fill-145" class="cls-29" d="M983,654v59h3V657.54c-.9-1.08-1.83-2.12-2.78-3.15l-.22-.23"/><polygon id="Fill-146" class="cls-29" points="973 713 970 713 970 652 973 652 973 713"/><polygon id="Fill-147" class="cls-29" points="960 713 957 713 957 652 960 652 960 713"/><polygon id="Fill-148" class="cls-29" points="947 713 944 713 944 652 947 652 947 713"/><polyline id="Fill-149" class="cls-29" points="936.49 649.95 930.89 713 934 713 934 651.64 936.49 649.95"/><polygon id="Fill-150" class="cls-29" points="921 713 918 713 918 652 921 652 921 713"/><polygon id="Fill-151" class="cls-29" points="908 713 905 713 905 652 908 652 908 713"/><polygon id="Fill-152" class="cls-29" points="895 713 892 713 892 652 895 652 895 713"/><polygon id="Fill-153" class="cls-29" points="882 713 879 713 879 652 882 652 882 713"/><path id="Fill-154" class="cls-29" d="M866,659v54h3V655.73c-1,1.16-2,2.35-3,3.57"/><path id="Fill-155" class="cls-29" d="M853,681v32h3V674.13c-1.08,2.1-2.08,4.24-3,6.44"/><path id="Fill-156" class="cls-30" d="M926.89,713.08,927,713h0l.06,0,.25-.17.14-.1,45.17-31-9-15.93L983.3,654.2c-1.54-1.57-3.15-3.08-4.8-4.52a80,80,0,0,0-22.19-13.74h0l-26.86,70.29-2.38,6.37,0,.08v0l0,0h0l-.07.19,0,.13"/><path id="Fill-157" class="cls-29" d="M927.19,712.32l0,0,1.34-1.07,38.67-31-6.33-15.49,19-13.2-1.36-2.3a80.4,80.4,0,0,0-22.05-13.69l-29.32,76.74,0,0"/><path id="Fill-158" class="cls-30" d="M890.39,665.74l-9,15.93,45.17,31,.14.1.24.17.07,0h0l.11.08,0-.13-.07-.19h0v0l0,0,0-.08-2.38-6.37-26.89-70.38h0a77.81,77.81,0,0,0-12.38,6.37,78.66,78.66,0,0,0-8.79,6.41h0l0,0-.71.6c-1.8,1.54-3.54,3.15-5.2,4.85l19.84,11.63"/><path id="Fill-159" class="cls-29" d="M893.23,664.73l-6.32,15.49,38.67,31,1.34,1.07,0,0,0,0L897.6,635.46a78.48,78.48,0,0,0-12.23,6.3,82.39,82.39,0,0,0-8.8,6.41h0l0,0-.7.61-1.61,2.72,19,13.2"/><polyline id="Fill-160" class="cls-31" points="922 700 922 648.75 905.48 625.27 897.52 635.46 922 699.77"/><polyline id="Fill-161" class="cls-31" points="932 700 932 648.75 948.52 625.27 956.48 635.46 932 699.77"/><polyline id="Fill-162" class="cls-32" points="868 707 891.5 707 868 690.76 868 707"/><polyline id="Fill-163" class="cls-33" points="894 707 867.85 707 894 688.93 894 707"/><path id="Fill-164" class="cls-18" d="M1066,713h202.24A97.84,97.84,0,0,0,1235,644.73a99.57,99.57,0,0,0-10.43-8.06,101.66,101.66,0,0,0-24.6-12.11c-1.05-.35-2.11-.68-3.17-1a102.85,102.85,0,0,0-29.45-4.27c-54,0-98.15,41.5-100.94,93.71"/><polygon id="Fill-165" class="cls-34" points="1196 673 1138 673 1138 580 1196 580 1196 673"/><polyline id="Fill-166" class="cls-35" points="1132.88 644 1148.95 713 1185.5 713 1201.54 644 1133 644"/><path id="Fill-167" class="cls-36" d="M1194.24,615l10.49,11.13-6.59,30.76s-4,2-12,2-8.8.34-12.8-4.72-5.25-7.09-5.25-7.09l26.15-32.1"/><path id="Fill-168" class="cls-36" d="M1140.16,614.8l-10.49,11.13,6.6,30.76s4,2,12,2,8.8.34,12.8-4.72,5.24-7.08,5.24-7.08l-26.15-32.11"/><polyline id="Fill-169" class="cls-37" points="1162.05 667 1156.12 644 1178.36 644 1172.43 667 1162 667"/><polyline id="Fill-170" class="cls-38" points="1162 667 1172.42 667 1182.07 713 1152.4 713 1162.05 667"/><path id="Fill-171" class="cls-21" d="M1138,621.52s20.26,5.63,27.1,5.63c7.66,0,30.9-5.63,30.9-5.63V538h-58v84"/><path id="Fill-172" class="cls-35" d="M1196.42,612.22l10.5,11.13-6.6,30.76s-4,2-12,2-8.8.34-12.8-4.72a86.61,86.61,0,0,1-5.24-7.09l26.14-32.1"/><path id="Fill-173" class="cls-30" d="M1186.54,706.05l-1.09,6.63v.09l-.07.41.55-.5,43.41-39.23L1215,660,1235,644.41a99.57,99.57,0,0,0-10.43-8.06q-3.69-2.49-7.59-4.64a99.06,99.06,0,0,0-16.36-7.24l-14,81.58"/><path id="Fill-174" class="cls-30" d="M1134.07,624.47a99.43,99.43,0,0,0-16.36,7.24q-3.9,2.14-7.59,4.64a99.57,99.57,0,0,0-10.43,8.06L1119.6,660l-14.29,13.47,43.41,39.23.55.5-.06-.41,0-.09-1.09-6.63-14-81.58"/><path id="Fill-175" class="cls-35" d="M1138.05,612.22l-10.49,11.13,6.59,30.76s4,2,12,2,8.8.34,12.81-4.72a86.61,86.61,0,0,0,5.24-7.09l-26.15-32.1"/><polyline id="Fill-176" class="cls-29" points="1201.7 617.88 1229.79 643.37 1211.56 660.03 1222.68 673.62 1185.37 712.84 1201.7 617.88"/><polyline id="Fill-177" class="cls-29" points="1132.75 617.88 1104.66 643.37 1122.89 660.03 1111.77 673.62 1149.08 712.84 1132.75 617.88"/><path id="Fill-178" class="cls-29" d="M1219,693h24.48a3,3,0,1,0,0-6h-24.89a3,3,0,1,0-.05,6"/><path id="Fill-179" class="cls-25" d="M1220,529v24.78c8.56,0,15.5-5.63,15.5-12.58s-6.94-12.58-15.5-12.58"/><path id="Fill-180" class="cls-25" d="M1114,529v24.78c-8.56,0-15.5-5.63-15.5-12.58s6.94-12.58,15.5-12.58"/><path id="Fill-181" class="cls-22" d="M1109,549h8.94c2.82,0,5.11-1.57,5.11-3.5s-2.29-3.5-5.11-3.5h-8.7c-2.82,0-5.11,1.57-5.11,3.5s2.29,3.5,5.11,3.5"/><path id="Fill-182" class="cls-22" d="M1216,549h8.81c2.82,0,5.11-1.57,5.11-3.5s-2.29-3.5-5.11-3.5h-8.7c-2.82,0-5.11,1.57-5.11,3.5s2.29,3.5,5.11,3.5"/><path id="Fill-183" class="cls-34" d="M1114,567.84A53.16,53.16,0,0,0,1167.16,621h0a53.07,53.07,0,0,0,52.17-44.73,53.81,53.81,0,0,0,.67-8.48V507.54c0-29.38-13-56.54-42.31-56.54h0c-29.27,0-63.68,27.17-63.68,56.55Z"/><path id="Fill-184" class="cls-39" d="M1114.82,576.26a20.91,20.91,0,0,0,13.77,5.55c8.73.24,16.43-6.87,16.43-6.81h44.56c0-.06,7.7,7,16.43,6.81a21,21,0,0,0,13.78-5.55c-4,25.27-26.23,44.59-52.79,44.72h1c-27.31-.13-49.14-19.45-53.18-44.72"/><path id="Fill-185" class="cls-19" d="M1145.19,575h0c0-6.08,3.18-11,7.11-11h30.23c3.93,0,7.11,4.92,7.11,11H1145"/><path id="Fill-186" class="cls-22" d="M1174.42,559a7,7,0,0,1-14,0H1174"/><path id="Fill-187" class="cls-40" d="M1164,595h7c2.34,0,4.24-.9,4.24-2s-1.9-2-4.24-2h-7.21c-2.34,0-4.24.9-4.24,2s1.9,2,4.24,2"/><path id="Fill-188" class="cls-40" d="M1177.91,580c0,.13-.05.26-.08.39a10.72,10.72,0,0,1-20.91-.39H1178"/><path id="Fill-189" class="cls-19" d="M1198.52,526l-17-3a5.09,5.09,0,1,1,1.76-10l17,3a5.1,5.1,0,0,1-1.76,10"/><path id="Fill-190" class="cls-21" d="M1114,508v29.3a17.3,17.3,0,0,0,2,1.64l.76,0s4-26.73,6-34.74c3.11-12.2,3.65-20.62,14.19-15.69,4.95,2.32,10.63,16.41,25.58,21.53,19.86,6.8,26.75-16.33,34-21.09a8.38,8.38,0,0,1,7.06-.89c5.66,1.55,9.68,6.84,10.27,13l3.6,37.9.65,0a17.3,17.3,0,0,0,2-1.64V507.54c0-29.38-13-56.54-42.31-56.54h0c-29.27,0-63.68,27.17-63.68,56.55"/><path id="Fill-191" class="cls-19" d="M1151.82,523l-17,3a5.09,5.09,0,1,1-1.77-10l17-3a5.09,5.09,0,0,1,1.78,10"/><polygon id="Fill-192" class="cls-21" points="1220 539 1210 539 1210 535 1220 535 1220 539"/><polygon id="Fill-193" class="cls-21" points="1123 539 1114 539 1114 535 1123 535 1123 539"/><path id="Fill-200" class="cls-41" d="M1105,493v-.7a40,40,0,0,1,1.16-10.33c.27-1.87.57-3.79.95-5.78,7.23-38.59,73.11-75.4,108.94-16.42a36.54,36.54,0,0,1,3.46,8c.56,2.09,1.34,4.25,2.33,5,2.14,1.66,7.16,5,7.16,19.49v26.27a18.58,18.58,0,0,1-8.16,15.38l-.63.43-3.86-38.31a14.82,14.82,0,0,0-10.83-13,9.27,9.27,0,0,0-7.45.89c-7.6,4.76-14.88,27.89-35.83,21.09-15.78-5.12-21.76-19.21-27-21.53-11.12-4.93-11.7,3.49-15,15.69-2.15,8-6.26,35.15-6.26,35.15l-.2-.25,0,.25-.64-.43a18.56,18.56,0,0,1-8.16-15.37V504.26a100.51,100.51,0,0,1,0-10.85"/><path id="Fill-201" class="cls-27" d="M1186.73,539.76a4.15,4.15,0,1,0,4.15-4.16,4.15,4.15,0,0,0-4.15,4.16"/><path id="Fill-202" class="cls-27" d="M1146.57,539.76a4.16,4.16,0,1,1-4.16-4.16,4.15,4.15,0,0,1,4.16,4.16"/><path id="Fill-203" class="cls-42" d="M1173.35,499.75h0c2.4,1.91,6.58.65,9.35-2.82l25-31.43c2.77-3.47,3.06-7.83.66-9.75s-6.58-.65-9.35,2.82L1174,490c-2.77,3.47-3.06,7.84-.66,9.75"/><path id="Fill-204" class="cls-33" d="M977,713h141.1c0-.51-.06-1-.1-1.52v-.05a67.66,67.66,0,0,0-5.53-22l-.08-.17c-.74-1.66-1.53-3.28-2.4-4.87a70.13,70.13,0,0,0-37-32.06c-1.35-.51-2.71-1-4.1-1.4a72.22,72.22,0,0,0-42.39,0c-1.38.43-2.75.9-4.1,1.41A70.39,70.39,0,0,0,988.8,679q-1.56,2.34-2.93,4.8l-.51.93A67.43,67.43,0,0,0,977.45,713"/><polyline id="Fill-205" class="cls-32" points="1051.6 677.07 1080.86 687.75 1083.16 677 1052 677.07"/><polyline id="Fill-206" class="cls-32" points="1044.76 677.07 1015.49 687.75 1013.19 677 1045 677.07"/><polygon id="Fill-207" class="cls-34" points="1069 678 1028 678 1028 620 1069 620 1069 678"/><path id="Fill-208" class="cls-21" d="M1028,649.19s14.32,3.92,19.16,3.92c5.41,0,21.84-3.92,21.84-3.92V591h-41v58"/><path id="Fill-209" class="cls-25" d="M1011,578v18c-6.23,0-11.28-4.1-11.28-9.16s5-9.15,11.28-9.15"/><path id="Fill-210" class="cls-22" d="M1007,593h6.55c2,0,3.65-1.12,3.65-2.5s-1.64-2.5-3.65-2.5h-6.21c-2,0-3.66,1.12-3.66,2.5s1.64,2.5,3.66,2.5"/><path id="Fill-211" class="cls-25" d="M1088,578v18c6.23,0,11.28-4.1,11.28-9.16s-5-9.15-11.28-9.15"/><path id="Fill-212" class="cls-22" d="M1085,593h6.34c2,0,3.65-1.12,3.65-2.5s-1.63-2.5-3.65-2.5h-6.21c-2,0-3.65,1.12-3.65,2.5s1.63,2.5,3.65,2.5"/><path id="Fill-213" class="cls-34" d="M1011,606.58c0,1.22.06,2.42.17,3.62a38.69,38.69,0,0,0,21.36,31.14,38,38,0,0,0,17,4,38.46,38.46,0,0,0,9-1.06,38,38,0,0,0,8.23-3,38.71,38.71,0,0,0,21.16-31.46c.09-1,.13-2.12.13-3.19V562.73c0-.79,0-1.57-.07-2.35-.06-1.13-.18-2.25-.35-3.36a38.57,38.57,0,0,0-38.07-33h0a38.58,38.58,0,0,0-38.08,33c-.16,1.11-.28,2.23-.35,3.36,0,.78-.07,1.57-.07,2.35Z"/><path id="Fill-214" class="cls-22" d="M1054.72,600a5.1,5.1,0,0,1-10.19,0H1055"/><path id="Fill-215" class="cls-43" d="M1064,599h5.46c1.81.22,3.28-.78,3.28-2s-1.47-2.24-3.28-2h-5.57c-1.81-.26-3.27.74-3.27,2s1.46,2.24,3.27,2.24"/><path id="Fill-216" class="cls-43" d="M1029,599h5.19c1.8.22,3.27-.78,3.27-2s-1.47-2.24-3.27-2h-5.57c-1.81-.26-3.28.74-3.28,2s1.47,2.24,3.28,2.24"/><path id="Fill-217" class="cls-23" d="M1088,554v44.13c2.44,0,4.42-4,4.42-8.85L1091,556.37c-1.36-1.33-1.29-5.38-2.66-6.91a29.93,29.93,0,0,0-.34,4.46"/><path id="Fill-218" class="cls-23" d="M1011,554v44.13c-2.44,0-4.41-4-4.41-8.85l1.35-32.91c1.36-1.33,1.36-5.38,2.72-6.91a29.93,29.93,0,0,1,.34,4.46"/><path id="Fill-219" class="cls-32" d="M1048,702.44h0a3.89,3.89,0,0,0,4-3.76V678h-8v20.68a3.89,3.89,0,0,0,4,3.76"/><path id="Fill-220" class="cls-44" d="M1046,682.88a2.24,2.24,0,1,0,2.24-2.25,2.24,2.24,0,0,0-2.24,2.25"/><path id="Fill-221" class="cls-44" d="M1046,691.76a2.24,2.24,0,1,0,2.24-2.25,2.24,2.24,0,0,0-2.24,2.25"/><path id="Fill-222" class="cls-45" d="M1026.27,588a1.29,1.29,0,0,1,0-.19,5.24,5.24,0,0,1,10.18,0,1.29,1.29,0,0,1,0,.19H1026"/><path id="Fill-223" class="cls-45" d="M1061.54,588c0-.06,0-.13,0-.19a5.24,5.24,0,0,1,10.18,0c0,.06,0,.13,0,.19H1062"/><path id="Fill-224" class="cls-34" d="M978,713h28l-.15-16.83-19.54-12.41h0A67.46,67.46,0,0,0,977.88,713"/><path id="Fill-225" class="cls-46" d="M986,684.2l20,20.28v-8.8l-16.61-17.21c-1,1.56-2,3.16-2.93,4.8q-.27.47-.51.93"/><path id="Fill-226" class="cls-34" d="M1118,713h-28l.15-16.83,19.54-12.41h0a67.46,67.46,0,0,1,8.43,29.24"/><path id="Fill-227" class="cls-46" d="M1111.05,684.2l-20,20.28v-8.8l16.61-17.21q1.56,2.34,2.93,4.8.27.47.51.93"/><polyline id="Fill-228" class="cls-47" points="1061 659 1032.84 659 1035.86 678 1061 678 1061 659"/><path id="Fill-229" class="cls-44" d="M1022.93,651.82c4.11,7.22,13.89,12.29,25.29,12.29s21.21-5.09,25.3-12.32c-1.35-.51-2.71-1-4.1-1.4-4.69,5.11-12.44,8.44-21.2,8.44s-16.5-3.33-21.19-8.42c-1.38.43-2.75.9-4.1,1.41"/><path id="Fill-230" class="cls-48" d="M1007,538v18h84V537.88a28.74,28.74,0,0,0-12.66-23.76,29.44,29.44,0,0,0-16.69-5.12h-25.3a29.62,29.62,0,0,0-16.25,4.82,28.75,28.75,0,0,0-13.1,24.06"/><path id="Fill-231" class="cls-21" d="M1010.93,578.55c7,.07,21.26-5.58,29.21-5.76l9.33-.22,9.32.22c8,.18,22.2,5.83,29.21,5.76V562.34c0-.79,0-1.57-.07-2.34H1011l-.07,19"/><path id="Fill-232" class="cls-49" d="M1008,556h83.17s4.86,15.15,0,18-22.91-5-32.29-5.16l-9.37-.22-9.38.22c-9.37.21-27.42,8-32.28,5.16s0-18,0-18"/><path id="Fill-233" class="cls-50" d="M1016,556h66.79s-2.77-12.62-1.78-17.62,2.28-7.18,1.58-13.52c-.3-2.69-2.18-6.84-4.24-10.74a29.41,29.41,0,0,0-5.86-3.13,29,29,0,0,0-10.56-2H1037a28.83,28.83,0,0,0-16,4.82c-2.28,4-4.37,8.31-4.68,11-.7,6.34.59,8.52,1.58,13.52s-1.78,17.62-1.78,17.62"/><path id="Fill-234" class="cls-40" d="M1046,626h4.92c1.76,0,3.18-.67,3.18-1.5s-1.42-1.5-3.18-1.5h-5.41c-1.75,0-3.17.67-3.17,1.5s1.42,1.5,3.17,1.5"/><path id="Fill-235" class="cls-40" d="M1055.69,616l-.06.27a7.63,7.63,0,0,1-14.82,0l-.06-.27H1056"/><path id="Fill-236" class="cls-23" d="M1037,581h-11.39c-1.89,0-3.42-1.12-3.42-2.5s1.53-2.51,3.41-2.51h11.6c1.88,0,3.41,1.12,3.41,2.5s-1.52,2.51-3.41,2.51"/><path id="Fill-237" class="cls-23" d="M1072,581h-11.12c-1.88,0-3.41-1.12-3.41-2.5s1.52-2.51,3.41-2.51h11.59c1.89,0,3.42,1.12,3.42,2.5s-1.53,2.51-3.41,2.51"/><polyline id="Fill-238" class="cls-46" points="1045 678 1010.35 678 1027.88 640.48 1045.42 678"/><polyline id="Fill-239" class="cls-46" points="1086 678 1051.02 678 1068.55 640.48 1086.08 678"/><path class="cls-43" d="M1145,551h-5.5c-1.8.67-3.27-.33-3.27-1.57s1.47-2.24,3.27-2.43h5.58c1.8.19,3.27,1.19,3.27,2.43s-1.47,2.24-3.27,2.24"/><path class="cls-43" d="M1194,551h-5.5c-1.8.67-3.27-.33-3.27-1.57s1.47-2.24,3.27-2.43h5.58c1.8.19,3.27,1.19,3.27,2.43s-1.47,2.24-3.27,2.24"/><g id="emblem-light"><g id="logo-core"><g id="H-bottom"><g id="path-1-link"><path id="path-1" d="M1058.37,541.21a16.08,16.08,0,0,1-19.36,0,.68.68,0,0,1-.21-1l.2-.24a.69.69,0,0,1,.94,0,14.52,14.52,0,0,0,17.5,0,.69.69,0,0,1,.94,0l.2.24a.68.68,0,0,1-.21,1"/></g><path class="cls-51" d="M1058.37,541.21a16.08,16.08,0,0,1-19.36,0,.68.68,0,0,1-.21-1l.2-.24a.69.69,0,0,1,.94,0,14.52,14.52,0,0,0,17.5,0,.69.69,0,0,1,.94,0l.2.24a.68.68,0,0,1-.21,1"/></g><g id="H-right"><g id="path-3-link"><path id="path-3" d="M1056.32,545.49h0c-.37-.19-.56-.53-.43-.77a18.08,18.08,0,0,0,1.59-13,.74.74,0,0,1,.57-.78h0c.39-.13.78,0,.83.25a19.61,19.61,0,0,1-1.59,14,.7.7,0,0,1-1,.23"/></g><path class="cls-52" d="M1056.32,545.49h0c-.37-.19-.56-.53-.43-.77a18.08,18.08,0,0,0,1.59-13,.74.74,0,0,1,.57-.78h0c.39-.13.78,0,.83.25a19.61,19.61,0,0,1-1.59,14,.7.7,0,0,1-1,.23"/></g><g id="H-left"><g id="path-5-link"><path id="path-5" d="M1041,545h.22c.37-.18.56-.53.43-.77a18.08,18.08,0,0,1-1.59-13,.74.74,0,0,0-.57-.77c-.39-.14-.78,0-.83.25a19.53,19.53,0,0,0,1.6,14,.69.69,0,0,0,1,.23"/></g><path class="cls-53" d="M1041,545h.22c.37-.18.56-.53.43-.77a18.08,18.08,0,0,1-1.59-13,.74.74,0,0,0-.57-.77c-.39-.14-.78,0-.83.25a19.53,19.53,0,0,0,1.6,14,.69.69,0,0,0,1,.23"/></g><g id="A-cross"><g id="path-7-link"><path id="path-7" d="M1060.22,532.93a36.45,36.45,0,0,0-22.9,0,.88.88,0,0,1-1.11-.51.86.86,0,0,1,.57-1.09,38.11,38.11,0,0,1,24,0,.87.87,0,0,1,.58,1.09.89.89,0,0,1-1.11.51"/></g><path class="cls-54" d="M1060.22,532.93a36.45,36.45,0,0,0-22.9,0,.88.88,0,0,1-1.11-.51.86.86,0,0,1,.57-1.09,38.11,38.11,0,0,1,24,0,.87.87,0,0,1,.58,1.09.89.89,0,0,1-1.11.51"/></g><g id="A-right"><g id="path-9-link"><path id="path-9" d="M1049,518.81V518h.12a.62.62,0,0,1,.52-.27h0a.59.59,0,0,1,.36.11,35.84,35.84,0,0,1,13.46,18.75,1.31,1.31,0,0,1-.38,1.33.52.52,0,0,1-.88-.3A34.85,34.85,0,0,0,1049.28,519l-.11-.11a.34.34,0,0,0-.17-.05Z"/></g><path class="cls-55" d="M1049,518.81V518h.12a.62.62,0,0,1,.52-.27h0a.59.59,0,0,1,.36.11,35.84,35.84,0,0,1,13.46,18.75,1.31,1.31,0,0,1-.38,1.33.52.52,0,0,1-.88-.3A34.85,34.85,0,0,0,1049.28,519l-.11-.11a.34.34,0,0,0-.17-.05Z"/></g><g id="A-left"><g id="path-11-link"><path id="path-11" d="M1049,518.81h0l-.15,0-.13.13a34.91,34.91,0,0,0-12.92,18.65.52.52,0,0,1-.88.3,1.31,1.31,0,0,1-.38-1.33A35.88,35.88,0,0,1,1048,517.84a.64.64,0,0,1,.88.16h.14v.81Z"/></g><path class="cls-56" d="M1049,518.81h0l-.15,0-.13.13a34.91,34.91,0,0,0-12.92,18.65.52.52,0,0,1-.88.3,1.31,1.31,0,0,1-.38-1.33A35.88,35.88,0,0,1,1048,517.84a.64.64,0,0,1,.88.16h.14v.81Z"/></g></g><g id="ring"><g id="path-13-link"><path id="path-13" d="M1048.73,548.19a15.5,15.5,0,1,1,15.5-15.5,15.51,15.51,0,0,1-15.5,15.5m0-29.61a14.11,14.11,0,1,0,14.11,14.11,14.13,14.13,0,0,0-14.11-14.11"/></g><path class="cls-57" d="M1048.73,548.19a15.5,15.5,0,1,1,15.5-15.5,15.51,15.51,0,0,1-15.5,15.5m0-29.61a14.11,14.11,0,1,0,14.11,14.11,14.13,14.13,0,0,0-14.11-14.11"/></g></g><path id="Fill-93-2" data-name="Fill-93" class="cls-11" d="M878.48,47.42h88.37a44.11,44.11,0,1,0-88.21,0"/><path id="Fill-94-2" data-name="Fill-94" class="cls-11" d="M946,47.42h53.51a26.74,26.74,0,1,0-53.47,0"/><path id="Fill-95-2" data-name="Fill-95" class="cls-11" d="M991.91,47.42H1014a11,11,0,1,0-22,0"/><path id="Fill-96-2" data-name="Fill-96" class="cls-11" d="M859.82,47.42H889.2a14.41,14.41,0,1,0-28.82,0"/><path id="Fill-97-2" data-name="Fill-97" class="cls-11" d="M519.54,135H624.05a52.17,52.17,0,0,0-104.33,0"/><path id="Fill-98-2" data-name="Fill-98" class="cls-11" d="M599.94,135h62.7a31.62,31.62,0,1,0-63.24,0"/><path id="Fill-99-2" data-name="Fill-99" class="cls-11" d="M654.5,135h25.31a13,13,0,1,0-25.95,0"/><path id="Fill-100-2" data-name="Fill-100" class="cls-11" d="M498,135h34.22a17,17,0,1,0-34.09,0"/></g><circle class="cls-58" cx="1280" cy="3" r="131"/></svg>