<svg id="Layer_1" data-name="Layer 1" xmlns="http://www.w3.org/2000/svg" xmlns:xlink="http://www.w3.org/1999/xlink" viewBox="0 0 1280 720"><defs><style>.cls-1{fill:#e55732;}.cls-2{fill:#cc3e18;}.cls-3{fill:none;}.cls-4{fill:url(#linear-gradient);}.cls-5{fill:url(#linear-gradient-2);}.cls-6{clip-path:url(#clip-path);}.cls-7{clip-path:url(#clip-path-2);}.cls-8{fill:#01427e;}.cls-9{fill:#fff;}.cls-10{fill:#dadada;}.cls-11{fill:#b2b2b2;}.cls-12{fill:#81b652;}.cls-13{clip-path:url(#clip-path-3);}.cls-14{fill:#1d1d1b;}.cls-15{fill:#1e1e1d;}.cls-16{fill:#20201e;}.cls-17{fill:#212120;}.cls-18{fill:#232221;}.cls-19{fill:#242422;}.cls-20{fill:#252524;}.cls-21{fill:#272625;}.cls-22{fill:#282827;}.cls-23{fill:#292928;}.cls-24{fill:#2a2a29;}.cls-25{fill:#2c2c2b;}.cls-26{fill:#2d2d2c;}.cls-27{fill:#2e2e2d;}.cls-28{fill:#302f2e;}.cls-29{fill:#313130;}.cls-30{fill:#323231;}.cls-31{fill:#333332;}.cls-32{fill:#343433;}.cls-33{fill:#353534;}.cls-34{fill:#373636;}.cls-35{fill:#383837;}.cls-36{fill:#393938;}.cls-37{fill:#3a3a39;}.cls-38{fill:#3b3b3a;}.cls-39{fill:#3c3c3b;}.cls-40{clip-path:url(#clip-path-4);}.cls-41{fill:#ededed;}.cls-42{fill:#d9925a;}.cls-43{fill:#f3a264;}.cls-44{fill:#d08d57;}.cls-45{fill:#7d4e24;}.cls-46{fill:#683c11;}.cls-47{fill:#936037;}.cls-48{fill:#432918;}.cls-49{fill:#389efe;}.cls-50{fill:#1b8ffd;}</style><linearGradient id="linear-gradient" x1="129.88" y1="59.67" x2="829.55" y2="454.46" gradientUnits="userSpaceOnUse"><stop offset="0" stop-color="#81b652"/><stop offset="1" stop-color="#e55732"/></linearGradient><linearGradient id="linear-gradient-2" x1="317.8" y1="114.85" x2="212.26" y2="443.19" xlink:href="#linear-gradient"/><clipPath id="clip-path"><path id="SVGID" class="cls-1" d="M293.22,621.62s-26.31,2.5-27.57-47.62-7.51-75.18,27.57-87.09,99.62,0,99.62,0S421,493.81,410.22,537c-7.63,30.55,18.95,67.7-14.88,84.6-30.7,11.88-102.12,0-102.12,0Z"/></clipPath><clipPath id="clip-path-2"><path id="SVGID-2" data-name="SVGID" class="cls-2" d="M316.4,637.69c0-1-23.18.79-21.93-10.78s-.62-24.09,28.82-27.85,182.94-16.34,173.55,27.85c-5,12.69-60.78,9.84-60.78,9.64L316.4,637.69Z"/></clipPath><clipPath id="clip-path-3"><polygon id="SVGID-3" data-name="SVGID" class="cls-3" points="394.49 662.53 358.91 662.53 358.91 640.72 394.49 640.72 394.49 662.53 394.49 662.53"/></clipPath><clipPath id="clip-path-4"><path id="SVGID-4" data-name="SVGID" class="cls-3" d="M340.33,639.57l-26.95-.39s.73,11.87,10.78,11.87h26.21s-10-3.08-10-11.48Z"/></clipPath></defs><title>Landlords</title><path class="cls-4" d="M0,0V695a3445.23,3445.23,0,0,1,1280-85.61V0Z"/><circle class="cls-5" cx="266" cy="276" r="300"/><path id="SVGID-5" data-name="SVGID" class="cls-1" d="M293.22,621.62s-26.31,2.5-27.57-47.62-7.51-75.18,27.57-87.09,99.62,0,99.62,0S421,493.81,410.22,537c-7.63,30.55,18.95,67.7-14.88,84.6-30.7,11.88-102.12,0-102.12,0Z"/><g class="cls-6"><polygon class="cls-1" points="257.59 474.72 428.61 474.72 428.61 633.1 257.59 633.1 257.59 474.72 257.59 474.72"/><path class="cls-1" d="M256.86,627.1A132.1,132.1,0,0,1,248,617h8.41V473.57H430.9V629.66h10.58a132,132,0,0,1-20.91,16.42V635.4H277.1v8.74a132.22,132.22,0,0,1-20.24-17Z"/><path class="cls-1" d="M259.64,624.67a128.43,128.43,0,0,1-16-20.26h12.86V473.57h175.6V627.36h8.44a132.77,132.77,0,0,1-21.07,16v-8h-140v5.9a128.68,128.68,0,0,1-19.76-16.63Z"/><path class="cls-1" d="M261.28,622.54a121.74,121.74,0,0,1-15.66-19.28h10.83V473.57H430.9v151.5h5.61a123.65,123.65,0,0,1-19.38,15.59V635.4H280.55v3a124,124,0,0,1-19.27-15.83Z"/><path class="cls-1" d="M264,620a120.3,120.3,0,0,1-15.2-19h7.67V472.42H430.9V621.63h3.26a119.47,119.47,0,0,1-40,25.91V635.4H303.5v11.41A119.91,119.91,0,0,1,264,620Z"/><path class="cls-1" d="M266.13,617.36a118.33,118.33,0,0,1-14.82-18.69h5.14V472.42H430.9V619.33h.87A115.76,115.76,0,0,1,393,644.54V635.4H304.65v8.35a117,117,0,0,1-38.52-26.39Z"/><path class="cls-1" d="M269,615.94a117.36,117.36,0,0,1-24.44-39.08h11.91V491.93H245.83a115.48,115.48,0,0,1,10.62-20v.47H430.9v127.4h13.23A116.84,116.84,0,0,1,429.37,618,110.9,110.9,0,0,1,269,615.94Z"/><path class="cls-1" d="M272.06,612.83a111.13,111.13,0,0,1-23.61-37.11h8V493.08h-7.26A101.14,101.14,0,0,1,259.88,475a103.93,103.93,0,0,1,6.9-8.41v7H428.61V459.3A81.6,81.6,0,0,1,443.12,477H430.9V597.52h10.34A111,111,0,0,1,427,614.8a108.36,108.36,0,0,1-154.93-2Z"/><path class="cls-1" d="M274.07,609.87A106.35,106.35,0,0,1,276,459.42v13H426.31v-11.5a108.9,108.9,0,0,1,13.41,17.24H430.9V595.23h7.53a106.51,106.51,0,0,1-164.36,14.64Z"/><path class="cls-1" d="M276.43,608.29a103.38,103.38,0,0,1,1.82-146v10.15H424v-9.53a110.59,110.59,0,0,1,13,17.56H430.9V594.08h4.69a104.23,104.23,0,0,1-13.41,16,102.94,102.94,0,0,1-145.75-1.82Z"/><path class="cls-1" d="M278.79,605.33a98.73,98.73,0,0,1,1.76-140.18v8.42H421.72V467.2A97.74,97.74,0,0,1,443.23,500H430.9v74.6h11.18a98.67,98.67,0,0,1-22.31,32.52,100.09,100.09,0,0,1-141-1.76Z"/><path class="cls-1" d="M281.14,603.24a95.91,95.91,0,0,1,1.7-135.87v6.2H419.42v-4a94.15,94.15,0,0,1,20.82,31.54H430.9v72.31h8a96.46,96.46,0,0,1-157.78,29.82Z"/><path class="cls-1" d="M284.65,600.34a93,93,0,0,1,1.64-131.23v3.31H417.13v-1.66A92.66,92.66,0,1,1,284.65,600.34Z"/><path class="cls-1" d="M287,597.94a89.37,89.37,0,0,1,1.58-126.36v.84H401.06V461.53A89.36,89.36,0,1,1,287,597.94Z"/><path class="cls-1" d="M289.59,595.54a86.19,86.19,0,0,1,15.06-132.35v9.23h94.11v-8a87.38,87.38,0,0,1,22.36,22.15,85.58,85.58,0,0,1-.63,98.94C388.36,630,326,633.1,289.59,595.54Z"/><path class="cls-1" d="M291.79,593.14a82.57,82.57,0,0,1,28.93-134.42v13.7h62V459.5a82.45,82.45,0,1,1-90.91,133.64Z"/><path class="cls-1" d="M294,590.74a79,79,0,0,1,27.86-128.82v10.5h59.68v-9.76A79.15,79.15,0,1,1,294,590.74Z"/><path class="cls-1" d="M296.37,588.89a75.61,75.61,0,1,1,106.93,1.34,75.61,75.61,0,0,1-106.93-1.34Z"/><path class="cls-1" d="M298.83,586.49a72.18,72.18,0,1,1,102.07,1.28,72.18,72.18,0,0,1-102.07-1.28Z"/><path class="cls-1" d="M301.29,584.09a68.74,68.74,0,1,1,97.21,1.22,68.74,68.74,0,0,1-97.21-1.22Z"/><path class="cls-1" d="M303.75,581.69a65.3,65.3,0,1,1,92.35,1.16,65.3,65.3,0,0,1-92.35-1.16Z"/><path class="cls-1" d="M306.21,579.29a61.87,61.87,0,1,1,87.49,1.1,61.85,61.85,0,0,1-87.49-1.1Z"/><path class="cls-1" d="M308.67,576.89a58.43,58.43,0,1,1,82.63,1,58.43,58.43,0,0,1-82.63-1Z"/><path class="cls-1" d="M311.13,574.49a55,55,0,1,1,77.77,1,55,55,0,0,1-77.77-1Z"/><path class="cls-1" d="M313.59,572.09a51.56,51.56,0,1,1,72.91.91,51.55,51.55,0,0,1-72.91-.91Z"/><path class="cls-1" d="M316.05,569.69a48.12,48.12,0,1,1,68.05.85,48.12,48.12,0,0,1-68.05-.85Z"/><path class="cls-1" d="M318.51,567.29a44.68,44.68,0,1,1,63.19.79,44.68,44.68,0,0,1-63.19-.79Z"/><path class="cls-1" d="M321,564.89a41.25,41.25,0,1,1,58.33.73,41.25,41.25,0,0,1-58.33-.73Z"/><path class="cls-1" d="M323.44,562.49a37.8,37.8,0,1,1,53.46.67,37.81,37.81,0,0,1-53.46-.67Z"/><path class="cls-1" d="M325.9,560.09a34.37,34.37,0,1,1,48.6.61,34.36,34.36,0,0,1-48.6-.61Z"/><path class="cls-1" d="M328.36,557.69a30.93,30.93,0,1,1,43.74.55,30.93,30.93,0,0,1-43.74-.55Z"/><path class="cls-1" d="M330.82,555.29a27.49,27.49,0,1,1,38.88.49,27.49,27.49,0,0,1-38.88-.49Z"/><path class="cls-1" d="M333.28,552.89a24.06,24.06,0,1,1,34,.43,24.06,24.06,0,0,1-34-.43Z"/><path class="cls-1" d="M335.74,550.49a20.62,20.62,0,1,1,29.16.37,20.62,20.62,0,0,1-29.16-.37Z"/><path class="cls-1" d="M338.2,548.09a17.18,17.18,0,1,1,24.3.31,17.18,17.18,0,0,1-24.3-.31Z"/><path class="cls-1" d="M340.66,545.69a13.74,13.74,0,1,1,19.44.25,13.75,13.75,0,0,1-19.44-.25Z"/><path class="cls-1" d="M343.12,543.29a10.31,10.31,0,1,1,14.58.19,10.3,10.3,0,0,1-14.58-.19Z"/><path class="cls-1" d="M345.58,540.9a6.87,6.87,0,1,1,9.72.12,6.88,6.88,0,0,1-9.72-.12Z"/><path class="cls-1" d="M348,538.5a3.44,3.44,0,1,1,4.86.06,3.43,3.43,0,0,1-4.86-.06Z"/></g><path id="SVGID-6" data-name="SVGID" class="cls-2" d="M316.4,637.69c0-1-23.18.79-21.93-10.78s-.62-24.09,28.82-27.85,182.94-16.34,173.55,27.85c-5,12.69-60.78,9.84-60.78,9.64L316.4,637.69Z"/><g class="cls-7"><polygon class="cls-2" points="293.17 582.6 506.65 582.6 506.65 639.99 293.17 639.99 293.17 582.6 293.17 582.6"/><polygon class="cls-2" points="507.8 614.12 507.8 641.14 290.88 641.14 290.88 580.31 507.8 580.31 507.8 614.12 507.8 614.12"/><path class="cls-2" d="M511,614.74a135,135,0,0,1-3.18,26.89c-1,4.37-3.47,12.86-3.47,12.86V641.14H290.88V580.31H505.5V573.7q1.88,6.62,3.12,13.49h-.82v27.55Z"/><path class="cls-2" d="M506.87,614.08a144.47,144.47,0,0,1-2.82,26.39q-1.29,6.39-3.14,12.52V641.14h-210V580.31H502.06V575q1.67,6.19,2.77,12.62a145.23,145.23,0,0,1,2,26.48Z"/><path class="cls-2" d="M503.42,614a136,136,0,0,1-2.82,25.66q-1.29,6.21-3.13,12.17V641.14H290.88V580.31H498.62V576c1.1,4,2,8.11,2.76,12.27a136.46,136.46,0,0,1,2,25.74Z"/><path class="cls-2" d="M500,614a128.45,128.45,0,0,1-2.82,24.93c-.86,4-1.91,8-3.13,11.82v-9.57H290.88V580.31H495.17V577q1.66,5.84,2.77,11.92a128.79,128.79,0,0,1,2,25Z"/><path class="cls-2" d="M496.44,614.27a121.06,121.06,0,0,1-2.84,24.19c-.86,3.9-3,11.47-3,11.47v-8.79H290.88V580.31H488.29v-13a130.22,130.22,0,0,1,8.15,46.95Z"/><path class="cls-2" d="M492.79,614.21a117.59,117.59,0,0,1-2.74,23.46c-.84,3.78-2.91,11.12-2.91,11.12v-7.65H290.88V580.31h194V568.68a125.24,125.24,0,0,1,8,45.53Z"/><path class="cls-2" d="M488.76,613.79a124.45,124.45,0,0,1-2.4,22.72q-1.1,5.49-2.66,10.78v-6.15H290.88V580.31H481.4V569.68a123.33,123.33,0,0,1,7.36,44.11Z"/><path class="cls-2" d="M485.32,613.73a117.52,117.52,0,0,1-2.4,22c-.73,3.54-1.62,7-2.67,10.43v-5H290.88V580.31H478V571a116.16,116.16,0,0,1,7.36,42.69Z"/><path class="cls-2" d="M481.86,614c-.23,14.59-9.64,41-9.64,41V641.14H290.88V580.31H474.52v-7.54A110.66,110.66,0,0,1,481.86,614Z"/><path class="cls-2" d="M478.22,614c-.23,14.09-9.44,39.58-9.44,39.58V641.14H290.88V580.31H471.07v-6.17A105.72,105.72,0,0,1,478.22,614Z"/><path class="cls-2" d="M474.24,613.55a104.42,104.42,0,0,1-7.76,38.17V641.14H290.88V580.31H467.63v-5.17a104.69,104.69,0,0,1,6.61,38.41Z"/><path class="cls-2" d="M470.8,613.49A97.47,97.47,0,0,1,463,650.24v-9.1H290.88V580.31H464.19V576.5a97.51,97.51,0,0,1,6.61,37Z"/><path class="cls-2" d="M467.35,613.36a90.31,90.31,0,0,1-7.76,35.25v-7.47H292v4.77a90.72,90.72,0,0,1,1.14-70.74v5.14H460.74v-2.44a90.2,90.2,0,0,1,6.61,35.49Z"/><path class="cls-2" d="M463.9,613.3a83.58,83.58,0,0,1-7.75,33.84v-6H295.47v3.41a83.84,83.84,0,0,1,1.15-67.91v3.67H457.3v-1.08a83.37,83.37,0,0,1,6.6,34.07Z"/><path class="cls-2" d="M460.31,613.24a78.76,78.76,0,0,1-7.6,32.43v-4.53H298.91v2.05a77.29,77.29,0,0,1,1.15-65.08v2.2H445.82v-14a81.68,81.68,0,0,1,8,14.32,78.49,78.49,0,0,1,6.48,32.65Z"/><path class="cls-2" d="M455.6,613.18a84.42,84.42,0,0,1-6.34,31v-3.06h-148v1.2a93.51,93.51,0,0,1-5.16-31.3,90,90,0,0,1,6.3-31.1v.37H443.53V568.25A82.29,82.29,0,0,1,450.2,582a85,85,0,0,1,5.4,31.23Z"/><path class="cls-2" d="M452.15,613.12a77.48,77.48,0,0,1-6.33,29.62v-1.6H312.68v12.94A51.13,51.13,0,0,1,305.23,641a76.8,76.8,0,0,1,1-59.56,58.4,58.4,0,0,1,7.64-12.88v11.78H440.08V570.23a77.06,77.06,0,0,1,12.07,42.89Z"/><path class="cls-2" d="M449.86,613.06a71,71,0,0,1-6.33,28.21v-.13H315v11a83.17,83.17,0,0,1-6.37-12.48,73.14,73.14,0,0,1,.91-56.73,103.11,103.11,0,0,1,6.61-12.27v9.7H437.79v-8.09a71.58,71.58,0,0,1,6.67,12.45,70.68,70.68,0,0,1,5.4,28.39Z"/><path class="cls-2" d="M444.64,613a74.1,74.1,0,0,1-5.4,26.8,71.12,71.12,0,0,1-6,11.63V641.14H318.42v8.44a71.64,71.64,0,0,1-5.69-11.83,74.79,74.79,0,0,1,.8-53.77,71.12,71.12,0,0,1,6-11.63v8H434.34V574.2A71,71,0,0,1,440,586a74.18,74.18,0,0,1,4.6,27Z"/><path class="cls-2" d="M441.93,612.94a63.31,63.31,0,0,1-5.75,25.39,64.48,64.48,0,0,1-6.43,11v-8.21h-109v6.46A66,66,0,0,1,315,636.38a67.35,67.35,0,0,1,.8-50.93,66,66,0,0,1,6-11v5.88h101V566.37a64.07,64.07,0,0,1,19.06,46.57Z"/><path class="cls-2" d="M436.46,612.89a66.75,66.75,0,0,1-4.79,24,63,63,0,0,1-5.36,10.4v-6.12H332.2v14.28a60.21,60.21,0,0,1-17.93-44.09,61.06,61.06,0,0,1,19.07-43.5v12.48h87.23V568.9a64.84,64.84,0,0,1,15.89,44Z"/><path class="cls-2" d="M434.5,613.27a59.35,59.35,0,0,1-17.37,40.94V641.14H334.49v11.74a57.54,57.54,0,0,1-16.58-41.49,58.16,58.16,0,0,1,17.73-40.95v9.87h82.64v-8.54a58.77,58.77,0,0,1,16.22,41.5Z"/><path class="cls-2" d="M430.13,612.77a56.59,56.59,0,0,1-15.3,38.3v-9.93h-78v8.68a57.8,57.8,0,0,1,1.14-77.11v7.6H416V574a56.85,56.85,0,0,1,14.15,38.81Z"/><path class="cls-2" d="M426.7,612.71a51,51,0,0,1-15.31,35.74v-7.31H339.08v6.15a51.3,51.3,0,0,1,1.15-72v5h72.31v-3.82a51.08,51.08,0,0,1,14.16,36.22Z"/><path class="cls-2" d="M424.41,612.65a45.77,45.77,0,0,1-15.32,33.19v-4.7H342.53v3.62a45.24,45.24,0,0,1,1.14-66.82v2.37h66.57V579a45.62,45.62,0,0,1,14.17,33.63Z"/><path class="cls-2" d="M420.14,612.53a43.58,43.58,0,0,1-13.34,30.71v-2.1h-62v1.1a43.78,43.78,0,1,1,75.32-29.71Z"/><path class="cls-2" d="M416.28,613a40.08,40.08,0,1,1-39.43-40.72A40.09,40.09,0,0,1,416.28,613Z"/><path class="cls-2" d="M412.64,612.92a36.44,36.44,0,1,1-35.84-37,36.43,36.43,0,0,1,35.84,37Z"/><path class="cls-2" d="M409,612.86a32.79,32.79,0,1,1-32.26-33.32A32.79,32.79,0,0,1,409,612.86Z"/><path class="cls-2" d="M405.35,612.8a29.15,29.15,0,1,1-28.67-29.62,29.16,29.16,0,0,1,28.67,29.62Z"/><path class="cls-2" d="M401.71,612.74a25.51,25.51,0,1,1-25.09-25.92,25.51,25.51,0,0,1,25.09,25.92Z"/><path class="cls-2" d="M398.07,612.68a21.86,21.86,0,1,1-21.51-22.21,21.88,21.88,0,0,1,21.51,22.21Z"/><path class="cls-2" d="M394.42,612.62a18.22,18.22,0,1,1-17.92-18.51,18.23,18.23,0,0,1,17.92,18.51Z"/><path class="cls-2" d="M390.78,612.56a14.58,14.58,0,1,1-14.34-14.81,14.58,14.58,0,0,1,14.34,14.81Z"/><path class="cls-2" d="M387.14,612.5a10.93,10.93,0,1,1-10.76-11.1,10.94,10.94,0,0,1,10.76,11.1Z"/><path class="cls-2" d="M383.49,612.45a7.29,7.29,0,1,1-7.16-7.41,7.28,7.28,0,0,1,7.16,7.41Z"/><path class="cls-2" d="M379.85,612.39a3.65,3.65,0,1,1-3.58-3.71,3.64,3.64,0,0,1,3.58,3.71Z"/></g><path class="cls-8" d="M459.69,419.89l-1.53-9.84c-18.79,33.19-144,22.46-144,22.46l1.54,9.85a37.14,37.14,0,0,0,3.4,10.77h0c22.52,43.54,7.33,152.41,7.33,152.41l13.39,1.85c-4.61-67.81,29.79-108.49,50.36-126.5C401.58,499,421,538,424.84,599.55l11.52-1.06S438.55,485.35,454.68,445a37.08,37.08,0,0,0,5-25.14Z"/><polygon class="cls-9" points="323.01 392.08 84.28 392.08 84.28 185.49 323.01 185.49 323.01 392.08 323.01 392.08"/><path class="cls-10" d="M86.58,389.78H320.72v-202H86.58v202Zm238.73,4.59H82V182H325.31V394.37Z"/><polygon class="cls-11" points="289.73 176.31 115.27 176.31 115.27 185.49 289.73 185.49 289.73 176.31 289.73 176.31"/><polygon class="cls-11" points="289.73 387.49 115.27 387.49 115.27 396.67 289.73 396.67 289.73 387.49 289.73 387.49"/><path class="cls-11" d="M174.73,178.91l-1.85-1.62c2.08-2.38,20.64-23.21,29.56-23.21S225.6,175,227.18,177.42l-2.05,1.36c-4.1-6.18-16.16-22.24-22.69-22.24s-22.25,16.15-27.71,22.37Z"/><path class="cls-12" d="M287.11,224.75a4.51,4.51,0,0,0-4.52,4.51,4.42,4.42,0,0,0,.88,2.65L251,273.34a4.57,4.57,0,0,0-2.05-.51,4.52,4.52,0,0,0-3.2,7.71l-13.17,20.69a4.45,4.45,0,0,0-5.79,3.65l-20.93,2.33a4.52,4.52,0,0,0-8.35,3.44l-10.37,8.26a4.47,4.47,0,0,0-5.93-.64l-23-22.61a4.51,4.51,0,1,0-7.55.21l-28.37,38.76a4.56,4.56,0,0,0-1.48-.26,4.57,4.57,0,1,0,3.49,1.68l28.27-38.61a4.33,4.33,0,0,0,1.8.38,4.6,4.6,0,0,0,2-.49l23.27,22.87a4.45,4.45,0,0,0-.36,1.75,4.52,4.52,0,0,0,9,0,5.16,5.16,0,0,0-.08-.79l10.8-8.58a4.49,4.49,0,0,0,7.06-2.92l21-2.33a4.51,4.51,0,1,0,7.53-4.75l13.27-20.85a4.42,4.42,0,0,0,1,.13,4.5,4.5,0,0,0,3.85-6.84l32.58-41.58a4.56,4.56,0,0,0,1.7.33,4.51,4.51,0,1,0,0-9Z"/><g class="cls-13"><polygon class="cls-14" points="358.91 640.72 394.49 640.72 394.49 662.53 358.91 662.53 358.91 640.72 358.91 640.72"/><path class="cls-14" d="M401.24,649.61c-.25,14.68-13,26.39-28.51,26.15s-27.86-12.33-27.61-27h11.49V638.42h36.73v-7.73a25.82,25.82,0,0,1,7.9,18.92Z"/><path class="cls-15" d="M399.71,649.58c-.24,14.09-12.39,25.33-27.13,25.1s-26.51-11.83-26.27-25.93h10.3V638.42h35.58v-7a24.83,24.83,0,0,1,7.52,18.17Z"/><path class="cls-16" d="M398.18,649.54c-.22,13.51-11.76,24.29-25.76,24.07s-25.17-11.35-24.95-24.86h9.14V638.42H391v-6.29a23.93,23.93,0,0,1,7.14,17.41Z"/><path class="cls-17" d="M397.58,649.68a24.64,24.64,0,1,1-24.24-25,24.64,24.64,0,0,1,24.24,25Z"/><path class="cls-18" d="M396.51,649.66a23.57,23.57,0,1,1-23.19-23.95,23.58,23.58,0,0,1,23.19,23.95Z"/><path class="cls-19" d="M395.44,649.65a22.5,22.5,0,1,1-22.14-22.87,22.5,22.5,0,0,1,22.14,22.87Z"/><path class="cls-20" d="M394.37,649.63a21.43,21.43,0,1,1-21.09-21.77,21.44,21.44,0,0,1,21.09,21.77Z"/><path class="cls-21" d="M393.29,649.61a20.36,20.36,0,1,1-20-20.68,20.36,20.36,0,0,1,20,20.68Z"/><path class="cls-22" d="M392.22,649.59a19.29,19.29,0,1,1-19-19.59,19.29,19.29,0,0,1,19,19.59Z"/><path class="cls-23" d="M391.15,649.58a18.21,18.21,0,1,1-17.92-18.51,18.2,18.2,0,0,1,17.92,18.51Z"/><path class="cls-24" d="M390.08,649.56a17.14,17.14,0,1,1-16.87-17.42,17.13,17.13,0,0,1,16.87,17.42Z"/><path class="cls-25" d="M389,649.54a16.07,16.07,0,1,1-15.81-16.33A16.07,16.07,0,0,1,389,649.54Z"/><path class="cls-26" d="M387.94,649.52a15,15,0,1,1-14.76-15.24,15,15,0,0,1,14.76,15.24Z"/><path class="cls-27" d="M386.87,649.51a13.93,13.93,0,1,1-13.71-14.16,13.94,13.94,0,0,1,13.71,14.16Z"/><path class="cls-28" d="M385.79,649.49a12.86,12.86,0,1,1-12.64-13.06,12.86,12.86,0,0,1,12.64,13.06Z"/><path class="cls-29" d="M384.72,649.47a11.79,11.79,0,1,1-11.59-12,11.78,11.78,0,0,1,11.59,12Z"/><path class="cls-30" d="M383.65,649.45a10.71,10.71,0,1,1-10.54-10.88,10.72,10.72,0,0,1,10.54,10.88Z"/><path class="cls-31" d="M382.58,649.44a9.64,9.64,0,1,1-9.49-9.8,9.64,9.64,0,0,1,9.49,9.8Z"/></g><path class="cls-32" d="M381.51,649.42a8.57,8.57,0,1,1-8.43-8.71,8.58,8.58,0,0,1,8.43,8.71Z"/><path class="cls-33" d="M380.44,649.4a7.5,7.5,0,1,1-7.38-7.62,7.5,7.5,0,0,1,7.38,7.62Z"/><path class="cls-34" d="M379.37,649.39a6.43,6.43,0,1,1-6.33-6.54,6.43,6.43,0,0,1,6.33,6.54Z"/><path class="cls-35" d="M378.29,649.37a5.36,5.36,0,1,1-5.27-5.44,5.35,5.35,0,0,1,5.27,5.44Z"/><path class="cls-36" d="M377.22,649.35A4.29,4.29,0,1,1,373,645a4.27,4.27,0,0,1,4.21,4.35Z"/><path class="cls-37" d="M376.15,649.33a3.22,3.22,0,1,1-3.16-3.26,3.22,3.22,0,0,1,3.16,3.26Z"/><path class="cls-38" d="M375.08,649.32a2.14,2.14,0,1,1-2.11-2.18,2.14,2.14,0,0,1,2.11,2.18Z"/><path class="cls-39" d="M374,649.3a1.07,1.07,0,1,1-1.05-1.09A1.07,1.07,0,0,1,374,649.3Z"/><path class="cls-14" d="M441.63,680.73,388.75,672v-9.5h-23v10.52l-57.52,7.41s-4,.43-4,7.32h4.49l.47-3.45,132.33-.21v3.66h4.59v-4.7a7.23,7.23,0,0,0-4.5-2.35Z"/><path class="cls-14" d="M388.73,700.84a9.17,9.17,0,1,1-9.17-9.17,9.16,9.16,0,0,1,9.17,9.17Z"/><path class="cls-14" d="M317.31,697.55a9.17,9.17,0,1,1-9.17-9.16,9.16,9.16,0,0,1,9.17,9.16Z"/><path class="cls-14" d="M451.81,697.55a9.16,9.16,0,1,1-9.16-9.16,9.16,9.16,0,0,1,9.16,9.16Z"/><path class="cls-24" d="M382.27,665.83c1.17,1.65.09,9.4.09,9.4l1.14,16.65s-1.94,9.82-3.94,9.82-4-9.67-4-9.67l.82-16.8s-1.12-6.15-.36-8.66c.72-2.26,5.06-2.38,6.24-.74Z"/><path class="cls-24" d="M310.12,640.72s.65,17.21,15.82,17.21h33v-6.88H323.36a11.61,11.61,0,0,1-9.24-11.48l-7.73,1.15Z"/><g class="cls-40"><polygon class="cls-14" points="314.14 639.57 349.73 639.57 349.73 651.05 314.14 651.05 314.14 639.57 314.14 639.57"/><polygon class="cls-14" points="350.87 645.88 350.87 653.34 311.85 653.34 311.85 638.42 350.87 638.42 350.87 645.88 350.87 645.88"/><polygon class="cls-15" points="350.87 645.88 350.87 653.34 311.85 653.34 311.85 638.42 350.87 638.42 350.87 645.88 350.87 645.88"/><polygon class="cls-16" points="350.87 645.88 350.87 653.34 311.85 653.34 311.85 638.42 350.87 638.42 350.87 645.88 350.87 645.88"/><polygon class="cls-17" points="350.87 645.88 350.87 653.34 311.85 653.34 311.85 638.42 350.87 638.42 350.87 645.88 350.87 645.88"/><polygon class="cls-18" points="350.87 645.88 350.87 653.34 311.85 653.34 311.85 638.42 350.87 638.42 350.87 645.88 350.87 645.88"/><polygon class="cls-19" points="350.87 645.88 350.87 653.34 311.85 653.34 311.85 638.42 350.87 638.42 350.87 645.88 350.87 645.88"/><polygon class="cls-20" points="350.87 645.88 350.87 653.34 311.85 653.34 311.85 638.42 350.87 638.42 350.87 645.88 350.87 645.88"/><path class="cls-21" d="M358.72,645.88a25.8,25.8,0,0,1-7.85,18.51v-11H313v11a25.74,25.74,0,0,1,0-37v11h37.87v-11a25.77,25.77,0,0,1,7.85,18.5Z"/><path class="cls-22" d="M357.33,645.88a24.18,24.18,0,0,1-7.6,17.53V653.34H313v10.07a24,24,0,0,1,0-35.06v10.07h36.73V628.35a24.21,24.21,0,0,1,7.6,17.53Z"/><path class="cls-23" d="M355.71,645.88a22.93,22.93,0,0,1-7.13,16.56v-9.1H314.15v9.1a22.76,22.76,0,0,1,0-33.11v9.09h34.43v-9.09a22.91,22.91,0,0,1,7.13,16.55Z"/><path class="cls-24" d="M354.09,645.88a21.67,21.67,0,0,1-6.66,15.59v-8.13H315.29v8.13a21.59,21.59,0,0,1,0-31.17v8.12h32.14V630.3a21.66,21.66,0,0,1,6.66,15.58Z"/><path class="cls-25" d="M353.29,645.37A21.42,21.42,0,1,1,331.87,624a21.42,21.42,0,0,1,21.42,21.42Z"/><path class="cls-26" d="M351.87,645.37a20,20,0,1,1-20-20,20,20,0,0,1,20,20Z"/><path class="cls-27" d="M350.44,645.37a18.57,18.57,0,1,1-18.57-18.56,18.57,18.57,0,0,1,18.57,18.56Z"/><path class="cls-28" d="M349,645.37a17.14,17.14,0,1,1-17.14-17.13A17.14,17.14,0,0,1,349,645.37Z"/><path class="cls-29" d="M347.58,645.37a15.71,15.71,0,1,1-15.71-15.71,15.71,15.71,0,0,1,15.71,15.71Z"/><path class="cls-30" d="M346.15,645.37a14.28,14.28,0,1,1-14.28-14.28,14.28,14.28,0,0,1,14.28,14.28Z"/><path class="cls-31" d="M344.73,645.37a12.86,12.86,0,1,1-12.86-12.85,12.85,12.85,0,0,1,12.86,12.85Z"/><path class="cls-32" d="M343.3,645.37A11.43,11.43,0,1,1,331.87,634a11.43,11.43,0,0,1,11.43,11.42Z"/><path class="cls-33" d="M341.87,645.37a10,10,0,1,1-10-10,10,10,0,0,1,10,10Z"/><path class="cls-34" d="M340.44,645.37a8.57,8.57,0,1,1-8.57-8.57,8.57,8.57,0,0,1,8.57,8.57Z"/><path class="cls-35" d="M339,645.37a7.14,7.14,0,1,1-7.14-7.14,7.13,7.13,0,0,1,7.14,7.14Z"/><path class="cls-36" d="M337.59,645.37a5.72,5.72,0,1,1-5.72-5.71,5.71,5.71,0,0,1,5.72,5.71Z"/><path class="cls-37" d="M336.16,645.37a4.29,4.29,0,1,1-4.29-4.28,4.29,4.29,0,0,1,4.29,4.28Z"/><path class="cls-38" d="M334.73,645.37a2.86,2.86,0,1,1-2.86-2.85,2.86,2.86,0,0,1,2.86,2.85Z"/><path class="cls-39" d="M333.3,645.37a1.43,1.43,0,1,1-1.43-1.43,1.43,1.43,0,0,1,1.43,1.43Z"/></g><path class="cls-41" d="M305.75,288.73l9.18,146s5.83,1,15.15,2.35l-6.89-142.52-17.44-5.78Z"/><path class="cls-9" d="M387,315.73s-33.07-11-63.84-21.22L330.08,437c22.71,3.2,66.26,8,97.47,3.28C443.82,381.22,387,315.73,387,315.73Z"/><path class="cls-42" d="M316.65,159.17a37.33,37.33,0,0,0-16.93,33.66l5.87,93.26.16,2.64,17.44,5.76-6.54-135.32Z"/><path class="cls-43" d="M387,315.73l.23-.11c2.05-44,22-59.88,22-59.88-29.11-16.23-36.38-63.11-24.88-105.68l-49.73,3.13a37.12,37.12,0,0,0-18,6l6.54,135.32c30.07,10,63.84,21.24,63.84,21.24Z"/><path class="cls-41" d="M451.63,285.87v-.14l-64.59,30s56.79,65.49,40.52,124.58A97.88,97.88,0,0,0,441,437.36c-4.06-9-2.64-20.68,18.45-27.34l-6.05-96.13a26.57,26.57,0,0,0,9.11,3.68c20.62,4.51,28.76,10.47,28.76,10.47s8.06-9.39,11.05-17.9c-3.85-7.59-32.71-36.76-50.68-24.27Z"/><path class="cls-42" d="M412.18,148.93a37.4,37.4,0,0,0-6.63-.2l-21.14,1.33c-11.5,42.57-4.23,89.45,24.88,105.68,0,0-20,15.88-22,59.88l64.36-29.89-.55-8.79-5.87-93.26a37.36,37.36,0,0,0-33-34.75Z"/><polygon class="cls-10" points="305.75 288.73 374.96 311.71 359.86 330.23 348.93 315.31 339.69 322.14 305.75 288.73 305.75 288.73"/><path class="cls-14" d="M362.25,239.23c.29,4.59-2.2,8.48-5.54,8.7s-6.3-3.35-6.59-7.94,2.2-8.49,5.54-8.7,6.3,3.34,6.59,7.94Z"/><polygon class="cls-10" points="451.62 285.73 395.83 311.64 412.39 329.07 422.41 311.95 432.44 317.56 451.62 285.73 451.62 285.73"/><path class="cls-14" d="M408.6,236.31c.29,4.59,3.24,8.14,6.59,7.94s5.83-4.11,5.54-8.7-3.24-8.15-6.59-7.94-5.83,4.11-5.54,8.7Z"/><path class="cls-10" d="M325.23,302.75s-28.85,8.89-22.4,47.72c0,0-16.16,2.85-17.72,1.11-2.86-3.18-10-29.16-4.09-46.51,7.12-20.83,32.54-22.17,44.21-2.32Z"/><path class="cls-10" d="M411.87,276.44a62.08,62.08,0,0,1-.53,10.23,45.61,45.61,0,0,0,2.28-12c-.57.64-1.16,1.24-1.75,1.81Z"/><path class="cls-10" d="M369.9,275.88c-2.33-1.38-3.69-2.4-3.69-2.4s-1.33,15.07,7.23,24c-5.32-9.12-4.65-17.16-3.54-21.56Z"/><path class="cls-9" d="M369.9,275.88c-1.11,4.4-1.78,12.44,3.54,21.56,3.29,3.42,8,5.95,14.87,6.32,14,.74,20.22-8.75,23-17.09a62.08,62.08,0,0,0,.53-10.23c-14.21,13.5-33.89,4.24-42-.56Z"/><path class="cls-44" d="M459.44,410h0s-8.09-1.1-12.54,0-7.09,4.53-4.89,10.77h0c2.92-4.1,8.34-7.9,17.42-10.76Z"/><path class="cls-45" d="M320.14,150.35s-45.46,1.61-19,64.87c0,0,44.59-35.27,19-64.87Z"/><path class="cls-46" d="M419.66,144.09s45.3-4.09,27,62c0,0-48.66-29.4-27-62Z"/><path class="cls-45" d="M320.14,150.35s51.8,92.87,106.91,37.6c0,0,16.55-17.9,11-41.27,0,0-2.16,5.76-9.55,8.71,0,0,8.12-7.37,3.38-34.54,0,0-9.19,30.54-41.62,20.72s-62-14.2-70.16,8.78Z"/><path class="cls-42" d="M502.31,310.14c-3,8.51-11.05,17.9-11.05,17.9,52,37.55-22.16,79-31.82,82h0c-9.08,2.86-14.5,6.66-17.42,10.76-3.87,5.44-3.34,11.43-1,16.58,3.19,7.1,9.75,12.59,12.83,12.83,7,.55,5.7-2.58,18.45-8.32s11.87-14.16,11.87-14.16,40.36-36.84,43-64.29-24.85-53.28-24.85-53.28Z"/><path class="cls-46" d="M360.19,185.86s42.13,19.65,72.3-16.35c0,0,4.62-6,5.71-16.11,0,0-1.47,29.25-24.1,39.09-11.56,5-31,7.64-53.91-6.63Z"/><path class="cls-46" d="M326.36,145.7s8.56-20.69,55.83-4.58c0,0-39.31-11.67-55.83,4.58Z"/><path class="cls-46" d="M395.77,171.22s37.75-1.07,34.58-40.36c0,0-1.49,31.4-34.58,40.36Z"/><path class="cls-47" d="M321.62,151.68s24.73,43.26,58.94,50.33c0,0-29.47-8.38-58.94-50.33Z"/><path class="cls-47" d="M321.57,153.4s10.53,14.82-1.12,36.12c-9.69,16.85-17.85,21.93-17.85,21.93s32-28.16,19-58Z"/><path class="cls-46" d="M318.74,153.31s-25.58,2.87-21.77,35.81c0,0,1-26.29,21.77-35.81Z"/><path class="cls-48" d="M331,224.26a1,1,0,0,1-.6-.2,1,1,0,0,1-.23-1.42c10.07-14,31.68-.9,31.9-.77a1,1,0,0,1,.33,1.41,1,1,0,0,1-1.4.33c-.21-.12-20.21-12.27-29.17.22a1,1,0,0,1-.83.43Z"/><path class="cls-48" d="M430.35,219.55a1,1,0,0,1-.48-.11c-.16-.09-16.49-8.59-21.95-.54a1,1,0,0,1-1.69-1.15c6.48-9.57,23.86-.51,24.6-.12a1,1,0,0,1-.48,1.92Z"/><path class="cls-14" d="M347.9,607s-35.31-14.38-50.65,4.32c0,0,.47,2.88,16.77,2.88s34-1.92,33.88-7.2Z"/><path class="cls-14" d="M413.53,602.7s35.31-14.38,50.66,4.32c0,0-.48,2.88-16.78,2.88s-34-1.92-33.88-7.2Z"/><polygon class="cls-49" points="381.53 302.95 374.29 311.83 394.13 326.18 410.26 311.04 402.41 302.88 393.61 306.97 381.53 302.95 381.53 302.95"/><polygon class="cls-50" points="383.41 318.43 380.31 375.73 405.79 398.71 420.31 373.22 403.33 317.55 394.13 326.18 383.41 318.43 383.41 318.43"/><path class="cls-43" d="M285.11,351.58s14.9,65.07,98,58.82c37.73-3.89,49.71-15.6,49.71-15.6s11,2.86,21.14-7.91c8.6-9.15,1.5-19.07,1.5-19.07s-9.23-16.39-22.64-3c0,0,3.45-19.24-14.93-15.34A50,50,0,0,1,420,370.82s-87.5,57.65-117.18-20.35l-17.72,1.11Z"/></svg>