<svg id="Layer_1" data-name="Layer 1" xmlns="http://www.w3.org/2000/svg" xmlns:xlink="http://www.w3.org/1999/xlink" viewBox="0 0 1280 720"><defs><style>.cls-1{fill:none;clip-rule:evenodd;}.cls-2{fill:url(#linear-gradient);}.cls-3{fill:url(#linear-gradient-2);}.cls-4{clip-path:url(#clip-path);}.cls-5{fill:#ad6a3c;}.cls-6{clip-path:url(#clip-path-2);}.cls-7{fill:#e75d3a;}.cls-8{clip-path:url(#clip-path-3);}.cls-9{fill:#004361;}.cls-10{clip-path:url(#clip-path-4);}.cls-11{fill:#389efe;}.cls-12{clip-path:url(#clip-path-5);}.cls-13{fill:#03a84e;}.cls-14{clip-path:url(#clip-path-6);}.cls-15{clip-path:url(#clip-path-7);}.cls-16{fill:#f0b474;}.cls-17{clip-path:url(#clip-path-8);}.cls-18{fill:#81b652;}.cls-19{clip-path:url(#clip-path-9);}.cls-20{clip-path:url(#clip-path-10);}.cls-21{clip-path:url(#clip-path-11);}.cls-22{clip-path:url(#clip-path-12);}.cls-23{clip-path:url(#clip-path-13);}.cls-24{clip-path:url(#clip-path-14);}.cls-25{clip-path:url(#clip-path-15);}.cls-26{clip-path:url(#clip-path-16);}.cls-27{fill:#003b56;}.cls-28{clip-path:url(#clip-path-17);}.cls-29{clip-path:url(#clip-path-18);}.cls-30{fill:#a0b5c4;}.cls-31{clip-path:url(#clip-path-19);}.cls-32{fill:#4f788f;}.cls-33{clip-path:url(#clip-path-20);}.cls-34{clip-path:url(#clip-path-21);}.cls-35{fill:#162e45;}.cls-36{clip-path:url(#clip-path-22);}.cls-37{clip-path:url(#clip-path-23);}.cls-38{clip-path:url(#clip-path-24);}.cls-39{clip-path:url(#clip-path-25);}.cls-40{clip-path:url(#clip-path-26);}.cls-41{clip-path:url(#clip-path-27);}.cls-42{clip-path:url(#clip-path-28);}.cls-43{clip-path:url(#clip-path-29);}</style><linearGradient id="linear-gradient" x1="-88.38" y1="795.03" x2="1072.54" y2="-68.82" gradientUnits="userSpaceOnUse"><stop offset="0" stop-color="#e55732"/><stop offset="1" stop-color="#e88e30"/></linearGradient><linearGradient id="linear-gradient-2" x1="1111.09" y1="300.84" x2="985.13" y2="405.81" xlink:href="#linear-gradient"/><clipPath id="clip-path"><polyline id="SVGID" class="cls-1" points="1035.05 591.05 989.5 564.75 943.94 107.62 989.5 81.32 1035.05 107.62 1035.05 591.05"/></clipPath><clipPath id="clip-path-2"><polyline id="SVGID-2" data-name="SVGID" class="cls-1" points="975.2 120.3 953.24 107.62 989.5 86.69 990.2 87.09 975.2 120.3"/></clipPath><clipPath id="clip-path-3"><path id="SVGID-3" data-name="SVGID" class="cls-1" d="M1035.05,595.7a4.69,4.69,0,0,1-2.32-.62l-45.56-26.31a4.64,4.64,0,0,1-2.3-3.56L939.32,108.08a4.65,4.65,0,0,1,2.3-4.48l45.55-26.3a4.65,4.65,0,0,1,4.65,0l45.56,26.3a4.63,4.63,0,0,1,2.32,4V591.05a4.64,4.64,0,0,1-4.65,4.65m-41.16-33.78L1030.41,583V110.31L989.5,86.69l-40.63,23.46,45,451.77"/></clipPath><clipPath id="clip-path-4"><polyline id="SVGID-4" data-name="SVGID" class="cls-1" points="989.5 617.35 1035.05 591.05 1035.05 107.62 989.5 133.92 989.5 617.35"/></clipPath><clipPath id="clip-path-5"><path id="SVGID-5" data-name="SVGID" class="cls-1" d="M1030.41,160.11l-11.63-.39V122.39l11.63-6.72v44.44m-11.63,435V478.92l11.63-6.76V588.37l-11.63,6.71"/></clipPath><clipPath id="clip-path-6"><path id="SVGID-6" data-name="SVGID" class="cls-1" d="M989.5,622a4.73,4.73,0,0,1-2.33-.62,4.67,4.67,0,0,1-2.32-4V133.92a4.65,4.65,0,0,1,2.32-4l45.56-26.3a4.65,4.65,0,0,1,7,4V591.05a4.66,4.66,0,0,1-2.32,4l-45.56,26.3a4.69,4.69,0,0,1-2.32.62m4.65-485.39V609.3l36.26-20.93V115.67l-36.26,20.94"/></clipPath><clipPath id="clip-path-7"><polyline id="SVGID-7" data-name="SVGID" class="cls-1" points="989.5 617.35 943.94 591.05 943.94 107.62 989.5 133.92 989.5 617.35"/></clipPath><clipPath id="clip-path-8"><path id="SVGID-8" data-name="SVGID" class="cls-1" d="M948.59,220.67v-105l19.3,11.15v70.91l-19.3,22.94m19.3,378.84-19.3-11.14V519.7l19.3-11.21v91"/></clipPath><clipPath id="clip-path-9"><path id="SVGID-9" data-name="SVGID" class="cls-1" d="M989.5,622a4.73,4.73,0,0,1-2.33-.62l-45.55-26.3a4.66,4.66,0,0,1-2.32-4V107.62a4.65,4.65,0,0,1,7-4l45.55,26.3a4.64,4.64,0,0,1,2.33,4V617.35A4.65,4.65,0,0,1,989.5,622m-40.91-33.63,36.26,20.93V136.61l-36.26-20.94v472.7"/></clipPath><clipPath id="clip-path-10"><polyline id="SVGID-10" data-name="SVGID" class="cls-1" points="1159.46 169.11 1002.5 163.82 819.79 380.97 819.79 405.26 852.34 427.56 852.34 530.63 880.77 559.12 1156.78 350.44 1156.78 210.69 1217.77 193.01 1159.46 169.11"/></clipPath><clipPath id="clip-path-11"><path id="SVGID-11" data-name="SVGID" class="cls-1" d="M852.34,421.92l-27.91-19.11V382.66L987.16,189.28,852.34,404v17.93m13.54,115.7-8.9-8.91V427.56a4.75,4.75,0,0,0-.34-1.76L865,421l1.18,1.6-.27,115"/></clipPath><clipPath id="clip-path-12"><path id="SVGID-12" data-name="SVGID" class="cls-1" d="M880.77,563.76a4.66,4.66,0,0,1-3.29-1.36l-28.43-28.49a4.64,4.64,0,0,1-1.36-3.28V430L817.16,409.1a4.65,4.65,0,0,1-2-3.84V381a4.63,4.63,0,0,1,1.09-3L999,160.83a4.57,4.57,0,0,1,3.71-1.66l157,5.3a4.63,4.63,0,0,1,1.6.34l58.31,23.9a4.65,4.65,0,0,1-.46,8.76l-57.64,16.72V350.44a4.65,4.65,0,0,1-1.84,3.71l-276,208.67a4.66,4.66,0,0,1-2.81.94m-23.79-35L881.2,553l270.93-204.83V210.69a4.65,4.65,0,0,1,3.36-4.46l48.19-14-45.21-18.53-153.86-5.19L824.43,382.66v20.15L855,423.72a4.64,4.64,0,0,1,2,3.84V528.71"/></clipPath><clipPath id="clip-path-13"><polyline id="SVGID-13" data-name="SVGID" class="cls-1" points="1217.77 193.01 1035.05 186.85 852.34 403.99 852.34 428.29 880.77 411.87 880.77 559.12 1189.33 379.81 1189.33 233.72 1217.77 217.3 1217.77 193.01"/></clipPath><clipPath id="clip-path-14"><polyline id="SVGID-14" data-name="SVGID" class="cls-1" points="906.81 347.32 906.81 346.74 1035.05 189.57 1217.77 195.73 1041.35 206.72 906.81 347.32"/></clipPath><clipPath id="clip-path-15"><polyline id="SVGID-15" data-name="SVGID" class="cls-1" points="994.15 595.37 994.15 493.23 1018.78 478.92 994.15 595.37"/></clipPath><clipPath id="clip-path-16"><polyline id="SVGID-16" data-name="SVGID" class="cls-1" points="989.5 617.35 991.37 494.84 994.15 493.23 994.15 595.37 989.5 617.35"/></clipPath><clipPath id="clip-path-17"><polyline id="SVGID-17" data-name="SVGID" class="cls-1" points="991.37 494.84 991.38 494.55 1018.78 478.92 991.37 494.84"/></clipPath><clipPath id="clip-path-18"><polyline id="SVGID-18" data-name="SVGID" class="cls-1" points="907.16 544.99 907.31 544.88 907.31 544.91 907.16 544.99"/></clipPath><clipPath id="clip-path-19"><polyline id="SVGID-19" data-name="SVGID" class="cls-1" points="880.77 559.12 880.77 559.12 907.31 543.69 907.31 544.88 907.16 544.99 880.77 559.12"/></clipPath><clipPath id="clip-path-20"><polyline id="SVGID-20" data-name="SVGID" class="cls-1" points="880.77 559.12 880.77 411.87 852.34 428.29 852.34 403.99 906.79 339.28 906.81 346.74 903.57 350.71 906.81 347.32 907.31 543.69 880.77 559.12"/></clipPath><clipPath id="clip-path-21"><polyline id="SVGID-21" data-name="SVGID" class="cls-1" points="903.57 350.71 906.81 346.74 906.81 347.32 903.57 350.71"/></clipPath><clipPath id="clip-path-22"><polyline id="SVGID-22" data-name="SVGID" class="cls-1" points="1174.42 389.76 1174.42 388.47 1183.21 383.36 1174.42 389.76"/></clipPath><clipPath id="clip-path-23"><polyline id="SVGID-23" data-name="SVGID" class="cls-1" points="1174.42 388.47 1175 221.24 1215.19 200.03 1215.19 218.28 1186.75 234.7 1186.75 380.79 1183.21 383.36 1174.42 388.47"/></clipPath><clipPath id="clip-path-24"><path id="SVGID-24" data-name="SVGID" class="cls-1" d="M880.77,563.76a4.59,4.59,0,0,1-2.32-.62,4.65,4.65,0,0,1-2.33-4V419.92l-21.46,12.39a4.65,4.65,0,0,1-7-4V404a4.63,4.63,0,0,1,1.09-3L1031.5,183.85a4.62,4.62,0,0,1,3.71-1.65l182.72,6.16a4.66,4.66,0,0,1,4.49,4.65V217.3a4.67,4.67,0,0,1-2.32,4L1194,236.41v143.4a4.64,4.64,0,0,1-2.31,4L883.11,563.13A4.64,4.64,0,0,1,880.77,563.76Zm0-156.54a4.7,4.7,0,0,1,2.33.62,4.65,4.65,0,0,1,2.32,4V551l299.27-173.91V233.72a4.63,4.63,0,0,1,2.32-4l26.11-15.08V197.5l-176-5.93L857,405.69v14.55l21.47-12.4A4.69,4.69,0,0,1,880.77,407.22Z"/></clipPath><clipPath id="clip-path-25"><path id="SVGID-25" data-name="SVGID" class="cls-1" d="M852.33,408.64a4.6,4.6,0,0,1-2.68-.85l-32.55-23a4.65,4.65,0,1,1,5.37-7.59l32.55,23a4.65,4.65,0,0,1-2.69,8.44"/></clipPath><clipPath id="clip-path-26"><path id="SVGID-26" data-name="SVGID" class="cls-1" d="M915.57,393.25a143.63,143.63,0,0,1,19.9-13.72c11.09-6.4,18.24-7.83,23.25-4.68,4,2.43,6.31,8.43,6.31,16.7,0,14.14-6.67,27.37-15.13,36.07v.48c6.19-.72,9.89,4.77,11.8,14.8,2.62,13.42,4.53,22.65,6.19,25.82l-10.72,6.19c-1.31-2.26-3.1-10.45-5.37-22.49-2.38-13.4-6.67-16.49-16.09-11.53l-9.77,5.65v46.4l-10.37,6Zm10.37,42.8,10.61-6.13a36.34,36.34,0,0,0,18.11-30.8c0-13.82-7.51-15.53-18.47-9.36A58.17,58.17,0,0,0,925.94,397Z"/></clipPath><clipPath id="clip-path-27"><polyline id="SVGID-27" data-name="SVGID" class="cls-1" points="1021.29 387.67 990.06 405.7 990.06 444.32 1024.87 424.23 1024.87 435.83 979.69 461.91 979.69 354.79 1023.08 329.74 1023.08 341.35 990.06 360.41 990.06 394.26 1021.29 376.23 1021.29 387.67"/></clipPath><clipPath id="clip-path-28"><path id="SVGID-28" data-name="SVGID" class="cls-1" d="M1038.33,428.05V320.94l11.33-6.54,25.74,39.33a176.15,176.15,0,0,1,14.42,26.47l.24-.29c-1-13.75-1.19-26.65-1.19-43.33V291.76l9.78-5.64V393.23l-10.49,6.06-25.51-39.63a195.12,195.12,0,0,1-15-27.09l-.36.37c.6,13.16.84,25.9.84,43.7v45.77l-9.78,5.64"/></clipPath><clipPath id="clip-path-29"><polyline id="SVGID-29" data-name="SVGID" class="cls-1" points="1132.02 278.61 1107.58 292.72 1107.58 280.96 1167.06 246.62 1167.06 258.38 1142.51 272.55 1142.51 367.91 1132.02 373.96 1132.02 278.61"/></clipPath></defs><title>Lettings</title><path class="cls-2" d="M0,0V671.32C384.57,506.2,687.3,487.37,899,504c151.35,11.89,275,43.36,381,2.08V0Z"/><circle class="cls-3" cx="1081.5" cy="325.5" r="222.5"/><g class="cls-4"><rect class="cls-5" x="938.13" y="75.51" width="102.73" height="521.35"/></g><g class="cls-6"><rect class="cls-7" x="947.43" y="80.88" width="48.58" height="45.23"/></g><g class="cls-8"><rect class="cls-9" x="933.48" y="70.86" width="112.03" height="530.65"/></g><g class="cls-10"><rect class="cls-11" x="983.69" y="101.81" width="57.18" height="521.35"/></g><g class="cls-12"><rect class="cls-13" x="1012.97" y="109.86" width="23.25" height="491.03"/></g><g class="cls-14"><rect class="cls-9" x="979.04" y="97.16" width="66.47" height="530.65"/></g><g class="cls-15"><rect class="cls-16" x="938.13" y="101.81" width="57.18" height="521.35"/></g><g class="cls-17"><rect class="cls-18" x="942.78" y="109.86" width="30.92" height="495.46"/></g><g class="cls-19"><rect class="cls-9" x="933.48" y="97.16" width="66.47" height="530.65"/></g><g class="cls-20"><rect class="cls-5" x="813.97" y="158.01" width="409.61" height="406.92"/></g><g class="cls-21"><rect class="cls-7" x="818.62" y="183.47" width="174.35" height="359.96"/></g><g class="cls-22"><rect class="cls-9" x="809.33" y="153.36" width="418.91" height="416.22"/></g><g class="cls-23"><rect class="cls-11" x="846.52" y="181.04" width="377.06" height="383.89"/></g><g class="cls-24"><rect x="901" y="183.76" width="322.58" height="169.37"/></g><g class="cls-25"><rect x="988.34" y="473.11" width="36.25" height="128.08"/></g><g class="cls-26"><rect class="cls-27" x="983.69" y="487.42" width="16.27" height="135.74"/></g><g class="cls-28"><rect x="985.56" y="473.11" width="39.03" height="27.55"/></g><g class="cls-29"><rect class="cls-30" x="901.35" y="539.07" width="11.77" height="11.73"/></g><g class="cls-31"><rect class="cls-32" x="874.96" y="537.88" width="38.16" height="27.04"/></g><g class="cls-33"><rect class="cls-13" x="846.52" y="333.47" width="66.6" height="231.46"/></g><g class="cls-34"><rect class="cls-35" x="897.75" y="340.93" width="14.87" height="15.6"/></g><g class="cls-36"><rect class="cls-30" x="1168.61" y="377.55" width="20.42" height="18.02"/></g><g class="cls-37"><rect class="cls-13" x="1168.61" y="194.22" width="52.39" height="200.06"/></g><g class="cls-38"><rect class="cls-9" x="841.88" y="176.39" width="386.36" height="393.19"/></g><g class="cls-39"><rect class="cls-9" x="809.33" y="370.51" width="53.47" height="43.95"/></g><g class="cls-40"><rect class="cls-9" x="909.76" y="367.43" width="63.95" height="137.31"/></g><g class="cls-41"><rect class="cls-9" x="973.88" y="323.93" width="56.8" height="143.79"/></g><g class="cls-42"><rect class="cls-9" x="1032.52" y="280.31" width="71.93" height="153.56"/></g><g class="cls-43"><rect class="cls-9" x="1101.77" y="240.81" width="71.1" height="138.97"/></g></svg>