<svg id="Layer_1" data-name="Layer 1" xmlns="http://www.w3.org/2000/svg" xmlns:xlink="http://www.w3.org/1999/xlink" viewBox="0 0 1280 720"><defs><style>.cls-1{fill:none;clip-rule:evenodd;}.cls-2{fill:#e55732;}.cls-3{clip-path:url(#clip-path);}.cls-4{fill:#ad6a3c;}.cls-5{clip-path:url(#clip-path-2);}.cls-6{fill:#e75d3a;}.cls-7{clip-path:url(#clip-path-3);}.cls-8{fill:#004361;}.cls-9{clip-path:url(#clip-path-4);}.cls-10{fill:#389efe;}.cls-11{clip-path:url(#clip-path-5);}.cls-12{fill:#03a84e;}.cls-13{clip-path:url(#clip-path-6);}.cls-14{clip-path:url(#clip-path-7);}.cls-15{fill:#f0b474;}.cls-16{clip-path:url(#clip-path-8);}.cls-17{fill:#81b652;}.cls-18{clip-path:url(#clip-path-9);}.cls-19{clip-path:url(#clip-path-10);}.cls-20{clip-path:url(#clip-path-11);}.cls-21{clip-path:url(#clip-path-12);}.cls-22{clip-path:url(#clip-path-13);}.cls-23{clip-path:url(#clip-path-14);}.cls-24{clip-path:url(#clip-path-15);}.cls-25{clip-path:url(#clip-path-16);}.cls-26{fill:#003b56;}.cls-27{clip-path:url(#clip-path-17);}.cls-28{clip-path:url(#clip-path-18);}.cls-29{fill:#a0b5c4;}.cls-30{clip-path:url(#clip-path-19);}.cls-31{fill:#4f788f;}.cls-32{clip-path:url(#clip-path-20);}.cls-33{clip-path:url(#clip-path-21);}.cls-34{fill:#162e45;}.cls-35{clip-path:url(#clip-path-22);}.cls-36{clip-path:url(#clip-path-23);}.cls-37{clip-path:url(#clip-path-24);}.cls-38{clip-path:url(#clip-path-25);}.cls-39{clip-path:url(#clip-path-26);}.cls-40{clip-path:url(#clip-path-27);}.cls-41{clip-path:url(#clip-path-28);}.cls-42{clip-path:url(#clip-path-29);}</style><clipPath id="clip-path"><polyline id="SVGID" class="cls-1" points="305.05 649.05 259.5 622.75 213.94 165.62 259.5 139.32 305.05 165.62 305.05 649.05"/></clipPath><clipPath id="clip-path-2"><polyline id="SVGID-2" data-name="SVGID" class="cls-1" points="245.2 178.3 223.24 165.62 259.5 144.69 260.2 145.09 245.2 178.3"/></clipPath><clipPath id="clip-path-3"><path id="SVGID-3" data-name="SVGID" class="cls-1" d="M305.05,653.7a4.69,4.69,0,0,1-2.32-.62l-45.56-26.31a4.64,4.64,0,0,1-2.3-3.56L209.32,166.08a4.65,4.65,0,0,1,2.3-4.48l45.55-26.3a4.65,4.65,0,0,1,4.65,0l45.56,26.3a4.63,4.63,0,0,1,2.32,4V649.05a4.64,4.64,0,0,1-4.65,4.65m-41.16-33.78L300.41,641V168.31L259.5,144.69l-40.63,23.46,45,451.77"/></clipPath><clipPath id="clip-path-4"><polyline id="SVGID-4" data-name="SVGID" class="cls-1" points="259.5 675.35 305.05 649.05 305.05 165.62 259.5 191.92 259.5 675.35"/></clipPath><clipPath id="clip-path-5"><path id="SVGID-5" data-name="SVGID" class="cls-1" d="M300.41,218.11l-11.63-.39V180.39l11.63-6.72v44.44m-11.63,435V536.92l11.63-6.76V646.37l-11.63,6.71"/></clipPath><clipPath id="clip-path-6"><path id="SVGID-6" data-name="SVGID" class="cls-1" d="M259.5,680a4.73,4.73,0,0,1-2.33-.62,4.67,4.67,0,0,1-2.32-4V191.92a4.65,4.65,0,0,1,2.32-4l45.56-26.3a4.65,4.65,0,0,1,7,4V649.05a4.66,4.66,0,0,1-2.32,4l-45.56,26.3a4.69,4.69,0,0,1-2.32.62m4.65-485.39V667.3l36.26-20.93V173.67l-36.26,20.94"/></clipPath><clipPath id="clip-path-7"><polyline id="SVGID-7" data-name="SVGID" class="cls-1" points="259.5 675.35 213.94 649.05 213.94 165.62 259.5 191.92 259.5 675.35"/></clipPath><clipPath id="clip-path-8"><path id="SVGID-8" data-name="SVGID" class="cls-1" d="M218.59,278.67v-105l19.3,11.15v70.91l-19.3,22.94m19.3,378.84-19.3-11.14V577.7l19.3-11.21v91"/></clipPath><clipPath id="clip-path-9"><path id="SVGID-9" data-name="SVGID" class="cls-1" d="M259.5,680a4.73,4.73,0,0,1-2.33-.62l-45.55-26.3a4.66,4.66,0,0,1-2.32-4V165.62a4.65,4.65,0,0,1,7-4l45.55,26.3a4.64,4.64,0,0,1,2.33,4V675.35A4.65,4.65,0,0,1,259.5,680m-40.91-33.63,36.26,20.93V194.61l-36.26-20.94v472.7"/></clipPath><clipPath id="clip-path-10"><polyline id="SVGID-10" data-name="SVGID" class="cls-1" points="429.46 227.11 272.5 221.82 89.79 438.97 89.79 463.26 122.34 485.56 122.34 588.63 150.77 617.12 426.78 408.44 426.78 268.69 487.77 251.01 429.46 227.11"/></clipPath><clipPath id="clip-path-11"><path id="SVGID-11" data-name="SVGID" class="cls-1" d="M122.34,479.92,94.43,460.81V440.66L257.16,247.28,122.34,462v17.93m13.54,115.7-8.9-8.91V485.56a4.75,4.75,0,0,0-.34-1.76L135,479l1.18,1.6-.27,115"/></clipPath><clipPath id="clip-path-12"><path id="SVGID-12" data-name="SVGID" class="cls-1" d="M150.77,621.76a4.66,4.66,0,0,1-3.29-1.36l-28.43-28.49a4.64,4.64,0,0,1-1.36-3.28V488L87.16,467.1a4.65,4.65,0,0,1-2-3.84V439a4.63,4.63,0,0,1,1.09-3L269,218.83a4.57,4.57,0,0,1,3.71-1.66l157,5.3a4.63,4.63,0,0,1,1.6.34l58.31,23.9a4.65,4.65,0,0,1-.46,8.76l-57.64,16.72V408.44a4.65,4.65,0,0,1-1.84,3.71l-276,208.67a4.66,4.66,0,0,1-2.81.94m-23.79-35L151.2,611,422.13,406.13V268.69a4.65,4.65,0,0,1,3.36-4.46l48.19-14-45.21-18.53-153.86-5.19L94.43,440.66v20.15L125,481.72a4.64,4.64,0,0,1,2,3.84V586.71"/></clipPath><clipPath id="clip-path-13"><polyline id="SVGID-13" data-name="SVGID" class="cls-1" points="487.77 251.01 305.05 244.85 122.34 461.99 122.34 486.29 150.77 469.87 150.77 617.12 459.33 437.81 459.33 291.72 487.77 275.3 487.77 251.01"/></clipPath><clipPath id="clip-path-14"><polyline id="SVGID-14" data-name="SVGID" class="cls-1" points="176.81 405.32 176.81 404.74 305.05 247.57 487.77 253.73 311.35 264.72 176.81 405.32"/></clipPath><clipPath id="clip-path-15"><polyline id="SVGID-15" data-name="SVGID" class="cls-1" points="264.15 653.37 264.15 551.23 288.78 536.92 264.15 653.37"/></clipPath><clipPath id="clip-path-16"><polyline id="SVGID-16" data-name="SVGID" class="cls-1" points="259.5 675.35 261.37 552.84 264.15 551.23 264.15 653.37 259.5 675.35"/></clipPath><clipPath id="clip-path-17"><polyline id="SVGID-17" data-name="SVGID" class="cls-1" points="261.37 552.84 261.38 552.55 288.78 536.92 261.37 552.84"/></clipPath><clipPath id="clip-path-18"><polyline id="SVGID-18" data-name="SVGID" class="cls-1" points="177.16 602.99 177.31 602.88 177.31 602.91 177.16 602.99"/></clipPath><clipPath id="clip-path-19"><polyline id="SVGID-19" data-name="SVGID" class="cls-1" points="150.77 617.12 150.77 617.12 177.31 601.69 177.31 602.88 177.16 602.99 150.77 617.12"/></clipPath><clipPath id="clip-path-20"><polyline id="SVGID-20" data-name="SVGID" class="cls-1" points="150.77 617.12 150.77 469.87 122.34 486.29 122.34 461.99 176.79 397.28 176.81 404.74 173.56 408.71 176.81 405.32 177.31 601.69 150.77 617.12"/></clipPath><clipPath id="clip-path-21"><polyline id="SVGID-21" data-name="SVGID" class="cls-1" points="173.56 408.71 176.81 404.74 176.81 405.32 173.56 408.71"/></clipPath><clipPath id="clip-path-22"><polyline id="SVGID-22" data-name="SVGID" class="cls-1" points="444.42 447.76 444.42 446.47 453.21 441.36 444.42 447.76"/></clipPath><clipPath id="clip-path-23"><polyline id="SVGID-23" data-name="SVGID" class="cls-1" points="444.42 446.47 445 279.24 485.19 258.03 485.19 276.29 456.75 292.7 456.75 438.79 453.21 441.36 444.42 446.47"/></clipPath><clipPath id="clip-path-24"><path id="SVGID-24" data-name="SVGID" class="cls-1" d="M150.77,621.76a4.59,4.59,0,0,1-2.32-.62,4.65,4.65,0,0,1-2.33-4V477.92l-21.46,12.39a4.65,4.65,0,0,1-7-4V462a4.63,4.63,0,0,1,1.09-3L301.5,241.85a4.62,4.62,0,0,1,3.71-1.65l182.72,6.16a4.66,4.66,0,0,1,4.49,4.65V275.3a4.67,4.67,0,0,1-2.32,4L464,294.41v143.4a4.64,4.64,0,0,1-2.31,4L153.11,621.13A4.64,4.64,0,0,1,150.77,621.76Zm0-156.54a4.7,4.7,0,0,1,2.33.62,4.65,4.65,0,0,1,2.32,4V609L454.69,435.13V291.72a4.63,4.63,0,0,1,2.32-4l26.11-15.08V255.5l-176-5.93L127,463.69v14.55l21.47-12.4A4.69,4.69,0,0,1,150.77,465.22Z"/></clipPath><clipPath id="clip-path-25"><path id="SVGID-25" data-name="SVGID" class="cls-1" d="M122.33,466.64a4.6,4.6,0,0,1-2.68-.85l-32.55-23a4.65,4.65,0,1,1,5.37-7.59l32.55,23a4.65,4.65,0,0,1-2.69,8.44"/></clipPath><clipPath id="clip-path-26"><path id="SVGID-26" data-name="SVGID" class="cls-1" d="M185.57,451.25a143.63,143.63,0,0,1,19.9-13.72c11.09-6.4,18.24-7.83,23.25-4.68,4.05,2.43,6.31,8.43,6.31,16.7,0,14.14-6.67,27.37-15.13,36.07v.48c6.19-.72,9.89,4.77,11.8,14.8,2.62,13.42,4.53,22.65,6.19,25.82l-10.72,6.19c-1.31-2.26-3.1-10.45-5.37-22.49-2.38-13.4-6.67-16.49-16.09-11.53l-9.77,5.65v46.4l-10.37,6Zm10.37,42.8,10.61-6.13a36.34,36.34,0,0,0,18.11-30.8c0-13.82-7.51-15.53-18.47-9.36A58.17,58.17,0,0,0,195.94,455Z"/></clipPath><clipPath id="clip-path-27"><polyline id="SVGID-27" data-name="SVGID" class="cls-1" points="291.29 445.67 260.06 463.7 260.06 502.32 294.87 482.23 294.87 493.83 249.69 519.91 249.69 412.79 293.08 387.74 293.08 399.35 260.06 418.41 260.06 452.26 291.29 434.23 291.29 445.67"/></clipPath><clipPath id="clip-path-28"><path id="SVGID-28" data-name="SVGID" class="cls-1" d="M308.33,486.05V378.94l11.33-6.54,25.74,39.33a176.15,176.15,0,0,1,14.42,26.47l.24-.29c-.95-13.75-1.19-26.65-1.19-43.33V349.76l9.78-5.64V451.23l-10.49,6.06-25.51-39.63a195.12,195.12,0,0,1-15-27.09l-.36.37c.6,13.16.84,25.9.84,43.7v45.77l-9.78,5.64"/></clipPath><clipPath id="clip-path-29"><polyline id="SVGID-29" data-name="SVGID" class="cls-1" points="402.02 336.61 377.58 350.72 377.58 338.96 437.06 304.62 437.06 316.38 412.51 330.55 412.51 425.91 402.02 431.96 402.02 336.61"/></clipPath></defs><title>Lettings</title><path class="cls-2" d="M0,0V671.32C384.57,506.2,687.3,487.37,899,504c151.35,11.89,275,43.36,381,2.08V0Z"/><g class="cls-3"><rect class="cls-4" x="208.13" y="133.51" width="102.73" height="521.35"/></g><g class="cls-5"><rect class="cls-6" x="217.43" y="138.88" width="48.58" height="45.23"/></g><g class="cls-7"><rect class="cls-8" x="203.48" y="128.86" width="112.03" height="530.65"/></g><g class="cls-9"><rect class="cls-10" x="253.69" y="159.81" width="57.18" height="521.35"/></g><g class="cls-11"><rect class="cls-12" x="282.97" y="167.86" width="23.25" height="491.03"/></g><g class="cls-13"><rect class="cls-8" x="249.04" y="155.16" width="66.47" height="530.65"/></g><g class="cls-14"><rect class="cls-15" x="208.13" y="159.81" width="57.18" height="521.35"/></g><g class="cls-16"><rect class="cls-17" x="212.78" y="167.86" width="30.92" height="495.46"/></g><g class="cls-18"><rect class="cls-8" x="203.48" y="155.16" width="66.47" height="530.65"/></g><g class="cls-19"><rect class="cls-4" x="83.97" y="216.01" width="409.61" height="406.92"/></g><g class="cls-20"><rect class="cls-6" x="88.62" y="241.47" width="174.35" height="359.96"/></g><g class="cls-21"><rect class="cls-8" x="79.33" y="211.36" width="418.91" height="416.22"/></g><g class="cls-22"><rect class="cls-10" x="116.52" y="239.04" width="377.06" height="383.89"/></g><g class="cls-23"><rect x="171" y="241.76" width="322.58" height="169.37"/></g><g class="cls-24"><rect x="258.34" y="531.11" width="36.25" height="128.08"/></g><g class="cls-25"><rect class="cls-26" x="253.69" y="545.42" width="16.27" height="135.74"/></g><g class="cls-27"><rect x="255.56" y="531.11" width="39.03" height="27.55"/></g><g class="cls-28"><rect class="cls-29" x="171.35" y="597.07" width="11.77" height="11.73"/></g><g class="cls-30"><rect class="cls-31" x="144.96" y="595.88" width="38.16" height="27.04"/></g><g class="cls-32"><rect class="cls-12" x="116.52" y="391.47" width="66.6" height="231.46"/></g><g class="cls-33"><rect class="cls-34" x="167.75" y="398.93" width="14.87" height="15.6"/></g><g class="cls-35"><rect class="cls-29" x="438.61" y="435.55" width="20.42" height="18.02"/></g><g class="cls-36"><rect class="cls-12" x="438.61" y="252.22" width="52.39" height="200.06"/></g><g class="cls-37"><rect class="cls-8" x="111.88" y="234.39" width="386.36" height="393.19"/></g><g class="cls-38"><rect class="cls-8" x="79.33" y="428.51" width="53.47" height="43.95"/></g><g class="cls-39"><rect class="cls-8" x="179.76" y="425.43" width="63.95" height="137.31"/></g><g class="cls-40"><rect class="cls-8" x="243.88" y="381.93" width="56.8" height="143.79"/></g><g class="cls-41"><rect class="cls-8" x="302.52" y="338.31" width="71.93" height="153.56"/></g><g class="cls-42"><rect class="cls-8" x="371.77" y="298.81" width="71.1" height="138.97"/></g></svg>