<svg id="Layer_1" data-name="Layer 1" xmlns="http://www.w3.org/2000/svg" xmlns:xlink="http://www.w3.org/1999/xlink" viewBox="0 0 1280 720"><defs><style>.cls-1,.cls-2{fill:none;}.cls-2{clip-rule:evenodd;}.cls-3{clip-path:url(#clip-path);}.cls-4{clip-path:url(#clip-path-2);}.cls-5{fill:#162e45;}.cls-6,.cls-7{font-size:12px;}.cls-6{font-family:Martel-Regular, Martel;}.cls-7{font-family:FiraCode-Bold, Fira Code;font-weight:700;}.cls-8{clip-path:url(#clip-path-4);}.cls-9{fill:#03a84e;}.cls-10{clip-path:url(#clip-path-7);}.cls-11{fill:#81b652;}.cls-12{clip-path:url(#clip-path-10);}.cls-13{fill:#f0b474;}.cls-14{clip-path:url(#clip-path-13);}.cls-15{fill:#e75d3a;}.cls-16{clip-path:url(#clip-path-16);}.cls-17{fill:#389efe;}.cls-18{clip-path:url(#clip-path-19);}.cls-19{fill:#ad6a3c;}.cls-20{clip-path:url(#clip-path-22);}.cls-21{clip-path:url(#clip-path-23);}.cls-22{clip-path:url(#clip-path-25);}.cls-23{clip-path:url(#clip-path-28);}.cls-24{clip-path:url(#clip-path-31);}.cls-25{clip-path:url(#clip-path-34);}.cls-26{clip-path:url(#clip-path-37);}.cls-27{clip-path:url(#clip-path-40);}.cls-28{clip-path:url(#clip-path-43);}.cls-29{fill:#f9dfc4;}.cls-30{clip-path:url(#clip-path-44);}.cls-31{fill:#f8d9b9;}.cls-32{clip-path:url(#clip-path-45);}.cls-33{clip-path:url(#clip-path-46);}.cls-34{clip-path:url(#clip-path-47);}.cls-35{clip-path:url(#clip-path-48);}.cls-36{clip-path:url(#clip-path-49);}.cls-37{fill:#774712;}.cls-38{clip-path:url(#clip-path-50);}.cls-39{fill:#ae9171;}.cls-40{clip-path:url(#clip-path-51);}.cls-41{fill:#da974d;}.cls-42{clip-path:url(#clip-path-52);}.cls-43{fill:#d1c0ae;}.cls-44{clip-path:url(#clip-path-53);}.cls-45{fill:#efaf6c;}.cls-46{clip-path:url(#clip-path-54);}.cls-47{fill:#e88e30;}.cls-48{clip-path:url(#clip-path-55);}.cls-49{fill:#f2c08b;}.cls-50{clip-path:url(#clip-path-56);}.cls-51{clip-path:url(#clip-path-57);}.cls-52{fill:#ce7615;}.cls-53{clip-path:url(#clip-path-58);}.cls-54{clip-path:url(#clip-path-59);}.cls-55{clip-path:url(#clip-path-60);}.cls-56{clip-path:url(#clip-path-61);}.cls-57{clip-path:url(#clip-path-62);}.cls-58{clip-path:url(#clip-path-63);}.cls-59{clip-path:url(#clip-path-64);}.cls-60{clip-path:url(#clip-path-65);}.cls-61{clip-path:url(#clip-path-66);}.cls-62{fill:#eda75e;}.cls-63{clip-path:url(#clip-path-67);}.cls-64{fill:#73410b;}.cls-65{clip-path:url(#clip-path-68);}.cls-66{clip-path:url(#clip-path-69);}.cls-67{clip-path:url(#clip-path-70);}.cls-68{clip-path:url(#clip-path-71);}.cls-69{clip-path:url(#clip-path-72);}.cls-70{clip-path:url(#clip-path-73);}.cls-71{clip-path:url(#clip-path-74);}.cls-72{clip-path:url(#clip-path-75);}.cls-73{fill:#c29766;}.cls-74{clip-path:url(#clip-path-76);}.cls-75{clip-path:url(#clip-path-77);}.cls-76{fill:#a05c10;}.cls-77{clip-path:url(#clip-path-78);}.cls-78{clip-path:url(#clip-path-79);}.cls-79{clip-path:url(#clip-path-80);}</style><clipPath id="clip-path"><rect class="cls-1" x="218" y="220" width="84" height="51" rx="9"/></clipPath><clipPath id="clip-path-2"><rect class="cls-1" x="218" y="200" width="684" height="94"/></clipPath><clipPath id="clip-path-4"><rect class="cls-1" x="320" y="220" width="84" height="51" rx="9"/></clipPath><clipPath id="clip-path-7"><rect class="cls-1" x="422" y="220" width="84" height="51" rx="9"/></clipPath><clipPath id="clip-path-10"><rect class="cls-1" x="521" y="220" width="84" height="51" rx="9"/></clipPath><clipPath id="clip-path-13"><rect class="cls-1" x="620" y="220" width="84" height="51" rx="9"/></clipPath><clipPath id="clip-path-16"><rect class="cls-1" x="719" y="220" width="84" height="51" rx="9"/></clipPath><clipPath id="clip-path-19"><rect class="cls-1" x="818" y="220" width="84" height="51" rx="9"/></clipPath><clipPath id="clip-path-22"><rect class="cls-1" x="220" y="104" width="84" height="51" rx="9"/></clipPath><clipPath id="clip-path-23"><rect class="cls-1" x="220" y="84" width="684" height="94"/></clipPath><clipPath id="clip-path-25"><rect class="cls-1" x="322" y="104" width="84" height="51" rx="9"/></clipPath><clipPath id="clip-path-28"><rect class="cls-1" x="424" y="104" width="84" height="51" rx="9"/></clipPath><clipPath id="clip-path-31"><rect class="cls-1" x="523" y="104" width="84" height="51" rx="9"/></clipPath><clipPath id="clip-path-34"><rect class="cls-1" x="622" y="104" width="84" height="51" rx="9"/></clipPath><clipPath id="clip-path-37"><rect class="cls-1" x="721" y="104" width="84" height="51" rx="9"/></clipPath><clipPath id="clip-path-40"><rect class="cls-1" x="820" y="104" width="84" height="51" rx="9"/></clipPath><clipPath id="clip-path-43"><path id="SVGID" class="cls-2" d="M868.85,222.63l68.36,92.09V481.26l-39.4-22.75-28.93,18.94,28.93,38.7,39.4,22.75v19.69l-30.37-17.53L877.9,560l28.94,38.71,30.37,17.53v38.66l22.69,48.74,28.93-18.93V344.52l39.42,5.78,28.94-18.93v-145L963,59.53,868.85,77.65,839.92,96.58l28.93,126.05M963,209.44c-18.13-10.47-32.83-38.55-32.83-62.73s14.7-35.29,32.83-24.82,32.83,38.56,32.83,62.73-14.7,35.29-32.83,24.82"/></clipPath><clipPath id="clip-path-44"><polyline id="SVGID-2" data-name="SVGID" class="cls-2" points="908.27 560.15 908.27 557.83 902.44 554.46 902.44 556.78 908.27 560.15"/></clipPath><clipPath id="clip-path-45"><path id="SVGID-3" data-name="SVGID" class="cls-2" d="M962,223.83a28.34,28.34,0,0,0,3.21-7.18,39.1,39.1,0,0,1-4.91-2.42c-20-11.53-35.6-41.18-35.6-67.52a55.55,55.55,0,0,1,.77-9.35,22.17,22.17,0,0,0-3.79-.47c-3.15,4.9-5,11.79-5,20.29,0,24.17,14.7,52.26,32.83,62.72A26.66,26.66,0,0,0,962,223.83"/></clipPath><clipPath id="clip-path-46"><polyline id="SVGID-4" data-name="SVGID" class="cls-2" points="908.27 482.82 908.27 480.5 906.21 479.31 906.21 469.75 897.99 465 888.34 471.31 908.27 482.82"/></clipPath><clipPath id="clip-path-47"><polyline id="SVGID-5" data-name="SVGID" class="cls-2" points="975.32 686.93 983.3 681.71 983.3 358.95 975.32 360.49 975.32 686.93"/></clipPath><clipPath id="clip-path-48"><polyline id="SVGID-6" data-name="SVGID" class="cls-2" points="1043.67 333.61 1051.66 328.38 1051.66 188.22 960.65 65.61 870.97 82.87 866.13 86.04 949.5 69.99 1043.67 196.85 1043.67 333.61"/></clipPath><clipPath id="clip-path-49"><path id="SVGID-7" data-name="SVGID" class="cls-2" d="M959.9,709.16a5.63,5.63,0,0,1-1.52-.21,5.55,5.55,0,0,1-3.5-3L932.2,657.23a5.58,5.58,0,0,1-.52-2.34V619.42l-27.6-15.94a5.47,5.47,0,0,1-1.67-1.47L873.47,563.3a5.53,5.53,0,0,1,1.41-7.93l28.93-18.94a5.54,5.54,0,0,1,5.79-.16L931.68,549v-6.93l-36.63-21.15a5.64,5.64,0,0,1-1.67-1.48l-28.93-38.71a5.46,5.46,0,0,1-1-4.26,5.54,5.54,0,0,1,2.42-3.67l28.93-18.93a5.53,5.53,0,0,1,5.8-.16l31.1,17.95V316.55l-67.27-90.62a5.86,5.86,0,0,1-.95-2.06l-28.93-126A5.51,5.51,0,0,1,836.89,92L865.83,73a5.46,5.46,0,0,1,2-.81L962,54.1a5.53,5.53,0,0,1,5.48,2.13l94.17,126.86a5.58,5.58,0,0,1,1.09,3.3v145a5.54,5.54,0,0,1-2.51,4.63l-28.93,18.93a5.55,5.55,0,0,1-3.83.84l-33.09-4.85V684.7a5.52,5.52,0,0,1-2.5,4.62l-28.94,18.94a5.56,5.56,0,0,1-3,.9m23.4-27.45V344.52a5.54,5.54,0,0,1,6.33-5.47l37.35,5.48,24.68-16.15V188.22l-91-122.61L871,82.87,846.16,99.1,874,220.27l67.67,91.15a5.53,5.53,0,0,1,1.09,3.3V481.26a5.54,5.54,0,0,1-8.3,4.79L898,465l-21.16,13.85,24.73,33.08L940,534.11a5.54,5.54,0,0,1,2.77,4.79v19.69a5.54,5.54,0,0,1-8.3,4.79L907,547.55,885.86,561.4l24.73,33.08,29.38,17a5.54,5.54,0,0,1,2.77,4.79v37.44l19.47,41.84,21.09-13.8m-7.24-462.8a31.72,31.72,0,0,1-15.8-4.68c-20-11.53-35.6-41.18-35.6-67.52,0-20.51,10.18-34.28,25.33-34.28a31.73,31.73,0,0,1,15.8,4.67c20,11.53,35.59,41.18,35.59,67.52,0,20.51-10.18,34.29-25.32,34.29M950,123.48c-8.67,0-14.27,9.12-14.27,23.23,0,22,13.77,48.53,30.07,57.94a20.79,20.79,0,0,0,10.27,3.2c8.66,0,14.26-9.12,14.26-23.23,0-22-13.76-48.53-30.06-57.94a21,21,0,0,0-10.27-3.2"/></clipPath><clipPath id="clip-path-50"><path id="SVGID-8" data-name="SVGID" class="cls-2" d="M839.92,241.56l68.35,92.09V500.19l-39.39-22.74v57.63l39.39,22.75v19.7L877.9,560v57.64l30.37,17.53v38.66l51.63,29.81V363.46l68.35-13.16v-145L934.08,78.46,839.92,96.58v145m94.16-13.19c-18.13-10.47-32.83-38.55-32.83-62.73s14.7-35.28,32.83-24.82,32.83,38.56,32.83,62.73-14.7,35.29-32.83,24.82"/></clipPath><clipPath id="clip-path-51"><path id="SVGID-9" data-name="SVGID" class="cls-2" d="M947.12,232.31a16.8,16.8,0,0,0,2.47-.17h0c-31.54,0-45.87-46.85-47.83-73.84a51.53,51.53,0,0,0-.5,7.34c0,24.18,14.7,52.26,32.83,62.73a26.26,26.26,0,0,0,13,3.94"/></clipPath><clipPath id="clip-path-52"><path id="SVGID-10" data-name="SVGID" class="cls-2" d="M937.93,241.74c6.92,0,13.14-2.65,15.91-9.87a34.53,34.53,0,0,1-4.25.27,16.8,16.8,0,0,1-2.47.17,26.26,26.26,0,0,1-13-3.94c-18.13-10.47-32.83-38.55-32.83-62.73a51.53,51.53,0,0,1,.5-7.34c-.51-7-.18-12.69.89-15.85-14,12.73-16.93,22.7-14.58,43.94,2.79,25.28,15.75,43,33.54,51.37a40.13,40.13,0,0,0,16.33,4"/></clipPath><clipPath id="clip-path-53"><polyline id="SVGID-11" data-name="SVGID" class="cls-2" points="947.18 699.32 947.51 696.48 908.27 673.83 908.27 635.16 877.9 617.63 877.9 569.23 875.84 566.47 875.84 619.47 906.21 637 906.21 675.67 947.18 699.32"/></clipPath><clipPath id="clip-path-54"><polyline id="SVGID-12" data-name="SVGID" class="cls-2" points="953.49 702.96 951.56 698.81 947.51 696.48 947.18 699.32 953.49 702.96"/></clipPath><clipPath id="clip-path-55"><path id="SVGID-13" data-name="SVGID" class="cls-2" d="M877.9,569.23l-2.06-2.76v-4.64L877.9,563v6.21m79.93,136.24L953.49,703l-1.93-4.15,6.27,3.63v3"/></clipPath><clipPath id="clip-path-56"><polyline id="SVGID-14" data-name="SVGID" class="cls-2" points="957.84 702.44 957.84 682.75 932.8 668.29 932.8 629.63 902.44 612.1 902.44 577.19 877.9 563.02 877.9 617.63 908.27 635.16 908.27 673.83 957.84 702.44"/></clipPath><clipPath id="clip-path-57"><polyline id="SVGID-15" data-name="SVGID" class="cls-2" points="908.27 480.5 908.27 470.94 906.21 469.75 906.21 479.31 908.27 480.5"/></clipPath><clipPath id="clip-path-58"><polyline id="SVGID-16" data-name="SVGID" class="cls-2" points="908.27 458.17 908.27 333.65 839.91 241.56 839.91 121.29 837.86 112.31 837.86 243.41 906.21 335.49 906.21 456.98 908.27 458.17"/></clipPath><clipPath id="clip-path-59"><path id="SVGID-17" data-name="SVGID" class="cls-2" d="M839.92,121.29l-2.07-9V98.43l2.07-.4v23.26m68.35,349.65-2.06-1.19V457l2.06,1.19v12.77"/></clipPath><clipPath id="clip-path-60"><polyline id="SVGID-18" data-name="SVGID" class="cls-2" points="932.8 494.66 932.8 328.12 864.45 236.04 864.45 93.31 839.91 98.03 839.91 241.56 908.27 333.65 908.27 480.5 932.8 494.66"/></clipPath><clipPath id="clip-path-61"><polyline id="SVGID-19" data-name="SVGID" class="cls-2" points="902.44 557.49 902.44 556.78 897.37 553.86 896.8 554.24 902.44 557.49"/></clipPath><clipPath id="clip-path-62"><polyline id="SVGID-20" data-name="SVGID" class="cls-2" points="908.27 557.83 908.27 557.83 899.26 552.63 897.37 553.86 902.44 556.78 902.44 554.46 908.27 557.83"/></clipPath><clipPath id="clip-path-63"><polyline id="SVGID-21" data-name="SVGID" class="cls-2" points="886.07 548.04 888.53 546.43 868.88 535.08 868.88 486.68 866.82 483.92 866.82 536.92 886.07 548.04"/></clipPath><clipPath id="clip-path-64"><path id="SVGID-22" data-name="SVGID" class="cls-2" d="M868.88,486.68l-2.07-2.76v-4.63l2.07,1.19v6.2m27.92,67.56L886.07,548l2.46-1.61,10.73,6.2-1.89,1.23-.57.38"/></clipPath><clipPath id="clip-path-65"><polyline id="SVGID-23" data-name="SVGID" class="cls-2" points="932.8 572 932.8 552.3 893.41 529.55 893.41 494.64 868.88 480.48 868.88 535.08 908.27 557.83 908.27 557.83 932.8 572"/></clipPath><clipPath id="clip-path-66"><path id="SVGID-24" data-name="SVGID" class="cls-2" d="M966.89,205.26c0-.56,0-1.13,0-1.71,0-23.34-13.7-50.33-31-61.58-.14,1.37-.22,2.8-.23,4.29,23.71,17.62,30.75,40.14,30.73,58.77l.44.23"/></clipPath><clipPath id="clip-path-67"><path id="SVGID-25" data-name="SVGID" class="cls-2" d="M935.72,146.26a100.52,100.52,0,0,0-9.14-6,11.76,11.76,0,0,1,1.94-2,32.69,32.69,0,0,1,5.56,2.58c.63.36,1.25.75,1.87,1.15-.14,1.37-.22,2.8-.23,4.29m30.22,67.37a76.47,76.47,0,0,0,.51-8.6l.44.23a47.43,47.43,0,0,1-.95,8.37"/></clipPath><clipPath id="clip-path-68"><path id="SVGID-26" data-name="SVGID" class="cls-2" d="M958.08,237.33c17.15-8.06,20.45-10.22,26-30.84,4.48-16.58-5.15-45.53-19.7-58.73-6.36-5.77-17.82-12.31-27.13-12.31a13.6,13.6,0,0,0-8.77,2.79,32.69,32.69,0,0,1,5.56,2.58c.63.36,1.25.75,1.87,1.15,17.26,11.25,31,38.24,31,61.58,0,.58,0,1.15,0,1.71a47.43,47.43,0,0,1-.95,8.37c-1.26,10.66-4.65,19.26-7.86,23.7"/></clipPath><clipPath id="clip-path-69"><path id="SVGID-27" data-name="SVGID" class="cls-2" d="M957.13,708.42l-51.62-29.81a5.54,5.54,0,0,1-2.77-4.79V638.35l-27.6-15.94a5.51,5.51,0,0,1-2.76-4.78V560a5.52,5.52,0,0,1,8.29-4.78L902.74,568V561l-36.63-21.15a5.53,5.53,0,0,1-2.76-4.79V477.45a5.53,5.53,0,0,1,8.29-4.79l31.1,18V335.48l-67.27-90.62a5.57,5.57,0,0,1-1.08-3.3v-145a5.54,5.54,0,0,1,4.48-5.43L933,73a5.52,5.52,0,0,1,5.48,2.14L1032.69,202a5.53,5.53,0,0,1,1.09,3.3v145a5.53,5.53,0,0,1-4.48,5.43L965.42,368V703.63a5.52,5.52,0,0,1-5.52,5.53A5.58,5.58,0,0,1,957.13,708.42Zm65.59-501.27-91-122.6-86.28,16.6V239.74l67.27,90.62a5.48,5.48,0,0,1,1.09,3.29V500.19a5.53,5.53,0,0,1-8.29,4.79L874.4,487v44.87L911,553a5.51,5.51,0,0,1,2.77,4.79v19.7a5.53,5.53,0,0,1-8.29,4.78l-22.08-12.74v44.87L911,630.37a5.53,5.53,0,0,1,2.77,4.79v35.47l40.57,23.42V363.46a5.53,5.53,0,0,1,4.48-5.43l63.87-12.29Zm-91.4,26c-20-11.52-35.6-41.18-35.6-67.52,0-20.5,10.18-34.28,25.33-34.28a31.65,31.65,0,0,1,15.8,4.68c20,11.52,35.59,41.18,35.59,67.51,0,20.51-10.18,34.29-25.32,34.29A31.62,31.62,0,0,1,931.32,233.16Zm-24.54-67.52c0,22,13.77,48.54,30.07,57.94a20.79,20.79,0,0,0,10.27,3.2c8.67,0,14.27-9.12,14.27-23.23,0-22-13.77-48.53-30.07-57.94a20.92,20.92,0,0,0-10.27-3.2C912.38,142.41,906.78,151.53,906.78,165.64Z"/></clipPath><clipPath id="clip-path-70"><path id="SVGID-28" data-name="SVGID" class="cls-2" d="M1028.26,210.85a5.49,5.49,0,0,0,3-.9L1060.21,191a5.53,5.53,0,1,0-6-9.25l-28.93,18.93a5.53,5.53,0,0,0,3,10.16"/></clipPath><clipPath id="clip-path-71"><path id="SVGID-29" data-name="SVGID" class="cls-2" d="M1140.38,308,1030.6,539.77l49.28-28.45V643.66l121-69.85V441.46L1250.16,413,1140.38,308m0,123.8c-12,6.91-21.69-.43-21.69-16.4s9.71-34.52,21.69-41.44,21.69.42,21.69,16.4-9.72,34.52-21.69,41.44"/></clipPath><clipPath id="clip-path-72"><path id="SVGID-30" data-name="SVGID" class="cls-2" d="M1137.11,440.68c9.09,0,27.06-6.62,41-32.59,5-9.35,6.36-20.06,4.2-28.39l-10.42-10a72.22,72.22,0,0,0-8,4.91c2.29,3.87,3.71,9.06,3.71,15.68,0,18-10.74,38.31-24.45,46.22a23.21,23.21,0,0,1-10.57,3.33,10.58,10.58,0,0,0,4.54.81"/></clipPath><clipPath id="clip-path-73"><path id="SVGID-31" data-name="SVGID" class="cls-2" d="M1225.4,420.92l-91.12-87.18,7.81-16.48L1241,411.91l-15.61,9M1177,581.22v-131l18.76-10.84a5.63,5.63,0,0,0-.41,2.08V570.62L1177,581.22"/></clipPath><clipPath id="clip-path-74"><path id="SVGID-32" data-name="SVGID" class="cls-2" d="M1079.88,649.19a5.44,5.44,0,0,1-2.76-.74,5.54,5.54,0,0,1-2.77-4.79V520.89l-41,23.67a5.53,5.53,0,0,1-7.76-7.15L1135.38,305.6a5.53,5.53,0,0,1,8.82-1.63L1254,409a5.55,5.55,0,0,1,1.66,4.66,5.5,5.5,0,0,1-2.72,4.13l-46.52,26.85V573.81a5.54,5.54,0,0,1-2.76,4.79l-121,69.85a5.44,5.44,0,0,1-2.76.74m115.46-78.57V441.46a5.52,5.52,0,0,1,2.77-4.78l42.9-24.77-98.92-94.65-98.92,208.86,33.95-19.59a5.53,5.53,0,0,1,8.29,4.79V634.09l109.93-63.47m-63.57-130.73c-9.26,0-18.61-7.59-18.61-24.53,0-18,10.74-38.31,24.45-46.23a22.74,22.74,0,0,1,11.38-3.34c9.26,0,18.6,7.58,18.6,24.53,0,18-10.74,38.31-24.45,46.22a22.75,22.75,0,0,1-11.37,3.35M1149,376.84a12.15,12.15,0,0,0-5.85,1.87c-10.26,5.92-18.92,22.7-18.92,36.65,0,6.21,2,13.47,7.55,13.47a12.12,12.12,0,0,0,5.84-1.86c10.26-5.93,18.93-22.71,18.93-36.65,0-6.22-2-13.48-7.55-13.48"/></clipPath><clipPath id="clip-path-75"><polyline id="SVGID-33" data-name="SVGID" class="cls-2" points="1121.64 619.55 1159.11 597.92 1159.11 501.41 1121.64 523.04 1121.64 619.55"/></clipPath><clipPath id="clip-path-76"><polyline id="SVGID-34" data-name="SVGID" class="cls-2" points="1148.57 605.41 1156.77 600.86 1156.77 599.27 1148.57 604.01 1148.57 605.41"/></clipPath><clipPath id="clip-path-77"><polyline id="SVGID-35" data-name="SVGID" class="cls-2" points="1148.57 604.01 1156.77 599.27 1156.77 504.35 1148.57 509.08 1148.57 604.01"/></clipPath><clipPath id="clip-path-78"><path id="SVGID-36" data-name="SVGID" class="cls-2" d="M1118.88,624.34a5.53,5.53,0,0,1-2.76-4.79V523a5.53,5.53,0,0,1,2.76-4.79l37.46-21.63a5.54,5.54,0,0,1,8.3,4.79v96.51a5.54,5.54,0,0,1-2.77,4.79l-37.46,21.63a5.54,5.54,0,0,1-5.53,0ZM1153.58,511l-26.41,15.24V610l26.41-15.25Z"/></clipPath><clipPath id="clip-path-79"><path id="SVGID-37" data-name="SVGID" class="cls-2" d="M1121.65,416.38a5.51,5.51,0,0,0,2.67-.69c34.22-18.89,60.88-48.46,75.07-83.25a147.88,147.88,0,0,0,.8-110.89c-4.1-10.33-20.26-46.11-56.21-72.85-35.4-26.33-78.55-34.48-124.81-23.58a5.53,5.53,0,1,0,2.54,10.76c95.72-22.56,150.77,45.8,168.21,89.75,26.62,67.12-3.21,143-71,180.38a5.53,5.53,0,0,0,2.68,10.37"/></clipPath><clipPath id="clip-path-80"><path id="SVGID-38" data-name="SVGID" class="cls-2" d="M1058.9,434.49a120.19,120.19,0,0,0,24.65-2.49,5.53,5.53,0,1,0-2.26-10.82c-51.39,10.76-119.24-16-149.48-88-17.21-41-20.32-107.49,27.55-160.09a5.53,5.53,0,1,0-8.17-7.44c-51.38,56.45-48,127.84-29.57,171.81C937,374.12,962.4,402.28,995,418.89a142.13,142.13,0,0,0,63.9,15.6"/></clipPath></defs><title>Property Management</title><g class="cls-3"><g class="cls-4"><rect class="cls-5" x="213" y="215" width="94" height="61"/></g></g><g class="cls-4"><text class="cls-6" transform="translate(229.22 214)">Big Stone</text><text class="cls-7" transform="translate(235 287)">#162E45</text></g><g class="cls-8"><g class="cls-4"><rect class="cls-9" x="315" y="215" width="94" height="61"/></g></g><g class="cls-4"><text class="cls-6" transform="translate(316.69 214)">Pigment Green</text><text class="cls-7" transform="translate(337 289)">#03A84E</text></g><g class="cls-10"><g class="cls-4"><rect class="cls-11" x="417" y="215" width="94" height="61"/></g></g><g class="cls-4"><text class="cls-6" transform="translate(443.96 214)">Apple</text><text class="cls-7" transform="translate(439 289)">#81b652</text></g><g class="cls-12"><g class="cls-4"><rect class="cls-13" x="516" y="215" width="94" height="61"/></g></g><g class="cls-4"><text class="cls-6" transform="translate(543.6 214)">Rajah</text><text class="cls-7" transform="translate(538 290)">#F0B474</text></g><g class="cls-14"><g class="cls-4"><rect class="cls-15" x="615" y="215" width="94" height="61"/></g></g><g class="cls-4"><text class="cls-6" transform="translate(631.15 214)">Flamingo</text><text class="cls-7" transform="translate(637 291)">#E75D3A</text></g><g class="cls-16"><g class="cls-4"><rect class="cls-17" x="714" y="215" width="94" height="61"/></g></g><g class="cls-4"><text class="cls-6" transform="translate(730.36 214)">Cool Blue</text><text class="cls-7" transform="translate(736 291)">#389EFE</text></g><g class="cls-18"><g class="cls-4"><rect class="cls-19" x="813" y="215" width="94" height="61"/></g></g><g class="cls-4"><text class="cls-6" transform="translate(829.47 214)">Christine</text><text class="cls-7" transform="translate(835 291)">#AD6A3C</text></g><g class="cls-20"><g class="cls-21"><rect class="cls-5" x="215" y="99" width="94" height="61"/></g></g><g class="cls-21"><text class="cls-6" transform="translate(231.22 98)">Big Stone</text><text class="cls-7" transform="translate(237 171)">#162E45</text></g><g class="cls-22"><g class="cls-21"><rect class="cls-9" x="317" y="99" width="94" height="61"/></g></g><g class="cls-21"><text class="cls-6" transform="translate(318.69 98)">Pigment Green</text><text class="cls-7" transform="translate(339 173)">#03A84E</text></g><g class="cls-23"><g class="cls-21"><rect class="cls-11" x="419" y="99" width="94" height="61"/></g></g><g class="cls-21"><text class="cls-6" transform="translate(445.96 98)">Apple</text><text class="cls-7" transform="translate(441 173)">#81b652</text></g><g class="cls-24"><g class="cls-21"><rect class="cls-13" x="518" y="99" width="94" height="61"/></g></g><g class="cls-21"><text class="cls-6" transform="translate(545.6 98)">Rajah</text><text class="cls-7" transform="translate(540 174)">#F0B474</text></g><g class="cls-25"><g class="cls-21"><rect class="cls-15" x="617" y="99" width="94" height="61"/></g></g><g class="cls-21"><text class="cls-6" transform="translate(633.15 98)">Flamingo</text><text class="cls-7" transform="translate(639 175)">#E75D3A</text></g><g class="cls-26"><g class="cls-21"><rect class="cls-17" x="716" y="99" width="94" height="61"/></g></g><g class="cls-21"><text class="cls-6" transform="translate(732.36 98)">Cool Blue</text><text class="cls-7" transform="translate(738 175)">#389EFE</text></g><g class="cls-27"><g class="cls-21"><rect class="cls-19" x="815" y="99" width="94" height="61"/></g></g><g class="cls-21"><text class="cls-6" transform="translate(831.47 98)">Christine</text><text class="cls-7" transform="translate(837 175)">#AD6A3C</text></g><path class="cls-11" d="M0,0V4.26Q1.11,2.13,2.25,0Z"/><path class="cls-11" d="M2.21,0C1.46,1.43.73,2.86,0,4.29v319.6C24.45,376,60.65,419.74,108,439.48c107,44.62,205.71-60.35,330.3-.45C495,466.3,507.2,506.52,547,546.32c115.74,115.76,489,213.56,733,66.38V0Z"/><g class="cls-28"><rect class="cls-29" x="833.01" y="52.62" width="231.09" height="657.92"/></g><g class="cls-30"><rect class="cls-31" x="895.53" y="547.55" width="19.65" height="19.51"/></g><g class="cls-32"><rect class="cls-31" x="909.76" y="129.98" width="62.32" height="100.76"/></g><g class="cls-33"><rect class="cls-31" x="881.43" y="458.09" width="33.75" height="31.64"/></g><g class="cls-34"><rect class="cls-31" x="968.41" y="352.04" width="21.81" height="341.8"/></g><g class="cls-35"><rect class="cls-31" x="859.22" y="58.7" width="199.35" height="281.81"/></g><g class="cls-36"><rect class="cls-37" x="827.48" y="47.09" width="242.15" height="668.98"/></g><g class="cls-38"><rect class="cls-39" x="833.01" y="71.55" width="202.16" height="638.99"/></g><g class="cls-40"><rect class="cls-41" x="894.34" y="151.39" width="62.15" height="87.83"/></g><g class="cls-42"><rect class="cls-43" x="880.42" y="135.54" width="80.34" height="113.11"/></g><g class="cls-44"><rect class="cls-45" x="868.93" y="559.56" width="85.49" height="146.67"/></g><g class="cls-46"><rect class="cls-47" x="940.27" y="689.57" width="20.12" height="20.3"/></g><g class="cls-48"><rect class="cls-49" x="868.93" y="554.92" width="95.81" height="157.46"/></g><g class="cls-50"><rect class="cls-43" x="870.99" y="556.11" width="93.75" height="153.24"/></g><g class="cls-51"><rect class="cls-52" x="899.3" y="462.84" width="15.88" height="24.57"/></g><g class="cls-53"><rect class="cls-45" x="830.94" y="105.4" width="84.24" height="359.68"/></g><g class="cls-54"><rect class="cls-49" x="830.94" y="91.12" width="84.24" height="386.73"/></g><g class="cls-55"><rect class="cls-43" x="833.01" y="86.4" width="106.71" height="415.17"/></g><g class="cls-56"><rect class="cls-41" x="889.89" y="546.95" width="19.46" height="17.45"/></g><g class="cls-57"><rect class="cls-52" x="890.46" y="545.72" width="24.72" height="19.03"/></g><g class="cls-58"><rect class="cls-45" x="859.9" y="477.01" width="35.54" height="77.94"/></g><g class="cls-59"><rect class="cls-49" x="859.9" y="472.38" width="46.27" height="88.77"/></g><g class="cls-60"><rect class="cls-43" x="861.97" y="473.57" width="77.75" height="105.34"/></g><g class="cls-61"><rect class="cls-62" x="928.81" y="135.06" width="45.01" height="77.11"/></g><g class="cls-63"><rect class="cls-64" x="919.67" y="131.33" width="54.13" height="89.22"/></g><g class="cls-65"><rect class="cls-64" x="921.61" y="128.54" width="70.52" height="115.7"/></g><g class="cls-66"><rect class="cls-37" x="827.48" y="66.02" width="213.21" height="650.05"/></g><g class="cls-67"><rect class="cls-37" x="1015.81" y="173.95" width="53.81" height="43.81"/></g><g class="cls-68"><rect class="cls-29" x="1023.69" y="301.05" width="233.38" height="349.52"/></g><g class="cls-69"><rect class="cls-31" x="1125.66" y="362.82" width="64.57" height="84.77"/></g><g class="cls-70"><rect class="cls-31" x="1127.37" y="310.35" width="120.54" height="277.78"/></g><g class="cls-71"><rect class="cls-37" x="1018.16" y="295.53" width="244.44" height="360.58"/></g><g class="cls-72"><rect class="cls-73" x="1114.73" y="494.5" width="51.28" height="131.96"/></g><g class="cls-74"><rect class="cls-64" x="1141.66" y="592.36" width="22.02" height="19.95"/></g><g class="cls-75"><rect class="cls-76" x="1141.66" y="497.44" width="22.02" height="113.48"/></g><g class="cls-77"><rect class="cls-37" x="1109.21" y="488.97" width="62.34" height="143.02"/></g><g class="cls-78"><rect class="cls-37" x="1008" y="113.51" width="209.5" height="309.78"/></g><g class="cls-79"><rect class="cls-37" x="902.34" y="156.91" width="192.52" height="284.49"/></g></svg>