<svg id="Layer_1" data-name="Layer 1" xmlns="http://www.w3.org/2000/svg" xmlns:xlink="http://www.w3.org/1999/xlink" viewBox="0 0 1280 720"><defs><style>.cls-1{fill:none;clip-rule:evenodd;}.cls-2{fill:url(#linear-gradient);}.cls-3{fill:url(#linear-gradient-2);}.cls-4{clip-path:url(#clip-path);}.cls-5{fill:#f9dfc4;}.cls-6{clip-path:url(#clip-path-2);}.cls-7{fill:#f8d9b9;}.cls-8{clip-path:url(#clip-path-3);}.cls-9{clip-path:url(#clip-path-4);}.cls-10{clip-path:url(#clip-path-5);}.cls-11{clip-path:url(#clip-path-6);}.cls-12{clip-path:url(#clip-path-7);}.cls-13{fill:#774712;}.cls-14{clip-path:url(#clip-path-8);}.cls-15{fill:#ae9171;}.cls-16{clip-path:url(#clip-path-9);}.cls-17{fill:#da974d;}.cls-18{clip-path:url(#clip-path-10);}.cls-19{fill:#d1c0ae;}.cls-20{clip-path:url(#clip-path-11);}.cls-21{fill:#efaf6c;}.cls-22{clip-path:url(#clip-path-12);}.cls-23{fill:#e88e30;}.cls-24{clip-path:url(#clip-path-13);}.cls-25{fill:#f2c08b;}.cls-26{clip-path:url(#clip-path-14);}.cls-27{clip-path:url(#clip-path-15);}.cls-28{fill:#ce7615;}.cls-29{clip-path:url(#clip-path-16);}.cls-30{clip-path:url(#clip-path-17);}.cls-31{clip-path:url(#clip-path-18);}.cls-32{clip-path:url(#clip-path-19);}.cls-33{clip-path:url(#clip-path-20);}.cls-34{clip-path:url(#clip-path-21);}.cls-35{clip-path:url(#clip-path-22);}.cls-36{clip-path:url(#clip-path-23);}.cls-37{clip-path:url(#clip-path-24);}.cls-38{fill:#eda75e;}.cls-39{clip-path:url(#clip-path-25);}.cls-40{fill:#73410b;}.cls-41{clip-path:url(#clip-path-26);}.cls-42{clip-path:url(#clip-path-27);}.cls-43{clip-path:url(#clip-path-28);}.cls-44{clip-path:url(#clip-path-29);}.cls-45{clip-path:url(#clip-path-30);}.cls-46{clip-path:url(#clip-path-31);}.cls-47{clip-path:url(#clip-path-32);}.cls-48{clip-path:url(#clip-path-33);}.cls-49{fill:#c29766;}.cls-50{clip-path:url(#clip-path-34);}.cls-51{clip-path:url(#clip-path-35);}.cls-52{fill:#a05c10;}.cls-53{clip-path:url(#clip-path-36);}.cls-54{clip-path:url(#clip-path-37);}.cls-55{clip-path:url(#clip-path-38);}</style><linearGradient id="linear-gradient" x1="57.63" y1="121.11" x2="880.43" y2="359.55" gradientUnits="userSpaceOnUse"><stop offset="0" stop-color="#eda75e"/><stop offset="1" stop-color="#a05c10"/></linearGradient><linearGradient id="linear-gradient-2" x1="126.01" y1="477.6" x2="249.2" y2="282.14" xlink:href="#linear-gradient"/><clipPath id="clip-path"><path id="SVGID" class="cls-1" d="M99,297.11,152.32,369v130l-30.76-17.76L99,496.07l22.59,30.22,30.76,17.76v15.39l-23.71-13.7L106,560.53l22.59,30.22,23.71,13.69v30.19l17.72,38,22.59-14.78V392.28l30.78,4.52L246,382V268.81l-73.53-99.06L99,183.9,76.36,198.68,99,297.11m73.53-10.3c-14.16-8.18-25.63-30.11-25.63-49s11.47-27.56,25.63-19.38,25.64,30.1,25.64,49S186.64,295,172.48,286.81"/></clipPath><clipPath id="clip-path-2"><polyline id="SVGID-2" data-name="SVGID" class="cls-1" points="129.73 560.65 129.73 558.84 125.17 556.21 125.17 558.02 129.73 560.65"/></clipPath><clipPath id="clip-path-3"><path id="SVGID-3" data-name="SVGID" class="cls-1" d="M171.65,298a22.07,22.07,0,0,0,2.51-5.61,30.83,30.83,0,0,1-3.84-1.88c-15.58-9-27.79-32.16-27.79-52.72a42.3,42.3,0,0,1,.6-7.3,16.3,16.3,0,0,0-3-.37c-2.46,3.82-3.88,9.2-3.88,15.84,0,18.87,11.48,40.8,25.64,49a20.81,20.81,0,0,0,9.72,3.06"/></clipPath><clipPath id="clip-path-4"><polyline id="SVGID-4" data-name="SVGID" class="cls-1" points="129.73 500.27 129.73 498.46 128.12 497.53 128.12 490.06 121.7 486.36 114.17 491.29 129.73 500.27"/></clipPath><clipPath id="clip-path-5"><polyline id="SVGID-5" data-name="SVGID" class="cls-1" points="182.08 659.65 188.32 655.57 188.32 403.55 182.08 404.75 182.08 659.65"/></clipPath><clipPath id="clip-path-6"><polyline id="SVGID-6" data-name="SVGID" class="cls-1" points="235.45 383.76 241.69 379.68 241.69 270.23 170.63 174.5 100.6 187.98 96.83 190.45 161.93 177.92 235.45 276.98 235.45 383.76"/></clipPath><clipPath id="clip-path-7"><path id="SVGID-7" data-name="SVGID" class="cls-1" d="M170,677a4.35,4.35,0,0,1-3.91-2.49l-17.72-38.06a4.39,4.39,0,0,1-.4-1.82v-27.7l-21.56-12.44a4.64,4.64,0,0,1-1.3-1.16l-22.59-30.22a4.32,4.32,0,0,1,1.09-6.19l22.6-14.79a4.3,4.3,0,0,1,4.52-.12L148,552v-5.41L119.4,530a4.45,4.45,0,0,1-1.3-1.15L95.51,498.66a4.33,4.33,0,0,1,1.09-6.2l22.6-14.78a4.33,4.33,0,0,1,4.52-.13l24.29,14V370.44L95.48,299.68a4.54,4.54,0,0,1-.74-1.61L72.15,199.65A4.31,4.31,0,0,1,74,195.07l22.6-14.78a4.3,4.3,0,0,1,1.55-.63l73.52-14.15a4.34,4.34,0,0,1,4.29,1.67l73.52,99.05a4.3,4.3,0,0,1,.86,2.58V382a4.3,4.3,0,0,1-2,3.61l-22.59,14.79a4.39,4.39,0,0,1-3,.66L197,397.28V657.9a4.29,4.29,0,0,1-1.95,3.61L172.4,676.3a4.34,4.34,0,0,1-2.36.7m18.28-21.43V392.28a4.32,4.32,0,0,1,4.94-4.27l29.16,4.28,19.27-12.61V270.23L170.63,174.5,100.6,188,81.23,200.65,103,295.26l52.83,71.18a4.31,4.31,0,0,1,.85,2.57v130a4.32,4.32,0,0,1-6.47,3.74L121.7,486.36l-16.52,10.81L124.49,523l30,17.32a4.3,4.3,0,0,1,2.16,3.73v15.39a4.32,4.32,0,0,1-6.47,3.73l-21.42-12.36-16.52,10.81,19.31,25.83,22.94,13.25a4.31,4.31,0,0,1,2.16,3.74v29.23l15.21,32.67,16.47-10.77M182.66,294.2a24.77,24.77,0,0,1-12.34-3.65c-15.58-9-27.79-32.16-27.79-52.72,0-16,7.95-26.78,19.77-26.78a24.69,24.69,0,0,1,12.34,3.66c15.58,9,27.79,32.15,27.79,52.72,0,16-8,26.77-19.77,26.77M162.3,219.69c-6.76,0-11.14,7.12-11.14,18.14,0,17.17,10.75,37.89,23.48,45.24a16.29,16.29,0,0,0,8,2.5c6.77,0,11.14-7.12,11.14-18.14,0-17.18-10.75-37.9-23.48-45.25a16.37,16.37,0,0,0-8-2.49"/></clipPath><clipPath id="clip-path-8"><path id="SVGID-8" data-name="SVGID" class="cls-1" d="M76.36,311.89l53.37,71.9v130L99,496.07v45l30.76,17.76v15.38L106,560.53v45l23.71,13.69v30.19L170,672.68V407.07l53.37-10.27V283.59l-73.53-99.06L76.36,198.68V311.89m73.52-10.3c-14.15-8.17-25.63-30.1-25.63-49s11.48-27.56,25.63-19.38,25.64,30.1,25.64,49S164,309.76,149.88,301.59"/></clipPath><clipPath id="clip-path-9"><path id="SVGID-9" data-name="SVGID" class="cls-1" d="M160.06,304.67a13.59,13.59,0,0,0,1.93-.14h0c-24.62,0-35.81-36.58-37.34-57.66a39.94,39.94,0,0,0-.39,5.74c0,18.88,11.48,40.81,25.63,49a20.55,20.55,0,0,0,10.18,3.08"/></clipPath><clipPath id="clip-path-10"><path id="SVGID-10" data-name="SVGID" class="cls-1" d="M152.89,312c5.41,0,10.26-2.07,12.42-7.71a27,27,0,0,1-3.32.21,13.59,13.59,0,0,1-1.93.14,20.55,20.55,0,0,1-10.18-3.08c-14.15-8.17-25.63-30.1-25.63-49a39.94,39.94,0,0,1,.39-5.74c-.4-5.48-.15-9.91.69-12.38-11,9.95-13.22,17.74-11.38,34.32,2.18,19.74,12.3,33.58,26.19,40.11A31.28,31.28,0,0,0,152.89,312"/></clipPath><clipPath id="clip-path-11"><polyline id="SVGID-11" data-name="SVGID" class="cls-1" points="160.11 669.32 160.37 667.1 129.73 649.41 129.73 619.22 106.02 605.53 106.02 567.74 104.41 565.59 104.41 606.97 128.12 620.66 128.12 650.85 160.11 669.32"/></clipPath><clipPath id="clip-path-12"><polyline id="SVGID-12" data-name="SVGID" class="cls-1" points="165.04 672.16 163.53 668.92 160.37 667.1 160.11 669.32 165.04 672.16"/></clipPath><clipPath id="clip-path-13"><path id="SVGID-13" data-name="SVGID" class="cls-1" d="M106,567.74l-1.61-2.15V562l1.61.92v4.85m62.41,106.38-3.39-2-1.51-3.24,4.9,2.83v2.37"/></clipPath><clipPath id="clip-path-14"><polyline id="SVGID-14" data-name="SVGID" class="cls-1" points="168.43 671.75 168.43 656.38 148.89 645.09 148.89 614.9 125.17 601.21 125.17 573.96 106.02 562.89 106.02 605.53 129.73 619.22 129.73 649.41 168.43 671.75"/></clipPath><clipPath id="clip-path-15"><polyline id="SVGID-15" data-name="SVGID" class="cls-1" points="129.73 498.46 129.73 490.99 128.12 490.06 128.12 497.53 129.73 498.46"/></clipPath><clipPath id="clip-path-16"><polyline id="SVGID-16" data-name="SVGID" class="cls-1" points="129.73 481.02 129.73 383.79 76.36 311.89 76.36 217.98 74.75 210.97 74.75 313.33 128.12 385.23 128.12 480.09 129.73 481.02"/></clipPath><clipPath id="clip-path-17"><path id="SVGID-17" data-name="SVGID" class="cls-1" d="M76.36,218l-1.61-7V200.12l1.61-.31V218m53.37,273-1.61-.93v-10l1.61.93v10"/></clipPath><clipPath id="clip-path-18"><polyline id="SVGID-18" data-name="SVGID" class="cls-1" points="148.89 509.52 148.89 379.48 95.51 307.57 95.51 196.13 76.36 199.81 76.36 311.89 129.73 383.79 129.73 498.46 148.89 509.52"/></clipPath><clipPath id="clip-path-19"><polyline id="SVGID-19" data-name="SVGID" class="cls-1" points="125.17 558.57 125.17 558.02 121.22 555.74 120.77 556.03 125.17 558.57"/></clipPath><clipPath id="clip-path-20"><polyline id="SVGID-20" data-name="SVGID" class="cls-1" points="129.73 558.84 129.73 558.84 122.69 554.78 121.22 555.74 125.17 558.02 125.17 556.21 129.73 558.84"/></clipPath><clipPath id="clip-path-21"><polyline id="SVGID-21" data-name="SVGID" class="cls-1" points="112.4 551.2 114.32 549.94 98.97 541.08 98.97 503.28 97.36 501.13 97.36 542.52 112.4 551.2"/></clipPath><clipPath id="clip-path-22"><path id="SVGID-22" data-name="SVGID" class="cls-1" d="M99,503.28l-1.61-2.15v-3.62l1.61.93v4.84M120.77,556l-8.37-4.83,1.92-1.26,8.37,4.84-1.47,1-.45.29"/></clipPath><clipPath id="clip-path-23"><polyline id="SVGID-23" data-name="SVGID" class="cls-1" points="148.89 569.9 148.89 554.52 118.12 536.76 118.12 509.5 98.97 498.44 98.97 541.08 129.73 558.84 129.73 558.84 148.89 569.9"/></clipPath><clipPath id="clip-path-24"><path id="SVGID-24" data-name="SVGID" class="cls-1" d="M175.5,283.54c0-.43,0-.88,0-1.33,0-18.23-10.7-39.3-24.18-48.09-.11,1.07-.17,2.19-.18,3.35,18.52,13.76,24,31.35,24,45.89l.34.18"/></clipPath><clipPath id="clip-path-25"><path id="SVGID-25" data-name="SVGID" class="cls-1" d="M151.16,237.47a78.64,78.64,0,0,0-7.13-4.71,9.27,9.27,0,0,1,1.51-1.55,25,25,0,0,1,4.34,2c.49.28,1,.58,1.46.89-.11,1.07-.17,2.19-.18,3.35m23.6,52.61a60.24,60.24,0,0,0,.4-6.72l.34.18a37.22,37.22,0,0,1-.74,6.54"/></clipPath><clipPath id="clip-path-26"><path id="SVGID-26" data-name="SVGID" class="cls-1" d="M168.62,308.58c13.39-6.29,16-8,20.33-24.08,3.5-12.95-4-35.55-15.38-45.86-5-4.5-13.91-9.61-21.18-9.61a10.62,10.62,0,0,0-6.85,2.18,25,25,0,0,1,4.34,2c.49.28,1,.58,1.46.89,13.48,8.79,24.18,29.86,24.18,48.09,0,.45,0,.9,0,1.33a37.22,37.22,0,0,1-.74,6.54c-1,8.32-3.63,15-6.14,18.5"/></clipPath><clipPath id="clip-path-27"><path id="SVGID-27" data-name="SVGID" class="cls-1" d="M167.88,676.42l-40.31-23.27a4.33,4.33,0,0,1-2.16-3.74V621.72l-21.55-12.45a4.31,4.31,0,0,1-2.16-3.74v-45a4.32,4.32,0,0,1,6.48-3.74l17.23,10v-5.41l-28.6-16.52a4.3,4.3,0,0,1-2.16-3.73v-45a4.31,4.31,0,0,1,6.48-3.73l24.28,14V385.22L72.89,314.46a4.31,4.31,0,0,1-.85-2.57V198.68a4.32,4.32,0,0,1,3.5-4.23l73.53-14.15a4.3,4.3,0,0,1,4.28,1.66L226.88,281a4.31,4.31,0,0,1,.85,2.57V396.8a4.32,4.32,0,0,1-3.5,4.23l-49.87,9.6v262A4.32,4.32,0,0,1,170,677,4.27,4.27,0,0,1,167.88,676.42ZM219.1,285,148,189.29l-67.37,13V310.46l52.53,70.76a4.33,4.33,0,0,1,.85,2.57v130a4.32,4.32,0,0,1-6.48,3.74l-24.29-14v35l28.61,16.52a4.32,4.32,0,0,1,2.16,3.74v15.38a4.32,4.32,0,0,1-6.48,3.74l-17.24-10v35l21.56,12.44a4.33,4.33,0,0,1,2.16,3.74v27.7l31.67,18.29V407.07a4.32,4.32,0,0,1,3.5-4.24l49.88-9.6Zm-71.37,20.31c-15.59-9-27.8-32.16-27.8-52.72,0-16,7.95-26.77,19.78-26.77A24.77,24.77,0,0,1,152,229.49c15.59,9,27.8,32.16,27.8,52.72,0,16-8,26.77-19.78,26.77A24.77,24.77,0,0,1,147.73,305.33Zm-19.16-52.72c0,17.18,10.75,37.89,23.47,45.24a16.29,16.29,0,0,0,8,2.5c6.77,0,11.14-7.12,11.14-18.14,0-17.18-10.75-37.9-23.47-45.24a16.29,16.29,0,0,0-8-2.5C132.94,234.47,128.57,241.59,128.57,252.61Z"/></clipPath><clipPath id="clip-path-28"><path id="SVGID-28" data-name="SVGID" class="cls-1" d="M223.42,287.91a4.28,4.28,0,0,0,2.36-.71l22.59-14.78a4.32,4.32,0,0,0-4.72-7.23L221.05,280a4.32,4.32,0,0,0,2.37,7.93"/></clipPath><clipPath id="clip-path-29"><path id="SVGID-29" data-name="SVGID" class="cls-1" d="M311,363.74l-85.72,181,38.49-22.22V625.86l94.47-54.54V468l38.48-22.22-85.72-82m0,96.66c-9.35,5.4-16.93-.33-16.93-12.81s7.58-26.95,16.93-32.35,16.94.33,16.94,12.8S320.32,455,311,460.4"/></clipPath><clipPath id="clip-path-30"><path id="SVGID-30" data-name="SVGID" class="cls-1" d="M308.42,467.37c7.09,0,21.12-5.18,32-25.45,3.92-7.31,5-15.66,3.27-22.17L335.58,412a56,56,0,0,0-6.27,3.83A23.76,23.76,0,0,1,332.22,428c0,14.06-8.39,29.91-19.1,36.09a18.12,18.12,0,0,1-8.25,2.6,8.27,8.27,0,0,0,3.55.64"/></clipPath><clipPath id="clip-path-31"><path id="SVGID-31" data-name="SVGID" class="cls-1" d="M377.35,451.94l-71.14-68.08L312.3,371l77.24,73.91-12.19,7M339.55,577.1V474.81l14.65-8.46a4.46,4.46,0,0,0-.32,1.63V568.82l-14.33,8.28"/></clipPath><clipPath id="clip-path-32"><path id="SVGID-32" data-name="SVGID" class="cls-1" d="M263.73,630.18a4.27,4.27,0,0,1-2.16-.58,4.31,4.31,0,0,1-2.16-3.74V530l-32,18.48a4.32,4.32,0,0,1-6.06-5.59l85.72-181a4.32,4.32,0,0,1,6.89-1.27l85.72,82a4.32,4.32,0,0,1-.83,6.86l-36.32,21V571.32a4.32,4.32,0,0,1-2.16,3.73L265.88,629.6a4.23,4.23,0,0,1-2.15.58m90.15-61.36V468a4.32,4.32,0,0,1,2.16-3.74l33.5-19.34L312.3,371,235.07,534.08l26.5-15.3a4.32,4.32,0,0,1,6.47,3.74v95.86l85.84-49.56M304.24,466.75c-7.23,0-14.53-5.93-14.53-19.16,0-14,8.39-29.91,19.1-36.09a17.8,17.8,0,0,1,8.88-2.61c7.23,0,14.53,5.92,14.53,19.15,0,14.06-8.39,29.91-19.1,36.09a17.71,17.71,0,0,1-8.88,2.62m13.45-49.23a9.52,9.52,0,0,0-4.57,1.45c-8,4.63-14.77,17.73-14.77,28.62,0,4.86,1.54,10.52,5.89,10.52a9.52,9.52,0,0,0,4.57-1.45c8-4.63,14.77-17.73,14.77-28.62,0-4.85-1.54-10.52-5.89-10.52"/></clipPath><clipPath id="clip-path-33"><polyline id="SVGID-33" data-name="SVGID" class="cls-1" points="296.34 607.03 325.59 590.14 325.59 514.79 296.34 531.67 296.34 607.03"/></clipPath><clipPath id="clip-path-34"><polyline id="SVGID-34" data-name="SVGID" class="cls-1" points="317.36 595.99 323.76 592.44 323.76 591.2 317.36 594.89 317.36 595.99"/></clipPath><clipPath id="clip-path-35"><polyline id="SVGID-35" data-name="SVGID" class="cls-1" points="317.36 594.89 323.76 591.2 323.76 517.08 317.36 520.77 317.36 594.89"/></clipPath><clipPath id="clip-path-36"><path id="SVGID-36" data-name="SVGID" class="cls-1" d="M294.18,610.77A4.32,4.32,0,0,1,292,607V531.67a4.32,4.32,0,0,1,2.16-3.73l29.25-16.89a4.32,4.32,0,0,1,6.48,3.74v75.35a4.32,4.32,0,0,1-2.16,3.74L298.5,610.77a4.31,4.31,0,0,1-4.32,0Zm27.09-88.51-20.62,11.91v65.39l20.62-11.91Z"/></clipPath><clipPath id="clip-path-37"><path id="SVGID-37" data-name="SVGID" class="cls-1" d="M296.34,448.39a4.22,4.22,0,0,0,2.08-.54c26.73-14.75,47.54-37.84,58.63-65a115.5,115.5,0,0,0,.62-86.59c-3.2-8.06-15.82-36-43.89-56.88-27.64-20.56-61.34-26.92-97.46-18.41a4.32,4.32,0,0,0,2,8.4C293,211.75,336,265.13,349.65,299.45c20.79,52.41-2.51,111.64-55.4,140.85a4.31,4.31,0,0,0,2.09,8.09"/></clipPath><clipPath id="clip-path-38"><path id="SVGID-38" data-name="SVGID" class="cls-1" d="M247.34,462.53a94.33,94.33,0,0,0,19.26-1.94,4.32,4.32,0,1,0-1.77-8.45c-40.13,8.4-93.11-12.51-116.72-68.73-13.44-32-15.87-83.93,21.52-125a4.32,4.32,0,0,0-6.39-5.82c-40.12,44.08-37.51,99.83-23.09,134.16,12,28.64,31.84,50.63,57.3,63.6a111,111,0,0,0,49.89,12.18"/></clipPath></defs><title>Property Management</title><path class="cls-2" d="M0,0V579.75C127.18,581.38,315.18,418.32,512.8,524c9.39,5,10.57,6.25,22,13C695.7,631.74,1053.72,738,1280,600V0Z"/><circle class="cls-3" cx="185" cy="384" r="208"/><g class="cls-4"><rect class="cls-5" x="70.96" y="164.36" width="180.45" height="513.72"/></g><g class="cls-6"><rect class="cls-7" x="119.78" y="550.81" width="15.35" height="15.23"/></g><g class="cls-8"><rect class="cls-7" x="130.89" y="224.76" width="48.66" height="78.68"/></g><g class="cls-9"><rect class="cls-7" x="108.77" y="480.96" width="26.35" height="24.7"/></g><g class="cls-10"><rect class="cls-7" x="176.69" y="398.15" width="17.03" height="266.89"/></g><g class="cls-11"><rect class="cls-7" x="91.43" y="169.11" width="155.66" height="220.05"/></g><g class="cls-12"><rect class="cls-13" x="66.64" y="160.04" width="189.08" height="522.36"/></g><g class="cls-14"><rect class="cls-15" x="70.96" y="179.14" width="157.85" height="498.94"/></g><g class="cls-16"><rect class="cls-17" x="118.85" y="241.48" width="48.53" height="68.58"/></g><g class="cls-18"><rect class="cls-19" x="107.98" y="229.1" width="62.73" height="88.32"/></g><g class="cls-20"><rect class="cls-21" x="99.01" y="560.19" width="66.75" height="114.53"/></g><g class="cls-22"><rect class="cls-23" x="154.72" y="661.71" width="15.71" height="15.85"/></g><g class="cls-24"><rect class="cls-25" x="99.01" y="556.57" width="74.81" height="122.95"/></g><g class="cls-26"><rect class="cls-19" x="100.62" y="557.5" width="73.2" height="119.65"/></g><g class="cls-27"><rect class="cls-28" x="122.73" y="484.67" width="12.4" height="19.19"/></g><g class="cls-29"><rect class="cls-21" x="69.35" y="205.57" width="65.77" height="280.85"/></g><g class="cls-30"><rect class="cls-25" x="69.35" y="194.42" width="65.77" height="301.97"/></g><g class="cls-31"><rect class="cls-19" x="70.96" y="190.73" width="83.32" height="324.18"/></g><g class="cls-32"><rect class="cls-17" x="115.38" y="550.34" width="15.19" height="13.63"/></g><g class="cls-33"><rect class="cls-28" x="115.82" y="549.38" width="19.3" height="14.86"/></g><g class="cls-34"><rect class="cls-21" x="91.96" y="495.73" width="27.75" height="60.86"/></g><g class="cls-35"><rect class="cls-25" x="91.96" y="492.12" width="36.13" height="69.31"/></g><g class="cls-36"><rect class="cls-19" x="93.57" y="493.05" width="60.71" height="82.25"/></g><g class="cls-37"><rect class="cls-38" x="145.77" y="228.73" width="35.15" height="60.21"/></g><g class="cls-39"><rect class="cls-40" x="138.63" y="225.81" width="42.26" height="69.66"/></g><g class="cls-41"><rect class="cls-40" x="140.15" y="223.63" width="55.07" height="90.35"/></g><g class="cls-42"><rect class="cls-13" x="66.64" y="174.82" width="166.48" height="507.57"/></g><g class="cls-43"><rect class="cls-13" x="213.7" y="259.09" width="42.02" height="34.21"/></g><g class="cls-44"><rect class="cls-5" x="219.85" y="358.34" width="182.23" height="272.92"/></g><g class="cls-45"><rect class="cls-7" x="299.47" y="406.57" width="50.42" height="66.19"/></g><g class="cls-46"><rect class="cls-7" x="300.81" y="365.6" width="94.12" height="216.9"/></g><g class="cls-47"><rect class="cls-13" x="215.53" y="354.03" width="190.86" height="281.55"/></g><g class="cls-48"><rect class="cls-49" x="290.94" y="509.39" width="40.04" height="103.04"/></g><g class="cls-50"><rect class="cls-40" x="311.97" y="585.8" width="17.19" height="15.58"/></g><g class="cls-51"><rect class="cls-52" x="311.97" y="511.68" width="17.19" height="88.61"/></g><g class="cls-53"><rect class="cls-13" x="286.63" y="505.07" width="48.68" height="111.67"/></g><g class="cls-54"><rect class="cls-13" x="207.6" y="211.9" width="163.58" height="241.89"/></g><g class="cls-55"><rect class="cls-13" x="125.1" y="245.79" width="150.33" height="222.14"/></g></svg>