<svg id="Layer_1" data-name="Layer 1" xmlns="http://www.w3.org/2000/svg" viewBox="0 0 1280 720"><defs><style>.cls-1{fill:#1b8ffd;}.cls-2{fill:#81b652;}.cls-3{fill:#f0b474;}.cls-4{fill:#004b72;}.cls-5{fill:#fecb47;}.cls-6{fill:#71b62b;}.cls-7{fill:#f6da7a;}.cls-8{fill:#d6c06d;}.cls-9{fill:#faebc0;}.cls-10{fill:#389efe;}.cls-11{fill:#e75d3a;}.cls-12{fill:#03a84e;}.cls-13{fill:#004264;}.cls-14{fill:#162e45;}.cls-15{fill:#74a1c4;}.cls-16{fill:#64a127;}.cls-17{fill:#5abee6;}.cls-18{fill:#50a7ca;}.cls-19{fill:#c2e0ef;}.cls-20{fill:#e0eff7;}.cls-21{fill:#c4d9ef;}.cls-22{fill:#b1c5d8;}.cls-23{fill:#ffe5ad;}.cls-24{fill:#638aa7;}.cls-25{fill:#dbcfaa;}.cls-26{fill:#fcf5e0;}.cls-27{fill:#e1ebf7;}.cls-28{fill:#d3dde7;}.cls-29{fill:#ad6a3c;}.cls-30{fill:#628ba6;}</style></defs><title>Services</title><path class="cls-1" d="M304.5,605.5c77-13,209-94,295-89s434-13,497-82c35.88-39.29,118.77-59.78,183.5-70.13V0H0V417.88C54.54,460.59,236.63,617,304.5,605.5Z"/><polyline class="cls-2" points="261.72 661.06 50.33 539 50.33 343.46 156.02 325.55 261.72 465.51 261.72 660.84"/><polyline class="cls-3" points="257.37 653.9 231.21 638.8 231.21 476.57 166.38 346.39 257.37 466.88 257.37 654.3"/><path class="cls-4" d="M154.14,330.29,54.68,347.14V536.49l202.68,117V467L154.14,330.29m105.4,334.54L48.15,542.78A4.36,4.36,0,0,1,46,539V343.46a4.36,4.36,0,0,1,3.63-4.3l105.7-17.91a4.39,4.39,0,0,1,4.21,1.68l105.69,140a4.38,4.38,0,0,1,.88,2.63V661a4.33,4.33,0,0,1-.7,2.46,4.41,4.41,0,0,1-3.66,2,4.34,4.34,0,0,1-2.18-.58"/><polyline class="cls-5" points="473.12 538.4 261.72 416.35 261.72 220.8 367.42 202.89 473.12 342.85 473.12 538.79"/><path class="cls-6" d="M365.54,207.63l-99.46,16.85V413.83l202.68,117V344.31L365.54,207.63m105.4,334.54-211.39-122a4.37,4.37,0,0,1-2.19-3.78V220.8a4.37,4.37,0,0,1,3.64-4.3l105.7-17.91a4.39,4.39,0,0,1,4.21,1.68l105.69,140a4.38,4.38,0,0,1,.88,2.63v195.4a4.48,4.48,0,0,1-1,3,4.4,4.4,0,0,1-3.33,1.53,4.34,4.34,0,0,1-2.18-.58"/><polyline class="cls-7" points="261.72 661.05 473.12 539 473.12 343.45 261.72 465.5 261.72 660.84"/><polyline class="cls-8" points="340.05 610.53 349.99 530.52 350.14 604.71 340.05 610.53"/><polyline class="cls-9" points="424.09 561.68 423.76 485.46 424.76 484.88 451.86 517.02 437.16 524.68 438.14 525.19 437.16 525.76 437.16 530.77 436.16 555.13 424.09 562.1"/><polyline class="cls-9" points="266.08 624.88 266.08 538.29 333.22 614.56 322.25 620.89 297.66 606.69 267.05 624.53 266.08 624.6"/><path class="cls-4" d="M468.76,351,266.08,468V653.5l202.68-117V351.37M259.55,664.82a4.37,4.37,0,0,1-2.19-3.78V465.5a4.37,4.37,0,0,1,2.19-3.78l211.39-122a4.35,4.35,0,0,1,6.54,3.87V539a4.36,4.36,0,0,1-2.18,3.78L263.91,664.82a4.39,4.39,0,0,1-4.36,0"/><polyline class="cls-2" points="473.12 579.78 437.16 559.01 437.16 525.75 473.12 546.51 473.12 580.2"/><polyline class="cls-5" points="473.16 546.52 437.23 525.77 473.16 504.82 509.09 525.57 473.16 546.52"/><polyline class="cls-5" points="473.12 579.77 509.08 559.01 509.08 525.75 473.12 546.51 473.12 580.2"/><polyline class="cls-2" points="297.68 681.64 261.72 660.88 261.72 627.62 297.68 648.38 297.68 681.54"/><polyline class="cls-5" points="297.92 648.38 261.99 627.64 297.92 606.69 333.85 627.44 297.92 648.38"/><polyline class="cls-5" points="297.68 681.64 333.64 660.88 333.64 627.62 297.68 648.38 297.68 681.54"/><polyline class="cls-10" points="156.4 325.73 367.57 203.07 241.53 223.23 30.36 345.89 156.4 325.73"/><polyline class="cls-2" points="261.99 465.54 473.16 342.88 367.57 203.07 156.4 325.73 261.99 465.54"/><polyline class="cls-11" points="263.14 459.83 185.14 356.55 283.25 448.15 263.14 459.83"/><polyline class="cls-11" points="325.71 423.49 245.07 313.06 343.4 413.21 325.71 423.49"/><polyline class="cls-11" points="376.91 393.74 288.71 272.46 400.15 380.24 376.91 393.74"/><polyline class="cls-11" points="424.16 366.3 413.22 352.71 333.02 239.81 450.23 351.16 424.16 366.3"/><polyline class="cls-3" points="459.86 345.56 386.72 235.65 466.72 341.58 463.61 343.38 459.86 345.56"/><polyline class="cls-3" points="412.46 373.09 330.63 250.13 413.22 352.71 423.25 366.83 412.46 373.09"/><polyline class="cls-12" points="423.25 366.83 413.22 352.71 424.16 366.3 423.25 366.83"/><polyline class="cls-3" points="364.69 400.85 281.83 276.33 376.53 393.96 364.69 400.85"/><polyline class="cls-3" points="311.07 431.99 231.57 307.99 322.86 425.14 311.07 431.99"/><polyline class="cls-3" points="80.94 549.71 55.77 535.18 55.77 348.57 138.56 334.55 80.84 370.89 80.94 549.69"/><polyline class="cls-13" points="80.19 556.2 50.33 538.96 50.33 343.62 90.61 336.25 148.84 326.94 139.08 333.08 55.77 347.3 55.77 536.57 80.84 551.04 80.84 556.23"/><polyline class="cls-14" points="90.61 336.25 152.13 324.87 148.84 326.94 90.61 336.25"/><path class="cls-15" d="M242.21,223.12l1.1-.65,14.37-2.17c0,.12,0,.24,0,.36l-15.43,2.46"/><path class="cls-16" d="M257.64,220.66c0-.12,0-.24,0-.36l36.25-5.45-36.29,5.81"/><polyline class="cls-14" points="44.62 341.52 242.21 223.12 257.64 220.66 293.93 214.85 330.63 209.33 44.62 341.52"/><path class="cls-4" d="M366.42,208.78,162.85,327l100.29,132.8L466.72,341.58l-100.3-132.8M258.51,468.16,152.93,328.36a4.33,4.33,0,0,1-.8-3.49,4.39,4.39,0,0,1,2.09-2.91L365.39,199.3a4.34,4.34,0,0,1,5.66,1.14L476.64,340.25a4.37,4.37,0,0,1-1.29,6.4L264.18,469.31a4.44,4.44,0,0,1-2.19.59,4.35,4.35,0,0,1-3.48-1.74"/><polygon class="cls-5" points="425.9 370.9 321.29 229.96 425.9 370.9 425.9 370.9"/><polygon class="cls-5" points="378.31 398.89 273.69 257.95 378.31 398.89 378.31 398.89"/><polygon class="cls-5" points="326 427.89 221.38 286.94 326 427.89 326 427.89"/><polygon class="cls-5" points="223.18 286.94 103.05 303.67 223.18 286.94 223.18 286.94"/><polygon class="cls-5" points="275.64 257.95 157.31 272.46 275.64 257.95 275.64 257.95"/><polygon class="cls-5" points="323.26 229.96 204.93 244.47 323.26 229.96 323.26 229.96"/><polyline class="cls-17" points="189.8 556 99.36 509.06 99.36 395.15 189.8 444.94 189.8 556.23"/><polyline class="cls-3" points="180.22 560.58 89.55 513.52 89.55 399.33 99.36 404.73 99.36 509.2 180 551.05 180 560.59"/><polyline class="cls-18" points="180 550.91 99.36 509.06 99.36 404.93 180 449.32 180 550.78"/><polyline class="cls-19" points="420.13 569.7 355.44 607.05 355.24 510.88 419.73 476.82 420.13 569.31"/><path class="cls-20" d="M359.8,599.82l-.17-81.31,1.44-.79a4.26,4.26,0,0,0,1.51,1.59,4.31,4.31,0,0,0,.47.26l44.33,52.64L359.8,599.68"/><path class="cls-21" d="M479,577.52l-.78-.66L509.09,559,479,577.52m-5.79-31h0l2.85-1.67h0l-2.87,1.66m3.07-1.78h0l.73-.42h0l-.74.42"/><polyline class="cls-22" points="473.12 581.29 473.12 579.75 478.14 576.86 478.91 577.52 473.12 581.07"/><path class="cls-23" d="M473.12,546.42v-3l2.86,1.48-2.86,1.67m3.1-1.79-.84-1.14,1.57.72-.73.42"/><polyline class="cls-23" points="473.12 580.2 473.12 546.52 475.99 544.86 476.46 545.1 476.19 544.74 476.93 544.32 509.05 559.01 478.14 576.86 473.12 579.75"/><polyline class="cls-24" points="466.75 576.05 441.6 562.21 442.19 561.87 466.75 576.05 466.75 576.05"/><polyline class="cls-25" points="436.15 555.25 437.16 530.8 437.16 554.67 436.15 555.25"/><polyline class="cls-13" points="441.53 562.21 435.99 559.16 436.15 555.25 437.16 554.67 437.16 559.01 442.12 561.87 441.53 562.21"/><polyline class="cls-3" points="466.68 576.05 442.12 561.87 437.16 559.01 437.16 554.67 437.16 530.8 466.68 576.05"/><polyline class="cls-9" points="452.08 517.11 451.99 517 454.65 515.61 452.08 517.11"/><polyline class="cls-26" points="438.21 525.2 437.23 524.68 451.99 517 452.08 517.11 438.21 525.2"/><polyline class="cls-23" points="475.34 543.59 473.12 542.58 473.12 543.37 438.18 525.2 452.04 517.11 454.62 515.61 454.62 515.61 475.34 543.59"/><polyline class="cls-27" points="476.03 544.86 476.01 544.85 476.22 544.73 476.23 544.74 476.03 544.86"/><polyline points="475.98 544.85 473.12 543.37 473.12 542.58 475.34 543.59 476.19 544.73 475.98 544.85"/><polyline points="476.5 545.1 476.03 544.86 476.23 544.74 476.5 545.1"/><path class="cls-22" d="M299.86,683.72v-3.18L333.64,661v-.13l1.63.75L299.86,683.4m0-35.64v-.34l1.41-.83h0l-1.43.83m2-1.3v0h0l0,0"/><path class="cls-23" d="M299.86,647.76v-1.9l1.41.73-1.41.83m2-1.31,0,0,0,0h0"/><polyline class="cls-23" points="299.86 680.45 299.86 647.66 301.27 646.85 303.15 647.83 302.08 646.38 302.11 646.36 333.64 660.78 333.64 660.91 299.86 680.41"/><polyline class="cls-24" points="281.03 671.87 265.99 663.6 266.35 663.39 281.03 671.87"/><polyline class="cls-13" points="265.99 663.6 262.48 661.66 262.5 661.17 266.35 663.39 265.99 663.6"/><polyline class="cls-3" points="293.17 678.55 281.03 671.87 266.35 663.39 262.5 661.17 263.64 633.3 293.17 678.55"/><polyline class="cls-23" points="302.08 646.08 299.86 645.07 299.86 645.86 263.93 627.18 281.36 618.11 302.08 646.08"/><polyline class="cls-28" points="301 646.6 300.99 646.6 301.81 646.11 301.83 646.13 301 646.6"/><polyline points="301.27 646.6 299.86 645.86 299.86 645.07 302.08 646.08 302.1 646.11 301.27 646.6"/><polyline points="302.92 647.6 301 646.6 301.83 646.13 302.92 647.6"/><path class="cls-4" d="M415,483.52l-56.3,29.73.17,86.79,56.49-32.62-.36-84.2M353.26,610.84a4.33,4.33,0,0,1-2.18-3.76l-.2-96.2A4.36,4.36,0,0,1,353.2,507L417.71,473a4.36,4.36,0,0,1,5.66,1.44,4.55,4.55,0,0,1,.72,2.53l.39,92.76a4.35,4.35,0,0,1-2.17,3.79L357.6,610.84a4.35,4.35,0,0,1-4.34,0"/><path class="cls-5" d="M473.12,343.62c32.08,10,41.39,42.13,39.71,84.27l-39.71-19.76V343.74"/><path class="cls-6" d="M477.48,405.43l31.17,15.51c.42-38.64-9.58-61.48-31.17-71v56m33.4,25.94L471.18,412a4.37,4.37,0,0,1-2.42-3.9V343.69a4.34,4.34,0,0,1,.38-1.88,4.38,4.38,0,0,1,5.28-2.35c30.77,9.62,44.76,38.6,42.76,88.6a4.36,4.36,0,0,1-2.13,3.58,4.45,4.45,0,0,1-2.22.61,4.33,4.33,0,0,1-2-.46"/><path class="cls-10" d="M473.16,342.88c32.07,10,41.38,42.87,39.7,85l-45.17,27s2.31-28.57-4.78-47.56c-10.7-28.61-37.55-36.71-37.55-36.71l47.8-27.76"/><path class="cls-29" d="M472.39,447c.18-10.18-.38-27.76-5.4-41.19a65.07,65.07,0,0,0-9-16.43,55.91,55.91,0,0,0-22.69-19.5l.43-.25c8.49,1.76,33.82,8.27,49.26,25.67,12.67,14.29,15.09,28.78,15.53,34.86L472.39,447"/><path class="cls-4" d="M473.65,347.63,435,370.07a66.62,66.62,0,0,1,32,35.76c5,13.43,5.58,31,5.4,41.19l36.2-21.65c1.3-43.52-10.14-69-34.94-77.74m-8.26,111a4.35,4.35,0,0,1-2.05-4.05c0-.27,2.15-27.84-4.52-45.68-9.76-26.13-34.48-34-34.72-34.06a4.36,4.36,0,0,1-.93-7.95L471,339.11a4.31,4.31,0,0,1,3.49-.39c30.79,9.62,44.77,38.85,42.76,89.34a4.38,4.38,0,0,1-2.12,3.57l-45.17,27a4.35,4.35,0,0,1-4.54,0"/><path class="cls-10" d="M261.72,465.54c32.08,10,41.39,42.13,39.71,84.27l-39.71-19.76V465.79"/><polyline class="cls-14" points="288.68 538.59 266.08 527.35 266.08 479.12 288.68 538.59"/><path class="cls-4" d="M266.08,527.35l31.17,15.51c.42-38.64-9.58-61.48-31.17-71v55m33.4,26.9L259.78,534a4.37,4.37,0,0,1-2.42-3.9V465.63a4.34,4.34,0,0,1,5.66-4.25C293.79,471,307.78,500,305.78,550a4.36,4.36,0,0,1-2.13,3.58,4.42,4.42,0,0,1-2.22.61,4.33,4.33,0,0,1-1.95-.46"/><path class="cls-2" d="M425.9,370.9c32.08,10,43.47,41.88,41.79,84l-48.06,27.77s2.31-28.57-4.78-47.56c-10.69-28.61-36.54-36.22-36.54-36.22l47.59-28"/><path class="cls-11" d="M424.33,474.93c.19-10.16-.36-27.84-5.4-41.34a65.52,65.52,0,0,0-31-35.29l.2-.12c9.59,1.91,33.22,8.11,47.89,24.66,13.85,15.61,15.46,31.45,15.61,36.32l-27.29,15.77"/><path class="cls-4" d="M426.41,375.66,387.92,398.3a65.52,65.52,0,0,1,31,35.29c5,13.5,5.59,31.18,5.4,41.34l39.08-22.58c1.18-41.89-11.26-67.67-37-76.69m-9.11,110.7a4.35,4.35,0,0,1-2-4c0-.28,2.16-27.81-4.52-45.69-9.75-26.1-32.72-33.27-33.68-33.56a4.36,4.36,0,0,1-1-7.94l47.59-28a4.36,4.36,0,0,1,3.51-.4c16.57,5.18,28.75,16.05,36.21,32.31,6.64,14.45,9.54,33.3,8.63,56a4.37,4.37,0,0,1-2.17,3.6l-48.06,27.76a4.33,4.33,0,0,1-4.51-.09"/><path class="cls-10" d="M376.72,398.9c32.07,10,44.59,41.64,42.91,83.78l-55.28,32.93s2.62-32.22-4.48-51.21C349.18,435.79,323.26,430,323.26,430l53.46-31.05"/><path class="cls-14" d="M404.24,486.77c1.17-7.45,3-27.66-5.86-53.57A62.2,62.2,0,0,0,377,403.78l.22-.13c32.65,11.4,38.93,47.24,38.14,76.5l-11.11,6.62"/><path class="cls-3" d="M454.9,457.27c1.16-8,2.55-27.74-6-52.77a52.69,52.69,0,0,0-22.85-28.64l.34-.2c25.74,9,38.18,34.8,37,76.69l-8.51,4.92"/><path class="cls-13" d="M454.19,461.18s.34-1.37.71-3.91l8.51-4.92c1.18-41.89-11.26-67.67-37-76.69l-.34.2a20.41,20.41,0,0,0-2-1s.19,0,.55,0c2.68,0,14.94,1.1,31.47,19.74s12.7,58.68,12.7,58.68l-14.63,8"/><path class="cls-14" d="M503.18,428.6c.35-7.24.86-32.8-7.88-53.8-6.73-16.17-16.5-23.57-22.39-26.74l.74-.43c24.8,8.75,36.24,34.22,34.94,77.74l-5.41,3.23"/><path class="cls-13" d="M503.06,430.6s.06-.71.12-2l5.41-3.23c1.3-43.52-10.14-69-34.94-77.74l-.74.43a24.87,24.87,0,0,0-5.06-2.15s.18,0,.55,0c2.68,0,14.94,1.11,31.47,19.74s12.7,58.68,12.7,58.68l-9.51,6.29"/><path class="cls-29" d="M369.11,507.7c.31-11.11,0-31-5.15-44.83A60.11,60.11,0,0,0,333.4,429.1l1-.56c9.55,2.51,33.81,10.22,48.62,26.93C395.56,469.65,398,484,398.5,490.19L369.11,507.7"/><path class="cls-4" d="M377.21,403.65,333.4,429.1A60.11,60.11,0,0,1,364,462.87c5.16,13.81,5.46,33.72,5.15,44.83l46.24-27.55c.79-29.26-5.49-65.1-38.14-76.5M362,519.31a4.37,4.37,0,0,1-2-4c0-.32,2.47-31.47-4.21-49.34-9.69-25.92-32.53-31.5-33.49-31.72a4.36,4.36,0,0,1-1.23-8l53.46-31.05a4.31,4.31,0,0,1,3.49-.39c32,10,47.86,40.46,46,88.11a4.37,4.37,0,0,1-2.12,3.57l-55.28,32.94a4.38,4.38,0,0,1-4.54-.05"/><path class="cls-2" d="M323.26,430c32.08,10,42.77,43.53,41.09,85.66l-61.93,34.2s2.32-28.57-4.78-47.56C287,473.64,262,465.54,262,465.54L323.26,430"/><path class="cls-30" d="M302.56,547.55s-.41-23.46-3.14-39.64c4,15.06,3.47,33.34,3.14,39.64h0"/><polyline class="cls-9" points="333.64 532.45 333.64 532.45 333.64 532.45 333.64 532.45"/><path class="cls-30" d="M265.93,463.25l-.46-.34.76.16-.3.18"/><path class="cls-11" d="M302.56,547.55c.33-6.3.84-24.58-3.14-39.64a52.32,52.32,0,0,0-2.9-11.3c-6.72-15.48-27.24-30.91-30.59-33.36l.3-.18c5.12,1.15,34.8,8.45,51.9,27.73,16.6,18.72,15.73,41.57,15.72,41.65h0l-31.29,15.1"/><path class="cls-13" d="M364.41,513.75c.91-28.76-4.09-53.35-17.91-68.95a89.36,89.36,0,0,1,9.41,9.22C372.54,472.76,366,512.89,366,512.89l-1.59.86"/><path class="cls-3" d="M351.37,520.85s5.95-23.73-5.27-56.68a61.12,61.12,0,0,0-24.79-31.71s10.83.28,25.19,12.34c13.82,15.6,18.82,40.19,17.91,68.95l-13,7.1"/><path class="cls-4" d="M323.76,434.7l-52.35,30.41a67.54,67.54,0,0,1,30.31,35.61c5.08,13.58,5.6,31.38,5.4,41.52l53-29.25c1.5-52.48-12.21-69.8-36.32-78.29Zm-23.7,118.77a4.35,4.35,0,0,1-2-4c0-.28,2.16-27.81-4.52-45.69-9.78-26.16-32.7-34-32.92-34.09a4.35,4.35,0,0,1-.84-7.91l61.27-35.59a4.32,4.32,0,0,1,3.49-.39c30.84,9.64,46.11,40.76,44.14,90a4.37,4.37,0,0,1-2.24,3.65l-61.93,34.19a4.29,4.29,0,0,1-2.11.55,4.37,4.37,0,0,1-2.36-.7Z"/><polygon class="cls-4" points="422.4 373.5 429.4 368.31 324.79 227.36 317.79 232.56 422.4 373.5 422.4 373.5"/><polygon class="cls-4" points="374.81 401.49 381.81 396.3 277.19 255.35 270.19 260.55 374.81 401.49 374.81 401.49"/><polygon class="cls-4" points="322.5 430.49 329.5 425.29 224.88 284.35 217.88 289.54 322.5 430.49 322.5 430.49"/><path class="cls-4" d="M345.11,211.08,243,227.41,52.82,337.88l102.09-16.33,190.2-110.47ZM26.25,347.36a4.37,4.37,0,0,1,1.92-5.24L239.34,219.46a4.2,4.2,0,0,1,1.5-.53l126-20.16a4.36,4.36,0,0,1,2.87,8.07L158.59,329.5a4.2,4.2,0,0,1-1.5.53l-126,20.17a5.47,5.47,0,0,1-.69.05,4.37,4.37,0,0,1-4.11-2.89Z"/><polygon class="cls-4" points="103.65 307.99 223.78 291.26 222.58 282.63 102.44 299.36 103.65 307.99 103.65 307.99"/><polygon class="cls-4" points="157.84 276.79 276.18 262.28 275.11 253.63 156.78 268.14 157.84 276.79 157.84 276.79"/><polygon class="cls-4" points="205.46 248.8 323.79 234.28 322.73 225.63 204.4 240.15 205.46 248.8 205.46 248.8"/><path class="cls-4" d="M103.72,402.53V506.41l81.73,42.42V447.52l-81.73-45Zm84.09,157.35-90.46-47A4.36,4.36,0,0,1,95,509.07V395.26a4.49,4.49,0,0,1,.73-2.55,4.37,4.37,0,0,1,5.72-1.39l90.46,49.8a4.36,4.36,0,0,1,2.25,3.81v111a4.5,4.5,0,0,1-.68,2.48,4.37,4.37,0,0,1-3.67,2,4.44,4.44,0,0,1-2-.49Z"/><path class="cls-4" d="M441.52,533.3v23.19l27.24,15.73V549L441.52,533.3Zm29.42,50.25-36-20.76A4.36,4.36,0,0,1,432.8,559V525.85a4.36,4.36,0,0,1,6.55-3.87l35.95,20.75a4.36,4.36,0,0,1,2.18,3.78v33.12a4.48,4.48,0,0,1-1,3,4.4,4.4,0,0,1-3.33,1.53,4.34,4.34,0,0,1-2.18-.58Z"/><path class="cls-4" d="M473.17,509.86l-27.26,15.89,27.24,15.73,27.26-15.89-27.24-15.73ZM471,550.29l-35.93-20.74a4.37,4.37,0,0,1,0-7.55L471,501.06a4.37,4.37,0,0,1,4.38,0l35.93,20.75a4.33,4.33,0,0,1,2.18,3.76,4.38,4.38,0,0,1-2.16,3.78l-35.94,20.94a4.26,4.26,0,0,1-2.19.59,4.34,4.34,0,0,1-2.18-.58Z"/><path class="cls-4" d="M504.72,533.3,477.48,549v23.19l27.24-15.73V533.3Zm-33.78,50.25a4.38,4.38,0,0,1-2.18-3.78V546.51a4.33,4.33,0,0,1,2.18-3.77L506.8,522a4.52,4.52,0,0,1,2.6-.64,4.39,4.39,0,0,1,4,4.36V559a4.36,4.36,0,0,1-2.18,3.78l-35.95,20.76a4.41,4.41,0,0,1-4.37,0Z"/><path class="cls-4" d="M266.08,635.17v23.19l27.24,15.73V650.9l-27.24-15.73Zm29.42,50.24-36-20.75a4.38,4.38,0,0,1-2.18-3.78V627.72a4.46,4.46,0,0,1,.76-2.58,4.4,4.4,0,0,1,5.79-1.3l35.95,20.76a4.36,4.36,0,0,1,2.18,3.78v33.19a4.35,4.35,0,0,1-.7,2.46,4.41,4.41,0,0,1-3.66,2,4.35,4.35,0,0,1-2.18-.59Z"/><path class="cls-4" d="M297.93,611.73l-27.26,15.89,27.24,15.72,27.26-15.88-27.24-15.73Zm-2.19,40.43-35.93-20.75a4.33,4.33,0,0,1-2.18-3.76,4.38,4.38,0,0,1,2.16-3.78l35.94-20.94a4.35,4.35,0,0,1,4.37,0L336,623.66a4.36,4.36,0,0,1,0,7.54l-35.93,20.95a4.43,4.43,0,0,1-2.2.59,4.37,4.37,0,0,1-2.18-.58Z"/><path class="cls-4" d="M329.28,635.17,302,650.9v23.19l27.24-15.73V635.17Zm-33.77,50.25a4.37,4.37,0,0,1-2.19-3.78V648.38a4.37,4.37,0,0,1,2.19-3.78l35.95-20.76a4.35,4.35,0,0,1,6.54,3.87v33.17a4.36,4.36,0,0,1-2.18,3.78l-35.95,20.76a4.48,4.48,0,0,1-2.18.58,4.42,4.42,0,0,1-2.18-.58Z"/></svg>