<svg id="Layer_1" data-name="Layer 1" xmlns="http://www.w3.org/2000/svg" xmlns:xlink="http://www.w3.org/1999/xlink" viewBox="0 0 1280 720"><defs><style>.cls-1{fill:url(#linear-gradient);}.cls-2{fill:url(#linear-gradient-2);}.cls-3{fill:#81b652;}.cls-4{fill:#f0b474;}.cls-5{fill:#004b72;}.cls-6{fill:#fecb47;}.cls-7{fill:#71b62b;}.cls-8{fill:#f6da7a;}.cls-9{fill:#d6c06d;}.cls-10{fill:#faebc0;}.cls-11{fill:#389efe;}.cls-12{fill:#e75d3a;}.cls-13{fill:#03a84e;}.cls-14{fill:#004264;}.cls-15{fill:#162e45;}.cls-16{fill:#74a1c4;}.cls-17{fill:#64a127;}.cls-18{fill:#5abee6;}.cls-19{fill:#50a7ca;}.cls-20{fill:#c2e0ef;}.cls-21{fill:#e0eff7;}.cls-22{fill:#c4d9ef;}.cls-23{fill:#b1c5d8;}.cls-24{fill:#ffe5ad;}.cls-25{fill:#638aa7;}.cls-26{fill:#dbcfaa;}.cls-27{fill:#fcf5e0;}.cls-28{fill:#e1ebf7;}.cls-29{fill:#d3dde7;}.cls-30{fill:#ad6a3c;}.cls-31{fill:#628ba6;}</style><linearGradient id="linear-gradient" x1="1039.44" y1="72.44" x2="-250.47" y2="873.75" gradientUnits="userSpaceOnUse"><stop offset="0" stop-color="#02427e"/><stop offset="0.4" stop-color="#326e6d"/><stop offset="1" stop-color="#81b652"/></linearGradient><linearGradient id="linear-gradient-2" x1="123.95" y1="737.88" x2="432.75" y2="3.02" xlink:href="#linear-gradient"/></defs><title>Services</title><path class="cls-1" d="M0-3V687.52c98.14,6.05,149.42-10.47,178-31.52,6.68-4.92,23.41-18.4,50-27,71.73-23.19,141.07,13.14,162,23,183.93,86.61,404-94.21,788-24,50.47,9.23,75,17.53,102,16.15V-3Z"/><circle class="cls-2" cx="284" cy="357" r="294"/><polyline class="cls-3" points="281.27 615.36 64 489.92 64 288.95 172.63 270.54 281.27 414.39 281.27 615.14"/><polyline class="cls-4" points="276.79 608.01 249.91 592.49 249.91 425.75 183.28 291.97 276.79 415.79 276.79 608.42"/><path class="cls-5" d="M170.7,275.41,68.48,292.73V487.34L276.79,607.61V415.89L170.7,275.41M279,619.24,61.76,493.81a4.51,4.51,0,0,1-2.24-3.89V289a4.49,4.49,0,0,1,3.74-4.42l108.63-18.4a4.47,4.47,0,0,1,4.32,1.72L284.84,411.68a4.49,4.49,0,0,1,.91,2.71v200.9a4.52,4.52,0,0,1-.72,2.53,4.56,4.56,0,0,1-3.77,2,4.51,4.51,0,0,1-2.24-.6"/><polyline class="cls-6" points="498.54 489.3 281.27 363.86 281.27 162.88 389.9 144.47 498.54 288.32 498.54 489.71"/><path class="cls-7" d="M388,149.35,285.75,166.66V361.27L494.06,481.54V289.82L388,149.35M496.29,493.18,279,367.74a4.47,4.47,0,0,1-2.24-3.88v-201a4.48,4.48,0,0,1,3.73-4.42l108.63-18.41a4.49,4.49,0,0,1,4.33,1.72L502.11,285.62a4.48,4.48,0,0,1,.91,2.7V489.15A4.6,4.6,0,0,1,502,492.2a4.49,4.49,0,0,1-5.66,1"/><polyline class="cls-8" points="281.27 615.36 498.54 489.91 498.54 288.94 281.27 414.38 281.27 615.14"/><polyline class="cls-9" points="361.77 563.44 371.98 481.21 372.14 557.45 361.77 563.44"/><polyline class="cls-10" points="448.14 513.23 447.8 434.89 448.84 434.3 476.69 467.33 461.58 475.2 462.59 475.73 461.58 476.31 461.58 481.47 460.55 506.5 448.14 513.66"/><polyline class="cls-10" points="285.75 578.18 285.75 489.19 354.75 567.58 343.48 574.09 318.2 559.49 286.74 577.83 285.75 577.89"/><path class="cls-5" d="M494.06,296.7,285.75,417V607.59L494.06,487.33V297.08M279,619.23a4.47,4.47,0,0,1-2.24-3.88v-201a4.49,4.49,0,0,1,2.24-3.89L496.29,285.06a4.51,4.51,0,0,1,5.95,1.34A4.57,4.57,0,0,1,503,289V489.91a4.5,4.5,0,0,1-2.25,3.89L283.51,619.23a4.48,4.48,0,0,1-4.48,0"/><polyline class="cls-3" points="498.54 531.83 461.58 510.49 461.58 476.3 498.54 497.64 498.54 532.26"/><polyline class="cls-6" points="498.57 497.64 461.64 476.32 498.57 454.8 535.5 476.12 498.57 497.64"/><polyline class="cls-6" points="498.54 531.83 535.49 510.49 535.49 476.3 498.54 497.64 498.54 532.26"/><polyline class="cls-3" points="318.23 636.52 281.27 615.18 281.27 581 318.23 602.33 318.23 636.42"/><polyline class="cls-6" points="318.47 602.34 281.54 581.02 318.47 559.49 355.4 580.81 318.47 602.34"/><polyline class="cls-6" points="318.23 636.52 355.18 615.18 355.18 581 318.23 602.33 318.23 636.42"/><polyline class="cls-11" points="173.03 270.73 390.06 144.66 260.51 165.38 43.48 291.45 173.03 270.73"/><polyline class="cls-3" points="281.54 414.42 498.57 288.35 390.06 144.66 173.03 270.73 281.54 414.42"/><polyline class="cls-12" points="282.72 408.55 202.56 302.4 303.39 396.54 282.72 408.55"/><polyline class="cls-12" points="347.03 371.2 264.15 257.71 365.21 360.63 347.03 371.2"/><polyline class="cls-12" points="399.65 340.63 309 215.98 423.54 326.75 399.65 340.63"/><polyline class="cls-12" points="448.21 312.43 436.97 298.46 354.55 182.42 475.01 296.86 448.21 312.43"/><polyline class="cls-4" points="484.9 291.11 409.73 178.15 491.95 287.02 488.76 288.87 484.9 291.11"/><polyline class="cls-4" points="436.19 319.41 352.09 193.03 436.97 298.46 447.27 312.97 436.19 319.41"/><polyline class="cls-13" points="447.27 312.97 436.97 298.46 448.21 312.43 447.27 312.97"/><polyline class="cls-4" points="387.09 347.93 301.93 219.96 399.26 340.86 387.09 347.93"/><polyline class="cls-4" points="331.99 379.93 250.28 252.5 344.1 372.9 331.99 379.93"/><polyline class="cls-4" points="95.47 500.92 69.6 485.99 69.6 294.2 154.68 279.79 95.36 317.14 95.47 500.91"/><polyline class="cls-14" points="94.7 507.6 64 489.87 64 289.11 105.4 281.55 165.25 271.97 155.22 278.29 69.6 292.9 69.6 487.42 95.36 502.29 95.36 507.63"/><polyline class="cls-15" points="105.4 281.55 168.63 269.84 165.25 271.97 105.4 281.55"/><path class="cls-16" d="M261.21,165.27l1.13-.67,14.77-2.22a3.6,3.6,0,0,0,0,.36l-15.86,2.53"/><path class="cls-17" d="M277.07,162.74a3.6,3.6,0,0,1,0-.36l37.26-5.61-37.3,6"/><polyline class="cls-15" points="58.14 286.95 261.21 165.27 277.07 162.74 314.37 156.77 352.09 151.09 58.14 286.95"/><path class="cls-5" d="M388.88,150.53,179.65,272.06,282.72,408.55,492,287,388.88,150.53M278,417.12,169.45,273.43a4.48,4.48,0,0,1,1.32-6.58l217-126.06a4.47,4.47,0,0,1,5.82,1.17L502.15,285.65a4.5,4.5,0,0,1-1.33,6.58l-217,126.06a4.46,4.46,0,0,1-5.82-1.17"/><polygon class="cls-6" points="450 317.15 342.48 172.3 450 317.15 450 317.15"/><polygon class="cls-6" points="401.09 345.92 293.57 201.07 401.09 345.92 401.09 345.92"/><polygon class="cls-6" points="347.33 375.72 239.81 230.87 347.33 375.72 347.33 375.72"/><polygon class="cls-6" points="241.65 230.87 118.19 248.06 241.65 230.87 241.65 230.87"/><polygon class="cls-6" points="295.57 201.07 173.95 215.98 295.57 201.07 295.57 201.07"/><polygon class="cls-6" points="344.51 172.3 222.9 187.21 344.51 172.3 344.51 172.3"/><polyline class="cls-18" points="207.35 507.39 114.4 459.15 114.4 342.07 207.35 393.25 207.35 507.63"/><polyline class="cls-4" points="197.5 512.1 104.32 463.74 104.32 346.37 114.4 351.92 114.4 459.3 197.27 502.31 197.27 512.11"/><polyline class="cls-19" points="197.27 502.16 114.4 459.15 114.4 352.13 197.27 397.75 197.27 502.03"/><polyline class="cls-20" points="444.07 521.48 377.58 559.86 377.38 461.02 443.66 426.02 444.07 521.07"/><path class="cls-21" d="M382.06,552.42l-.17-83.56,1.48-.81a4.48,4.48,0,0,0,1.55,1.63,4.67,4.67,0,0,0,.49.27L431,524.05l-48.91,28.24"/><path class="cls-22" d="M504.52,529.5l-.79-.67,31.77-18.35-31,19m-5.95-31.86h0l2.94-1.71h0l-2.95,1.7m3.16-1.82h0l.75-.44h0l-.76.44"/><polyline class="cls-23" points="498.54 533.38 498.54 531.8 503.69 528.83 504.48 529.5 498.54 533.16"/><path class="cls-24" d="M498.54,497.55v-3.14l2.93,1.52-2.93,1.71m3.18-1.83-.87-1.18,1.62.74-.75.44"/><polyline class="cls-24" points="498.54 532.26 498.54 497.64 501.48 495.94 501.97 496.19 501.69 495.82 502.45 495.38 535.47 510.48 503.69 528.83 498.54 531.8"/><polyline class="cls-25" points="491.98 528 466.13 513.77 466.74 513.42 491.98 528 491.98 528"/><polyline class="cls-26" points="460.54 506.62 461.58 481.49 461.58 506.02 460.54 506.62"/><polyline class="cls-14" points="466.07 513.77 460.38 510.64 460.54 506.62 461.58 506.02 461.58 510.48 466.67 513.42 466.07 513.77"/><polyline class="cls-4" points="491.92 528 466.67 513.42 461.58 510.48 461.58 506.02 461.58 481.49 491.92 528"/><polyline class="cls-10" points="476.91 467.42 476.81 467.31 479.56 465.88 476.91 467.42"/><polyline class="cls-27" points="462.66 475.73 461.64 475.2 476.81 467.31 476.91 467.42 462.66 475.73"/><polyline class="cls-24" points="500.81 494.63 498.54 493.59 498.54 494.41 462.62 475.73 476.87 467.42 479.52 465.88 479.52 465.88 500.81 494.63"/><polyline class="cls-28" points="501.52 495.94 501.51 495.93 501.72 495.81 501.73 495.82 501.52 495.94"/><polyline points="501.47 495.93 498.54 494.41 498.54 493.59 500.81 494.63 501.68 495.81 501.47 495.93"/><polyline points="502.01 496.19 501.52 495.94 501.73 495.82 502.01 496.19"/><path class="cls-23" d="M320.47,638.66v-3.27l34.71-20v-.14l1.68.77-36.39,22.35m0-36.63v-.35l1.45-.85h0l-1.46.85m2-1.34h0l0,0h0l0,0"/><path class="cls-24" d="M320.47,601.7v-2l1.45.75-1.45.85m2-1.34,0,0,0,0,0,0"/><polyline class="cls-24" points="320.47 635.3 320.47 601.59 321.91 600.76 323.85 601.77 322.75 600.28 322.77 600.26 355.18 615.08 355.18 615.22 320.47 635.26"/><polyline class="cls-25" points="301.11 626.48 285.66 617.97 286.02 617.76 301.11 626.48"/><polyline class="cls-14" points="285.66 617.97 282.04 615.98 282.06 615.48 286.02 617.76 285.66 617.97"/><polyline class="cls-4" points="313.58 633.34 301.11 626.48 286.02 617.76 282.06 615.48 283.24 586.83 313.58 633.34"/><polyline class="cls-24" points="322.75 599.97 320.47 598.93 320.47 599.75 283.54 580.54 301.45 571.22 322.75 599.97"/><polyline class="cls-29" points="321.64 600.51 321.62 600.5 322.47 600.01 322.49 600.02 321.64 600.51"/><polyline points="321.92 600.5 320.47 599.75 320.47 598.93 322.75 599.97 322.77 600.01 321.92 600.5"/><polyline points="323.6 601.53 321.64 600.51 322.49 600.02 323.6 601.53"/><path class="cls-5" d="M438.81,432.89l-57.87,30.56.18,89.2,58.06-33.52-.37-86.54M375.34,563.75a4.48,4.48,0,0,1-2.24-3.86L372.9,461a4.47,4.47,0,0,1,2.39-4l66.29-35a4.49,4.49,0,0,1,5.82,1.48,4.58,4.58,0,0,1,.74,2.6l.41,95.34a4.48,4.48,0,0,1-2.24,3.89l-66.5,38.4a4.46,4.46,0,0,1-4.47,0"/><path class="cls-6" d="M498.54,289.11c33,10.31,42.53,43.31,40.8,86.61l-40.8-20.3V289.24"/><path class="cls-7" d="M503,352.64l32,15.94c.44-39.71-9.84-63.19-32-73v57.51m34.32,26.65-40.8-20.3a4.49,4.49,0,0,1-2.48-4V289.19a4.45,4.45,0,0,1,5.81-4.35c31.62,9.88,46,39.67,44,91.06a4.48,4.48,0,0,1-4.48,4.3,4.42,4.42,0,0,1-2-.47"/><path class="cls-11" d="M498.57,288.35c33,10.31,42.54,44.07,40.81,87.37L493,403.5s2.38-29.37-4.91-48.88c-11-29.41-38.59-37.73-38.59-37.73l49.12-28.54"/><path class="cls-30" d="M497.78,395.39c.19-10.47-.39-28.54-5.55-42.34A66.65,66.65,0,0,0,483,336.17a57.37,57.37,0,0,0-23.32-20.05l.44-.25c8.73,1.81,34.77,8.5,50.63,26.38,13,14.69,15.52,29.58,16,35.83l-28.93,17.31"/><path class="cls-5" d="M499.08,293.24l-39.7,23.06a68.45,68.45,0,0,1,32.85,36.75c5.16,13.8,5.74,31.87,5.55,42.34L535,373.13c1.34-44.73-10.42-70.9-35.91-79.89m-8.5,114.06a4.49,4.49,0,0,1-2.1-4.16c0-.29,2.21-28.62-4.64-47-10-26.85-35.44-34.93-35.69-35a4.49,4.49,0,0,1-.95-8.17l49.12-28.53a4.47,4.47,0,0,1,3.59-.4c31.64,9.89,46,39.92,43.94,91.82a4.48,4.48,0,0,1-2.17,3.67l-46.43,27.77a4.42,4.42,0,0,1-2.3.64,4.52,4.52,0,0,1-2.37-.68"/><path class="cls-11" d="M281.27,414.42c33,10.3,42.53,43.3,40.8,86.61l-40.8-20.31V414.67"/><polyline class="cls-15" points="308.97 489.5 285.75 477.94 285.75 428.38 308.97 489.5"/><path class="cls-5" d="M285.75,477.94l32,15.94c.43-39.71-9.85-63.18-32-73v56.52M320.08,505l-40.81-20.31a4.48,4.48,0,0,1-2.48-4V414.51a4.6,4.6,0,0,1,.38-1.94,4.5,4.5,0,0,1,5.43-2.43c31.63,9.89,46,39.67,43.95,91.07a4.48,4.48,0,0,1-6.47,3.83"/><path class="cls-3" d="M450,317.15c33,10.31,44.68,43,42.95,86.35L443.56,432s2.38-29.36-4.92-48.88c-11-29.4-37.55-37.23-37.55-37.23L450,317.15"/><path class="cls-12" d="M448.39,424.07c.19-10.44-.37-28.61-5.55-42.49A67.35,67.35,0,0,0,411,345.31l.22-.12c9.85,2,34.13,8.34,49.22,25.34,14.23,16.05,15.88,32.33,16,37.33l-28.05,16.21"/><path class="cls-5" d="M450.53,322.05,411,345.31a67.35,67.35,0,0,1,31.88,36.27c5.18,13.88,5.74,32.05,5.55,42.49l40.17-23.21c1.21-43.05-11.58-69.55-38-78.81m-9.37,113.77a4.49,4.49,0,0,1-2.07-4.15c0-.28,2.22-28.58-4.64-46.95-10-26.82-33.64-34.2-34.63-34.5a4.48,4.48,0,0,1-1-8.16l48.91-28.77a4.48,4.48,0,0,1,3.61-.41c17,5.32,29.55,16.49,37.22,33.2,6.81,14.85,9.8,34.23,8.87,57.6a4.51,4.51,0,0,1-2.24,3.7L445.8,435.91a4.5,4.5,0,0,1-4.64-.09"/><path class="cls-11" d="M399.46,345.92c33,10.31,45.82,42.81,44.1,86.11l-56.82,33.85s2.7-33.12-4.6-52.64c-11-29.4-37.62-35.4-37.62-35.4l54.94-31.92"/><path class="cls-15" d="M427.74,436.24c1.2-7.66,3.05-28.43-6-55.06a63.9,63.9,0,0,0-22-30.23l.23-.14c33.56,11.72,40,48.55,39.2,78.63l-11.42,6.8"/><path class="cls-4" d="M479.81,405.92c1.19-8.26,2.62-28.51-6.15-54.24a54.2,54.2,0,0,0-23.48-29.43l.35-.2c26.45,9.26,39.24,35.76,38,78.81l-8.75,5.06"/><path class="cls-14" d="M479.08,409.94s.35-1.41.73-4l8.75-5.06c1.21-43.05-11.58-69.55-38-78.81l-.35.2a21.65,21.65,0,0,0-2-1.07s.2,0,.57,0c2.76,0,15.35,1.13,32.34,20.28s13.06,60.31,13.06,60.31l-15,8.19"/><path class="cls-15" d="M529.43,376.46c.36-7.44.88-33.72-8.11-55.3-6.91-16.62-17-24.22-23-27.48l.76-.44c25.49,9,37.25,35.16,35.91,79.89l-5.56,3.33"/><path class="cls-14" d="M529.3,378.51s.06-.73.13-2.05l5.56-3.33c1.34-44.73-10.42-70.9-35.91-79.89l-.76.44a25.31,25.31,0,0,0-5.21-2.21s.2,0,.57,0c2.76,0,15.35,1.14,32.34,20.29s13.06,60.31,13.06,60.31l-9.78,6.46"/><path class="cls-30" d="M391.63,457.75c.32-11.42,0-31.88-5.29-46.08a61.77,61.77,0,0,0-31.4-34.7l1-.58c9.81,2.58,34.75,10.51,50,27.68,12.93,14.58,15.48,29.35,15.95,35.68l-30.21,18"/><path class="cls-5" d="M400,350.81l-45,26.16a61.77,61.77,0,0,1,31.4,34.7c5.3,14.2,5.61,34.66,5.29,46.08l47.53-28.31c.81-30.08-5.64-66.91-39.2-78.63M384.37,469.68a4.47,4.47,0,0,1-2.09-4.16c0-.32,2.53-32.34-4.33-50.71-10-26.64-33.44-32.37-34.42-32.6a4.48,4.48,0,0,1-1.26-8.25l54.94-31.91a4.44,4.44,0,0,1,3.58-.4c32.86,10.27,49.2,41.59,47.24,90.56a4.46,4.46,0,0,1-2.18,3.67L389,469.73a4.46,4.46,0,0,1-2.29.63,4.52,4.52,0,0,1-2.37-.68"/><path class="cls-3" d="M344.52,377.84c33,10.3,44,44.74,42.22,88L323.1,501s2.38-29.37-4.92-48.88c-11-29.41-36.64-37.73-36.64-37.73l63-36.58"/><path class="cls-31" d="M323.24,498.71S322.81,474.6,320,458c4.1,15.48,3.57,34.27,3.23,40.75h0"/><polyline class="cls-10" points="355.18 483.19 355.18 483.19 355.18 483.19 355.18 483.19"/><path class="cls-31" d="M285.59,412.06l-.47-.34.78.17-.31.17"/><path class="cls-12" d="M323.24,498.71c.34-6.48.87-25.27-3.23-40.75a54,54,0,0,0-3-11.61c-6.91-15.91-28-31.77-31.44-34.29l.31-.17c5.26,1.17,35.77,8.68,53.34,28.49,17.06,19.24,16.16,42.73,16.16,42.81h0l-32.16,15.52"/><path class="cls-14" d="M386.81,464c.93-29.56-4.21-54.83-18.41-70.87a93.4,93.4,0,0,1,9.67,9.48c17.09,19.26,10.37,60.5,10.37,60.5l-1.63.89"/><path class="cls-4" d="M373.4,471.26S379.52,446.87,368,413a62.82,62.82,0,0,0-25.48-32.59s11.13.29,25.89,12.68c14.2,16,19.34,41.31,18.41,70.87l-13.41,7.29"/><path class="cls-5" d="M345,382.72,291.22,414a69.37,69.37,0,0,1,31.16,36.6c5.21,13.95,5.75,32.25,5.54,42.66l54.43-30.05c1.55-53.94-12.55-71.74-37.33-80.47ZM320.67,504.79a4.48,4.48,0,0,1-2-4.12c0-.29,2.22-28.59-4.64-47-10.05-26.88-33.61-35-33.83-35a4.49,4.49,0,0,1-.87-8.14l63-36.58a4.49,4.49,0,0,1,3.58-.4c31.7,9.91,47.39,41.9,45.37,92.5a4.48,4.48,0,0,1-2.31,3.74L325.26,505a4.49,4.49,0,0,1-2.16.56,4.42,4.42,0,0,1-2.43-.72Z"/><polygon class="cls-5" points="446.41 319.82 453.6 314.48 346.08 169.63 338.88 174.97 446.41 319.82 446.41 319.82"/><polygon class="cls-5" points="397.49 348.59 404.69 343.25 297.16 198.4 289.97 203.74 397.49 348.59 397.49 348.59"/><polygon class="cls-5" points="343.73 378.39 350.93 373.05 243.4 228.19 236.21 233.53 343.73 378.39 343.73 378.39"/><path class="cls-5" d="M367,152.89,262,169.68,66.57,283.22l104.92-16.78L367,152.89ZM39.26,293a4.47,4.47,0,0,1,2-5.37l217-126.07a4.49,4.49,0,0,1,1.55-.55l129.54-20.72a4.48,4.48,0,0,1,3,8.3l-217,126.06a4.37,4.37,0,0,1-1.54.55L44.19,295.87a4.34,4.34,0,0,1-.71.06,4.48,4.48,0,0,1-4.22-3Z"/><polygon class="cls-5" points="118.8 252.5 242.27 235.3 241.03 226.43 117.57 243.62 118.8 252.5 118.8 252.5"/><polygon class="cls-5" points="174.5 220.43 296.12 205.51 295.03 196.62 173.41 211.54 174.5 220.43 174.5 220.43"/><polygon class="cls-5" points="223.44 191.66 345.06 176.74 343.97 167.85 222.35 182.77 223.44 191.66 223.44 191.66"/><path class="cls-5" d="M118.88,349.66V456.43l84,43.59V395.89l-84-46.23ZM205.3,511.38l-93-48.26a4.47,4.47,0,0,1-2.41-4v-117a4.58,4.58,0,0,1,.75-2.62,4.48,4.48,0,0,1,5.87-1.42l93,51.18a4.49,4.49,0,0,1,2.31,3.92v114a4.46,4.46,0,0,1-4.47,4.6,4.57,4.57,0,0,1-2.06-.5Z"/><path class="cls-5" d="M466.06,484.06V507.9l28,16.17V500.23l-28-16.17Zm30.23,51.64-37-21.33a4.47,4.47,0,0,1-2.24-3.88V476.4a4.47,4.47,0,0,1,6.72-4l36.95,21.34a4.48,4.48,0,0,1,2.25,3.88v34a4.6,4.6,0,0,1-1.07,3.05,4.5,4.5,0,0,1-5.66,1Z"/><path class="cls-5" d="M498.58,460l-28,16.33,28,16.16,28-16.32-28-16.17Zm-2.25,41.55L459.41,480.2a4.48,4.48,0,0,1,0-7.75l36.93-21.53a4.48,4.48,0,0,1,4.49,0l36.93,21.32a4.48,4.48,0,0,1,0,7.75l-36.93,21.52a4.46,4.46,0,0,1-2.26.61,4.51,4.51,0,0,1-2.24-.6Z"/><path class="cls-5" d="M531,484.06l-28,16.17v23.83l28-16.16V484.06ZM496.3,535.7a4.47,4.47,0,0,1-2.24-3.88V497.64a4.47,4.47,0,0,1,2.24-3.88l36.85-21.28a4.59,4.59,0,0,1,2.67-.66,4.51,4.51,0,0,1,4.15,4.49v34.18a4.47,4.47,0,0,1-2.24,3.88l-37,21.33a4.48,4.48,0,0,1-4.48,0Z"/><path class="cls-5" d="M285.75,588.76V612.6l28,16.16V604.92l-28-16.16ZM316,640.4l-37-21.34a4.47,4.47,0,0,1-2.24-3.88V581.1a4.47,4.47,0,0,1,6.72-4l37,21.33a4.49,4.49,0,0,1,2.24,3.88v34.11a4.49,4.49,0,0,1-6.73,4Z"/><path class="cls-5" d="M318.48,564.67l-28,16.33,28,16.16,28-16.33-28-16.16Zm-2.25,41.55L279.3,584.9a4.48,4.48,0,0,1,0-7.75l36.93-21.53a4.49,4.49,0,0,1,4.5,0l36.93,21.32a4.48,4.48,0,0,1,0,7.75l-36.92,21.53a4.49,4.49,0,0,1-4.5,0Z"/><path class="cls-5" d="M350.7,588.76l-28,16.16v23.84l28-16.16V588.76ZM316,640.4a4.47,4.47,0,0,1-2.24-3.88V602.33a4.47,4.47,0,0,1,2.24-3.88l36.95-21.33a4.47,4.47,0,0,1,6.72,4v34.08a4.47,4.47,0,0,1-2.24,3.88L320.47,640.4a4.48,4.48,0,0,1-4.48,0Z"/></svg>