<svg id="Layer_1" data-name="Layer 1" xmlns="http://www.w3.org/2000/svg" xmlns:xlink="http://www.w3.org/1999/xlink" viewBox="0 0 1280 720"><defs><style>.cls-1{fill:url(#linear-gradient);}.cls-2{fill:url(#linear-gradient-2);}.cls-3{fill:#fecf17;}.cls-4{fill:#e5b10b;}.cls-5{fill:#fccb7f;}.cls-6{fill:#f4b460;}.cls-7{fill:#f5f3c1;}.cls-8{fill:#fac36e;}.cls-9{fill:#e95844;}.cls-10{fill:#d5a86b;}.cls-11{fill:#f5a266;}.cls-12{fill:#825e42;}.cls-13{fill:#575756;}.cls-14{fill:#fff;}.cls-15{fill:#4a5762;}.cls-16{fill:#955735;}.cls-17{fill:#8f6f4f;}.cls-18{fill:#6d4149;}.cls-19{fill:#b0191a;}.cls-20{fill:#9a4b30;}.cls-21{fill:#ed6941;}.cls-22{fill:#e94835;}.cls-23{fill:#a51b1a;}.cls-24{fill:#d81b1c;}.cls-25{fill:#79484f;}.cls-26{fill:#efebbd;}</style><linearGradient id="linear-gradient" x1="-161.78" y1="698.61" x2="952.23" y2="147.47" gradientUnits="userSpaceOnUse"><stop offset="0" stop-color="#01427e"/><stop offset="1" stop-color="#e55732"/></linearGradient><linearGradient id="linear-gradient-2" x1="916.02" y1="685.89" x2="1033.28" y2="107.38" xlink:href="#linear-gradient"/></defs><title>Tenants</title><path class="cls-1" d="M0,0V593.65C63.48,578,142.12,496.13,243,529a167.63,167.63,0,0,1,41,20c39.68,25.2,169.16,79.18,329.32,115,166.6,37.26,366.39,54.86,532.86,0,47.9-15.78,93-37.56,133.82-66.6V0Z"/><circle class="cls-2" cx="991.5" cy="313.5" r="343.5"/><path class="cls-3" d="M871.52,702.4h-334c.07-1.2.15-2.39.23-3.6,0,0,0-.08,0-.12a160,160,0,0,1,13.13-52.36h0c.06-.14.12-.25.19-.39q2.63-5.91,5.69-11.56c28.08-51.75,83.71-87,147.75-87a168,168,0,0,1,140,74.21q3.72,5.53,7,11.39c.41.73.81,1.47,1.2,2.21a160.16,160.16,0,0,1,18.8,67.22Z"/><polygon class="cls-4" points="696.28 618.53 626.78 643.28 621.31 617.62 696.28 618.53 696.28 618.53"/><polygon class="cls-4" points="712.52 618.53 782.02 643.28 787.49 617.62 712.52 618.53 712.52 618.53"/><polygon class="cls-5" points="752.36 621.27 655.73 621.27 655.73 482.7 752.36 482.7 752.36 621.27 752.36 621.27"/><path class="cls-6" d="M752.36,551.6s-33.75,9.31-45.15,9.31c-12.76,0-51.48-9.31-51.48-9.31V413.42h96.63V551.6Z"/><polygon class="cls-7" points="710.96 621.27 794.22 621.27 752.59 532.17 710.96 621.27 710.96 621.27"/><polygon class="cls-7" points="614.38 621.27 697.65 621.27 656.02 532.17 614.38 621.27 614.38 621.27"/><path class="cls-8" d="M792.47,381.81v43.48c14.8,0,26.79-9.73,26.79-21.74s-12-21.74-26.79-21.74Z"/><path class="cls-9" d="M801.37,417.06H786.65c-4.78,0-8.66-2.65-8.66-5.92s3.88-5.93,8.66-5.93h14.72c4.78,0,8.65,2.66,8.65,5.93s-3.87,5.92-8.65,5.92Z"/><path class="cls-8" d="M609.24,381.81v43.48c-14.8,0-26.79-9.73-26.79-21.74s12-21.74,26.79-21.74Z"/><path class="cls-9" d="M616.63,417.06H601.91c-4.78,0-8.65-2.65-8.65-5.92s3.87-5.93,8.65-5.93h14.72c4.78,0,8.66,2.66,8.66,5.93s-3.88,5.92-8.66,5.92Z"/><path class="cls-5" d="M793.39,344.94V449.08c0,2.89-.14,5.76-.41,8.58a90.91,90.91,0,0,1-3.42,17.72,92.06,92.06,0,0,1-88.24,65.67h0a91.85,91.85,0,0,1-91.76-84.4q-.31-3.75-.31-7.57V344.93a93,93,0,0,1,1-13.54A92,92,0,0,1,701.3,253h0a91.94,91.94,0,0,1,92.07,92Z"/><path class="cls-9" d="M688.86,434.39a12.13,12.13,0,0,0,24.21,0Z"/><path class="cls-10" d="M789.39,475.38a92,92,0,0,1-88.15,65.67h0a92,92,0,0,1-88.14-65.66c18.71-13.71,51.2-22.78,88.15-22.78s69.43,9.07,88.15,22.77Z"/><path class="cls-5" d="M713.1,502.76H687.33c-8.36,0-15.14-6.33-15.14-14.13S679,474.5,687.33,474.5H713.1c8.37,0,15.15,6.32,15.15,14.13s-6.78,14.13-15.15,14.13Z"/><path class="cls-11" d="M667.26,426.18H653.67c-4.41,0-8-2.45-8-5.47s3.57-5.47,8-5.47h13.59c4.42,0,8,2.45,8,5.47s-3.57,5.47-8,5.47Z"/><path class="cls-11" d="M751,426.18H737.44c-4.41,0-8-2.45-8-5.47s3.57-5.47,8-5.47H751c4.42,0,8,2.45,8,5.47s-3.57,5.47-8,5.47Z"/><polygon class="cls-6" points="794.3 349.6 609.24 349.6 609.24 329.55 794.3 329.55 794.3 349.6 794.3 349.6"/><path class="cls-12" d="M793.39,325.36v105c-6,0-10.94-9.41-10.94-21V325c3.37-3.18,6.71-6.59,10.09-10.22a66.05,66.05,0,0,1,.85,10.58Z"/><path class="cls-12" d="M609.24,325.36v105c6,0,10.94-9.41,10.94-21V325c-3.38-3.18-6.72-6.59-10.1-10.22a66.05,66.05,0,0,0-.84,10.58Z"/><path class="cls-13" d="M818,320.58v16.26H584.62V321.18a11.73,11.73,0,0,1,11.78-11.69h10.07c0-.69,0-1.37,0-2.06h0a93.07,93.07,0,0,1,2.72-20.65,94.83,94.83,0,0,1,186.9,22.72h10.77A11.11,11.11,0,0,1,818,320.58Z"/><path class="cls-14" d="M796.6,309.49H606.47c0-.69,0-1.37,0-2.07h0a93,93,0,0,1,2.73-20.71h184.6a94.08,94.08,0,0,1,2.77,22.79Z"/><path class="cls-15" d="M793.39,379.69V366.93H774.63a34.62,34.62,0,0,0-62.49,7.29H695.32a34.62,34.62,0,0,0-62.49-7.29H609.24l0,12.76h16.5a33.73,33.73,0,0,0-.37,4.95c0,18.81,15.73,34.06,35.13,34.06s35.13-15.25,35.13-34.06c0-1.06-.06-2.11-.16-3.15,0,0,5.52-3.33,6.86-3.33s7.07,3.33,7.07,3.33c-.1,1-.16,2.09-.16,3.15,0,18.81,15.73,34.06,35.14,34.06s35.13-15.25,35.13-34.06a33.73,33.73,0,0,0-.38-4.95Z"/><path class="cls-7" d="M689.17,385.21a28.7,28.7,0,1,1-28.7-28.7,28.7,28.7,0,0,1,28.7,28.7Z"/><path class="cls-7" d="M772.94,385.21a28.7,28.7,0,1,1-28.7-28.7,28.7,28.7,0,0,1,28.7,28.7Z"/><path class="cls-4" d="M706.91,678.7h-5.86a6.12,6.12,0,0,1-6.12-6.12V620.36h18.23v52.18a6.21,6.21,0,0,1-6.25,6.16Z"/><path class="cls-7" d="M709.63,631.59a5.33,5.33,0,1,1-5.33-5.33,5.33,5.33,0,0,1,5.33,5.33Z"/><path class="cls-7" d="M709.63,652.68a5.33,5.33,0,1,1-5.33-5.32,5.33,5.33,0,0,1,5.33,5.32Z"/><path class="cls-16" d="M721.35,487.26H682.06a2.82,2.82,0,0,1-2.82-2.23,2.73,2.73,0,0,1,2.68-3.24h39.3A2.83,2.83,0,0,1,724,484a2.74,2.74,0,0,1-2.69,3.24Z"/><path class="cls-16" d="M711,496.38H692.4a2.82,2.82,0,0,1-2.82-2.23,2.73,2.73,0,0,1,2.69-3.24h18.61a2.82,2.82,0,0,1,2.82,2.22,2.74,2.74,0,0,1-2.69,3.25Z"/><path class="cls-17" d="M756.43,389.72c0-.15-.07-.3-.1-.45a12.45,12.45,0,0,0-24.18,0c0,.15-.07.3-.1.45Z"/><path class="cls-17" d="M672.66,389.72c0-.15-.07-.3-.1-.45a12.45,12.45,0,0,0-24.18,0c0,.15-.07.3-.1.45Z"/><path class="cls-5" d="M871.09,702.4H804.33l.35-39.95L851.09,633c.41.73.81,1.47,1.21,2.21a160.3,160.3,0,0,1,18.79,67.22Z"/><path class="cls-7" d="M852.85,634.73l-47.61,48.16V662l39.44-40.87q3.72,5.54,7,11.4c.41.73.81,1.46,1.2,2.2Z"/><path class="cls-5" d="M537,702.4h66.77l-.36-39.95L557,633c-.41.73-.81,1.47-1.2,2.21A160.16,160.16,0,0,0,537,702.4Z"/><path class="cls-7" d="M556.15,634.73l47.62,48.16V662l-39.45-40.87q-3.72,5.54-7,11.4c-.41.73-.81,1.46-1.21,2.2Z"/><path class="cls-18" d="M1140.31,270.1s129.74,105.8,15,190.23c0,0-20.8,10.81-20.46,30.27,0,0-29,15.85-37.32-48.28s42.73-172.22,42.73-172.22Z"/><path class="cls-18" d="M944.54,270.1S809.63,375.9,924.32,460.33c0,0,20.79,10.81,20.45,30.27,0,0,29,15.85,37.33-48.28S944.54,270.1,944.54,270.1Z"/><path class="cls-8" d="M955.66,386.93V430.4c-14.8,0-26.79-9.73-26.79-21.74s12-21.73,26.79-21.73Z"/><path class="cls-8" d="M1124.31,386.93V430.4c14.79,0,26.78-9.73,26.78-21.74s-12-21.73-26.78-21.73Z"/><path class="cls-19" d="M1210,707c-4.62-76.59-77.62-137.45-167-137.45S880.61,630.37,876,707Z"/><polygon class="cls-5" points="1091.49 557.07 1046.33 663.16 994.86 557.07 994.86 418.89 1091.49 418.89 1091.49 557.07 1091.49 557.07"/><polygon class="cls-6" points="1091.49 571.04 1046.59 588.36 1014.89 597.54 1006.03 579.29 994.86 573.92 994.86 487.26 1091.49 487.26 1091.49 571.04 1091.49 571.04"/><path class="cls-9" d="M1132.42,422.53h-14.73c-4.78,0-8.65-2.65-8.65-5.92s3.87-5.93,8.65-5.93h14.73c4.77,0,8.65,2.66,8.65,5.93s-3.88,5.92-8.65,5.92Z"/><path class="cls-9" d="M963.18,422.53H948.46c-4.78,0-8.65-2.65-8.65-5.92s3.87-5.93,8.65-5.93h14.72c4.78,0,8.66,2.66,8.66,5.93s-3.88,5.92-8.66,5.92Z"/><path class="cls-5" d="M1132,350.41l-7.75,104.13c0,50.79-33.43,92-84.22,92h0c-50.79,0-84.21-41.19-84.21-92L948.06,350.4a92,92,0,0,1,92-92h0a92,92,0,0,1,92,92Z"/><path class="cls-9" d="M1027.66,439.86a12.12,12.12,0,0,0,24.2,0Z"/><path class="cls-20" d="M993.61,401.48a7.19,7.19,0,1,1-7.18-7.18,7.18,7.18,0,0,1,7.18,7.18Z"/><path class="cls-21" d="M993.22,425.27H979.63c-4.41,0-8-2.45-8-5.47s3.58-5.47,8-5.47h13.59c4.41,0,8,2.45,8,5.47s-3.58,5.47-8,5.47Z"/><path class="cls-20" d="M1085.92,401.48a7.18,7.18,0,1,0,7.18-7.18,7.17,7.17,0,0,0-7.18,7.18Z"/><path class="cls-21" d="M1086.31,425.27h13.59c4.41,0,8-2.45,8-5.47s-3.57-5.47-8-5.47h-13.59c-4.41,0-8,2.45-8,5.47s3.58,5.47,8,5.47Z"/><path class="cls-12" d="M993.32,387.89H973.6a3.19,3.19,0,0,1-3.19-3.19h0a3.2,3.2,0,0,1,3.19-3.19h19.72a3.21,3.21,0,0,1,3.19,3.19h0a3.2,3.2,0,0,1-3.19,3.19Z"/><path class="cls-12" d="M1103,387.89h-19.72a3.19,3.19,0,0,1-3.19-3.19h0a3.2,3.2,0,0,1,3.19-3.19H1103a3.2,3.2,0,0,1,3.19,3.19h0a3.19,3.19,0,0,1-3.19,3.19Z"/><path class="cls-22" d="M1049.29,500h-18.5a11.34,11.34,0,0,1-11.34-11.33h0a5.07,5.07,0,0,1,5.07-5.08h31a5.07,5.07,0,0,1,5.07,5.08h0A11.33,11.33,0,0,1,1049.29,500Z"/><path class="cls-7" d="M1128.45,434.11a8.8,8.8,0,1,1,8.8,8.79,8.8,8.8,0,0,1-8.8-8.79Z"/><path class="cls-7" d="M933.64,434.11a8.79,8.79,0,1,1,8.79,8.79,8.79,8.79,0,0,1-8.79-8.79Z"/><path class="cls-23" d="M1076.23,585.25l17,91.08a7.51,7.51,0,0,0,12.54,4.07L1126,661.25a7.52,7.52,0,0,0,1.51-8.91l-37.28-71.92a7.52,7.52,0,0,0-9.76-3.39h0a7.5,7.5,0,0,0-4.28,8.22Z"/><path class="cls-23" d="M1052.16,581.36,1050,699.21a7.62,7.62,0,0,0,7.62,7.75h21.46a7.63,7.63,0,0,0,7.61-8.23l-9.31-117.83a7.63,7.63,0,0,0-7.61-7h-10a7.63,7.63,0,0,0-7.63,7.5Z"/><path class="cls-24" d="M1070.76,580.47l17,91.08a7.51,7.51,0,0,0,12.54,4.07l20.23-19.16a7.5,7.5,0,0,0,1.51-8.9l-37.28-71.93a7.5,7.5,0,0,0-9.76-3.38h0a7.5,7.5,0,0,0-4.28,8.22Z"/><path class="cls-24" d="M1046.69,576.8l-2.15,117.85a7.62,7.62,0,0,0,7.62,7.75h21.46a7.63,7.63,0,0,0,7.61-8.23l-9.31-117.83a7.62,7.62,0,0,0-7.61-7h-10a7.63,7.63,0,0,0-7.63,7.49Z"/><path class="cls-24" d="M1092.08,579.33H994.25a4.87,4.87,0,0,1-4.86-4.86V556.85a4.87,4.87,0,0,1,4.86-4.86h97.85a4.87,4.87,0,0,1,4.86,4.86v17.64a4.88,4.88,0,0,1-4.88,4.84Z"/><polygon class="cls-19" points="1088.62 584.8 1046.82 584.8 1046.82 579.33 1085.78 579.33 1088.62 584.8 1088.62 584.8"/><polygon class="cls-19" points="1076.23 585.25 1077.42 616.08 1071.04 583.6 1076.23 585.25 1076.23 585.25"/><polygon class="cls-23" points="973.99 582.41 1037.69 706.96 1025.61 706.96 965.93 585.8 973.99 582.41 973.99 582.41"/><path class="cls-19" d="M1022.5,571.13H989.39v-3.65h33.11a1.73,1.73,0,0,1,1.59,1.68h0a1.6,1.6,0,0,1-1.59,1.6Z"/><path class="cls-25" d="M1086.67,244s35.14-16.59,54.4,24.32c33.9,72-11.35,112.89-11.35,112.89s-5.52-77-29.44-83.11L1086.67,244Z"/><polygon class="cls-7" points="944.72 659.56 918.81 659.56 944.72 674.75 944.72 659.56 944.72 659.56"/><polygon class="cls-26" points="944.72 659.56 970.63 659.56 944.72 674.75 944.72 659.56 944.72 659.56"/><path class="cls-23" d="M980.27,273.34l-64.73,31.8V252.06A47.33,47.33,0,0,1,942,209.59l38.28-18.8v82.55Z"/><path class="cls-19" d="M980.23,191.14s43.26,2.43,43.26,52.87l-57.13,35.86s-17.84-74.75,13.87-88.73Z"/><path class="cls-25" d="M1113.43,303.57s-171,8.51-162.21,101.95c0,0-16.63-21.46-24.63-35.09-17.11-29.18-3.87-148.29,116.63-148.29,76.29,0,70.21,81.43,70.21,81.43Z"/></svg>