<svg id="Layer_1" data-name="Layer 1" xmlns="http://www.w3.org/2000/svg" xmlns:xlink="http://www.w3.org/1999/xlink" viewBox="0 0 1280 720"><defs><style>.cls-1{fill:none;}.cls-2{fill:#1b8ffd;}.cls-3,.cls-54{fill:#0b435c;}.cls-10,.cls-11,.cls-17,.cls-18,.cls-19,.cls-20,.cls-24,.cls-26,.cls-3,.cls-30,.cls-32,.cls-33,.cls-34,.cls-35,.cls-37,.cls-38,.cls-39,.cls-40,.cls-42,.cls-43,.cls-44,.cls-45,.cls-46,.cls-47,.cls-55,.cls-56,.cls-57,.cls-58,.cls-59,.cls-61,.cls-62,.cls-63,.cls-64,.cls-65,.cls-66,.cls-67,.cls-68,.cls-7,.cls-70,.cls-71,.cls-75,.cls-76,.cls-9,.cls-93{fill-rule:evenodd;}.cls-4{fill:#ebe5ab;}.cls-5{fill:#f2eed6;}.cls-6{fill:#838c5c;}.cls-7{fill:#99c336;}.cls-8{fill:#009640;}.cls-9{fill:#f4b856;}.cls-10{fill:#f9b233;}.cls-11,.cls-48{fill:#53473d;}.cls-12{fill:#162e45;}.cls-13{fill:#2b4156;}.cls-14{fill:#d0d5da;}.cls-15{fill:#e3e6e9;}.cls-16{fill:#687786;}.cls-17{fill:#f1a38f;}.cls-18{fill:#f3ac9b;}.cls-19{fill:#ad6a3c;}.cls-20,.cls-23{fill:#45586a;}.cls-21{fill:#86929e;}.cls-22{fill:#389efe;}.cls-24{fill:#a4ca82;}.cls-25{fill:#81b652;}.cls-26{fill:#a2dfbe;}.cls-27{fill:#caedda;}.cls-28{fill:#71808e;}.cls-29{fill:#8894a0;}.cls-30{fill:#85b857;}.cls-31{fill:#03a84e;}.cls-32{fill:#e96848;}.cls-33{fill:#f0b474;}.cls-34{fill:#525252;}.cls-35,.cls-60{fill:#1d1d1b;}.cls-36{clip-path:url(#clip-path);}.cls-38,.cls-51{fill:#ea7254;}.cls-39{fill:#e75d3a;}.cls-40{fill:#7a8895;}.cls-41,.cls-42{fill:#bdbdbd;}.cls-43{fill:#757575;}.cls-44{fill:#fffbe8;}.cls-45{fill:#826a62;}.cls-46{fill:#665b51;}.cls-47{fill:#53443d;}.cls-49{fill:#ffce3d;}.cls-50{fill:#167a87;}.cls-52{fill:#4a88c7;}.cls-53{fill:#eeb116;}.cls-55{fill:#878787;}.cls-56{fill:#683c11;}.cls-57{fill:#0376e4;}.cls-58{fill:#f2c08b;}.cls-59,.cls-80{fill:#ededed;}.cls-61{fill:#73210e;}.cls-62{fill:#d1840e;}.cls-63{fill:#b76d15;}.cls-64,.cls-92{fill:#3c3c3b;}.cls-65,.cls-73{fill:#706f6f;}.cls-66{fill:#b18655;}.cls-67{fill:#9d9d9c;}.cls-68{fill:#c6c6c6;}.cls-69{fill:#fff;}.cls-70,.cls-72{fill:#f6f6f6;}.cls-71{fill:#b2b2b2;}.cls-74{fill:#d90f2b;}.cls-75{fill:#811a1c;}.cls-76{fill:#a51c1a;}.cls-77{fill:#d1e3d9;}.cls-78{fill:#9db5bd;}.cls-79{fill:#8791a1;}.cls-81{fill:#decab2;}.cls-82{fill:#e2be8f;}.cls-83{fill:#7ec0fd;}.cls-84{fill:#d4b188;}.cls-85{fill:#cb8f7b;}.cls-86{fill:#d3d3d3;}.cls-87{fill:#9a9a99;}.cls-88{fill:#f1f1f1;}.cls-89{fill:#b8b8b8;}.cls-90{fill:#e69c8d;}.cls-91{fill:#b88479;}.cls-93{fill:#037c3a;}.cls-94{fill:#dcdcdc;}.cls-95{fill:#f5f5f5;}.cls-96{fill:#e7e7e7;}.cls-97{fill:#dcdcdb;}.cls-98{fill:#f3f3f3;}.cls-99{fill:#f1dad3;}.cls-100{fill:#d9d9d9;}.cls-101{fill:#f5e9d8;}.cls-102{fill:#6e6e6d;}.cls-103{fill:#cc3e18;}.cls-104{fill:#02ae52;}</style><clipPath id="clip-path"><rect id="SVGID" class="cls-1" x="-84.54" y="147.78" width="595" height="595"/></clipPath></defs><title>Tenants</title><path class="cls-2" d="M0,0H1280V688.37c-36.93,3.61-87,3.58-160,2.63-478.54-6.21-531.26-33.23-660-20a731.48,731.48,0,0,0-199.42,49H0Z"/><path class="cls-3" d="M239.65,491c4.89-15.37,13.43-29.55,16.8-45.32a107.15,107.15,0,0,0,1.92-24.19c-.22-13.3-1.77-26.74-6.61-39.12S238.55,358.7,227,352.13c-9.43-5.37-20.38-7.33-31.16-8.59-4.79-.56-9.75-1-14.37.41-4.06,1.24-7.57,3.79-11.24,5.94a62.17,62.17,0,0,1-42.91,7.27,114.08,114.08,0,0,0-2.09,47.21c1.56,9.32,4.27,18.41,6.32,27.64a199.26,199.26,0,0,1-1.25,91.32c-3,11.94-7.13,24.34-4.08,36.26a11.8,11.8,0,0,0,2.86,5.69,12.13,12.13,0,0,0,5.55,2.73c21.52,5.71,43.36-7.57,65.6-8.56,2.88-.13,5.82-.07,8.77,0,8.71.18,17.46.37,24.52-4.35-.23-21.55-.39-43.53,6.14-64.07"/><path class="cls-4" d="M341.76,482.48V677c3.35-1.87,6.65-3.8,9.91-5.82l.68-.41c4.33-2.67,8.58-5.48,12.73-8.39l2.85-2q2.81-2,5.52-4.09,5.52-4.18,10.79-8.65l2.39-2q4.5-3.9,8.82-8c2.89-2.75,5.73-5.55,8.48-8.42q5.6-5.77,10.83-11.9V482.48Z"/><path class="cls-5" d="M341.76,482.57V677.1c3.33-1.88,6.62-3.81,9.86-5.82l.67-.41q6.46-4,12.66-8.4c1-.67,1.9-1.34,2.84-2,1.86-1.34,3.69-2.69,5.5-4.08q5.47-4.2,10.72-8.66l2.38-2.05q4.47-3.9,8.77-8l-3.9-11.31-2.81-8.15-2.1-6.11L373.22,574l-2.09-6.1-3.46-10-6.87-20-2.8-8.15-2.1-6.11-14.14-41.06Z"/><path class="cls-6" d="M344.76,656.48v6h19.86l2.79-2c1.81-1.32,3.61-2.65,5.39-4Z"/><path class="cls-7" d="M314,690.83a261.76,261.76,0,0,0,27.73-13.46c3.34-1.87,6.62-3.8,9.86-5.82.23-.13.46-.27.67-.41l-.73-.23a34.59,34.59,0,0,0-9.8-1.43h-.06a34,34,0,0,0-4.89.35,32.2,32.2,0,0,0-9.91,3c-7.58,3.8-12.67,10.41-12.87,18Z"/><polygon class="cls-6" points="386.76 513.49 403.76 513.49 403.76 493.49 386.76 493.49 386.76 513.49 386.76 513.49"/><polygon class="cls-6" points="344.76 529.49 411.76 529.49 411.76 523.49 344.76 523.49 344.76 529.49 344.76 529.49"/><path class="cls-8" d="M56.12,659.72c1.52,1.11,3.05,2.21,4.58,3.28l4.6-1.86a1.56,1.56,0,0,0-.78-1.61,4.62,4.62,0,0,0-1.81-.52c-2.24-.3-4.76-.53-6.59.71Z"/><path class="cls-8" d="M88.76,680.15q-2.52-1.33-5-2.73c-1.51-.83-3-1.69-4.48-2.56.39-.07.78-.13,1.18-.17a12.14,12.14,0,0,1,5.88.67,5.67,5.67,0,0,1,1.05.59,4.38,4.38,0,0,1,1.72,4.37l-.33-.17Z"/><polyline class="cls-9" points="165 448 125 447.93 124.93 488 165 488.07 165.07 448"/><polyline class="cls-10" points="165 448 124.73 447.93 165 488.35 165.07 448"/><polyline class="cls-11" points="159 454 130 453.95 129.95 483 159 483.05 159.05 454"/><polygon class="cls-12" points="46.46 444.78 90.46 444.78 90.46 409.78 46.46 409.78 46.46 444.78 46.46 444.78"/><polygon class="cls-13" points="46.46 444.78 90 444.78 46.46 409.8 46.46 444.78 46.46 444.78"/><path class="cls-14" d="M77.37,672.3l2.5,1.48H79.6c1.57.92,3.15,1.83,4.74,2.71,1.77,1,3.55,2,5.34,2.9l.34.18,2.31,1.2h28.13v-199h-104V622.14A261.84,261.84,0,0,0,36,641.73q5.6,5.07,11.48,9.79c.6.49,1.21,1,1.82,1.44q3.77,3,7.64,5.82h0c1.5,1.1,3,2.19,4.54,3.25,4.26,3,8.62,5.85,13.06,8.57l2.81,1.7Z"/><path class="cls-15" d="M76.37,672.3l2.5,1.48H80s3,2.1,4.48,2.93c1.66.93,3.34,1.84,5,2.73l.33.18,1.76.92a2.61,2.61,0,0,1,.43.24h28.41l-4.65-8.9-.74-1.41-9.87-18.78-2.43-4.62-2.77-5.28L92.11,626.9,86.91,617,79.08,602.1l-3.15-6-.5-1L53,552.51l-5.2-9.9L40,527.71l-5.21-9.89-19.34-36V622.14A261.84,261.84,0,0,0,35,641.73q5.6,5.07,11.48,9.79c.6.49,1.21,1,1.82,1.44q3.77,3,7.64,5.82h0c1.5,1.1,3,2.19,4.54,3.25,4.26,3,8.62,5.85,13.06,8.57l2.81,1.7Z"/><polygon class="cls-16" points="27.46 525.98 60.46 525.98 60.46 517.78 27.46 517.78 27.46 525.98 27.46 525.98"/><polygon class="cls-16" points="76.46 552.78 109.46 552.78 109.46 542.78 76.46 542.78 76.46 552.78 76.46 552.78"/><polygon class="cls-16" points="27.46 552.78 60.46 552.78 60.46 542.78 27.46 542.78 27.46 552.78 27.46 552.78"/><polygon class="cls-16" points="76.46 577.78 109.46 577.78 109.46 567.78 76.46 567.78 76.46 577.78 76.46 577.78"/><polygon class="cls-16" points="27.46 577.78 60.46 577.78 60.46 567.78 27.46 567.78 27.46 577.78 27.46 577.78"/><polygon class="cls-16" points="76.46 601.78 109.46 601.78 109.46 591.78 76.46 591.78 76.46 601.78 76.46 601.78"/><polygon class="cls-16" points="27.46 601.78 60.46 601.78 60.46 591.78 27.46 591.78 27.46 601.78 27.46 601.78"/><polygon class="cls-16" points="76.46 626.78 109.46 626.78 109.46 616.78 76.46 616.78 76.46 626.78 76.46 626.78"/><polygon class="cls-16" points="27.46 626.78 60.46 626.78 60.46 616.78 27.46 616.78 27.46 626.78 27.46 626.78"/><polygon class="cls-16" points="76.46 651.78 109.46 651.78 109.46 641.78 76.46 641.78 76.46 651.78 76.46 651.78"/><path class="cls-16" d="M35.46,641.78q5.72,5.18,11.72,10H60.46v-10Z"/><polyline class="cls-17" points="75.46 671.78 75.46 666.96 75.46 647.96 75.46 594.9 75.46 507.78 120.41 507.78 128.11 507.78 154.73 507.78 162.49 507.78 171.8 507.78 189.49 507.78 203.49 507.78 213.13 507.78 216.97 507.78 230.97 507.78 244.46 507.78 258.46 507.78 271.94 507.78 285.94 507.78 303.63 507.78 307.64 507.78 337.31 507.78 337.52 507.78 342.46 507.78 342.46 645.64 342.46 668.39 342.46 671.78 327.6 671.78 303.63 671.78 291.43 671.78 286.81 671.78 275.2 671.78 259.13 671.78 255.25 671.78 237.26 671.78 223.93 671.78 222.89 671.78 213.47 671.78 209.57 671.78 172.61 671.78 171.8 671.78 170.89 671.78 133.54 671.78 120.41 671.78 118.89 671.78 115.75 671.78 95.42 671.78 91.97 671.78 76.16 671.78 76.15 671.78 75.46 671.35"/><polygon class="cls-18" points="76.15 671.78 76.16 671.78 91.99 671.78 95.45 671.78 115.82 671.78 118.97 671.78 120.49 671.78 133.64 671.78 171.05 671.78 171.96 671.78 172.78 671.78 209.8 671.78 213.71 671.78 223.13 671.78 224.18 671.78 237.53 671.78 255.54 671.78 259.44 671.78 275.53 671.78 287.16 671.78 291.79 671.78 304.01 671.78 328.02 671.78 342.9 671.78 337.94 668.74 306.36 649.38 304.01 647.94 302.12 646.78 302.11 646.78 298.85 644.78 297.17 643.75 275.19 630.27 270.86 627.62 270.57 627.44 255.86 618.42 253.98 617.27 250.14 614.92 243.99 611.15 242.86 610.46 227.87 601.27 222.8 598.17 209.19 589.82 203.7 586.46 196 581.74 189.68 577.87 186.87 576.14 171.96 567 164.8 562.62 158.88 558.99 143.88 549.79 143.62 549.63 133.63 543.51 130.88 541.83 120.49 535.46 119.51 534.85 112.44 530.52 107.33 527.39 99.23 522.43 91.16 517.48 75.46 507.86 75.46 594.93 75.46 647.97 75.46 666.96 75.46 671.35 76.15 671.78 76.15 671.78"/><polygon class="cls-19" points="93.46 589.78 324.46 589.78 324.46 522.78 93.46 522.78 93.46 589.78 93.46 589.78"/><polygon class="cls-19" points="298.46 611.78 311.46 611.78 311.46 598.78 298.46 598.78 298.46 611.78 298.46 611.78"/><polygon class="cls-19" points="270.46 611.78 283.46 611.78 283.46 598.78 270.46 598.78 270.46 611.78 270.46 611.78"/><polygon class="cls-19" points="242.46 611.78 255.46 611.78 255.46 598.78 242.46 598.78 242.46 611.78 242.46 611.78"/><polygon class="cls-19" points="214.46 611.78 227.46 611.78 227.46 598.78 214.46 598.78 214.46 611.78 214.46 611.78"/><polygon class="cls-19" points="186.46 611.78 199.46 611.78 199.46 598.78 186.46 598.78 186.46 611.78 186.46 611.78"/><polygon class="cls-19" points="158.46 611.78 171.46 611.78 171.46 598.78 158.46 598.78 158.46 611.78 158.46 611.78"/><polygon class="cls-19" points="130.46 611.78 143.46 611.78 143.46 598.78 130.46 598.78 130.46 611.78 130.46 611.78"/><polygon class="cls-19" points="298.46 630.78 311.46 630.78 311.46 617.78 298.46 617.78 298.46 630.78 298.46 630.78"/><polygon class="cls-19" points="270.46 630.78 283.46 630.78 283.46 617.78 270.46 617.78 270.46 630.78 270.46 630.78"/><polygon class="cls-19" points="242.46 630.78 255.46 630.78 255.46 617.78 242.46 617.78 242.46 630.78 242.46 630.78"/><polygon class="cls-19" points="214.46 630.78 227.46 630.78 227.46 617.78 214.46 617.78 214.46 630.78 214.46 630.78"/><polygon class="cls-19" points="186.46 630.78 199.46 630.78 199.46 617.78 186.46 617.78 186.46 630.78 186.46 630.78"/><polygon class="cls-19" points="158.46 630.78 171.46 630.78 171.46 617.78 158.46 617.78 158.46 630.78 158.46 630.78"/><polygon class="cls-19" points="130.46 630.78 143.46 630.78 143.46 617.78 130.46 617.78 130.46 630.78 130.46 630.78"/><polygon class="cls-19" points="298.46 649.78 311.46 649.78 311.46 636.78 298.46 636.78 298.46 649.78 298.46 649.78"/><polygon class="cls-19" points="270.46 649.78 283.46 649.78 283.46 636.78 270.46 636.78 270.46 649.78 270.46 649.78"/><polygon class="cls-19" points="242.46 649.78 255.46 649.78 255.46 636.78 242.46 636.78 242.46 649.78 242.46 649.78"/><polygon class="cls-19" points="214.46 649.78 227.46 649.78 227.46 636.78 214.46 636.78 214.46 649.78 214.46 649.78"/><polygon class="cls-19" points="186.46 649.78 199.46 649.78 199.46 636.78 186.46 636.78 186.46 649.78 186.46 649.78"/><polygon class="cls-19" points="158.46 649.78 171.46 649.78 171.46 636.78 158.46 636.78 158.46 649.78 158.46 649.78"/><polygon class="cls-19" points="130.46 649.78 143.46 649.78 143.46 636.78 130.46 636.78 130.46 649.78 130.46 649.78"/><polygon class="cls-19" points="106.46 611.78 119.46 611.78 119.46 598.78 106.46 598.78 106.46 611.78 106.46 611.78"/><polygon class="cls-19" points="106.46 630.78 119.46 630.78 119.46 617.78 106.46 617.78 106.46 630.78 106.46 630.78"/><polygon class="cls-19" points="106.46 649.78 119.46 649.78 119.46 636.78 106.46 636.78 106.46 649.78 106.46 649.78"/><polygon class="cls-20" points="353.03 442.78 292.18 442.78 306.85 428.78 338.03 428.78 353.03 442.78 353.03 442.78"/><polygon class="cls-21" points="291.46 464.78 353.46 465.16 353.6 442.78 291.46 442.78 291.46 464.64 291.46 464.78"/><polygon class="cls-20" points="307.57 508.78 312.24 463.78 320.11 464.78 325.64 464.78 333.62 464.83 337.53 507.78 307.63 508.78 307.57 508.78"/><polygon class="cls-22" points="353.22 465.78 292.46 442.44 292.46 464.78 353.22 465.78 353.22 465.78"/><polygon class="cls-23" points="344.46 457.78 351.46 457.78 351.46 448.78 344.46 448.78 344.46 457.78 344.46 457.78"/><polygon class="cls-23" points="331.46 457.78 338.46 457.78 338.46 448.78 331.46 448.78 331.46 457.78 331.46 457.78"/><polygon class="cls-23" points="318.46 457.78 325.46 457.78 325.46 448.78 318.46 448.78 318.46 457.78 318.46 457.78"/><polygon class="cls-23" points="305.46 457.78 312.46 457.78 312.46 448.78 305.46 448.78 305.46 457.78 305.46 457.78"/><path class="cls-24" d="M89.46,679.44c-1.68-.89-3.36-1.8-5-2.73.22-.21.46-.42.71-.63.6-.5,1.21-1,1.86-1.43a28.47,28.47,0,0,1,4.93-2.77,30.51,30.51,0,0,1,3.62-1.32,33.89,33.89,0,0,1,9.85-1.43,34.72,34.72,0,0,1,9.59,1.34,32.47,32.47,0,0,1,3.88,1.41c.52.23,1,.47,1.51.73,7.64,3.88,12.7,10.65,12.7,18.35a17.57,17.57,0,0,1-1.2,6.36A261,261,0,0,1,92,680.75l-.43-.21-1.76-.92-.33-.18Z"/><path class="cls-24" d="M80,673.78c1.49.86,3,1.72,4.48,2.55,1.66.94,3.34,1.85,5,2.73a25.58,25.58,0,0,0-4.31-3.35,29.91,29.91,0,0,0-4-2.11,35.29,35.29,0,0,0-3.71-1.32c.83.51,1.68,1,2.52,1.5Z"/><path class="cls-25" d="M387.46,625.78v19.28q4.41-3.9,8.66-8t8.34-8.42v-2.89Z"/><polygon class="cls-25" points="353.46 645.78 370.46 645.78 370.46 625.78 353.46 625.78 353.46 645.78 353.46 645.78"/><polygon class="cls-25" points="353.46 512.78 370.46 512.78 370.46 492.78 353.46 492.78 353.46 512.78 353.46 512.78"/><polygon class="cls-25" points="387.46 556.78 404.46 556.78 404.46 536.78 387.46 536.78 387.46 556.78 387.46 556.78"/><polygon class="cls-25" points="353.46 556.78 370.46 556.78 370.46 536.78 353.46 536.78 353.46 556.78 353.46 556.78"/><polygon class="cls-25" points="345.46 572.78 412.46 572.78 412.46 566.78 345.46 566.78 345.46 572.78 345.46 572.78"/><polygon class="cls-25" points="387.46 601.78 404.46 601.78 404.46 581.78 387.46 581.78 387.46 601.78 387.46 601.78"/><polygon class="cls-25" points="353.46 601.78 370.46 601.78 370.46 581.78 353.46 581.78 353.46 601.78 353.46 601.78"/><polygon class="cls-25" points="345.46 617.78 412.46 617.78 412.46 611.78 345.46 611.78 345.46 617.78 345.46 617.78"/><polygon class="cls-17" points="298.46 543.78 311.46 543.78 311.46 530.78 298.46 530.78 298.46 543.78 298.46 543.78"/><polygon class="cls-17" points="270.46 543.78 283.46 543.78 283.46 530.78 270.46 530.78 270.46 543.78 270.46 543.78"/><polygon class="cls-17" points="242.46 543.78 255.46 543.78 255.46 530.78 242.46 530.78 242.46 543.78 242.46 543.78"/><polygon class="cls-17" points="214.46 543.78 227.46 543.78 227.46 530.78 214.46 530.78 214.46 543.78 214.46 543.78"/><polygon class="cls-17" points="186.46 543.78 199.46 543.78 199.46 530.78 186.46 530.78 186.46 543.78 186.46 543.78"/><polygon class="cls-17" points="158.46 543.78 171.46 543.78 171.46 530.78 158.46 530.78 158.46 543.78 158.46 543.78"/><polygon class="cls-17" points="130.46 543.78 143.46 543.78 143.46 530.78 130.46 530.78 130.46 543.78 130.46 543.78"/><polygon class="cls-17" points="298.46 562.78 311.46 562.78 311.46 549.78 298.46 549.78 298.46 562.78 298.46 562.78"/><polygon class="cls-17" points="270.46 562.78 283.46 562.78 283.46 549.78 270.46 549.78 270.46 562.78 270.46 562.78"/><polygon class="cls-17" points="242.46 562.78 255.46 562.78 255.46 549.78 242.46 549.78 242.46 562.78 242.46 562.78"/><polygon class="cls-17" points="214.46 562.78 227.46 562.78 227.46 549.78 214.46 549.78 214.46 562.78 214.46 562.78"/><polygon class="cls-17" points="186.46 562.78 199.46 562.78 199.46 549.78 186.46 549.78 186.46 562.78 186.46 562.78"/><polygon class="cls-17" points="158.46 562.78 171.46 562.78 171.46 549.78 158.46 549.78 158.46 562.78 158.46 562.78"/><polygon class="cls-17" points="130.46 562.78 143.46 562.78 143.46 549.78 130.46 549.78 130.46 562.78 130.46 562.78"/><polygon class="cls-17" points="298.46 581.78 311.46 581.78 311.46 568.78 298.46 568.78 298.46 581.78 298.46 581.78"/><polygon class="cls-17" points="270.46 581.78 283.46 581.78 283.46 568.78 270.46 568.78 270.46 581.78 270.46 581.78"/><polygon class="cls-17" points="242.46 581.78 255.46 581.78 255.46 568.78 242.46 568.78 242.46 581.78 242.46 581.78"/><polygon class="cls-17" points="214.46 581.78 227.46 581.78 227.46 568.78 214.46 568.78 214.46 581.78 214.46 581.78"/><polygon class="cls-17" points="186.46 581.78 199.46 581.78 199.46 568.78 186.46 568.78 186.46 581.78 186.46 581.78"/><polygon class="cls-17" points="158.46 581.78 171.46 581.78 171.46 568.78 158.46 568.78 158.46 581.78 158.46 581.78"/><polygon class="cls-17" points="130.46 581.78 143.46 581.78 143.46 568.78 130.46 568.78 130.46 581.78 130.46 581.78"/><polygon class="cls-17" points="106.46 543.78 119.46 543.78 119.46 530.78 106.46 530.78 106.46 543.78 106.46 543.78"/><polygon class="cls-17" points="106.46 562.78 119.46 562.78 119.46 549.78 106.46 549.78 106.46 562.78 106.46 562.78"/><polygon class="cls-17" points="106.46 581.78 119.46 581.78 119.46 568.78 106.46 568.78 106.46 581.78 106.46 581.78"/><path class="cls-26" d="M171.46,421.78v273h34v1h54v-1h41.65l1-.37c.45-.15.89-.32,1.33-.48V421.78h-132"/><path class="cls-27" d="M171.46,421.78v273l20.66,1,13.7-1h2.06l14.43,1,13.26-1,24.22,1h1l27.68-1h12.42l.38-.13,1-.37-10.89-22.76-4.18-8.75-3.43-7.16-3.09-6.45-6.2-13-2.92-6.11-1.08-2.23-.28-.6-6-12.5-12-25.06-.68-1.42-3.18-6.65-4-8.28-1.88-3.92-15-31.29L225,532.73,224,530.49l-3.87-8.08-3.11-6.5-3.85-8-14.68-30.69-9-18.72-17.69-37"/><polygon class="cls-23" points="271.46 588.78 285.46 588.78 285.46 559.78 271.46 559.78 271.46 588.78 271.46 588.78"/><polygon class="cls-23" points="244.46 588.78 258.46 588.78 258.46 559.78 244.46 559.78 244.46 588.78 244.46 588.78"/><polygon class="cls-23" points="217.46 588.78 231.46 588.78 231.46 559.78 217.46 559.78 217.46 588.78 217.46 588.78"/><polygon class="cls-23" points="189.46 588.78 203.46 588.78 203.46 559.78 189.46 559.78 189.46 588.78 189.46 588.78"/><polygon class="cls-20" points="177.46 662.78 296.46 662.78 296.46 614.78 177.46 614.78 177.46 662.78 177.46 662.78"/><polygon class="cls-16" points="27.46 502.78 60.46 502.78 60.46 492.78 27.46 492.78 27.46 502.78 27.46 502.78"/><polygon class="cls-13" points="27.46 481.78 108.46 481.78 108.46 435.78 27.46 435.78 27.46 481.78 27.46 481.78"/><polygon class="cls-23" points="27.46 481.78 42.46 481.78 42.46 435.78 27.46 435.78 27.46 481.78 27.46 481.78"/><polygon class="cls-28" points="42.46 481.78 93.46 481.78 93.46 435.78 42.46 435.78 42.46 481.78 42.46 481.78"/><polygon class="cls-29" points="42.46 481.78 93.12 481.78 42.46 435.51 42.46 481.78 42.46 481.78"/><path class="cls-30" d="M234.36,686.14a35.12,35.12,0,0,0,1.21,9.21l0,.09a32.11,32.11,0,0,0,7.18,13.2c4.11-.44,8.21-1,12.26-1.64a262.84,262.84,0,0,0,31.9-7.11,36.46,36.46,0,0,0,1.57-4.48l0-.12a32.49,32.49,0,0,0,.74-3.45,35.26,35.26,0,0,0-2.44-19.68,31.27,31.27,0,0,0-5.71-8.75,26.26,26.26,0,0,0-2.14-2.08A25.59,25.59,0,0,0,262,654.78h-.14a25.12,25.12,0,0,0-13.71,4.2,28.5,28.5,0,0,0-5.22,4.43,31.27,31.27,0,0,0-5.71,8.75A34.34,34.34,0,0,0,234.5,683c-.1,1-.14,2.11-.14,3.19Z"/><path class="cls-30" d="M206.67,651.31c0,17.32,12.4,31.36,27.68,31.36s27.69-14,27.69-31.36S249.64,620,234.35,620s-27.68,14-27.68,31.36Z"/><path class="cls-30" d="M169.46,682.67v.15a34.78,34.78,0,0,0,2.68,13.34,30.93,30.93,0,0,0,8.7,11.86,263.16,263.16,0,0,0,29.88,2,26.19,26.19,0,0,0,3.63-2.77,31,31,0,0,0,8.18-12.07l0-.09a34.83,34.83,0,0,0,2.25-12.4c0-.69,0-1.37-.07-2.06a34.49,34.49,0,0,0-1.24-7.48c-.11-.43-.24-.84-.37-1.25a32.92,32.92,0,0,0-4.35-8.74c-.44-.63-.9-1.25-1.39-1.83a27.85,27.85,0,0,0-10.41-8,24.77,24.77,0,0,0-9.85-2,25.85,25.85,0,0,0-18.87,8.43,31.33,31.33,0,0,0-5.88,8.86c-.12.27-.23.55-.34.83-.34.8-.64,1.62-.91,2.45a35,35,0,0,0-1.68,10.79Z"/><path class="cls-30" d="M206.67,685.87c0,1.15.05,2.28.16,3.4a32.84,32.84,0,0,0,1,5.77l0,.12a32.43,32.43,0,0,0,6.2,12.07,27,27,0,0,0,2.57,2.77q13.22-.18,26.1-1.63c4.11-.44,8.21-1,12.26-1.65a32.38,32.38,0,0,0,5.79-11.62l0-.09a35.07,35.07,0,0,0,1.2-9.14,34.55,34.55,0,0,0-2.9-14,32.77,32.77,0,0,0-1.68-3.29,30.51,30.51,0,0,0-4-5.45,27.24,27.24,0,0,0-5.24-4.43,24.75,24.75,0,0,0-20.42-3.31,26.38,26.38,0,0,0-10.63,5.91,24.56,24.56,0,0,0-1.85,1.83,30.08,30.08,0,0,0-4,5.45,30.8,30.8,0,0,0-1.68,3.29,34.55,34.55,0,0,0-2.9,14Z"/><path class="cls-30" d="M129.68,656.18c0,22.29,22,40.37,49,40.37s49.05-18.08,49.05-40.37-22-40.37-49.05-40.37-49,18.07-49,40.37Z"/><path class="cls-31" d="M188.09,633.23c-.29.25-.65-.21-.79-.57a4.22,4.22,0,0,0-6.16-1.74,8.18,8.18,0,0,0-2.21,3.24l9.16-.93Z"/><path class="cls-32" d="M152.76,536.78h120.8c41.57,0,61.42,19,61.42,58.65L320.83,742.78H105.49L91.33,595.43c0-39.69,19.86-58.65,61.43-58.65Z"/><polyline class="cls-33" points="277.51 436.32 278.42 457.05 300.87 495.93 333.44 493.92 308.57 454.72 306.73 429.64 277.51 436.32"/><polyline class="cls-32" points="194.46 565.78 231.72 565.78 260.25 508.78 166.06 508.78 194.59 565.78"/><polygon class="cls-34" points="319.46 507.78 289.46 507.78 289.46 493.78 319.46 493.78 319.46 507.78 319.46 507.78"/><path class="cls-35" d="M376.46,492.78H323.83c-1-5-2.79-8.46-4.89-8.46-3.08,0-5.58,7.37-5.58,16.46s2.5,16.45,5.58,16.45c2.1,0,3.93-3.41,4.89-8.45h52.63v-16Z"/><g class="cls-36"><path class="cls-37" d="M51.34,504.05a6.83,6.83,0,1,1-6.83-6.83,6.82,6.82,0,0,1,6.83,6.83Z"/><path class="cls-38" d="M153.49,537.78h121c41.62,0,61.5,19,61.5,58.72L321.78,744,112.68,547.8c9.93-6.72,23.48-10,40.81-10Z"/></g><path class="cls-39" d="M223.18,570.78H203.65S188.86,703,185.91,709.72,171,742.78,171,742.78h87l-15.05-35.34L223.18,570.78Z"/><path class="cls-40" d="M216.09,564.78h-6.26a5.36,5.36,0,0,1-5.37-5.36v-9.29a5.35,5.35,0,0,1,5.37-5.35h6.26a5.36,5.36,0,0,1,5.37,5.35v9.29a5.37,5.37,0,0,1-5.37,5.36Z"/><path class="cls-41" d="M316.72,742.78l14.16-147.39c-.05-37.26-18.29-54.61-57.37-54.61H152.81c-39.08,0-57.32,17.35-57.37,54.61l14.15,147.39h-8.22L87.24,595.64v-.34c0-21.11,5.33-36.47,16.3-46.95s27.06-15.57,49.17-15.57H273.62c22.11,0,38.19,5.09,49.16,15.57s16.31,25.84,16.31,46.95L324.94,742.78Z"/><g class="cls-36"><polygon class="cls-32" points="211.46 724.78 218.46 724.78 218.46 570.78 211.46 570.78 211.46 724.78 211.46 724.78"/><path class="cls-42" d="M187.81,742.78a27,27,0,0,1,53.34,0Z"/></g><polygon class="cls-43" points="244.46 561.78 275.46 561.78 275.46 551.78 244.46 551.78 244.46 561.78 244.46 561.78"/><polygon class="cls-43" points="150.46 561.78 181.46 561.78 181.46 551.78 150.46 551.78 150.46 561.78 150.46 561.78"/><path class="cls-42" d="M140.46,662v-74.4c0-3.19,3.63-5.8,8.08-5.8H278.37c4.45,0,8.09,2.61,8.09,5.8V662c0,3.19-3.64,5.8-8.09,5.8H148.54c-4.45,0-8.08-2.61-8.08-5.8Zm-1.9-86.2c-4.46,0-8.1,2.59-8.1,5.76V667c0,3.17,3.64,5.77,8.1,5.77h149.8c4.45,0,8.1-2.6,8.1-5.77V581.54c0-3.17-3.65-5.76-8.1-5.76Z"/><path class="cls-42" d="M121.91,610.78H304.28a4,4,0,0,0,3.77-2.64,4,4,0,0,0-3.64-5.36H122a3.94,3.94,0,0,0-3.77,2.63,4,4,0,0,0,3.64,5.37Z"/><path class="cls-42" d="M121.91,645.78H304.28a4,4,0,0,0,3.77-2.64,4,4,0,0,0-3.64-5.36H122a3.94,3.94,0,0,0-3.77,2.63,4,4,0,0,0,3.64,5.37Z"/><path class="cls-35" d="M154.84,705.38A11.42,11.42,0,1,0,166.26,694a11.42,11.42,0,0,0-11.42,11.41Z"/><path class="cls-42" d="M152.44,690.78h121.3a3.94,3.94,0,0,0,3.77-2.64,4,4,0,0,0-3.63-5.36H152.58a3.92,3.92,0,0,0-3.77,2.64,4,4,0,0,0,3.63,5.36Z"/><path class="cls-42" d="M171.46,707.42V559.12a4.36,4.36,0,0,0-4.35-4.34H164.8a4.35,4.35,0,0,0-4.34,4.34V707.43a4.36,4.36,0,0,0,4.34,4.35H167a4.41,4.41,0,0,0,4.43-4.36Z"/><path class="cls-35" d="M248.64,705.38A11.42,11.42,0,1,0,260.06,694a11.42,11.42,0,0,0-11.42,11.41Z"/><path class="cls-42" d="M265.46,707.42V559.12a4.36,4.36,0,0,0-4.35-4.34H258.8a4.35,4.35,0,0,0-4.34,4.34V707.43a4.36,4.36,0,0,0,4.34,4.35H261a4.41,4.41,0,0,0,4.43-4.36Z"/><polyline class="cls-11" points="160 453 130.63 452.95 160 482.42 160.05 453"/><path class="cls-44" d="M144.84,457.61a10.47,10.47,0,1,0,10.45,10.49,10.46,10.46,0,0,0-10.45-10.49"/><path class="cls-45" d="M144.51,460h0a.53.53,0,0,0-.51.55v6.35a1.07,1.07,0,0,0-.43.87,1,1,0,0,0,1,1.06h.1l3.84,5a.49.49,0,0,0,.72.07h0a.58.58,0,0,0,.06-.77l-3.81-5a1.21,1.21,0,0,0,.06-.38,1,1,0,0,0-.5-.92v-6.31a.53.53,0,0,0-.5-.55"/><polyline class="cls-10" points="162 489 128 488.94 127.97 506 162 506.06 162.03 489"/><polyline class="cls-10" points="162 489 128 488.94 127.97 506 162 506.06 162.03 489"/><polygon class="cls-46" points="162 513 128 512.93 128.01 505 163 505 162 513.16 162 513"/><polygon class="cls-11" points="162 513.16 127.65 506 163 506 162 513.16 162 513.16"/><polyline class="cls-11" points="162 489 128 488.94 127.99 493 162 493.06 162.01 489"/><polyline class="cls-46" points="158 435 131.84 434.95 127.48 448 161.91 448.06 157.94 435"/><polyline class="cls-11" points="158 435 132.23 434.95 161.38 447.66 157.53 435"/><polyline class="cls-9" points="157 436 132 435.95 132.01 427 157 427.05 156.98 436"/><polyline class="cls-10" points="157.98 435.62 132.87 427 158 427.05 157.98 436"/><path class="cls-11" d="M157,427,132.51,427c7.6-6.39,11.73-16,11.35-30.95h2.65c-.06,14.8,3.43,25.32,11,31"/><polyline class="cls-47" points="148 394 143 393.99 143 396 148 396.01 148 394"/><path class="cls-11" d="M145.19,382.3c-.46,0-.84.38-1.19.84V394h2V383.15a.81.81,0,0,0-.81-.85"/><polygon class="cls-48" points="321 431 324 431 324 401 321 401 321 431.44 321 431"/><polygon class="cls-49" points="321 402.2 309.22 409 321 415.79 321 402.2 321 402.2"/><polygon class="cls-50" points="293 461 300 461 300 452 293 452 293 461 293 461"/><polyline class="cls-50" points="271 481 285 481 285 452 271 452 271 481"/><polyline class="cls-50" points="244 481 258 481 258 452 244 452 244 481"/><polyline class="cls-50" points="217 481 231 481 231 452 217 452 217 481"/><polyline class="cls-50" points="189 481 203 481 203 452 189 452 189 481"/><polygon class="cls-50" points="244 536 258 536 258 507 244 507 244 536 244 536"/><polyline class="cls-51" points="217 536 231 536 231 507 217 507 217 536"/><polyline class="cls-51" points="189 536 203 536 203 507 189 507 189 536"/><polygon class="cls-52" points="76 506 109 506 109 496 76 496 76 506 76 506"/><polygon class="cls-53" points="321 415.8 309.22 409 321 409 321 415.8 321 415.8"/><polyline class="cls-9" points="162.35 506.06 128 493.14 127.98 506 162 506.06"/><path class="cls-54" d="M161.38,434.86c0-15.86-.17-32.41-7.74-46.54-3.28-6.12-7.83-11.54-12.35-16.91L127.49,355a2.61,2.61,0,0,0-1.09-.89,2.73,2.73,0,0,0-2.08.48l-21.06,11.46a35.11,35.11,0,0,0-8.2,5.52c-7,7-6.44,18-4.56,27.47a167.08,167.08,0,0,0,17.61,48.15c2.75,5,5.76,9.85,8.09,15,8.07,18,7.31,38.73,1.18,57.38-1.07,3.24-2.3,6.5-2.44,9.89s1,7,3.86,9.09a12.64,12.64,0,0,0,7.61,1.88c9.18-.2,17.58-5.54,23.13-12.49,11.38-14.24,11.86-33.56,11.85-51.45q0-20.84,0-41.68"/><path class="cls-55" d="M327.92,345.06a7.33,7.33,0,1,1-9.27,11.33l9.27-11.33Z"/><path class="cls-56" d="M178.76,321.45,170.22,323a4.06,4.06,0,0,0-1.35.41c-1.28.74-1.45,2.47-1.34,3.87a26.82,26.82,0,0,0,8.57,17.86A114.82,114.82,0,0,1,162.64,340a40.37,40.37,0,0,0,8.61,22.73,59.2,59.2,0,0,0-32.05-14.21c5.69-3.49,9.37-9.54,12-15.59A77.45,77.45,0,0,0,157.36,292l5.22,10.36a56.15,56.15,0,0,0,5.63,9.57c2.94,3.74,6.76,6.66,10.55,9.54Z"/><path class="cls-56" d="M75.84,355.05l9.38-4.35a5.26,5.26,0,0,1,1.61-.53c1.79-.2,3.25,1.23,4.2,2.56a28.38,28.38,0,0,1,5.17,21.73,124.54,124.54,0,0,0,9.1-13.61A43.18,43.18,0,0,1,114.09,387a63.25,63.25,0,0,1,20.18-34.21c-8.1.69-16.19-2.26-23.3-5.89C95.61,339,82.75,327.62,74.31,314.32l2.76,12.77a58.57,58.57,0,0,1,1.76,12.35c0,5.31-1.51,10.49-3,15.61Z"/><path class="cls-57" d="M251.32,347.48s32.3,1.36,42.85,21.76,9.52,43.2,9.52,43.2l-26.17,4.76s-2.07,26.1-8.57,48.13c-4.82,16.34.68,70.67.68,70.67H241l-1.13-189.54,11.45,1"/><path class="cls-58" d="M71.4,300.77c11.12,38.42,40.25,63.73,65.08,56.54s35.93-44.14,24.81-82.55S121,211,96.21,218.22,60.28,262.36,71.4,300.77"/><path class="cls-56" d="M92.3,289.08c-4.64,1.81-9.32,3.63-13.42,6.35s-7.62,6.43-9,10.93c-2-1.65-2.59-4.23-3-6.65a94.75,94.75,0,0,1-1.46-13.11,14.72,14.72,0,0,1,.57-5.76c1.21-3.26,4.38-5.48,7.42-7.46A333.9,333.9,0,0,1,133,242.75a15,15,0,0,1,5-1.3c2.79,0,5.33,1.39,7.68,2.79s5.26,3.46,5.09,6.19c-.13,2-1.9,3.62-3.42,5.1a33.07,33.07,0,0,0-10.07,22.84,61.09,61.09,0,0,1-2.85-15.06c-1.8,5.75-3.62,11.57-6.87,16.74s-8.11,9.7-14.23,11.48a27.21,27.21,0,0,0,6-11,118.22,118.22,0,0,1-34.15,19.72,94.4,94.4,0,0,0,7.15-11.21"/><polyline class="cls-59" points="180 478 241 478 241 375 180 375 180 478"/><path class="cls-35" d="M72.79,315.38,68,311l6.29.58q3.18,4.52,6.35,9.07a4.07,4.07,0,0,1,.8,1.66,4,4,0,0,1-.79,2.48c-1.91,3.27-4.12,6.79-7.71,8-1.5.48-3.1.51-4.62.92a4.53,4.53,0,0,0-3.42,2.89c-.38,1.53.51,3.08,1.48,4.32,3.49,4.45,8.81,8.3,9,13.95a11.45,11.45,0,0,1-3,7.64,30.52,30.52,0,0,1-6.5,5.3A28.42,28.42,0,0,0,60,360.31,21.37,21.37,0,0,0,65.59,354a2.53,2.53,0,0,0,.48-1.59,2.68,2.68,0,0,0-.51-1.06q-2.69-3.9-5.35-7.81a21.28,21.28,0,0,1-3.24-6A7.2,7.2,0,0,1,58,331c1.77-2.14,4.81-2.56,7.44-3.44a18.64,18.64,0,0,0,7.82-5.1c1-1.13,2-2.57,1.69-4.07a5.88,5.88,0,0,0-2.13-3.05Z"/><path class="cls-35" d="M137.52,303.76l5.69-1.65a12.25,12.25,0,1,0-6.81-23.53l-5.69,1.64a12.25,12.25,0,0,0,6.81,23.54Z"/><path class="cls-35" d="M101.29,314.24l5.7-1.64a12.25,12.25,0,0,0-6.82-23.54l-5.69,1.65a12.29,12.29,0,0,0-8.36,15.17h0a12.28,12.28,0,0,0,15.17,8.36Z"/><polygon class="cls-35" points="114.91 298.37 123.01 296.03 121.87 292.11 113.78 294.45 114.91 298.37 114.91 298.37"/><path class="cls-60" d="M77.1,307.82l.39,0,8.65-1.36a2.5,2.5,0,0,0-.77-4.94l-8.65,1.36a2.5,2.5,0,0,0,.38,5Z"/><path class="cls-61" d="M47.46,289.67A77.76,77.76,0,0,0,60.1,315,74.21,74.21,0,0,0,70,325.79c4.37,3.9,14.19,0,13.58-5.88a78.13,78.13,0,0,0-9.85-30.68A154.05,154.05,0,0,1,111,270.83a154.21,154.21,0,0,1,41.34-4.36,78.06,78.06,0,0,0,8.06,31.2c2.61,5.28,13,3.35,14.62-2.28a77,77,0,0,0-.23-42.58c-8.54-29.48-32.66-49.86-59.55-53.42a63.34,63.34,0,0,0-22.86,1.11l0-.09c-.53.15-1.06.34-1.59.51s-1.08.26-1.61.42l0,.08c-34,11.81-52.63,50.55-41.72,88.25"/><path class="cls-35" d="M288.52,344.31a56,56,0,0,1-10.27-2.73,20,20,0,0,1-4-1.88,13.54,13.54,0,0,1-5.21-7.21c-1.79-5.1-2-10.15-2.26-15.14a.61.61,0,0,1,.17-.57,1.11,1.11,0,0,1,.72-.1c1.15.09,2.33.43,3.47.49s2.33-.26,2.54-1.07c-.19,3.68,1.68,7.61,3.52,11.4a10.64,10.64,0,0,0,2.59,3.76,11.85,11.85,0,0,0,2.67,1.61c5.05,2.35,10.63,3,16,4a125.43,125.43,0,0,1,25.06,7.51,31.15,31.15,0,0,0-10.09,6.19A73.62,73.62,0,0,0,301,346.09c-4.15-.94-8.29-1.11-12.45-1.78Z"/><polyline class="cls-62" points="152.67 446.27 107.04 433.06 109.99 412.65 115.65 415.6 148.91 432.92 152.67 446.27"/><polyline class="cls-62" points="315 413 315 432.17 269.77 441.98 276.24 416.53 302.42 411.76 315 412.67"/><path class="cls-57" d="M169.68,347.23s-39.27,0-49.81,20.4-4.76,48-4.76,48l33.26,17.31s4.36,22.4.58,40.21c-4.5,21.19-7.71,62.89-7.71,62.89l38.76-.25,1.13-189.54-11.45,1"/><path class="cls-63" d="M181.83,378.45s-13.31,8.67-16.88,15.13-4.71,9.18-4.71,9.18-1.41-8.5,1.48-22.11,11.57-30.34,11.57-30.34l8.71-.77L181.83,378"/><path class="cls-63" d="M239.17,377s13.31,8.67,16.88,15.14,4.71,9.18,4.71,9.18,1.41-8.5-1.48-22.11-11.57-30.34-11.57-30.34l-8.71-.77.17,28.94"/><path class="cls-62" d="M180.83,375.13S167.52,383.8,164,390.26s-4.71,9.19-4.71,9.19-1.41-8.51,1.48-22.11S172.29,347,172.29,347l8.71-.78L180.83,375"/><path class="cls-62" d="M240.17,375.13s13.31,8.67,16.88,15.13,4.71,9.19,4.71,9.19,1.41-8.51-1.48-22.11S248.71,347,248.71,347l-8.71-.78.17,28.78"/><path class="cls-58" d="M322.42,508s-1.36,10.88,0,13.26,21.28,3.29,23.85,1.25,2.9-7.37,2.9-7.37l-3.8-5L340,518.43,333.8,508Z"/><path class="cls-58" d="M159,298.41c0,40,24.87,72.4,55.55,72.4s55.55-32.41,55.55-72.4S245.21,226,214.53,226,159,258.42,159,298.41"/><path class="cls-38" d="M212.9,432.7,193.58,438l-5,3.59L143,483.78H125a10.57,10.57,0,0,0-10.57,10.57v12.86A10.57,10.57,0,0,0,125,517.78H301.89a10.58,10.58,0,0,0,10.57-10.57V494.35a10.57,10.57,0,0,0-10.57-10.57H284.44l-47-42-24.55-9"/><polyline class="cls-58" points="144.02 443.09 141.66 465.88 113.9 497.51 94.38 496 83.05 496.16 114 452.73 114 434.4 144.02 443.09"/><path class="cls-64" d="M231,312h15a12,12,0,0,0,12-12v-7a12,12,0,0,0-12-12H231a12,12,0,0,0-12,12v7a12.12,12.12,0,0,0,12.16,12"/><path class="cls-35" d="M234,309h9a12,12,0,0,0,12-12v-2a12,12,0,0,0-12-12h-9a12,12,0,0,0-12,12v1.84A12.08,12.08,0,0,0,233.92,309"/><path class="cls-64" d="M184,312h15a12,12,0,0,0,12-12v-7a12,12,0,0,0-12-12H184a12,12,0,0,0-12,12v7a12.12,12.12,0,0,0,12.16,12"/><path class="cls-35" d="M187,309h9a12,12,0,0,0,12-12v-2a12,12,0,0,0-12-12h-9a12,12,0,0,0-12,12v1.84A12.08,12.08,0,0,0,186.92,309"/><path class="cls-65" d="M312,509.24s24.38-5.51,32.5-5.51,32.5,5.51,32.5,5.51v-5.82s-24.37-5.52-32.5-5.52-32.5,5.52-32.5,5.52v5.82Z"/><polygon class="cls-64" points="209 297 220 297 220 292 209 292 209 297 209 297"/><path class="cls-58" d="M355,502.46c0,9.45,2.79,17.11,6.23,17.11s6.24-7.66,6.24-17.11-2.79-17.12-6.24-17.12S355,493,355,502.46Z"/><path class="cls-58" d="M343.7,499.16c0,9.45,2.79,17.11,6.24,17.11s6.23-7.66,6.23-17.11S353.38,482,349.94,482s-6.24,7.66-6.24,17.12Z"/><path class="cls-58" d="M333,500.87c0,9.45,2.79,17.12,6.23,17.12s6.24-7.67,6.24-17.12-2.79-17.12-6.24-17.12S333,491.42,333,500.87Z"/><path class="cls-66" d="M99.88,507s1.36,10.88,0,13.26S78.6,523.55,76,521.51s-2.91-7.37-2.91-7.37l3.8-5,5.34,8.29L88.51,507Z"/><polygon class="cls-67" points="134 511 104 511 104 497 134 497 134 511 134 511"/><path class="cls-35" d="M49,496h52.63c1-5,2.78-8.45,4.88-8.45,3.08,0,5.58,7.36,5.58,16.45s-2.5,16.45-5.58,16.45c-2.1,0-3.93-3.41-4.88-8.45H49V496Z"/><path class="cls-65" d="M374.52,507.27a6.83,6.83,0,1,0,6.83-6.83,6.83,6.83,0,0,0-6.83,6.83Z"/><path class="cls-65" d="M114,509.24s-24.38-5.51-32.5-5.51S49,509.24,49,509.24v-5.82s24.38-5.52,32.5-5.52,32.5,5.52,32.5,5.52v5.82Z"/><path class="cls-68" d="M212.15,512.3A37.89,37.89,0,1,1,250,474.41a38,38,0,0,1-37.88,37.89"/><path class="cls-69" d="M212.15,439a35.39,35.39,0,1,0,35.38,35.39A35.44,35.44,0,0,0,212.15,439m0,75.78a40.39,40.39,0,1,1,40.38-40.39,40.44,40.44,0,0,1-40.38,40.39"/><path class="cls-70" d="M212.15,501a26.6,26.6,0,1,1,26.6-26.6,26.65,26.65,0,0,1-26.6,26.6"/><path class="cls-71" d="M284.26,491.84c0,2.57,3.48,4.66,7.76,4.66s7.76-2.09,7.76-4.66-3.47-4.66-7.76-4.66-7.76,2.08-7.76,4.66"/><path class="cls-35" d="M297,488.37c1.59.85,2.59,2.09,2.59,3.47s-1,2.64-2.63,3.49a3.13,3.13,0,0,0,0-.44v-6.52Z"/><path class="cls-35" d="M284.41,491.84c0-1.38,1-2.62,2.59-3.47v6.52a3.13,3.13,0,0,0,0,.44c-1.61-.85-2.63-2.1-2.63-3.49"/><path class="cls-71" d="M287,488v-3.64a2.36,2.36,0,0,1,2.36-2.36h5.28a2.36,2.36,0,0,1,2.36,2.36v4a11.1,11.1,0,0,0-10,0"/><polygon class="cls-72" points="290.54 487.26 290.63 487.25 290.54 487.26 290.54 487.26"/><polygon class="cls-72" points="289.18 487.5 289.26 487.49 289.18 487.5 289.18 487.5"/><polyline class="cls-72" points="287.95 487.88 287.98 487.86 287.95 487.88"/><path class="cls-72" d="M286.85,488.37a5,5,0,0,0-.55.33,5,5,0,0,1,.55-.33"/><path class="cls-72" d="M286,489v0a5.15,5.15,0,0,1,.45-.32,3.72,3.72,0,0,0-.45.33"/><path class="cls-72" d="M286,495v-.26l.33.25-.33-.23"/><path class="cls-73" d="M286.48,495a6.32,6.32,0,0,0,.56.33,3.13,3.13,0,0,1,0-.44v-6.52a7.21,7.21,0,0,1,1.09-.49l0,0a10.34,10.34,0,0,1,1.19-.36h.08a10.51,10.51,0,0,1,1.29-.23h.09l.83,0,5.68,8.12a11,11,0,0,1-5.12,1.17,10.64,10.64,0,0,1-5.69-1.5"/><path class="cls-73" d="M290.69,487.26a10.51,10.51,0,0,0-1.29.23h-.08a10.34,10.34,0,0,0-1.19.36l0,0a7.21,7.21,0,0,0-1.09.49v-4a2.34,2.34,0,0,1,1.21-2l3.4,4.86-.83,0h-.09"/><polygon class="cls-68" points="325.71 407.78 318.39 404.14 288.56 464.25 295.49 464.86 325.71 407.78 325.71 407.78"/><path class="cls-71" d="M325.32,429.66a30.22,30.22,0,1,1,30.21-30.21,30.27,30.27,0,0,1-30.21,30.21Z"/><polygon class="cls-68" points="289 482 296 482 296 464 289 464 289 482 289 482"/><path class="cls-71" d="M125.33,491.84c0,2.57,3.47,4.66,7.76,4.66s7.76-2.09,7.76-4.66-3.48-4.66-7.76-4.66-7.76,2.08-7.76,4.66"/><path class="cls-35" d="M138,488.37c1.59.85,2.59,2.09,2.59,3.47s-1,2.64-2.63,3.49a3.13,3.13,0,0,0,0-.44V488"/><path class="cls-35" d="M125.41,491.84c0-1.38,1-2.62,2.59-3.47v6.52a2.12,2.12,0,0,0,.05.44c-1.62-.85-2.64-2.1-2.64-3.49Z"/><path class="cls-71" d="M128,488v-3.64a2.36,2.36,0,0,1,2.36-2.36h5.28a2.36,2.36,0,0,1,2.36,2.36v4a11.1,11.1,0,0,0-10,0"/><path class="cls-73" d="M127.48,495a5.3,5.3,0,0,0,.57.33,2.12,2.12,0,0,1-.05-.44v-6.52a7.69,7.69,0,0,1,1.09-.49l0,0a10.34,10.34,0,0,1,1.19-.36h.08a10.51,10.51,0,0,1,1.29-.23h.09l.83,0,5.68,8.12a11,11,0,0,1-5.12,1.17,10.64,10.64,0,0,1-5.69-1.5"/><path class="cls-73" d="M131.69,487.26a10.51,10.51,0,0,0-1.29.23h-.08a10.34,10.34,0,0,0-1.19.36l0,0a7.69,7.69,0,0,0-1.09.49v-4a2.34,2.34,0,0,1,1.21-2l3.4,4.86-.83,0Z"/><polygon class="cls-68" points="99.29 408.01 106.61 404.38 136.44 464.48 129.51 465.1 99.29 408.01 99.29 408.01"/><path class="cls-71" d="M99.68,429.9a30.22,30.22,0,1,0-30.21-30.22A30.28,30.28,0,0,0,99.68,429.9Z"/><polygon class="cls-68" points="136 482 129 482 129 464 136 464 136 482 136 482"/><polyline class="cls-74" points="210 375 214.4 375 218.99 375 225.24 405.7 214.53 433.02 203.82 405.7 209.81 375"/><path class="cls-60" d="M183.92,330.42c-.26.31-1.2.51-1.45.8-1.26,1.49,2.19,4.68,4,3.77a86.49,86.49,0,0,0,12.58-7.83c6.44-4.67,8.57-5.09,15.44-1.5,6.87-3.59,9-3.17,15.45,1.5A86,86,0,0,0,242.56,335c1.84.91,5.3-2.28,4-3.77-.24-.29-1.18-.49-1.44-.8,3.24-1.43,5.52-.06,5.59,3.85.09,6.1-6.26,11.66-14.24,12.56-8.42.94-16.42-1-22-6.4-5.55,5.39-13.55,7.34-22,6.4-8-.9-14.33-6.46-14.23-12.56.06-3.91,2.34-5.28,5.59-3.85Z"/><path class="cls-60" d="M173.45,359.3,183.77,339h4.5c-1.08.61-1.68,1.28-1.68,2,0,2.92,10.45,17.57,23.34,17.57a13.26,13.26,0,0,0,4.6-.87,13.27,13.27,0,0,0,4.61.87c12.89,0,23.34-14.65,23.34-17.57,0-.7-.6-1.37-1.69-2h4.51l10.31,20.3L249,355s11.27,28.8-18.62,38c0,0-9.25,1.31-13.17,6.11l-2.65,3.25-2.65-3.25c-3.92-4.8-13.17-6.11-13.17-6.11-29.89-9.24-18.62-38-18.62-38l-6.64,4.27"/><path class="cls-35" d="M155,319.5l6.75-5.18-8.2,0q-4.65,5.51-9.27,11a5.17,5.17,0,0,0-1.23,2.05,5.28,5.28,0,0,0,.73,3.32c2.1,4.44,4.55,9.26,9.08,11.18,1.87.8,4,1,5.86,1.73s3.79,2.13,4.1,4.14-1,3.93-2.42,5.42c-5,5.36-12.36,9.73-13.25,17a14.92,14.92,0,0,0,3,10.24,39.35,39.35,0,0,0,7.8,7.61,37.3,37.3,0,0,1,8.45-8.92,27.84,27.84,0,0,1-6.57-8.76,3.29,3.29,0,0,1-.44-2.12,3.58,3.58,0,0,1,.79-1.32q3.91-4.74,7.82-9.49a27.52,27.52,0,0,0,4.89-7.42c1.07-2.78,1.14-6.11-.54-8.57-2-3-5.93-3.86-9.24-5.3a24.32,24.32,0,0,1-9.54-7.5c-1.19-1.58-2.24-3.56-1.72-5.48.43-1.58,1.81-2.7,3.11-3.7"/><path class="cls-62" d="M141.8,415.18c2.47,5.88,5.34,11.65,6.76,17.86-.45-2.14-.91-4.27-1.36-6.41-2.21-10.48-4.66-21.44-11.64-29.56a144.46,144.46,0,0,0,6.24,18.11"/><path class="cls-62" d="M279,412.78c-2.47,5.88-5.35,11.64-6.76,17.86l1.35-6.42c2.21-10.47,4.66-21.43,11.64-29.55A145,145,0,0,1,279,412.78"/><path class="cls-58" d="M67.37,499.74c0,9.46-2.79,17.12-6.23,17.12s-6.24-7.66-6.24-17.12,2.79-17.11,6.24-17.11,6.23,7.66,6.23,17.11Z"/><path class="cls-58" d="M78.6,499c0,9.46-2.79,17.12-6.23,17.12s-6.24-7.66-6.24-17.12,2.79-17.11,6.24-17.11S78.6,489.54,78.6,499Z"/><path class="cls-58" d="M89.32,500.71c0,9.45-2.79,17.12-6.23,17.12s-6.24-7.67-6.24-17.12,2.8-17.12,6.24-17.12,6.23,7.66,6.23,17.12Z"/><polygon class="cls-55" points="321.72 340.48 305.37 352.88 317.35 358.41 329.07 344.09 321.72 340.48 321.72 340.48"/><polygon class="cls-71" points="321.72 337.91 305.37 350.31 317.35 355.84 329.07 341.52 321.72 337.91 321.72 337.91"/><polygon class="cls-55" points="317 355.84 317 358.41 305 352.88 305 350.31 317 355.84 317 355.84"/><polygon class="cls-55" points="329 344.09 329 341.52 327.5 343.35 329 344.09 329 344.09"/><polyline class="cls-75" points="166.92 375.43 150.56 387.83 162.54 393.36 174.26 379.04 166.92 375.43"/><polyline class="cls-76" points="166.92 372.86 150.56 385.26 162.54 390.79 174.26 376.47 166.92 372.86"/><polyline class="cls-75" points="163 391 163 393.36 151 387.83 151 385.26 163 390.79"/><polyline class="cls-75" points="174 379 174 376.47 172.5 378.3 174 379.04"/><polygon class="cls-75" points="68.5 368.82 59.15 355.7 54.53 364.98 65.5 374.5 68.5 368.82 68.5 368.82"/><polygon class="cls-76" points="70.52 368.88 61.16 355.76 56.55 365.04 67.51 374.56 70.52 368.88 70.52 368.88"/><polygon class="cls-75" points="56.55 365.04 54.53 364.98 59.15 355.7 61.16 355.76 56.55 365.04 56.55 365.04"/><polygon class="cls-75" points="65.5 374.5 67.51 374.56 66.11 373.35 65.5 374.5 65.5 374.5"/><path class="cls-71" d="M327.92,344.22a7.32,7.32,0,1,1-9.27,11.32l9.27-11.32Z"/><polyline class="cls-59" points="267 521 274 521 274 451 267 451 267 521"/><polyline class="cls-59" points="147 521 154 521 154 451 147 451 147 521"/><path class="cls-77" d="M283.52,487.53,276.2,481H285v-7.68l4,5v3.92s-2.12,1.17-2,2.14h0V487h-3m-10-35v-1h-.92c.73-3.48,1.37-6.9,1.92-10.16l2.31-.5.51,11.66H274"/><polyline class="cls-78" points="276 481 286 481 286 473.63 278.2 460.68 277.8 452 274 452 274 478.98 276.37 481"/><path class="cls-79" d="M241,441V388.54c-.45,0-.48,0,0,.06v52.5c-.37.12-.24.23-.11.35"/><path class="cls-80" d="M240,441V388.6a36.25,36.25,0,0,1-10.14,4.8,31.06,31.06,0,0,0-3.66.81c1.93,2,3.8,4,5.61,6.08,1.2,1.37,2.36,2.78,3.5,4.21s2.23,2.9,3.28,4.42l0,0c.29.37.6.72.88,1.09-.42-.2-.83-.43-1.24-.65l0,0c-1.52-1.05-3-2.15-4.43-3.28s-2.83-2.3-4.2-3.51c-2.35-2-4.62-4.17-6.83-6.36l2,9.9-2.43,6.18c1.54,1.63,3.08,3.25,4.58,4.93,1,1.16,2.11,2.29,3.13,3.47l3.07,3.52c2,2.39,4,4.77,6,7.27-2.5-1.9-4.88-3.93-7.27-5.94l-3.52-3.08c-1.18-1-2.31-2.09-3.47-3.13s-2.57-2.35-3.84-3.54L215.74,429l.12.15c.65.87,1.1,1.49,1.32,1.8A43.66,43.66,0,0,1,240,441.1"/><polyline class="cls-81" points="288 478 288 437.87 276.73 440.31 277.22 451.52 277.6 460.28 285.14 473.32 288 478.28"/><path class="cls-82" d="M274.51,440.8l2.22-.49L288,437.87V422.44a53.09,53.09,0,0,0-.5-7.28l-9.88,1.8s-.84,10.52-3.11,23.84"/><path class="cls-83" d="M267,473V451h6.15c.69-3.34,1.3-6.63,1.83-9.77,2.25-13.32,3.07-23.83,3.07-23.83l9.79-1.8a52.6,52.6,0,0,0-4.27-14.72q-2,6.27-4.49,12.34c-2.45,5.87-5.3,11.64-6.7,17.85.45-2.13.89-4.27,1.34-6.41,1.88-9,3.93-18.31,8.83-25.9a53.36,53.36,0,0,0-22.07-22.63c.13.56.25,1.1.37,1.65,2.86,13.6,1.46,22.1,1.46,22.1s-.29-.68-1-2.19a34.3,34.3,0,0,1-.31,4s-1.13-2.72-4.67-9.18c-1.7-3.1-5.63-6.72-9.25-9.64A24.61,24.61,0,0,1,241,389l.31,52.9A43.93,43.93,0,0,1,254,461.18l13,11.65"/><path class="cls-84" d="M260.74,401.28a35.67,35.67,0,0,0,.32-4c-.74-1.49-1.91-3.78-3.69-7s-5.78-6.81-9.47-9.75c-.37.66-.77,1.31-1.21,1.94,3.66,2.92,7.62,6.54,9.34,9.65,3.57,6.46,4.71,9.18,4.71,9.18"/><path class="cls-82" d="M262.08,399.45s1.42-8.51-1.48-22.11c-.11-.54-.24-1.09-.37-1.64a52.43,52.43,0,0,0-9.46-3.94,25.2,25.2,0,0,1-2.87,8.75c3.69,2.94,7.74,6.61,9.47,9.75s2.95,5.51,3.69,7,1,2.19,1,2.19"/><path class="cls-85" d="M276.45,505.25a21.94,21.94,0,0,1-2.45-.14V478.43l2.3,2,7.35,6.53H287v1.36s-2.69,2-2.74,3.38h0l-.26,0h0c.26,0,.26,0,0,0h0v0h0v0h0v0h0c.06,1.66,1.57,3.12,3.81,3.91a12.06,12.06,0,0,1-11.72,9.4h0M267,503a21.26,21.26,0,0,1-11.37-22.13,44.36,44.36,0,0,0,.28-10.52,42.88,42.88,0,0,0-2-9.59L267,472.4V503"/><path class="cls-86" d="M288.1,495.85c-2.24-.79-3.75-2.25-3.81-3.91a3.76,3.76,0,0,0,1.71,2.81h0l.21.14a6.23,6.23,0,0,0,.72.43h0a7.81,7.81,0,0,0,1.17.52h0m-3.84-3.91v0M284,492v0m0-.1h0V492m0,0v0m0,0v0m0,0v0m0-.16h0V492m0,0v0m0,0v0m0,0v-.21m0,.21v0m0-.24V492m.41-.26a4.26,4.26,0,0,1,2.59-3.38h0l-.06,0a4.24,4.24,0,0,0-2.53,3.34"/><path class="cls-87" d="M286.93,495.33a6.23,6.23,0,0,1-.72-.43l.12.09-.33-.25h0s-1.7-1.75-1.74-2.81h0l-.26,0h0c.26,0,.26,0,0,0h0v0h0v0h0v0h0l.26,0h0a4.25,4.25,0,0,1,2.54-3.34h0l-.47.29.47-.29a.56.56,0,0,1,.23,0h0v6.52a3.13,3.13,0,0,0,0,.44l-.36-.2-.2-.13.2.13.36.2h0m-.66-6.58.07,0-.07,0L286,489h0l.38-.29"/><path class="cls-80" d="M217.48,431c-.32-.23-.85-.61-1.55-1.14l-.37.95c.64.05,1.28.11,1.92.19"/><path class="cls-86" d="M287,484v0m0,0v0m0,0v0m-.5.34a2.37,2.37,0,0,1,1.5-2.14v.56l-.29-.41a2.36,2.36,0,0,0-1.21,2"/><path class="cls-88" d="M286.3,488.7l.47-.29-.47.29m.47-.29h0l.05,0h0l-.08,0"/><path class="cls-88" d="M286,489v0l.38-.28L286,489m.22-.29.06,0-.06,0"/><path class="cls-88" d="M286.33,495l-.33-.25h0l.21.14.12.09"/><path class="cls-89" d="M288.07,495.85a7.81,7.81,0,0,1-1.17-.52h0a.42.42,0,0,1,.1-.44v-6.52a2.79,2.79,0,0,1,.95-.49l0,0a3.36,3.36,0,0,1,1-.13v5.52a6.31,6.31,0,0,0-.93,2.6m-1.17-.52-.36-.2.36.2h0m-.36-.2-.21-.13.21.13"/><path class="cls-89" d="M286.85,488.37h0a7.33,7.33,0,0,1,1.1-.49l0,0a3.36,3.36,0,0,1,1-.13v-5l-.93-.41a2,2,0,0,0-1.07,2h0c-.15,0-.15,0,0,0h0V488"/><path class="cls-79" d="M138,487h4.66l4.34-4V450H150s-.21-3-.35-4.62L144,443.77l-2.32,22.45-4.7,5.3v10.82c.77.4,1,2.05,1,2.05V487"/><path class="cls-80" d="M179.7,445l.3-50.09c.65.81,1.38,1.71,2.18,2.66s1.82,2.17,2.86,3.32,2.1,2.4,3.25,3.64c2.29,2.49,4.79,5.09,7.33,7.65s5.15,5,7.64,7.33c1.24,1.15,2.48,2.23,3.64,3.26s2.28,2,3.32,2.85l1.21,1,1.58,4c-.44,0-.87,0-1.31,0a43.65,43.65,0,0,0-32,13.95m30.46-23.52-.31-.35c-1-1.16-2.1-2.39-3.25-3.63-2.29-2.49-4.79-5.09-7.34-7.65s-5.15-5-7.65-7.33c-1.23-1.15-2.47-2.22-3.63-3.25s-2.29-2-3.33-2.85c-1.39-1.18-2.66-2.2-3.73-3l.08-13.66c2.74,5.68,8.14,11,18.17,14.09,0,0,.24,0,.65.11,1.88,2.05,3.82,4.05,5.72,6.08l-1.26,6.48,5.88,15"/><path class="cls-82" d="M149.56,445.38c-.63-7.32-1.63-12.46-1.63-12.46L137,427.23V441.4l7,2,0,.34,5.58,1.61"/><path class="cls-83" d="M154.6,476.77l16.57-15.28a43.89,43.89,0,0,1,9.83-16.9V394.91a34.41,34.41,0,0,1-2.48-2.47c-1-1.27-1.48-2-1.48-2s.76.51,2,1.48A5.89,5.89,0,0,1,180,393l.08-13.3h0c-3.32,2.28-12.32,8.76-15.12,13.84-3.47,6.27-4.57,8.91-4.57,8.91a36.94,36.94,0,0,1-.33-5.11c-.63,1.3-.88,1.89-.88,1.89a43.36,43.36,0,0,1-.31-7.64L151,387.93v-1.56A55.13,55.13,0,0,0,140.38,404c3.67,7.12,5.47,15.32,7.14,23.24.47,2.22.94,4.43,1.4,6.65-1.46-6.44-4.44-12.41-7-18.5q-1.53-3.64-2.86-7.35A54.49,54.49,0,0,0,137,422.89v4.77l11.12,5.69s1,5.15,1.66,12.47c.14,1.63.26,3.37.35,5.18H154v26"/><path class="cls-84" d="M160.23,402.76s1.14-2.72,4.71-9.18c2.89-5.24,12.18-11.93,15.6-14.27a24.34,24.34,0,0,1-1.29-3.29c-1.43,1-3.85,2.7-6.4,4.74l-10.31,12.6-.43-.2c-1,1.89-1.73,3.32-2.22,4.34a37.74,37.74,0,0,0,.34,5.26"/><path class="cls-82" d="M159,399.45a44.86,44.86,0,0,1-.31-7.88l3.44,1.59c-1,1.89-1.73,3.32-2.22,4.34-.65,1.33-.91,1.95-.91,1.95m13.61-18.69L174,379v-2.57l-1.5,1.83,1.5.74-1.5-.74,1.5-1.83-5.31-2.61a52,52,0,0,1,9.23-3.05A27.54,27.54,0,0,0,179,376c-1.43,1-3.84,2.7-6.39,4.74"/><polyline class="cls-81" points="137 471.52 141.65 466.22 143.98 443.77 144.01 443.43 137 441.4 137 472"/><path class="cls-85" d="M146.82,505a12.09,12.09,0,0,1-9.36-9.26c2.09-.81,3.48-2.21,3.54-3.81h0v0h0v0h0v0h0c-.15,0-.15,0,0,0h0v0h0a4.64,4.64,0,0,0-3-3.4V487h4.69l4.31-4v22m7,0V476.77l16.57-15.28a43.5,43.5,0,0,0-1.95,12.92,44.44,44.44,0,0,0,.57,7.06A20.35,20.35,0,0,1,154,504.72"/><path class="cls-86" d="M137.31,495.75h0a9.39,9.39,0,0,0,.9-.42l-1.16-1.65a1.24,1.24,0,0,0-.05-.43v-5.42a2,2,0,0,1,1,.54h0c1.82.84,2.81,2.05,2.85,3.4,0-1.35-1-2.56-2.85-3.39v6.52c.26.15.24.3.21.44,1.58-.83,2.59-2,2.64-3.39-.06,1.6-1.45,3-3.54,3.81m3.54-3.81v0m.15.06v0m0,0v0m0,0v-.11m0,.11v0m0,0v0m0,0v-.16h0m0,.16v0m0-.2h0V492m0,0v0m0,0v0"/><path class="cls-87" d="M138.21,495.33c1.58-.83,2.59-2,2.64-3.39h0l.15,0h0c-.15,0-.15,0,0,0h0v0h0v0h0a4.63,4.63,0,0,0-3-3.39v6.52c.26.15.24.3.21.44"/><path class="cls-86" d="M138,488v-3.61a1.74,1.74,0,0,0-1-2.05v5.49a8.23,8.23,0,0,1,1.26.54"/><path class="cls-89" d="M137.31,495.75a9.39,9.39,0,0,0,.9-.42l-1.16-1.65a12.87,12.87,0,0,0,.26,2.07"/><path class="cls-90" d="M215.56,430.77h-.05c-.69-.06-1.37-.09-2-.11l-1.58-4c1.56,1.29,2.91,2.33,3.93,3.1l.12.1-.37.95m.68-1.74c-1-1.25-2.31-3-4-5-.78-.94-1.62-1.94-2.54-3l-5.88-15,1.26-6.48a.86.86,0,0,1,.13.14c2.17,2.23,4.35,4.46,6.55,6.66l3.32,3.28c1.13,1.08,2.23,2.18,3.37,3.24l3,2.84L216.24,429m6.58-16.78L221,410.34c-1.06-1.14-2.16-2.24-3.24-3.36l-3.28-3.32q-3.3-3.32-6.66-6.55l-1.66-1.56a15.12,15.12,0,0,1,5.71,4l2.65,3.25,2.65-3.25a15,15,0,0,1,5.51-3.87l.54.53,2,9.9-2.42,6.18"/><path class="cls-87" d="M214.53,402.3l2.65-3.25a14.9,14.9,0,0,1,5.51-3.88l-.58-.57q-3.83-3.87-7.39-8c-1.18-1.39-2.34-2.8-3.45-4.26-.55-.74-1.11-1.46-1.64-2.21s-1.06-1.51-1.56-2.3c.79.5,1.55,1,2.3,1.56s1.47,1.1,2.21,1.64c1.45,1.12,2.86,2.28,4.25,3.46q4.15,3.55,8,7.4l1.86,1.88a31.18,31.18,0,0,1,3.65-.81,36.12,36.12,0,0,0,10.14-4.81l.08-.05a24.74,24.74,0,0,0,6.12-6.09c.44-.64.84-1.29,1.21-1.94a25.31,25.31,0,0,0,2.87-8.76A52.63,52.63,0,0,0,235.38,369H190a52.63,52.63,0,0,0-11.85,1.34,26.91,26.91,0,0,0,1.07,5.22,23.72,23.72,0,0,0,1.29,3.28h0c2.74,5.68,8.14,11,18.17,14.09l.66.11-.55-.6L195.67,389l-3.09-3.52c-1-1.16-2-2.38-3-3.56s-2-2.41-3-3.64l0,0h0l-.49-1.37.78,1.17c1.23,1,2.43,2,3.64,3s2.39,2,3.56,3l3.52,3.09,3.46,3.15c1.74,1.59,3.44,3.21,5.15,4.83a15.15,15.15,0,0,1,5.71,4l2.65,3.25"/><path class="cls-82" d="M148.56,433c-.45-2.14-.91-4.27-1.36-6.41-1.61-7.65-3.35-15.56-6.89-22.44-.48,1.28-.9,2.58-1.28,3.9q1.29,3.59,2.77,7.09c2.47,5.88,5.34,11.65,6.76,17.86"/><path class="cls-82" d="M272.25,430.64c1.41-6.22,4.29-12,6.76-17.86,1.69-4,3.21-8.16,4.53-12.34-.33-.71-.67-1.42-1-2.12-4.95,7.6-7,16.93-8.91,25.9l-1.35,6.42"/><polyline class="cls-91" points="163 393.36 173.31 380.76 174.72 379.04 173.22 378.3 163 390.79 153.12 386.23 163 390.79 163 393"/><path class="cls-85" d="M162.54,390.79l10.22-12.49,1.5-1.83-5.3-2.61a53.28,53.28,0,0,0-17.15,12l.86.39,9.87,4.56"/><path class="cls-91" d="M163,393.36h0v-2.57l-9.89-4.56-.86-.39c-.42.44-.84.89-1.25,1.35v.64l8.12,3.74,3.45,1.59.43.2"/><polyline class="cls-91" points="174 379.04 174 379.04 174 376.47 172.5 378.3 174 379.04"/><path class="cls-80" d="M274,506V451h-7v52.42a20.37,20.37,0,0,0,7,2.12"/><path class="cls-80" d="M149,505h.45a19.41,19.41,0,0,0,4.55-.53V450h-7v54.76a11.42,11.42,0,0,0,2.35.24"/><path class="cls-68" d="M263.61,452.81a6.75,6.75,0,1,0,6.75-6.75,6.75,6.75,0,0,0-6.75,6.75Z"/><path class="cls-68" d="M263.61,483.75a6.75,6.75,0,1,0,6.75-6.75,6.75,6.75,0,0,0-6.75,6.75Z"/><path class="cls-68" d="M143.46,452.81a6.75,6.75,0,1,0,6.75-6.75,6.75,6.75,0,0,0-6.75,6.75Z"/><path class="cls-68" d="M143.46,483.75a6.75,6.75,0,1,0,6.75-6.75,6.75,6.75,0,0,0-6.75,6.75Z"/><path class="cls-92" d="M171.64,295.7A2.5,2.5,0,0,0,172.8,291l-7.75-4.07a2.5,2.5,0,0,0-2.32,4.42l7.75,4.08a2.54,2.54,0,0,0,1.16.28Z"/><path class="cls-92" d="M257.43,295.7a2.54,2.54,0,0,0,1.16-.28l7.75-4.08a2.5,2.5,0,1,0-2.33-4.42L256.26,291a2.5,2.5,0,0,0,1.17,4.71Z"/><path class="cls-93" d="M139.89,271.57a82.14,82.14,0,0,0,11,41.3,7,7,0,0,0,13-2,79.33,79.33,0,0,0,0-35.62c10.93-3.53,22.5-4.35,34-4.49,1.65,0,3.29,0,4.94,0h2.54l5.43.06c2.5.06,5,.13,7.49.23,1.81.08,3.62.17,5.43.29q3.75.22,7.48.57a159.21,159.21,0,0,1,33.47,6.45,83,83,0,0,0-1,34.77,7,7,0,0,0,12.79,2.63,82,82,0,0,0,12.75-44.21c0-37.6-24.78-69.08-58-77.1a68.45,68.45,0,0,0-7.48-1.37c-1.79-.24-3.6-.41-5.43-.5-1.24-.07-2.49-.1-3.75-.1s-2.5,0-3.74.1c-1.83.09-3.64.26-5.43.5a68.9,68.9,0,0,0-7.48,1.37c-33.2,8-58,39.49-58,77.1"/><path class="cls-70" d="M224,193.1v78.26q3.51.22,7,.57V194.47a60.13,60.13,0,0,0-7-1.37Z"/><path class="cls-70" d="M211,192.6v78.24c2.34.06,4.66.13,7,.23V192.6c-1.16-.07-2.33-.1-3.5-.1s-2.34,0-3.5.1Z"/><path class="cls-70" d="M198,194.47v76.32c1.54,0,3.08,0,4.62,0H205V193.1a60.55,60.55,0,0,0-7,1.37Z"/><path class="cls-94" d="M212.15,509.8a35.39,35.39,0,1,1,35.38-35.39,35.44,35.44,0,0,1-35.38,35.39m18.18-16,1.14.95c.94.77,1.89,1.53,2.85,2.27-.74-1-1.5-1.92-2.27-2.85-.31-.38-.62-.76-.94-1.13a26.57,26.57,0,0,0-37.83-37.33l-.46-.69.3.84a26.72,26.72,0,0,0-6.2,10.12c-.69-.52-1.1-.79-1.1-.79s.33.47.94,1.29a26.58,26.58,0,0,0,43.57,27.32"/><path class="cls-95" d="M212.15,512.3A37.89,37.89,0,1,1,250,474.41a38,38,0,0,1-37.88,37.89m0-73.28a35.39,35.39,0,1,0,35.38,35.39A35.44,35.44,0,0,0,212.15,439"/><path class="cls-88" d="M212.15,501a26.61,26.61,0,0,1-25.39-34.54l.21.28c.75,1,1.83,2.37,3.19,4s3,3.46,4.74,5.4,3.71,3.95,5.69,5.93,4,3.92,5.93,5.69,3.78,3.4,5.4,4.74,3,2.44,4,3.19,1.57,1.15,1.57,1.15-.4-.59-1.15-1.57-1.82-2.38-3.18-4-3-3.45-4.74-5.4-3.72-3.95-5.69-5.93-4-3.91-5.94-5.69-3.77-3.39-5.4-4.73-3-2.45-4-3.19l-.47-.36a26.72,26.72,0,0,1,6.2-10.12l.08.22h0l0,0c1.5,1.91,3.07,3.76,4.65,5.59s3.2,3.63,4.84,5.41,3.31,3.53,5,5.29l5.08,5.17,2.59,2.54c.87.84,1.71,1.7,2.6,2.52,1.76,1.66,3.5,3.34,5.3,4.95.9.81,1.78,1.64,2.7,2.43l2.73,2.39c.56.46,1.1.93,1.65,1.39A26.5,26.5,0,0,1,212.15,501m19-8c-.46-.55-.94-1.1-1.4-1.66l-2.39-2.73c-.79-.92-1.62-1.8-2.43-2.7-1.61-1.8-3.29-3.54-4.95-5.3-.82-.89-1.68-1.73-2.52-2.6l-2.54-2.59-5.17-5.08c-1.76-1.65-3.49-3.34-5.29-5s-3.58-3.26-5.41-4.84-3.68-3.15-5.59-4.65l-.14-.22A26.57,26.57,0,0,1,231.11,493M234,479.52v0c-.81-1.18-1.66-2.33-2.55-3.43s-1.77-2.21-2.71-3.27c-1.85-2.14-3.79-4.18-5.79-6.17s-4.06-3.91-6.21-5.75c-1.08-.92-2.19-1.8-3.3-2.68s-2.27-1.71-3.5-2.48c.77,1.22,1.63,2.36,2.48,3.5s1.76,2.22,2.68,3.3c1.83,2.15,3.75,4.22,5.74,6.22s4,4,6.16,5.8c1.06.93,2.15,1.83,3.27,2.71s2.25,1.74,3.42,2.56h0c.32.17.64.35,1,.51l-.69-.85"/><path class="cls-96" d="M234.64,480.37l-.69-.85v0c-.81-1.18-1.66-2.33-2.55-3.43s-1.77-2.21-2.71-3.27c-1.85-2.14-3.79-4.18-5.79-6.17s-4.06-3.91-6.21-5.75c-1.08-.92-2.19-1.8-3.3-2.68s-2.27-1.71-3.5-2.48c.77,1.22,1.63,2.36,2.48,3.5s1.76,2.22,2.68,3.3c1.83,2.15,3.75,4.22,5.74,6.22s4,4,6.16,5.8c1.06.93,2.15,1.83,3.27,2.71s2.25,1.74,3.42,2.56h0c.32.17.64.35,1,.51"/><path class="cls-97" d="M234.32,497c-1-.74-1.91-1.5-2.85-2.27l-1.14-.95c.27-.25.53-.5.78-.76.32.37.63.75.94,1.13.77.93,1.53,1.89,2.27,2.85m-41.2-41.16-.3-.84.46.69-.16.15"/><path class="cls-96" d="M230.33,493.79c.27-.25.53-.5.78-.76-.46-.55-.94-1.1-1.4-1.66l-2.39-2.73c-.79-.92-1.62-1.8-2.43-2.7-1.61-1.8-3.29-3.54-4.95-5.3-.82-.89-1.68-1.73-2.52-2.6l-2.54-2.59-5.17-5.08c-1.76-1.65-3.49-3.34-5.29-5s-3.58-3.26-5.41-4.84-3.68-3.15-5.59-4.65l-.14-.22-.16.15.08.22h0l0,0c1.5,1.91,3.07,3.76,4.65,5.59s3.2,3.63,4.84,5.41,3.31,3.53,5,5.29l5.08,5.17,2.59,2.54c.87.84,1.71,1.7,2.6,2.52,1.76,1.66,3.5,3.34,5.3,4.95.9.81,1.78,1.64,2.7,2.43l2.73,2.39c.56.46,1.1.93,1.65,1.39"/><path class="cls-97" d="M186.76,466.47c.05-.17.11-.33.16-.5-.69-.52-1.1-.79-1.1-.79s.33.47.94,1.29"/><path class="cls-96" d="M217.47,496.83s-.4-.59-1.15-1.57-1.82-2.38-3.18-4-3-3.45-4.74-5.4-3.72-3.95-5.69-5.93-4-3.91-5.94-5.69-3.77-3.39-5.4-4.73-3-2.45-4-3.19l-.47-.36c0,.17-.11.33-.16.5l.21.28c.75,1,1.83,2.37,3.19,4s3,3.46,4.74,5.4,3.71,3.95,5.69,5.93,4,3.92,5.93,5.69,3.78,3.4,5.4,4.74,3,2.44,4,3.19,1.57,1.15,1.57,1.15"/><path class="cls-98" d="M240,410c-.29-.37-.59-.72-.89-1.09l0,0c-1.05-1.52-2.15-3-3.28-4.42s-2.3-2.84-3.5-4.21c-1.8-2.09-3.68-4.11-5.6-6.08a31.36,31.36,0,0,0-3.62,1.25l.15.71c2.21,2.19,4.47,4.32,6.83,6.36,1.36,1.21,2.77,2.37,4.2,3.51s2.9,2.23,4.42,3.28l0,0c.42.22.82.45,1.25.65"/><path class="cls-99" d="M223.23,396.17l-.15-.71-.39.18.54.53"/><path class="cls-100" d="M222.69,395.64l.39-.18a31.36,31.36,0,0,1,3.62-1.25l-1.86-1.87c-2.57-2.56-5.24-5-8-7.41-1.39-1.18-2.8-2.34-4.25-3.45-.74-.55-1.46-1.11-2.21-1.64s-1.51-1.07-2.3-1.56c.5.79,1,1.54,1.56,2.29s1.09,1.48,1.64,2.22c1.11,1.45,2.27,2.86,3.45,4.25q3.56,4.15,7.39,8l.58.58"/><path class="cls-98" d="M239.54,431.44c-2.49-1.9-4.88-3.93-7.26-5.94l-3.53-3.08c-1.18-1-2.31-2.09-3.47-3.13s-2.57-2.35-3.83-3.54l1.37-3.5c1.54,1.63,3.08,3.25,4.57,4.93,1,1.16,2.11,2.29,3.13,3.47l3.08,3.52c2,2.39,4,4.77,5.94,7.27m-34.46-31.85c-1.9-2-3.83-4-5.71-6.08a33.61,33.61,0,0,1,6.53,1.92l-.82,4.16"/><path class="cls-99" d="M221.45,415.75l1.37-3.5L221,410.34c-1.06-1.14-2.16-2.24-3.24-3.36l-3.28-3.32q-3.3-3.32-6.66-6.55l-1.66-1.56-.27-.12-.82,4.16a.86.86,0,0,1,.13.14c2.17,2.23,4.35,4.46,6.55,6.66l3.32,3.28c1.13,1.08,2.23,2.18,3.37,3.24l3,2.84"/><path class="cls-100" d="M206.17,395.55c-1.71-1.62-3.41-3.25-5.15-4.84l-3.46-3.14L194,384.48c-1.17-1-2.38-2-3.56-3s-2.41-2-3.64-3l-.78-1.17.49,1.37h0l0,0c1,1.23,2,2.44,3,3.64s2,2.4,3,3.57l3.09,3.51,3.15,3.46.55.6a33.61,33.61,0,0,1,6.53,1.92l.27.12"/><path class="cls-98" d="M217.83,431.21l-.15-.23-.2,0,.35.25"/><path class="cls-98" d="M217.68,431l-.2,0c-.32-.23-.85-.61-1.55-1.14l.31-.79.11.15c.66.87,1.11,1.49,1.33,1.8m-6.26-4.36-1.21-1c-1-.87-2.16-1.82-3.32-2.85s-2.4-2.11-3.64-3.26c-2.49-2.29-5.09-4.79-7.64-7.33s-5-5.16-7.33-7.65c-1.15-1.24-2.23-2.47-3.25-3.64s-2-2.28-2.86-3.32-1.53-1.85-2.18-2.66V393c1.07.84,2.34,1.86,3.74,3,1,.87,2.17,1.81,3.32,2.85s2.4,2.1,3.64,3.25c2.49,2.29,5.09,4.79,7.64,7.33s5,5.16,7.34,7.65c1.15,1.24,2.22,2.47,3.25,3.63l.31.35,2.18,5.55"/><path class="cls-101" d="M180,395v-2l-1.39-1.07c-1.27-1-2-1.48-2-1.48s.52.75,1.49,2c.52.68,1.16,1.52,1.92,2.47"/><path class="cls-99" d="M215.93,429.82l.31-.79c-1-1.25-2.31-3-4-5-.78-.94-1.62-1.94-2.54-3l2.18,5.55c1.56,1.29,2.91,2.33,3.93,3.1l.12.1"/><path class="cls-102" d="M246.75,298l-.26-.32h0a36.7,36.7,0,0,0-4.17-4.86c-.76-.74-1.54-1.48-2.35-2.17a23.76,23.76,0,0,0-2.57-1.95,25.9,25.9,0,0,0,2,2.57c.69.81,1.42,1.59,2.17,2.35a36.68,36.68,0,0,0,4.85,4.18h0l.36.19"/><path class="cls-102" d="M246.53,304.33a96.28,96.28,0,0,0-7.34-8.14,99.71,99.71,0,0,0-8.11-7.38l-.22-.34.14.4h0a101.26,101.26,0,0,0,7.38,8.1,94.7,94.7,0,0,0,8.14,7.35"/><path class="cls-102" d="M198.93,298l-.26-.32h0a36.7,36.7,0,0,0-4.17-4.86c-.76-.74-1.54-1.48-2.35-2.17a23.76,23.76,0,0,0-2.57-1.95,25.9,25.9,0,0,0,1.95,2.57c.69.81,1.42,1.59,2.17,2.35a36.68,36.68,0,0,0,4.85,4.18h0l.36.19"/><path class="cls-102" d="M198.81,304.33a94.59,94.59,0,0,0-7.34-8.14,101.26,101.26,0,0,0-8.1-7.38l-.23-.34.15.4h0a101.14,101.14,0,0,0,7.37,8.1,96.22,96.22,0,0,0,8.14,7.35"/><path class="cls-76" d="M136.58,334.23c.64,3.24-1.79,6.82-5.79,8.3s-8.16.31-9.78-2.57l15.57-5.73Z"/><path class="cls-103" d="M51,280.53A205.35,205.35,0,0,1,75.58,217a53.76,53.76,0,0,0-22.64,29.66c-3.39,11.12-3.16,22.59-2,33.87"/><path class="cls-104" d="M144.94,266.29a258.15,258.15,0,0,1,32.91-56.68c-10.09,5.14-17.81,14.21-22.95,24.31s-7.89,21.23-10,32.37"/><path class="cls-104" d="M269.29,250.56a6.53,6.53,0,0,0,3.21-.8c5.06-2.8,5.24-12.17.39-20.93-3.91-7.07-9.9-11.58-14.73-11.58a6.49,6.49,0,0,0-3.2.79c-5.07,2.8-5.24,12.17-.4,20.93,3.91,7.07,9.91,11.59,14.73,11.59"/></svg>