<svg xmlns="http://www.w3.org/2000/svg" xmlns:xlink="http://www.w3.org/1999/xlink" viewBox="0 0 605.28 605.28"><defs><style>.cls-1,.cls-2{fill:none;}.cls-2,.cls-3,.cls-4,.cls-5,.cls-6,.cls-7,.cls-8{clip-rule:evenodd;}.cls-3,.cls-39,.cls-41{fill:#f0b474;}.cls-4,.cls-42,.cls-44{fill:#ad6a3c;}.cls-45,.cls-47,.cls-5{fill:#389efe;}.cls-48,.cls-50,.cls-6{fill:#e75d3a;}.cls-51,.cls-53,.cls-7{fill:#81fcb9;}.cls-54,.cls-56,.cls-8{fill:#81b652;}.cls-9{clip-path:url(#clip-path);}.cls-10{isolation:isolate;}.cls-11{clip-path:url(#clip-path-2);}.cls-12{fill:#eda75e;}.cls-13{clip-path:url(#clip-path-5);}.cls-14{fill:#e88e30;}.cls-15{clip-path:url(#clip-path-7);}.cls-16{fill:#3e5a27;}.cls-17{clip-path:url(#clip-path-8);}.cls-18{fill:#70a043;}.cls-19{clip-path:url(#clip-path-9);}.cls-20{fill:#253616;}.cls-21{clip-path:url(#clip-path-10);}.cls-22{fill:#bdd8a4;}.cls-23{clip-path:url(#clip-path-11);}.cls-24{fill:#d7e7c8;}.cls-25{clip-path:url(#clip-path-12);}.cls-26{fill:#a3c980;}.cls-27{clip-path:url(#clip-path-13);}.cls-28{clip-path:url(#clip-path-14);}.cls-29{clip-path:url(#clip-path-15);}.cls-30{clip-path:url(#clip-path-16);}.cls-31{clip-path:url(#clip-path-17);}.cls-32{clip-path:url(#clip-path-18);}.cls-33{fill:#88ba5e;}.cls-34{clip-path:url(#clip-path-19);}.cls-35{fill:#e7f1de;}.cls-36{clip-path:url(#clip-path-20);}.cls-37{clip-path:url(#clip-path-21);}.cls-38{clip-path:url(#clip-path-22);}.cls-39,.cls-42,.cls-45,.cls-48,.cls-51,.cls-54{fill-rule:evenodd;}.cls-40{clip-path:url(#clip-path-23);}.cls-43{clip-path:url(#clip-path-24);}.cls-46{clip-path:url(#clip-path-25);}.cls-49{clip-path:url(#clip-path-26);}.cls-52{clip-path:url(#clip-path-27);}.cls-55{clip-path:url(#clip-path-28);}</style><clipPath id="clip-path"><rect class="cls-1" x="5.06" y="5" width="595.22" height="595.28"/></clipPath><clipPath id="clip-path-2"><rect class="cls-1" x="5" y="4.28" width="596" height="596"/></clipPath><clipPath id="clip-path-5"><path class="cls-2" d="M75.42,600.28H5V397.38l166.84-91.2,1.67,1.14V493.41a4,4,0,0,0,1.17,2.83l26,26a4,4,0,0,0,2.83,1.17h.25a4,4,0,0,0,2.9-1.53l6.18-7.91,95.4-55.72,2.62,3.11L75.42,600.28"/></clipPath><clipPath id="clip-path-7"><polyline class="cls-2" points="404.24 99.75 279.44 85.85 147.78 262.66 147.78 284.85 177.51 305.21 177.51 493.41 203.48 519.43 401.8 265.37 401.8 137.73 457.5 121.58 404.24 99.75"/></clipPath><clipPath id="clip-path-8"><path class="cls-2" d="M177.51,300.37l-25.73-17.63V264L275.58,97.73,207.31,243.67l-29.8,40v16.68m25.61,213-21.61-21.64V305.21a4,4,0,0,0-.28-1.47l22.25-12.85v222l-.36.47"/></clipPath><clipPath id="clip-path-9"><path class="cls-2" d="M203.48,523.43a4,4,0,0,1-2.83-1.17l-26-26a4,4,0,0,1-1.17-2.83V307.32l-28-19.17a4,4,0,0,1-1.74-3.3V262.66a4,4,0,0,1,.79-2.39L276.23,83.46a4,4,0,0,1,3.65-1.58L404.69,95.77a4,4,0,0,1,1.07.28L459,117.87a4,4,0,0,1-.4,7.55L405.8,140.73V265.37a4,4,0,0,1-.85,2.46L206.63,521.89a4,4,0,0,1-2.9,1.53h-.25m-22-31.67,21.61,21.64L397.8,264V137.73a4,4,0,0,1,2.88-3.84l44.69-13-42.13-17.27-122-13.58L151.78,264v18.76l28,19.18a4,4,0,0,1,1.74,3.29V491.76"/></clipPath><clipPath id="clip-path-10"><polyline class="cls-2" points="457.5 121.58 309.17 106.89 177.51 283.69 177.51 305.88 203.48 290.89 203.48 519.43 431.53 386.24 431.53 158.76 457.5 143.76 457.5 121.58"/></clipPath><clipPath id="clip-path-11"><polyline class="cls-2" points="443.14 150.73 443.14 128.91 320.61 116.77 323.59 112.77 316.22 107.81 455.21 121.58 455.21 143.76 443.14 150.73"/></clipPath><clipPath id="clip-path-12"><polyline class="cls-2" points="303.1 115.04 300.97 114.83 306.88 106.89 309.01 107.1 303.1 115.04"/></clipPath><clipPath id="clip-path-13"><polyline class="cls-2" points="304.23 115.15 303.1 115.04 309.01 107.1 310.14 107.21 304.23 115.15"/></clipPath><clipPath id="clip-path-14"><polyline class="cls-2" points="417.17 393.29 417.17 166.09 429.24 159.13 429.24 386.24 417.17 393.29"/></clipPath><clipPath id="clip-path-15"><polyline class="cls-2" points="206.18 517.43 206.18 288.89 180.21 303.88 180.21 281.69 304.23 115.15 320.61 116.77 202.45 275.44 202.45 277.91 228.42 262.91 228.42 504.44 206.18 517.43"/></clipPath><clipPath id="clip-path-16"><polyline class="cls-2" points="315.82 107.54 310.3 107 311.87 104.89 315.82 107.54"/></clipPath><clipPath id="clip-path-17"><polyline class="cls-2" points="316.22 107.81 310.14 107.21 310.3 107 315.82 107.54 316.22 107.81"/></clipPath><clipPath id="clip-path-18"><polyline class="cls-2" points="320.61 116.77 304.23 115.15 310.14 107.21 316.22 107.81 323.59 112.77 320.61 116.77"/></clipPath><clipPath id="clip-path-19"><polyline class="cls-2" points="457.5 143.32 457.5 143.19 460.2 141.63 460.2 141.76 457.5 143.32"/></clipPath><clipPath id="clip-path-20"><polyline class="cls-2" points="456.46 143.92 456.46 143.79 457.5 143.19 457.5 143.32 456.46 143.92"/></clipPath><clipPath id="clip-path-21"><path class="cls-2" d="M203.48,523.43a4,4,0,0,1-4-4V297.81l-20,11.54a4,4,0,0,1-6-3.47V283.69a4,4,0,0,1,.79-2.39L306,104.49a4,4,0,0,1,3.61-1.59L457.9,117.59a4,4,0,0,1,3.6,4v22.2a4,4,0,0,1-2,3.46l-24,13.84V386.24a4,4,0,0,1-2,3.46l-228,133.19A4,4,0,0,1,203.48,523.43Zm0-236.54a4.07,4.07,0,0,1,2,.53,4,4,0,0,1,2,3.47V512.46L427.53,384V158.76a4,4,0,0,1,2-3.46l24-13.85V125.2L311,111.09,181.51,285V299l20-11.53A4.07,4.07,0,0,1,203.48,286.89Z"/></clipPath><clipPath id="clip-path-22"><path class="cls-2" d="M177.5,287.69a4,4,0,0,1-2.3-.73l-29.73-21a4,4,0,1,1,4.62-6.53l29.73,21a4,4,0,0,1-2.32,7.26"/></clipPath><clipPath id="clip-path-23"><polyline class="cls-3" points="252.95 466.98 271.69 456.16 271.69 407.94 252.95 418.76 252.95 466.98"/></clipPath><clipPath id="clip-path-24"><polyline class="cls-4" points="281.89 450.27 300.63 439.45 300.63 380.88 281.89 391.7 281.89 450.27"/></clipPath><clipPath id="clip-path-25"><polyline class="cls-5" points="310.83 433.56 329.58 422.74 329.58 345.07 310.83 355.89 310.83 433.56"/></clipPath><clipPath id="clip-path-26"><polyline class="cls-6" points="339.78 416.85 358.52 406.03 358.52 298.64 339.78 309.46 339.78 416.85"/></clipPath><clipPath id="clip-path-27"><polyline class="cls-7" points="368.72 400.14 387.46 389.32 387.46 233.98 368.72 244.8 368.72 400.14"/></clipPath><clipPath id="clip-path-28"><path class="cls-8" d="M393.31,192.91c-5.22-12.25-8.33-33-9.19-50-7.9,18.58-19.75,42-30.38,57.1l14.53-9.5a522.69,522.69,0,0,1-47.76,116c-22.46,39.72-46.46,68.31-67.56,80.49v17.54c24.34-14.05,51.45-46,76.32-90a558.2,558.2,0,0,0,51.78-126.69l12.26,5"/></clipPath></defs><title>Guaranteed Rent</title><g id="Layer_2" data-name="Layer 2"><g id="Layer_1-2" data-name="Layer 1"><g class="cls-9"><g class="cls-10"><g class="cls-11"><g class="cls-9"><g class="cls-11"><rect class="cls-12" x="0.06" width="605.22" height="605.28"/></g></g><g class="cls-13"><g class="cls-11"><rect class="cls-14" y="301.18" width="315.83" height="304.1"/></g></g></g></g></g><g class="cls-15"><rect class="cls-16" x="142.78" y="80.85" width="319.72" height="443.58"/></g><g class="cls-17"><rect class="cls-18" x="146.78" y="92.73" width="133.81" height="425.67"/></g><g class="cls-19"><rect class="cls-20" x="138.78" y="76.85" width="327.72" height="451.58"/></g><g class="cls-21"><rect class="cls-22" x="172.51" y="101.89" width="289.99" height="422.55"/></g><g class="cls-23"><rect class="cls-24" x="311.22" y="102.81" width="149" height="52.92"/></g><g class="cls-25"><rect class="cls-26" x="295.97" y="101.89" width="18.05" height="18.15"/></g><g class="cls-27"><rect class="cls-24" x="298.1" y="102.1" width="17.04" height="18.05"/></g><g class="cls-28"><rect class="cls-24" x="412.17" y="154.13" width="22.07" height="244.17"/></g><g class="cls-29"><rect class="cls-24" x="175.21" y="110.15" width="150.4" height="412.28"/></g><g class="cls-30"><rect class="cls-26" x="305.3" y="99.89" width="15.52" height="12.66"/></g><g class="cls-31"><rect class="cls-24" x="305.14" y="102" width="16.08" height="10.81"/></g><g class="cls-32"><rect class="cls-33" x="299.23" y="102.21" width="29.36" height="19.56"/></g><g class="cls-34"><rect class="cls-35" x="452.5" y="136.63" width="12.7" height="11.69"/></g><g class="cls-36"><rect class="cls-24" x="451.46" y="138.19" width="11.04" height="10.73"/></g><g class="cls-37"><rect class="cls-20" x="168.51" y="97.88" width="297.99" height="430.55"/></g><g class="cls-38"><rect class="cls-20" x="138.78" y="253.66" width="47.73" height="39.03"/></g><polyline class="cls-39" points="252.95 466.98 271.69 456.16 271.69 407.94 252.95 418.76 252.95 466.98"/><g class="cls-40"><rect class="cls-41" x="247.95" y="402.94" width="28.74" height="69.04"/></g><polyline class="cls-42" points="281.89 450.27 300.63 439.45 300.63 380.88 281.89 391.7 281.89 450.27"/><g class="cls-43"><rect class="cls-44" x="276.89" y="375.88" width="28.74" height="79.39"/></g><polyline class="cls-45" points="310.83 433.56 329.58 422.74 329.58 345.07 310.83 355.89 310.83 433.56"/><g class="cls-46"><rect class="cls-47" x="305.83" y="340.07" width="28.74" height="98.49"/></g><polyline class="cls-48" points="339.78 416.85 358.52 406.03 358.52 298.64 339.78 309.46 339.78 416.85"/><g class="cls-49"><rect class="cls-50" x="334.78" y="293.64" width="28.74" height="128.21"/></g><polyline class="cls-51" points="368.72 400.14 387.46 389.32 387.46 233.98 368.72 244.8 368.72 400.14"/><g class="cls-52"><rect class="cls-53" x="363.72" y="228.98" width="28.74" height="176.16"/></g><path class="cls-54" d="M393.31,192.91c-5.22-12.25-8.33-33-9.19-50-7.9,18.58-19.75,42-30.38,57.1l14.53-9.5a522.69,522.69,0,0,1-47.76,116c-22.46,39.72-46.46,68.31-67.56,80.49v17.54c24.34-14.05,51.45-46,76.32-90a558.2,558.2,0,0,0,51.78-126.69l12.26,5"/><g class="cls-55"><rect class="cls-56" x="247.95" y="137.94" width="150.36" height="271.67"/></g></g></g></svg>