<svg xmlns="http://www.w3.org/2000/svg" xmlns:xlink="http://www.w3.org/1999/xlink" viewBox="0 0 605.28 605.28"><defs><style>.cls-1,.cls-2{fill:none;}.cls-2,.cls-4{clip-rule:evenodd;}.cls-3{fill:#e55732;}.cls-11,.cls-4,.cls-5{fill:#cc3e18;}.cls-6{clip-path:url(#clip-path);}.cls-7{isolation:isolate;}.cls-8{clip-path:url(#clip-path-2);}.cls-9{clip-path:url(#clip-path-3);}.cls-10{clip-path:url(#clip-path-4);}.cls-11{fill-rule:evenodd;}.cls-12{clip-path:url(#clip-path-5);}.cls-13{clip-path:url(#clip-path-6);}.cls-14{clip-path:url(#clip-path-7);}.cls-15{fill:#ad6a3c;}.cls-16{clip-path:url(#clip-path-8);}.cls-17{fill:#e75d3a;}.cls-18{clip-path:url(#clip-path-9);}.cls-19{fill:#004361;}.cls-20{clip-path:url(#clip-path-10);}.cls-21{fill:#389efe;}.cls-22{clip-path:url(#clip-path-11);}.cls-23{fill:#03a84e;}.cls-24{clip-path:url(#clip-path-12);}.cls-25{clip-path:url(#clip-path-13);}.cls-26{fill:#f0b474;}.cls-27{clip-path:url(#clip-path-14);}.cls-28{fill:#81b652;}.cls-29{clip-path:url(#clip-path-15);}.cls-30{clip-path:url(#clip-path-16);}.cls-31{clip-path:url(#clip-path-17);}.cls-32{clip-path:url(#clip-path-18);}.cls-33{clip-path:url(#clip-path-19);}.cls-34{clip-path:url(#clip-path-20);}.cls-35{clip-path:url(#clip-path-21);}.cls-36{clip-path:url(#clip-path-22);}.cls-37{fill:#003b56;}.cls-38{clip-path:url(#clip-path-23);}.cls-39{clip-path:url(#clip-path-24);}.cls-40{fill:#a0b5c4;}.cls-41{clip-path:url(#clip-path-25);}.cls-42{fill:#4f788f;}.cls-43{clip-path:url(#clip-path-26);}.cls-44{clip-path:url(#clip-path-27);}.cls-45{fill:#162e45;}.cls-46{clip-path:url(#clip-path-28);}.cls-47{clip-path:url(#clip-path-29);}.cls-48{clip-path:url(#clip-path-30);}.cls-49{clip-path:url(#clip-path-31);}.cls-50{clip-path:url(#clip-path-32);}.cls-51{clip-path:url(#clip-path-33);}.cls-52{clip-path:url(#clip-path-34);}.cls-53{clip-path:url(#clip-path-35);}</style><clipPath id="clip-path"><rect class="cls-1" x="5.06" y="5" width="595.22" height="595.28"/></clipPath><clipPath id="clip-path-2"><rect class="cls-1" x="5" y="4.28" width="596" height="597"/></clipPath><clipPath id="clip-path-3"><rect class="cls-3" x="5.06" y="5" width="595.22" height="595.28"/></clipPath><clipPath id="clip-path-4"><rect class="cls-3" x="5" y="4.28" width="596" height="596"/></clipPath><clipPath id="clip-path-5"><path class="cls-4" d="M320.64,503.21V403.68l115.93-67.37v1.11l7.57-5.5,2.48-1.44-126,172.73M163.42,600.28H5V397.38l122.42-66.92v20.3a4,4,0,0,0,1.73,3.3l26.27,18v86.59a4,4,0,0,0,1.17,2.82L181.06,486a4,4,0,0,0,5.24.37L206.6,471l.13-.07v0l5.83-4.41,21.69-12.61v56.74a4,4,0,0,0,2,3.47l39.2,22.63a4,4,0,0,0,2,.54,4.15,4.15,0,0,0,1.34-.23L163.42,600.28"/></clipPath><clipPath id="clip-path-6"><rect class="cls-5" x="5" y="4.28" width="596" height="596"/></clipPath><clipPath id="clip-path-7"><polyline class="cls-2" points="316.64 510.63 277.45 487.99 238.25 94.66 277.45 72.03 316.64 94.66 316.64 510.63"/></clipPath><clipPath id="clip-path-8"><polyline class="cls-2" points="265.14 105.57 246.25 94.66 277.45 76.64 278.05 76.99 265.14 105.57"/></clipPath><clipPath id="clip-path-9"><path class="cls-2" d="M316.64,514.62a4,4,0,0,1-2-.53l-39.19-22.63a4,4,0,0,1-2-3.07L234.27,95.05a4,4,0,0,1,2-3.86l39.2-22.63a4,4,0,0,1,4,0l39.19,22.63a4,4,0,0,1,2,3.47v416a4,4,0,0,1-2,3.47,4,4,0,0,1-2,.53m-35.42-29.06,31.42,18.14V97L277.45,76.65l-35,20.18,38.73,388.73"/></clipPath><clipPath id="clip-path-10"><polyline class="cls-2" points="277.45 533.26 316.64 510.63 316.64 94.66 277.45 117.29 277.45 533.26"/></clipPath><clipPath id="clip-path-11"><path class="cls-2" d="M312.64,139.82l-10-.34V107.36l10-5.78v38.24m-10,374.27v-100l10-5.81v100l-10,5.77"/></clipPath><clipPath id="clip-path-12"><path class="cls-2" d="M277.45,537.26a4,4,0,0,1-4-4v-416a4,4,0,0,1,2-3.47l39.19-22.63a4,4,0,0,1,6,3.47v416a4,4,0,0,1-2,3.47l-39.19,22.63a4,4,0,0,1-2,.54m4-417.66V526.33l31.19-18V101.58l-31.19,18"/></clipPath><clipPath id="clip-path-13"><polyline class="cls-2" points="277.45 533.26 238.25 510.63 238.25 94.66 277.45 117.29 277.45 533.26"/></clipPath><clipPath id="clip-path-14"><path class="cls-2" d="M242.25,191.93V101.58l16.61,9.59v61l-16.61,19.74m16.61,326-16.61-9.58V449.23l16.61-9.65V517.9"/></clipPath><clipPath id="clip-path-15"><path class="cls-2" d="M277.45,537.26a4,4,0,0,1-2-.54l-39.2-22.63a4,4,0,0,1-2-3.47v-416a4,4,0,0,1,6-3.47l39.2,22.63a4,4,0,0,1,2,3.47v416a4,4,0,0,1-4,4m-35.2-28.94,31.2,18V119.6l-31.2-18V508.32"/></clipPath><clipPath id="clip-path-16"><polyline class="cls-2" points="423.69 147.57 288.64 143.01 131.41 329.86 131.41 350.76 159.42 369.94 159.42 458.64 183.89 483.15 421.39 303.59 421.39 183.34 473.87 168.13 423.69 147.57"/></clipPath><clipPath id="clip-path-17"><path class="cls-2" d="M159.42,365.1l-24-16.45V331.32l140-166.4-116,184.75V365.1m11.66,99.55L163.42,457V370a4,4,0,0,0-.29-1.51l7.16-4.14,1,1.37-.23,99"/></clipPath><clipPath id="clip-path-18"><path class="cls-2" d="M183.89,487.15a4,4,0,0,1-2.83-1.18l-24.47-24.51a4,4,0,0,1-1.17-2.82V372.05l-26.27-18a4,4,0,0,1-1.73-3.3v-20.9a4,4,0,0,1,.94-2.58L285.58,140.44a3.91,3.91,0,0,1,3.19-1.42l135.06,4.55a4.1,4.1,0,0,1,1.38.29l50.17,20.57A4,4,0,0,1,475,172l-49.59,14.38V303.59a4,4,0,0,1-1.59,3.19L186.3,486.34a4,4,0,0,1-2.41.81M163.42,457l20.84,20.87L417.39,301.6V183.34a4,4,0,0,1,2.88-3.84l41.47-12-38.9-15.94-132.39-4.46-155,184.24v17.33l26.27,18a4,4,0,0,1,1.74,3.3v87"/></clipPath><clipPath id="clip-path-19"><polyline class="cls-2" points="473.87 168.13 316.64 162.83 159.42 349.67 159.42 370.57 183.89 356.45 183.89 483.15 449.39 328.86 449.39 203.16 473.87 189.03 473.87 168.13"/></clipPath><clipPath id="clip-path-20"><polyline class="cls-2" points="206.3 300.91 206.3 300.4 316.64 165.17 473.87 170.47 322.06 179.92 206.3 300.91"/></clipPath><clipPath id="clip-path-21"><polyline class="cls-2" points="281.45 514.34 281.45 426.45 302.64 414.14 281.45 514.34"/></clipPath><clipPath id="clip-path-22"><polyline class="cls-2" points="277.45 533.26 279.06 427.84 281.45 426.45 281.45 514.34 277.45 533.26"/></clipPath><clipPath id="clip-path-23"><polyline class="cls-2" points="279.06 427.84 279.06 427.59 302.64 414.14 279.06 427.84"/></clipPath><clipPath id="clip-path-24"><polyline class="cls-2" points="206.6 470.99 206.73 470.89 206.73 470.92 206.6 470.99"/></clipPath><clipPath id="clip-path-25"><polyline class="cls-2" points="183.89 483.15 183.89 483.15 206.73 469.88 206.73 470.89 206.6 470.99 183.89 483.15"/></clipPath><clipPath id="clip-path-26"><polyline class="cls-2" points="183.89 483.15 183.89 356.45 159.42 370.57 159.42 349.67 206.28 293.99 206.3 300.4 203.5 303.83 206.3 300.91 206.73 469.88 183.89 483.15"/></clipPath><clipPath id="clip-path-27"><polyline class="cls-2" points="203.5 303.83 206.3 300.4 206.3 300.91 203.5 303.83"/></clipPath><clipPath id="clip-path-28"><polyline class="cls-2" points="436.56 337.42 436.57 336.31 444.13 331.92 436.56 337.42"/></clipPath><clipPath id="clip-path-29"><polyline class="cls-2" points="436.57 336.31 437.06 192.42 471.64 174.17 471.64 189.88 447.17 204 447.17 329.7 444.13 331.92 436.57 336.31"/></clipPath><clipPath id="clip-path-30"><path class="cls-2" d="M183.89,487.15a3.92,3.92,0,0,1-2-.54,4,4,0,0,1-2-3.46V363.38L161.42,374a4,4,0,0,1-6-3.47v-20.9a4,4,0,0,1,.94-2.57L313.58,160.25a4,4,0,0,1,3.2-1.42L474,164.13a4,4,0,0,1,3.86,4V189a4,4,0,0,1-2,3.47l-22.47,13V328.86a4,4,0,0,1-2,3.46L185.9,486.6A3.9,3.9,0,0,1,183.89,487.15Zm0-134.7a4.07,4.07,0,0,1,2,.53,4,4,0,0,1,2,3.47V476.19l257.5-149.63V203.16a4,4,0,0,1,2-3.47l22.47-13V172l-151.41-5.1-155,184.24v12.52L181.89,353A4.07,4.07,0,0,1,183.89,352.45Z"/></clipPath><clipPath id="clip-path-31"><path class="cls-2" d="M159.42,353.67a4,4,0,0,1-2.31-.73l-28-19.82a4,4,0,1,1,4.62-6.53l28,19.82a4,4,0,0,1-2.31,7.26"/></clipPath><clipPath id="clip-path-32"><path class="cls-2" d="M213.83,340.42A124.83,124.83,0,0,1,231,328.62c9.54-5.51,15.69-6.73,20-4,3.49,2.08,5.43,7.25,5.43,14.36,0,12.17-5.74,23.56-13,31v.41c5.33-.62,8.51,4.11,10.15,12.74,2.26,11.55,3.9,19.49,5.34,22.21l-9.23,5.33c-1.13-1.94-2.67-9-4.62-19.35-2-11.53-5.74-14.18-13.85-9.92l-8.4,4.86v39.93l-8.93,5.15Zm8.93,36.83,9.12-5.27a31.26,31.26,0,0,0,15.59-26.5c0-11.9-6.46-13.36-15.9-8.05a50.09,50.09,0,0,0-8.81,6.18Z"/></clipPath><clipPath id="clip-path-33"><polyline class="cls-2" points="304.8 335.63 277.93 351.14 277.93 384.37 307.88 367.08 307.88 377.06 269.01 399.5 269.01 307.34 306.34 285.78 306.34 295.77 277.93 312.17 277.93 341.29 304.8 325.78 304.8 335.63"/></clipPath><clipPath id="clip-path-34"><path class="cls-2" d="M319.47,370.37V278.2l9.74-5.62,22.15,33.84a151.57,151.57,0,0,1,12.41,22.78L364,329c-.82-11.84-1-22.93-1-37.29V253.1l8.41-4.86v92.17l-9,5.21-21.95-34.09a168.23,168.23,0,0,1-12.92-23.31l-.31.31c.51,11.33.72,22.29.72,37.6v39.39l-8.41,4.85"/></clipPath><clipPath id="clip-path-35"><polyline class="cls-2" points="400.08 241.78 379.05 253.92 379.05 243.8 430.23 214.26 430.23 224.38 409.1 236.57 409.1 318.62 400.08 323.83 400.08 241.78"/></clipPath></defs><title>Lettings</title><g id="Layer_2" data-name="Layer 2"><g id="Layer_1-2" data-name="Layer 1"><g class="cls-6"><g class="cls-7"><g class="cls-8"><rect class="cls-3" x="5.06" y="5" width="595.22" height="595.28"/><g class="cls-9"><rect class="cls-3" x="5" y="4.28" width="596" height="596"/><g class="cls-10"><rect class="cls-3" x="0.06" width="605.22" height="605.28"/></g></g><path class="cls-11" d="M320.64,503.21V403.68l115.93-67.37v1.11l7.57-5.5,2.48-1.44-126,172.73M163.42,600.28H5V397.38l122.42-66.92v20.3a4,4,0,0,0,1.73,3.3l26.27,18v86.59a4,4,0,0,0,1.17,2.82L181.06,486a4,4,0,0,0,5.24.37L206.6,471l.13-.07v0l5.83-4.41,21.69-12.61v56.74a4,4,0,0,0,2,3.47l39.2,22.63a4,4,0,0,0,2,.54,4.15,4.15,0,0,0,1.34-.23L163.42,600.28"/><g class="cls-12"><rect class="cls-5" x="5" y="4.28" width="596" height="596"/><g class="cls-13"><rect class="cls-5" y="325.46" width="451.61" height="279.82"/></g></g></g></g></g><g class="cls-14"><rect class="cls-15" x="233.25" y="67.03" width="88.4" height="448.6"/></g><g class="cls-16"><rect class="cls-17" x="241.25" y="71.65" width="41.8" height="38.92"/></g><g class="cls-18"><rect class="cls-19" x="229.25" y="63.03" width="96.4" height="456.6"/></g><g class="cls-20"><rect class="cls-21" x="272.45" y="89.66" width="49.2" height="448.6"/></g><g class="cls-22"><rect class="cls-23" x="297.64" y="96.58" width="20" height="422.51"/></g><g class="cls-24"><rect class="cls-19" x="268.45" y="85.66" width="57.2" height="456.6"/></g><g class="cls-25"><rect class="cls-26" x="233.25" y="89.66" width="49.2" height="448.6"/></g><g class="cls-27"><rect class="cls-28" x="237.25" y="96.58" width="26.61" height="426.32"/></g><g class="cls-29"><rect class="cls-19" x="229.25" y="85.66" width="57.2" height="456.6"/></g><g class="cls-30"><rect class="cls-15" x="126.42" y="138.01" width="352.45" height="350.13"/></g><g class="cls-31"><rect class="cls-17" x="130.42" y="159.92" width="150.02" height="309.73"/></g><g class="cls-32"><rect class="cls-19" x="122.42" y="134.01" width="360.45" height="358.14"/></g><g class="cls-33"><rect class="cls-21" x="154.42" y="157.83" width="324.44" height="330.32"/></g><g class="cls-34"><rect x="201.3" y="160.17" width="277.57" height="145.74"/></g><g class="cls-35"><rect x="276.45" y="409.14" width="31.19" height="110.2"/></g><g class="cls-36"><rect class="cls-37" x="272.45" y="421.46" width="14" height="116.8"/></g><g class="cls-38"><rect x="274.06" y="409.14" width="33.58" height="23.7"/></g><g class="cls-39"><rect class="cls-40" x="201.6" y="465.9" width="10.13" height="10.1"/></g><g class="cls-41"><rect class="cls-42" x="178.89" y="464.88" width="32.84" height="23.27"/></g><g class="cls-43"><rect class="cls-23" x="154.42" y="288.98" width="57.3" height="199.16"/></g><g class="cls-44"><rect class="cls-45" x="198.5" y="295.41" width="12.79" height="13.42"/></g><g class="cls-46"><rect class="cls-40" x="431.56" y="326.92" width="17.57" height="15.51"/></g><g class="cls-47"><rect class="cls-23" x="431.57" y="169.17" width="45.08" height="172.14"/></g><g class="cls-48"><rect class="cls-19" x="150.42" y="153.82" width="332.44" height="338.32"/></g><g class="cls-49"><rect class="cls-19" x="122.41" y="320.86" width="46.01" height="37.82"/></g><g class="cls-50"><rect class="cls-19" x="208.83" y="318.21" width="55.02" height="118.15"/></g><g class="cls-51"><rect class="cls-19" x="264.01" y="280.78" width="48.87" height="123.72"/></g><g class="cls-52"><rect class="cls-19" x="314.47" y="243.24" width="61.9" height="132.13"/></g><g class="cls-53"><rect class="cls-19" x="374.05" y="209.26" width="61.18" height="119.58"/></g></g></g></svg>