<svg xmlns="http://www.w3.org/2000/svg" xmlns:xlink="http://www.w3.org/1999/xlink" viewBox="0 0 605.28 605.28"><defs><style>.cls-1,.cls-2{fill:none;}.cls-2{clip-rule:evenodd;}.cls-3{clip-path:url(#clip-path);}.cls-4{isolation:isolate;}.cls-5{clip-path:url(#clip-path-2);}.cls-6{fill:#81b652;}.cls-7{clip-path:url(#clip-path-5);}.cls-8{fill:#73a646;}.cls-9{clip-path:url(#clip-path-7);}.cls-10{fill:#f9dfc4;}.cls-11{clip-path:url(#clip-path-8);}.cls-12{fill:#f8d9b9;}.cls-13{clip-path:url(#clip-path-9);}.cls-14{clip-path:url(#clip-path-10);}.cls-15{clip-path:url(#clip-path-11);}.cls-16{clip-path:url(#clip-path-12);}.cls-17{clip-path:url(#clip-path-13);}.cls-18{fill:#774712;}.cls-19{clip-path:url(#clip-path-14);}.cls-20{fill:#ae9171;}.cls-21{clip-path:url(#clip-path-15);}.cls-22{fill:#da974d;}.cls-23{clip-path:url(#clip-path-16);}.cls-24{fill:#d1c0ae;}.cls-25{clip-path:url(#clip-path-17);}.cls-26{fill:#efaf6c;}.cls-27{clip-path:url(#clip-path-18);}.cls-28{fill:#e88e30;}.cls-29{clip-path:url(#clip-path-19);}.cls-30{fill:#f2c08b;}.cls-31{clip-path:url(#clip-path-20);}.cls-32{clip-path:url(#clip-path-21);}.cls-33{fill:#ce7615;}.cls-34{clip-path:url(#clip-path-22);}.cls-35{clip-path:url(#clip-path-23);}.cls-36{clip-path:url(#clip-path-24);}.cls-37{clip-path:url(#clip-path-25);}.cls-38{clip-path:url(#clip-path-26);}.cls-39{clip-path:url(#clip-path-27);}.cls-40{clip-path:url(#clip-path-28);}.cls-41{clip-path:url(#clip-path-29);}.cls-42{clip-path:url(#clip-path-30);}.cls-43{fill:#eda75e;}.cls-44{clip-path:url(#clip-path-31);}.cls-45{fill:#73410b;}.cls-46{clip-path:url(#clip-path-32);}.cls-47{clip-path:url(#clip-path-33);}.cls-48{clip-path:url(#clip-path-34);}.cls-49{clip-path:url(#clip-path-35);}.cls-50{clip-path:url(#clip-path-36);}.cls-51{clip-path:url(#clip-path-37);}.cls-52{clip-path:url(#clip-path-38);}.cls-53{clip-path:url(#clip-path-39);}.cls-54{fill:#c29766;}.cls-55{clip-path:url(#clip-path-40);}.cls-56{clip-path:url(#clip-path-41);}.cls-57{fill:#a05c10;}.cls-58{clip-path:url(#clip-path-42);}.cls-59{clip-path:url(#clip-path-43);}.cls-60{clip-path:url(#clip-path-44);}</style><clipPath id="clip-path"><rect class="cls-1" x="5.06" y="5" width="595.22" height="595.28"/></clipPath><clipPath id="clip-path-2"><rect class="cls-1" x="5" y="4.28" width="596" height="596"/></clipPath><clipPath id="clip-path-5"><path class="cls-2" d="M239.88,336.83a8.72,8.72,0,0,1-4.23-1.35C228.23,331.2,222,319.05,222,309c0-4.49,1.43-9.75,5.46-9.75a8.77,8.77,0,0,1,4.23,1.35c7.43,4.29,13.7,16.43,13.7,26.52,0,4.5-1.43,9.75-5.47,9.75M367.12,538.46a4,4,0,0,0,.75-1.1l1-2.17,4.57-2.63.26,2.27-6.59,3.63M254.83,600.28H5V397.38l159.05-86.94-12.6,12.05a4,4,0,0,0,.77,6.36l33.66,19.43v93.46a4,4,0,0,0,2,3.46l87.55,50.55a4,4,0,0,0,4,0,4,4,0,0,0,2-3.47V403.45l29.66,17.12a4,4,0,0,0,5.61-5.17L298,376l41.29-12.8V522a4,4,0,0,0,1.81,3.35L362.06,539a4,4,0,0,0,2.19.65,4.65,4.65,0,0,0,.82-.08L254.83,600.28"/></clipPath><clipPath id="clip-path-7"><path class="cls-2" d="M430.13,187.63l20.93-91.21-20.93-13.7L362,69.61,293.85,161.4V266.31L314.79,280l28.52-4.18V522l20.94,13.7,16.41-35.26v-28l22-12.69,20.94-28L402.64,418l-22,12.69V416.47L409.17,400l20.94-28-20.94-13.7-28.51,16.46V254.26l49.47-66.63M362,178.08c-13.11,7.58-23.75-.46-23.75-18s10.64-37.81,23.75-45.38,23.76.46,23.76,18S375.11,170.51,362,178.08"/></clipPath><clipPath id="clip-path-8"><polyline class="cls-2" points="401.6 431.85 401.6 430.18 405.82 427.74 405.82 429.42 401.6 431.85"/></clipPath><clipPath id="clip-path-9"><path class="cls-2" d="M362.76,188.5a20.34,20.34,0,0,1-2.33-5.2,28.41,28.41,0,0,0,3.55-1.75c14.45-8.34,25.76-29.8,25.76-48.86a39.35,39.35,0,0,0-.56-6.76,15.77,15.77,0,0,1,2.75-.34c2.28,3.54,3.59,8.53,3.59,14.68,0,17.49-10.63,37.81-23.75,45.38a19.26,19.26,0,0,1-9,2.85"/></clipPath><clipPath id="clip-path-10"><polyline class="cls-2" points="401.6 375.9 401.6 374.22 403.09 373.36 403.09 366.44 409.04 363 416.02 367.57 401.6 375.9"/></clipPath><clipPath id="clip-path-11"><polyline class="cls-2" points="353.09 523.59 347.31 519.81 347.31 286.27 353.09 287.38 353.09 523.59"/></clipPath><clipPath id="clip-path-12"><polyline class="cls-2" points="303.63 267.93 297.85 264.15 297.85 162.73 363.7 74.01 428.59 86.5 432.09 88.79 371.77 77.18 303.63 168.97 303.63 267.93"/></clipPath><clipPath id="clip-path-13"><path class="cls-2" d="M364.25,539.67a4,4,0,0,1-2.19-.65l-20.94-13.7a4,4,0,0,1-1.81-3.35V280.46L315.37,284a4.06,4.06,0,0,1-2.78-.61l-20.93-13.7a4,4,0,0,1-1.81-3.35V161.4a3.93,3.93,0,0,1,.79-2.38l68.13-91.79a4,4,0,0,1,4-1.55l68.14,13.11a3.91,3.91,0,0,1,1.43.59l20.94,13.69A4,4,0,0,1,455,97.32L434,188.52a3.89,3.89,0,0,1-.68,1.49l-48.68,65.57V367.84l22.51-13a4,4,0,0,1,4.19.11l20.94,13.7a4,4,0,0,1,1,5.74l-20.93,28a4.13,4.13,0,0,1-1.21,1.07l-26.51,15.3v5l16-9.22a4,4,0,0,1,4.19.11l20.94,13.7a4,4,0,0,1,1.74,2.65,4,4,0,0,1-.73,3.09l-20.94,28a4,4,0,0,1-1.2,1.07l-20,11.53v25.67a4.12,4.12,0,0,1-.37,1.69l-16.42,35.26a4,4,0,0,1-2.53,2.16,4.09,4.09,0,0,1-1.09.15m-16.94-19.86,15.26,10,14.09-30.28V472.43a4,4,0,0,1,2-3.46l21.26-12.28,17.9-23.94-15.31-10-19.85,11.46a4,4,0,0,1-6-3.46V416.47a4,4,0,0,1,2-3.46L406.46,397,424.35,373,409,363l-26.38,15.23a4,4,0,0,1-6-3.46V254.26a4,4,0,0,1,.79-2.38l49-66,20.13-87.68-18-11.74L363.7,74l-65.85,88.72V264.15l17.86,11.68,27-4a4,4,0,0,1,3.19.93,4,4,0,0,1,1.39,3v244m5.24-334.88c-11,0-18.32-10-18.32-24.81,0-19.05,11.31-40.51,25.75-48.85a22.91,22.91,0,0,1,11.44-3.38c11,0,18.32,10,18.32,24.8,0,19.06-11.31,40.52-25.76,48.86a22.85,22.85,0,0,1-11.43,3.38m18.87-69A15.09,15.09,0,0,0,364,118.2c-11.79,6.81-21.75,26-21.75,41.92,0,10.22,4,16.81,10.32,16.81a15,15,0,0,0,7.43-2.31c11.8-6.81,21.76-26,21.76-41.93,0-10.21-4.05-16.8-10.32-16.8"/></clipPath><clipPath id="clip-path-14"><path class="cls-2" d="M451.06,201.33V96.42L382.92,83.31,314.79,175.1V280l49.46,9.52V535.67l37.35-21.56v-28l22-12.69v-41.7l-22,12.69V430.17l28.51-16.46V372L401.6,388.47V268l49.46-66.63m-68.14-9.55c-13.12,7.58-23.75-.46-23.75-18S369.8,136,382.92,128.43s23.76.47,23.76,18S396,184.21,382.92,191.78"/></clipPath><clipPath id="clip-path-15"><path class="cls-2" d="M373.49,194.63a13,13,0,0,1-1.78-.12h0c22.83,0,33.19-33.9,34.61-53.43a37,37,0,0,1,.36,5.31c0,17.5-10.64,37.82-23.76,45.39a19,19,0,0,1-9.43,2.85"/></clipPath><clipPath id="clip-path-16"><path class="cls-2" d="M380.14,201.45c-5,0-9.51-1.91-11.51-7.14a23.18,23.18,0,0,0,3.08.2,13,13,0,0,0,1.78.12,19,19,0,0,0,9.43-2.85c13.12-7.57,23.76-27.89,23.76-45.39a37,37,0,0,0-.36-5.31c.37-5.08.13-9.19-.65-11.47,10.16,9.21,12.26,16.43,10.56,31.79-2,18.3-11.4,31.13-24.28,37.17a28.72,28.72,0,0,1-11.81,2.88"/></clipPath><clipPath id="clip-path-17"><polyline class="cls-2" points="373.45 532.55 373.2 530.5 401.6 514.11 401.6 486.13 423.57 473.44 423.57 438.42 425.07 436.43 425.07 474.78 403.09 487.46 403.09 515.44 373.45 532.55"/></clipPath><clipPath id="clip-path-18"><polyline class="cls-2" points="368.88 535.19 370.28 532.19 373.2 530.5 373.45 532.55 368.88 535.19"/></clipPath><clipPath id="clip-path-19"><path class="cls-2" d="M423.58,438.42v-4.49l1.49-.86v3.36l-1.49,2M365.74,537v-2.2l4.54-2.62-1.4,3L365.74,537"/></clipPath><clipPath id="clip-path-20"><polyline class="cls-2" points="365.74 534.81 365.74 520.56 383.85 510.11 383.85 482.13 405.82 469.44 405.82 444.18 423.57 433.93 423.57 473.44 401.6 486.13 401.6 514.11 365.74 534.81"/></clipPath><clipPath id="clip-path-21"><polyline class="cls-2" points="401.6 374.22 401.6 367.3 403.09 366.44 403.09 373.36 401.6 374.22"/></clipPath><clipPath id="clip-path-22"><polyline class="cls-2" points="401.6 358.06 401.6 267.96 451.06 201.33 451.06 114.3 452.55 107.8 452.55 202.66 403.09 269.29 403.09 357.2 401.6 358.06"/></clipPath><clipPath id="clip-path-23"><path class="cls-2" d="M451.06,114.3V97.47l1.49.29v10l-1.49,6.5m-49.46,253v-9.24l1.49-.86v9.24l-1.49.86"/></clipPath><clipPath id="clip-path-24"><polyline class="cls-2" points="383.85 384.47 383.85 263.96 433.31 197.33 433.31 94.05 451.06 97.47 451.06 201.33 401.6 267.96 401.6 374.22 383.85 384.47"/></clipPath><clipPath id="clip-path-25"><polyline class="cls-2" points="405.82 429.93 405.82 429.42 409.49 427.3 409.9 427.57 405.82 429.93"/></clipPath><clipPath id="clip-path-26"><polyline class="cls-2" points="401.6 430.18 401.6 430.17 408.12 426.41 409.49 427.3 405.82 429.42 405.82 427.74 401.6 430.18"/></clipPath><clipPath id="clip-path-27"><polyline class="cls-2" points="417.67 423.09 415.88 421.93 430.11 413.71 430.11 378.69 431.6 376.69 431.6 415.05 417.67 423.09"/></clipPath><clipPath id="clip-path-28"><path class="cls-2" d="M430.11,378.69V374.2l1.49-.86v3.36l-1.49,2M409.9,427.57l-.41-.27-1.37-.89,7.76-4.48,1.79,1.16-7.77,4.48"/></clipPath><clipPath id="clip-path-29"><polyline class="cls-2" points="383.85 440.43 383.85 426.17 412.36 409.71 412.36 384.45 430.11 374.2 430.11 413.71 401.6 430.17 401.6 430.18 383.85 440.43"/></clipPath><clipPath id="clip-path-30"><path class="cls-2" d="M359.19,175.06c0-.41,0-.82,0-1.24,0-16.89,9.91-36.41,22.41-44.56.09,1,.15,2,.16,3.1-17.16,12.75-22.25,29-22.23,42.53l-.32.17"/></clipPath><clipPath id="clip-path-31"><path class="cls-2" d="M381.74,132.36c0-1.07-.07-2.11-.16-3.1.44-.29.89-.56,1.34-.83a24.4,24.4,0,0,1,4-1.87,9.49,9.49,0,0,1,1.4,1.43,78.08,78.08,0,0,0-6.61,4.37m-21.86,48.76a34,34,0,0,1-.69-6.06l.32-.17a52,52,0,0,0,.37,6.23"/></clipPath><clipPath id="clip-path-32"><path class="cls-2" d="M365.56,198.26c-12.41-5.83-14.8-7.39-18.84-22.31-3.24-12,3.72-32.94,14.26-42.5,4.6-4.17,12.88-8.91,19.62-8.91a9.89,9.89,0,0,1,6.35,2,24.4,24.4,0,0,0-4,1.87c-.45.27-.9.54-1.34.83-12.5,8.15-22.41,27.67-22.41,44.56,0,.42,0,.83,0,1.24a34,34,0,0,0,.69,6.06c.91,7.71,3.36,13.93,5.68,17.14"/></clipPath><clipPath id="clip-path-33"><path class="cls-2" d="M364.25,539.67a4.07,4.07,0,0,1-2-.53,4,4,0,0,1-2-3.47V292.83L314,283.94a4,4,0,0,1-3.24-3.93V175.1a4,4,0,0,1,.78-2.38l68.14-91.8a4,4,0,0,1,4-1.54l68.14,13.11a4,4,0,0,1,3.24,3.93V201.33a4,4,0,0,1-.78,2.38L405.6,269.28V381.54l22.51-13a4,4,0,0,1,6,3.46v41.7a4,4,0,0,1-2,3.47l-26.51,15.3v5l16-9.22a4,4,0,0,1,6,3.46v41.7a4,4,0,0,1-2,3.47l-20,11.53v25.67a4,4,0,0,1-2,3.46l-37.35,21.57A4.07,4.07,0,0,1,364.25,539.67Zm-45.46-263L365,285.6a4,4,0,0,1,3.25,3.93V528.74L397.6,511.8V486.13a4,4,0,0,1,2-3.46l20-11.54V438.67l-16,9.22a4,4,0,0,1-6-3.46V430.17a4,4,0,0,1,2-3.46l26.51-15.31V378.94l-22.51,13a4,4,0,0,1-6-3.46V268a4,4,0,0,1,.79-2.38L447.06,200V99.73l-62.42-12-65.85,88.71Zm54.7-78.08c-11,0-18.32-10-18.32-24.81,0-19,11.31-40.51,25.75-48.85a22.93,22.93,0,0,1,11.44-3.39c11,0,18.32,10,18.32,24.81,0,19.06-11.31,40.52-25.76,48.86A23,23,0,0,1,373.49,198.63Zm18.87-69a15.08,15.08,0,0,0-7.44,2.32c-11.79,6.81-21.75,26-21.75,41.92,0,10.22,4.05,16.81,10.32,16.81a15.06,15.06,0,0,0,7.43-2.31c11.8-6.81,21.76-26,21.76-41.93C402.68,136.18,398.63,129.58,392.36,129.58Z"/></clipPath><clipPath id="clip-path-34"><path class="cls-2" d="M314.78,179.1a4,4,0,0,1-2.18-.65l-20.94-13.7a4,4,0,1,1,4.38-6.69L317,171.76a4,4,0,0,1-2.2,7.34"/></clipPath><clipPath id="clip-path-35"><path class="cls-2" d="M233.65,249.37l-79.43,76L189.88,346v95.77l87.55,50.54V396.52l35.66,20.59L233.65,249.37m0,89.58c-8.66-5-15.69-18.43-15.69-30s7-16.86,15.69-11.86,15.7,18.43,15.7,30-7,16.87-15.7,11.87"/></clipPath><clipPath id="clip-path-36"><path class="cls-2" d="M236,345.41c-6.58,0-19.58-4.8-29.68-23.59-3.64-6.76-4.6-14.51-3-20.54l7.55-7.21a51.59,51.59,0,0,1,5.8,3.55A22,22,0,0,0,214,309c0,13,7.77,27.72,17.69,33.45a16.8,16.8,0,0,0,7.65,2.41,7.65,7.65,0,0,1-3.28.59"/></clipPath><clipPath id="clip-path-37"><path class="cls-2" d="M172.13,331.11l-11.29-6.52,71.57-68.49L238.06,268l-65.93,63.08m35,116-13.28-7.67V346a4,4,0,0,0-.29-1.5l13.57,7.84V447.1"/></clipPath><clipPath id="clip-path-38"><path class="cls-2" d="M277.43,496.28a4.07,4.07,0,0,1-2-.53L187.88,445.2a4,4,0,0,1-2-3.46V348.28l-33.66-19.43a4,4,0,0,1-.77-6.36l79.44-76a4,4,0,0,1,6.38,1.18L316.7,415.4a4,4,0,0,1-5.61,5.17l-29.66-17.12v88.83a4,4,0,0,1-2,3.47,4.07,4.07,0,0,1-2,.53m-83.55-56.85,79.55,45.92V396.52a4,4,0,0,1,6-3.47L304,407.23,232.41,256.1l-71.57,68.49,31,17.92a4,4,0,0,1,2,3.46v93.46m46-94.6a16.42,16.42,0,0,1-8.23-2.42C221.73,336.68,214,322,214,309c0-12.26,6.76-17.75,13.46-17.75a16.44,16.44,0,0,1,8.23,2.43c9.93,5.72,17.7,20.42,17.7,33.44,0,12.26-6.77,17.75-13.47,17.75m-12.46-45.62c-4,0-5.46,5.26-5.46,9.75,0,10.09,6.27,22.24,13.69,26.52a8.72,8.72,0,0,0,4.23,1.35c4,0,5.47-5.25,5.47-9.75,0-10.09-6.27-22.23-13.7-26.52a8.77,8.77,0,0,0-4.23-1.35"/></clipPath><clipPath id="clip-path-39"><polyline class="cls-2" points="247.21 474.83 220.1 459.18 220.1 389.35 247.21 405 247.21 474.83"/></clipPath><clipPath id="clip-path-40"><polyline class="cls-2" points="227.72 464.6 221.79 461.31 221.79 460.16 227.72 463.59 227.72 464.6"/></clipPath><clipPath id="clip-path-41"><polyline class="cls-2" points="227.72 463.59 221.79 460.16 221.79 391.48 227.72 394.9 227.72 463.59"/></clipPath><clipPath id="clip-path-42"><path class="cls-2" d="M247.21,478.83a4,4,0,0,1-2-.53L218.1,462.65a4,4,0,0,1-2-3.47V389.35a4,4,0,0,1,6-3.46l27.11,15.65a4,4,0,0,1,2,3.46v69.83a4,4,0,0,1-2,3.47A4,4,0,0,1,247.21,478.83Zm-23.11-22,19.11,11v-60.6l-19.11-11Z"/></clipPath><clipPath id="clip-path-43"><path class="cls-2" d="M247.2,327.82a4,4,0,0,1-1.93-.5c-24.76-13.67-44.05-35.06-54.32-60.24a107,107,0,0,1-.58-80.23c3-7.48,14.66-33.37,40.68-52.72,25.61-19,56.84-24.95,90.31-17.06a4,4,0,0,1-1.84,7.79C250.26,108.53,210.42,158,197.81,189.8c-19.27,48.57,2.32,103.46,51.33,130.52a4,4,0,0,1-1.94,7.5"/></clipPath><clipPath id="clip-path-44"><path class="cls-2" d="M292.61,340.92a86.86,86.86,0,0,1-17.84-1.8,4,4,0,1,1,1.64-7.83c37.18,7.79,86.28-11.59,108.16-63.68C397,238,399.27,189.83,364.63,151.77a4,4,0,1,1,5.92-5.39c37.18,40.85,34.76,92.5,21.39,124.32-11.14,26.54-29.5,46.92-53.09,58.94a103,103,0,0,1-46.24,11.28"/></clipPath></defs><title>Property Management</title><g id="Layer_2" data-name="Layer 2"><g id="Layer_1-2" data-name="Layer 1"><g class="cls-3"><g class="cls-4"><g class="cls-5"><g class="cls-3"><g class="cls-5"><rect class="cls-6" x="0.06" width="605.22" height="605.28"/></g></g><g class="cls-7"><g class="cls-5"><rect class="cls-8" y="294.21" width="378.71" height="311.07"/></g></g></g></g></g><g class="cls-9"><rect class="cls-10" x="288.85" y="64.61" width="167.22" height="476.06"/></g><g class="cls-11"><rect class="cls-12" x="396.6" y="422.74" width="14.22" height="14.12"/></g><g class="cls-13"><rect class="cls-12" x="355.43" y="120.59" width="45.1" height="72.91"/></g><g class="cls-14"><rect class="cls-12" x="396.6" y="358" width="24.42" height="22.89"/></g><g class="cls-15"><rect class="cls-12" x="342.31" y="281.27" width="15.78" height="247.32"/></g><g class="cls-16"><rect class="cls-12" x="292.85" y="69.01" width="144.25" height="203.92"/></g><g class="cls-17"><rect class="cls-18" x="284.85" y="60.61" width="175.22" height="484.06"/></g><g class="cls-19"><rect class="cls-20" x="309.79" y="78.31" width="146.28" height="462.36"/></g><g class="cls-21"><rect class="cls-22" x="366.71" y="136.08" width="44.97" height="63.56"/></g><g class="cls-23"><rect class="cls-24" x="363.63" y="124.61" width="58.13" height="81.85"/></g><g class="cls-25"><rect class="cls-26" x="368.2" y="431.43" width="61.86" height="106.13"/></g><g class="cls-27"><rect class="cls-28" x="363.88" y="525.5" width="14.56" height="14.69"/></g><g class="cls-29"><rect class="cls-30" x="360.74" y="428.07" width="69.33" height="113.94"/></g><g class="cls-31"><rect class="cls-24" x="360.74" y="428.93" width="67.84" height="110.88"/></g><g class="cls-32"><rect class="cls-33" x="396.6" y="361.44" width="11.49" height="17.78"/></g><g class="cls-34"><rect class="cls-26" x="396.6" y="102.8" width="60.95" height="260.26"/></g><g class="cls-35"><rect class="cls-30" x="396.6" y="92.47" width="60.95" height="279.83"/></g><g class="cls-36"><rect class="cls-24" x="378.85" y="89.05" width="77.21" height="300.41"/></g><g class="cls-37"><rect class="cls-22" x="400.82" y="422.3" width="14.08" height="12.63"/></g><g class="cls-38"><rect class="cls-33" x="396.6" y="421.41" width="17.89" height="13.77"/></g><g class="cls-39"><rect class="cls-26" x="410.88" y="371.7" width="25.71" height="56.4"/></g><g class="cls-40"><rect class="cls-30" x="403.12" y="368.34" width="33.48" height="64.23"/></g><g class="cls-41"><rect class="cls-24" x="378.85" y="369.2" width="56.26" height="76.22"/></g><g class="cls-42"><rect class="cls-43" x="354.17" y="124.26" width="32.57" height="55.8"/></g><g class="cls-44"><rect class="cls-45" x="354.19" y="121.56" width="39.17" height="64.55"/></g><g class="cls-46"><rect class="cls-45" x="340.92" y="119.54" width="51.03" height="83.72"/></g><g class="cls-47"><rect class="cls-18" x="305.79" y="74.31" width="154.28" height="470.36"/></g><g class="cls-48"><rect class="cls-18" x="284.85" y="152.4" width="38.94" height="31.7"/></g><g class="cls-49"><rect class="cls-10" x="149.22" y="244.37" width="168.87" height="252.91"/></g><g class="cls-50"><rect class="cls-12" x="197.58" y="289.07" width="46.72" height="61.34"/></g><g class="cls-51"><rect class="cls-12" x="155.84" y="251.1" width="87.22" height="201"/></g><g class="cls-52"><rect class="cls-18" x="145.22" y="240.37" width="176.87" height="260.91"/></g><g class="cls-53"><rect class="cls-54" x="215.1" y="384.35" width="37.11" height="95.48"/></g><g class="cls-55"><rect class="cls-45" x="216.79" y="455.16" width="15.93" height="14.44"/></g><g class="cls-56"><rect class="cls-57" x="216.79" y="386.48" width="15.93" height="82.11"/></g><g class="cls-58"><rect class="cls-18" x="211.1" y="380.35" width="45.11" height="103.48"/></g><g class="cls-59"><rect class="cls-18" x="177.85" y="108.67" width="151.59" height="224.15"/></g><g class="cls-60"><rect class="cls-18" x="266.59" y="140.07" width="139.31" height="205.85"/></g></g></g></svg>