<svg xmlns="http://www.w3.org/2000/svg" viewBox="0 0 596 595.13"><defs><style>.cls-1{fill:#7ec0fd;}.cls-2{fill:#4ca7fd;}.cls-3{fill:#81b652;}.cls-4{fill:#f0b474;}.cls-5{fill:#004b72;}.cls-6{fill:#fecb47;}.cls-7{fill:#71b62b;}.cls-8{fill:#f6da7a;}.cls-9{fill:#d6c06d;}.cls-10{fill:#faebc0;}.cls-11{fill:#389efe;}.cls-12{fill:#e75d3a;}.cls-13{fill:#03a84e;}.cls-14{fill:#004264;}.cls-15{fill:#162e45;}.cls-16{fill:#74a1c4;}.cls-17{fill:#64a127;}.cls-18{fill:#5abee6;}.cls-19{fill:#50a7ca;}.cls-20{fill:#c2e0ef;}.cls-21{fill:#e0eff7;}.cls-22{fill:#c4d9ef;}.cls-23{fill:#b1c5d8;}.cls-24{fill:#ffe5ad;}.cls-25{fill:#638aa7;}.cls-26{fill:#dbcfaa;}.cls-27{fill:#fcf5e0;}.cls-28{fill:#e1ebf7;}.cls-29{fill:#d3dde7;}.cls-30{fill:#ad6a3c;}.cls-31{fill:#628ba6;}</style></defs><title>Services</title><g id="Layer_2" data-name="Layer 2"><g id="Layer_1-2" data-name="Layer 1"><polyline class="cls-1" points="596 595 1 595 1 0 596 0 596 595"/><path class="cls-2" d="M243,595H0V413.8l91-48.21v20.49a4,4,0,0,0,2,3.47l194,112h0a4,4,0,0,0,4,0l1.68-1,13.81,7.6,15.52,9V486.57l2-.89h0l-2,.88v30.5l2-.88v2.51l32.5-20-1.5-.69v-30.5l-29.4,17h0L355,467.37,352.6,466l23.72-13.7,0,0L436,417.86l.05,0,18-10.39,23.11,12.72,5.89,3.4v0h0v1.24l5.31-3.27,21.14,18-266,155.6"/><polyline class="cls-3" points="289 498.2 95 386.19 95 206.74 192 190.31 289 318.74 289 498"/><polyline class="cls-4" points="285 491.63 261 477.78 261 328.89 201.5 209.44 285 320 285 492"/><path class="cls-5" d="M190.27,194.65,99,210.12V383.89L285,491.27V320.09L190.27,194.65m96.72,307-194-112a4,4,0,0,1-2-3.47V206.75a4,4,0,0,1,3.34-3.95l97-16.44a4,4,0,0,1,3.87,1.54l97,128.43a4,4,0,0,1,.81,2.42V498.13a4,4,0,0,1-.64,2.26A4.07,4.07,0,0,1,289,502.2a4,4,0,0,1-2-.54"/><polyline class="cls-6" points="483 385.64 289 273.63 289 94.17 386 77.74 483 206.18 483 386"/><path class="cls-7" d="M384.27,82.09,293,97.55V271.32L479,378.71V207.52L384.27,82.09M481,389.1l-194-112a4,4,0,0,1-2-3.47V94.18a4,4,0,0,1,3.34-4l97-16.43a4,4,0,0,1,3.87,1.53l97,128.44a4,4,0,0,1,.81,2.41V385.5a4.15,4.15,0,0,1-.95,2.73,4,4,0,0,1-3.05,1.4,4.11,4.11,0,0,1-2-.53"/><polyline class="cls-8" points="289 498.19 483 386.19 483 206.73 289 318.74 289 498"/><polyline class="cls-9" points="360.88 451.83 370 378.41 370.14 446.49 360.88 451.83"/><polyline class="cls-10" points="438 407 437.7 337.06 438.62 336.52 463.49 366.02 450 373.05 450.9 373.51 450 374.04 450 378.64 449.08 400.99 438 407.39"/><polyline class="cls-10" points="293 465 293 385.54 354.61 455.53 344.55 461.34 321.98 448.31 293.89 464.68 293 464.74"/><path class="cls-5" d="M479,213.66,293,321.05V491.26L479,383.87V214M287,501.65a4,4,0,0,1-2-3.47V318.74a4,4,0,0,1,2-3.47l194-112a4,4,0,0,1,6,3.56V386.18a4,4,0,0,1-2,3.47l-194,112a4,4,0,0,1-4,0"/><polyline class="cls-3" points="483 423.61 450 404.56 450 374.03 483 393.08 483 424"/><polyline class="cls-6" points="483.03 393.09 450.06 374.05 483.03 354.83 516.01 373.86 483.03 393.09"/><polyline class="cls-6" points="483 423.61 516 404.55 516 374.03 483 393.08 483 424"/><polyline class="cls-3" points="322 517.09 289 498.04 289 467.51 322 486.56 322 517"/><polyline class="cls-6" points="322.22 486.57 289.24 467.53 322.22 448.31 355.19 467.35 322.22 486.57"/><polyline class="cls-6" points="322 517.09 355 498.04 355 467.51 322 486.56 322 517"/><polyline class="cls-11" points="192.35 190.47 386.14 77.91 270.47 96.41 76.68 208.97 192.35 190.47"/><polyline class="cls-3" points="289.24 318.77 483.03 206.21 386.14 77.91 192.35 190.47 289.24 318.77"/><polyline class="cls-12" points="290.3 313.53 218.72 218.75 308.75 302.81 290.3 313.53"/><polyline class="cls-12" points="347.72 280.18 273.72 178.85 363.95 270.75 347.72 280.18"/><polyline class="cls-12" points="394.71 252.89 313.76 141.59 416.04 240.5 394.71 252.89"/><polyline class="cls-12" points="438.06 227.7 428.03 215.23 354.43 111.62 461.99 213.81 438.06 227.7"/><polyline class="cls-4" points="470.83 208.67 403.71 107.81 477.12 205.02 474.27 206.67 470.83 208.67"/><polyline class="cls-4" points="427.33 233.94 352.24 121.1 428.03 215.23 437.23 228.19 427.33 233.94"/><polyline class="cls-13" points="437.23 228.19 428.03 215.23 438.06 227.7 437.23 228.19"/><polyline class="cls-4" points="383.49 259.4 307.45 145.14 394.36 253.09 383.49 259.4"/><polyline class="cls-4" points="334.29 287.98 261.33 174.19 345.11 281.7 334.29 287.98"/><polyline class="cls-4" points="123.1 396.01 100 382.68 100 211.43 175.97 198.56 123 231.92 123.1 396"/><polyline class="cls-14" points="122.41 401.98 95 386.15 95 206.89 131.97 200.13 185.41 191.58 176.45 197.22 100 210.27 100 383.96 123 397.24 123 402"/><polyline class="cls-15" points="131.97 200.13 188.43 189.68 185.41 191.58 131.97 200.13"/><path class="cls-16" d="M271.09,96.31l1-.6,13.19-2c0,.11,0,.22,0,.32l-14.16,2.27"/><path class="cls-17" d="M285.25,94c0-.1,0-.21,0-.32l33.27-5L285.25,94"/><polyline class="cls-15" points="89.77 204.96 271.09 96.31 285.25 94.05 318.56 88.72 352.24 83.65 89.77 204.96"/><path class="cls-5" d="M385.08,83.15,198.26,191.66l92,121.87L477.12,205l-92-121.87m-99,238-96.89-128.3a4,4,0,0,1,1.18-5.87L384.13,74.45a4,4,0,0,1,5.2,1l96.9,128.3a4,4,0,0,1-1.19,5.87L291.25,322.23a3.93,3.93,0,0,1-2,.54,4,4,0,0,1-3.2-1.59"/><polygon class="cls-6" points="439.67 231.93 343.66 102.58 439.67 231.93 439.67 231.93"/><polygon class="cls-6" points="395.99 257.62 299.98 128.27 395.99 257.62 395.99 257.62"/><polygon class="cls-6" points="347.99 284.22 251.98 154.88 347.99 284.22 347.99 284.22"/><polygon class="cls-6" points="253.63 154.88 143.38 170.23 253.63 154.88 253.63 154.88"/><polygon class="cls-6" points="301.77 128.27 193.18 141.59 301.77 128.27 301.77 128.27"/><polygon class="cls-6" points="345.47 102.58 236.88 115.9 345.47 102.58 345.47 102.58"/><polyline class="cls-18" points="223 401.79 140 358.71 140 254.18 223 299.87 223 402"/><polyline class="cls-4" points="214.21 405.99 131 362.81 131 258.01 140 262.97 140 358.85 214 397.25 214 406"/><polyline class="cls-19" points="214 397.12 140 358.71 140 263.15 214 303.89 214 397"/><polyline class="cls-20" points="434.37 414.37 375 448.64 374.82 360.38 434 329.13 434.37 414"/><path class="cls-21" d="M379,442l-.15-74.61,1.32-.73a4,4,0,0,0,1.38,1.46,2.64,2.64,0,0,0,.44.23l40.68,48.31L379,441.88"/><path class="cls-22" d="M488.35,421.53l-.71-.6L516,404.55l-27.66,17M483,393.09h0l2.62-1.53h0L483,393.09m2.82-1.63h0l.67-.39h0l-.68.39"/><polyline class="cls-23" points="483 425 483 423.59 487.6 420.93 488.31 421.54 483 424.8"/><path class="cls-24" d="M483,393v-2.8l2.62,1.36L483,393.09m2.84-1.64-.77-1.05,1.44.66-.67.39"/><polyline class="cls-24" points="483 424 483 393.09 485.63 391.57 486.06 391.79 485.82 391.46 486.5 391.07 515.97 404.55 487.6 420.93 483 423.59"/><polyline class="cls-25" points="477.15 420.19 454.07 407.49 454.61 407.18 477.15 420.19 477.15 420.19"/><polyline class="cls-26" points="449.07 401.1 450 378.67 450 400.57 449.07 401.1"/><polyline class="cls-14" points="454.01 407.49 448.93 404.69 449.07 401.1 450 400.57 450 404.55 454.55 407.18 454.01 407.49"/><polyline class="cls-4" points="477.09 420.19 454.55 407.18 450 404.55 450 400.57 450 378.67 477.09 420.19"/><polyline class="cls-10" points="463.69 366.1 463.6 366 466.05 364.73 463.69 366.1"/><polyline class="cls-27" points="450.96 373.52 450.06 373.05 463.6 366 463.69 366.1 450.96 373.52"/><polyline class="cls-24" points="485.04 390.4 483 389.47 483 390.2 450.93 373.52 463.65 366.1 466.02 364.73 466.02 364.72 485.04 390.4"/><polyline class="cls-28" points="485.67 391.57 485.65 391.56 485.84 391.45 485.85 391.46 485.67 391.57"/><polyline points="485.62 391.56 483 390.2 483 389.47 485.04 390.4 485.81 391.45 485.62 391.56"/><polyline points="486.1 391.79 485.67 391.57 485.85 391.46 486.1 391.79"/><path class="cls-23" d="M324,519v-2.92l31-17.9v-.12l1.5.69-32.5,20m0-32.7v-.32l1.3-.75h0l-1.31.75m1.8-1.19h0l0,0h0l0,0"/><path class="cls-24" d="M324,486v-1.75l1.3.68-1.3.75m1.79-1.19,0,0h0l0,0"/><polyline class="cls-24" points="324 516 324 485.9 325.29 485.16 327.02 486.06 326.04 484.73 326.06 484.71 355 497.95 355 498.07 324 515.96"/><polyline class="cls-25" points="306.72 508.12 292.92 500.53 293.24 500.34 306.72 508.12"/><polyline class="cls-14" points="292.92 500.53 289.69 498.75 289.71 498.3 293.24 500.34 292.92 500.53"/><polyline class="cls-4" points="317.85 514.25 306.72 508.12 293.24 500.34 289.71 498.3 290.76 472.72 317.85 514.25"/><polyline class="cls-24" points="326.04 484.46 324 483.53 324 484.25 291.03 467.11 307.02 458.78 326.04 484.46"/><polyline class="cls-29" points="325.05 484.94 325.03 484.93 325.79 484.49 325.8 484.5 325.05 484.94"/><polyline points="325.3 484.93 324 484.25 324 483.53 326.04 484.46 326.06 484.49 325.3 484.93"/><polyline points="326.8 485.85 325.05 484.94 325.8 484.5 326.8 485.85"/><path class="cls-5" d="M429.67,335.27,378,362.56l.16,79.64L430,412.27,429.67,335M373,452.12a4,4,0,0,1-2-3.45l-.18-88.29a4,4,0,0,1,2.13-3.54l59.2-31.26a4,4,0,0,1,5.19,1.32,4.12,4.12,0,0,1,.66,2.32l.37,85.14a4,4,0,0,1-2,3.47L377,452.11a4,4,0,0,1-2,.54,4,4,0,0,1-2-.53"/><path class="cls-6" d="M483,206.89c29.43,9.2,38,38.66,36.43,77.33L483,266.09V207"/><path class="cls-7" d="M487,263.61l28.6,14.24c.39-35.46-8.79-56.42-28.6-65.2V264m30.65,23.8-36.43-18.13a4,4,0,0,1-2.22-3.58V207a3.91,3.91,0,0,1,.35-1.73,4,4,0,0,1,4.84-2.16c28.24,8.83,41.07,35.42,39.24,81.31a4,4,0,0,1-2,3.28,3.9,3.9,0,0,1-2,.56,4,4,0,0,1-1.78-.42"/><path class="cls-11" d="M483,206.21c29.44,9.2,38,39.34,36.44,78L478,309s2.13-26.22-4.39-43.64c-9.81-26.26-34.45-33.69-34.45-33.69L483,206.21"/><path class="cls-30" d="M482.33,301.78c.16-9.35-.35-25.48-5-37.81a59.61,59.61,0,0,0-8.24-15.07A51.4,51.4,0,0,0,448.31,231l.39-.22c7.8,1.61,31,7.59,45.21,23.56,11.63,13.11,13.85,26.4,14.25,32l-25.83,15.45"/><path class="cls-5" d="M483.48,210.57,448,231.16A61.17,61.17,0,0,1,477.37,264c4.61,12.33,5.12,28.46,5,37.81l33.22-19.87c1.2-39.94-9.31-63.31-32.07-71.34M475.9,312.42A4,4,0,0,1,474,308.7c0-.25,2-25.55-4.15-41.92-9-24-31.65-31.2-31.87-31.26a4,4,0,0,1-.85-7.29L481,202.75a4,4,0,0,1,3.2-.36c28.25,8.83,41.08,35.65,39.24,82a4,4,0,0,1-2,3.27l-41.45,24.8a4,4,0,0,1-4.17,0"/><path class="cls-11" d="M289,318.77c29.43,9.2,38,38.67,36.43,77.34L289,378V319"/><polyline class="cls-15" points="313.73 385.81 293 375.5 293 331.24 313.73 385.81"/><path class="cls-5" d="M293,375.5l28.6,14.23c.39-35.46-8.79-56.42-28.6-65.19V375m30.65,24.69-36.43-18.14A4,4,0,0,1,285,378V318.85a4,4,0,0,1,5.19-3.9c28.24,8.83,41.07,35.43,39.24,81.32a4,4,0,0,1-5.78,3.42"/><path class="cls-3" d="M439.67,231.93c29.43,9.2,39.88,38.42,38.34,77.09l-44.1,25.48s2.12-26.22-4.39-43.64A56,56,0,0,0,396,257.61l43.68-25.68"/><path class="cls-12" d="M438.22,327.39c.18-9.32-.32-25.55-5-37.93a60.14,60.14,0,0,0-28.46-32.39L405,257c8.8,1.75,30.48,7.44,43.95,22.63,12.7,14.32,14.18,28.86,14.32,33.33l-25,14.47"/><path class="cls-5" d="M440.13,236.29l-35.32,20.78a60.14,60.14,0,0,1,28.46,32.39c4.63,12.38,5.13,28.61,5,37.93l35.87-20.72c1.08-38.44-10.33-62.1-34-70.38m-8.36,101.59a4,4,0,0,1-1.85-3.7c0-.25,2-25.52-4.15-41.92a51.54,51.54,0,0,0-30.91-30.81,4,4,0,0,1-.9-7.28l43.68-25.69a4,4,0,0,1,3.22-.37c15.2,4.75,26.38,14.73,33.23,29.65,6.09,13.26,8.75,30.56,7.92,51.42a4,4,0,0,1-2,3.31L435.91,338a4.07,4.07,0,0,1-2,.53,3.94,3.94,0,0,1-2.14-.62"/><path class="cls-11" d="M394.53,257.61c29.44,9.21,40.92,38.23,39.38,76.89l-50.73,30.22s2.41-29.57-4.11-47a50.87,50.87,0,0,0-33.6-31.61l49.06-28.5"/><path class="cls-15" d="M419.79,338.26c1.07-6.84,2.72-25.39-5.38-49.16a57.18,57.18,0,0,0-19.63-27l.2-.12c30,10.46,35.72,43.35,35,70.2l-10.19,6.08"/><path class="cls-4" d="M466.28,311.18c1.06-7.37,2.34-25.46-5.49-48.43a48.43,48.43,0,0,0-21-26.28l.31-.18c23.63,8.28,35,31.94,34,70.38l-7.81,4.51"/><path class="cls-14" d="M465.63,314.77s.31-1.26.65-3.59l7.81-4.51c1.08-38.44-10.33-62.1-34-70.38l-.31.18c-1.13-.65-1.81-.95-1.81-.95s.18,0,.51,0c2.46,0,13.71,1,28.88,18.11s11.65,53.86,11.65,53.86l-13.42,7.3"/><path class="cls-15" d="M510.58,284.88c.33-6.65.79-30.11-7.23-49.38-6.18-14.83-15.14-21.63-20.54-24.53l.67-.4c22.76,8,33.27,31.4,32.07,71.34l-5,3"/><path class="cls-14" d="M510.47,286.71s.06-.65.11-1.83l5-3c1.2-39.94-9.31-63.31-32.07-71.34l-.67.4a23,23,0,0,0-4.65-2,4.79,4.79,0,0,1,.5,0c2.47,0,13.71,1,28.88,18.12s11.66,53.85,11.66,53.85l-8.73,5.77"/><path class="cls-30" d="M387.54,357.47c.29-10.2,0-28.47-4.72-41.15a55.19,55.19,0,0,0-28-31l.88-.51c8.76,2.3,31,9.38,44.62,24.71,11.55,13,13.82,26.21,14.24,31.87l-27,16.07"/><path class="cls-5" d="M395,262l-40.2,23.35a55.19,55.19,0,0,1,28,31c4.74,12.68,5,30.95,4.72,41.15L430,332.18c.72-26.85-5-59.74-35-70.2M381.06,368.12a4,4,0,0,1-1.87-3.72c0-.29,2.27-28.87-3.86-45.28-8.9-23.78-29.86-28.9-30.73-29.11a4,4,0,0,1-1.13-7.36l49-28.49a4,4,0,0,1,3.21-.36c29.33,9.17,43.92,37.13,42.18,80.86a4,4,0,0,1-2,3.28l-50.73,30.22a4,4,0,0,1-2.05.56,4,4,0,0,1-2.12-.6"/><path class="cls-3" d="M345.47,286.11c29.44,9.2,39.25,39.95,37.71,78.61l-56.83,31.39s2.12-26.22-4.39-43.65c-9.81-26.25-32.72-33.69-32.72-33.69l56.23-32.66"/><path class="cls-31" d="M326.48,394s-.38-21.52-2.88-36.38c3.65,13.83,3.18,30.61,2.88,36.38h0"/><polyline class="cls-10" points="355 380.18 355 380.18 355 380.18 355 380.18"/><path class="cls-31" d="M292.86,316.67l-.42-.31.7.15-.28.16"/><path class="cls-12" d="M326.48,394c.3-5.77.77-22.55-2.88-36.38a47.74,47.74,0,0,0-2.67-10.36c-6.17-14.21-25-28.37-28.07-30.62l.28-.16c4.69,1.05,31.93,7.75,47.63,25.45,15.23,17.17,14.43,38.14,14.42,38.22h0L326.48,394"/><path class="cls-14" d="M383.24,363c.83-26.4-3.76-49-16.44-63.28a81.6,81.6,0,0,1,8.63,8.46c15.26,17.2,9.26,54,9.26,54l-1.45.79"/><path class="cls-4" d="M371.27,369.53s5.46-21.78-4.84-52a56,56,0,0,0-22.74-29.09s9.94.25,23.11,11.32c12.68,14.32,17.27,36.88,16.44,63.28l-12,6.51"/><path class="cls-5" d="M345.93,290.47l-48,27.91a62,62,0,0,1,27.82,32.68c4.65,12.46,5.13,28.8,5,38.1l48.6-26.84c1.38-48.16-11.21-64.05-33.33-71.85Zm-21.75,109a4,4,0,0,1-1.82-3.69c0-.25,2-25.52-4.15-41.92-9-24-30-31.22-30.2-31.28a4,4,0,0,1-.78-7.27l56.24-32.66a4,4,0,0,1,3.2-.36c28.3,8.85,42.31,37.41,40.51,82.59a4,4,0,0,1-2.07,3.35l-56.83,31.38a4,4,0,0,1-4.1-.14Z"/><polygon class="cls-5" points="436.45 234.31 442.88 229.54 346.87 100.2 340.45 104.97 436.45 234.31 436.45 234.31"/><polygon class="cls-5" points="392.78 260 399.2 255.23 303.19 125.89 296.77 130.66 392.78 260 392.78 260"/><polygon class="cls-5" points="344.77 286.61 351.2 281.84 255.19 152.49 248.77 157.26 344.77 286.61 344.77 286.61"/><path class="cls-5" d="M365.52,85.26l-93.69,15L97.29,201.63l93.69-15L365.52,85.26ZM72.91,210.32a4,4,0,0,1,1.76-4.8L268.46,93a3.93,3.93,0,0,1,1.38-.49L385.51,74a4,4,0,0,1,2.64,7.41L194.36,193.93a4,4,0,0,1-1.38.49L77.31,212.92a3.45,3.45,0,0,1-.64.05,4,4,0,0,1-3.76-2.65Z"/><polygon class="cls-5" points="143.93 174.19 254.18 158.84 253.07 150.92 142.83 166.27 143.93 174.19 143.93 174.19"/><polygon class="cls-5" points="193.66 145.56 302.26 132.24 301.29 124.3 192.69 137.62 193.66 145.56 193.66 145.56"/><polygon class="cls-5" points="237.37 119.87 345.96 106.55 344.99 98.61 236.39 111.93 237.37 119.87 237.37 119.87"/><path class="cls-5" d="M144,261v95.33l75,38.93v-93L144,261Zm77.17,144.4-83-43.09a4,4,0,0,1-2.15-3.54V254.28a4.08,4.08,0,0,1,.67-2.34,4,4,0,0,1,5.24-1.27l83,45.7a4,4,0,0,1,2.07,3.49V401.69a4,4,0,0,1-5.83,3.66Z"/><path class="cls-5" d="M454,381v21.28l25,14.44V395.39L454,381Zm27,46.11L448,408a4,4,0,0,1-2-3.47V374.12a4,4,0,0,1,6-3.55l33,19.05a4,4,0,0,1,2,3.46v30.4a4.11,4.11,0,0,1-.95,2.72,4,4,0,0,1-3.05,1.41,4,4,0,0,1-2-.54Z"/><path class="cls-5" d="M483,359.45,458,374l25,14.43,25-14.58-25-14.43Zm-2,37.1-33-19a4,4,0,0,1,0-6.92l33-19.22a4,4,0,0,1,4,0l33,19a4,4,0,0,1,0,6.92l-33,19.22a4,4,0,0,1-2,.55,4,4,0,0,1-2-.54Z"/><path class="cls-5" d="M512,381l-25,14.43v21.29l25-14.44V381Zm-31,46.11a4,4,0,0,1-2-3.47V393.08a4,4,0,0,1,2-3.46l32.91-19A4,4,0,0,1,520,374v30.52a4,4,0,0,1-2,3.47l-33,19.05a4,4,0,0,1-4,0Z"/><path class="cls-5" d="M293,474.44v21.29l25,14.43V488.88l-25-14.44Zm27,46.11-33-19a4,4,0,0,1-2-3.46V467.61a4,4,0,0,1,6-3.56l33,19.05a4,4,0,0,1,2,3.46V517a4,4,0,0,1-.64,2.26,4.06,4.06,0,0,1-3.36,1.81,4,4,0,0,1-2-.54Z"/><path class="cls-5" d="M322.23,452.93l-25,14.58,25,14.43,25-14.58-25-14.43Zm-2,37.1-33-19a4,4,0,0,1,0-6.92l33-19.22a4,4,0,0,1,4,0l33,19a4,4,0,0,1,0,6.92l-33,19.22a3.93,3.93,0,0,1-2,.55,4,4,0,0,1-2-.54Z"/><path class="cls-5" d="M351,474.44l-25,14.44v21.28l25-14.43V474.44Zm-31,46.11a4,4,0,0,1-2-3.46V486.57a4,4,0,0,1,2-3.47l33-19.05a4,4,0,0,1,6,3.55V498a4,4,0,0,1-2,3.46l-33,19a4,4,0,0,1-4,0Z"/></g></g></svg>