<?xml version="1.0" encoding="UTF-8"?>
<svg width="757px" height="445px" viewBox="0 0 757 445" version="1.1" xmlns="http://www.w3.org/2000/svg" xmlns:xlink="http://www.w3.org/1999/xlink">
    <!-- Generator: Sketch 55.1 (78136) - https://sketchapp.com -->
    <title>banner-dark</title>
    <desc>Created with Sketch.</desc>
    <defs>
        <path d="M187.306359,183.677312 C142.83584,217.156293 81.7038601,217.156293 37.2333414,183.677312 C34.6202489,181.703713 33.9250225,178.286017 35.6031553,176.288349 L37.1374481,174.435091 C38.8395542,172.413356 42.0759531,172.317083 44.425339,174.074067 C84.6286058,204.351967 139.935068,204.351967 180.138334,174.074067 C182.48772,172.317083 185.724119,172.413356 187.426225,174.435091 L188.960518,176.288349 C190.614678,178.310085 189.943425,181.703713 187.306359,183.677312" id="path-1"></path>
        <filter x="-2.6%" y="-5.6%" width="105.2%" height="122.3%" filterUnits="objectBoundingBox" id="filter-2">
            <feOffset dx="0" dy="2" in="SourceAlpha" result="shadowOffsetOuter1"></feOffset>
            <feGaussianBlur stdDeviation="1" in="shadowOffsetOuter1" result="shadowBlurOuter1"></feGaussianBlur>
            <feColorMatrix values="0 0 0 0 0.0745098039   0 0 0 0 0.0784313725   0 0 0 0 0.0823529412  0 0 0 1 0" type="matrix" in="shadowBlurOuter1"></feColorMatrix>
        </filter>
        <path d="M171.417529,216.844715 L171.417529,216.844715 C168.565667,215.429401 167.079823,212.766693 168.110328,210.919589 C183.92738,181.749739 189.19973,145.98309 180.404491,110.480313 C179.85329,108.201418 181.794474,105.490733 184.814093,104.459233 L184.814093,104.459233 C187.833712,103.427734 190.877296,104.627152 191.26074,106.402291 C201.062519,144.567777 195.790168,183.261006 178.918646,215.093564 C177.576594,217.804249 174.293357,218.23604 171.417529,216.844715" id="path-3"></path>
        <filter x="-14.1%" y="-1.8%" width="128.2%" height="107.0%" filterUnits="objectBoundingBox" id="filter-4">
            <feOffset dx="0" dy="2" in="SourceAlpha" result="shadowOffsetOuter1"></feOffset>
            <feGaussianBlur stdDeviation="1" in="shadowOffsetOuter1" result="shadowBlurOuter1"></feGaussianBlur>
            <feColorMatrix values="0 0 0 0 0.0745098039   0 0 0 0 0.0784313725   0 0 0 0 0.0823529412  0 0 0 1 0" type="matrix" in="shadowBlurOuter1"></feColorMatrix>
        </filter>
        <path d="M54.5534488,216.829048 L54.385761,216.829048 C57.2364534,215.415735 58.7216881,212.756791 57.7155614,210.888343 C41.8810431,181.73577 36.6108554,145.947812 45.4024866,110.471263 C45.9534608,108.19559 44.0130735,105.488736 40.9946933,104.458694 C37.9523577,103.428653 34.9100221,104.626376 34.5506912,106.399005 C24.7529333,144.558454 30.0231209,183.244901 46.8877213,215.080373 C48.253179,217.787226 51.5350686,218.242361 54.4097164,216.853003" id="path-5"></path>
        <filter x="-14.1%" y="-1.8%" width="128.2%" height="107.0%" filterUnits="objectBoundingBox" id="filter-6">
            <feOffset dx="0" dy="2" in="SourceAlpha" result="shadowOffsetOuter1"></feOffset>
            <feGaussianBlur stdDeviation="1" in="shadowOffsetOuter1" result="shadowBlurOuter1"></feGaussianBlur>
            <feColorMatrix values="0 0 0 0 0.0745098039   0 0 0 0 0.0784313725   0 0 0 0 0.0823529412  0 0 0 1 0" type="matrix" in="shadowBlurOuter1"></feColorMatrix>
        </filter>
        <path d="M201.631906,119.484345 C144.016904,100.408873 81.7245812,100.408873 24.1095794,119.484345 C20.5835989,120.652718 16.7218107,118.912081 15.4985113,115.526185 C14.2752119,112.140289 16.2660717,108.277506 19.9839423,107.061444 C80.3093917,87.103732 145.504052,87.103732 205.829502,107.061444 C209.547372,108.30135 211.538232,112.140289 210.314933,115.526185 C209.067647,118.912081 205.205859,120.652718 201.703865,119.484345" id="path-7"></path>
        <filter x="-2.0%" y="-7.2%" width="104.1%" height="128.8%" filterUnits="objectBoundingBox" id="filter-8">
            <feOffset dx="0" dy="2" in="SourceAlpha" result="shadowOffsetOuter1"></feOffset>
            <feGaussianBlur stdDeviation="1" in="shadowOffsetOuter1" result="shadowBlurOuter1"></feGaussianBlur>
            <feColorMatrix values="0 0 0 0 0.0745098039   0 0 0 0 0.0784313725   0 0 0 0 0.0823529412  0 0 0 1 0" type="matrix" in="shadowBlurOuter1"></feColorMatrix>
        </filter>
        <path d="M112.675097,8.40586448 L112.675097,2.11211174 L113.591194,2.11211174 C114.550553,0.737641976 116.082291,3.74241875e-06 117.638327,1.42971394e-11 L117.638341,0 C118.610107,-2.3372014e-06 119.591365,0.287693671 120.448598,0.887641758 C164.925817,31.355336 203.936294,81.2704947 224.79623,146.191413 C225.899169,149.64874 224.55646,154.378555 221.847066,156.563394 C219.113696,158.724223 216.068624,157.619799 215.037616,154.186482 C195.760159,89.7937661 158.140344,40.0946904 114.861972,9.60298692 C114.550271,9.36289477 114.262548,9.0987934 113.998802,8.81068281 C113.605257,8.56985945 113.151903,8.42885295 112.675097,8.4058671 Z" id="path-9"></path>
        <filter x="-3.6%" y="-1.3%" width="107.1%" height="105.1%" filterUnits="objectBoundingBox" id="filter-10">
            <feOffset dx="0" dy="2" in="SourceAlpha" result="shadowOffsetOuter1"></feOffset>
            <feGaussianBlur stdDeviation="1" in="shadowOffsetOuter1" result="shadowBlurOuter1"></feGaussianBlur>
            <feColorMatrix values="0 0 0 0 0.0745098039   0 0 0 0 0.0784313725   0 0 0 0 0.0823529412  0 0 0 1 0" type="matrix" in="shadowBlurOuter1"></feColorMatrix>
        </filter>
        <path d="M112.675097,8.4058671 C112.629009,8.40364528 112.582702,8.40252615 112.536209,8.40252615 C112.128601,8.40252615 111.74497,8.4745538 111.385316,8.64261831 C111.073616,9.00275654 110.737938,9.33888555 110.354307,9.60298692 C67.0759354,40.0946904 29.4561206,89.7937661 10.178663,154.186482 C9.14765465,157.619799 6.1025836,158.772242 3.36921273,156.563394 C0.635841867,154.354546 -0.730843565,149.64874 0.396072493,146.191413 C21.279985,81.2464854 60.2664852,31.3793452 104.743704,0.887641758 C106.973559,-0.648948023 110.042607,-0.0967360705 111.601108,2.11211174 L112.675097,2.11211174 L112.675097,8.40586448 Z" id="path-11"></path>
        <filter x="-3.6%" y="-1.3%" width="107.1%" height="105.1%" filterUnits="objectBoundingBox" id="filter-12">
            <feOffset dx="0" dy="2" in="SourceAlpha" result="shadowOffsetOuter1"></feOffset>
            <feGaussianBlur stdDeviation="1" in="shadowOffsetOuter1" result="shadowBlurOuter1"></feGaussianBlur>
            <feColorMatrix values="0 0 0 0 0.0745098039   0 0 0 0 0.0784313725   0 0 0 0 0.0823529412  0 0 0 1 0" type="matrix" in="shadowBlurOuter1"></feColorMatrix>
        </filter>
        <path d="M119.833405,239.642857 C53.7250303,239.642857 0,185.893874 0,119.809452 C0,53.7250303 53.7250303,0 119.833405,0 C185.941779,0 239.642857,53.7489827 239.642857,119.833405 C239.642857,185.917827 185.893874,239.642857 119.833405,239.642857 M119.833405,10.754587 C59.6891554,10.754587 10.7785393,59.6891554 10.7785393,119.833405 C10.7785393,179.977654 59.6891554,228.912222 119.857357,228.912222 C180.025559,228.912222 228.912222,179.977654 228.912222,119.833405 C228.912222,59.6891554 179.977654,10.754587 119.833405,10.754587" id="path-13"></path>
        <filter x="-3.5%" y="-2.7%" width="107.1%" height="107.1%" filterUnits="objectBoundingBox" id="filter-14">
            <feOffset dx="0" dy="2" in="SourceAlpha" result="shadowOffsetOuter1"></feOffset>
            <feGaussianBlur stdDeviation="2.5" in="shadowOffsetOuter1" result="shadowBlurOuter1"></feGaussianBlur>
            <feColorMatrix values="0 0 0 0 0   0 0 0 0 0   0 0 0 0 0  0 0 0 0.147836538 0" type="matrix" in="shadowBlurOuter1" result="shadowMatrixOuter1"></feColorMatrix>
            <feOffset dx="0" dy="2" in="SourceAlpha" result="shadowOffsetOuter2"></feOffset>
            <feGaussianBlur stdDeviation="1" in="shadowOffsetOuter2" result="shadowBlurOuter2"></feGaussianBlur>
            <feColorMatrix values="0 0 0 0 0   0 0 0 0 0   0 0 0 0 0  0 0 0 0.417340472 0" type="matrix" in="shadowBlurOuter2" result="shadowMatrixOuter2"></feColorMatrix>
            <feMerge>
                <feMergeNode in="shadowMatrixOuter1"></feMergeNode>
                <feMergeNode in="shadowMatrixOuter2"></feMergeNode>
            </feMerge>
        </filter>
    </defs>
    <g id="banner-dark" stroke="none" stroke-width="1" fill="none" fill-rule="evenodd">
        <g id="logo-halfstack" transform="translate(121.000000, 27.000000)">
            <g id="text-light" transform="translate(0.000000, 306.000000)" fill="#FFFFFF" fill-rule="nonzero">
                <path d="M313.3944,8.9568 C311.43599,9.07200058 310.024804,9.30239827 309.1608,9.648 C308.296796,9.99360173 307.706402,10.6559951 307.3896,11.6352 C307.072798,12.6144049 306.9144,14.1983891 306.9144,16.3872 L306.9144,59.2416 C306.9144,61.4304109 307.072798,63.0143951 307.3896,63.9936 C307.706402,64.9728049 308.296796,65.6351983 309.1608,65.9808 C310.024804,66.3264017 311.43599,66.5567994 313.3944,66.672 L313.3944,68.4 C310.571986,68.2271991 306.19443,68.1408 300.2616,68.1408 C294.443971,68.1408 289.922416,68.2271991 286.6968,68.4 L286.6968,66.672 C288.59761,66.5567994 289.994396,66.3264017 290.8872,65.9808 C291.780004,65.6351983 292.384798,64.9728049 292.7016,63.9936 C293.018402,63.0143951 293.1768,61.4304109 293.1768,59.2416 L293.1768,38.5056 L270.2808,38.5056 L270.2808,59.2416 C270.2808,61.4304109 270.439198,63.0143951 270.756,63.9936 C271.072802,64.9728049 271.6632,65.6351983 272.5272,65.9808 C273.391204,66.3264017 274.80239,66.5567994 276.7608,66.672 L276.7608,68.4 C273.650384,68.2271991 269.301628,68.1408 263.7144,68.1408 C257.551169,68.1408 253.000815,68.2271991 250.0632,68.4 L250.0632,66.672 C251.96401,66.5567994 253.360796,66.3264017 254.2536,65.9808 C255.146404,65.6351983 255.751198,64.9728049 256.068,63.9936 C256.384802,63.0143951 256.5432,61.4304109 256.5432,59.2416 L256.5432,16.3872 C256.5432,14.1983891 256.384802,12.6144049 256.068,11.6352 C255.751198,10.6559951 255.146404,9.99360173 254.2536,9.648 C253.360796,9.30239827 251.96401,9.07200058 250.0632,8.9568 L250.0632,7.2288 C253.000815,7.40160086 257.551169,7.488 263.7144,7.488 C269.301628,7.488 273.650384,7.40160086 276.7608,7.2288 L276.7608,8.9568 C274.80239,9.07200058 273.391204,9.30239827 272.5272,9.648 C271.6632,9.99360173 271.072802,10.6559951 270.756,11.6352 C270.439198,12.6144049 270.2808,14.1983891 270.2808,16.3872 L270.2808,36.7776 L293.1768,36.7776 L293.1768,16.3872 C293.1768,14.1983891 293.018402,12.6144049 292.7016,11.6352 C292.384798,10.6559951 291.780004,9.99360173 290.8872,9.648 C289.994396,9.30239827 288.59761,9.07200058 286.6968,8.9568 L286.6968,7.2288 C289.922416,7.40160086 294.443971,7.488 300.2616,7.488 C306.19443,7.488 310.571986,7.40160086 313.3944,7.2288 L313.3944,8.9568 Z M337.1688,22.5216 C343.792833,22.5216 348.976781,24.4079811 352.7208,28.1808 C356.464819,31.9536189 358.3368,37.9295591 358.3368,46.1088 C358.3368,54.2880409 356.464819,60.2495813 352.7208,63.9936 C348.976781,67.7376187 343.792833,69.6096 337.1688,69.6096 C330.602367,69.6096 325.432819,67.7376187 321.66,63.9936 C317.887181,60.2495813 316.0008,54.2880409 316.0008,46.1088 C316.0008,37.9295591 317.887181,31.9536189 321.66,28.1808 C325.432819,24.4079811 330.602367,22.5216 337.1688,22.5216 Z M337.1688,24.2496 C334.691988,24.2496 332.719207,26.049582 331.2504,29.6496 C329.781593,33.249618 329.0472,38.7359631 329.0472,46.1088 C329.0472,53.4816369 329.781593,58.9535821 331.2504,62.5248 C332.719207,66.0960179 334.691988,67.8816 337.1688,67.8816 C339.703213,67.8816 341.690393,66.1104177 343.1304,62.568 C344.570407,59.0255823 345.2904,53.5392372 345.2904,46.1088 C345.2904,38.6783628 344.556007,33.1776179 343.0872,29.6064 C341.618393,26.0351821 339.645612,24.2496 337.1688,24.2496 Z M431.3592,60.3648 C431.3592,62.7264118 431.776796,64.3535955 432.612,65.2464 C433.447204,66.1392045 434.87279,66.5856 436.8888,66.5856 L436.8888,68.4 C431.128771,68.1695988 427.327209,68.0544 425.484,68.0544 C423.871192,68.0544 420.300028,68.1695988 414.7704,68.4 L414.7704,66.5856 C416.325608,66.5856 417.405597,66.1536043 418.0104,65.2896 C418.615203,64.4255957 418.9176,62.7840121 418.9176,60.3648 L418.9176,33.4944 C418.9176,31.0751879 418.557604,29.2752059 417.8376,28.0944 C417.117596,26.9135941 415.74961,26.3232 413.7336,26.3232 C411.602389,26.3232 409.744808,27.2159911 408.1608,29.0016 C406.576792,30.7872089 405.640801,32.975987 405.3528,35.568 L405.3528,60.3648 C405.3528,62.7264118 405.712796,64.3535955 406.4328,65.2464 C407.152804,66.1392045 408.46319,66.5856 410.364,66.5856 L410.364,68.4 C404.834372,68.1695988 401.205609,68.0544 399.4776,68.0544 C397.864792,68.0544 394.293628,68.1695988 388.764,68.4 L388.764,66.5856 C390.319208,66.5856 391.399197,66.1392045 392.004,65.2464 C392.608803,64.3535955 392.9112,62.7264118 392.9112,60.3648 L392.9112,33.4944 C392.9112,31.0751879 392.594403,29.2752059 391.9608,28.0944 C391.327197,26.9135941 390.088809,26.3232 388.2456,26.3232 C385.941588,26.3232 383.968808,27.2879904 382.3272,29.2176 C380.685592,31.1472096 379.8648,33.5231859 379.8648,36.3456 L379.8648,60.3648 C379.8648,62.7264118 380.167197,64.3535955 380.772,65.2464 C381.376803,66.1392045 382.456792,66.5856 384.012,66.5856 L384.012,68.4 C378.943175,68.1695988 375.544809,68.0544 373.8168,68.0544 C372.088791,68.0544 368.114431,68.1695988 361.8936,68.4 L361.8936,66.5856 C363.96721,66.5856 365.407196,66.1392045 366.2136,65.2464 C367.020004,64.3535955 367.4232,62.7264118 367.4232,60.3648 L367.4232,33.1488 C367.4232,30.4991868 367.020004,28.569606 366.2136,27.36 C365.407196,26.150394 363.96721,25.5456 361.8936,25.5456 L361.8936,23.7312 C363.736809,23.9040009 365.522391,23.9904 367.2504,23.9904 C372.376826,23.9904 376.581584,23.587204 379.8648,22.7808 L379.8648,30.5568 C382.399213,25.1999732 386.863168,22.5216 393.2568,22.5216 C397.634422,22.5216 400.80239,23.6447888 402.7608,25.8912 C403.855205,27.0432058 404.575198,28.7711885 404.9208,31.0752 C406.418407,27.9647844 408.376788,25.7616065 410.796,24.4656 C413.215212,23.1695935 416.037584,22.5216 419.2632,22.5216 C423.640822,22.5216 426.80879,23.6447888 428.7672,25.8912 C429.688805,26.9280052 430.351198,28.3391911 430.7544,30.1248 C431.157602,31.9104089 431.3592,34.2431856 431.3592,37.1232 L431.3592,60.3648 Z M463.6872,62.5248 C468.410424,62.5248 472.211986,60.220823 475.092,55.6128 L476.6472,56.1312 C475.495194,59.8752187 473.436015,63.0575869 470.4696,65.6784 C467.503185,68.2992131 463.802422,69.6096 459.3672,69.6096 C453.261569,69.6096 448.408818,67.6656194 444.8088,63.7776 C441.208782,59.8895806 439.4088,54.144038 439.4088,46.5408 C439.4088,38.7647611 441.338381,32.8176206 445.1976,28.6992 C449.056819,24.5807794 454.183168,22.5216 460.5768,22.5216 C471.405654,22.5216 476.82,28.9151361 476.82,41.7024 L452.5416,41.7024 C452.484,42.5664043 452.4552,43.9199908 452.4552,45.7632 C452.4552,49.564819 452.987995,52.7327873 454.0536,55.2672 C455.119205,57.8016127 456.501592,59.6447942 458.2008,60.7968 C459.900008,61.9488058 461.72879,62.5248 463.6872,62.5248 Z M460.0584,24.336 C457.98479,24.336 456.271207,25.6175872 454.9176,28.1808 C453.563993,30.7440128 452.714402,34.7039732 452.3688,40.0608 L465.9336,40.0608 C466.048801,35.5103772 465.602405,31.7520148 464.5944,28.7856 C463.586395,25.8191852 462.07441,24.336 460.0584,24.336 Z M497.1384,22.5216 C499.327211,22.5216 501.343191,22.7951973 503.1864,23.3424 C505.029609,23.8896027 506.440795,24.5087965 507.42,25.2 C507.996003,25.603202 508.514398,25.8048 508.9752,25.8048 C509.493603,25.8048 509.939998,25.5312027 510.3144,24.984 C510.688802,24.4367973 510.933599,23.6448052 511.0488,22.608 L512.8632,22.608 C512.632799,25.5456147 512.5176,30.614364 512.5176,37.8144 L510.7032,37.8144 C510.184797,34.012781 509.047209,30.8304128 507.2904,28.2672 C505.533591,25.7039872 502.984817,24.4224 499.644,24.4224 C497.915991,24.4224 496.490406,24.9119951 495.3672,25.8912 C494.243994,26.8704049 493.6824,28.2239914 493.6824,29.952 C493.6824,31.9104098 494.344793,33.5951929 495.6696,35.0064 C496.994407,36.4176071 499.067986,38.1311899 501.8904,40.1472 L504.396,41.9616 C507.909618,44.6112132 510.501592,46.9727896 512.172,49.0464 C513.842408,51.1200104 514.6776,53.7119844 514.6776,56.8224 C514.6776,59.3568127 513.943207,61.6031902 512.4744,63.5616 C511.005593,65.5200098 509.032812,67.0175948 506.556,68.0544 C504.079188,69.0912052 501.343215,69.6096 498.348,69.6096 C495.179984,69.6096 492.472811,69.004806 490.2264,67.7952 C488.383191,66.8735954 487.058404,66.2688014 486.252,65.9808 C485.675997,65.8079991 485.172002,65.9951973 484.74,66.5424 C484.307998,67.0896027 483.976801,67.9103945 483.7464,69.0048 L481.932,69.0048 C482.162401,65.7215836 482.2776,59.9616412 482.2776,51.7248 L484.092,51.7248 C485.244006,62.323253 489.131967,67.6224 495.756,67.6224 C497.426408,67.6224 498.851994,67.118405 500.0328,66.1104 C501.213606,65.102395 501.804,63.5616104 501.804,61.488 C501.804,59.8751919 501.444004,58.4352063 500.724,57.168 C500.003996,55.9007937 499.096805,54.7776049 498.0024,53.7984 C496.907995,52.8191951 495.266411,51.4656086 493.0776,49.7376 C490.485587,47.6639896 488.512807,45.9936063 487.1592,44.7264 C485.805593,43.4591937 484.653605,41.9616086 483.7032,40.2336 C482.752795,38.5055914 482.2776,36.5760107 482.2776,34.4448 C482.2776,30.7583816 483.717586,27.8496107 486.5976,25.7184 C489.477614,23.5871893 492.991179,22.5216 497.1384,22.5216 Z" id="Homes"></path>
                <path d="M54.3276,61.1424 C55.0764037,63.0432095 55.9403951,64.4255957 56.9196,65.2896 C57.8988049,66.1536043 58.8491954,66.6143997 59.7708,66.672 L59.7708,68.4 C56.3147827,68.2271991 51.9372265,68.1408 46.638,68.1408 C40.7627706,68.1408 36.3852144,68.2271991 33.5052,68.4 L33.5052,66.672 C35.6940109,66.5567994 37.2491954,66.2832022 38.1708,65.8512 C39.0924046,65.4191978 39.5532,64.656 39.5532,63.5616 C39.5532,62.5247948 39.2076035,61.1424086 38.5164,59.4144 L33.3324,45.2448 L14.4972,45.2448 L12.2508,51.2064 C10.6379919,55.3536207 9.8316,58.5503888 9.8316,60.7968 C9.8316,62.9280107 10.4795935,64.4111958 11.7756,65.2464 C13.0716065,66.0816042 14.9867873,66.5567994 17.5212,66.672 L17.5212,68.4 C13.6043804,68.2271991 10.0332161,68.1408 6.8076,68.1408 C4.15798675,68.1408 1.96920864,68.2271991 0.2412,68.4 L0.2412,66.672 C3.06361411,66.1535974 5.54038934,63.1296276 7.6716,57.6 L27.3708,7.056 C28.0044032,7.11360029 29.0123931,7.1424 30.3948,7.1424 C31.7772069,7.1424 32.7563971,7.11360029 33.3324,7.056 L54.3276,61.1424 Z M32.7276,43.5168 L24.174,20.1888 L15.1884,43.5168 L32.7276,43.5168 Z M77.0652,60.3648 C77.0652,62.7264118 77.468396,64.3535955 78.2748,65.2464 C79.081204,66.1392045 80.5211896,66.5856 82.5948,66.5856 L82.5948,68.4 C76.60437,68.1695988 72.7452086,68.0544 71.0172,68.0544 C69.0587902,68.0544 65.08443,68.1695988 59.094,68.4 L59.094,66.5856 C61.1100101,66.5856 62.5355958,66.1392045 63.3708,65.2464 C64.2060042,64.3535955 64.6236,62.7264118 64.6236,60.3648 L64.6236,11.1168 C64.6236,8.46718675 64.2060042,6.53760605 63.3708,5.328 C62.5355958,4.11839395 61.1100101,3.5136 59.094,3.5136 L59.094,1.6992 C60.9372092,1.87200086 62.7227914,1.9584 64.4508,1.9584 C69.4620251,1.9584 73.666783,1.55520403 77.0652,0.7488 L77.0652,60.3648 Z M115.5276,22.5216 C118.522815,22.5216 121.186788,23.3279919 123.5196,24.9408 C125.852412,26.5536081 127.681193,28.9727839 129.006,32.1984 C130.330807,35.4240161 130.9932,39.3695767 130.9932,44.0352 C130.9932,52.2720412 129.193218,58.593578 125.5932,63 C121.993182,67.406422 117.111631,69.6096 110.9484,69.6096 C109.220391,69.6096 107.593208,69.3792023 106.0668,68.9184 C104.540392,68.4575977 103.230005,67.7664046 102.1356,66.8448 L102.1356,75.4848 C102.1356,78.0192127 102.769194,79.7759951 104.0364,80.7552 C105.303606,81.7344049 107.261987,82.224 109.9116,82.224 L109.9116,84.0384 L107.5788,83.952 C101.185168,83.7791991 97.1244086,83.6928 95.3964,83.6928 C93.6683914,83.6928 90.0396276,83.8079988 84.51,84.0384 L84.51,82.224 C86.4108095,82.224 87.7499961,81.8064042 88.5276,80.9712 C89.3052039,80.1359958 89.694,78.5952112 89.694,76.3488 L89.694,33.1488 C89.694,30.4991868 89.2764042,28.569606 88.4412,27.36 C87.6059958,26.150394 86.1804101,25.5456 84.1644,25.5456 L84.1644,23.7312 C86.0076092,23.9040009 87.7931914,23.9904 89.5212,23.9904 C94.5324251,23.9904 98.737183,23.587204 102.1356,22.7808 L102.1356,30.7296 C103.345206,28.0799868 105.101988,26.0496071 107.406,24.6384 C109.710012,23.2271929 112.417184,22.5216 115.5276,22.5216 Z M107.5788,67.2768 C111.265218,67.2768 113.914792,65.4480183 115.5276,61.7904 C117.140408,58.1327817 117.9468,52.7904351 117.9468,45.7632 C117.9468,38.7359649 117.298806,33.724815 116.0028,30.7296 C114.706794,27.734385 112.849212,26.2368 110.43,26.2368 C108.47159,26.2368 106.729208,26.8991934 105.2028,28.224 C103.676392,29.5488066 102.654003,31.3919882 102.1356,33.7536 L102.1356,64.944 C103.518007,66.4992078 105.332389,67.2768 107.5788,67.2768 Z M152.0892,30.5568 C154.681213,25.1999732 159.375566,22.5216 166.1724,22.5216 C170.665222,22.5216 173.833191,23.6447888 175.6764,25.8912 C176.655605,26.9856055 177.361198,28.4111912 177.7932,30.168 C178.225202,31.9248088 178.4412,34.2431856 178.4412,37.1232 L178.4412,60.3648 C178.4412,62.7264118 178.844396,64.3535955 179.6508,65.2464 C180.457204,66.1392045 181.89719,66.5856 183.9708,66.5856 L183.9708,68.4 C177.98037,68.1695988 174.178808,68.0544 172.566,68.0544 C170.60759,68.0544 166.863628,68.1695988 161.334,68.4 L161.334,66.5856 C163.062009,66.5856 164.271597,66.1392045 164.9628,65.2464 C165.654003,64.3535955 165.9996,62.7264118 165.9996,60.3648 L165.9996,33.4944 C165.9996,31.1327882 165.610804,29.347206 164.8332,28.1376 C164.055596,26.927994 162.65881,26.3232 160.6428,26.3232 C158.223588,26.3232 156.193208,27.2591906 154.5516,29.1312 C152.909992,31.0032094 152.0892,33.3791856 152.0892,36.2592 L152.0892,60.3648 C152.0892,62.7264118 152.434797,64.3535955 153.126,65.2464 C153.817203,66.1392045 155.026791,66.5856 156.7548,66.5856 L156.7548,68.4 C151.225172,68.1695988 147.654008,68.0544 146.0412,68.0544 C144.08279,68.0544 140.10843,68.1695988 134.118,68.4 L134.118,66.5856 C136.13401,66.5856 137.559596,66.1392045 138.3948,65.2464 C139.230004,64.3535955 139.6476,62.7264118 139.6476,60.3648 L139.6476,11.2032 C139.6476,8.55358675 139.230004,6.62400605 138.3948,5.4144 C137.559596,4.20479395 136.13401,3.6 134.118,3.6 L134.118,1.7856 C135.961209,1.95840086 137.746791,2.0448 139.4748,2.0448 C144.486025,2.0448 148.690783,1.64160403 152.0892,0.8352 L152.0892,30.5568 Z M196.686,69.0048 C192.999582,69.0048 190.249209,68.0544095 188.4348,66.1536 C186.620391,64.2527905 185.7132,61.7472156 185.7132,58.6368 C185.7132,56.044787 186.389993,53.8992085 187.7436,52.2 C189.097207,50.5007915 190.73879,49.1904046 192.6684,48.2688 C194.59801,47.3471954 197.060385,46.3680052 200.0556,45.3312 C203.223616,44.2367945 205.541993,43.2432045 207.0108,42.3504 C208.479607,41.4575955 209.214,40.2336078 209.214,38.6784 L209.214,31.9392 C209.214,29.5199879 208.652406,27.6336068 207.5292,26.28 C206.405994,24.9263932 204.663612,24.2496 202.302,24.2496 C199.537186,24.2496 197.434807,24.9407931 195.9948,26.3232 C197.607608,26.8992029 198.860396,27.7631942 199.7532,28.9152 C200.646004,30.0672058 201.0924,31.4207922 201.0924,32.976 C201.0924,34.9344098 200.430007,36.4895942 199.1052,37.6416 C197.780393,38.7936058 196.16761,39.3696 194.2668,39.3696 C192.25079,39.3696 190.695605,38.7360063 189.6012,37.4688 C188.506795,36.2015937 187.9596,34.6176095 187.9596,32.7168 C187.9596,31.1039919 188.348396,29.7360056 189.126,28.6128 C189.903604,27.4895944 191.098792,26.4384049 192.7116,25.4592 C194.266808,24.5375954 196.181989,23.8176026 198.4572,23.2992 C200.732411,22.7807974 203.223586,22.5216 205.9308,22.5216 C208.753214,22.5216 211.20119,22.8095971 213.2748,23.3856 C215.34841,23.9616029 217.076393,24.9407931 218.4588,26.3232 C219.726006,27.5904063 220.575598,29.1455908 221.0076,30.9888 C221.439602,32.8320092 221.6556,35.3375842 221.6556,38.5056 L221.6556,62.0064 C221.6556,63.3888069 221.785199,64.3679971 222.0444,64.944 C222.303601,65.5200029 222.807596,65.808 223.5564,65.808 C224.420404,65.808 225.457194,65.3184049 226.6668,64.3392 L227.5308,65.808 C224.938787,67.9392107 221.770819,69.0048 218.0268,69.0048 C214.858784,69.0048 212.641206,68.3712063 211.374,67.104 C210.106794,65.8367937 209.4444,64.1376107 209.3868,62.0064 C206.506786,66.6720233 202.273228,69.0048 196.686,69.0048 Z M203.3388,63.4752 C205.585211,63.4752 207.543592,62.2944118 209.214,59.9328 L209.214,42.2208 C208.522797,43.3728058 207.054011,44.6399931 204.8076,46.0224 C202.561189,47.4624072 200.862006,48.9023928 199.71,50.3424 C198.557994,51.7824072 197.982,53.8559865 197.982,56.5632 C197.982,58.9248118 198.471595,60.6671944 199.4508,61.7904 C200.430005,62.9136056 201.725992,63.4752 203.3388,63.4752 Z" id="Alpha"></path>
            </g>
            <g id="emblem-light" transform="translate(108.900000, 0.000000)" fill-rule="evenodd" stroke-width="1">
                <g id="ah-logo" transform="translate(18.071429, 18.071429)">
                    <g id="ah-logo-emblem" fill-rule="nonzero">
                        <g id="logo-core" transform="translate(7.547807, 2.515936)">
                            <g id="H-bottom">
                                <use fill="black" fill-opacity="1" filter="url(#filter-2)" xlink:href="#path-1"></use>
                                <use fill="#14A84E" xlink:href="#path-1"></use>
                            </g>
                            <g id="H-right">
                                <use fill="black" fill-opacity="1" filter="url(#filter-4)" xlink:href="#path-3"></use>
                                <use fill="#81B753" xlink:href="#path-3"></use>
                            </g>
                            <g id="H-left">
                                <use fill="black" fill-opacity="1" filter="url(#filter-6)" xlink:href="#path-5"></use>
                                <use fill="#AF6A3D" xlink:href="#path-5"></use>
                            </g>
                            <g id="A-cross">
                                <use fill="black" fill-opacity="1" filter="url(#filter-8)" xlink:href="#path-7"></use>
                                <use fill="#F64D54" xlink:href="#path-7"></use>
                            </g>
                            <g id="A-right">
                                <use fill="black" fill-opacity="1" filter="url(#filter-10)" xlink:href="#path-9"></use>
                                <use fill="#F0B573" xlink:href="#path-9"></use>
                            </g>
                            <g id="A-left">
                                <use fill="black" fill-opacity="1" filter="url(#filter-12)" xlink:href="#path-11"></use>
                                <use fill="#3DA5D9" xlink:href="#path-11"></use>
                            </g>
                        </g>
                        <g id="ring">
                            <use fill="black" fill-opacity="1" filter="url(#filter-14)" xlink:href="#path-13"></use>
                            <use fill="#FFFFFF" xlink:href="#path-13"></use>
                        </g>
                    </g>
                </g>
            </g>
        </g>
    </g>
</svg>