<?xml version="1.0" encoding="UTF-8"?>
<svg width="749px" height="153px" viewBox="0 0 749 153" version="1.1" xmlns="http://www.w3.org/2000/svg" xmlns:xlink="http://www.w3.org/1999/xlink">
    <!-- Generator: Sketch 55.1 (78136) - https://sketchapp.com -->
    <title>logo-full</title>
    <desc>Created with Sketch.</desc>
    <defs>
        <path d="M103.89738,101.460368 C79.2299294,119.953614 45.3204957,119.953614 20.6530448,101.460368 C19.2035828,100.370184 18.8179461,98.482304 19.7487933,97.3788249 L20.5998536,96.3551153 C21.5439986,95.2383413 23.3392039,95.1851616 24.64239,96.1556914 C46.9428294,112.880712 77.6208935,112.880712 99.9213329,96.1556914 C101.224519,95.1851616 103.019724,95.2383413 103.963869,96.3551153 L104.81493,97.3788249 C105.732479,98.4955989 105.36014,100.370184 103.89738,101.460368" id="path-1"></path>
        <filter x="-2.3%" y="-5.0%" width="104.6%" height="120.1%" filterUnits="objectBoundingBox" id="filter-2">
            <feOffset dx="0" dy="1" in="SourceAlpha" result="shadowOffsetOuter1"></feOffset>
            <feGaussianBlur stdDeviation="0.5" in="shadowOffsetOuter1" result="shadowBlurOuter1"></feGaussianBlur>
            <feColorMatrix values="0 0 0 0 0.0745098039   0 0 0 0 0.0784313725   0 0 0 0 0.0823529412  0 0 0 1 0" type="matrix" in="shadowBlurOuter1"></feColorMatrix>
        </filter>
        <path d="M95.0839702,119.781503 L95.0839702,119.781503 C93.5020643,118.999707 92.6778781,117.52887 93.2494911,116.50856 C102.023087,100.395608 104.947619,80.6386912 100.068968,61.0275328 C99.7632212,59.7687085 100.839981,58.27137 102.51494,57.7015864 L102.51494,57.7015864 C104.189899,57.1318027 105.878151,57.7943418 106.090845,58.7748998 C111.527815,79.8568951 108.603283,101.230408 99.2447814,118.814196 C98.5003552,120.311535 96.6791694,120.550049 95.0839702,119.781503" id="path-3"></path>
        <filter x="-12.7%" y="-1.6%" width="125.4%" height="106.4%" filterUnits="objectBoundingBox" id="filter-4">
            <feOffset dx="0" dy="1" in="SourceAlpha" result="shadowOffsetOuter1"></feOffset>
            <feGaussianBlur stdDeviation="0.5" in="shadowOffsetOuter1" result="shadowBlurOuter1"></feGaussianBlur>
            <feColorMatrix values="0 0 0 0 0.0745098039   0 0 0 0 0.0784313725   0 0 0 0 0.0823529412  0 0 0 1 0" type="matrix" in="shadowBlurOuter1"></feColorMatrix>
        </filter>
        <path d="M30.2603737,119.772849 L30.1673586,119.772849 C31.7486155,118.992158 32.5724636,117.5234 32.0143729,116.4913 C23.2310888,100.387892 20.3077567,80.6192045 25.1844062,61.0225339 C25.4900272,59.7654889 24.4137095,58.2702669 22.7394375,57.7012886 C21.0518776,57.1323103 19.3643177,57.793913 19.1649996,58.7730849 C13.7302595,79.8517454 16.6535916,101.221511 26.0082543,118.80691 C26.7656631,120.302132 28.5861017,120.553541 30.1806465,119.786081" id="path-5"></path>
        <filter x="-12.7%" y="-1.6%" width="125.4%" height="106.4%" filterUnits="objectBoundingBox" id="filter-6">
            <feOffset dx="0" dy="1" in="SourceAlpha" result="shadowOffsetOuter1"></feOffset>
            <feGaussianBlur stdDeviation="0.5" in="shadowOffsetOuter1" result="shadowBlurOuter1"></feGaussianBlur>
            <feColorMatrix values="0 0 0 0 0.0745098039   0 0 0 0 0.0784313725   0 0 0 0 0.0823529412  0 0 0 1 0" type="matrix" in="shadowBlurOuter1"></feColorMatrix>
        </filter>
        <path d="M111.84365,66.0012143 C79.8850564,55.4642332 45.3319895,55.4642332 13.3733962,66.0012143 C11.4175622,66.6466044 9.2754583,65.6851049 8.59690365,63.8147908 C7.91834901,61.9444766 9.02266343,59.8107379 11.0849374,59.1390054 C44.5469949,48.1146888 80.709966,48.1146888 114.172024,59.1390054 C116.234297,59.8239091 117.338612,61.9444766 116.660057,63.8147908 C115.968198,65.6851049 113.826094,66.6466044 111.883565,66.0012143" id="path-7"></path>
        <filter x="-1.8%" y="-6.5%" width="103.7%" height="126.1%" filterUnits="objectBoundingBox" id="filter-8">
            <feOffset dx="0" dy="1" in="SourceAlpha" result="shadowOffsetOuter1"></feOffset>
            <feGaussianBlur stdDeviation="0.5" in="shadowOffsetOuter1" result="shadowBlurOuter1"></feGaussianBlur>
            <feColorMatrix values="0 0 0 0 0.0745098039   0 0 0 0 0.0784313725   0 0 0 0 0.0823529412  0 0 0 1 0" type="matrix" in="shadowBlurOuter1"></feColorMatrix>
        </filter>
        <path d="M62.5,4.6432632 L62.5,1.16669627 L63.0081517,1.16669627 C63.5403009,0.407461464 64.3899437,2.06720635e-06 65.2530652,7.92262038e-12 L65.2530727,0 C65.7921039,-1.29100396e-06 66.3363998,0.158917318 66.8119004,0.49031891 C91.4830678,17.3201791 113.121876,44.8925031 124.69272,80.7537654 C125.304512,82.6635368 124.559722,85.2762101 123.056842,86.4830795 C121.540663,87.6766866 119.851585,87.0666208 119.279693,85.1701117 C108.586637,49.60062 87.7192185,22.1476567 63.7130422,5.30453422 C63.5401446,5.17191121 63.3805467,5.0260259 63.2342487,4.86687829 C63.0159524,4.73385137 62.7644803,4.65596166 62.5000001,4.64326465 Z" id="path-9"></path>
        <filter x="-3.2%" y="-1.1%" width="106.4%" height="104.6%" filterUnits="objectBoundingBox" id="filter-10">
            <feOffset dx="0" dy="1" in="SourceAlpha" result="shadowOffsetOuter1"></feOffset>
            <feGaussianBlur stdDeviation="0.5" in="shadowOffsetOuter1" result="shadowBlurOuter1"></feGaussianBlur>
            <feColorMatrix values="0 0 0 0 0.0745098039   0 0 0 0 0.0784313725   0 0 0 0 0.0823529412  0 0 0 1 0" type="matrix" in="shadowBlurOuter1"></feColorMatrix>
        </filter>
        <path d="M62.5000001,4.64326465 C62.4744354,4.64203735 62.4487492,4.64141917 62.4229596,4.64141917 C62.1968627,4.64141917 61.9840655,4.68120607 61.7845682,4.77404218 C61.6116706,4.9729767 61.4254731,5.15864891 61.2126759,5.30453422 C37.2064996,22.1476567 16.339081,49.60062 5.64602517,85.1701117 C5.07413288,87.0666208 3.38505565,87.7032112 1.86887609,86.4830795 C0.352696538,85.2629478 -0.405393241,82.6635368 0.219698331,80.7537654 C11.8038421,44.8792408 33.4293506,17.3334414 58.1005179,0.49031891 C59.3374012,-0.358468363 61.0397783,-0.0534354364 61.9042666,1.16669627 L62.5,1.16669627 L62.5,4.6432632 Z" id="path-11"></path>
        <filter x="-3.2%" y="-1.1%" width="106.4%" height="104.6%" filterUnits="objectBoundingBox" id="filter-12">
            <feOffset dx="0" dy="1" in="SourceAlpha" result="shadowOffsetOuter1"></feOffset>
            <feGaussianBlur stdDeviation="0.5" in="shadowOffsetOuter1" result="shadowBlurOuter1"></feGaussianBlur>
            <feColorMatrix values="0 0 0 0 0.0745098039   0 0 0 0 0.0784313725   0 0 0 0 0.0823529412  0 0 0 1 0" type="matrix" in="shadowBlurOuter1"></feColorMatrix>
        </filter>
        <path d="M66.6709488,133.328571 C29.8906532,133.328571 0,103.424592 0,66.6576226 C0,29.8906532 29.8906532,0 66.6709488,0 C103.451244,0 133.328571,29.9039794 133.328571,66.6709488 C133.328571,103.437918 103.424592,133.328571 66.6709488,133.328571 M66.6709488,5.98346113 C33.2088756,5.98346113 5.99678732,33.2088756 5.99678732,66.6709488 C5.99678732,100.133022 33.2088756,127.358436 66.684275,127.358436 C100.159674,127.358436 127.358436,100.133022 127.358436,66.6709488 C127.358436,33.2088756 100.133022,5.98346113 66.6709488,5.98346113" id="path-13"></path>
        <filter x="-3.8%" y="-3.0%" width="107.5%" height="107.5%" filterUnits="objectBoundingBox" id="filter-14">
            <feOffset dx="0" dy="1" in="SourceAlpha" result="shadowOffsetOuter1"></feOffset>
            <feGaussianBlur stdDeviation="1.5" in="shadowOffsetOuter1" result="shadowBlurOuter1"></feGaussianBlur>
            <feColorMatrix values="0 0 0 0 0   0 0 0 0 0   0 0 0 0 0  0 0 0 0.147836538 0" type="matrix" in="shadowBlurOuter1" result="shadowMatrixOuter1"></feColorMatrix>
            <feOffset dx="0" dy="1" in="SourceAlpha" result="shadowOffsetOuter2"></feOffset>
            <feGaussianBlur stdDeviation="0.5" in="shadowOffsetOuter2" result="shadowBlurOuter2"></feGaussianBlur>
            <feColorMatrix values="0 0 0 0 0   0 0 0 0 0   0 0 0 0 0  0 0 0 0.417340472 0" type="matrix" in="shadowBlurOuter2" result="shadowMatrixOuter2"></feColorMatrix>
            <feMerge>
                <feMergeNode in="shadowMatrixOuter1"></feMergeNode>
                <feMergeNode in="shadowMatrixOuter2"></feMergeNode>
            </feMerge>
        </filter>
    </defs>
    <g id="logo-full" stroke="none" stroke-width="1" fill="none" fill-rule="evenodd">
        <g id="text-light" transform="translate(164.000000, 36.000000)" fill="#FFFFFF" fill-rule="nonzero">
            <path d="M348.216,9.952 C346.039989,10.0800006 344.472005,10.3359981 343.512,10.72 C342.551995,11.1040019 341.896002,11.8399946 341.544,12.928 C341.191998,14.0160054 341.016,15.7759878 341.016,18.208 L341.016,65.824 C341.016,68.2560122 341.191998,70.0159946 341.544,71.104 C341.896002,72.1920054 342.551995,72.9279981 343.512,73.312 C344.472005,73.6960019 346.039989,73.9519994 348.216,74.08 L348.216,76 C345.079984,75.807999 340.216033,75.712 333.624,75.712 C327.159968,75.712 322.136018,75.807999 318.552,76 L318.552,74.08 C320.664011,73.9519994 322.215995,73.6960019 323.208,73.312 C324.200005,72.9279981 324.871998,72.1920054 325.224,71.104 C325.576002,70.0159946 325.752,68.2560122 325.752,65.824 L325.752,42.784 L300.312,42.784 L300.312,65.824 C300.312,68.2560122 300.487998,70.0159946 300.84,71.104 C301.192002,72.1920054 301.848,72.9279981 302.808,73.312 C303.768005,73.6960019 305.335989,73.9519994 307.512,74.08 L307.512,76 C304.055983,75.807999 299.224031,75.712 293.016,75.712 C286.167966,75.712 281.112016,75.807999 277.848,76 L277.848,74.08 C279.960011,73.9519994 281.511995,73.6960019 282.504,73.312 C283.496005,72.9279981 284.167998,72.1920054 284.52,71.104 C284.872002,70.0159946 285.048,68.2560122 285.048,65.824 L285.048,18.208 C285.048,15.7759878 284.872002,14.0160054 284.52,12.928 C284.167998,11.8399946 283.496005,11.1040019 282.504,10.72 C281.511995,10.3359981 279.960011,10.0800006 277.848,9.952 L277.848,8.032 C281.112016,8.22400096 286.167966,8.32 293.016,8.32 C299.224031,8.32 304.055983,8.22400096 307.512,8.032 L307.512,9.952 C305.335989,10.0800006 303.768005,10.3359981 302.808,10.72 C301.848,11.1040019 301.192002,11.8399946 300.84,12.928 C300.487998,14.0160054 300.312,15.7759878 300.312,18.208 L300.312,40.864 L325.752,40.864 L325.752,18.208 C325.752,15.7759878 325.576002,14.0160054 325.224,12.928 C324.871998,11.8399946 324.200005,11.1040019 323.208,10.72 C322.215995,10.3359981 320.664011,10.0800006 318.552,9.952 L318.552,8.032 C322.136018,8.22400096 327.159968,8.32 333.624,8.32 C340.216033,8.32 345.079984,8.22400096 348.216,8.032 L348.216,9.952 Z M374.632,25.024 C381.992037,25.024 387.751979,27.119979 391.912,31.312 C396.072021,35.504021 398.152,42.1439546 398.152,51.232 C398.152,60.3200454 396.072021,66.9439792 391.912,71.104 C387.751979,75.2640208 381.992037,77.344 374.632,77.344 C367.335964,77.344 361.592021,75.2640208 357.4,71.104 C353.207979,66.9439792 351.112,60.3200454 351.112,51.232 C351.112,42.1439546 353.207979,35.504021 357.4,31.312 C361.592021,27.119979 367.335964,25.024 374.632,25.024 Z M374.632,26.944 C371.879986,26.944 369.688008,28.94398 368.056,32.944 C366.423992,36.94402 365.608,43.039959 365.608,51.232 C365.608,59.424041 366.423992,65.5039802 368.056,69.472 C369.688008,73.4400198 371.879986,75.424 374.632,75.424 C377.448014,75.424 379.655992,73.4560197 381.256,69.52 C382.856008,65.5839803 383.656,59.4880413 383.656,51.232 C383.656,42.9759587 382.840008,36.8640198 381.208,32.896 C379.575992,28.9279802 377.384014,26.944 374.632,26.944 Z M479.288,67.072 C479.288,69.6960131 479.751995,71.503995 480.68,72.496 C481.608005,73.488005 483.191989,73.984 485.432,73.984 L485.432,76 C479.031968,75.7439987 474.80801,75.616 472.76,75.616 C470.967991,75.616 467.000031,75.7439987 460.856,76 L460.856,73.984 C462.584009,73.984 463.783997,73.5040048 464.456,72.544 C465.128003,71.5839952 465.464,69.7600134 465.464,67.072 L465.464,37.216 C465.464,34.5279866 465.064004,32.5280066 464.264,31.216 C463.463996,29.9039934 461.944011,29.248 459.704,29.248 C457.335988,29.248 455.272009,30.2399901 453.512,32.224 C451.751991,34.2080099 450.712002,36.6399856 450.392,39.52 L450.392,67.072 C450.392,69.6960131 450.791996,71.503995 451.592,72.496 C452.392004,73.488005 453.847989,73.984 455.96,73.984 L455.96,76 C449.815969,75.7439987 445.78401,75.616 443.864,75.616 C442.071991,75.616 438.104031,75.7439987 431.96,76 L431.96,73.984 C433.688009,73.984 434.887997,73.488005 435.56,72.496 C436.232003,71.503995 436.568,69.6960131 436.568,67.072 L436.568,37.216 C436.568,34.5279866 436.216004,32.5280066 435.512,31.216 C434.807996,29.9039934 433.43201,29.248 431.384,29.248 C428.823987,29.248 426.632009,30.3199893 424.808,32.464 C422.983991,34.6080107 422.072,37.2479843 422.072,40.384 L422.072,67.072 C422.072,69.6960131 422.407997,71.503995 423.08,72.496 C423.752003,73.488005 424.951991,73.984 426.68,73.984 L426.68,76 C421.047972,75.7439987 417.27201,75.616 415.352,75.616 C413.43199,75.616 409.016035,75.7439987 402.104,76 L402.104,73.984 C404.408012,73.984 406.007996,73.488005 406.904,72.496 C407.800004,71.503995 408.248,69.6960131 408.248,67.072 L408.248,36.832 C408.248,33.8879853 407.800004,31.7440067 406.904,30.4 C406.007996,29.0559933 404.408012,28.384 402.104,28.384 L402.104,26.368 C404.15201,26.560001 406.13599,26.656 408.056,26.656 C413.752028,26.656 418.423982,26.2080045 422.072,25.312 L422.072,33.952 C424.888014,27.9999702 429.847964,25.024 436.952,25.024 C441.816024,25.024 445.335989,26.2719875 447.512,28.768 C448.728006,30.0480064 449.527998,31.9679872 449.912,34.528 C451.576008,31.0719827 453.751987,28.6240072 456.44,27.184 C459.128013,25.7439928 462.263982,25.024 465.848,25.024 C470.712024,25.024 474.231989,26.2719875 476.408,28.768 C477.432005,29.9200058 478.167998,31.4879901 478.616,33.472 C479.064002,35.4560099 479.288,38.047984 479.288,41.248 L479.288,67.072 Z M515.208,69.472 C520.456026,69.472 524.679984,66.9120256 527.88,61.792 L529.608,62.368 C528.327994,66.5280208 526.040016,70.0639854 522.744,72.976 C519.447984,75.8880146 515.336025,77.344 510.408,77.344 C503.623966,77.344 498.23202,75.1840216 494.232,70.864 C490.23198,66.5439784 488.232,60.1600422 488.232,51.712 C488.232,43.0719568 490.375979,36.4640229 494.664,31.888 C498.952021,27.3119771 504.647964,25.024 511.752,25.024 C523.78406,25.024 529.8,32.127929 529.8,46.336 L502.824,46.336 C502.76,47.2960048 502.728,48.7999898 502.728,50.848 C502.728,55.0720211 503.319994,58.5919859 504.504,61.408 C505.688006,64.2240141 507.223991,66.2719936 509.112,67.552 C511.000009,68.8320064 513.031989,69.472 515.208,69.472 Z M511.176,27.04 C508.871988,27.04 506.968008,28.4639858 505.464,31.312 C503.959992,34.1600142 503.016002,38.5599702 502.632,44.512 L517.704,44.512 C517.832001,39.4559747 517.336006,35.2800165 516.216,31.984 C515.095994,28.6879835 513.416011,27.04 511.176,27.04 Z M552.376,25.024 C554.808012,25.024 557.04799,25.327997 559.096,25.936 C561.14401,26.544003 562.711995,27.2319962 563.8,28 C564.440003,28.4480022 565.015997,28.672 565.528,28.672 C566.104003,28.672 566.599998,28.368003 567.016,27.76 C567.432002,27.151997 567.703999,26.2720058 567.832,25.12 L569.848,25.12 C569.591999,28.3840163 569.464,34.01596 569.464,42.016 L567.448,42.016 C566.871997,37.7919789 565.60801,34.2560142 563.656,31.408 C561.70399,28.5599858 558.872019,27.136 555.16,27.136 C553.23999,27.136 551.656006,27.6799946 550.408,28.768 C549.159994,29.8560054 548.536,31.3599904 548.536,33.28 C548.536,35.4560109 549.271993,37.3279922 550.744,38.896 C552.216007,40.4640078 554.519984,42.3679888 557.656,44.608 L560.44,46.624 C564.34402,49.5680147 567.223991,52.1919885 569.08,54.496 C570.936009,56.8000115 571.864,59.6799827 571.864,63.136 C571.864,65.9520141 571.048008,68.4479891 569.416,70.624 C567.783992,72.8000109 565.592014,74.4639942 562.84,75.616 C560.087986,76.7680058 557.048017,77.344 553.72,77.344 C550.199982,77.344 547.192012,76.6720067 544.696,75.328 C542.64799,74.3039949 541.176004,73.6320016 540.28,73.312 C539.639997,73.119999 539.080002,73.327997 538.6,73.936 C538.119998,74.544003 537.752001,75.4559939 537.496,76.672 L535.48,76.672 C535.736001,73.0239818 535.864,66.6240458 535.864,57.472 L537.88,57.472 C539.160006,69.2480589 543.479963,75.136 550.84,75.136 C552.696009,75.136 554.279993,74.5760056 555.592,73.456 C556.904007,72.3359944 557.56,70.6240115 557.56,68.32 C557.56,66.527991 557.160004,64.928007 556.36,63.52 C555.559996,62.111993 554.552006,60.8640054 553.336,59.776 C552.119994,58.6879946 550.296012,57.1840096 547.864,55.264 C544.983986,52.9599885 542.792008,51.104007 541.288,49.696 C539.783992,48.287993 538.504005,46.6240096 537.448,44.704 C536.391995,42.7839904 535.864,40.6400118 535.864,38.272 C535.864,34.1759795 537.463984,30.9440118 540.664,28.576 C543.864016,26.2079882 547.767977,25.024 552.376,25.024 Z" id="Homes"></path>
            <path d="M60.364,67.936 C61.1960042,70.0480106 62.1559946,71.5839952 63.244,72.544 C64.3320054,73.5040048 65.3879949,74.0159997 66.412,74.08 L66.412,76 C62.5719808,75.807999 57.7080294,75.712 51.82,75.712 C45.2919674,75.712 40.428016,75.807999 37.228,76 L37.228,74.08 C39.6600122,73.9519994 41.3879949,73.6480024 42.412,73.168 C43.4360051,72.6879976 43.948,71.84 43.948,70.624 C43.948,69.4719942 43.5640038,67.9360096 42.796,66.016 L37.036,50.272 L16.108,50.272 L13.612,56.896 C11.819991,61.504023 10.924,65.0559875 10.924,67.552 C10.924,69.9200118 11.6439928,71.5679954 13.084,72.496 C14.5240072,73.4240046 16.6519859,73.9519994 19.468,74.08 L19.468,76 C15.1159782,75.807999 11.1480179,75.712 7.564,75.712 C4.61998528,75.712 2.1880096,75.807999 0.268,76 L0.268,74.08 C3.40401568,73.5039971 6.15598816,70.1440307 8.524,64 L30.412,7.84 C31.1160035,7.90400032 32.2359923,7.936 33.772,7.936 C35.3080077,7.936 36.3959968,7.90400032 37.036,7.84 L60.364,67.936 Z M36.364,48.352 L26.86,22.432 L16.876,48.352 L36.364,48.352 Z M85.628,67.072 C85.628,69.6960131 86.0759955,71.503995 86.972,72.496 C87.8680045,73.488005 89.4679885,73.984 91.772,73.984 L91.772,76 C85.1159667,75.7439987 80.8280096,75.616 78.908,75.616 C76.7319891,75.616 72.3160333,75.7439987 65.66,76 L65.66,73.984 C67.9000112,73.984 69.4839954,73.488005 70.412,72.496 C71.3400046,71.503995 71.804,69.6960131 71.804,67.072 L71.804,12.352 C71.804,9.40798528 71.3400046,7.26400672 70.412,5.92 C69.4839954,4.57599328 67.9000112,3.904 65.66,3.904 L65.66,1.888 C67.7080102,2.08000096 69.6919904,2.176 71.612,2.176 C77.1800278,2.176 81.8519811,1.72800448 85.628,0.832 L85.628,67.072 Z M128.364,25.024 C131.692017,25.024 134.651987,25.919991 137.244,27.712 C139.836013,29.504009 141.867993,32.1919821 143.34,35.776 C144.812007,39.3600179 145.548,43.7439741 145.548,48.928 C145.548,58.0800458 143.54802,65.1039755 139.548,70 C135.54798,74.8960245 130.124034,77.344 123.276,77.344 C121.35599,77.344 119.548008,77.0880026 117.852,76.576 C116.155992,76.0639974 114.700006,75.2960051 113.484,74.272 L113.484,83.872 C113.484,86.6880141 114.187993,88.6399946 115.596,89.728 C117.004007,90.8160054 119.179985,91.36 122.124,91.36 L122.124,93.376 L119.532,93.28 C112.427964,93.087999 107.91601,92.992 105.996,92.992 C104.07599,92.992 100.044031,93.1199987 93.9,93.376 L93.9,91.36 C96.0120106,91.36 97.4999957,90.8960046 98.364,89.968 C99.2280043,89.0399954 99.66,87.3280125 99.66,84.832 L99.66,36.832 C99.66,33.8879853 99.1960046,31.7440067 98.268,30.4 C97.3399954,29.0559933 95.7560112,28.384 93.516,28.384 L93.516,26.368 C95.5640102,26.560001 97.5479904,26.656 99.468,26.656 C105.036028,26.656 109.707981,26.2080045 113.484,25.312 L113.484,34.144 C114.828007,31.1999853 116.779987,28.9440078 119.34,27.376 C121.900013,25.8079922 124.907983,25.024 128.364,25.024 Z M119.532,74.752 C123.62802,74.752 126.571991,72.7200203 128.364,68.656 C130.156009,64.5919797 131.052,58.656039 131.052,50.848 C131.052,43.039961 130.332007,37.4720166 128.892,34.144 C127.451993,30.8159834 125.388013,29.152 122.7,29.152 C120.523989,29.152 118.588008,29.8879926 116.892,31.36 C115.195992,32.8320074 114.060003,34.8799869 113.484,37.504 L113.484,72.16 C115.020008,73.8880086 117.035988,74.752 119.532,74.752 Z M168.988,33.952 C171.868014,27.9999702 177.083962,25.024 184.636,25.024 C189.628025,25.024 193.14799,26.2719875 195.196,28.768 C196.284005,29.9840061 197.067998,31.5679902 197.548,33.52 C198.028002,35.4720098 198.268,38.047984 198.268,41.248 L198.268,67.072 C198.268,69.6960131 198.715996,71.503995 199.612,72.496 C200.508004,73.488005 202.107988,73.984 204.412,73.984 L204.412,76 C197.755967,75.7439987 193.532009,75.616 191.74,75.616 C189.563989,75.616 185.404031,75.7439987 179.26,76 L179.26,73.984 C181.18001,73.984 182.523996,73.488005 183.292,72.496 C184.060004,71.503995 184.444,69.6960131 184.444,67.072 L184.444,37.216 C184.444,34.5919869 184.012004,32.6080067 183.148,31.264 C182.283996,29.9199933 180.732011,29.248 178.492,29.248 C175.803987,29.248 173.548009,30.2879896 171.724,32.368 C169.899991,34.4480104 168.988,37.087984 168.988,40.288 L168.988,67.072 C168.988,69.6960131 169.371996,71.503995 170.14,72.496 C170.908004,73.488005 172.25199,73.984 174.172,73.984 L174.172,76 C168.027969,75.7439987 164.060009,75.616 162.268,75.616 C160.091989,75.616 155.676033,75.7439987 149.02,76 L149.02,73.984 C151.260011,73.984 152.843995,73.488005 153.772,72.496 C154.700005,71.503995 155.164,69.6960131 155.164,67.072 L155.164,12.448 C155.164,9.50398528 154.700005,7.36000672 153.772,6.016 C152.843995,4.67199328 151.260011,4 149.02,4 L149.02,1.984 C151.06801,2.17600096 153.05199,2.272 154.972,2.272 C160.540028,2.272 165.211981,1.82400448 168.988,0.928 L168.988,33.952 Z M218.54,76.672 C214.44398,76.672 211.38801,75.6160106 209.372,73.504 C207.35599,71.3919894 206.348,68.6080173 206.348,65.152 C206.348,62.2719856 207.099992,59.8880094 208.604,58 C210.108008,56.1119906 211.931989,54.6560051 214.076,53.632 C216.220011,52.6079949 218.955983,51.5200058 222.284,50.368 C225.804018,49.1519939 228.379992,48.048005 230.012,47.056 C231.644008,46.063995 232.46,44.7040086 232.46,42.976 L232.46,35.488 C232.46,32.7999866 231.836006,30.7040075 230.588,29.2 C229.339994,27.6959925 227.404013,26.944 224.78,26.944 C221.707985,26.944 219.372008,27.7119923 217.772,29.248 C219.564009,29.8880032 220.955995,30.8479936 221.948,32.128 C222.940005,33.4080064 223.436,34.9119914 223.436,36.64 C223.436,38.8160109 222.700007,40.5439936 221.228,41.824 C219.755993,43.1040064 217.964011,43.744 215.852,43.744 C213.611989,43.744 211.884006,43.040007 210.668,41.632 C209.451994,40.223993 208.844,38.4640106 208.844,36.352 C208.844,34.559991 209.275996,33.0400062 210.14,31.792 C211.004004,30.5439938 212.331991,29.3760054 214.124,28.288 C215.852009,27.2639949 217.979987,26.4640029 220.508,25.888 C223.036013,25.3119971 225.803985,25.024 228.812,25.024 C231.948016,25.024 234.667988,25.3439968 236.972,25.984 C239.276012,26.6240032 241.195992,27.7119923 242.732,29.248 C244.140007,30.656007 245.083998,32.3839898 245.564,34.432 C246.044002,36.4800102 246.284,39.2639824 246.284,42.784 L246.284,68.896 C246.284,70.4320077 246.427999,71.5199968 246.716,72.16 C247.004001,72.8000032 247.563996,73.12 248.396,73.12 C249.356005,73.12 250.507993,72.5760054 251.852,71.488 L252.812,73.12 C249.931986,75.4880118 246.412021,76.672 242.252,76.672 C238.731982,76.672 236.268007,75.968007 234.86,74.56 C233.451993,73.151993 232.716,71.2640118 232.652,68.896 C229.451984,74.0800259 224.748031,76.672 218.54,76.672 Z M225.932,70.528 C228.428012,70.528 230.603991,69.2160131 232.46,66.592 L232.46,46.912 C231.691996,48.1920064 230.060012,49.5999923 227.564,51.136 C225.067988,52.736008 223.180006,54.335992 221.9,55.936 C220.619994,57.536008 219.98,59.839985 219.98,62.848 C219.98,65.4720131 220.523995,67.4079938 221.612,68.656 C222.700005,69.9040062 224.139991,70.528 225.932,70.528 Z" id="Alpha"></path>
        </g>
        <g id="emblem-light">
            <g id="ah-logo" transform="translate(10.054286, 10.054286)">
                <g id="ah-logo-emblem" fill-rule="nonzero">
                    <g id="logo-core" transform="translate(4.199325, 1.399775)">
                        <g id="H-bottom">
                            <use fill="black" fill-opacity="1" filter="url(#filter-2)" xlink:href="#path-1"></use>
                            <use fill="#14A84E" xlink:href="#path-1"></use>
                        </g>
                        <g id="H-right">
                            <use fill="black" fill-opacity="1" filter="url(#filter-4)" xlink:href="#path-3"></use>
                            <use fill="#81B753" xlink:href="#path-3"></use>
                        </g>
                        <g id="H-left">
                            <use fill="black" fill-opacity="1" filter="url(#filter-6)" xlink:href="#path-5"></use>
                            <use fill="#AF6A3D" xlink:href="#path-5"></use>
                        </g>
                        <g id="A-cross">
                            <use fill="black" fill-opacity="1" filter="url(#filter-8)" xlink:href="#path-7"></use>
                            <use fill="#F64D54" xlink:href="#path-7"></use>
                        </g>
                        <g id="A-right">
                            <use fill="black" fill-opacity="1" filter="url(#filter-10)" xlink:href="#path-9"></use>
                            <use fill="#F0B573" xlink:href="#path-9"></use>
                        </g>
                        <g id="A-left">
                            <use fill="black" fill-opacity="1" filter="url(#filter-12)" xlink:href="#path-11"></use>
                            <use fill="#3DA5D9" xlink:href="#path-11"></use>
                        </g>
                    </g>
                    <g id="ring">
                        <use fill="black" fill-opacity="1" filter="url(#filter-14)" xlink:href="#path-13"></use>
                        <use fill="#FFFFFF" xlink:href="#path-13"></use>
                    </g>
                </g>
            </g>
        </g>
    </g>
</svg>