<?xml version="1.0" encoding="UTF-8"?>
<svg width="942px" height="156px" viewBox="0 0 942 156" version="1.1" xmlns="http://www.w3.org/2000/svg" xmlns:xlink="http://www.w3.org/1999/xlink">
    <!-- Generator: Sketch 55.1 (78136) - https://sketchapp.com -->
    <title>logo-full-transparent-dark</title>
    <desc>Created with Sketch.</desc>
    <defs>
        <path d="M124.475317,118.932029 C96.070098,140.316102 57.0224927,140.316102 28.6172739,118.932029 C26.9481802,117.67143 26.5041094,115.48844 27.5760044,114.212468 L28.5560228,113.028734 C29.6432306,111.737388 31.7104568,111.675895 33.2111098,112.798136 C58.8906526,132.137578 94.2172508,132.137578 119.896794,112.798136 C121.397447,111.675895 123.464673,111.737388 124.551881,113.028734 L125.531899,114.212468 C126.588481,115.503813 126.159723,117.67143 124.475317,118.932029" id="path-1"></path>
        <filter x="-2.0%" y="-4.4%" width="104.0%" height="117.4%" filterUnits="objectBoundingBox" id="filter-2">
            <feOffset dx="0" dy="1" in="SourceAlpha" result="shadowOffsetOuter1"></feOffset>
            <feGaussianBlur stdDeviation="0.5" in="shadowOffsetOuter1" result="shadowBlurOuter1"></feGaussianBlur>
            <feColorMatrix values="0 0 0 0 0   0 0 0 0 0   0 0 0 0 0  0 0 0 0.5 0" type="matrix" in="shadowBlurOuter1"></feColorMatrix>
        </filter>
        <path d="M39.6803659,140.107081 L39.5732566,140.107081 C41.3941155,139.204353 42.3427983,137.506002 41.7001422,136.312566 C31.5859594,117.691906 28.2196656,94.8330175 33.8352557,72.1730353 C34.1871864,70.7194915 32.9477783,68.9905395 31.01981,68.3326197 C29.0765404,67.6746999 27.1332707,68.4397229 26.9037507,69.571957 C20.6455044,93.9455908 24.0117983,118.655835 34.7839385,138.990147 C35.6561147,140.719099 37.7523976,141.009808 39.5885579,140.122381" id="path-3"></path>
        <filter x="-11.0%" y="-1.4%" width="122.1%" height="105.5%" filterUnits="objectBoundingBox" id="filter-4">
            <feOffset dx="0" dy="1" in="SourceAlpha" result="shadowOffsetOuter1"></feOffset>
            <feGaussianBlur stdDeviation="0.5" in="shadowOffsetOuter1" result="shadowBlurOuter1"></feGaussianBlur>
            <feColorMatrix values="0 0 0 0 0   0 0 0 0 0   0 0 0 0 0  0 0 0 0.5 0" type="matrix" in="shadowBlurOuter1"></feColorMatrix>
        </filter>
        <path d="M114.326443,140.117087 L114.326443,140.117087 C112.504837,139.213082 111.555765,137.512327 112.213992,136.332524 C122.317018,117.700828 125.684694,94.8555504 120.066799,72.1788156 C119.714724,70.7232144 120.954641,68.991815 122.8834,68.332964 L122.8834,68.332964 C124.81216,67.6741129 126.756227,68.4402188 127.001149,69.5740555 C133.261963,93.9515454 129.894288,118.666122 119.117727,138.998573 C118.2605,140.729972 116.163357,141.00577 114.326443,140.117087" id="path-5"></path>
        <filter x="-11.0%" y="-1.4%" width="122.1%" height="105.5%" filterUnits="objectBoundingBox" id="filter-6">
            <feOffset dx="0" dy="1" in="SourceAlpha" result="shadowOffsetOuter1"></feOffset>
            <feGaussianBlur stdDeviation="0.5" in="shadowOffsetOuter1" result="shadowBlurOuter1"></feGaussianBlur>
            <feColorMatrix values="0 0 0 0 0   0 0 0 0 0   0 0 0 0 0  0 0 0 0.5 0" type="matrix" in="shadowBlurOuter1"></feColorMatrix>
        </filter>
        <path d="M133.625655,77.9299729 C96.824494,65.7458723 57.0357281,65.7458723 20.2345669,77.9299729 C17.9823726,78.6762491 15.5156836,77.5644499 14.7343101,75.401772 C13.9529365,73.2390942 15.2245837,70.7718138 17.5993463,69.9950774 C56.1317862,57.2474621 97.7743991,57.2474621 136.306839,69.9950774 C138.681602,70.7870439 139.953249,73.2390942 139.171875,75.401772 C138.375181,77.5644499 135.908492,78.6762491 133.671618,77.9299729" id="path-7"></path>
        <filter x="-1.6%" y="-5.6%" width="103.2%" height="122.6%" filterUnits="objectBoundingBox" id="filter-8">
            <feOffset dx="0" dy="1" in="SourceAlpha" result="shadowOffsetOuter1"></feOffset>
            <feGaussianBlur stdDeviation="0.5" in="shadowOffsetOuter1" result="shadowBlurOuter1"></feGaussianBlur>
            <feColorMatrix values="0 0 0 0 0   0 0 0 0 0   0 0 0 0 0  0 0 0 0.5 0" type="matrix" in="shadowBlurOuter1"></feColorMatrix>
        </filter>
        <path d="M148.421698,94.9886127 C135.097566,53.5215909 110.179909,21.6392173 81.7704108,2.17854766 C80.3461071,1.18174425 78.3857752,1.5344593 77.3902941,2.96065495 L76.1191413,2.96065495 C75.1236603,1.54979474 73.1633283,1.19707968 71.7390246,2.17854766 C43.3295262,21.6545527 18.4271841,53.5062555 5.08773768,94.9886127 C4.36792829,97.1969157 5.24088862,100.202661 6.98680928,101.613522 C8.73272994,103.024382 10.6777468,102.288281 11.3362958,100.095313 C23.649631,58.9656711 47.6790127,27.2213164 75.3227565,7.74531131 C75.567798,7.5766215 75.7822093,7.36192538 75.9813055,7.13189383 C76.2110319,7.02454577 76.4560734,6.97853945 76.71643,6.97853945 C77.053362,6.97853945 77.374979,7.07055208 77.6506507,7.23924188 C77.8191167,7.42326713 78.0028978,7.59195694 78.2019941,7.74531131 C105.845738,27.2213164 129.87512,58.9656711 142.188455,100.095313 C142.847004,102.288281 144.792021,102.993711 146.537941,101.613522 C148.268547,100.217997 149.126192,97.1969157 148.421698,94.9886127" id="path-9"></path>
        <filter x="-1.4%" y="-1.0%" width="102.8%" height="104.0%" filterUnits="objectBoundingBox" id="filter-10">
            <feOffset dx="0" dy="1" in="SourceAlpha" result="shadowOffsetOuter1"></feOffset>
            <feGaussianBlur stdDeviation="0.5" in="shadowOffsetOuter1" result="shadowBlurOuter1"></feGaussianBlur>
            <feColorMatrix values="0 0 0 0 0   0 0 0 0 0   0 0 0 0 0  0 0 0 0.5 0" type="matrix" in="shadowBlurOuter1"></feColorMatrix>
        </filter>
        <path d="M76.7593161,153.503289 C34.413581,153.503289 0,119.074366 0,76.7439734 C0,34.413581 34.413581,0 76.7593161,0 C119.105051,0 153.503289,34.4289237 153.503289,76.7593161 C153.503289,119.089708 119.074366,153.503289 76.7593161,153.503289 M76.7593161,6.88885327 C38.2339028,6.88885327 6.90419593,38.2339028 6.90419593,76.7593161 C6.90419593,115.284729 38.2339028,146.629779 76.7746587,146.629779 C115.315415,146.629779 146.629779,115.284729 146.629779,76.7593161 C146.629779,38.2339028 115.284729,6.88885327 76.7593161,6.88885327" id="path-11"></path>
        <filter x="-1.3%" y="-0.7%" width="102.6%" height="102.6%" filterUnits="objectBoundingBox" id="filter-12">
            <feOffset dx="0" dy="1" in="SourceAlpha" result="shadowOffsetOuter1"></feOffset>
            <feGaussianBlur stdDeviation="0.5" in="shadowOffsetOuter1" result="shadowBlurOuter1"></feGaussianBlur>
            <feColorMatrix values="0 0 0 0 0   0 0 0 0 0   0 0 0 0 0  0 0 0 0.84650896 0" type="matrix" in="shadowBlurOuter1"></feColorMatrix>
        </filter>
    </defs>
    <g id="logo-full-transparent-dark" stroke="none" stroke-width="1" fill="none" fill-rule="evenodd">
        <g id="Group" transform="translate(1.000000, 0.000000)">
            <path d="M205.584981,63.3012434 L190.358164,100.325843 C190.059457,101.004997 189.622071,101.514355 189.045993,101.853933 C188.469915,102.19351 187.883178,102.363296 187.285764,102.363296 C186.090935,102.363296 185.173492,101.853938 184.533405,100.835206 C183.893318,99.8164743 183.829311,98.7340881 184.34138,97.588015 L202.327724,54.8651685 C202.967811,53.3795182 204.01327,52.6367041 205.464133,52.6367041 C207.000341,52.6367041 208.0458,53.3795182 208.600542,54.8651685 L226.650894,97.7153558 C227.120291,98.9038761 227.045616,99.9756507 226.426865,100.930712 C225.808115,101.885773 224.880003,102.363296 223.642502,102.363296 C223.002416,102.363296 222.394342,102.182898 221.818265,101.822097 C221.242187,101.461297 220.826137,100.96255 220.570102,100.325843 L205.584981,63.3012434 Z M190.678206,91.411985 L193.23854,85.9363296 L218.32981,85.9363296 L220.890144,91.411985 L190.678206,91.411985 Z M262.535571,102.363296 C261.596778,102.363296 260.818017,102.044947 260.199267,101.40824 C259.580517,100.771532 259.271146,99.9862718 259.271146,99.0524345 L259.271146,55.9475655 C259.271146,55.0137282 259.591185,54.2284676 260.231271,53.5917603 C260.871358,52.955053 261.63945,52.6367041 262.535571,52.6367041 C263.474365,52.6367041 264.263794,52.955053 264.90388,53.5917603 C265.543967,54.2284676 265.864005,55.0137282 265.864005,55.9475655 L265.864005,95.741573 L289.035025,95.741573 C289.973819,95.741573 290.763247,96.0599219 291.403334,96.6966292 C292.043421,97.3333365 292.363459,98.1185971 292.363459,99.0524345 C292.363459,99.9862718 292.043421,100.771532 291.403334,101.40824 C290.763247,102.044947 289.973819,102.363296 289.035025,102.363296 L262.535571,102.363296 Z M328.696195,102.363296 C327.757401,102.363296 326.967973,102.044947 326.327886,101.40824 C325.687799,100.771532 325.367761,99.9862718 325.367761,99.0524345 L325.367761,55.9475655 C325.367761,54.971281 325.687799,54.1754088 326.327886,53.5599251 C326.967973,52.9444414 327.757401,52.6367041 328.696195,52.6367041 L341.497863,52.6367041 C344.698296,52.6367041 347.535971,53.3370716 350.010973,54.7378277 C352.485974,56.1385838 354.416873,58.0805119 355.803728,60.5636704 C357.190582,63.0468289 357.883999,65.9013572 357.883999,69.1273408 C357.883999,72.225983 357.190582,74.9850066 355.803728,77.4044944 C354.416873,79.8239821 352.485974,81.7128521 350.010973,83.071161 C347.535971,84.42947 344.698296,85.1086142 341.497863,85.1086142 L332.024628,85.1086142 L332.024628,99.0524345 C332.024628,99.9862718 331.715258,100.771532 331.096507,101.40824 C330.477757,102.044947 329.677661,102.363296 328.696195,102.363296 Z M332.024628,78.9962547 L341.497863,78.9962547 C343.460795,78.9962547 345.189003,78.5717895 346.682539,77.7228464 C348.176074,76.8739034 349.349549,75.7066242 350.202998,74.2209738 C351.056447,72.7353234 351.483165,71.0374627 351.483165,69.1273408 C351.483165,67.0898775 351.056447,65.2965121 350.202998,63.747191 C349.349549,62.1978699 348.176074,60.9775325 346.682539,60.0861423 C345.189003,59.1947521 343.460795,58.7490637 341.497863,58.7490637 L332.024628,58.7490637 L332.024628,78.9962547 Z M393.576651,102.363296 C392.637857,102.363296 391.848429,102.044947 391.208342,101.40824 C390.568256,100.771532 390.248217,99.9862718 390.248217,99.0524345 L390.248217,55.9475655 C390.248217,54.971281 390.568256,54.1754088 391.208342,53.5599251 C391.848429,52.9444414 392.637857,52.6367041 393.576651,52.6367041 C394.558117,52.6367041 395.358213,52.9444414 395.976964,53.5599251 C396.595714,54.1754088 396.905085,54.971281 396.905085,55.9475655 L396.905085,74.2209738 L426.604956,74.2209738 L426.604956,55.9475655 C426.604956,54.971281 426.924994,54.1754088 427.565081,53.5599251 C428.205167,52.9444414 428.994596,52.6367041 429.933389,52.6367041 C430.914856,52.6367041 431.704284,52.9444414 432.301698,53.5599251 C432.899112,54.1754088 433.197815,54.971281 433.197815,55.9475655 L433.197815,99.0524345 C433.197815,99.9862718 432.899112,100.771532 432.301698,101.40824 C431.704284,102.044947 430.914856,102.363296 429.933389,102.363296 C428.994596,102.363296 428.205167,102.044947 427.565081,101.40824 C426.924994,100.771532 426.604956,99.9862718 426.604956,99.0524345 L426.604956,80.0786517 L396.905085,80.0786517 L396.905085,99.0524345 C396.905085,99.9862718 396.595714,100.771532 395.976964,101.40824 C395.358213,102.044947 394.558117,102.363296 393.576651,102.363296 Z M487.317701,63.3012434 L472.090884,100.325843 C471.792177,101.004997 471.354791,101.514355 470.778713,101.853933 C470.202635,102.19351 469.615898,102.363296 469.018484,102.363296 C467.823655,102.363296 466.906212,101.853938 466.266125,100.835206 C465.626038,99.8164743 465.562031,98.7340881 466.0741,97.588015 L484.060444,54.8651685 C484.700531,53.3795182 485.74599,52.6367041 487.196853,52.6367041 C488.733061,52.6367041 489.77852,53.3795182 490.333262,54.8651685 L508.383614,97.7153558 C508.853011,98.9038761 508.778336,99.9756507 508.159585,100.930712 C507.540835,101.885773 506.612723,102.363296 505.375222,102.363296 C504.735136,102.363296 504.127062,102.182898 503.550985,101.822097 C502.974907,101.461297 502.558856,100.96255 502.302822,100.325843 L487.317701,63.3012434 L487.317701,63.3012434 Z M472.410926,91.411985 L474.97126,85.9363296 L500.06253,85.9363296 L502.622864,91.411985 L472.410926,91.411985 Z M588.090003,102.363296 C587.151209,102.363296 586.361781,102.044947 585.721694,101.40824 C585.081608,100.771532 584.761569,99.9862718 584.761569,99.0524345 L584.761569,55.9475655 C584.761569,54.971281 585.081608,54.1754088 585.721694,53.5599251 C586.361781,52.9444414 587.151209,52.6367041 588.090003,52.6367041 C589.071469,52.6367041 589.871565,52.9444414 590.490316,53.5599251 C591.109066,54.1754088 591.418437,54.971281 591.418437,55.9475655 L591.418437,74.2209738 L621.118308,74.2209738 L621.118308,55.9475655 C621.118308,54.971281 621.438346,54.1754088 622.078433,53.5599251 C622.71852,52.9444414 623.507948,52.6367041 624.446742,52.6367041 C625.428208,52.6367041 626.217636,52.9444414 626.81505,53.5599251 C627.412464,54.1754088 627.711167,54.971281 627.711167,55.9475655 L627.711167,99.0524345 C627.711167,99.9862718 627.412464,100.771532 626.81505,101.40824 C626.217636,102.044947 625.428208,102.363296 624.446742,102.363296 C623.507948,102.363296 622.71852,102.044947 622.078433,101.40824 C621.438346,100.771532 621.118308,99.9862718 621.118308,99.0524345 L621.118308,80.0786517 L591.418437,80.0786517 L591.418437,99.0524345 C591.418437,99.9862718 591.109066,100.771532 590.490316,101.40824 C589.871565,102.044947 589.071469,102.363296 588.090003,102.363296 Z M688.623106,103 C684.867931,103 681.432851,102.373914 678.317763,101.121723 C675.202675,99.8695318 672.525019,98.1080014 670.284716,95.8370787 C668.044413,93.5661559 666.305537,90.8708021 665.068036,87.7509363 C663.830535,84.6310705 663.211794,81.2035143 663.211794,77.4681648 C663.211794,73.7328153 663.830535,70.3158707 665.068036,67.2172285 C666.305537,64.1185863 668.044413,61.4338441 670.284716,59.1629213 C672.525019,56.8919986 675.202675,55.1304682 678.317763,53.8782772 C681.432851,52.6260861 684.867931,52 688.623106,52 C692.378281,52 695.802693,52.6260861 698.896445,53.8782772 C701.990197,55.1304682 704.667853,56.8919986 706.929492,59.1629213 C709.191132,61.4338441 710.940675,64.1185863 712.178176,67.2172285 C713.415677,70.3158707 714.034418,73.7328153 714.034418,77.4681648 C714.034418,81.2035143 713.415677,84.6310705 712.178176,87.7509363 C710.940675,90.8708021 709.191132,93.5661559 706.929492,95.8370787 C704.667853,98.1080014 701.990197,99.8695318 698.896445,101.121723 C695.802693,102.373914 692.378281,103 688.623106,103 Z M688.623106,97.0149813 C691.396815,97.0149813 693.946455,96.5162347 696.272103,95.5187266 C698.597751,94.5212185 700.613994,93.1417067 702.320891,91.3801498 C704.027789,89.6185929 705.339947,87.5493252 706.257405,85.1722846 C707.174862,82.795244 707.633584,80.2272298 707.633584,77.4681648 C707.633584,74.7090998 707.174862,72.1410855 706.257405,69.7640449 C705.339947,67.3870043 704.027789,65.3177366 702.320891,63.5561798 C700.613994,61.7946229 698.597751,60.4257227 696.272103,59.4494382 C693.946455,58.4731537 691.396815,57.9850187 688.623106,57.9850187 C685.849397,57.9850187 683.299757,58.4731537 680.974109,59.4494382 C678.648461,60.4257227 676.642886,61.7946229 674.957325,63.5561798 C673.271764,65.3177366 671.959606,67.3870043 671.020812,69.7640449 C670.082018,72.1410855 669.612628,74.7090998 669.612628,77.4681648 C669.612628,80.2272298 670.082018,82.795244 671.020812,85.1722846 C671.959606,87.5493252 673.271764,89.6185929 674.957325,91.3801498 C676.642886,93.1417067 678.648461,94.5212185 680.974109,95.5187266 C683.299757,96.5162347 685.849397,97.0149813 688.623106,97.0149813 Z M774.741075,92.2736991 L793.252743,54.4194757 C793.935502,53.2309554 794.916954,52.6367041 796.197127,52.6367041 C797.135921,52.6367041 797.925349,52.9444414 798.565436,53.5599251 C799.205522,54.1754088 799.525561,54.971281 799.525561,55.9475655 L799.525561,99.0524345 C799.525561,99.9862718 799.194854,100.771532 798.533431,101.40824 C797.872009,102.044947 797.093248,102.363296 796.197127,102.363296 C795.258333,102.363296 794.468905,102.044947 793.828818,101.40824 C793.188732,100.771532 792.868693,99.9862718 792.868693,99.0524345 L792.868693,67.3931727 L777.378674,98.7977528 C776.653243,99.9013788 775.693127,100.453184 774.498299,100.453184 C773.090108,100.453184 772.065985,99.7952625 771.425898,98.4794007 L756.127904,67.98619 L756.127904,99.0524345 C756.127904,99.9862718 755.807866,100.771532 755.167779,101.40824 C754.527693,102.044947 753.738264,102.363296 752.799471,102.363296 C751.860677,102.363296 751.071249,102.044947 750.431162,101.40824 C749.791075,100.771532 749.471037,99.9862718 749.471037,99.0524345 L749.471037,55.9475655 C749.471037,54.971281 749.791075,54.1754088 750.431162,53.5599251 C751.071249,52.9444414 751.860677,52.6367041 752.799471,52.6367041 C754.079644,52.6367041 755.061095,53.2309554 755.743854,54.4194757 L774.741075,92.2736991 L774.741075,92.2736991 Z M840.658922,102.363296 C839.720128,102.363296 838.9307,102.044947 838.290613,101.40824 C837.650527,100.771532 837.330488,99.9862718 837.330488,99.0524345 L837.330488,55.9475655 C837.330488,54.971281 837.650527,54.1754088 838.290613,53.5599251 C838.9307,52.9444414 839.720128,52.6367041 840.658922,52.6367041 L869.590693,52.6367041 C870.572159,52.6367041 871.361587,52.9232181 871.959001,53.4962547 C872.556416,54.0692913 872.855118,54.8227169 872.855118,55.7565543 C872.855118,56.6479445 872.556416,57.3695353 871.959001,57.9213483 C871.361587,58.4731613 870.572159,58.7490637 869.590693,58.7490637 L843.987356,58.7490637 L843.987356,74.2209738 L862.35775,74.2209738 C863.339216,74.2209738 864.128645,74.5074878 864.726059,75.0805243 C865.323473,75.6535609 865.622176,76.3857633 865.622176,77.2771536 C865.622176,78.1685438 865.323473,78.9007462 864.726059,79.4737828 C864.128645,80.0468193 863.339216,80.3333333 862.35775,80.3333333 L843.987356,80.3333333 L843.987356,96.2509363 L869.590693,96.2509363 C870.572159,96.2509363 871.361587,96.5268387 871.959001,97.0786517 C872.556416,97.6304647 872.855118,98.3520555 872.855118,99.2434457 C872.855118,100.177283 872.556416,100.930709 871.959001,101.503745 C871.361587,102.076782 870.572159,102.363296 869.590693,102.363296 L840.658922,102.363296 Z M923.013656,103 C920.282619,103 917.67964,102.575535 915.204638,101.726592 C912.729636,100.877649 910.57471,99.6891462 908.739795,98.1610487 C906.90488,96.6329512 905.560719,94.8714207 904.70727,92.8764045 C904.280545,91.9850143 904.291213,91.1573072 904.739274,90.3932584 C905.187335,89.6292097 905.944759,89.1410747 907.01157,88.928839 C907.779674,88.7590503 908.537099,88.8757783 909.283866,89.2790262 C910.030634,89.6822742 910.596035,90.287137 910.980087,91.093633 C911.492157,92.1548118 912.334925,93.1310817 913.508417,94.0224719 C914.681909,94.9138621 916.100746,95.6354529 917.764972,96.1872659 C919.429197,96.7390789 921.178741,97.0149813 923.013656,97.0149813 C925.061933,97.0149813 926.95016,96.6966324 928.678394,96.0599251 C930.406628,95.4232178 931.804129,94.500006 932.87094,93.2902622 C933.937752,92.0805183 934.471149,90.5842786 934.471149,88.8014981 C934.471149,86.551799 933.585709,84.5355894 931.814803,82.752809 C930.043897,80.9700285 927.131546,79.8664191 923.077664,79.4419476 C917.786281,78.9325817 913.625781,77.3832839 910.596037,74.7940075 C907.566294,72.2047311 906.051445,69.0000191 906.051445,65.1797753 C906.051445,62.3782631 906.840873,60.0012582 908.419754,58.0486891 C909.998634,56.0961201 912.142892,54.610492 914.852592,53.5917603 C917.562292,52.5730286 920.581322,52.0636704 923.909773,52.0636704 C926.512791,52.0636704 928.785065,52.4244658 930.726661,53.1460674 C932.668257,53.867669 934.364461,54.8651622 935.815324,56.1385768 C937.266187,57.4119914 938.525005,58.9188427 939.591816,60.659176 C940.189231,61.5930134 940.434594,62.4737786 940.327912,63.3014981 C940.221231,64.1292176 939.805181,64.776527 939.07975,65.2434457 C938.268973,65.7528115 937.394201,65.8589278 936.455408,65.5617978 C935.516614,65.2646677 934.812529,64.712863 934.343132,63.906367 C933.660373,62.6753996 932.828273,61.6354599 931.846807,60.7865169 C930.865341,59.9375738 929.713202,59.2690411 928.390357,58.7808989 C927.067511,58.2927566 925.50999,58.0486891 923.717747,58.0486891 C920.559987,58.006242 917.914335,58.5898816 915.780713,59.7996255 C913.647091,61.0093693 912.580296,62.8664045 912.580296,65.3707865 C912.580296,66.6442011 912.911002,67.8645385 913.572425,69.0318352 C914.233848,70.1991319 915.449994,71.2072367 917.220901,72.0561798 C918.991807,72.9051228 921.541447,73.4993741 924.869898,73.8389513 C929.947918,74.3483172 933.905728,75.8870034 936.743445,78.4550562 C939.581163,81.023109 941,84.4082187 941,88.6104869 C941,91.0299746 940.498606,93.1310772 939.495804,94.9138577 C938.493002,96.6966381 937.14884,98.1928778 935.463278,99.4026217 C933.777717,100.612366 931.857486,101.514354 929.702528,102.108614 C927.547569,102.702874 925.317968,103 923.013656,103 Z" id="ah-logo-text" fill="#000000" fill-rule="nonzero"></path>
            <g id="ah-emblem-dark">
                <g id="ah-logo">
                    <g id="ah-logo-emblem">
                        <circle id="Oval" fill="#172F3F" cx="77.0032895" cy="78.0098684" r="75.4934211"></circle>
                        <g id="H-bottom" fill-rule="nonzero">
                            <use fill="black" fill-opacity="1" filter="url(#filter-2)" xlink:href="#path-1"></use>
                            <use fill="#F7CB64" xlink:href="#path-1"></use>
                        </g>
                        <g id="H-left" fill-rule="nonzero">
                            <use fill="black" fill-opacity="1" filter="url(#filter-4)" xlink:href="#path-3"></use>
                            <use fill="#B9B93C" xlink:href="#path-3"></use>
                        </g>
                        <g id="H-right" fill-rule="nonzero">
                            <use fill="black" fill-opacity="1" filter="url(#filter-6)" xlink:href="#path-5"></use>
                            <use fill="#DF4430" xlink:href="#path-5"></use>
                        </g>
                        <g id="A-cross" fill-rule="nonzero">
                            <use fill="black" fill-opacity="1" filter="url(#filter-8)" xlink:href="#path-7"></use>
                            <use fill="#3F836C" xlink:href="#path-7"></use>
                        </g>
                        <g id="A-top" fill-rule="nonzero">
                            <use fill="black" fill-opacity="1" filter="url(#filter-10)" xlink:href="#path-9"></use>
                            <use fill="#0FBDB4" xlink:href="#path-9"></use>
                        </g>
                        <g id="ring" fill-rule="nonzero">
                            <use fill="black" fill-opacity="1" filter="url(#filter-12)" xlink:href="#path-11"></use>
                            <use fill="#DADADA" xlink:href="#path-11"></use>
                        </g>
                    </g>
                </g>
            </g>
        </g>
    </g>
</svg>