<?xml version="1.0" encoding="UTF-8"?>
<svg width="757px" height="445px" viewBox="0 0 757 445" version="1.1" xmlns="http://www.w3.org/2000/svg" xmlns:xlink="http://www.w3.org/1999/xlink">
    <!-- Generator: Sketch 55.1 (78136) - https://sketchapp.com -->
    <title>ah-logo-full</title>
    <desc>Created with Sketch.</desc>
    <defs>
        <path d="M247.323505,236.309392 C190.884378,278.798007 113.299593,278.798007 56.8604658,236.309392 C53.5440966,233.804671 52.6617598,229.467228 54.7915382,226.931962 L56.7387642,224.579968 C58.898968,222.014157 63.0063978,221.891975 65.9880875,224.121787 C117.011493,262.547868 187.202904,262.547868 238.226309,224.121787 C241.207999,221.891975 245.315428,222.014157 247.475632,224.579968 L249.422858,226.931962 C251.522211,229.497773 250.6703,233.804671 247.323505,236.309392" id="path-1"></path>
        <filter x="-3.6%" y="-11.0%" width="107.1%" height="130.7%" filterUnits="objectBoundingBox" id="filter-2">
            <feOffset dx="0" dy="2" in="SourceAlpha" result="shadowOffsetOuter1"></feOffset>
            <feGaussianBlur stdDeviation="2" in="shadowOffsetOuter1" result="shadowBlurOuter1"></feGaussianBlur>
            <feColorMatrix values="0 0 0 0 0   0 0 0 0 0   0 0 0 0 0  0 0 0 0.5 0" type="matrix" in="shadowBlurOuter1"></feColorMatrix>
        </filter>
        <path d="M78.8420342,278.382696 L78.6292156,278.382696 C82.2471314,276.589042 84.132096,273.21454 82.8551845,270.843269 C62.7590304,233.845355 56.0704466,188.426388 67.2282205,143.402632 C67.9274815,140.514545 65.4648666,137.079242 61.6341322,135.772002 C57.7729952,134.464763 53.9118582,135.984809 53.4558184,138.234477 C41.021133,186.663135 47.7097168,235.760613 69.113185,276.163429 C70.8461363,279.598733 75.0112999,280.17635 78.6596183,278.413097" id="path-3"></path>
        <filter x="-19.4%" y="-3.5%" width="138.9%" height="109.7%" filterUnits="objectBoundingBox" id="filter-4">
            <feOffset dx="0" dy="2" in="SourceAlpha" result="shadowOffsetOuter1"></feOffset>
            <feGaussianBlur stdDeviation="2" in="shadowOffsetOuter1" result="shadowBlurOuter1"></feGaussianBlur>
            <feColorMatrix values="0 0 0 0 0   0 0 0 0 0   0 0 0 0 0  0 0 0 0.5 0" type="matrix" in="shadowBlurOuter1"></feColorMatrix>
        </filter>
        <path d="M227.158423,278.402579 L227.158423,278.402579 C223.539022,276.606386 221.653284,273.227108 222.961135,270.882924 C243.035122,233.863084 249.726451,188.471159 238.564097,143.414117 C237.864549,140.521942 240.328175,137.081776 244.160481,135.772687 L244.160481,135.772687 C247.992788,134.463597 251.85551,135.985794 252.342152,138.238646 C264.781941,186.674966 258.090612,235.781053 236.678359,276.180171 C234.975112,279.620337 230.808239,280.168328 227.158423,278.402579" id="path-5"></path>
        <filter x="-19.4%" y="-3.5%" width="138.9%" height="109.7%" filterUnits="objectBoundingBox" id="filter-6">
            <feOffset dx="0" dy="2" in="SourceAlpha" result="shadowOffsetOuter1"></feOffset>
            <feGaussianBlur stdDeviation="2" in="shadowOffsetOuter1" result="shadowBlurOuter1"></feGaussianBlur>
            <feColorMatrix values="0 0 0 0 0   0 0 0 0 0   0 0 0 0 0  0 0 0 0.5 0" type="matrix" in="shadowBlurOuter1"></feColorMatrix>
        </filter>
        <path d="M265.50457,154.841253 C192.383308,130.632321 113.325891,130.632321 40.2046296,154.841253 C35.7296815,156.32405 30.8285478,154.114985 29.2760148,149.8179 C27.7234817,145.520815 30.2501531,140.618506 34.9686359,139.075186 C111.529824,113.746591 194.270701,113.746591 270.831889,139.075186 C275.550372,140.648767 278.077043,145.520815 276.52451,149.8179 C274.941535,154.114985 270.040402,156.32405 265.595895,154.841253" id="path-7"></path>
        <filter x="-2.8%" y="-14.2%" width="105.6%" height="139.7%" filterUnits="objectBoundingBox" id="filter-8">
            <feOffset dx="0" dy="2" in="SourceAlpha" result="shadowOffsetOuter1"></feOffset>
            <feGaussianBlur stdDeviation="2" in="shadowOffsetOuter1" result="shadowBlurOuter1"></feGaussianBlur>
            <feColorMatrix values="0 0 0 0 0   0 0 0 0 0   0 0 0 0 0  0 0 0 0.5 0" type="matrix" in="shadowBlurOuter1"></feColorMatrix>
        </filter>
        <path d="M294.903243,188.735544 C268.429152,106.343553 218.919558,42.995569 162.471927,4.32861756 C159.641938,2.34804086 155.7469,3.04886031 153.76895,5.88260852 L151.243261,5.88260852 C149.265312,3.07933072 145.370273,2.37851127 142.540284,4.32861756 C86.0926533,43.0260394 36.61349,106.313083 10.108969,188.735544 C8.67875948,193.123283 10.4132689,199.095484 13.8822877,201.898762 C17.3513065,204.70204 21.2159152,203.23946 22.5244048,198.882191 C46.9901165,117.160549 94.7347703,54.0867985 149.660902,15.3893767 C150.147782,15.0542022 150.573801,14.6276164 150.969391,14.1705603 C151.425841,13.9572674 151.912721,13.8658562 152.430031,13.8658562 C153.099491,13.8658562 153.73852,14.0486786 154.28626,14.3838532 C154.62099,14.7494981 154.98615,15.0846726 155.38174,15.3893767 C210.307871,54.0867985 258.052525,117.160549 282.518237,198.882191 C283.826726,203.23946 287.691335,204.641099 291.160354,201.898762 C294.598943,199.125954 296.303022,193.123283 294.903243,188.735544" id="path-9"></path>
        <filter x="-2.4%" y="-2.5%" width="104.9%" height="107.0%" filterUnits="objectBoundingBox" id="filter-10">
            <feOffset dx="0" dy="2" in="SourceAlpha" result="shadowOffsetOuter1"></feOffset>
            <feGaussianBlur stdDeviation="2" in="shadowOffsetOuter1" result="shadowBlurOuter1"></feGaussianBlur>
            <feColorMatrix values="0 0 0 0 0   0 0 0 0 0   0 0 0 0 0  0 0 0 0.5 0" type="matrix" in="shadowBlurOuter1"></feColorMatrix>
        </filter>
        <path d="M152.515242,305 C68.3773113,305 0,236.592204 0,152.484758 C0,68.3773113 68.3773113,0 152.515242,0 C236.653173,0 305,68.4077961 305,152.515242 C305,236.622689 236.592204,305 152.515242,305 M152.515242,13.6876562 C75.968016,13.6876562 13.7181409,75.968016 13.7181409,152.515242 C13.7181409,229.062469 75.968016,291.342829 152.545727,291.342829 C229.123438,291.342829 291.342829,229.062469 291.342829,152.515242 C291.342829,75.968016 229.062469,13.6876562 152.515242,13.6876562" id="path-11"></path>
        <filter x="-2.3%" y="-1.6%" width="104.6%" height="104.6%" filterUnits="objectBoundingBox" id="filter-12">
            <feOffset dx="0" dy="2" in="SourceAlpha" result="shadowOffsetOuter1"></feOffset>
            <feGaussianBlur stdDeviation="2" in="shadowOffsetOuter1" result="shadowBlurOuter1"></feGaussianBlur>
            <feColorMatrix values="0 0 0 0 0   0 0 0 0 0   0 0 0 0 0  0 0 0 0.5 0" type="matrix" in="shadowBlurOuter1"></feColorMatrix>
        </filter>
    </defs>
    <g id="ah-logo-full" stroke="none" stroke-width="1" fill="none" fill-rule="evenodd">
        <path d="M21.5821674,404.359744 L6.35733544,441.576 C6.05866728,442.25867 5.62133832,442.770665 5.04533544,443.112 C4.46933256,443.453335 3.88267176,443.624 3.28533544,443.624 C2.0906628,443.624 1.17333864,443.112005 0.53333544,442.088 C-0.10666776,441.063995 -0.17066712,439.976006 0.34133544,438.824 L18.3253354,395.88 C18.9653386,394.386659 20.0106615,393.64 21.4613354,393.64 C22.9973431,393.64 24.042666,394.386659 24.5973354,395.88 L42.6453354,438.952 C43.1146711,440.146673 43.0400052,441.223995 42.4213354,442.184 C41.8026657,443.144005 40.874675,443.624 39.6373354,443.624 C38.9973322,443.624 38.3893383,443.442668 37.8133354,443.08 C37.2373326,442.717332 36.8213367,442.216003 36.5653354,441.576 L21.5821674,404.359744 Z M6.67733544,432.616 L9.23733544,427.112 L34.3253354,427.112 L36.8853354,432.616 L6.67733544,432.616 Z M78.5253354,443.624 C77.5866641,443.624 76.8080052,443.304003 76.1893354,442.664 C75.5706657,442.023997 75.2613354,441.234671 75.2613354,440.296 L75.2613354,396.968 C75.2613354,396.029329 75.5813322,395.240003 76.2213354,394.6 C76.8613386,393.959997 77.629331,393.64 78.5253354,393.64 C79.4640068,393.64 80.2533322,393.959997 80.8933354,394.6 C81.5333386,395.240003 81.8533354,396.029329 81.8533354,396.968 L81.8533354,436.968 L105.021335,436.968 C105.960007,436.968 106.749332,437.287997 107.389335,437.928 C108.029339,438.568003 108.349335,439.357329 108.349335,440.296 C108.349335,441.234671 108.029339,442.023997 107.389335,442.664 C106.749332,443.304003 105.960007,443.624 105.021335,443.624 L78.5253354,443.624 Z M144.677335,443.624 C143.738664,443.624 142.949339,443.304003 142.309335,442.664 C141.669332,442.023997 141.349335,441.234671 141.349335,440.296 L141.349335,396.968 C141.349335,395.986662 141.669332,395.18667 142.309335,394.568 C142.949339,393.94933 143.738664,393.64 144.677335,393.64 L157.477335,393.64 C160.677351,393.64 163.514656,394.343993 165.989335,395.752 C168.464014,397.160007 170.394662,399.111988 171.781335,401.608 C173.168009,404.104012 173.861335,406.973317 173.861335,410.216 C173.861335,413.330682 173.168009,416.103988 171.781335,418.536 C170.394662,420.968012 168.464014,422.86666 165.989335,424.232 C163.514656,425.59734 160.677351,426.28 157.477335,426.28 L148.005335,426.28 L148.005335,440.296 C148.005335,441.234671 147.696005,442.023997 147.077335,442.664 C146.458666,443.304003 145.658674,443.624 144.677335,443.624 Z M148.005335,420.136 L157.477335,420.136 C159.440012,420.136 161.167995,419.709338 162.661335,418.856 C164.154676,418.002662 165.327998,416.829341 166.181335,415.336 C167.034673,413.842659 167.461335,412.13601 167.461335,410.216 C167.461335,408.16799 167.034673,406.365341 166.181335,404.808 C165.327998,403.250659 164.154676,402.024004 162.661335,401.128 C161.167995,400.231996 159.440012,399.784 157.477335,399.784 L148.005335,399.784 L148.005335,420.136 Z M209.549335,443.624 C208.610664,443.624 207.821339,443.304003 207.181335,442.664 C206.541332,442.023997 206.221335,441.234671 206.221335,440.296 L206.221335,396.968 C206.221335,395.986662 206.541332,395.18667 207.181335,394.568 C207.821339,393.94933 208.610664,393.64 209.549335,393.64 C210.530674,393.64 211.330666,393.94933 211.949335,394.568 C212.568005,395.18667 212.877335,395.986662 212.877335,396.968 L212.877335,415.336 L242.573335,415.336 L242.573335,396.968 C242.573335,395.986662 242.893332,395.18667 243.533335,394.568 C244.173339,393.94933 244.962664,393.64 245.901335,393.64 C246.882674,393.64 247.671999,393.94933 248.269335,394.568 C248.866672,395.18667 249.165335,395.986662 249.165335,396.968 L249.165335,440.296 C249.165335,441.234671 248.866672,442.023997 248.269335,442.664 C247.671999,443.304003 246.882674,443.624 245.901335,443.624 C244.962664,443.624 244.173339,443.304003 243.533335,442.664 C242.893332,442.023997 242.573335,441.234671 242.573335,440.296 L242.573335,421.224 L212.877335,421.224 L212.877335,440.296 C212.877335,441.234671 212.568005,442.023997 211.949335,442.664 C211.330666,443.304003 210.530674,443.624 209.549335,443.624 Z M303.278167,404.359744 L288.053335,441.576 C287.754667,442.25867 287.317338,442.770665 286.741335,443.112 C286.165333,443.453335 285.578672,443.624 284.981335,443.624 C283.786663,443.624 282.869339,443.112005 282.229335,442.088 C281.589332,441.063995 281.525333,439.976006 282.037335,438.824 L300.021335,395.88 C300.661339,394.386659 301.706662,393.64 303.157335,393.64 C304.693343,393.64 305.738666,394.386659 306.293335,395.88 L324.341335,438.952 C324.810671,440.146673 324.736005,441.223995 324.117335,442.184 C323.498666,443.144005 322.570675,443.624 321.333335,443.624 C320.693332,443.624 320.085338,443.442668 319.509335,443.08 C318.933333,442.717332 318.517337,442.216003 318.261335,441.576 L303.278167,404.359744 L303.278167,404.359744 Z M288.373335,432.616 L290.933335,427.112 L316.021335,427.112 L318.581335,432.616 L288.373335,432.616 Z M404.037335,443.624 C403.098664,443.624 402.309339,443.304003 401.669335,442.664 C401.029332,442.023997 400.709335,441.234671 400.709335,440.296 L400.709335,396.968 C400.709335,395.986662 401.029332,395.18667 401.669335,394.568 C402.309339,393.94933 403.098664,393.64 404.037335,393.64 C405.018674,393.64 405.818666,393.94933 406.437335,394.568 C407.056005,395.18667 407.365335,395.986662 407.365335,396.968 L407.365335,415.336 L437.061335,415.336 L437.061335,396.968 C437.061335,395.986662 437.381332,395.18667 438.021335,394.568 C438.661339,393.94933 439.450664,393.64 440.389335,393.64 C441.370674,393.64 442.159999,393.94933 442.757335,394.568 C443.354672,395.18667 443.653335,395.986662 443.653335,396.968 L443.653335,440.296 C443.653335,441.234671 443.354672,442.023997 442.757335,442.664 C442.159999,443.304003 441.370674,443.624 440.389335,443.624 C439.450664,443.624 438.661339,443.304003 438.021335,442.664 C437.381332,442.023997 437.061335,441.234671 437.061335,440.296 L437.061335,421.224 L407.365335,421.224 L407.365335,440.296 C407.365335,441.234671 407.056005,442.023997 406.437335,442.664 C405.818666,443.304003 405.018674,443.624 404.037335,443.624 Z M504.557335,444.264 C500.80265,444.264 497.368018,443.634673 494.253335,442.376 C491.138653,441.117327 488.461347,439.346678 486.221335,437.064 C483.981324,434.781322 482.242675,432.072016 481.005335,428.936 C479.767996,425.799984 479.149335,422.354685 479.149335,418.6 C479.149335,414.845315 479.767996,411.410682 481.005335,408.296 C482.242675,405.181318 483.981324,402.482678 486.221335,400.2 C488.461347,397.917322 491.138653,396.146673 494.253335,394.888 C497.368018,393.629327 500.80265,393 504.557335,393 C508.312021,393 511.735987,393.629327 514.829335,394.888 C517.922684,396.146673 520.599991,397.917322 522.861335,400.2 C525.12268,402.482678 526.871996,405.181318 528.109335,408.296 C529.346675,411.410682 529.965335,414.845315 529.965335,418.6 C529.965335,422.354685 529.346675,425.799984 528.109335,428.936 C526.871996,432.072016 525.12268,434.781322 522.861335,437.064 C520.599991,439.346678 517.922684,441.117327 514.829335,442.376 C511.735987,443.634673 508.312021,444.264 504.557335,444.264 Z M504.557335,438.248 C507.330683,438.248 509.87999,437.746672 512.205335,436.744 C514.53068,435.741328 516.54666,434.354676 518.253335,432.584 C519.960011,430.813324 521.271998,428.733345 522.189335,426.344 C523.106673,423.954655 523.565335,421.373347 523.565335,418.6 C523.565335,415.826653 523.106673,413.245345 522.189335,410.856 C521.271998,408.466655 519.960011,406.386676 518.253335,404.616 C516.54666,402.845324 514.53068,401.469338 512.205335,400.488 C509.87999,399.506662 507.330683,399.016 504.557335,399.016 C501.783988,399.016 499.23468,399.506662 496.909335,400.488 C494.58399,401.469338 492.578677,402.845324 490.893335,404.616 C489.207994,406.386676 487.896007,408.466655 486.957335,410.856 C486.018664,413.245345 485.549335,415.826653 485.549335,418.6 C485.549335,421.373347 486.018664,423.954655 486.957335,426.344 C487.896007,428.733345 489.207994,430.813324 490.893335,432.584 C492.578677,434.354676 494.58399,435.741328 496.909335,436.744 C499.23468,437.746672 501.783988,438.248 504.557335,438.248 Z M590.66408,433.482175 L609.173335,395.432 C609.856006,394.237327 610.837329,393.64 612.117335,393.64 C613.056007,393.64 613.845332,393.94933 614.485335,394.568 C615.125339,395.18667 615.445335,395.986662 615.445335,396.968 L615.445335,440.296 C615.445335,441.234671 615.114672,442.023997 614.453335,442.664 C613.791999,443.304003 613.01334,443.624 612.117335,443.624 C611.178664,443.624 610.389339,443.304003 609.749335,442.664 C609.109332,442.023997 608.789335,441.234671 608.789335,440.296 L608.789335,408.472855 L593.301335,440.04 C592.575998,441.149339 591.616008,441.704 590.421335,441.704 C589.013328,441.704 587.989339,441.042673 587.349335,439.72 L572.053335,409.068942 L572.053335,440.296 C572.053335,441.234671 571.733339,442.023997 571.093335,442.664 C570.453332,443.304003 569.664007,443.624 568.725335,443.624 C567.786664,443.624 566.997339,443.304003 566.357335,442.664 C565.717332,442.023997 565.397335,441.234671 565.397335,440.296 L565.397335,396.968 C565.397335,395.986662 565.717332,395.18667 566.357335,394.568 C566.997339,393.94933 567.786664,393.64 568.725335,393.64 C570.005342,393.64 570.986665,394.237327 571.669335,395.432 L590.66408,433.482175 L590.66408,433.482175 Z M656.573335,443.624 C655.634664,443.624 654.845339,443.304003 654.205335,442.664 C653.565332,442.023997 653.245335,441.234671 653.245335,440.296 L653.245335,396.968 C653.245335,395.986662 653.565332,395.18667 654.205335,394.568 C654.845339,393.94933 655.634664,393.64 656.573335,393.64 L685.501335,393.64 C686.482674,393.64 687.271999,393.927997 687.869335,394.504 C688.466672,395.080003 688.765335,395.837329 688.765335,396.776 C688.765335,397.672004 688.466672,398.397331 687.869335,398.952 C687.271999,399.506669 686.482674,399.784 685.501335,399.784 L659.901335,399.784 L659.901335,415.336 L678.269335,415.336 C679.250674,415.336 680.039999,415.623997 680.637335,416.2 C681.234672,416.776003 681.533335,417.511996 681.533335,418.408 C681.533335,419.304004 681.234672,420.039997 680.637335,420.616 C680.039999,421.192003 679.250674,421.48 678.269335,421.48 L659.901335,421.48 L659.901335,437.48 L685.501335,437.48 C686.482674,437.48 687.271999,437.757331 687.869335,438.312 C688.466672,438.866669 688.765335,439.591996 688.765335,440.488 C688.765335,441.426671 688.466672,442.183997 687.869335,442.76 C687.271999,443.336003 686.482674,443.624 685.501335,443.624 L656.573335,443.624 Z M738.917335,444.264 C736.186655,444.264 733.584014,443.837338 731.109335,442.984 C728.634656,442.130662 726.480011,440.936008 724.645335,439.4 C722.81066,437.863992 721.466673,436.093343 720.613335,434.088 C720.186667,433.191996 720.197333,432.360004 720.645335,431.592 C721.093338,430.823996 721.850663,430.333334 722.917335,430.12 C723.685339,429.949332 724.442665,430.066665 725.189335,430.472 C725.936006,430.877335 726.501334,431.485329 726.885335,432.296 C727.397338,433.362672 728.239996,434.343996 729.413335,435.24 C730.586675,436.136004 732.005327,436.861331 733.669335,437.416 C735.333344,437.970669 737.08266,438.248 738.917335,438.248 C740.965346,438.248 742.853327,437.928003 744.581335,437.288 C746.309344,436.647997 747.706663,435.720006 748.773335,434.504 C749.840007,433.287994 750.373335,431.784009 750.373335,429.992 C750.373335,427.730655 749.488011,425.704009 747.717335,423.912 C745.94666,422.119991 743.034689,421.010669 738.981335,420.584 C733.690642,420.071997 729.530684,418.51468 726.501335,415.912 C723.471987,413.30932 721.957335,410.088019 721.957335,406.248 C721.957335,403.431986 722.746661,401.042676 724.325335,399.08 C725.90401,397.117324 728.047989,395.624005 730.757335,394.6 C733.466682,393.575995 736.485319,393.064 739.813335,393.064 C742.416015,393.064 744.687992,393.426663 746.629335,394.152 C748.570678,394.877337 750.266662,395.879994 751.717335,397.16 C753.168009,398.440006 754.426663,399.954658 755.493335,401.704 C756.090672,402.642671 756.336003,403.527996 756.229335,404.36 C756.122668,405.192004 755.706672,405.842664 754.981335,406.312 C754.170665,406.824003 753.296007,406.930668 752.357335,406.632 C751.418664,406.333332 750.714671,405.778671 750.245335,404.968 C749.562665,403.73066 748.730674,402.685338 747.749335,401.832 C746.767997,400.978662 745.616009,400.306669 744.293335,399.816 C742.970662,399.325331 741.413344,399.08 739.621335,399.08 C736.463986,399.037333 733.818679,399.623994 731.685335,400.84 C729.551991,402.056006 728.485335,403.922654 728.485335,406.44 C728.485335,407.720006 728.815999,408.946661 729.477335,410.12 C730.138672,411.293339 731.35466,412.306662 733.125335,413.16 C734.896011,414.013338 737.445319,414.610665 740.773335,414.952 C745.850694,415.464003 749.807988,417.010654 752.645335,419.592 C755.482683,422.173346 756.901335,425.575979 756.901335,429.8 C756.901335,432.232012 756.400007,434.343991 755.397335,436.136 C754.394664,437.928009 753.050677,439.431994 751.365335,440.648 C749.679994,441.864006 747.760013,442.770664 745.605335,443.368 C743.450658,443.965336 741.221347,444.264 738.917335,444.264 Z" id="ah-logo-text" fill="#FFFFFF" fill-rule="nonzero"></path>
        <g id="ah-emblem" transform="translate(228.000000, 2.000000)">
            <g id="ah-logo">
                <g id="ah-logo-emblem" fill-rule="nonzero">
                    <g id="H-bottom">
                        <use fill="black" fill-opacity="1" filter="url(#filter-2)" xlink:href="#path-1"></use>
                        <use fill="#F7CB64" xlink:href="#path-1"></use>
                    </g>
                    <g id="H-left">
                        <use fill="black" fill-opacity="1" filter="url(#filter-4)" xlink:href="#path-3"></use>
                        <use fill="#B9B93C" xlink:href="#path-3"></use>
                    </g>
                    <g id="H-right">
                        <use fill="black" fill-opacity="1" filter="url(#filter-6)" xlink:href="#path-5"></use>
                        <use fill="#DF4430" xlink:href="#path-5"></use>
                    </g>
                    <g id="A-cross">
                        <use fill="black" fill-opacity="1" filter="url(#filter-8)" xlink:href="#path-7"></use>
                        <use fill="#3F836C" xlink:href="#path-7"></use>
                    </g>
                    <g id="A-top">
                        <use fill="black" fill-opacity="1" filter="url(#filter-10)" xlink:href="#path-9"></use>
                        <use fill="#0FBDB4" xlink:href="#path-9"></use>
                    </g>
                    <g id="ring">
                        <use fill="black" fill-opacity="1" filter="url(#filter-12)" xlink:href="#path-11"></use>
                        <use fill="#FFFFFF" xlink:href="#path-11"></use>
                    </g>
                </g>
            </g>
        </g>
    </g>
</svg>