<?xml version="1.0" encoding="UTF-8"?>
<svg width="757px" height="52px" viewBox="0 0 757 52" version="1.1" xmlns="http://www.w3.org/2000/svg" xmlns:xlink="http://www.w3.org/1999/xlink">
    <!-- Generator: Sketch 55.1 (78136) - https://sketchapp.com -->
    <title>logo-text</title>
    <desc>Created with Sketch.</desc>
    <g id="logo-text" stroke="none" stroke-width="1" fill="none" fill-rule="evenodd">
        <path d="M21.5821674,11.359744 L6.35733544,48.576 C6.05866728,49.2586701 5.62133832,49.770665 5.04533544,50.112 C4.46933256,50.453335 3.88267176,50.624 3.28533544,50.624 C2.0906628,50.624 1.17333864,50.1120051 0.53333544,49.088 C-0.10666776,48.0639949 -0.17066712,46.9760058 0.34133544,45.824 L18.3253354,2.88 C18.9653386,1.3866592 20.0106615,0.64 21.4613354,0.64 C22.9973431,0.64 24.042666,1.3866592 24.5973354,2.88 L42.6453354,45.952 C43.1146711,47.1466726 43.0400052,48.2239952 42.4213354,49.184 C41.8026657,50.1440048 40.874675,50.624 39.6373354,50.624 C38.9973322,50.624 38.3893383,50.4426685 37.8133354,50.08 C37.2373326,49.7173315 36.8213367,49.2160032 36.5653354,48.576 L21.5821674,11.359744 Z M6.67733544,39.616 L9.23733544,34.112 L34.3253354,34.112 L36.8853354,39.616 L6.67733544,39.616 Z M78.5253354,50.624 C77.5866641,50.624 76.8080052,50.3040032 76.1893354,49.664 C75.5706657,49.0239968 75.2613354,48.2346714 75.2613354,47.296 L75.2613354,3.968 C75.2613354,3.02932864 75.5813322,2.2400032 76.2213354,1.6 C76.8613386,0.9599968 77.629331,0.64 78.5253354,0.64 C79.4640068,0.64 80.2533322,0.9599968 80.8933354,1.6 C81.5333386,2.2400032 81.8533354,3.02932864 81.8533354,3.968 L81.8533354,43.968 L105.021335,43.968 C105.960007,43.968 106.749332,44.2879968 107.389335,44.928 C108.029339,45.5680032 108.349335,46.3573286 108.349335,47.296 C108.349335,48.2346714 108.029339,49.0239968 107.389335,49.664 C106.749332,50.3040032 105.960007,50.624 105.021335,50.624 L78.5253354,50.624 Z M144.677335,50.624 C143.738664,50.624 142.949339,50.3040032 142.309335,49.664 C141.669332,49.0239968 141.349335,48.2346714 141.349335,47.296 L141.349335,3.968 C141.349335,2.98666176 141.669332,2.18666976 142.309335,1.568 C142.949339,0.94933024 143.738664,0.64 144.677335,0.64 L157.477335,0.64 C160.677351,0.64 163.514656,1.34399296 165.989335,2.752 C168.464014,4.16000704 170.394662,6.11198752 171.781335,8.608 C173.168009,11.1040125 173.861335,13.9733171 173.861335,17.216 C173.861335,20.3306822 173.168009,23.1039878 171.781335,25.536 C170.394662,27.9680122 168.464014,29.8666598 165.989335,31.232 C163.514656,32.5973402 160.677351,33.28 157.477335,33.28 L148.005335,33.28 L148.005335,47.296 C148.005335,48.2346714 147.696005,49.0239968 147.077335,49.664 C146.458666,50.3040032 145.658674,50.624 144.677335,50.624 Z M148.005335,27.136 L157.477335,27.136 C159.440012,27.136 161.167995,26.7093376 162.661335,25.856 C164.154676,25.0026624 165.327998,23.8293408 166.181335,22.336 C167.034673,20.8426592 167.461335,19.1360096 167.461335,17.216 C167.461335,15.1679898 167.034673,13.3653411 166.181335,11.808 C165.327998,10.2506589 164.154676,9.02400448 162.661335,8.128 C161.167995,7.23199552 159.440012,6.784 157.477335,6.784 L148.005335,6.784 L148.005335,27.136 Z M209.549335,50.624 C208.610664,50.624 207.821339,50.3040032 207.181335,49.664 C206.541332,49.0239968 206.221335,48.2346714 206.221335,47.296 L206.221335,3.968 C206.221335,2.98666176 206.541332,2.18666976 207.181335,1.568 C207.821339,0.94933024 208.610664,0.64 209.549335,0.64 C210.530674,0.64 211.330666,0.94933024 211.949335,1.568 C212.568005,2.18666976 212.877335,2.98666176 212.877335,3.968 L212.877335,22.336 L242.573335,22.336 L242.573335,3.968 C242.573335,2.98666176 242.893332,2.18666976 243.533335,1.568 C244.173339,0.94933024 244.962664,0.64 245.901335,0.64 C246.882674,0.64 247.671999,0.94933024 248.269335,1.568 C248.866672,2.18666976 249.165335,2.98666176 249.165335,3.968 L249.165335,47.296 C249.165335,48.2346714 248.866672,49.0239968 248.269335,49.664 C247.671999,50.3040032 246.882674,50.624 245.901335,50.624 C244.962664,50.624 244.173339,50.3040032 243.533335,49.664 C242.893332,49.0239968 242.573335,48.2346714 242.573335,47.296 L242.573335,28.224 L212.877335,28.224 L212.877335,47.296 C212.877335,48.2346714 212.568005,49.0239968 211.949335,49.664 C211.330666,50.3040032 210.530674,50.624 209.549335,50.624 Z M303.278167,11.359744 L288.053335,48.576 C287.754667,49.2586701 287.317338,49.770665 286.741335,50.112 C286.165333,50.453335 285.578672,50.624 284.981335,50.624 C283.786663,50.624 282.869339,50.1120051 282.229335,49.088 C281.589332,48.0639949 281.525333,46.9760058 282.037335,45.824 L300.021335,2.88 C300.661339,1.3866592 301.706662,0.64 303.157335,0.64 C304.693343,0.64 305.738666,1.3866592 306.293335,2.88 L324.341335,45.952 C324.810671,47.1466726 324.736005,48.2239952 324.117335,49.184 C323.498666,50.1440048 322.570675,50.624 321.333335,50.624 C320.693332,50.624 320.085338,50.4426685 319.509335,50.08 C318.933333,49.7173315 318.517337,49.2160032 318.261335,48.576 L303.278167,11.359744 L303.278167,11.359744 Z M288.373335,39.616 L290.933335,34.112 L316.021335,34.112 L318.581335,39.616 L288.373335,39.616 Z M404.037335,50.624 C403.098664,50.624 402.309339,50.3040032 401.669335,49.664 C401.029332,49.0239968 400.709335,48.2346714 400.709335,47.296 L400.709335,3.968 C400.709335,2.98666176 401.029332,2.18666976 401.669335,1.568 C402.309339,0.94933024 403.098664,0.64 404.037335,0.64 C405.018674,0.64 405.818666,0.94933024 406.437335,1.568 C407.056005,2.18666976 407.365335,2.98666176 407.365335,3.968 L407.365335,22.336 L437.061335,22.336 L437.061335,3.968 C437.061335,2.98666176 437.381332,2.18666976 438.021335,1.568 C438.661339,0.94933024 439.450664,0.64 440.389335,0.64 C441.370674,0.64 442.159999,0.94933024 442.757335,1.568 C443.354672,2.18666976 443.653335,2.98666176 443.653335,3.968 L443.653335,47.296 C443.653335,48.2346714 443.354672,49.0239968 442.757335,49.664 C442.159999,50.3040032 441.370674,50.624 440.389335,50.624 C439.450664,50.624 438.661339,50.3040032 438.021335,49.664 C437.381332,49.0239968 437.061335,48.2346714 437.061335,47.296 L437.061335,28.224 L407.365335,28.224 L407.365335,47.296 C407.365335,48.2346714 407.056005,49.0239968 406.437335,49.664 C405.818666,50.3040032 405.018674,50.624 404.037335,50.624 Z M504.557335,51.264 C500.80265,51.264 497.368018,50.634673 494.253335,49.376 C491.138653,48.117327 488.461347,46.3466781 486.221335,44.064 C483.981324,41.7813219 482.242675,39.0720157 481.005335,35.936 C479.767996,32.7999843 479.149335,29.3546854 479.149335,25.6 C479.149335,21.8453146 479.767996,18.4106822 481.005335,15.296 C482.242675,12.1813178 483.981324,9.48267808 486.221335,7.2 C488.461347,4.91732192 491.138653,3.14667296 494.253335,1.888 C497.368018,0.62932704 500.80265,0 504.557335,0 C508.312021,0 511.735987,0.62932704 514.829335,1.888 C517.922684,3.14667296 520.599991,4.91732192 522.861335,7.2 C525.12268,9.48267808 526.871996,12.1813178 528.109335,15.296 C529.346675,18.4106822 529.965335,21.8453146 529.965335,25.6 C529.965335,29.3546854 529.346675,32.7999843 528.109335,35.936 C526.871996,39.0720157 525.12268,41.7813219 522.861335,44.064 C520.599991,46.3466781 517.922684,48.117327 514.829335,49.376 C511.735987,50.634673 508.312021,51.264 504.557335,51.264 Z M504.557335,45.248 C507.330683,45.248 509.87999,44.7466717 512.205335,43.744 C514.53068,42.7413283 516.54666,41.3546755 518.253335,39.584 C519.960011,37.8133245 521.271998,35.7333453 522.189335,33.344 C523.106673,30.9546547 523.565335,28.3733472 523.565335,25.6 C523.565335,22.8266528 523.106673,20.2453453 522.189335,17.856 C521.271998,15.4666547 519.960011,13.3866755 518.253335,11.616 C516.54666,9.84532448 514.53068,8.46933824 512.205335,7.488 C509.87999,6.50666176 507.330683,6.016 504.557335,6.016 C501.783988,6.016 499.23468,6.50666176 496.909335,7.488 C494.58399,8.46933824 492.578677,9.84532448 490.893335,11.616 C489.207994,13.3866755 487.896007,15.4666547 486.957335,17.856 C486.018664,20.2453453 485.549335,22.8266528 485.549335,25.6 C485.549335,28.3733472 486.018664,30.9546547 486.957335,33.344 C487.896007,35.7333453 489.207994,37.8133245 490.893335,39.584 C492.578677,41.3546755 494.58399,42.7413283 496.909335,43.744 C499.23468,44.7466717 501.783988,45.248 504.557335,45.248 Z M590.66408,40.4821748 L609.173335,2.432 C609.856006,1.23732736 610.837329,0.64 612.117335,0.64 C613.056007,0.64 613.845332,0.94933024 614.485335,1.568 C615.125339,2.18666976 615.445335,2.98666176 615.445335,3.968 L615.445335,47.296 C615.445335,48.2346714 615.114672,49.0239968 614.453335,49.664 C613.791999,50.3040032 613.01334,50.624 612.117335,50.624 C611.178664,50.624 610.389339,50.3040032 609.749335,49.664 C609.109332,49.0239968 608.789335,48.2346714 608.789335,47.296 L608.789335,15.472855 L593.301335,47.04 C592.575998,48.1493389 591.616008,48.704 590.421335,48.704 C589.013328,48.704 587.989339,48.0426733 587.349335,46.72 L572.053335,16.0689421 L572.053335,47.296 C572.053335,48.2346714 571.733339,49.0239968 571.093335,49.664 C570.453332,50.3040032 569.664007,50.624 568.725335,50.624 C567.786664,50.624 566.997339,50.3040032 566.357335,49.664 C565.717332,49.0239968 565.397335,48.2346714 565.397335,47.296 L565.397335,3.968 C565.397335,2.98666176 565.717332,2.18666976 566.357335,1.568 C566.997339,0.94933024 567.786664,0.64 568.725335,0.64 C570.005342,0.64 570.986665,1.23732736 571.669335,2.432 L590.66408,40.4821748 L590.66408,40.4821748 Z M656.573335,50.624 C655.634664,50.624 654.845339,50.3040032 654.205335,49.664 C653.565332,49.0239968 653.245335,48.2346714 653.245335,47.296 L653.245335,3.968 C653.245335,2.98666176 653.565332,2.18666976 654.205335,1.568 C654.845339,0.94933024 655.634664,0.64 656.573335,0.64 L685.501335,0.64 C686.482674,0.64 687.271999,0.92799712 687.869335,1.504 C688.466672,2.08000288 688.765335,2.83732864 688.765335,3.776 C688.765335,4.67200448 688.466672,5.39733056 687.869335,5.952 C687.271999,6.50666944 686.482674,6.784 685.501335,6.784 L659.901335,6.784 L659.901335,22.336 L678.269335,22.336 C679.250674,22.336 680.039999,22.6239971 680.637335,23.2 C681.234672,23.7760029 681.533335,24.5119955 681.533335,25.408 C681.533335,26.3040045 681.234672,27.0399971 680.637335,27.616 C680.039999,28.1920029 679.250674,28.48 678.269335,28.48 L659.901335,28.48 L659.901335,44.48 L685.501335,44.48 C686.482674,44.48 687.271999,44.7573306 687.869335,45.312 C688.466672,45.8666694 688.765335,46.5919955 688.765335,47.488 C688.765335,48.4266714 688.466672,49.1839971 687.869335,49.76 C687.271999,50.3360029 686.482674,50.624 685.501335,50.624 L656.573335,50.624 Z M738.917335,51.264 C736.186655,51.264 733.584014,50.8373376 731.109335,49.984 C728.634656,49.1306624 726.480011,47.9360077 724.645335,46.4 C722.81066,44.8639923 721.466673,43.0933434 720.613335,41.088 C720.186667,40.1919955 720.197333,39.3600038 720.645335,38.592 C721.093338,37.8239962 721.850663,37.3333344 722.917335,37.12 C723.685339,36.9493325 724.442665,37.0666646 725.189335,37.472 C725.936006,37.8773354 726.501334,38.4853293 726.885335,39.296 C727.397338,40.362672 728.239996,41.3439955 729.413335,42.24 C730.586675,43.1360045 732.005327,43.8613306 733.669335,44.416 C735.333344,44.9706694 737.08266,45.248 738.917335,45.248 C740.965346,45.248 742.853327,44.9280032 744.581335,44.288 C746.309344,43.6479968 747.706663,42.7200061 748.773335,41.504 C749.840007,40.2879939 750.373335,38.784009 750.373335,36.992 C750.373335,34.7306554 749.488011,32.704009 747.717335,30.912 C745.94666,29.119991 743.034689,28.0106688 738.981335,27.584 C733.690642,27.0719974 729.530684,25.5146797 726.501335,22.912 C723.471987,20.3093203 721.957335,17.0880192 721.957335,13.248 C721.957335,10.4319859 722.746661,8.04267648 724.325335,6.08 C725.90401,4.11732352 728.047989,2.62400512 730.757335,1.6 C733.466682,0.57599488 736.485319,0.064 739.813335,0.064 C742.416015,0.064 744.687992,0.42666304 746.629335,1.152 C748.570678,1.87733696 750.266662,2.8799936 751.717335,4.16 C753.168009,5.4400064 754.426663,6.95465792 755.493335,8.704 C756.090672,9.64267136 756.336003,10.5279958 756.229335,11.36 C756.122668,12.1920042 755.706672,12.8426643 754.981335,13.312 C754.170665,13.8240026 753.296007,13.9306682 752.357335,13.632 C751.418664,13.3333318 750.714671,12.7786707 750.245335,11.968 C749.562665,10.7306605 748.730674,9.6853376 747.749335,8.832 C746.767997,7.9786624 745.616009,7.30666912 744.293335,6.816 C742.970662,6.32533088 741.413344,6.08 739.621335,6.08 C736.463986,6.03733312 733.818679,6.62399392 731.685335,7.84 C729.551991,9.05600608 728.485335,10.9226541 728.485335,13.44 C728.485335,14.7200064 728.815999,15.9466608 729.477335,17.12 C730.138672,18.2933392 731.35466,19.3066624 733.125335,20.16 C734.896011,21.0133376 737.445319,21.610665 740.773335,21.952 C745.850694,22.4640026 749.807988,24.0106538 752.645335,26.592 C755.482683,29.1733462 756.901335,32.5759789 756.901335,36.8 C756.901335,39.2320122 756.400007,41.343991 755.397335,43.136 C754.394664,44.928009 753.050677,46.4319939 751.365335,47.648 C749.679994,48.8640061 747.760013,49.7706637 745.605335,50.368 C743.450658,50.9653363 741.221347,51.264 738.917335,51.264 Z" id="ah-logo-text" fill="#FFFFFF" fill-rule="nonzero"></path>
    </g>
</svg>