<?xml version="1.0" encoding="UTF-8"?>
<svg width="1024px" height="192px" viewBox="0 0 1024 192" version="1.1" 
    xmlns="http://www.w3.org/2000/svg" 
    xmlns:xlink="http://www.w3.org/1999/xlink">
    <!-- Generator: Sketch 55.1 (78136) - https://sketchapp.com -->
    <title>logo-full-transparent</title>
    <desc>Created with Sketch.</desc>
    <defs>
        <path d="M123.661753,118.154696 C95.4421889,139.399003 56.6497967,139.399003 28.4302329,118.154696 C26.7720483,116.902335 26.3308799,114.733614 27.3957691,113.465981 L28.3693821,112.289984 C29.449484,111.007078 31.5031989,110.945988 32.9940438,112.060894 C58.5057464,131.273934 93.6014518,131.273934 119.113154,112.060894 C120.603999,110.945988 122.657714,111.007078 123.737816,112.289984 L124.711429,113.465981 C125.761106,114.748887 125.33515,116.902335 123.661753,118.154696" id="path-1"></path>
        <filter x="-3.6%" y="-11.0%" width="107.1%" height="130.7%" filterUnits="objectBoundingBox" id="filter-2">
            <feOffset dx="0" dy="1" in="SourceAlpha" result="shadowOffsetOuter1"></feOffset>
            <feGaussianBlur stdDeviation="1" in="shadowOffsetOuter1" result="shadowBlurOuter1"></feGaussianBlur>
            <feColorMatrix values="0 0 0 0 0   0 0 0 0 0   0 0 0 0 0  0 0 0 0.5 0" type="matrix" in="shadowBlurOuter1"></feColorMatrix>
        </filter>
        <path d="M39.4210171,139.191348 L39.3146078,139.191348 C41.1235657,138.294521 42.066048,136.60727 41.4275923,135.421634 C31.3795152,116.922678 28.0352233,94.2131938 33.6141103,71.7013161 C33.9637408,70.2572726 32.7324333,68.5396209 30.8170661,67.8860012 C28.8864976,67.2323816 26.9559291,67.9924044 26.7279092,69.1172383 C20.5105665,93.3315673 23.8548584,117.880306 34.5565925,138.081715 C35.4230681,139.799366 37.5056499,140.088175 39.3298091,139.206548" id="path-3"></path>
        <filter x="-19.4%" y="-3.5%" width="138.9%" height="109.7%" filterUnits="objectBoundingBox" id="filter-4">
            <feOffset dx="0" dy="1" in="SourceAlpha" result="shadowOffsetOuter1"></feOffset>
            <feGaussianBlur stdDeviation="1" in="shadowOffsetOuter1" result="shadowBlurOuter1"></feGaussianBlur>
            <feColorMatrix values="0 0 0 0 0   0 0 0 0 0   0 0 0 0 0  0 0 0 0.5 0" type="matrix" in="shadowBlurOuter1"></feColorMatrix>
        </filter>
        <path d="M113.579212,139.201289 L113.579212,139.201289 C111.769511,138.303193 110.826642,136.613554 111.480567,135.441462 C121.517561,116.931542 124.863225,94.2355795 119.282049,71.7070586 C118.932275,70.2609712 120.164087,68.5408881 122.080241,67.8863433 L122.080241,67.8863433 C123.996394,67.2317984 125.927755,67.9928971 126.171076,69.1193231 C132.39097,93.337483 129.045306,117.890526 118.33918,138.090085 C117.487556,139.810168 115.404119,140.084164 113.579212,139.201289" id="path-5"></path>
        <filter x="-19.4%" y="-3.5%" width="138.9%" height="109.7%" filterUnits="objectBoundingBox" id="filter-6">
            <feOffset dx="0" dy="1" in="SourceAlpha" result="shadowOffsetOuter1"></feOffset>
            <feGaussianBlur stdDeviation="1" in="shadowOffsetOuter1" result="shadowBlurOuter1"></feGaussianBlur>
            <feColorMatrix values="0 0 0 0 0   0 0 0 0 0   0 0 0 0 0  0 0 0 0.5 0" type="matrix" in="shadowBlurOuter1"></feColorMatrix>
        </filter>
        <path d="M132.752285,77.4206267 C96.1916542,65.3161607 56.6629456,65.3161607 20.1023148,77.4206267 C17.8648407,78.1620252 15.4142739,77.0574927 14.6380074,74.90895 C13.8617409,72.7604073 15.1250766,70.3092529 17.4843179,69.5375932 C55.7649118,56.8732957 97.1353507,56.8732957 135.415945,69.5375932 C137.775186,70.3243835 139.038522,72.7604073 138.262255,74.90895 C137.470768,77.0574927 135.020201,78.1620252 132.797948,77.4206267" id="path-7"></path>
        <filter x="-2.8%" y="-14.2%" width="105.6%" height="139.7%" filterUnits="objectBoundingBox" id="filter-8">
            <feOffset dx="0" dy="1" in="SourceAlpha" result="shadowOffsetOuter1"></feOffset>
            <feGaussianBlur stdDeviation="1" in="shadowOffsetOuter1" result="shadowBlurOuter1"></feGaussianBlur>
            <feColorMatrix values="0 0 0 0 0   0 0 0 0 0   0 0 0 0 0  0 0 0 0.5 0" type="matrix" in="shadowBlurOuter1"></feColorMatrix>
        </filter>
        <path d="M147.451621,94.3677721 C134.214576,53.1717766 109.459779,21.4977845 81.2359637,2.16430878 C79.8209692,1.17402043 77.8734498,1.52443015 76.8844752,2.94130426 L75.6216306,2.94130426 C74.6326559,1.53966536 72.6851366,1.18925563 71.2701421,2.16430878 C43.0463266,21.5130197 18.306745,53.1565414 5.0544845,94.3677721 C4.33937974,96.5616417 5.20663445,99.547742 6.94114386,100.949381 C8.67565327,102.35102 10.6079576,101.61973 11.2622024,99.4410955 C23.4950583,58.5802745 47.3673852,27.0433993 74.8304509,7.69468836 C75.0738908,7.5271011 75.2869007,7.31380822 75.4846957,7.08528014 C75.7129206,6.9786337 75.9563605,6.93292809 76.2150154,6.93292809 C76.5497453,6.93292809 76.8692602,7.02433932 77.1431301,7.19192658 C77.310495,7.37474904 77.493075,7.5423363 77.6908699,7.69468836 C105.153936,27.0433993 129.026263,58.5802745 141.259118,99.4410955 C141.913363,101.61973 143.845668,102.320549 145.580177,100.949381 C147.299471,99.5629772 148.151511,96.5616417 147.451621,94.3677721" id="path-9"></path>
        <filter x="-2.4%" y="-2.5%" width="104.9%" height="107.0%" filterUnits="objectBoundingBox" id="filter-10">
            <feOffset dx="0" dy="1" in="SourceAlpha" result="shadowOffsetOuter1"></feOffset>
            <feGaussianBlur stdDeviation="1" in="shadowOffsetOuter1" result="shadowBlurOuter1"></feGaussianBlur>
            <feColorMatrix values="0 0 0 0 0   0 0 0 0 0   0 0 0 0 0  0 0 0 0.5 0" type="matrix" in="shadowBlurOuter1"></feColorMatrix>
        </filter>
        <path d="M76.2576212,152.5 C34.1886557,152.5 0,118.296102 0,76.2423788 C0,34.1886557 34.1886557,0 76.2576212,0 C118.326587,0 152.5,34.2038981 152.5,76.2576212 C152.5,118.311344 118.296102,152.5 76.2576212,152.5 M76.2576212,6.84382809 C37.984008,6.84382809 6.85907046,37.984008 6.85907046,76.2576212 C6.85907046,114.531234 37.984008,145.671414 76.2728636,145.671414 C114.561719,145.671414 145.671414,114.531234 145.671414,76.2576212 C145.671414,37.984008 114.531234,6.84382809 76.2576212,6.84382809" id="path-11"></path>
        <filter x="-2.3%" y="-1.6%" width="104.6%" height="104.6%" filterUnits="objectBoundingBox" id="filter-12">
            <feOffset dx="0" dy="1" in="SourceAlpha" result="shadowOffsetOuter1"></feOffset>
            <feGaussianBlur stdDeviation="1" in="shadowOffsetOuter1" result="shadowBlurOuter1"></feGaussianBlur>
            <feColorMatrix values="0 0 0 0 0   0 0 0 0 0   0 0 0 0 0  0 0 0 0.5 0" type="matrix" in="shadowBlurOuter1"></feColorMatrix>
        </filter>
    </defs>
    <g id="logo-full-transparent" stroke="none" stroke-width="1" fill="none" fill-rule="evenodd">
        <g id="Group" transform="translate(35.000000, 20.000000)">
            <path d="M219.584981,62.3012434 L204.358164,99.3258427 C204.059457,100.004997 203.622071,100.514355 203.045993,100.853933 C202.469915,101.19351 201.883178,101.363296 201.285764,101.363296 C200.090935,101.363296 199.173492,100.853938 198.533405,99.835206 C197.893318,98.8164743 197.829311,97.7340881 198.34138,96.588015 L216.327724,53.8651685 C216.967811,52.3795182 218.01327,51.6367041 219.464133,51.6367041 C221.000341,51.6367041 222.0458,52.3795182 222.600542,53.8651685 L240.650894,96.7153558 C241.120291,97.9038761 241.045616,98.9756507 240.426865,99.9307116 C239.808115,100.885773 238.880003,101.363296 237.642502,101.363296 C237.002416,101.363296 236.394342,101.182898 235.818265,100.822097 C235.242187,100.461297 234.826137,99.96255 234.570102,99.3258427 L219.584981,62.3012434 Z M204.678206,90.411985 L207.23854,84.9363296 L232.32981,84.9363296 L234.890144,90.411985 L204.678206,90.411985 Z M276.535571,101.363296 C275.596778,101.363296 274.818017,101.044947 274.199267,100.40824 C273.580517,99.7715324 273.271146,98.9862718 273.271146,98.0524345 L273.271146,54.9475655 C273.271146,54.0137282 273.591185,53.2284676 274.231271,52.5917603 C274.871358,51.955053 275.63945,51.6367041 276.535571,51.6367041 C277.474365,51.6367041 278.263794,51.955053 278.90388,52.5917603 C279.543967,53.2284676 279.864005,54.0137282 279.864005,54.9475655 L279.864005,94.741573 L303.035025,94.741573 C303.973819,94.741573 304.763247,95.0599219 305.403334,95.6966292 C306.043421,96.3333365 306.363459,97.1185971 306.363459,98.0524345 C306.363459,98.9862718 306.043421,99.7715324 305.403334,100.40824 C304.763247,101.044947 303.973819,101.363296 303.035025,101.363296 L276.535571,101.363296 Z M342.696195,101.363296 C341.757401,101.363296 340.967973,101.044947 340.327886,100.40824 C339.687799,99.7715324 339.367761,98.9862718 339.367761,98.0524345 L339.367761,54.9475655 C339.367761,53.971281 339.687799,53.1754088 340.327886,52.5599251 C340.967973,51.9444414 341.757401,51.6367041 342.696195,51.6367041 L355.497863,51.6367041 C358.698296,51.6367041 361.535971,52.3370716 364.010973,53.7378277 C366.485974,55.1385838 368.416873,57.0805119 369.803728,59.5636704 C371.190582,62.0468289 371.883999,64.9013572 371.883999,68.1273408 C371.883999,71.225983 371.190582,73.9850066 369.803728,76.4044944 C368.416873,78.8239821 366.485974,80.7128521 364.010973,82.071161 C361.535971,83.42947 358.698296,84.1086142 355.497863,84.1086142 L346.024628,84.1086142 L346.024628,98.0524345 C346.024628,98.9862718 345.715258,99.7715324 345.096507,100.40824 C344.477757,101.044947 343.677661,101.363296 342.696195,101.363296 Z M346.024628,77.9962547 L355.497863,77.9962547 C357.460795,77.9962547 359.189003,77.5717895 360.682539,76.7228464 C362.176074,75.8739034 363.349549,74.7066242 364.202998,73.2209738 C365.056447,71.7353234 365.483165,70.0374627 365.483165,68.1273408 C365.483165,66.0898775 365.056447,64.2965121 364.202998,62.747191 C363.349549,61.1978699 362.176074,59.9775325 360.682539,59.0861423 C359.189003,58.1947521 357.460795,57.7490637 355.497863,57.7490637 L346.024628,57.7490637 L346.024628,77.9962547 Z M407.576651,101.363296 C406.637857,101.363296 405.848429,101.044947 405.208342,100.40824 C404.568256,99.7715324 404.248217,98.9862718 404.248217,98.0524345 L404.248217,54.9475655 C404.248217,53.971281 404.568256,53.1754088 405.208342,52.5599251 C405.848429,51.9444414 406.637857,51.6367041 407.576651,51.6367041 C408.558117,51.6367041 409.358213,51.9444414 409.976964,52.5599251 C410.595714,53.1754088 410.905085,53.971281 410.905085,54.9475655 L410.905085,73.2209738 L440.604956,73.2209738 L440.604956,54.9475655 C440.604956,53.971281 440.924994,53.1754088 441.565081,52.5599251 C442.205167,51.9444414 442.994596,51.6367041 443.933389,51.6367041 C444.914856,51.6367041 445.704284,51.9444414 446.301698,52.5599251 C446.899112,53.1754088 447.197815,53.971281 447.197815,54.9475655 L447.197815,98.0524345 C447.197815,98.9862718 446.899112,99.7715324 446.301698,100.40824 C445.704284,101.044947 444.914856,101.363296 443.933389,101.363296 C442.994596,101.363296 442.205167,101.044947 441.565081,100.40824 C440.924994,99.7715324 440.604956,98.9862718 440.604956,98.0524345 L440.604956,79.0786517 L410.905085,79.0786517 L410.905085,98.0524345 C410.905085,98.9862718 410.595714,99.7715324 409.976964,100.40824 C409.358213,101.044947 408.558117,101.363296 407.576651,101.363296 Z M501.317701,62.3012434 L486.090884,99.3258427 C485.792177,100.004997 485.354791,100.514355 484.778713,100.853933 C484.202635,101.19351 483.615898,101.363296 483.018484,101.363296 C481.823655,101.363296 480.906212,100.853938 480.266125,99.835206 C479.626038,98.8164743 479.562031,97.7340881 480.0741,96.588015 L498.060444,53.8651685 C498.700531,52.3795182 499.74599,51.6367041 501.196853,51.6367041 C502.733061,51.6367041 503.77852,52.3795182 504.333262,53.8651685 L522.383614,96.7153558 C522.853011,97.9038761 522.778336,98.9756507 522.159585,99.9307116 C521.540835,100.885773 520.612723,101.363296 519.375222,101.363296 C518.735136,101.363296 518.127062,101.182898 517.550985,100.822097 C516.974907,100.461297 516.558856,99.96255 516.302822,99.3258427 L501.317701,62.3012434 L501.317701,62.3012434 Z M486.410926,90.411985 L488.97126,84.9363296 L514.06253,84.9363296 L516.622864,90.411985 L486.410926,90.411985 Z M602.090003,101.363296 C601.151209,101.363296 600.361781,101.044947 599.721694,100.40824 C599.081608,99.7715324 598.761569,98.9862718 598.761569,98.0524345 L598.761569,54.9475655 C598.761569,53.971281 599.081608,53.1754088 599.721694,52.5599251 C600.361781,51.9444414 601.151209,51.6367041 602.090003,51.6367041 C603.071469,51.6367041 603.871565,51.9444414 604.490316,52.5599251 C605.109066,53.1754088 605.418437,53.971281 605.418437,54.9475655 L605.418437,73.2209738 L635.118308,73.2209738 L635.118308,54.9475655 C635.118308,53.971281 635.438346,53.1754088 636.078433,52.5599251 C636.71852,51.9444414 637.507948,51.6367041 638.446742,51.6367041 C639.428208,51.6367041 640.217636,51.9444414 640.81505,52.5599251 C641.412464,53.1754088 641.711167,53.971281 641.711167,54.9475655 L641.711167,98.0524345 C641.711167,98.9862718 641.412464,99.7715324 640.81505,100.40824 C640.217636,101.044947 639.428208,101.363296 638.446742,101.363296 C637.507948,101.363296 636.71852,101.044947 636.078433,100.40824 C635.438346,99.7715324 635.118308,98.9862718 635.118308,98.0524345 L635.118308,79.0786517 L605.418437,79.0786517 L605.418437,98.0524345 C605.418437,98.9862718 605.109066,99.7715324 604.490316,100.40824 C603.871565,101.044947 603.071469,101.363296 602.090003,101.363296 Z M702.623106,102 C698.867931,102 695.432851,101.373914 692.317763,100.121723 C689.202675,98.8695318 686.525019,97.1080014 684.284716,94.8370787 C682.044413,92.5661559 680.305537,89.8708021 679.068036,86.7509363 C677.830535,83.6310705 677.211794,80.2035143 677.211794,76.4681648 C677.211794,72.7328153 677.830535,69.3158707 679.068036,66.2172285 C680.305537,63.1185863 682.044413,60.4338441 684.284716,58.1629213 C686.525019,55.8919986 689.202675,54.1304682 692.317763,52.8782772 C695.432851,51.6260861 698.867931,51 702.623106,51 C706.378281,51 709.802693,51.6260861 712.896445,52.8782772 C715.990197,54.1304682 718.667853,55.8919986 720.929492,58.1629213 C723.191132,60.4338441 724.940675,63.1185863 726.178176,66.2172285 C727.415677,69.3158707 728.034418,72.7328153 728.034418,76.4681648 C728.034418,80.2035143 727.415677,83.6310705 726.178176,86.7509363 C724.940675,89.8708021 723.191132,92.5661559 720.929492,94.8370787 C718.667853,97.1080014 715.990197,98.8695318 712.896445,100.121723 C709.802693,101.373914 706.378281,102 702.623106,102 Z M702.623106,96.0149813 C705.396815,96.0149813 707.946455,95.5162347 710.272103,94.5187266 C712.597751,93.5212185 714.613994,92.1417067 716.320891,90.3801498 C718.027789,88.6185929 719.339947,86.5493252 720.257405,84.1722846 C721.174862,81.795244 721.633584,79.2272298 721.633584,76.4681648 C721.633584,73.7090998 721.174862,71.1410855 720.257405,68.7640449 C719.339947,66.3870043 718.027789,64.3177366 716.320891,62.5561798 C714.613994,60.7946229 712.597751,59.4257227 710.272103,58.4494382 C707.946455,57.4731537 705.396815,56.9850187 702.623106,56.9850187 C699.849397,56.9850187 697.299757,57.4731537 694.974109,58.4494382 C692.648461,59.4257227 690.642886,60.7946229 688.957325,62.5561798 C687.271764,64.3177366 685.959606,66.3870043 685.020812,68.7640449 C684.082018,71.1410855 683.612628,73.7090998 683.612628,76.4681648 C683.612628,79.2272298 684.082018,81.795244 685.020812,84.1722846 C685.959606,86.5493252 687.271764,88.6185929 688.957325,90.3801498 C690.642886,92.1417067 692.648461,93.5212185 694.974109,94.5187266 C697.299757,95.5162347 699.849397,96.0149813 702.623106,96.0149813 Z M788.741075,91.2736991 L807.252743,53.4194757 C807.935502,52.2309554 808.916954,51.6367041 810.197127,51.6367041 C811.135921,51.6367041 811.925349,51.9444414 812.565436,52.5599251 C813.205522,53.1754088 813.525561,53.971281 813.525561,54.9475655 L813.525561,98.0524345 C813.525561,98.9862718 813.194854,99.7715324 812.533431,100.40824 C811.872009,101.044947 811.093248,101.363296 810.197127,101.363296 C809.258333,101.363296 808.468905,101.044947 807.828818,100.40824 C807.188732,99.7715324 806.868693,98.9862718 806.868693,98.0524345 L806.868693,66.3931727 L791.378674,97.7977528 C790.653243,98.9013788 789.693127,99.4531835 788.498299,99.4531835 C787.090108,99.4531835 786.065985,98.7952625 785.425898,97.4794007 L770.127904,66.98619 L770.127904,98.0524345 C770.127904,98.9862718 769.807866,99.7715324 769.167779,100.40824 C768.527693,101.044947 767.738264,101.363296 766.799471,101.363296 C765.860677,101.363296 765.071249,101.044947 764.431162,100.40824 C763.791075,99.7715324 763.471037,98.9862718 763.471037,98.0524345 L763.471037,54.9475655 C763.471037,53.971281 763.791075,53.1754088 764.431162,52.5599251 C765.071249,51.9444414 765.860677,51.6367041 766.799471,51.6367041 C768.079644,51.6367041 769.061095,52.2309554 769.743854,53.4194757 L788.741075,91.2736991 L788.741075,91.2736991 Z M854.658922,101.363296 C853.720128,101.363296 852.9307,101.044947 852.290613,100.40824 C851.650527,99.7715324 851.330488,98.9862718 851.330488,98.0524345 L851.330488,54.9475655 C851.330488,53.971281 851.650527,53.1754088 852.290613,52.5599251 C852.9307,51.9444414 853.720128,51.6367041 854.658922,51.6367041 L883.590693,51.6367041 C884.572159,51.6367041 885.361587,51.9232181 885.959001,52.4962547 C886.556416,53.0692913 886.855118,53.8227169 886.855118,54.7565543 C886.855118,55.6479445 886.556416,56.3695353 885.959001,56.9213483 C885.361587,57.4731613 884.572159,57.7490637 883.590693,57.7490637 L857.987356,57.7490637 L857.987356,73.2209738 L876.35775,73.2209738 C877.339216,73.2209738 878.128645,73.5074878 878.726059,74.0805243 C879.323473,74.6535609 879.622176,75.3857633 879.622176,76.2771536 C879.622176,77.1685438 879.323473,77.9007462 878.726059,78.4737828 C878.128645,79.0468193 877.339216,79.3333333 876.35775,79.3333333 L857.987356,79.3333333 L857.987356,95.2509363 L883.590693,95.2509363 C884.572159,95.2509363 885.361587,95.5268387 885.959001,96.0786517 C886.556416,96.6304647 886.855118,97.3520555 886.855118,98.2434457 C886.855118,99.1772831 886.556416,99.9307087 885.959001,100.503745 C885.361587,101.076782 884.572159,101.363296 883.590693,101.363296 L854.658922,101.363296 Z M937.013656,102 C934.282619,102 931.67964,101.575535 929.204638,100.726592 C926.729636,99.8776487 924.57471,98.6891462 922.739795,97.1610487 C920.90488,95.6329512 919.560719,93.8714207 918.70727,91.8764045 C918.280545,90.9850143 918.291213,90.1573072 918.739274,89.3932584 C919.187335,88.6292097 919.944759,88.1410747 921.01157,87.928839 C921.779674,87.7590503 922.537099,87.8757783 923.283866,88.2790262 C924.030634,88.6822742 924.596035,89.287137 924.980087,90.093633 C925.492157,91.1548118 926.334925,92.1310817 927.508417,93.0224719 C928.681909,93.9138621 930.100746,94.6354529 931.764972,95.1872659 C933.429197,95.7390789 935.178741,96.0149813 937.013656,96.0149813 C939.061933,96.0149813 940.95016,95.6966324 942.678394,95.0599251 C944.406628,94.4232178 945.804129,93.500006 946.87094,92.2902622 C947.937752,91.0805183 948.471149,89.5842786 948.471149,87.8014981 C948.471149,85.551799 947.585709,83.5355894 945.814803,81.752809 C944.043897,79.9700285 941.131546,78.8664191 937.077664,78.4419476 C931.786281,77.9325817 927.625781,76.3832839 924.596037,73.7940075 C921.566294,71.2047311 920.051445,68.0000191 920.051445,64.1797753 C920.051445,61.3782631 920.840873,59.0012582 922.419754,57.0486891 C923.998634,55.0961201 926.142892,53.610492 928.852592,52.5917603 C931.562292,51.5730286 934.581322,51.0636704 937.909773,51.0636704 C940.512791,51.0636704 942.785065,51.4244658 944.726661,52.1460674 C946.668257,52.867669 948.364461,53.8651622 949.815324,55.1385768 C951.266187,56.4119914 952.525005,57.9188427 953.591816,59.659176 C954.189231,60.5930134 954.434594,61.4737786 954.327912,62.3014981 C954.221231,63.1292176 953.805181,63.776527 953.07975,64.2434457 C952.268973,64.7528115 951.394201,64.8589278 950.455408,64.5617978 C949.516614,64.2646677 948.812529,63.712863 948.343132,62.906367 C947.660373,61.6753996 946.828273,60.6354599 945.846807,59.7865169 C944.865341,58.9375738 943.713202,58.2690411 942.390357,57.7808989 C941.067511,57.2927566 939.50999,57.0486891 937.717747,57.0486891 C934.559987,57.006242 931.914335,57.5898816 929.780713,58.7996255 C927.647091,60.0093693 926.580296,61.8664045 926.580296,64.3707865 C926.580296,65.6442011 926.911002,66.8645385 927.572425,68.0318352 C928.233848,69.1991319 929.449994,70.2072367 931.220901,71.0561798 C932.991807,71.9051228 935.541447,72.4993741 938.869898,72.8389513 C943.947918,73.3483172 947.905728,74.8870034 950.743445,77.4550562 C953.581163,80.023109 955,83.4082187 955,87.6104869 C955,90.0299746 954.498606,92.1310772 953.495804,93.9138577 C952.493002,95.6966381 951.14884,97.1928778 949.463278,98.4026217 C947.777717,99.6123656 945.857486,100.514354 943.702528,101.108614 C941.547569,101.702874 939.317968,102 937.013656,102 Z" id="ah-logo-text" fill="#FFFFFF" fill-rule="nonzero"></path>
            <g id="ah-emblem">
                <g id="ah-logo">
                    <g id="ah-logo-emblem" fill-rule="nonzero">
                        <g id="H-bottom">
                            <use fill="black" fill-opacity="1" filter="url(#filter-2)" xlink:href="#path-1"></use>
                            <use fill="#F7CB64" xlink:href="#path-1"></use>
                        </g>
                        <g id="H-left">
                            <use fill="black" fill-opacity="1" filter="url(#filter-4)" xlink:href="#path-3"></use>
                            <use fill="#B9B93C" xlink:href="#path-3"></use>
                        </g>
                        <g id="H-right">
                            <use fill="black" fill-opacity="1" filter="url(#filter-6)" xlink:href="#path-5"></use>
                            <use fill="#DF4430" xlink:href="#path-5"></use>
                        </g>
                        <g id="A-cross">
                            <use fill="black" fill-opacity="1" filter="url(#filter-8)" xlink:href="#path-7"></use>
                            <use fill="#3F836C" xlink:href="#path-7"></use>
                        </g>
                        <g id="A-top">
                            <use fill="black" fill-opacity="1" filter="url(#filter-10)" xlink:href="#path-9"></use>
                            <use fill="#0FBDB4" xlink:href="#path-9"></use>
                        </g>
                        <g id="ring">
                            <use fill="black" fill-opacity="1" filter="url(#filter-12)" xlink:href="#path-11"></use>
                            <use fill="#FFFFFF" xlink:href="#path-11"></use>
                        </g>
                    </g>
                </g>
            </g>
        </g>
    </g>
</svg>