<?xml version="1.0" encoding="UTF-8"?>
<svg width="757px" height="445px" viewBox="0 0 757 445" version="1.1" xmlns="http://www.w3.org/2000/svg" xmlns:xlink="http://www.w3.org/1999/xlink">
    <!-- Generator: Sketch 55.1 (78136) - https://sketchapp.com -->
    <title>banner-light</title>
    <desc>Created with Sketch.</desc>
    <defs>
        <path d="M208.931138,204.720839 C159.326436,242.035438 91.1366843,242.035438 41.5319824,204.720839 C38.6172047,202.521129 37.8417134,198.711875 39.713589,196.485339 L41.4250181,194.419757 C43.3236347,192.166395 46.9336804,192.059092 49.5543061,194.017371 C94.3990959,227.764146 156.090766,227.764146 200.935555,194.017371 C203.556181,192.059092 207.166227,192.166395 209.064843,194.419757 L210.776273,196.485339 C212.621407,198.7387 211.872657,202.521129 208.931138,204.720839" id="path-1"></path>
        <filter x="-0.9%" y="-3.7%" width="101.7%" height="107.5%" filterUnits="objectBoundingBox" id="filter-2">
            <feOffset dx="0" dy="0" in="SourceAlpha" result="shadowOffsetOuter1"></feOffset>
            <feGaussianBlur stdDeviation="0.5" in="shadowOffsetOuter1" result="shadowBlurOuter1"></feGaussianBlur>
            <feColorMatrix values="0 0 0 0 0.0745098039   0 0 0 0 0.0784313725   0 0 0 0 0.0823529412  0 0 0 1 0" type="matrix" in="shadowBlurOuter1"></feColorMatrix>
        </filter>
        <path d="M191.207921,241.688163 L191.207921,241.688163 C188.026808,240.1107 186.36942,237.14293 187.518899,235.084208 C205.162051,202.572429 211.043102,162.708069 201.23244,123.137812 C200.617603,120.597829 202.782899,117.576587 206.151137,116.426911 L206.151137,116.426911 C209.519375,115.277234 212.914345,116.614067 213.342058,118.59258 C224.275466,161.130606 218.394415,204.256839 199.575053,239.736386 C198.078058,242.757629 194.415767,243.238889 191.207921,241.688163" id="path-3"></path>
        <filter x="-4.7%" y="-1.2%" width="109.5%" height="102.4%" filterUnits="objectBoundingBox" id="filter-4">
            <feOffset dx="0" dy="0" in="SourceAlpha" result="shadowOffsetOuter1"></feOffset>
            <feGaussianBlur stdDeviation="0.5" in="shadowOffsetOuter1" result="shadowBlurOuter1"></feGaussianBlur>
            <feColorMatrix values="0 0 0 0 0.0745098039   0 0 0 0 0.0784313725   0 0 0 0 0.0823529412  0 0 0 1 0" type="matrix" in="shadowBlurOuter1"></feColorMatrix>
        </filter>
        <path d="M60.8517202,241.670701 L60.6646726,241.670701 C63.8444814,240.095468 65.5011886,237.131893 64.3789031,235.049382 C46.7162677,202.556859 40.8376295,162.66875 50.6442668,123.127726 C51.2588517,120.591333 49.094444,117.574361 45.7275876,116.42631 C42.3340102,115.278258 38.9404327,116.613202 38.5396165,118.588918 C27.6106938,161.120215 33.4893319,204.238888 52.3009739,239.721684 C53.8240756,242.738656 57.4848638,243.245934 60.6913937,241.6974" id="path-5"></path>
        <filter x="-4.7%" y="-1.2%" width="109.5%" height="102.4%" filterUnits="objectBoundingBox" id="filter-6">
            <feOffset dx="0" dy="0" in="SourceAlpha" result="shadowOffsetOuter1"></feOffset>
            <feGaussianBlur stdDeviation="0.5" in="shadowOffsetOuter1" result="shadowBlurOuter1"></feGaussianBlur>
            <feColorMatrix values="0 0 0 0 0.0745098039   0 0 0 0 0.0784313725   0 0 0 0 0.0823529412  0 0 0 1 0" type="matrix" in="shadowBlurOuter1"></feColorMatrix>
        </filter>
        <path d="M224.910589,133.173418 C160.643856,111.912509 91.1597976,111.912509 26.8930638,133.173418 C22.9600039,134.475649 18.6523669,132.535591 17.2878359,128.761779 C15.923305,124.987968 18.1440122,120.682634 22.2911162,119.327251 C89.5812225,97.0830253 162.302697,97.0830253 229.592804,119.327251 C233.739908,120.70921 235.960615,124.987968 234.596084,128.761779 C233.204797,132.535591 228.89716,134.475649 224.990856,133.173418" id="path-7"></path>
        <filter x="-0.7%" y="-4.8%" width="101.4%" height="109.7%" filterUnits="objectBoundingBox" id="filter-8">
            <feOffset dx="0" dy="0" in="SourceAlpha" result="shadowOffsetOuter1"></feOffset>
            <feGaussianBlur stdDeviation="0.5" in="shadowOffsetOuter1" result="shadowBlurOuter1"></feGaussianBlur>
            <feColorMatrix values="0 0 0 0 0.0745098039   0 0 0 0 0.0784313725   0 0 0 0 0.0823529412  0 0 0 1 0" type="matrix" in="shadowBlurOuter1"></feColorMatrix>
        </filter>
        <path d="M125.683594,9.36890688 L125.683594,2.35409199 L126.705455,2.35409199 C127.775574,0.822152083 129.484152,4.17119141e-06 131.219836,1.59287682e-11 L131.219851,0 C132.303809,-2.60497692e-06 133.398354,0.320654137 134.354556,0.989337027 C183.966732,34.9476516 227.481023,90.5814861 250.749267,162.940259 C251.979542,166.793685 250.481816,172.065385 247.459618,174.500536 C244.410676,176.908927 241.014047,175.677972 239.864008,171.851306 C218.360941,100.081251 176.397866,44.6882556 128.122946,10.7031812 C127.775259,10.4355821 127.454318,10.1412232 127.160122,9.82010441 C126.721142,9.55169042 126.215447,9.3945291 125.683594,9.3689098 Z" id="path-9"></path>
        <filter x="-1.2%" y="-0.9%" width="102.4%" height="101.7%" filterUnits="objectBoundingBox" id="filter-10">
            <feOffset dx="0" dy="0" in="SourceAlpha" result="shadowOffsetOuter1"></feOffset>
            <feGaussianBlur stdDeviation="0.5" in="shadowOffsetOuter1" result="shadowBlurOuter1"></feGaussianBlur>
            <feColorMatrix values="0 0 0 0 0.0745098039   0 0 0 0 0.0784313725   0 0 0 0 0.0823529412  0 0 0 1 0" type="matrix" in="shadowBlurOuter1"></feColorMatrix>
        </filter>
        <path d="M125.683594,9.3689098 C125.632185,9.36643344 125.580532,9.36518609 125.52867,9.36518609 C125.074004,9.36518609 124.646082,9.4454658 124.244905,9.63278511 C123.897219,10.0341836 123.522787,10.4088222 123.094866,10.7031812 C74.8199453,44.6882556 32.8568707,100.081251 11.3538037,171.851306 C10.2037641,175.677972 6.80713535,176.962447 3.75819302,174.500536 C0.709250694,172.038625 -0.81522047,166.793685 0.441799612,162.940259 C23.7367888,90.5547262 67.2243346,34.9744115 116.83651,0.989337027 C119.323805,-0.723296648 122.747179,-0.107818921 124.485611,2.35409199 L125.683594,2.35409199 L125.683594,9.36890688 Z" id="path-11"></path>
        <filter x="-1.2%" y="-0.9%" width="102.4%" height="101.7%" filterUnits="objectBoundingBox" id="filter-12">
            <feOffset dx="0" dy="0" in="SourceAlpha" result="shadowOffsetOuter1"></feOffset>
            <feGaussianBlur stdDeviation="0.5" in="shadowOffsetOuter1" result="shadowBlurOuter1"></feGaussianBlur>
            <feColorMatrix values="0 0 0 0 0.0745098039   0 0 0 0 0.0784313725   0 0 0 0 0.0823529412  0 0 0 1 0" type="matrix" in="shadowBlurOuter1"></feColorMatrix>
        </filter>
        <path d="M133.354308,266.681962 C59.7868706,266.681962 0,206.868437 0,133.327654 C0,59.7868706 59.7868706,0 133.354308,0 C206.921746,0 266.681962,59.8135255 266.681962,133.354308 C266.681962,206.895091 206.868437,266.681962 133.354308,266.681962 M133.354308,11.9680361 C66.423933,11.9680361 11.9946909,66.423933 11.9946909,133.354308 C11.9946909,200.284684 66.423933,254.740581 133.380963,254.740581 C200.337994,254.740581 254.740581,200.284684 254.740581,133.354308 C254.740581,66.423933 200.284684,11.9680361 133.354308,11.9680361" id="path-13"></path>
        <filter x="-2.6%" y="-1.9%" width="105.2%" height="105.2%" filterUnits="objectBoundingBox" id="filter-14">
            <feOffset dx="0" dy="2" in="SourceAlpha" result="shadowOffsetOuter1"></feOffset>
            <feGaussianBlur stdDeviation="2" in="shadowOffsetOuter1" result="shadowBlurOuter1"></feGaussianBlur>
            <feColorMatrix values="0 0 0 0 0   0 0 0 0 0   0 0 0 0 0  0 0 0 0.306872815 0" type="matrix" in="shadowBlurOuter1" result="shadowMatrixOuter1"></feColorMatrix>
            <feOffset dx="0" dy="0" in="SourceAlpha" result="shadowOffsetOuter2"></feOffset>
            <feGaussianBlur stdDeviation="0.5" in="shadowOffsetOuter2" result="shadowBlurOuter2"></feGaussianBlur>
            <feColorMatrix values="0 0 0 0 0   0 0 0 0 0   0 0 0 0 0  0 0 0 0.147836538 0" type="matrix" in="shadowBlurOuter2" result="shadowMatrixOuter2"></feColorMatrix>
            <feOffset dx="0" dy="1" in="SourceAlpha" result="shadowOffsetOuter3"></feOffset>
            <feGaussianBlur stdDeviation="0.5" in="shadowOffsetOuter3" result="shadowBlurOuter3"></feGaussianBlur>
            <feColorMatrix values="0 0 0 0 0   0 0 0 0 0   0 0 0 0 0  0 0 0 0.417340472 0" type="matrix" in="shadowBlurOuter3" result="shadowMatrixOuter3"></feColorMatrix>
            <feMerge>
                <feMergeNode in="shadowMatrixOuter1"></feMergeNode>
                <feMergeNode in="shadowMatrixOuter2"></feMergeNode>
                <feMergeNode in="shadowMatrixOuter3"></feMergeNode>
            </feMerge>
        </filter>
    </defs>
    <g id="banner-light" stroke="none" stroke-width="1" fill="none" fill-rule="evenodd">
        <g id="logo-halfstack-dark" transform="translate(204.000000, 115.000000)">
            <g id="text-dark" transform="translate(6.013636, 363.586082)" fill="#141414" fill-rule="nonzero">
                <path d="M32.9499685,19.95597 L15.0222017,63.500625 C14.6705096,64.299379 14.1555396,64.8984355 13.4772763,65.2978125 C12.7990129,65.6971895 12.1081995,65.896875 11.4048153,65.896875 C9.99804694,65.896875 8.91786598,65.2978185 8.16424006,64.0996875 C7.41061413,62.9015565 7.33525267,61.6285614 7.93815341,60.2806641 L29.1149361,10.0342969 C29.868562,8.28702251 31.0994659,7.41339844 32.8076847,7.41339844 C34.6163869,7.41339844 35.8472908,8.28702251 36.5004332,10.0342969 L57.7525781,60.4304297 C58.3052371,61.8282422 58.2173154,63.0887639 57.4888104,64.2120117 C56.7603053,65.3352595 55.6675641,65.896875 54.210554,65.896875 C53.4569281,65.896875 52.7409942,65.6847092 52.0627308,65.2603711 C51.3844675,64.836033 50.894618,64.2494569 50.5931676,63.500625 L32.9499685,19.95597 Z M15.3990128,53.0170313 L18.4135014,46.5771094 L47.9554901,46.5771094 L50.9699787,53.0170313 L15.3990128,53.0170313 Z M86.2646165,65.896875 C85.1592985,65.896875 84.2424007,65.5224647 83.5138956,64.7736328 C82.7853905,64.0248009 82.4211435,63.1012555 82.4211435,62.0029688 L82.4211435,11.3073047 C82.4211435,10.2090179 82.7979508,9.28547249 83.5515767,8.53664063 C84.3052026,7.78780876 85.2095402,7.41339844 86.2646165,7.41339844 C87.3699345,7.41339844 88.2993925,7.78780876 89.0530185,8.53664063 C89.8066444,9.28547249 90.1834517,10.2090179 90.1834517,11.3073047 L90.1834517,58.1090625 L117.464574,58.1090625 C118.569892,58.1090625 119.49935,58.4834728 120.252976,59.2323047 C121.006602,59.9811366 121.383409,60.904682 121.383409,62.0029688 C121.383409,63.1012555 121.006602,64.0248009 120.252976,64.7736328 C119.49935,65.5224647 118.569892,65.896875 117.464574,65.896875 L86.2646165,65.896875 Z M150.422983,65.896875 C149.317665,65.896875 148.388207,65.5224647 147.634581,64.7736328 C146.880955,64.0248009 146.504148,63.1012555 146.504148,62.0029688 L146.504148,11.3073047 C146.504148,10.1590958 146.880955,9.22307003 147.634581,8.49919922 C148.388207,7.77532841 149.317665,7.41339844 150.422983,7.41339844 L165.495426,7.41339844 C169.263556,7.41339844 172.604581,8.23710114 175.518601,9.88453125 C178.432621,11.5319614 180.706025,13.8158643 182.338881,16.7363086 C183.971738,19.6567529 184.788153,23.0139654 184.788153,26.8080469 C184.788153,30.452362 183.971738,33.6972514 182.338881,36.5428125 C180.706025,39.3883736 178.432621,41.6098748 175.518601,43.2073828 C172.604581,44.8048908 169.263556,45.6036328 165.495426,45.6036328 L154.341818,45.6036328 L154.341818,62.0029688 C154.341818,63.1012555 153.977571,64.0248009 153.249066,64.7736328 C152.520561,65.5224647 151.578543,65.896875 150.422983,65.896875 Z M154.341818,38.4148828 L165.495426,38.4148828 C167.806546,38.4148828 169.841305,37.9156691 171.599766,36.9172266 C173.358226,35.9187841 174.739853,34.5459462 175.744687,32.7986719 C176.749522,31.0513975 177.251932,29.0545425 177.251932,26.8080469 C177.251932,24.4117849 176.749522,22.3026068 175.744687,20.4804492 C174.739853,18.6582917 173.358226,17.2230521 171.599766,16.1746875 C169.841305,15.1263229 167.806546,14.6021484 165.495426,14.6021484 L154.341818,14.6021484 L154.341818,38.4148828 Z M213.074105,65.896875 C211.968787,65.896875 211.039329,65.5224647 210.285703,64.7736328 C209.532077,64.0248009 209.15527,63.1012555 209.15527,62.0029688 L209.15527,11.3073047 C209.15527,10.1590958 209.532077,9.22307003 210.285703,8.49919922 C211.039329,7.77532841 211.968787,7.41339844 213.074105,7.41339844 C214.229665,7.41339844 215.171683,7.77532841 215.900188,8.49919922 C216.628693,9.22307003 216.99294,10.1590958 216.99294,11.3073047 L216.99294,32.7986719 L251.961009,32.7986719 L251.961009,11.3073047 C251.961009,10.1590958 252.337816,9.22307003 253.091442,8.49919922 C253.845068,7.77532841 254.774526,7.41339844 255.879844,7.41339844 C257.035404,7.41339844 257.964862,7.77532841 258.668246,8.49919922 C259.37163,9.22307003 259.723317,10.1590958 259.723317,11.3073047 L259.723317,62.0029688 C259.723317,63.1012555 259.37163,64.0248009 258.668246,64.7736328 C257.964862,65.5224647 257.035404,65.896875 255.879844,65.896875 C254.774526,65.896875 253.845068,65.5224647 253.091442,64.7736328 C252.337816,64.0248009 251.961009,63.1012555 251.961009,62.0029688 L251.961009,39.6878906 L216.99294,39.6878906 L216.99294,62.0029688 C216.99294,63.1012555 216.628693,64.0248009 215.900188,64.7736328 C215.171683,65.5224647 214.229665,65.896875 213.074105,65.896875 Z M309.705146,19.95597 L291.777379,63.500625 C291.425687,64.299379 290.910717,64.8984355 290.232454,65.2978125 C289.554191,65.6971895 288.863377,65.896875 288.159993,65.896875 C286.753225,65.896875 285.673044,65.2978185 284.919418,64.0996875 C284.165792,62.9015565 284.09043,61.6285614 284.693331,60.2806641 L305.870114,10.0342969 C306.62374,8.28702251 307.854643,7.41339844 309.562862,7.41339844 C311.371564,7.41339844 312.602468,8.28702251 313.255611,10.0342969 L334.507756,60.4304297 C335.060415,61.8282422 334.972493,63.0887639 334.243988,64.2120117 C333.515483,65.3352595 332.422742,65.896875 330.965732,65.896875 C330.212106,65.896875 329.496172,65.6847092 328.817908,65.2603711 C328.139645,64.836033 327.649796,64.2494569 327.348345,63.500625 L309.705146,19.95597 L309.705146,19.95597 Z M292.15419,53.0170313 L295.168679,46.5771094 L324.710668,46.5771094 L327.725156,53.0170313 L292.15419,53.0170313 Z M400.876747,65.896875 C399.771429,65.896875 398.841971,65.5224647 398.088345,64.7736328 C397.334719,64.0248009 396.957912,63.1012555 396.957912,62.0029688 L396.957912,11.3073047 C396.957912,10.1590958 397.334719,9.22307003 398.088345,8.49919922 C398.841971,7.77532841 399.771429,7.41339844 400.876747,7.41339844 C402.032307,7.41339844 402.974325,7.77532841 403.70283,8.49919922 C404.431335,9.22307003 404.795582,10.1590958 404.795582,11.3073047 L404.795582,32.7986719 L439.763651,32.7986719 L439.763651,11.3073047 C439.763651,10.1590958 440.140458,9.22307003 440.894084,8.49919922 C441.64771,7.77532841 442.577168,7.41339844 443.682486,7.41339844 C444.838046,7.41339844 445.767504,7.77532841 446.470888,8.49919922 C447.174272,9.22307003 447.525959,10.1590958 447.525959,11.3073047 L447.525959,62.0029688 C447.525959,63.1012555 447.174272,64.0248009 446.470888,64.7736328 C445.767504,65.5224647 444.838046,65.896875 443.682486,65.896875 C442.577168,65.896875 441.64771,65.5224647 440.894084,64.7736328 C440.140458,64.0248009 439.763651,63.1012555 439.763651,62.0029688 L439.763651,39.6878906 L404.795582,39.6878906 L404.795582,62.0029688 C404.795582,63.1012555 404.431335,64.0248009 403.70283,64.7736328 C402.974325,65.5224647 402.032307,65.896875 400.876747,65.896875 Z M505.504624,66.6457031 C501.083351,66.6457031 497.038953,65.9093628 493.371307,64.4366602 C489.703661,62.9639575 486.551039,60.8922204 483.913349,58.2213867 C481.275658,55.5505531 479.228338,52.3805457 477.771328,48.7112695 C476.314318,45.0419934 475.585824,41.0108423 475.585824,36.6176953 C475.585824,32.2245483 476.314318,28.2058776 477.771328,24.5615625 C479.228338,20.9172474 481.275658,17.7597204 483.913349,15.0888867 C486.551039,12.4180531 489.703661,10.346316 493.371307,8.87361328 C497.038953,7.40091061 501.083351,6.66457031 505.504624,6.66457031 C509.925896,6.66457031 513.957734,7.40091061 517.600259,8.87361328 C521.242785,10.346316 524.395406,12.4180531 527.058217,15.0888867 C529.721029,17.7597204 531.780909,20.9172474 533.237919,24.5615625 C534.694929,28.2058776 535.423423,32.2245483 535.423423,36.6176953 C535.423423,41.0108423 534.694929,45.0419934 533.237919,48.7112695 C531.780909,52.3805457 529.721029,55.5505531 527.058217,58.2213867 C524.395406,60.8922204 521.242785,62.9639575 517.600259,64.4366602 C513.957734,65.9093628 509.925896,66.6457031 505.504624,66.6457031 Z M505.504624,59.6067188 C508.770336,59.6067188 511.772234,59.0201426 514.510408,57.8469727 C517.248583,56.6738027 519.622469,55.051358 521.632138,52.9795898 C523.641807,50.9078217 525.186717,48.4741546 526.266914,45.6785156 C527.347111,42.8828766 527.887202,39.8626334 527.887202,36.6176953 C527.887202,33.3727572 527.347111,30.352514 526.266914,27.556875 C525.186717,24.761236 523.641807,22.327569 521.632138,20.2558008 C519.622469,18.1840326 517.248583,16.5740682 514.510408,15.4258594 C511.772234,14.2776505 508.770336,13.7035547 505.504624,13.7035547 C502.238911,13.7035547 499.237013,14.2776505 496.498839,15.4258594 C493.760665,16.5740682 491.399339,18.1840326 489.41479,20.2558008 C487.430242,22.327569 485.885332,24.761236 484.780014,27.556875 C483.674696,30.352514 483.122045,33.3727572 483.122045,36.6176953 C483.122045,39.8626334 483.674696,42.8828766 484.780014,45.6785156 C485.885332,48.4741546 487.430242,50.9078217 489.41479,52.9795898 C491.399339,55.051358 493.760665,56.6738027 496.498839,57.8469727 C499.237013,59.0201426 502.238911,59.6067188 505.504624,59.6067188 Z M593.160392,54.0304938 L614.955682,9.51011719 C615.759549,8.1122977 616.915092,7.41339844 618.422344,7.41339844 C619.527662,7.41339844 620.45712,7.77532841 621.210746,8.49919922 C621.964372,9.22307003 622.341179,10.1590958 622.341179,11.3073047 L622.341179,62.0029688 C622.341179,63.1012555 621.951811,64.0248009 621.173065,64.7736328 C620.394318,65.5224647 619.47742,65.896875 618.422344,65.896875 C617.317026,65.896875 616.387568,65.5224647 615.633942,64.7736328 C614.880316,64.0248009 614.503509,63.1012555 614.503509,62.0029688 L614.503509,24.7684906 L596.265852,61.7034375 C595.411743,63.0014127 594.281321,63.6503906 592.874553,63.6503906 C591.216576,63.6503906 590.010792,62.8766093 589.257166,61.3290234 L571.245597,25.4659387 L571.245597,62.0029688 C571.245597,63.1012555 570.868789,64.0248009 570.115163,64.7736328 C569.361537,65.5224647 568.432074,65.896875 567.326761,65.896875 C566.221443,65.896875 565.291985,65.5224647 564.538359,64.7736328 C563.784733,64.0248009 563.407926,63.1012555 563.407926,62.0029688 L563.407926,11.3073047 C563.407926,10.1590958 563.784733,9.22307003 564.538359,8.49919922 C565.291985,7.77532841 566.221443,7.41339844 567.326761,7.41339844 C568.834013,7.41339844 569.989556,8.1122977 570.793423,9.51011719 L593.160392,54.0304938 Z M657.032919,65.896875 C655.927601,65.896875 654.998143,65.5224647 654.244517,64.7736328 C653.490891,64.0248009 653.114084,63.1012555 653.114084,62.0029688 L653.114084,11.3073047 C653.114084,10.1590958 653.490891,9.22307003 654.244517,8.49919922 C654.998143,7.77532841 655.927601,7.41339844 657.032919,7.41339844 L691.096641,7.41339844 C692.2522,7.41339844 693.181658,7.75036772 693.885043,8.42431641 C694.588427,9.09826509 694.940114,9.98436951 694.940114,11.0826562 C694.940114,12.1310209 694.588427,12.9796843 693.885043,13.6286719 C693.181658,14.2776595 692.2522,14.6021484 691.096641,14.6021484 L660.951754,14.6021484 L660.951754,32.7986719 L682.58071,32.7986719 C683.73627,32.7986719 684.665728,33.1356412 685.369112,33.8095898 C686.072496,34.4835385 686.424183,35.3446823 686.424183,36.3930469 C686.424183,37.4414115 686.072496,38.3025552 685.369112,38.9765039 C684.665728,39.6504526 683.73627,39.9874219 682.58071,39.9874219 L660.951754,39.9874219 L660.951754,58.708125 L691.096641,58.708125 C692.2522,58.708125 693.181658,59.0326139 693.885043,59.6816016 C694.588427,60.3305859 694.940114,61.1792526 694.940114,62.2276172 C694.940114,63.3258984 694.588427,64.2120083 693.885043,64.885957 C693.181658,65.5599057 692.2522,65.896875 691.096641,65.896875 L657.032919,65.896875 Z M740.257926,66.6457031 C737.042456,66.6457031 733.977756,66.1464844 731.063736,65.1480469 C728.149716,64.1496094 725.612546,62.7518059 723.452152,60.9546094 C721.291758,59.1574219 719.709167,57.0856758 718.704332,54.7393359 C718.201915,53.6909713 718.214475,52.7175045 718.742013,51.8189062 C719.269552,50.920308 720.161329,50.3462122 721.417372,50.0966016 C722.321723,49.8969131 723.213501,50.0341968 724.092731,50.508457 C724.971961,50.9827172 725.637654,51.6940968 726.08983,52.6426172 C726.69273,53.8906703 727.68499,55.0388619 729.066637,56.0872266 C730.448285,57.1355912 732.118797,57.9842546 734.078224,58.6332422 C736.037652,59.2822298 738.097532,59.6067188 740.257926,59.6067188 C742.669529,59.6067188 744.892692,59.2323084 746.927482,58.4834766 C748.962272,57.7346447 750.607664,56.6488548 751.863707,55.2260742 C753.119751,53.8032937 753.747763,52.0435652 753.747763,49.9468359 C753.747763,47.3009633 752.705263,44.929698 750.620231,42.8329688 C748.535199,40.7362395 745.106253,39.4382837 740.333288,38.9390625 C734.103314,38.339997 729.204819,36.5178668 725.637656,33.4726172 C722.070494,30.4273676 720.286939,26.6583037 720.286939,22.1653125 C720.286939,18.8704523 721.216397,16.0748552 723.075341,13.7784375 C724.934285,11.4820198 727.458894,9.73476563 730.649244,8.53664063 C733.839593,7.33850963 737.394142,6.73945313 741.312997,6.73945313 C744.377743,6.73945313 747.053075,7.16378482 749.339073,8.01246094 C751.625072,8.86113706 753.622151,10.0342894 755.330369,11.5319531 C757.038588,13.0296169 758.520697,14.8018257 759.77674,16.8486328 C760.480124,17.9469196 760.76901,18.9827881 760.643406,19.9562695 C760.517801,20.929751 760.027952,21.6910519 759.173842,22.2401953 C758.219249,22.8392608 757.18931,22.9640642 756.083991,22.6146094 C754.978673,22.2651545 754.149697,21.6161766 753.597038,20.6676563 C752.793171,19.2199219 751.813472,17.9968409 750.657912,16.9983984 C749.502352,15.9999559 748.145846,15.2136943 746.588352,14.6395898 C745.030859,14.0654854 743.197063,13.7784375 741.086911,13.7784375 C737.369023,13.7285156 734.254082,14.4149343 731.741996,15.8377148 C729.229909,17.2604954 727.973885,19.4445556 727.973885,22.3899609 C727.973885,23.8876247 728.363252,25.3228642 729.141999,26.6957227 C729.920746,28.0685811 731.352614,29.2542138 733.437646,30.2526563 C735.522677,31.2510987 738.524576,31.949998 742.44343,32.349375 C748.422196,32.9484405 753.082047,34.7580904 756.423121,37.7783789 C759.764196,40.7986674 761.434709,44.7798972 761.434709,49.7221875 C761.434709,52.5677486 760.844377,55.0388567 759.663697,57.1355859 C758.483016,59.2323152 756.900425,60.9920437 754.915877,62.4148242 C752.931329,63.8376048 750.670485,64.898434 748.133278,65.5973437 C745.59607,66.2962535 742.970979,66.6457031 740.257926,66.6457031 Z" id="ALPHAHOMES"></path>
            </g>
            <g id="emblem-dark" transform="translate(217.493182, 0.000000)" fill-rule="evenodd" stroke-width="1">
                <g id="ah-logo" transform="translate(20.110443, 20.110443)">
                    <g id="ah-logo-emblem" fill-rule="nonzero">
                        <g id="logo-core" transform="translate(8.399432, 2.799811)">
                            <g id="H-bottom">
                                <use fill="black" fill-opacity="1" filter="url(#filter-2)" xlink:href="#path-1"></use>
                                <use fill="#14A84E" xlink:href="#path-1"></use>
                            </g>
                            <g id="H-right">
                                <use fill="black" fill-opacity="1" filter="url(#filter-4)" xlink:href="#path-3"></use>
                                <use fill="#81B753" xlink:href="#path-3"></use>
                            </g>
                            <g id="H-left">
                                <use fill="black" fill-opacity="1" filter="url(#filter-6)" xlink:href="#path-5"></use>
                                <use fill="#AF6A3D" xlink:href="#path-5"></use>
                            </g>
                            <g id="A-cross">
                                <use fill="black" fill-opacity="1" filter="url(#filter-8)" xlink:href="#path-7"></use>
                                <use fill="#F64D54" xlink:href="#path-7"></use>
                            </g>
                            <g id="A-right">
                                <use fill="black" fill-opacity="1" filter="url(#filter-10)" xlink:href="#path-9"></use>
                                <use fill="#F0B573" xlink:href="#path-9"></use>
                            </g>
                            <g id="A-left">
                                <use fill="black" fill-opacity="1" filter="url(#filter-12)" xlink:href="#path-11"></use>
                                <use fill="#3DA5D9" xlink:href="#path-11"></use>
                            </g>
                        </g>
                        <g id="ring">
                            <use fill="black" fill-opacity="1" filter="url(#filter-14)" xlink:href="#path-13"></use>
                            <use fill="#131415" xlink:href="#path-13"></use>
                        </g>
                    </g>
                </g>
            </g>
        </g>
    </g>
</svg>