<?xml version="1.0" encoding="UTF-8"?>
<svg width="757px" height="445px" viewBox="0 0 757 445" version="1.1" xmlns="http://www.w3.org/2000/svg" xmlns:xlink="http://www.w3.org/1999/xlink">
    <!-- Generator: Sketch 55.1 (78136) - https://sketchapp.com -->
    <title>banner-dark</title>
    <desc>Created with Sketch.</desc>
    <defs>
        <path d="M104.465569,102.36042 C79.6632181,121.017719 45.5683421,121.017719 20.7659912,102.36042 C19.3086024,101.260565 18.9208567,99.3559373 19.8567945,98.2426693 L20.712509,97.2098785 C21.6618173,96.0831976 23.4668402,96.0295461 24.7771531,97.0086854 C47.199548,113.882073 78.0453828,113.882073 100.467778,97.0086854 C101.778091,96.0295461 103.583113,96.0831976 104.532422,97.2098785 L105.388136,98.2426693 C106.310703,99.3693502 105.936328,101.260565 104.465569,102.36042" id="path-1"></path>
        <filter x="-1.7%" y="-7.5%" width="103.5%" height="115.0%" filterUnits="objectBoundingBox" id="filter-2">
            <feOffset dx="0" dy="0" in="SourceAlpha" result="shadowOffsetOuter1"></feOffset>
            <feGaussianBlur stdDeviation="0.5" in="shadowOffsetOuter1" result="shadowBlurOuter1"></feGaussianBlur>
            <feColorMatrix values="0 0 0 0 0.0745098039   0 0 0 0 0.0784313725   0 0 0 0 0.0823529412  0 0 0 1 0" type="matrix" in="shadowBlurOuter1"></feColorMatrix>
        </filter>
        <path d="M95.6039607,120.844081 L95.6039607,120.844081 C94.0134038,120.05535 93.1847102,118.571465 93.7594493,117.542104 C102.581025,101.286214 105.521551,81.3540345 100.61622,61.5689061 C100.308801,60.2989147 101.391449,58.7882935 103.075568,58.2134553 L103.075568,58.2134553 C104.759687,57.6386171 106.457173,58.3070336 106.671029,59.29629 C112.137733,80.565303 109.197208,102.128419 99.7875263,119.868193 C99.039029,121.378814 97.2078836,121.619444 95.6039607,120.844081" id="path-3"></path>
        <filter x="-9.5%" y="-2.4%" width="119.0%" height="104.7%" filterUnits="objectBoundingBox" id="filter-4">
            <feOffset dx="0" dy="0" in="SourceAlpha" result="shadowOffsetOuter1"></feOffset>
            <feGaussianBlur stdDeviation="0.5" in="shadowOffsetOuter1" result="shadowBlurOuter1"></feGaussianBlur>
            <feColorMatrix values="0 0 0 0 0.0745098039   0 0 0 0 0.0784313725   0 0 0 0 0.0823529412  0 0 0 1 0" type="matrix" in="shadowBlurOuter1"></feColorMatrix>
        </filter>
        <path d="M30.4258601,120.835351 L30.3323363,120.835351 C31.9222407,120.047734 32.7505943,118.565947 32.1894515,117.524691 C23.3581338,101.278429 20.4188148,81.3343748 25.3221334,61.5638628 C25.6294258,60.2956666 24.547222,58.7871805 22.8637938,58.2131549 C21.1670051,57.6391292 19.4702163,58.3066009 19.2698082,59.294459 C13.8053469,80.5601077 16.7446659,102.119444 26.1504869,119.860842 C26.9120378,121.369328 28.7424319,121.622967 30.3456969,120.8487" id="path-5"></path>
        <filter x="-9.5%" y="-2.4%" width="119.0%" height="104.7%" filterUnits="objectBoundingBox" id="filter-6">
            <feOffset dx="0" dy="0" in="SourceAlpha" result="shadowOffsetOuter1"></feOffset>
            <feGaussianBlur stdDeviation="0.5" in="shadowOffsetOuter1" result="shadowBlurOuter1"></feGaussianBlur>
            <feColorMatrix values="0 0 0 0 0.0745098039   0 0 0 0 0.0784313725   0 0 0 0 0.0823529412  0 0 0 1 0" type="matrix" in="shadowBlurOuter1"></feColorMatrix>
        </filter>
        <path d="M112.455295,66.586709 C80.3219278,55.9562546 45.5798988,55.9562546 13.4465319,66.586709 C11.480002,67.2378243 9.32618346,66.2677954 8.64391797,64.3808897 C7.96165248,62.493984 9.07200612,60.341317 11.1455581,59.6636256 C44.7906113,48.5415127 81.1513486,48.5415127 114.796402,59.6636256 C116.869954,60.3546051 117.980307,62.493984 117.298042,64.3808897 C116.602399,66.2677954 114.44858,67.2378243 112.495428,66.586709" id="path-7"></path>
        <filter x="-1.4%" y="-9.7%" width="102.8%" height="119.4%" filterUnits="objectBoundingBox" id="filter-8">
            <feOffset dx="0" dy="0" in="SourceAlpha" result="shadowOffsetOuter1"></feOffset>
            <feGaussianBlur stdDeviation="0.5" in="shadowOffsetOuter1" result="shadowBlurOuter1"></feGaussianBlur>
            <feColorMatrix values="0 0 0 0 0.0745098039   0 0 0 0 0.0784313725   0 0 0 0 0.0823529412  0 0 0 1 0" type="matrix" in="shadowBlurOuter1"></feColorMatrix>
        </filter>
        <path d="M62.8417969,4.68445344 L62.8417969,1.17704599 L63.3527276,1.17704599 C63.887787,0.411076041 64.7420762,2.08554533e-06 65.6099179,7.99242427e-12 L65.6099254,0 C66.1519045,-1.30245695e-06 66.699177,0.160327068 67.177278,0.494668514 C91.9833658,17.4738258 113.740511,45.2907431 125.374633,81.4701295 C125.989771,83.3968423 125.240908,86.0326926 123.729809,87.2502681 C122.205338,88.4544637 120.507024,87.8389859 119.932004,85.925653 C109.18047,50.0406255 88.198933,22.3441278 64.0614729,5.35159058 C63.8876297,5.21779107 63.7271591,5.07061161 63.580061,4.91005221 C63.3605709,4.77584521 63.1077235,4.69726455 62.8417969,4.6844549 Z" id="path-9"></path>
        <filter x="-2.4%" y="-1.7%" width="104.8%" height="103.4%" filterUnits="objectBoundingBox" id="filter-10">
            <feOffset dx="0" dy="0" in="SourceAlpha" result="shadowOffsetOuter1"></feOffset>
            <feGaussianBlur stdDeviation="0.5" in="shadowOffsetOuter1" result="shadowBlurOuter1"></feGaussianBlur>
            <feColorMatrix values="0 0 0 0 0.0745098039   0 0 0 0 0.0784313725   0 0 0 0 0.0823529412  0 0 0 1 0" type="matrix" in="shadowBlurOuter1"></feColorMatrix>
        </filter>
        <path d="M62.8417969,4.6844549 C62.8160924,4.68321672 62.7902658,4.68259305 62.7643352,4.68259305 C62.5370018,4.68259305 62.3230409,4.7227329 62.1224526,4.81639255 C61.9486094,5.01709181 61.7613936,5.20441112 61.5474328,5.35159058 C37.4099727,22.3441278 16.4284353,50.0406255 5.67690187,85.925653 C5.10188204,87.8389859 3.40356767,88.4812236 1.87909651,87.2502681 C0.354625347,86.0193127 -0.407610235,83.3968423 0.220899806,81.4701295 C11.8683944,45.2773631 33.6121673,17.4872058 58.4182551,0.494668514 C59.6619026,-0.361648324 61.3735896,-0.0539094604 62.2428056,1.17704599 L62.8417969,1.17704599 L62.8417969,4.68445344 Z" id="path-11"></path>
        <filter x="-2.4%" y="-1.7%" width="104.8%" height="103.4%" filterUnits="objectBoundingBox" id="filter-12">
            <feOffset dx="0" dy="0" in="SourceAlpha" result="shadowOffsetOuter1"></feOffset>
            <feGaussianBlur stdDeviation="0.5" in="shadowOffsetOuter1" result="shadowBlurOuter1"></feGaussianBlur>
            <feColorMatrix values="0 0 0 0 0.0745098039   0 0 0 0 0.0784313725   0 0 0 0 0.0823529412  0 0 0 1 0" type="matrix" in="shadowBlurOuter1"></feColorMatrix>
        </filter>
        <path d="M66.4599648,133.775316 C29.7960626,133.775316 0,103.771138 0,66.8809728 C0,29.9908081 29.7960626,0 66.4599648,0 C103.123867,0 132.906646,30.0041789 132.906646,66.8943437 C132.906646,103.784508 103.097299,133.775316 66.4599648,133.775316 M66.4599648,6.00350995 C33.1037842,6.00350995 5.97781015,33.3201488 5.97781015,66.8943437 C5.97781015,100.468539 33.1037842,127.785177 66.4732488,127.785177 C99.8427135,127.785177 126.955403,100.468539 126.955403,66.8943437 C126.955403,33.3201488 99.8161454,6.00350995 66.4599648,6.00350995" id="path-13"></path>
        <filter x="-1.1%" y="-1.1%" width="102.3%" height="102.2%" filterUnits="objectBoundingBox" id="filter-14">
            <feOffset dx="0" dy="0" in="SourceAlpha" result="shadowOffsetOuter1"></feOffset>
            <feGaussianBlur stdDeviation="0.5" in="shadowOffsetOuter1" result="shadowBlurOuter1"></feGaussianBlur>
            <feColorMatrix values="0 0 0 0 0   0 0 0 0 0   0 0 0 0 0  0 0 0 0.147836538 0" type="matrix" in="shadowBlurOuter1" result="shadowMatrixOuter1"></feColorMatrix>
            <feOffset dx="0" dy="0" in="SourceAlpha" result="shadowOffsetOuter2"></feOffset>
            <feGaussianBlur stdDeviation="0.5" in="shadowOffsetOuter2" result="shadowBlurOuter2"></feGaussianBlur>
            <feColorMatrix values="0 0 0 0 0   0 0 0 0 0   0 0 0 0 0  0 0 0 0.417340472 0" type="matrix" in="shadowBlurOuter2" result="shadowMatrixOuter2"></feColorMatrix>
            <feMerge>
                <feMergeNode in="shadowMatrixOuter1"></feMergeNode>
                <feMergeNode in="shadowMatrixOuter2"></feMergeNode>
            </feMerge>
        </filter>
    </defs>
    <g id="banner-dark" stroke="none" stroke-width="1" fill="none" fill-rule="evenodd">
        <g id="logo-halfstack" transform="translate(179.000000, 112.000000)">
            <g id="text-light" transform="translate(0.000000, 188.156250)" fill="#FFFFFF" fill-rule="nonzero">
                <path d="M24.6147486,33.03585 L22.0082682,27.05805 L8.92759777,27.05805 L6.32111732,33.03585 C5.69363128,34.49385 4.43865922,35.17425 3.23195531,35.17425 C1.59083799,35.17425 0.0945251397,33.91065 0.0945251397,32.01525 C0.0945251397,31.52925 0.191061453,30.99465 0.432402235,30.50865 L12.402905,3.14685 C13.1269274,1.44585 14.237095,1.00845 15.5403352,1.00845 C16.7953073,1.00845 17.8572067,1.44585 18.5812291,3.14685 L30.5517318,30.50865 C30.7448045,30.99465 30.8413408,31.52925 30.8413408,32.01525 C30.8413408,33.91065 29.3932961,35.17425 27.7039106,35.17425 C26.4972067,35.17425 25.2422346,34.49385 24.6147486,33.03585 Z M15.492067,11.94345 L11.4858101,21.17745 L19.4500559,21.17745 L15.492067,11.94345 Z M50.0681564,4.50765 L50.0681564,28.41885 L58.273743,28.41885 C60.5423464,28.41885 61.7973184,29.53665 61.7973184,31.67505 C61.7973184,33.81345 60.5423464,34.93125 58.273743,34.93125 L46.7376536,34.93125 C44.8551955,34.93125 43.5519553,33.52185 43.5519553,31.67505 L43.5519553,4.45905 C43.5519553,2.12625 44.6138547,1.00845 46.7376536,1.00845 C48.9579888,1.00845 50.0681564,2.22345 50.0681564,4.50765 Z M77.7418994,1.25145 L85.1751955,1.25145 C91.5465922,1.25145 95.6493855,6.06285 95.6493855,11.74905 C95.6493855,17.48385 91.5465922,22.29525 85.1751955,22.29525 L80.4449162,22.29525 L80.4449162,31.67505 C80.4449162,33.95925 79.2864804,35.17425 77.1626816,35.17425 C75.0871508,35.17425 73.9287151,33.95925 73.9287151,31.67505 L73.9287151,5.09085 C73.9287151,2.51505 75.1836872,1.25145 77.7418994,1.25145 Z M80.396648,7.76385 L80.396648,16.26885 L85.2234637,16.26885 C87.492067,16.26885 89.1814525,14.27625 89.1814525,11.94345 C89.1814525,9.65925 87.492067,7.76385 85.2234637,7.76385 L80.396648,7.76385 Z M114.296983,4.55625 L114.296983,14.08185 L126.364022,14.08185 L126.364022,4.55625 C126.364022,2.17485 127.522458,1.00845 129.742793,1.00845 C131.770056,1.00845 132.831955,2.17485 132.831955,4.55625 L132.831955,31.82085 C132.831955,34.00785 131.818324,35.17425 129.694525,35.17425 C127.425922,35.17425 126.364022,34.00785 126.364022,31.82085 L126.364022,20.69145 L114.296983,20.69145 L114.296983,31.82085 C114.296983,34.00785 113.235084,35.17425 111.063017,35.17425 C108.89095,35.17425 107.780782,34.00785 107.780782,31.82085 L107.780782,4.55625 C107.780782,2.17485 108.89095,1.00845 111.111285,1.00845 C113.235084,1.00845 114.296983,2.17485 114.296983,4.55625 Z M170.255866,33.03585 L167.649385,27.05805 L154.568715,27.05805 L151.962235,33.03585 C151.334749,34.49385 150.079777,35.17425 148.873073,35.17425 C147.231955,35.17425 145.735642,33.91065 145.735642,32.01525 C145.735642,31.52925 145.832179,30.99465 146.07352,30.50865 L158.044022,3.14685 C158.768045,1.44585 159.878212,1.00845 161.181453,1.00845 C162.436425,1.00845 163.498324,1.44585 164.222346,3.14685 L176.192849,30.50865 C176.385922,30.99465 176.482458,31.52925 176.482458,32.01525 C176.482458,33.91065 175.034413,35.17425 173.345028,35.17425 C172.138324,35.17425 170.883352,34.49385 170.255866,33.03585 Z M161.133184,11.94345 L157.126927,21.17745 L165.091173,21.17745 L161.133184,11.94345 Z" id="ALPHA"></path>
                <path d="M220.50905,4.55625 L220.50905,14.08185 L232.576089,14.08185 L232.576089,4.55625 C232.576089,2.17485 233.734525,1.00845 235.95486,1.00845 C237.982123,1.00845 239.044022,2.17485 239.044022,4.55625 L239.044022,31.82085 C239.044022,34.00785 238.030391,35.17425 235.906592,35.17425 C233.637989,35.17425 232.576089,34.00785 232.576089,31.82085 L232.576089,20.69145 L220.50905,20.69145 L220.50905,31.82085 C220.50905,34.00785 219.447151,35.17425 217.275084,35.17425 C215.103017,35.17425 213.992849,34.00785 213.992849,31.82085 L213.992849,4.55625 C213.992849,2.17485 215.103017,1.00845 217.323352,1.00845 C219.447151,1.00845 220.50905,2.17485 220.50905,4.55625 Z M284.311508,18.06705 C284.311508,27.88425 276.540335,35.66025 266.790168,35.66025 C257.136536,35.66025 249.268827,27.93285 249.268827,18.26145 C249.268827,8.68725 256.750391,0.42525 266.548827,0.42525 C276.636872,0.42525 284.311508,8.44425 284.311508,18.06705 Z M266.741899,6.93765 C260.563575,6.93765 255.881564,12.18645 255.881564,18.26145 C255.881564,24.28785 260.611844,29.24505 266.741899,29.24505 C272.920223,29.24505 277.698771,24.33645 277.698771,18.06705 C277.698771,11.99205 272.775419,6.93765 266.741899,6.93765 Z M312.117989,24.48225 L321.047598,3.53565 C321.77162,1.83465 322.930056,1.00845 324.667709,1.00845 C326.550168,1.00845 328.239553,2.17485 328.239553,4.94505 L328.239553,31.62645 C328.239553,34.00785 327.225922,35.17425 325.053855,35.17425 C322.881788,35.17425 321.868156,34.00785 321.868156,31.62645 L321.868156,17.82405 L315.351955,33.08445 C314.772737,34.39665 313.421229,35.17425 312.117989,35.17425 C310.863017,35.17425 309.366704,34.39665 308.787486,33.08445 L302.367821,17.82405 L302.367821,31.62645 C302.367821,34.00785 301.35419,35.17425 299.182123,35.17425 C297.010056,35.17425 295.996425,34.00785 295.996425,31.62645 L295.996425,4.94505 C295.996425,2.17485 297.637542,1.00845 299.568268,1.00845 C301.305922,1.00845 302.464358,1.83465 303.18838,3.53565 L312.117989,24.48225 Z M343.090056,1.25145 L357.90838,1.25145 C359.74257,1.25145 361.142346,2.66085 361.142346,4.50765 C361.142346,6.30585 359.74257,7.76385 357.90838,7.76385 L346.372291,7.76385 L346.372291,13.93605 L357.618771,13.93605 C359.308156,13.93605 360.563128,15.24825 360.563128,16.94925 C360.563128,18.55305 359.308156,19.96245 357.618771,19.96245 L346.372291,19.96245 L346.372291,28.41885 L357.811844,28.41885 C359.597765,28.41885 361.04581,29.77965 361.04581,31.67505 C361.04581,33.52185 359.597765,34.93125 357.811844,34.93125 L343.090056,34.93125 C341.207598,34.93125 339.904358,33.52185 339.904358,31.67505 L339.904358,4.50765 C339.904358,2.66085 341.207598,1.25145 343.090056,1.25145 Z M386.141229,9.6795 C385.755084,8.4159 385.175866,7.2981 383.48648,7.2981 C381.700559,7.2981 380.928268,8.5617 380.928268,9.8739 C380.928268,12.0123 383.100335,13.2273 384.741453,14.1021 C387.444469,15.5601 389.230391,16.6779 390.533631,17.8443 C392.609162,19.7397 393.864134,22.3641 393.864134,25.7175 C393.864134,32.7645 388.409832,36.0207 383.389944,36.0207 C377.404693,36.0207 372.529609,31.4037 372.529609,27.0783 C372.529609,24.8427 373.832849,23.7249 375.763575,23.7249 C377.74257,23.7249 378.321788,24.8913 378.949274,26.4465 C379.818101,28.4877 380.976536,29.6055 383.196872,29.6055 C385.658547,29.6055 387.251397,28.2447 387.251397,25.8633 C387.251397,24.1623 386.430838,23.0445 385.272402,22.1211 C383.969162,21.1005 382.038436,20.2743 380.252514,19.1565 C377.066816,17.1639 374.412067,14.2965 374.412067,9.8253 C374.412067,3.8961 379.094078,1.0287 383.438212,1.0287 C387.927151,1.0287 392.416089,4.0905 392.416089,8.6589 C392.416089,10.7001 391.498994,12.2067 389.230391,12.2067 C387.010056,12.2067 386.479106,10.7973 386.141229,9.6795 Z" id="HOMES"></path>
            </g>
            <g id="emblem-light" transform="translate(120.368715, 0.000000)" fill-rule="evenodd" stroke-width="1">
                <g id="ah-logo" transform="translate(10.022468, 10.087975)">
                    <g id="ah-logo-emblem" fill-rule="nonzero">
                        <g id="logo-core" transform="translate(4.186036, 1.404465)">
                            <g id="H-bottom">
                                <use fill="black" fill-opacity="1" filter="url(#filter-2)" xlink:href="#path-1"></use>
                                <use fill="#14A84E" xlink:href="#path-1"></use>
                            </g>
                            <g id="H-right">
                                <use fill="black" fill-opacity="1" filter="url(#filter-4)" xlink:href="#path-3"></use>
                                <use fill="#81B753" xlink:href="#path-3"></use>
                            </g>
                            <g id="H-left">
                                <use fill="black" fill-opacity="1" filter="url(#filter-6)" xlink:href="#path-5"></use>
                                <use fill="#AF6A3D" xlink:href="#path-5"></use>
                            </g>
                            <g id="A-cross">
                                <use fill="black" fill-opacity="1" filter="url(#filter-8)" xlink:href="#path-7"></use>
                                <use fill="#F64D54" xlink:href="#path-7"></use>
                            </g>
                            <g id="A-right">
                                <use fill="black" fill-opacity="1" filter="url(#filter-10)" xlink:href="#path-9"></use>
                                <use fill="#F0B573" xlink:href="#path-9"></use>
                            </g>
                            <g id="A-left">
                                <use fill="black" fill-opacity="1" filter="url(#filter-12)" xlink:href="#path-11"></use>
                                <use fill="#3DA5D9" xlink:href="#path-11"></use>
                            </g>
                        </g>
                        <g id="ring">
                            <use fill="black" fill-opacity="1" filter="url(#filter-14)" xlink:href="#path-13"></use>
                            <use fill="#FFFFFF" xlink:href="#path-13"></use>
                        </g>
                    </g>
                </g>
            </g>
        </g>
    </g>
</svg>