<?xml version="1.0" encoding="UTF-8"?>
<svg width="757px" height="445px" viewBox="0 0 757 445" version="1.1" xmlns="http://www.w3.org/2000/svg" xmlns:xlink="http://www.w3.org/1999/xlink">
    <!-- Generator: Sketch 55.1 (78136) - https://sketchapp.com -->
    <title>banner-dark</title>
    <desc>Created with Sketch.</desc>
    <defs>
        <path d="M208.931138,204.720839 C159.326436,242.035438 91.1366843,242.035438 41.5319824,204.720839 C38.6172047,202.521129 37.8417134,198.711875 39.713589,196.485339 L41.4250181,194.419757 C43.3236347,192.166395 46.9336804,192.059092 49.5543061,194.017371 C94.3990959,227.764146 156.090766,227.764146 200.935555,194.017371 C203.556181,192.059092 207.166227,192.166395 209.064843,194.419757 L210.776273,196.485339 C212.621407,198.7387 211.872657,202.521129 208.931138,204.720839" id="path-1"></path>
        <filter x="-0.9%" y="-3.7%" width="101.7%" height="107.5%" filterUnits="objectBoundingBox" id="filter-2">
            <feOffset dx="0" dy="0" in="SourceAlpha" result="shadowOffsetOuter1"></feOffset>
            <feGaussianBlur stdDeviation="0.5" in="shadowOffsetOuter1" result="shadowBlurOuter1"></feGaussianBlur>
            <feColorMatrix values="0 0 0 0 0.0745098039   0 0 0 0 0.0784313725   0 0 0 0 0.0823529412  0 0 0 1 0" type="matrix" in="shadowBlurOuter1"></feColorMatrix>
        </filter>
        <path d="M191.207921,241.688163 L191.207921,241.688163 C188.026808,240.1107 186.36942,237.14293 187.518899,235.084208 C205.162051,202.572429 211.043102,162.708069 201.23244,123.137812 C200.617603,120.597829 202.782899,117.576587 206.151137,116.426911 L206.151137,116.426911 C209.519375,115.277234 212.914345,116.614067 213.342058,118.59258 C224.275466,161.130606 218.394415,204.256839 199.575053,239.736386 C198.078058,242.757629 194.415767,243.238889 191.207921,241.688163" id="path-3"></path>
        <filter x="-4.7%" y="-1.2%" width="109.5%" height="102.4%" filterUnits="objectBoundingBox" id="filter-4">
            <feOffset dx="0" dy="0" in="SourceAlpha" result="shadowOffsetOuter1"></feOffset>
            <feGaussianBlur stdDeviation="0.5" in="shadowOffsetOuter1" result="shadowBlurOuter1"></feGaussianBlur>
            <feColorMatrix values="0 0 0 0 0.0745098039   0 0 0 0 0.0784313725   0 0 0 0 0.0823529412  0 0 0 1 0" type="matrix" in="shadowBlurOuter1"></feColorMatrix>
        </filter>
        <path d="M60.8517202,241.670701 L60.6646726,241.670701 C63.8444814,240.095468 65.5011886,237.131893 64.3789031,235.049382 C46.7162677,202.556859 40.8376295,162.66875 50.6442668,123.127726 C51.2588517,120.591333 49.094444,117.574361 45.7275876,116.42631 C42.3340102,115.278258 38.9404327,116.613202 38.5396165,118.588918 C27.6106938,161.120215 33.4893319,204.238888 52.3009739,239.721684 C53.8240756,242.738656 57.4848638,243.245934 60.6913937,241.6974" id="path-5"></path>
        <filter x="-4.7%" y="-1.2%" width="109.5%" height="102.4%" filterUnits="objectBoundingBox" id="filter-6">
            <feOffset dx="0" dy="0" in="SourceAlpha" result="shadowOffsetOuter1"></feOffset>
            <feGaussianBlur stdDeviation="0.5" in="shadowOffsetOuter1" result="shadowBlurOuter1"></feGaussianBlur>
            <feColorMatrix values="0 0 0 0 0.0745098039   0 0 0 0 0.0784313725   0 0 0 0 0.0823529412  0 0 0 1 0" type="matrix" in="shadowBlurOuter1"></feColorMatrix>
        </filter>
        <path d="M224.910589,133.173418 C160.643856,111.912509 91.1597976,111.912509 26.8930638,133.173418 C22.9600039,134.475649 18.6523669,132.535591 17.2878359,128.761779 C15.923305,124.987968 18.1440122,120.682634 22.2911162,119.327251 C89.5812225,97.0830253 162.302697,97.0830253 229.592804,119.327251 C233.739908,120.70921 235.960615,124.987968 234.596084,128.761779 C233.204797,132.535591 228.89716,134.475649 224.990856,133.173418" id="path-7"></path>
        <filter x="-0.7%" y="-4.8%" width="101.4%" height="109.7%" filterUnits="objectBoundingBox" id="filter-8">
            <feOffset dx="0" dy="0" in="SourceAlpha" result="shadowOffsetOuter1"></feOffset>
            <feGaussianBlur stdDeviation="0.5" in="shadowOffsetOuter1" result="shadowBlurOuter1"></feGaussianBlur>
            <feColorMatrix values="0 0 0 0 0.0745098039   0 0 0 0 0.0784313725   0 0 0 0 0.0823529412  0 0 0 1 0" type="matrix" in="shadowBlurOuter1"></feColorMatrix>
        </filter>
        <path d="M125.683594,9.36890688 L125.683594,2.35409199 L126.705455,2.35409199 C127.775574,0.822152083 129.484152,4.17119141e-06 131.219836,1.59287682e-11 L131.219851,0 C132.303809,-2.60497692e-06 133.398354,0.320654137 134.354556,0.989337027 C183.966732,34.9476516 227.481023,90.5814861 250.749267,162.940259 C251.979542,166.793685 250.481816,172.065385 247.459618,174.500536 C244.410676,176.908927 241.014047,175.677972 239.864008,171.851306 C218.360941,100.081251 176.397866,44.6882556 128.122946,10.7031812 C127.775259,10.4355821 127.454318,10.1412232 127.160122,9.82010441 C126.721142,9.55169042 126.215447,9.3945291 125.683594,9.3689098 Z" id="path-9"></path>
        <filter x="-1.2%" y="-0.9%" width="102.4%" height="101.7%" filterUnits="objectBoundingBox" id="filter-10">
            <feOffset dx="0" dy="0" in="SourceAlpha" result="shadowOffsetOuter1"></feOffset>
            <feGaussianBlur stdDeviation="0.5" in="shadowOffsetOuter1" result="shadowBlurOuter1"></feGaussianBlur>
            <feColorMatrix values="0 0 0 0 0.0745098039   0 0 0 0 0.0784313725   0 0 0 0 0.0823529412  0 0 0 1 0" type="matrix" in="shadowBlurOuter1"></feColorMatrix>
        </filter>
        <path d="M125.683594,9.3689098 C125.632185,9.36643344 125.580532,9.36518609 125.52867,9.36518609 C125.074004,9.36518609 124.646082,9.4454658 124.244905,9.63278511 C123.897219,10.0341836 123.522787,10.4088222 123.094866,10.7031812 C74.8199453,44.6882556 32.8568707,100.081251 11.3538037,171.851306 C10.2037641,175.677972 6.80713535,176.962447 3.75819302,174.500536 C0.709250694,172.038625 -0.81522047,166.793685 0.441799612,162.940259 C23.7367888,90.5547262 67.2243346,34.9744115 116.83651,0.989337027 C119.323805,-0.723296648 122.747179,-0.107818921 124.485611,2.35409199 L125.683594,2.35409199 L125.683594,9.36890688 Z" id="path-11"></path>
        <filter x="-1.2%" y="-0.9%" width="102.4%" height="101.7%" filterUnits="objectBoundingBox" id="filter-12">
            <feOffset dx="0" dy="0" in="SourceAlpha" result="shadowOffsetOuter1"></feOffset>
            <feGaussianBlur stdDeviation="0.5" in="shadowOffsetOuter1" result="shadowBlurOuter1"></feGaussianBlur>
            <feColorMatrix values="0 0 0 0 0.0745098039   0 0 0 0 0.0784313725   0 0 0 0 0.0823529412  0 0 0 1 0" type="matrix" in="shadowBlurOuter1"></feColorMatrix>
        </filter>
        <path d="M133.354308,266.681962 C59.7868706,266.681962 0,206.868437 0,133.327654 C0,59.7868706 59.7868706,0 133.354308,0 C206.921746,0 266.681962,59.8135255 266.681962,133.354308 C266.681962,206.895091 206.868437,266.681962 133.354308,266.681962 M133.354308,11.9680361 C66.423933,11.9680361 11.9946909,66.423933 11.9946909,133.354308 C11.9946909,200.284684 66.423933,254.740581 133.380963,254.740581 C200.337994,254.740581 254.740581,200.284684 254.740581,133.354308 C254.740581,66.423933 200.284684,11.9680361 133.354308,11.9680361" id="path-13"></path>
        <filter x="-0.6%" y="-0.6%" width="101.1%" height="101.1%" filterUnits="objectBoundingBox" id="filter-14">
            <feOffset dx="0" dy="0" in="SourceAlpha" result="shadowOffsetOuter1"></feOffset>
            <feGaussianBlur stdDeviation="0.5" in="shadowOffsetOuter1" result="shadowBlurOuter1"></feGaussianBlur>
            <feColorMatrix values="0 0 0 0 0   0 0 0 0 0   0 0 0 0 0  0 0 0 0.147836538 0" type="matrix" in="shadowBlurOuter1" result="shadowMatrixOuter1"></feColorMatrix>
            <feOffset dx="0" dy="0" in="SourceAlpha" result="shadowOffsetOuter2"></feOffset>
            <feGaussianBlur stdDeviation="0.5" in="shadowOffsetOuter2" result="shadowBlurOuter2"></feGaussianBlur>
            <feColorMatrix values="0 0 0 0 0   0 0 0 0 0   0 0 0 0 0  0 0 0 0.417340472 0" type="matrix" in="shadowBlurOuter2" result="shadowMatrixOuter2"></feColorMatrix>
            <feMerge>
                <feMergeNode in="shadowMatrixOuter1"></feMergeNode>
                <feMergeNode in="shadowMatrixOuter2"></feMergeNode>
            </feMerge>
        </filter>
    </defs>
    <g id="banner-dark" stroke="none" stroke-width="1" fill="none" fill-rule="evenodd">
        <g id="logo-halfstack" transform="translate(201.000000, 112.000000)">
            <g id="text-light" transform="translate(10.018156, 376.312500)" fill="#FFFFFF" fill-rule="nonzero">
                <path d="M39.9138647,17.959095 L22.0174441,61.50375 C21.666367,62.302504 21.1522974,62.9015605 20.47522,63.3009375 C19.7981426,63.7003145 19.108537,63.9 18.4063827,63.9 C17.002074,63.9 15.9237817,63.3009435 15.1714735,62.1028125 C14.4191652,60.9046815 14.3439355,59.6316864 14.9457821,58.2837891 L36.0855377,8.03742188 C36.8378459,6.29014751 38.0665976,5.41652344 39.7718296,5.41652344 C41.5773694,5.41652344 42.806121,6.29014751 43.4581215,8.03742188 L64.6731075,58.4335547 C65.2248002,59.8313672 65.1370323,61.0918889 64.409801,62.2151367 C63.6825697,63.3383845 62.5917391,63.9 61.1372765,63.9 C60.3849683,63.9 59.6702862,63.6878342 58.9932088,63.2634961 C58.3161314,62.839158 57.8271384,62.2525819 57.5262151,61.50375 L39.9138647,17.959095 Z M22.3935964,51.0201562 L25.4028142,44.5802344 L54.8931494,44.5802344 L57.9023673,51.0201562 L22.3935964,51.0201562 Z M93.1352933,63.9 C92.0319079,63.9 91.1166133,63.5255897 90.389382,62.7767578 C89.6621507,62.0279259 89.2985405,61.1043805 89.2985405,60.0060937 L89.2985405,9.31042969 C89.2985405,8.21214295 89.674689,7.28859749 90.4269972,6.53976563 C91.1793054,5.79093376 92.0820618,5.41652344 93.1352933,5.41652344 C94.2386787,5.41652344 95.1665116,5.79093376 95.9188198,6.53976563 C96.6711281,7.28859749 97.0472765,8.21214295 97.0472765,9.31042969 L97.0472765,56.1121875 L124.280698,56.1121875 C125.384084,56.1121875 126.311917,56.4865978 127.064225,57.2354297 C127.816533,57.9842616 128.192682,58.907807 128.192682,60.0060937 C128.192682,61.1043805 127.816533,62.0279259 127.064225,62.7767578 C126.311917,63.5255897 125.384084,63.9 124.280698,63.9 L93.1352933,63.9 Z M157.18148,63.9 C156.078095,63.9 155.150262,63.5255897 154.397954,62.7767578 C153.645646,62.0279259 153.269497,61.1043805 153.269497,60.0060937 L153.269497,9.31042969 C153.269497,8.16222082 153.645646,7.22619503 154.397954,6.50232422 C155.150262,5.77845341 156.078095,5.41652344 157.18148,5.41652344 L172.22757,5.41652344 C175.989111,5.41652344 179.324294,6.24022614 182.233219,7.88765625 C185.142144,9.53508636 187.411574,11.8189893 189.041575,14.7394336 C190.671576,17.6598779 191.486564,21.0170904 191.486564,24.8111719 C191.486564,28.455487 190.671576,31.7003764 189.041575,34.5459375 C187.411574,37.3914986 185.142144,39.6129998 182.233219,41.2105078 C179.324294,42.8080158 175.989111,43.6067578 172.22757,43.6067578 L161.093464,43.6067578 L161.093464,60.0060937 C161.093464,61.1043805 160.729853,62.0279259 160.002622,62.7767578 C159.275391,63.5255897 158.33502,63.9 157.18148,63.9 Z M161.093464,36.4180078 L172.22757,36.4180078 C174.534648,36.4180078 176.56585,35.9187941 178.321236,34.9203516 C180.076622,33.9219091 181.455833,32.5490712 182.458911,30.8017969 C183.461988,29.0545225 183.96352,27.0576675 183.96352,24.8111719 C183.96352,22.4149099 183.461988,20.3057318 182.458911,18.4835742 C181.455833,16.6614167 180.076622,15.2261771 178.321236,14.1778125 C176.56585,13.1294479 174.534648,12.6052734 172.22757,12.6052734 L161.093464,12.6052734 L161.093464,36.4180078 Z M219.723059,63.9 C218.619673,63.9 217.69184,63.5255897 216.939532,62.7767578 C216.187224,62.0279259 215.811075,61.1043805 215.811075,60.0060937 L215.811075,9.31042969 C215.811075,8.16222082 216.187224,7.22619503 216.939532,6.50232422 C217.69184,5.77845341 218.619673,5.41652344 219.723059,5.41652344 C220.876598,5.41652344 221.816969,5.77845341 222.5442,6.50232422 C223.271432,7.22619503 223.635042,8.16222082 223.635042,9.31042969 L223.635042,30.8017969 L258.541969,30.8017969 L258.541969,9.31042969 C258.541969,8.16222082 258.918118,7.22619503 259.670426,6.50232422 C260.422734,5.77845341 261.350567,5.41652344 262.453953,5.41652344 C263.607492,5.41652344 264.535325,5.77845341 265.237479,6.50232422 C265.939633,7.22619503 266.290705,8.16222082 266.290705,9.31042969 L266.290705,60.0060937 C266.290705,61.1043805 265.939633,62.0279259 265.237479,62.7767578 C264.535325,63.5255897 263.607492,63.9 262.453953,63.9 C261.350567,63.9 260.422734,63.5255897 259.670426,62.7767578 C258.918118,62.0279259 258.541969,61.1043805 258.541969,60.0060937 L258.541969,37.6910156 L223.635042,37.6910156 L223.635042,60.0060937 C223.635042,61.1043805 223.271432,62.0279259 222.5442,62.7767578 C221.816969,63.5255897 220.876598,63.9 219.723059,63.9 Z M316.185143,17.959095 L298.288722,61.50375 C297.937645,62.302504 297.423575,62.9015605 296.746498,63.3009375 C296.06942,63.7003145 295.379815,63.9 294.677661,63.9 C293.273352,63.9 292.19506,63.3009435 291.442751,62.1028125 C290.690443,60.9046815 290.615213,59.6316864 291.21706,58.2837891 L312.356816,8.03742188 C313.109124,6.29014751 314.337876,5.41652344 316.043108,5.41652344 C317.848647,5.41652344 319.077399,6.29014751 319.729399,8.03742188 L340.944385,58.4335547 C341.496078,59.8313672 341.40831,61.0918889 340.681079,62.2151367 C339.953848,63.3383845 338.863017,63.9 337.408554,63.9 C336.656246,63.9 335.941564,63.6878342 335.264487,63.2634961 C334.587409,62.839158 334.098416,62.2525819 333.797493,61.50375 L316.185143,17.959095 L316.185143,17.959095 Z M298.664874,51.0201562 L301.674092,44.5802344 L331.164427,44.5802344 L334.173645,51.0201562 L298.664874,51.0201562 Z M407.197332,63.9 C406.093947,63.9 405.166114,63.5255897 404.413806,62.7767578 C403.661498,62.0279259 403.285349,61.1043805 403.285349,60.0060937 L403.285349,9.31042969 C403.285349,8.16222082 403.661498,7.22619503 404.413806,6.50232422 C405.166114,5.77845341 406.093947,5.41652344 407.197332,5.41652344 C408.350872,5.41652344 409.291243,5.77845341 410.018474,6.50232422 C410.745705,7.22619503 411.109316,8.16222082 411.109316,9.31042969 L411.109316,30.8017969 L446.016243,30.8017969 L446.016243,9.31042969 C446.016243,8.16222082 446.392391,7.22619503 447.1447,6.50232422 C447.897008,5.77845341 448.824841,5.41652344 449.928226,5.41652344 C451.081766,5.41652344 452.009598,5.77845341 452.711753,6.50232422 C453.413907,7.22619503 453.764979,8.16222082 453.764979,9.31042969 L453.764979,60.0060937 C453.764979,61.1043805 453.413907,62.0279259 452.711753,62.7767578 C452.009598,63.5255897 451.081766,63.9 449.928226,63.9 C448.824841,63.9 447.897008,63.5255897 447.1447,62.7767578 C446.392391,62.0279259 446.016243,61.1043805 446.016243,60.0060937 L446.016243,37.6910156 L411.109316,37.6910156 L411.109316,60.0060937 C411.109316,61.1043805 410.745705,62.0279259 410.018474,62.7767578 C409.291243,63.5255897 408.350872,63.9 407.197332,63.9 Z M511.64227,64.6488281 C507.228728,64.6488281 503.191401,63.9124878 499.530168,62.4397852 C495.868934,60.9670825 492.721825,58.8953454 490.088747,56.2245117 C487.455668,53.5536781 485.411928,50.3836707 483.957465,46.7143945 C482.503003,43.0451184 481.775782,39.0139673 481.775782,34.6208203 C481.775782,30.2276733 482.503003,26.2090026 483.957465,22.5646875 C485.411928,18.9203724 487.455668,15.7628454 490.088747,13.0920117 C492.721825,10.4211781 495.868934,8.34944096 499.530168,6.87673828 C503.191401,5.40403561 507.228728,4.66769531 511.64227,4.66769531 C516.055811,4.66769531 520.0806,5.40403561 523.716756,6.87673828 C527.352913,8.34944096 530.500022,10.4211781 533.158177,13.0920117 C535.816333,15.7628454 537.872611,18.9203724 539.327074,22.5646875 C540.781537,26.2090026 541.508757,30.2276733 541.508757,34.6208203 C541.508757,39.0139673 540.781537,43.0451184 539.327074,46.7143945 C537.872611,50.3836707 535.816333,53.5536781 533.158177,56.2245117 C530.500022,58.8953454 527.352913,60.9670825 523.716756,62.4397852 C520.0806,63.9124878 516.055811,64.6488281 511.64227,64.6488281 Z M511.64227,57.6098437 C514.902272,57.6098437 517.898921,57.0232676 520.632308,55.8500977 C523.365695,54.6769277 525.73543,53.054483 527.741585,50.9827148 C529.74774,48.9109467 531.289949,46.4772796 532.368258,43.6816406 C533.446566,40.8860016 533.985712,37.8657584 533.985712,34.6208203 C533.985712,31.3758822 533.446566,28.355639 532.368258,25.56 C531.289949,22.764361 529.74774,20.330694 527.741585,18.2589258 C525.73543,16.1871576 523.365695,14.5771932 520.632308,13.4289844 C517.898921,12.2807755 514.902272,11.7066797 511.64227,11.7066797 C508.382267,11.7066797 505.385618,12.2807755 502.652231,13.4289844 C499.918845,14.5771932 497.561647,16.1871576 495.580569,18.2589258 C493.599491,20.330694 492.057282,22.764361 490.953897,25.56 C489.850511,28.355639 489.298827,31.3758822 489.298827,34.6208203 C489.298827,37.8657584 489.850511,40.8860016 490.953897,43.6816406 C492.057282,46.4772796 493.599491,48.9109467 495.580569,50.9827148 C497.561647,53.054483 499.918845,54.6769277 502.652231,55.8500977 C505.385618,57.0232676 508.382267,57.6098437 511.64227,57.6098437 Z M599.144774,52.0336188 L620.901955,7.51324219 C621.704417,6.1154227 622.857939,5.41652344 624.362556,5.41652344 C625.465941,5.41652344 626.393774,5.77845341 627.146082,6.50232422 C627.898391,7.22619503 628.274539,8.16222082 628.274539,9.31042969 L628.274539,60.0060937 C628.274539,61.1043805 627.885852,62.0279259 627.108467,62.7767578 C626.331082,63.5255897 625.415787,63.9 624.362556,63.9 C623.25917,63.9 622.331338,63.5255897 621.579029,62.7767578 C620.826721,62.0279259 620.450573,61.1043805 620.450573,60.0060937 L620.450573,22.7716156 L602.244804,59.7065625 C601.392188,61.0045377 600.263743,61.6535156 598.859434,61.6535156 C597.204356,61.6535156 596.000681,60.8797343 595.248373,59.3321484 L577.268296,23.4690637 L577.268296,60.0060937 C577.268296,61.1043805 576.892148,62.0279259 576.139839,62.7767578 C575.387531,63.5255897 574.459693,63.9 573.356313,63.9 C572.252927,63.9 571.325095,63.5255897 570.572786,62.7767578 C569.820478,62.0279259 569.44433,61.1043805 569.44433,60.0060937 L569.44433,9.31042969 C569.44433,8.16222082 569.820478,7.22619503 570.572786,6.50232422 C571.325095,5.77845341 572.252927,5.41652344 573.356313,5.41652344 C574.860929,5.41652344 576.014451,6.1154227 576.816913,7.51324219 L599.144774,52.0336188 L599.144774,52.0336188 Z M662.905622,63.9 C661.802236,63.9 660.874403,63.5255897 660.122095,62.7767578 C659.369787,62.0279259 658.993638,61.1043805 658.993638,60.0060937 L658.993638,9.31042969 C658.993638,8.16222082 659.369787,7.22619503 660.122095,6.50232422 C660.874403,5.77845341 661.802236,5.41652344 662.905622,5.41652344 L696.909784,5.41652344 C698.063323,5.41652344 698.991156,5.75349272 699.69331,6.42744141 C700.395464,7.10139009 700.746536,7.98749451 700.746536,9.08578125 C700.746536,10.1341459 700.395464,10.9828093 699.69331,11.6317969 C698.991156,12.2807845 698.063323,12.6052734 696.909784,12.6052734 L666.817605,12.6052734 L666.817605,30.8017969 L688.408743,30.8017969 C689.562282,30.8017969 690.490115,31.1387662 691.19227,31.8127148 C691.894424,32.4866635 692.245496,33.3478073 692.245496,34.3961719 C692.245496,35.4445365 691.894424,36.3056802 691.19227,36.9796289 C690.490115,37.6535776 689.562282,37.9905469 688.408743,37.9905469 L666.817605,37.9905469 L666.817605,56.71125 L696.909784,56.71125 C698.063323,56.71125 698.991156,57.0357389 699.69331,57.6847266 C700.395464,58.3337109 700.746536,59.1823776 700.746536,60.2307422 C700.746536,61.3290234 700.395464,62.2151333 699.69331,62.889082 C698.991156,63.5630307 698.063323,63.9 696.909784,63.9 L662.905622,63.9 Z M745.985112,64.6488281 C742.775263,64.6488281 739.715922,64.1496094 736.806997,63.1511719 C733.898072,62.1527344 731.365339,60.7549309 729.208722,58.9577344 C727.052105,57.1605469 725.472282,55.0888008 724.469204,52.7424609 C723.967665,51.6940963 723.980203,50.7206295 724.506819,49.8220312 C725.033435,48.923433 725.923653,48.3493372 727.1775,48.0997266 C728.08027,47.9000381 728.970488,48.0373218 729.848181,48.511582 C730.725874,48.9858422 731.390403,49.6972218 731.841788,50.6457422 C732.443634,51.8937953 733.434159,53.0419869 734.81339,54.0903516 C736.192622,55.1387162 737.860214,55.9873796 739.816215,56.6363672 C741.772216,57.2853548 743.828495,57.6098437 745.985112,57.6098437 C748.392498,57.6098437 750.611774,57.2354334 752.643006,56.4866016 C754.674239,55.7377697 756.316754,54.6519798 757.570601,53.2291992 C758.824448,51.8064187 759.451362,50.0466902 759.451362,47.9499609 C759.451362,45.3040883 758.410684,42.932823 756.329298,40.8360938 C754.247912,38.7393645 750.824961,37.4414087 746.060342,36.9421875 C739.841261,36.343122 734.951331,34.5209918 731.390405,31.4757422 C727.829479,28.4304926 726.049043,24.6614287 726.049043,20.1684375 C726.049043,16.8735773 726.976876,14.0779802 728.83257,11.7815625 C730.688263,9.48514477 733.208458,7.73789063 736.39323,6.53976563 C739.578001,5.34163463 743.126335,4.74257813 747.038338,4.74257813 C750.097725,4.74257813 752.768379,5.16690982 755.050381,6.01558594 C757.332382,6.86426206 759.325969,8.03741439 761.031201,9.53507813 C762.736433,11.0327419 764.21595,12.8049507 765.469797,14.8517578 C766.171952,15.9500446 766.460332,16.9859131 766.334948,17.9593945 C766.209563,18.932876 765.72057,19.6941769 764.867954,20.2433203 C763.91503,20.8423858 762.886891,20.9671892 761.783506,20.6177344 C760.68012,20.2682795 759.852594,19.6193016 759.300901,18.6707813 C758.498439,17.2230469 757.520453,15.9999659 756.366913,15.0015234 C755.213374,14.0030809 753.85924,13.2168193 752.304469,12.6427148 C750.749699,12.0686104 748.91911,11.7815625 746.812647,11.7815625 C743.101259,11.7316406 739.991765,12.4180593 737.484071,13.8408398 C734.976377,15.2636204 733.722549,17.4476806 733.722549,20.3930859 C733.722549,21.8907497 734.111236,23.3259892 734.888621,24.6988477 C735.666006,26.0717061 737.09537,27.2573388 739.176756,28.2557813 C741.258142,29.2542237 744.254792,29.953123 748.166795,30.3525 C754.135107,30.9515655 758.786809,32.7612154 762.122043,35.7815039 C765.457276,38.8017924 767.124867,42.7830222 767.124867,47.7253125 C767.124867,50.5708736 766.535568,53.0419817 765.356952,55.1387109 C764.178336,57.2354402 762.598512,58.9951687 760.617434,60.4179492 C758.636355,61.8407298 756.379464,62.901559 753.846693,63.6004687 C751.313922,64.2993785 748.693421,64.6488281 745.985112,64.6488281 Z" id="ALPHAHOMES"></path>
            </g>
            <g id="emblem-light" transform="translate(228.413966, 0.000000)" fill-rule="evenodd" stroke-width="1">
                <g id="ah-logo" transform="translate(20.110443, 20.110443)">
                    <g id="ah-logo-emblem" fill-rule="nonzero">
                        <g id="logo-core" transform="translate(8.399432, 2.799811)">
                            <g id="H-bottom">
                                <use fill="black" fill-opacity="1" filter="url(#filter-2)" xlink:href="#path-1"></use>
                                <use fill="#14A84E" xlink:href="#path-1"></use>
                            </g>
                            <g id="H-right">
                                <use fill="black" fill-opacity="1" filter="url(#filter-4)" xlink:href="#path-3"></use>
                                <use fill="#81B753" xlink:href="#path-3"></use>
                            </g>
                            <g id="H-left">
                                <use fill="black" fill-opacity="1" filter="url(#filter-6)" xlink:href="#path-5"></use>
                                <use fill="#AF6A3D" xlink:href="#path-5"></use>
                            </g>
                            <g id="A-cross">
                                <use fill="black" fill-opacity="1" filter="url(#filter-8)" xlink:href="#path-7"></use>
                                <use fill="#F64D54" xlink:href="#path-7"></use>
                            </g>
                            <g id="A-right">
                                <use fill="black" fill-opacity="1" filter="url(#filter-10)" xlink:href="#path-9"></use>
                                <use fill="#F0B573" xlink:href="#path-9"></use>
                            </g>
                            <g id="A-left">
                                <use fill="black" fill-opacity="1" filter="url(#filter-12)" xlink:href="#path-11"></use>
                                <use fill="#3DA5D9" xlink:href="#path-11"></use>
                            </g>
                        </g>
                        <g id="ring">
                            <use fill="black" fill-opacity="1" filter="url(#filter-14)" xlink:href="#path-13"></use>
                            <use fill="#FFFFFF" xlink:href="#path-13"></use>
                        </g>
                    </g>
                </g>
            </g>
        </g>
    </g>
</svg>