<?xml version="1.0" encoding="UTF-8"?>
<svg width="757px" height="445px" viewBox="0 0 757 445" version="1.1" xmlns="http://www.w3.org/2000/svg" xmlns:xlink="http://www.w3.org/1999/xlink">
    <!-- Generator: Sketch 55.1 (78136) - https://sketchapp.com -->
    <title>banner-light</title>
    <desc>Created with Sketch.</desc>
    <defs>
        <path d="M104.465569,102.36042 C79.6632181,121.017719 45.5683421,121.017719 20.7659912,102.36042 C19.3086024,101.260565 18.9208567,99.3559373 19.8567945,98.2426693 L20.712509,97.2098785 C21.6618173,96.0831976 23.4668402,96.0295461 24.7771531,97.0086854 C47.199548,113.882073 78.0453828,113.882073 100.467778,97.0086854 C101.778091,96.0295461 103.583113,96.0831976 104.532422,97.2098785 L105.388136,98.2426693 C106.310703,99.3693502 105.936328,101.260565 104.465569,102.36042" id="path-1"></path>
        <filter x="-1.7%" y="-7.5%" width="103.5%" height="115.0%" filterUnits="objectBoundingBox" id="filter-2">
            <feOffset dx="0" dy="0" in="SourceAlpha" result="shadowOffsetOuter1"></feOffset>
            <feGaussianBlur stdDeviation="0.5" in="shadowOffsetOuter1" result="shadowBlurOuter1"></feGaussianBlur>
            <feColorMatrix values="0 0 0 0 0.0745098039   0 0 0 0 0.0784313725   0 0 0 0 0.0823529412  0 0 0 1 0" type="matrix" in="shadowBlurOuter1"></feColorMatrix>
        </filter>
        <path d="M95.6039607,120.844081 L95.6039607,120.844081 C94.0134038,120.05535 93.1847102,118.571465 93.7594493,117.542104 C102.581025,101.286214 105.521551,81.3540345 100.61622,61.5689061 C100.308801,60.2989147 101.391449,58.7882935 103.075568,58.2134553 L103.075568,58.2134553 C104.759687,57.6386171 106.457173,58.3070336 106.671029,59.29629 C112.137733,80.565303 109.197208,102.128419 99.7875263,119.868193 C99.039029,121.378814 97.2078836,121.619444 95.6039607,120.844081" id="path-3"></path>
        <filter x="-9.5%" y="-2.4%" width="119.0%" height="104.7%" filterUnits="objectBoundingBox" id="filter-4">
            <feOffset dx="0" dy="0" in="SourceAlpha" result="shadowOffsetOuter1"></feOffset>
            <feGaussianBlur stdDeviation="0.5" in="shadowOffsetOuter1" result="shadowBlurOuter1"></feGaussianBlur>
            <feColorMatrix values="0 0 0 0 0.0745098039   0 0 0 0 0.0784313725   0 0 0 0 0.0823529412  0 0 0 1 0" type="matrix" in="shadowBlurOuter1"></feColorMatrix>
        </filter>
        <path d="M30.4258601,120.835351 L30.3323363,120.835351 C31.9222407,120.047734 32.7505943,118.565947 32.1894515,117.524691 C23.3581338,101.278429 20.4188148,81.3343748 25.3221334,61.5638628 C25.6294258,60.2956666 24.547222,58.7871805 22.8637938,58.2131549 C21.1670051,57.6391292 19.4702163,58.3066009 19.2698082,59.294459 C13.8053469,80.5601077 16.7446659,102.119444 26.1504869,119.860842 C26.9120378,121.369328 28.7424319,121.622967 30.3456969,120.8487" id="path-5"></path>
        <filter x="-9.5%" y="-2.4%" width="119.0%" height="104.7%" filterUnits="objectBoundingBox" id="filter-6">
            <feOffset dx="0" dy="0" in="SourceAlpha" result="shadowOffsetOuter1"></feOffset>
            <feGaussianBlur stdDeviation="0.5" in="shadowOffsetOuter1" result="shadowBlurOuter1"></feGaussianBlur>
            <feColorMatrix values="0 0 0 0 0.0745098039   0 0 0 0 0.0784313725   0 0 0 0 0.0823529412  0 0 0 1 0" type="matrix" in="shadowBlurOuter1"></feColorMatrix>
        </filter>
        <path d="M112.455295,66.586709 C80.3219278,55.9562546 45.5798988,55.9562546 13.4465319,66.586709 C11.480002,67.2378243 9.32618346,66.2677954 8.64391797,64.3808897 C7.96165248,62.493984 9.07200612,60.341317 11.1455581,59.6636256 C44.7906113,48.5415127 81.1513486,48.5415127 114.796402,59.6636256 C116.869954,60.3546051 117.980307,62.493984 117.298042,64.3808897 C116.602399,66.2677954 114.44858,67.2378243 112.495428,66.586709" id="path-7"></path>
        <filter x="-1.4%" y="-9.7%" width="102.8%" height="119.4%" filterUnits="objectBoundingBox" id="filter-8">
            <feOffset dx="0" dy="0" in="SourceAlpha" result="shadowOffsetOuter1"></feOffset>
            <feGaussianBlur stdDeviation="0.5" in="shadowOffsetOuter1" result="shadowBlurOuter1"></feGaussianBlur>
            <feColorMatrix values="0 0 0 0 0.0745098039   0 0 0 0 0.0784313725   0 0 0 0 0.0823529412  0 0 0 1 0" type="matrix" in="shadowBlurOuter1"></feColorMatrix>
        </filter>
        <path d="M62.8417969,4.68445344 L62.8417969,1.17704599 L63.3527276,1.17704599 C63.887787,0.411076041 64.7420762,2.08554533e-06 65.6099179,7.99242427e-12 L65.6099254,0 C66.1519045,-1.30245695e-06 66.699177,0.160327068 67.177278,0.494668514 C91.9833658,17.4738258 113.740511,45.2907431 125.374633,81.4701295 C125.989771,83.3968423 125.240908,86.0326926 123.729809,87.2502681 C122.205338,88.4544637 120.507024,87.8389859 119.932004,85.925653 C109.18047,50.0406255 88.198933,22.3441278 64.0614729,5.35159058 C63.8876297,5.21779107 63.7271591,5.07061161 63.580061,4.91005221 C63.3605709,4.77584521 63.1077235,4.69726455 62.8417969,4.6844549 Z" id="path-9"></path>
        <filter x="-2.4%" y="-1.7%" width="104.8%" height="103.4%" filterUnits="objectBoundingBox" id="filter-10">
            <feOffset dx="0" dy="0" in="SourceAlpha" result="shadowOffsetOuter1"></feOffset>
            <feGaussianBlur stdDeviation="0.5" in="shadowOffsetOuter1" result="shadowBlurOuter1"></feGaussianBlur>
            <feColorMatrix values="0 0 0 0 0.0745098039   0 0 0 0 0.0784313725   0 0 0 0 0.0823529412  0 0 0 1 0" type="matrix" in="shadowBlurOuter1"></feColorMatrix>
        </filter>
        <path d="M62.8417969,4.6844549 C62.8160924,4.68321672 62.7902658,4.68259305 62.7643352,4.68259305 C62.5370018,4.68259305 62.3230409,4.7227329 62.1224526,4.81639255 C61.9486094,5.01709181 61.7613936,5.20441112 61.5474328,5.35159058 C37.4099727,22.3441278 16.4284353,50.0406255 5.67690187,85.925653 C5.10188204,87.8389859 3.40356767,88.4812236 1.87909651,87.2502681 C0.354625347,86.0193127 -0.407610235,83.3968423 0.220899806,81.4701295 C11.8683944,45.2773631 33.6121673,17.4872058 58.4182551,0.494668514 C59.6619026,-0.361648324 61.3735896,-0.0539094604 62.2428056,1.17704599 L62.8417969,1.17704599 L62.8417969,4.68445344 Z" id="path-11"></path>
        <filter x="-2.4%" y="-1.7%" width="104.8%" height="103.4%" filterUnits="objectBoundingBox" id="filter-12">
            <feOffset dx="0" dy="0" in="SourceAlpha" result="shadowOffsetOuter1"></feOffset>
            <feGaussianBlur stdDeviation="0.5" in="shadowOffsetOuter1" result="shadowBlurOuter1"></feGaussianBlur>
            <feColorMatrix values="0 0 0 0 0.0745098039   0 0 0 0 0.0784313725   0 0 0 0 0.0823529412  0 0 0 1 0" type="matrix" in="shadowBlurOuter1"></feColorMatrix>
        </filter>
        <path d="M66.4599648,133.775316 C29.7960626,133.775316 0,103.771138 0,66.8809728 C0,29.9908081 29.7960626,0 66.4599648,0 C103.123867,0 132.906646,30.0041789 132.906646,66.8943437 C132.906646,103.784508 103.097299,133.775316 66.4599648,133.775316 M66.4599648,6.00350995 C33.1037842,6.00350995 5.97781015,33.3201488 5.97781015,66.8943437 C5.97781015,100.468539 33.1037842,127.785177 66.4732488,127.785177 C99.8427135,127.785177 126.955403,100.468539 126.955403,66.8943437 C126.955403,33.3201488 99.8161454,6.00350995 66.4599648,6.00350995" id="path-13"></path>
        <filter x="-5.3%" y="-3.7%" width="110.5%" height="110.5%" filterUnits="objectBoundingBox" id="filter-14">
            <feOffset dx="0" dy="2" in="SourceAlpha" result="shadowOffsetOuter1"></feOffset>
            <feGaussianBlur stdDeviation="2" in="shadowOffsetOuter1" result="shadowBlurOuter1"></feGaussianBlur>
            <feColorMatrix values="0 0 0 0 0   0 0 0 0 0   0 0 0 0 0  0 0 0 0.306872815 0" type="matrix" in="shadowBlurOuter1" result="shadowMatrixOuter1"></feColorMatrix>
            <feOffset dx="0" dy="0" in="SourceAlpha" result="shadowOffsetOuter2"></feOffset>
            <feGaussianBlur stdDeviation="0.5" in="shadowOffsetOuter2" result="shadowBlurOuter2"></feGaussianBlur>
            <feColorMatrix values="0 0 0 0 0   0 0 0 0 0   0 0 0 0 0  0 0 0 0.147836538 0" type="matrix" in="shadowBlurOuter2" result="shadowMatrixOuter2"></feColorMatrix>
            <feOffset dx="0" dy="1" in="SourceAlpha" result="shadowOffsetOuter3"></feOffset>
            <feGaussianBlur stdDeviation="0.5" in="shadowOffsetOuter3" result="shadowBlurOuter3"></feGaussianBlur>
            <feColorMatrix values="0 0 0 0 0   0 0 0 0 0   0 0 0 0 0  0 0 0 0.417340472 0" type="matrix" in="shadowBlurOuter3" result="shadowMatrixOuter3"></feColorMatrix>
            <feMerge>
                <feMergeNode in="shadowMatrixOuter1"></feMergeNode>
                <feMergeNode in="shadowMatrixOuter2"></feMergeNode>
                <feMergeNode in="shadowMatrixOuter3"></feMergeNode>
            </feMerge>
        </filter>
    </defs>
    <g id="banner-light" stroke="none" stroke-width="1" fill="none" fill-rule="evenodd">
        <g id="logo-halfstack-dark" transform="translate(182.000000, 115.000000)">
            <g id="text-dark" transform="translate(0.000000, 182.212887)" fill="#1A1A1A" fill-rule="nonzero">
                <path d="M24.5962176,32.6106 L21.9916994,26.6328 L8.9208767,26.6328 L6.31635852,32.6106 C5.68934489,34.0686 4.43531761,34.749 3.22952216,34.749 C1.58964034,34.749 0.0944539773,33.4854 0.0944539773,31.59 C0.0944539773,31.104 0.190917614,30.5694 0.432076705,30.0834 L12.3935676,2.7216 C13.1170449,1.0206 14.2263767,0.5832 15.5286358,0.5832 C16.7826631,0.5832 17.8437631,1.0206 18.5672403,2.7216 L30.5287313,30.0834 C30.7216585,30.5694 30.8181222,31.104 30.8181222,31.59 C30.8181222,33.4854 29.3711676,34.749 27.683054,34.749 C26.4772585,34.749 25.2232313,34.0686 24.5962176,32.6106 Z M15.480404,11.5182 L11.4771631,20.7522 L19.4354131,20.7522 L15.480404,11.5182 Z M50.0304631,4.0824 L50.0304631,27.9936 L58.2298722,27.9936 C60.4967676,27.9936 61.7507949,29.1114 61.7507949,31.2498 C61.7507949,33.3882 60.4967676,34.506 58.2298722,34.506 L46.7024676,34.506 C44.8214267,34.506 43.5191676,33.0966 43.5191676,31.2498 L43.5191676,4.0338 C43.5191676,1.701 44.5802676,0.5832 46.7024676,0.5832 C48.9211313,0.5832 50.0304631,1.7982 50.0304631,4.0824 Z M77.6833722,0.8262 L85.1110722,0.8262 C91.4776722,0.8262 95.5773767,5.6376 95.5773767,11.3238 C95.5773767,17.0586 91.4776722,21.87 85.1110722,21.87 L80.384354,21.87 L80.384354,31.2498 C80.384354,33.534 79.2267903,34.749 77.1045903,34.749 C75.0306222,34.749 73.8730585,33.534 73.8730585,31.2498 L73.8730585,4.6656 C73.8730585,2.0898 75.1270858,0.8262 77.6833722,0.8262 Z M80.3361222,7.3386 L80.3361222,15.8436 L85.159304,15.8436 C87.4261994,15.8436 89.1143131,13.851 89.1143131,11.5182 C89.1143131,9.234 87.4261994,7.3386 85.159304,7.3386 L80.3361222,7.3386 Z M114.210936,4.131 L114.210936,13.6566 L126.26889,13.6566 L126.26889,4.131 C126.26889,1.7496 127.426454,0.5832 129.645118,0.5832 C131.670854,0.5832 132.731954,1.7496 132.731954,4.131 L132.731954,31.3956 C132.731954,33.5826 131.719086,34.749 129.596886,34.749 C127.32999,34.749 126.26889,33.5826 126.26889,31.3956 L126.26889,20.2662 L114.210936,20.2662 L114.210936,31.3956 C114.210936,33.5826 113.149836,34.749 110.979404,34.749 C108.808972,34.749 107.69964,33.5826 107.69964,31.3956 L107.69964,4.131 C107.69964,1.7496 108.808972,0.5832 111.027636,0.5832 C113.149836,0.5832 114.210936,1.7496 114.210936,4.131 Z M170.12769,32.6106 L167.523172,26.6328 L154.452349,26.6328 L151.847831,32.6106 C151.220818,34.0686 149.96679,34.749 148.760995,34.749 C147.121113,34.749 145.625927,33.4854 145.625927,31.59 C145.625927,31.104 145.72239,30.5694 145.963549,30.0834 L157.92504,2.7216 C158.648518,1.0206 159.757849,0.5832 161.060109,0.5832 C162.314136,0.5832 163.375236,1.0206 164.098713,2.7216 L176.060204,30.0834 C176.253131,30.5694 176.349595,31.104 176.349595,31.59 C176.349595,33.4854 174.90264,34.749 173.214527,34.749 C172.008731,34.749 170.754704,34.0686 170.12769,32.6106 Z M161.011877,11.5182 L157.008636,20.7522 L164.966886,20.7522 L161.011877,11.5182 Z" id="ALPHA"></path>
                <path d="M220.343042,4.131 L220.343042,13.6566 L232.400997,13.6566 L232.400997,4.131 C232.400997,1.7496 233.55856,0.5832 235.777224,0.5832 C237.80296,0.5832 238.86406,1.7496 238.86406,4.131 L238.86406,31.3956 C238.86406,33.5826 237.851192,34.749 235.728992,34.749 C233.462097,34.749 232.400997,33.5826 232.400997,31.3956 L232.400997,20.2662 L220.343042,20.2662 L220.343042,31.3956 C220.343042,33.5826 219.281942,34.749 217.11151,34.749 C214.941078,34.749 213.831747,33.5826 213.831747,31.3956 L213.831747,4.131 C213.831747,1.7496 214.941078,0.5832 217.159742,0.5832 C219.281942,0.5832 220.343042,1.7496 220.343042,4.131 Z M284.097467,17.6418 C284.097467,27.459 276.332144,35.235 266.589317,35.235 C256.942953,35.235 249.081167,27.5076 249.081167,17.8362 C249.081167,8.262 256.557099,0 266.348158,0 C276.428608,0 284.097467,8.019 284.097467,17.6418 Z M266.541085,6.5124 C260.367413,6.5124 255.688926,11.7612 255.688926,17.8362 C255.688926,23.8626 260.415644,28.8198 266.541085,28.8198 C272.714758,28.8198 277.489708,23.9112 277.489708,17.6418 C277.489708,11.5668 272.570063,6.5124 266.541085,6.5124 Z M311.883014,24.057 L320.8059,3.1104 C321.529377,1.4094 322.686941,0.5832 324.423286,0.5832 C326.304327,0.5832 327.992441,1.7496 327.992441,4.5198 L327.992441,31.2012 C327.992441,33.5826 326.979573,34.749 324.809141,34.749 C322.638709,34.749 321.625841,33.5826 321.625841,31.2012 L321.625841,17.3988 L315.114545,32.6592 C314.535764,33.9714 313.185273,34.749 311.883014,34.749 C310.628986,34.749 309.1338,33.9714 308.555018,32.6592 L302.140186,17.3988 L302.140186,31.2012 C302.140186,33.5826 301.127318,34.749 298.956886,34.749 C296.786455,34.749 295.773586,33.5826 295.773586,31.2012 L295.773586,4.5198 C295.773586,1.7496 297.413468,0.5832 299.342741,0.5832 C301.079086,0.5832 302.23665,1.4094 302.960127,3.1104 L311.883014,24.057 Z M342.831764,0.8262 L357.638932,0.8262 C359.471741,0.8262 360.870464,2.2356 360.870464,4.0824 C360.870464,5.8806 359.471741,7.3386 357.638932,7.3386 L346.111527,7.3386 L346.111527,13.5108 L357.349541,13.5108 C359.037655,13.5108 360.291682,14.823 360.291682,16.524 C360.291682,18.1278 359.037655,19.5372 357.349541,19.5372 L346.111527,19.5372 L346.111527,27.9936 L357.542468,27.9936 C359.327045,27.9936 360.774,29.3544 360.774,31.2498 C360.774,33.0966 359.327045,34.506 357.542468,34.506 L342.831764,34.506 C340.950723,34.506 339.648464,33.0966 339.648464,31.2498 L339.648464,4.0824 C339.648464,2.2356 340.950723,0.8262 342.831764,0.8262 Z M385.850526,9.25425 C385.464672,7.99065 384.88589,6.87285 383.197776,6.87285 C381.413199,6.87285 380.64149,8.13645 380.64149,9.44865 C380.64149,11.58705 382.811922,12.80205 384.451803,13.67685 C387.152785,15.13485 388.937363,16.25265 390.239622,17.41905 C392.31359,19.31445 393.567617,21.93885 393.567617,25.29225 C393.567617,32.33925 388.117422,35.59545 383.101313,35.59545 C377.120567,35.59545 372.249153,30.97845 372.249153,26.65305 C372.249153,24.41745 373.551413,23.29965 375.480685,23.29965 C377.45819,23.29965 378.036972,24.46605 378.663985,26.02125 C379.532158,28.06245 380.689722,29.18025 382.908385,29.18025 C385.368208,29.18025 386.959858,27.81945 386.959858,25.43805 C386.959858,23.73705 386.139917,22.61925 384.982353,21.69585 C383.680094,20.67525 381.750822,19.84905 379.966244,18.73125 C376.782944,16.73865 374.130194,13.87125 374.130194,9.40005 C374.130194,3.47085 378.808681,0.60345 383.149544,0.60345 C387.635103,0.60345 392.120663,3.66525 392.120663,8.23365 C392.120663,10.27485 391.204258,11.78145 388.937363,11.78145 C386.718699,11.78145 386.188149,10.37205 385.850526,9.25425 Z" id="HOMES"></path>
            </g>
            <g id="emblem-dark" transform="translate(116.764773, 0.000000)" fill-rule="evenodd" stroke-width="1">
                <g id="ah-logo" transform="translate(10.022468, 10.087975)">
                    <g id="ah-logo-emblem" fill-rule="nonzero">
                        <g id="logo-core" transform="translate(4.186036, 1.404465)">
                            <g id="H-bottom">
                                <use fill="black" fill-opacity="1" filter="url(#filter-2)" xlink:href="#path-1"></use>
                                <use fill="#14A84E" xlink:href="#path-1"></use>
                            </g>
                            <g id="H-right">
                                <use fill="black" fill-opacity="1" filter="url(#filter-4)" xlink:href="#path-3"></use>
                                <use fill="#81B753" xlink:href="#path-3"></use>
                            </g>
                            <g id="H-left">
                                <use fill="black" fill-opacity="1" filter="url(#filter-6)" xlink:href="#path-5"></use>
                                <use fill="#AF6A3D" xlink:href="#path-5"></use>
                            </g>
                            <g id="A-cross">
                                <use fill="black" fill-opacity="1" filter="url(#filter-8)" xlink:href="#path-7"></use>
                                <use fill="#F64D54" xlink:href="#path-7"></use>
                            </g>
                            <g id="A-right">
                                <use fill="black" fill-opacity="1" filter="url(#filter-10)" xlink:href="#path-9"></use>
                                <use fill="#F0B573" xlink:href="#path-9"></use>
                            </g>
                            <g id="A-left">
                                <use fill="black" fill-opacity="1" filter="url(#filter-12)" xlink:href="#path-11"></use>
                                <use fill="#3DA5D9" xlink:href="#path-11"></use>
                            </g>
                        </g>
                        <g id="ring">
                            <use fill="black" fill-opacity="1" filter="url(#filter-14)" xlink:href="#path-13"></use>
                            <use fill="#131415" xlink:href="#path-13"></use>
                        </g>
                    </g>
                </g>
            </g>
        </g>
    </g>
</svg>