<?xml version="1.0" encoding="UTF-8"?>
<svg width="1034px" height="192px" viewBox="0 0 1034 192" version="1.1" xmlns="http://www.w3.org/2000/svg" xmlns:xlink="http://www.w3.org/1999/xlink">
    <!-- Generator: Sketch 55.1 (78136) - https://sketchapp.com -->
    <title>bg-long-dark</title>
    <desc>Created with Sketch.</desc>
    <defs>
        <path d="M103.89738,101.460368 C79.2299294,119.953614 45.3204957,119.953614 20.6530448,101.460368 C19.2035828,100.370184 18.8179461,98.482304 19.7487933,97.3788249 L20.5998536,96.3551153 C21.5439986,95.2383413 23.3392039,95.1851616 24.64239,96.1556914 C46.9428294,112.880712 77.6208935,112.880712 99.9213329,96.1556914 C101.224519,95.1851616 103.019724,95.2383413 103.963869,96.3551153 L104.81493,97.3788249 C105.732479,98.4955989 105.36014,100.370184 103.89738,101.460368" id="path-1"></path>
        <filter x="-2.3%" y="-5.0%" width="104.6%" height="120.1%" filterUnits="objectBoundingBox" id="filter-2">
            <feOffset dx="0" dy="1" in="SourceAlpha" result="shadowOffsetOuter1"></feOffset>
            <feGaussianBlur stdDeviation="0.5" in="shadowOffsetOuter1" result="shadowBlurOuter1"></feGaussianBlur>
            <feColorMatrix values="0 0 0 0 0.0745098039   0 0 0 0 0.0784313725   0 0 0 0 0.0823529412  0 0 0 1 0" type="matrix" in="shadowBlurOuter1"></feColorMatrix>
        </filter>
        <path d="M95.0839702,119.781503 L95.0839702,119.781503 C93.5020643,118.999707 92.6778781,117.52887 93.2494911,116.50856 C102.023087,100.395608 104.947619,80.6386912 100.068968,61.0275328 C99.7632212,59.7687085 100.839981,58.27137 102.51494,57.7015864 L102.51494,57.7015864 C104.189899,57.1318027 105.878151,57.7943418 106.090845,58.7748998 C111.527815,79.8568951 108.603283,101.230408 99.2447814,118.814196 C98.5003552,120.311535 96.6791694,120.550049 95.0839702,119.781503" id="path-3"></path>
        <filter x="-12.7%" y="-1.6%" width="125.4%" height="106.4%" filterUnits="objectBoundingBox" id="filter-4">
            <feOffset dx="0" dy="1" in="SourceAlpha" result="shadowOffsetOuter1"></feOffset>
            <feGaussianBlur stdDeviation="0.5" in="shadowOffsetOuter1" result="shadowBlurOuter1"></feGaussianBlur>
            <feColorMatrix values="0 0 0 0 0.0745098039   0 0 0 0 0.0784313725   0 0 0 0 0.0823529412  0 0 0 1 0" type="matrix" in="shadowBlurOuter1"></feColorMatrix>
        </filter>
        <path d="M30.2603737,119.772849 L30.1673586,119.772849 C31.7486155,118.992158 32.5724636,117.5234 32.0143729,116.4913 C23.2310888,100.387892 20.3077567,80.6192045 25.1844062,61.0225339 C25.4900272,59.7654889 24.4137095,58.2702669 22.7394375,57.7012886 C21.0518776,57.1323103 19.3643177,57.793913 19.1649996,58.7730849 C13.7302595,79.8517454 16.6535916,101.221511 26.0082543,118.80691 C26.7656631,120.302132 28.5861017,120.553541 30.1806465,119.786081" id="path-5"></path>
        <filter x="-12.7%" y="-1.6%" width="125.4%" height="106.4%" filterUnits="objectBoundingBox" id="filter-6">
            <feOffset dx="0" dy="1" in="SourceAlpha" result="shadowOffsetOuter1"></feOffset>
            <feGaussianBlur stdDeviation="0.5" in="shadowOffsetOuter1" result="shadowBlurOuter1"></feGaussianBlur>
            <feColorMatrix values="0 0 0 0 0.0745098039   0 0 0 0 0.0784313725   0 0 0 0 0.0823529412  0 0 0 1 0" type="matrix" in="shadowBlurOuter1"></feColorMatrix>
        </filter>
        <path d="M111.84365,66.0012143 C79.8850564,55.4642332 45.3319895,55.4642332 13.3733962,66.0012143 C11.4175622,66.6466044 9.2754583,65.6851049 8.59690365,63.8147908 C7.91834901,61.9444766 9.02266343,59.8107379 11.0849374,59.1390054 C44.5469949,48.1146888 80.709966,48.1146888 114.172024,59.1390054 C116.234297,59.8239091 117.338612,61.9444766 116.660057,63.8147908 C115.968198,65.6851049 113.826094,66.6466044 111.883565,66.0012143" id="path-7"></path>
        <filter x="-1.8%" y="-6.5%" width="103.7%" height="126.1%" filterUnits="objectBoundingBox" id="filter-8">
            <feOffset dx="0" dy="1" in="SourceAlpha" result="shadowOffsetOuter1"></feOffset>
            <feGaussianBlur stdDeviation="0.5" in="shadowOffsetOuter1" result="shadowBlurOuter1"></feGaussianBlur>
            <feColorMatrix values="0 0 0 0 0.0745098039   0 0 0 0 0.0784313725   0 0 0 0 0.0823529412  0 0 0 1 0" type="matrix" in="shadowBlurOuter1"></feColorMatrix>
        </filter>
        <path d="M62.5,4.6432632 L62.5,1.16669627 L63.0081517,1.16669627 C63.5403009,0.407461464 64.3899437,2.06720636e-06 65.2530652,7.92262771e-12 L65.2530727,0 C65.7921039,-1.29100397e-06 66.3363998,0.158917318 66.8119004,0.49031891 C91.4830678,17.3201791 113.121876,44.8925031 124.69272,80.7537654 C125.304512,82.6635368 124.559722,85.2762101 123.056842,86.4830795 C121.540663,87.6766866 119.851585,87.0666208 119.279693,85.1701117 C108.586637,49.60062 87.7192185,22.1476567 63.7130422,5.30453422 C63.5401446,5.17191121 63.3805467,5.0260259 63.2342487,4.86687829 C63.0159524,4.73385137 62.7644803,4.65596166 62.5000001,4.64326465 Z" id="path-9"></path>
        <filter x="-3.2%" y="-1.1%" width="106.4%" height="104.6%" filterUnits="objectBoundingBox" id="filter-10">
            <feOffset dx="0" dy="1" in="SourceAlpha" result="shadowOffsetOuter1"></feOffset>
            <feGaussianBlur stdDeviation="0.5" in="shadowOffsetOuter1" result="shadowBlurOuter1"></feGaussianBlur>
            <feColorMatrix values="0 0 0 0 0.0745098039   0 0 0 0 0.0784313725   0 0 0 0 0.0823529412  0 0 0 1 0" type="matrix" in="shadowBlurOuter1"></feColorMatrix>
        </filter>
        <path d="M62.5000001,4.64326465 C62.4744354,4.64203735 62.4487492,4.64141917 62.4229596,4.64141917 C62.1968627,4.64141917 61.9840655,4.68120607 61.7845682,4.77404218 C61.6116706,4.9729767 61.4254731,5.15864891 61.2126759,5.30453422 C37.2064996,22.1476567 16.339081,49.60062 5.64602517,85.1701117 C5.07413288,87.0666208 3.38505565,87.7032112 1.86887609,86.4830795 C0.352696538,85.2629478 -0.405393241,82.6635368 0.219698331,80.7537654 C11.8038421,44.8792408 33.4293506,17.3334414 58.1005179,0.49031891 C59.3374012,-0.358468363 61.0397783,-0.0534354364 61.9042666,1.16669627 L62.5,1.16669627 L62.5,4.6432632 Z" id="path-11"></path>
        <filter x="-3.2%" y="-1.1%" width="106.4%" height="104.6%" filterUnits="objectBoundingBox" id="filter-12">
            <feOffset dx="0" dy="1" in="SourceAlpha" result="shadowOffsetOuter1"></feOffset>
            <feGaussianBlur stdDeviation="0.5" in="shadowOffsetOuter1" result="shadowBlurOuter1"></feGaussianBlur>
            <feColorMatrix values="0 0 0 0 0.0745098039   0 0 0 0 0.0784313725   0 0 0 0 0.0823529412  0 0 0 1 0" type="matrix" in="shadowBlurOuter1"></feColorMatrix>
        </filter>
        <path d="M66.6709488,133.328571 C29.8906532,133.328571 0,103.424592 0,66.6576226 C0,29.8906532 29.8906532,0 66.6709488,0 C103.451244,0 133.328571,29.9039794 133.328571,66.6709488 C133.328571,103.437918 103.424592,133.328571 66.6709488,133.328571 M66.6709488,5.98346113 C33.2088756,5.98346113 5.99678732,33.2088756 5.99678732,66.6709488 C5.99678732,100.133022 33.2088756,127.358436 66.684275,127.358436 C100.159674,127.358436 127.358436,100.133022 127.358436,66.6709488 C127.358436,33.2088756 100.133022,5.98346113 66.6709488,5.98346113" id="path-13"></path>
        <filter x="-11.3%" y="-6.8%" width="122.5%" height="122.5%" filterUnits="objectBoundingBox" id="filter-14">
            <feOffset dx="0" dy="6" in="SourceAlpha" result="shadowOffsetOuter1"></feOffset>
            <feGaussianBlur stdDeviation="4" in="shadowOffsetOuter1" result="shadowBlurOuter1"></feGaussianBlur>
            <feColorMatrix values="0 0 0 0 0   0 0 0 0 0   0 0 0 0 0  0 0 0 0.306872815 0" type="matrix" in="shadowBlurOuter1" result="shadowMatrixOuter1"></feColorMatrix>
            <feOffset dx="0" dy="1" in="SourceAlpha" result="shadowOffsetOuter2"></feOffset>
            <feGaussianBlur stdDeviation="1.5" in="shadowOffsetOuter2" result="shadowBlurOuter2"></feGaussianBlur>
            <feColorMatrix values="0 0 0 0 0   0 0 0 0 0   0 0 0 0 0  0 0 0 0.147836538 0" type="matrix" in="shadowBlurOuter2" result="shadowMatrixOuter2"></feColorMatrix>
            <feOffset dx="0" dy="2" in="SourceAlpha" result="shadowOffsetOuter3"></feOffset>
            <feGaussianBlur stdDeviation="0.5" in="shadowOffsetOuter3" result="shadowBlurOuter3"></feGaussianBlur>
            <feColorMatrix values="0 0 0 0 0   0 0 0 0 0   0 0 0 0 0  0 0 0 0.417340472 0" type="matrix" in="shadowBlurOuter3" result="shadowMatrixOuter3"></feColorMatrix>
            <feMerge>
                <feMergeNode in="shadowMatrixOuter1"></feMergeNode>
                <feMergeNode in="shadowMatrixOuter2"></feMergeNode>
                <feMergeNode in="shadowMatrixOuter3"></feMergeNode>
            </feMerge>
        </filter>
    </defs>
    <g id="bg-long-dark" stroke="none" stroke-width="1" fill="none" fill-rule="evenodd">
        <rect fill="#FFFFFF" x="0" y="0" width="1034" height="192"></rect>
        <g id="logo-full-dark" transform="translate(11.000000, 21.000000)">
            <g id="text-dark" transform="translate(177.000000, 43.000000)" fill="#1A1A1A" fill-rule="nonzero">
                <path d="M49.7677704,64.416 L44.4978112,52.608 L18.0504235,52.608 L12.7804643,64.416 C11.5117704,67.296 8.97438265,68.64 6.53458673,68.64 C3.21646429,68.64 0.191117347,66.144 0.191117347,62.4 C0.191117347,61.44 0.38630102,60.384 0.874260204,59.424 L25.0770357,5.376 C26.5409133,2.016 28.7855255,1.152 31.4205051,1.152 C33.9578929,1.152 36.1049133,2.016 37.5687908,5.376 L61.7715663,59.424 C62.1619337,60.384 62.3571173,61.44 62.3571173,62.4 C62.3571173,66.144 59.4293622,68.64 56.013648,68.64 C53.573852,68.64 51.0364643,67.296 49.7677704,64.416 Z M31.3229133,22.752 L23.2227908,40.992 L39.3254439,40.992 L31.3229133,22.752 Z M101.231199,8.064 L101.231199,55.296 L117.821811,55.296 C122.408628,55.296 124.946015,57.504 124.946015,61.728 C124.946015,65.952 122.408628,68.16 117.821811,68.16 L94.4973622,68.16 C90.6912806,68.16 88.056301,65.376 88.056301,61.728 L88.056301,7.968 C88.056301,3.36 90.2033214,1.152 94.4973622,1.152 C98.9865867,1.152 101.231199,3.552 101.231199,8.064 Z M157.183852,1.632 L172.212995,1.632 C185.095117,1.632 193.390423,11.136 193.390423,22.368 C193.390423,33.696 185.095117,43.2 172.212995,43.2 L162.648995,43.2 L162.648995,61.728 C162.648995,66.24 160.306791,68.64 156.01275,68.64 C151.816301,68.64 149.474097,66.24 149.474097,61.728 L149.474097,9.216 C149.474097,4.128 152.011485,1.632 157.183852,1.632 Z M162.551403,14.496 L162.551403,31.296 L172.310587,31.296 C176.897403,31.296 180.313117,27.36 180.313117,22.752 C180.313117,18.24 176.897403,14.496 172.310587,14.496 L162.551403,14.496 Z M231.093403,8.16 L231.093403,26.976 L255.491362,26.976 L255.491362,8.16 C255.491362,3.456 257.833566,1.152 262.322791,1.152 C266.421648,1.152 268.568668,3.456 268.568668,8.16 L268.568668,62.016 C268.568668,66.336 266.51924,68.64 262.225199,68.64 C257.638383,68.64 255.491362,66.336 255.491362,62.016 L255.491362,40.032 L231.093403,40.032 L231.093403,62.016 C231.093403,66.336 228.946383,68.64 224.55475,68.64 C220.163117,68.64 217.918505,66.336 217.918505,62.016 L217.918505,8.16 C217.918505,3.456 220.163117,1.152 224.652342,1.152 C228.946383,1.152 231.093403,3.456 231.093403,8.16 Z M344.234872,64.416 L338.964913,52.608 L312.517526,52.608 L307.247566,64.416 C305.978872,67.296 303.441485,68.64 301.001689,68.64 C297.683566,68.64 294.658219,66.144 294.658219,62.4 C294.658219,61.44 294.853403,60.384 295.341362,59.424 L319.544138,5.376 C321.008015,2.016 323.252628,1.152 325.887607,1.152 C328.424995,1.152 330.572015,2.016 332.035893,5.376 L356.238668,59.424 C356.629036,60.384 356.824219,61.44 356.824219,62.4 C356.824219,66.144 353.896464,68.64 350.48075,68.64 C348.040954,68.64 345.503566,67.296 344.234872,64.416 Z M325.790015,22.752 L317.689893,40.992 L333.792546,40.992 L325.790015,22.752 Z" id="ALPHA"></path>
                <path d="M445.840173,8.16 L445.840173,26.976 L470.238133,26.976 L470.238133,8.16 C470.238133,3.456 472.580337,1.152 477.069561,1.152 C481.168418,1.152 483.315439,3.456 483.315439,8.16 L483.315439,62.016 C483.315439,66.336 481.26601,68.64 476.971969,68.64 C472.385153,68.64 470.238133,66.336 470.238133,62.016 L470.238133,40.032 L445.840173,40.032 L445.840173,62.016 C445.840173,66.336 443.693153,68.64 439.30152,68.64 C434.909888,68.64 432.665276,66.336 432.665276,62.016 L432.665276,8.16 C432.665276,3.456 434.909888,1.152 439.399112,1.152 C443.693153,1.152 445.840173,3.456 445.840173,8.16 Z M574.840316,34.848 C574.840316,54.24 559.128031,69.6 539.41448,69.6 C519.896112,69.6 503.988643,54.336 503.988643,35.232 C503.988643,16.32 519.115378,0 538.92652,0 C559.323214,0 574.840316,15.84 574.840316,34.848 Z M539.316888,12.864 C526.825133,12.864 517.358724,23.232 517.358724,35.232 C517.358724,47.136 526.922724,56.928 539.316888,56.928 C551.808643,56.928 561.470235,47.232 561.470235,34.848 C561.470235,22.848 551.515867,12.864 539.316888,12.864 Z M631.061347,47.52 L649.115837,6.144 C650.579714,2.784 652.921918,1.152 656.435224,1.152 C660.241306,1.152 663.65702,3.456 663.65702,8.928 L663.65702,61.632 C663.65702,66.336 661.607592,68.64 657.215959,68.64 C652.824327,68.64 650.774898,66.336 650.774898,61.632 L650.774898,34.368 L637.6,64.512 C636.428898,67.104 633.696327,68.64 631.061347,68.64 C628.523959,68.64 625.498612,67.104 624.32751,64.512 L611.347796,34.368 L611.347796,61.632 C611.347796,66.336 609.298367,68.64 604.906735,68.64 C600.515102,68.64 598.465673,66.336 598.465673,61.632 L598.465673,8.928 C598.465673,3.456 601.783796,1.152 605.687469,1.152 C609.200776,1.152 611.54298,2.784 613.006857,6.144 L631.061347,47.52 Z M693.682776,1.632 L723.643469,1.632 C727.351959,1.632 730.182122,4.416 730.182122,8.064 C730.182122,11.616 727.351959,14.496 723.643469,14.496 L700.31902,14.496 L700.31902,26.688 L723.057918,26.688 C726.473633,26.688 729.01102,29.28 729.01102,32.64 C729.01102,35.808 726.473633,38.592 723.057918,38.592 L700.31902,38.592 L700.31902,55.296 L723.448286,55.296 C727.059184,55.296 729.986939,57.984 729.986939,61.728 C729.986939,65.376 727.059184,68.16 723.448286,68.16 L693.682776,68.16 C689.876694,68.16 687.241714,65.376 687.241714,61.728 L687.241714,8.064 C687.241714,4.416 689.876694,1.632 693.682776,1.632 Z M780.726561,18.28 C779.945827,15.784 778.774724,13.576 775.35901,13.576 C771.748112,13.576 770.186643,16.072 770.186643,18.664 C770.186643,22.888 774.578276,25.288 777.896398,27.016 C783.361541,29.896 786.972439,32.104 789.607418,34.408 C793.803867,38.152 796.341255,43.336 796.341255,49.96 C796.341255,63.88 785.313378,70.312 775.163827,70.312 C763.062439,70.312 753.205663,61.192 753.205663,52.648 C753.205663,48.232 755.840643,46.024 759.744316,46.024 C763.745582,46.024 764.916684,48.328 766.185378,51.4 C767.942031,55.432 770.284235,57.64 774.773459,57.64 C779.750643,57.64 782.971173,54.952 782.971173,50.248 C782.971173,46.888 781.312112,44.68 778.969908,42.856 C776.334929,40.84 772.431255,39.208 768.820357,37 C762.379296,33.064 757.011745,27.4 757.011745,18.568 C757.011745,6.856 766.478153,1.192 775.261418,1.192 C784.337459,1.192 793.4135,7.24 793.4135,16.264 C793.4135,20.296 791.559255,23.272 786.972439,23.272 C782.483214,23.272 781.409704,20.488 780.726561,18.28 Z" id="HOMES"></path>
            </g>
            <g id="emblem-dark" fill-rule="evenodd" stroke-width="1">
                <g id="ah-logo" transform="translate(10.054286, 10.054286)">
                    <g id="ah-logo-emblem" fill-rule="nonzero">
                        <g id="logo-core" transform="translate(4.199325, 1.399775)">
                            <g id="H-bottom">
                                <use fill="black" fill-opacity="1" filter="url(#filter-2)" xlink:href="#path-1"></use>
                                <use fill="#14A84E" xlink:href="#path-1"></use>
                            </g>
                            <g id="H-right">
                                <use fill="black" fill-opacity="1" filter="url(#filter-4)" xlink:href="#path-3"></use>
                                <use fill="#81B753" xlink:href="#path-3"></use>
                            </g>
                            <g id="H-left">
                                <use fill="black" fill-opacity="1" filter="url(#filter-6)" xlink:href="#path-5"></use>
                                <use fill="#AF6A3D" xlink:href="#path-5"></use>
                            </g>
                            <g id="A-cross">
                                <use fill="black" fill-opacity="1" filter="url(#filter-8)" xlink:href="#path-7"></use>
                                <use fill="#F64D54" xlink:href="#path-7"></use>
                            </g>
                            <g id="A-right">
                                <use fill="black" fill-opacity="1" filter="url(#filter-10)" xlink:href="#path-9"></use>
                                <use fill="#F0B573" xlink:href="#path-9"></use>
                            </g>
                            <g id="A-left">
                                <use fill="black" fill-opacity="1" filter="url(#filter-12)" xlink:href="#path-11"></use>
                                <use fill="#3DA5D9" xlink:href="#path-11"></use>
                            </g>
                        </g>
                        <g id="ring">
                            <use fill="black" fill-opacity="1" filter="url(#filter-14)" xlink:href="#path-13"></use>
                            <use fill="#131415" xlink:href="#path-13"></use>
                        </g>
                    </g>
                </g>
            </g>
        </g>
    </g>
</svg>