<?xml version="1.0" encoding="UTF-8"?>
<svg width="784px" height="433px" viewBox="0 0 784 433" version="1.1" xmlns="http://www.w3.org/2000/svg" xmlns:xlink="http://www.w3.org/1999/xlink">
    <!-- Generator: Sketch 55.1 (78136) - https://sketchapp.com -->
    <title>logo-halfstack-dark</title>
    <desc>Created with Sketch.</desc>
    <defs>
        <path d="M207.79476,203.653302 C158.459859,240.77332 90.6409913,240.77332 41.3060897,203.653302 C38.4071656,201.465062 37.6358922,197.675671 39.4975866,195.460746 L41.1997072,193.405935 C43.0879972,191.164324 46.6784078,191.057581 49.28478,193.005648 C93.8856587,226.576447 155.241787,226.576447 199.842666,193.005648 C202.449038,191.057581 206.039449,191.164324 207.927739,193.405935 L209.629859,195.460746 C211.464958,197.702357 210.72028,201.465062 207.79476,203.653302" id="path-1"></path>
        <filter x="-2.3%" y="-5.0%" width="104.6%" height="120.1%" filterUnits="objectBoundingBox" id="filter-2">
            <feOffset dx="0" dy="2" in="SourceAlpha" result="shadowOffsetOuter1"></feOffset>
            <feGaussianBlur stdDeviation="1" in="shadowOffsetOuter1" result="shadowBlurOuter1"></feGaussianBlur>
            <feColorMatrix values="0 0 0 0 0.0745098039   0 0 0 0 0.0784313725   0 0 0 0 0.0823529412  0 0 0 1 0" type="matrix" in="shadowBlurOuter1"></feColorMatrix>
        </filter>
        <path d="M190.16794,240.427855 L190.16794,240.427855 C187.004129,238.858618 185.355756,235.906325 186.498982,233.858337 C204.046173,201.516095 209.895237,161.859611 200.137935,122.495698 C199.526442,119.96896 201.679961,116.963472 205.02988,115.819791 L205.02988,115.819791 C208.379798,114.676109 211.756303,116.005971 212.181689,117.974167 C223.055631,160.290374 217.206567,203.191721 198.489563,238.486257 C197.00071,241.491745 193.358339,241.970495 190.16794,240.427855" id="path-3"></path>
        <filter x="-12.7%" y="-1.6%" width="125.4%" height="106.4%" filterUnits="objectBoundingBox" id="filter-4">
            <feOffset dx="0" dy="2" in="SourceAlpha" result="shadowOffsetOuter1"></feOffset>
            <feGaussianBlur stdDeviation="1" in="shadowOffsetOuter1" result="shadowBlurOuter1"></feGaussianBlur>
            <feColorMatrix values="0 0 0 0 0.0745098039   0 0 0 0 0.0784313725   0 0 0 0 0.0823529412  0 0 0 1 0" type="matrix" in="shadowBlurOuter1"></feColorMatrix>
        </filter>
        <path d="M60.5207474,240.410485 L60.3347172,240.410485 C63.497231,238.843466 65.1449272,235.895345 64.0287459,233.823693 C46.4621776,201.500606 40.6155134,161.820497 50.3688123,122.485664 C50.9800545,119.962498 48.827419,116.961258 45.478875,115.819193 C42.1037552,114.677128 38.7286355,116.005111 38.3299993,117.970524 C27.4605191,160.280038 33.3071832,203.173863 52.0165086,238.471631 C53.5313261,241.472871 57.1722034,241.977504 60.3612929,240.437044" id="path-5"></path>
        <filter x="-12.7%" y="-1.6%" width="125.4%" height="106.4%" filterUnits="objectBoundingBox" id="filter-6">
            <feOffset dx="0" dy="2" in="SourceAlpha" result="shadowOffsetOuter1"></feOffset>
            <feGaussianBlur stdDeviation="1" in="shadowOffsetOuter1" result="shadowBlurOuter1"></feGaussianBlur>
            <feColorMatrix values="0 0 0 0 0.0745098039   0 0 0 0 0.0784313725   0 0 0 0 0.0823529412  0 0 0 1 0" type="matrix" in="shadowBlurOuter1"></feColorMatrix>
        </filter>
        <path d="M223.687299,132.478972 C159.770113,111.32893 90.6639789,111.32893 26.7467923,132.478972 C22.8351244,133.774412 18.5509166,131.844471 17.1938073,128.090338 C15.836698,124.336206 18.0453269,120.053322 22.1698747,118.705007 C89.0939898,96.5767761 161.419932,96.5767761 228.344047,118.705007 C232.468595,120.07976 234.677224,124.336206 233.320114,128.090338 C231.936395,131.844471 227.652187,133.774412 223.767129,132.478972" id="path-7"></path>
        <filter x="-1.8%" y="-6.5%" width="103.7%" height="126.0%" filterUnits="objectBoundingBox" id="filter-8">
            <feOffset dx="0" dy="2" in="SourceAlpha" result="shadowOffsetOuter1"></feOffset>
            <feGaussianBlur stdDeviation="1" in="shadowOffsetOuter1" result="shadowBlurOuter1"></feGaussianBlur>
            <feColorMatrix values="0 0 0 0 0.0745098039   0 0 0 0 0.0784313725   0 0 0 0 0.0823529412  0 0 0 1 0" type="matrix" in="shadowBlurOuter1"></feColorMatrix>
        </filter>
        <path d="M125,9.32005177 L125,2.34181634 L126.016303,2.34181634 C127.080602,0.817864888 128.779887,4.14943981e-06 130.50613,1.58459863e-11 L130.506145,0 C131.584208,-2.59139269e-06 132.6728,0.318982053 133.623801,0.984178029 C182.966136,34.7654136 226.243752,90.1091398 249.38544,162.09059 C250.609024,165.923922 249.119444,171.168133 246.113684,173.590586 C243.081325,175.986418 239.703171,174.761881 238.559386,170.95517 C217.173274,99.5593673 175.438437,44.4552242 127.426084,10.6473683 C127.080289,10.3811647 126.761093,10.0883408 126.468497,9.76889649 C126.031905,9.50188217 125.528961,9.34554038 125,9.32005467 Z" id="path-9"></path>
        <filter x="-3.2%" y="-1.1%" width="106.4%" height="104.6%" filterUnits="objectBoundingBox" id="filter-10">
            <feOffset dx="0" dy="2" in="SourceAlpha" result="shadowOffsetOuter1"></feOffset>
            <feGaussianBlur stdDeviation="1" in="shadowOffsetOuter1" result="shadowBlurOuter1"></feGaussianBlur>
            <feColorMatrix values="0 0 0 0 0.0745098039   0 0 0 0 0.0784313725   0 0 0 0 0.0823529412  0 0 0 1 0" type="matrix" in="shadowBlurOuter1"></feColorMatrix>
        </filter>
        <path d="M125,9.32005467 C124.948871,9.31759122 124.897498,9.31635039 124.845919,9.31635039 C124.393725,9.31635039 123.968131,9.39621146 123.569136,9.58255398 C123.223341,9.98185936 122.850946,10.3545444 122.425352,10.6473683 C74.4129992,44.4552242 32.678162,99.5593673 11.2920503,170.95517 C10.1482658,174.761881 6.7701113,176.039659 3.73775219,173.590586 C0.705393075,171.141513 -0.810786481,165.923922 0.439396662,162.09059 C23.6076843,90.0825195 66.8587011,34.7920339 116.201036,0.984178029 C118.674802,-0.719524944 122.079557,-0.107256688 123.808533,2.34181634 L125,2.34181634 L125,9.32005177 Z" id="path-11"></path>
        <filter x="-3.2%" y="-1.1%" width="106.4%" height="104.6%" filterUnits="objectBoundingBox" id="filter-12">
            <feOffset dx="0" dy="2" in="SourceAlpha" result="shadowOffsetOuter1"></feOffset>
            <feGaussianBlur stdDeviation="1" in="shadowOffsetOuter1" result="shadowBlurOuter1"></feGaussianBlur>
            <feColorMatrix values="0 0 0 0 0.0745098039   0 0 0 0 0.0784313725   0 0 0 0 0.0823529412  0 0 0 1 0" type="matrix" in="shadowBlurOuter1"></feColorMatrix>
        </filter>
        <path d="M133.341898,266.657143 C59.7813065,266.657143 0,206.849184 0,133.315245 C0,59.7813065 59.7813065,0 133.341898,0 C206.902489,0 266.657143,59.8079589 266.657143,133.341898 C266.657143,206.875836 206.849184,266.657143 133.341898,266.657143 M133.341898,11.9669223 C66.4177511,11.9669223 11.9935746,66.4177511 11.9935746,133.341898 C11.9935746,200.266044 66.4177511,254.716873 133.36855,254.716873 C200.319349,254.716873 254.716873,200.266044 254.716873,133.341898 C254.716873,66.4177511 200.266044,11.9669223 133.341898,11.9669223" id="path-13"></path>
        <filter x="-11.1%" y="-6.9%" width="122.1%" height="122.1%" filterUnits="objectBoundingBox" id="filter-14">
            <feOffset dx="0" dy="11" in="SourceAlpha" result="shadowOffsetOuter1"></feOffset>
            <feGaussianBlur stdDeviation="8" in="shadowOffsetOuter1" result="shadowBlurOuter1"></feGaussianBlur>
            <feColorMatrix values="0 0 0 0 0   0 0 0 0 0   0 0 0 0 0  0 0 0 0.306872815 0" type="matrix" in="shadowBlurOuter1" result="shadowMatrixOuter1"></feColorMatrix>
            <feOffset dx="0" dy="2" in="SourceAlpha" result="shadowOffsetOuter2"></feOffset>
            <feGaussianBlur stdDeviation="3" in="shadowOffsetOuter2" result="shadowBlurOuter2"></feGaussianBlur>
            <feColorMatrix values="0 0 0 0 0   0 0 0 0 0   0 0 0 0 0  0 0 0 0.147836538 0" type="matrix" in="shadowBlurOuter2" result="shadowMatrixOuter2"></feColorMatrix>
            <feOffset dx="0" dy="4" in="SourceAlpha" result="shadowOffsetOuter3"></feOffset>
            <feGaussianBlur stdDeviation="1" in="shadowOffsetOuter3" result="shadowBlurOuter3"></feGaussianBlur>
            <feColorMatrix values="0 0 0 0 0   0 0 0 0 0   0 0 0 0 0  0 0 0 0.417340472 0" type="matrix" in="shadowBlurOuter3" result="shadowMatrixOuter3"></feColorMatrix>
            <feMerge>
                <feMergeNode in="shadowMatrixOuter1"></feMergeNode>
                <feMergeNode in="shadowMatrixOuter2"></feMergeNode>
                <feMergeNode in="shadowMatrixOuter3"></feMergeNode>
            </feMerge>
        </filter>
    </defs>
    <g id="logo-halfstack-dark" stroke="none" stroke-width="1" fill="none" fill-rule="evenodd">
        <g id="text-dark" transform="translate(6.000000, 362.000000)" fill="#141414" fill-rule="nonzero">
            <path d="M32.7916,19.9872 L14.95,63.6 C14.5999983,64.400004 14.0875034,64.999998 13.4125,65.4 C12.7374966,65.800002 12.0500035,66 11.35,66 C9.949993,66 8.87500375,65.400006 8.125,64.2 C7.37499625,62.999994 7.299997,61.7250067 7.9,60.375 L28.975,10.05 C29.7250038,8.29999125 30.9499915,7.425 32.65,7.425 C34.450009,7.425 35.6749968,8.29999125 36.325,10.05 L57.475,60.525 C58.0250028,61.925 57.9375036,63.1874944 57.2125,64.3125 C56.4874964,65.4375056 55.4000073,66 53.95,66 C53.1999963,66 52.4875034,65.7875021 51.8125,65.3625 C51.1374966,64.9374979 50.6500015,64.3500037 50.35,63.6 L32.7916,19.9872 Z M15.325,53.1 L18.325,46.65 L47.725,46.65 L50.725,53.1 L15.325,53.1 Z M85.85,66 C84.7499945,66 83.8375036,65.6250038 83.1125,64.875 C82.3874964,64.1249962 82.025,63.2000055 82.025,62.1 L82.025,11.325 C82.025,10.2249945 82.3999963,9.30000375 83.15,8.55 C83.9000038,7.79999625 84.7999948,7.425 85.85,7.425 C86.9500055,7.425 87.8749962,7.79999625 88.625,8.55 C89.3750038,9.30000375 89.75,10.2249945 89.75,11.325 L89.75,58.2 L116.9,58.2 C118.000006,58.2 118.924996,58.5749962 119.675,59.325 C120.425004,60.0750038 120.8,60.9999945 120.8,62.1 C120.8,63.2000055 120.425004,64.1249962 119.675,64.875 C118.924996,65.6250038 118.000006,66 116.9,66 L85.85,66 Z M149.7,66 C148.599995,66 147.675004,65.6250038 146.925,64.875 C146.174996,64.1249962 145.8,63.2000055 145.8,62.1 L145.8,11.325 C145.8,10.1749942 146.174996,9.23750363 146.925,8.5125 C147.675004,7.78749638 148.599995,7.425 149.7,7.425 L164.7,7.425 C168.450019,7.425 171.774986,8.24999175 174.675,9.9 C177.575015,11.5500083 179.837492,13.8374854 181.4625,16.7625 C183.087508,19.6875146 183.9,23.049981 183.9,26.85 C183.9,30.5000183 183.087508,33.7499858 181.4625,36.6 C179.837492,39.4500143 177.575015,41.674992 174.675,43.275 C171.774986,44.875008 168.450019,45.675 164.7,45.675 L153.6,45.675 L153.6,62.1 C153.6,63.2000055 153.237504,64.1249962 152.5125,64.875 C151.787496,65.6250038 150.850006,66 149.7,66 Z M153.6,38.475 L164.7,38.475 C167.000012,38.475 169.024991,37.975005 170.775,36.975 C172.525009,35.974995 173.899995,34.6000088 174.9,32.85 C175.900005,31.0999913 176.4,29.1000113 176.4,26.85 C176.4,24.449988 175.900005,22.3375091 174.9,20.5125 C173.899995,18.6874909 172.525009,17.2500053 170.775,16.2 C169.024991,15.1499948 167.000012,14.625 164.7,14.625 L153.6,14.625 L153.6,38.475 Z M212.05,66 C210.949994,66 210.025004,65.6250038 209.275,64.875 C208.524996,64.1249962 208.15,63.2000055 208.15,62.1 L208.15,11.325 C208.15,10.1749942 208.524996,9.23750363 209.275,8.5125 C210.025004,7.78749638 210.949994,7.425 212.05,7.425 C213.200006,7.425 214.137496,7.78749638 214.8625,8.5125 C215.587504,9.23750363 215.95,10.1749942 215.95,11.325 L215.95,32.85 L250.75,32.85 L250.75,11.325 C250.75,10.1749942 251.124996,9.23750363 251.875,8.5125 C252.625004,7.78749638 253.549994,7.425 254.65,7.425 C255.800006,7.425 256.724996,7.78749638 257.425,8.5125 C258.125003,9.23750363 258.475,10.1749942 258.475,11.325 L258.475,62.1 C258.475,63.2000055 258.125003,64.1249962 257.425,64.875 C256.724996,65.6250038 255.800006,66 254.65,66 C253.549994,66 252.625004,65.6250038 251.875,64.875 C251.124996,64.1249962 250.75,63.2000055 250.75,62.1 L250.75,39.75 L215.95,39.75 L215.95,62.1 C215.95,63.2000055 215.587504,64.1249962 214.8625,64.875 C214.137496,65.6250038 213.200006,66 212.05,66 Z M308.2166,19.9872 L290.375,63.6 C290.024998,64.400004 289.512503,64.999998 288.8375,65.4 C288.162497,65.800002 287.475004,66 286.775,66 C285.374993,66 284.300004,65.400006 283.55,64.2 C282.799996,62.999994 282.724997,61.7250067 283.325,60.375 L304.4,10.05 C305.150004,8.29999125 306.374992,7.425 308.075,7.425 C309.875009,7.425 311.099997,8.29999125 311.75,10.05 L332.9,60.525 C333.450003,61.925 333.362504,63.1874944 332.6375,64.3125 C331.912496,65.4375056 330.825007,66 329.375,66 C328.624996,66 327.912503,65.7875021 327.2375,65.3625 C326.562497,64.9374979 326.075002,64.3500037 325.775,63.6 L308.2166,19.9872 L308.2166,19.9872 Z M290.75,53.1 L293.75,46.65 L323.15,46.65 L326.15,53.1 L290.75,53.1 Z M398.95,66 C397.849995,66 396.925004,65.6250038 396.175,64.875 C395.424996,64.1249962 395.05,63.2000055 395.05,62.1 L395.05,11.325 C395.05,10.1749942 395.424996,9.23750363 396.175,8.5125 C396.925004,7.78749638 397.849995,7.425 398.95,7.425 C400.100006,7.425 401.037496,7.78749638 401.7625,8.5125 C402.487504,9.23750363 402.85,10.1749942 402.85,11.325 L402.85,32.85 L437.65,32.85 L437.65,11.325 C437.65,10.1749942 438.024996,9.23750363 438.775,8.5125 C439.525004,7.78749638 440.449995,7.425 441.55,7.425 C442.700006,7.425 443.624997,7.78749638 444.325,8.5125 C445.025004,9.23750363 445.375,10.1749942 445.375,11.325 L445.375,62.1 C445.375,63.2000055 445.025004,64.1249962 444.325,64.875 C443.624997,65.6250038 442.700006,66 441.55,66 C440.449995,66 439.525004,65.6250038 438.775,64.875 C438.024996,64.1249962 437.65,63.2000055 437.65,62.1 L437.65,39.75 L402.85,39.75 L402.85,62.1 C402.85,63.2000055 402.487504,64.1249962 401.7625,64.875 C401.037496,65.6250038 400.100006,66 398.95,66 Z M503.075,66.75 C498.674978,66.75 494.650018,66.0125074 491,64.5375 C487.349982,63.0624926 484.212513,60.9875134 481.5875,58.3125 C478.962487,55.6374866 476.925007,52.4625184 475.475,48.7875 C474.024993,45.1124816 473.3,41.075022 473.3,36.675 C473.3,32.274978 474.024993,28.2500183 475.475,24.6 C476.925007,20.9499817 478.962487,17.7875134 481.5875,15.1125 C484.212513,12.4374866 487.349982,10.3625074 491,8.8875 C494.650018,7.41249262 498.674978,6.675 503.075,6.675 C507.475022,6.675 511.487482,7.41249262 515.1125,8.8875 C518.737518,10.3625074 521.874987,12.4374866 524.525,15.1125 C527.175013,17.7875134 529.224993,20.9499817 530.675,24.6 C532.125007,28.2500183 532.85,32.274978 532.85,36.675 C532.85,41.075022 532.125007,45.1124816 530.675,48.7875 C529.224993,52.4625184 527.175013,55.6374866 524.525,58.3125 C521.874987,60.9875134 518.737518,63.0624926 515.1125,64.5375 C511.487482,66.0125074 507.475022,66.75 503.075,66.75 Z M503.075,59.7 C506.325016,59.7 509.312486,59.1125059 512.0375,57.9375 C514.762514,56.7624941 517.12499,55.1375104 519.125,53.0625 C521.12501,50.9874896 522.662495,48.550014 523.7375,45.75 C524.812505,42.949986 525.35,39.9250162 525.35,36.675 C525.35,33.4249837 524.812505,30.400014 523.7375,27.6 C522.662495,24.799986 521.12501,22.3625104 519.125,20.2875 C517.12499,18.2124896 514.762514,16.6000058 512.0375,15.45 C509.312486,14.2999942 506.325016,13.725 503.075,13.725 C499.824984,13.725 496.837514,14.2999942 494.1125,15.45 C491.387486,16.6000058 489.03751,18.2124896 487.0625,20.2875 C485.08749,22.3625104 483.550006,24.799986 482.45,27.6 C481.349995,30.400014 480.8,33.4249837 480.8,36.675 C480.8,39.9250162 481.349995,42.949986 482.45,45.75 C483.550006,48.550014 485.08749,50.9874896 487.0625,53.0625 C489.03751,55.1375104 491.387486,56.7624941 494.1125,57.9375 C496.837514,59.1125059 499.824984,59.7 503.075,59.7 Z M590.309466,54.1150485 L612,9.525 C612.800004,8.124993 613.949992,7.425 615.45,7.425 C616.550005,7.425 617.474996,7.78749638 618.225,8.5125 C618.975004,9.23750363 619.35,10.1749942 619.35,11.325 L619.35,62.1 C619.35,63.2000055 618.962504,64.1249962 618.1875,64.875 C617.412496,65.6250038 616.500005,66 615.45,66 C614.349994,66 613.425004,65.6250038 612.675,64.875 C611.924996,64.1249962 611.55,63.2000055 611.55,62.1 L611.55,24.8072519 L593.4,61.8 C592.549996,63.1000065 591.425007,63.75 590.025,63.75 C588.374992,63.75 587.175004,62.9750078 586.425,61.425 L568.5,25.5057915 L568.5,62.1 C568.5,63.2000055 568.125004,64.1249962 567.375,64.875 C566.624996,65.6250038 565.7,66 564.6,66 C563.499994,66 562.575004,65.6250038 561.825,64.875 C561.074996,64.1249962 560.7,63.2000055 560.7,62.1 L560.7,11.325 C560.7,10.1749942 561.074996,9.23750363 561.825,8.5125 C562.575004,7.78749638 563.499994,7.425 564.6,7.425 C566.100007,7.425 567.249996,8.124993 568.05,9.525 L590.309466,54.1150485 Z M653.875,66 C652.774995,66 651.850004,65.6250038 651.1,64.875 C650.349996,64.1249962 649.975,63.2000055 649.975,62.1 L649.975,11.325 C649.975,10.1749942 650.349996,9.23750363 651.1,8.5125 C651.850004,7.78749638 652.774995,7.425 653.875,7.425 L687.775,7.425 C688.925006,7.425 689.849997,7.76249663 690.55,8.4375 C691.250004,9.11250338 691.6,9.9999945 691.6,11.1 C691.6,12.1500053 691.250004,12.9999968 690.55,13.65 C689.849997,14.3000033 688.925006,14.625 687.775,14.625 L657.775,14.625 L657.775,32.85 L679.3,32.85 C680.450006,32.85 681.374996,33.1874966 682.075,33.8625 C682.775004,34.5375034 683.125,35.3999948 683.125,36.45 C683.125,37.5000053 682.775004,38.3624966 682.075,39.0375 C681.374996,39.7125034 680.450006,40.05 679.3,40.05 L657.775,40.05 L657.775,58.8 L687.775,58.8 C688.925006,58.8 689.849997,59.1249968 690.55,59.775 C691.250004,60.425 691.6,61.2749947 691.6,62.325 C691.6,63.425 691.250004,64.3124966 690.55,64.9875 C689.849997,65.6625034 688.925006,66 687.775,66 L653.875,66 Z M736.7,66.75 C733.499984,66.75 730.450014,66.25 727.55,65.25 C724.649986,64.25 722.125011,62.850009 719.975,61.05 C717.824989,59.25 716.250005,57.1750118 715.25,54.825 C714.749998,53.7749947 714.762497,52.8000045 715.2875,51.9 C715.812503,50.9999955 716.699994,50.4250013 717.95,50.175 C718.850005,49.974999 719.737496,50.1124976 720.6125,50.5875 C721.487504,51.0625024 722.149998,51.7749952 722.6,52.725 C723.200003,53.9750062 724.187493,55.1249947 725.5625,56.175 C726.937507,57.2250053 728.59999,58.0749967 730.55,58.725 C732.50001,59.3750032 734.549989,59.7 736.7,59.7 C739.100012,59.7 741.31249,59.3250038 743.3375,58.575 C745.36251,57.8249963 746.999994,56.7375071 748.25,55.3125 C749.500006,53.8874929 750.125,52.1250105 750.125,50.025 C750.125,47.3749867 749.08751,45.0000105 747.0125,42.9 C744.93749,40.7999895 741.525024,39.5000025 736.775,39 C730.574969,38.399997 725.700018,36.5750152 722.15,33.525 C718.599982,30.4749848 716.825,26.7000225 716.825,22.2 C716.825,18.8999835 717.749991,16.1000115 719.6,13.8 C721.450009,11.4999885 723.962484,9.75 727.1375,8.55 C730.312516,7.349994 733.849981,6.75 737.75,6.75 C740.800015,6.75 743.462489,7.17499575 745.7375,8.025 C748.012511,8.87500425 749.999991,10.0499925 751.7,11.55 C753.400009,13.0500075 754.874994,14.8249898 756.125,16.875 C756.825004,17.9750055 757.112501,19.0124951 756.9875,19.9875 C756.862499,20.9625049 756.375004,21.7249973 755.525,22.275 C754.574995,22.875003 753.550005,23.0000018 752.45,22.65 C751.349995,22.2999983 750.525003,21.6500048 749.975,20.7 C749.174996,19.25 748.200006,18.025005 747.05,17.025 C745.899994,16.024995 744.550008,15.2375029 743,14.6625 C741.449992,14.0874971 739.625011,13.8 737.525,13.8 C733.824982,13.75 730.725013,14.4374929 728.225,15.8625 C725.724987,17.2875071 724.475,19.4749853 724.475,22.425 C724.475,23.9250075 724.862496,25.3624931 725.6375,26.7375 C726.412504,28.1125069 727.83749,29.299995 729.9125,30.3 C731.98751,31.300005 734.974981,31.999998 738.875,32.4 C744.82503,33.000003 749.462483,34.8124849 752.7875,37.8375 C756.112517,40.8625151 757.775,44.8499752 757.775,49.8 C757.775,52.6500142 757.187506,55.1249895 756.0125,57.225 C754.837494,59.3250105 753.26251,61.0874929 751.2875,62.5125 C749.31249,63.9375071 747.062513,64.9999965 744.5375,65.7 C742.012487,66.4000035 739.400014,66.75 736.7,66.75 Z" id="ALPHAHOMES"></path>
        </g>
        <g id="emblem-dark" transform="translate(217.000000, 0.000000)">
            <g id="ah-logo" transform="translate(20.108571, 20.108571)">
                <g id="ah-logo-emblem" fill-rule="nonzero">
                    <g id="logo-core" transform="translate(8.398650, 2.799550)">
                        <g id="H-bottom">
                            <use fill="black" fill-opacity="1" filter="url(#filter-2)" xlink:href="#path-1"></use>
                            <use fill="#14A84E" xlink:href="#path-1"></use>
                        </g>
                        <g id="H-right">
                            <use fill="black" fill-opacity="1" filter="url(#filter-4)" xlink:href="#path-3"></use>
                            <use fill="#81B753" xlink:href="#path-3"></use>
                        </g>
                        <g id="H-left">
                            <use fill="black" fill-opacity="1" filter="url(#filter-6)" xlink:href="#path-5"></use>
                            <use fill="#AF6A3D" xlink:href="#path-5"></use>
                        </g>
                        <g id="A-cross">
                            <use fill="black" fill-opacity="1" filter="url(#filter-8)" xlink:href="#path-7"></use>
                            <use fill="#F64D54" xlink:href="#path-7"></use>
                        </g>
                        <g id="A-right">
                            <use fill="black" fill-opacity="1" filter="url(#filter-10)" xlink:href="#path-9"></use>
                            <use fill="#F0B573" xlink:href="#path-9"></use>
                        </g>
                        <g id="A-left">
                            <use fill="black" fill-opacity="1" filter="url(#filter-12)" xlink:href="#path-11"></use>
                            <use fill="#3DA5D9" xlink:href="#path-11"></use>
                        </g>
                    </g>
                    <g id="ring">
                        <use fill="black" fill-opacity="1" filter="url(#filter-14)" xlink:href="#path-13"></use>
                        <use fill="#131415" xlink:href="#path-13"></use>
                    </g>
                </g>
            </g>
        </g>
    </g>
</svg>