<?xml version="1.0" encoding="UTF-8"?>
<svg width="797px" height="446px" viewBox="0 0 797 446" version="1.1" xmlns="http://www.w3.org/2000/svg" xmlns:xlink="http://www.w3.org/1999/xlink">
    <!-- Generator: Sketch 55.1 (78136) - https://sketchapp.com -->
    <title>logo-halfstack</title>
    <desc>Created with Sketch.</desc>
    <defs>
        <path d="M207.79476,203.653302 C158.459859,240.77332 90.6409913,240.77332 41.3060897,203.653302 C38.4071656,201.465062 37.6358922,197.675671 39.4975866,195.460746 L41.1997072,193.405935 C43.0879972,191.164324 46.6784078,191.057581 49.28478,193.005648 C93.8856587,226.576447 155.241787,226.576447 199.842666,193.005648 C202.449038,191.057581 206.039449,191.164324 207.927739,193.405935 L209.629859,195.460746 C211.464958,197.702357 210.72028,201.465062 207.79476,203.653302" id="path-1"></path>
        <filter x="-2.3%" y="-5.0%" width="104.6%" height="120.1%" filterUnits="objectBoundingBox" id="filter-2">
            <feOffset dx="0" dy="2" in="SourceAlpha" result="shadowOffsetOuter1"></feOffset>
            <feGaussianBlur stdDeviation="1" in="shadowOffsetOuter1" result="shadowBlurOuter1"></feGaussianBlur>
            <feColorMatrix values="0 0 0 0 0.0745098039   0 0 0 0 0.0784313725   0 0 0 0 0.0823529412  0 0 0 1 0" type="matrix" in="shadowBlurOuter1"></feColorMatrix>
        </filter>
        <path d="M190.16794,240.427855 L190.16794,240.427855 C187.004129,238.858618 185.355756,235.906325 186.498982,233.858337 C204.046173,201.516095 209.895237,161.859611 200.137935,122.495698 C199.526442,119.96896 201.679961,116.963472 205.02988,115.819791 L205.02988,115.819791 C208.379798,114.676109 211.756303,116.005971 212.181689,117.974167 C223.055631,160.290374 217.206567,203.191721 198.489563,238.486257 C197.00071,241.491745 193.358339,241.970495 190.16794,240.427855" id="path-3"></path>
        <filter x="-12.7%" y="-1.6%" width="125.4%" height="106.4%" filterUnits="objectBoundingBox" id="filter-4">
            <feOffset dx="0" dy="2" in="SourceAlpha" result="shadowOffsetOuter1"></feOffset>
            <feGaussianBlur stdDeviation="1" in="shadowOffsetOuter1" result="shadowBlurOuter1"></feGaussianBlur>
            <feColorMatrix values="0 0 0 0 0.0745098039   0 0 0 0 0.0784313725   0 0 0 0 0.0823529412  0 0 0 1 0" type="matrix" in="shadowBlurOuter1"></feColorMatrix>
        </filter>
        <path d="M60.5207474,240.410485 L60.3347172,240.410485 C63.497231,238.843466 65.1449272,235.895345 64.0287459,233.823693 C46.4621776,201.500606 40.6155134,161.820497 50.3688123,122.485664 C50.9800545,119.962498 48.827419,116.961258 45.478875,115.819193 C42.1037552,114.677128 38.7286355,116.005111 38.3299993,117.970524 C27.4605191,160.280038 33.3071832,203.173863 52.0165086,238.471631 C53.5313261,241.472871 57.1722034,241.977504 60.3612929,240.437044" id="path-5"></path>
        <filter x="-12.7%" y="-1.6%" width="125.4%" height="106.4%" filterUnits="objectBoundingBox" id="filter-6">
            <feOffset dx="0" dy="2" in="SourceAlpha" result="shadowOffsetOuter1"></feOffset>
            <feGaussianBlur stdDeviation="1" in="shadowOffsetOuter1" result="shadowBlurOuter1"></feGaussianBlur>
            <feColorMatrix values="0 0 0 0 0.0745098039   0 0 0 0 0.0784313725   0 0 0 0 0.0823529412  0 0 0 1 0" type="matrix" in="shadowBlurOuter1"></feColorMatrix>
        </filter>
        <path d="M223.687299,132.478972 C159.770113,111.32893 90.6639789,111.32893 26.7467923,132.478972 C22.8351244,133.774412 18.5509166,131.844471 17.1938073,128.090338 C15.836698,124.336206 18.0453269,120.053322 22.1698747,118.705007 C89.0939898,96.5767761 161.419932,96.5767761 228.344047,118.705007 C232.468595,120.07976 234.677224,124.336206 233.320114,128.090338 C231.936395,131.844471 227.652187,133.774412 223.767129,132.478972" id="path-7"></path>
        <filter x="-1.8%" y="-6.5%" width="103.7%" height="126.0%" filterUnits="objectBoundingBox" id="filter-8">
            <feOffset dx="0" dy="2" in="SourceAlpha" result="shadowOffsetOuter1"></feOffset>
            <feGaussianBlur stdDeviation="1" in="shadowOffsetOuter1" result="shadowBlurOuter1"></feGaussianBlur>
            <feColorMatrix values="0 0 0 0 0.0745098039   0 0 0 0 0.0784313725   0 0 0 0 0.0823529412  0 0 0 1 0" type="matrix" in="shadowBlurOuter1"></feColorMatrix>
        </filter>
        <path d="M125,9.32005177 L125,2.34181634 L126.016303,2.34181634 C127.080602,0.817864888 128.779887,4.14943981e-06 130.50613,1.58459863e-11 L130.506145,0 C131.584208,-2.59139269e-06 132.6728,0.318982053 133.623801,0.984178029 C182.966136,34.7654136 226.243752,90.1091398 249.38544,162.09059 C250.609024,165.923922 249.119444,171.168133 246.113684,173.590586 C243.081325,175.986418 239.703171,174.761881 238.559386,170.95517 C217.173274,99.5593673 175.438437,44.4552242 127.426084,10.6473683 C127.080289,10.3811647 126.761093,10.0883408 126.468497,9.76889649 C126.031905,9.50188217 125.528961,9.34554038 125,9.32005467 Z" id="path-9"></path>
        <filter x="-3.2%" y="-1.1%" width="106.4%" height="104.6%" filterUnits="objectBoundingBox" id="filter-10">
            <feOffset dx="0" dy="2" in="SourceAlpha" result="shadowOffsetOuter1"></feOffset>
            <feGaussianBlur stdDeviation="1" in="shadowOffsetOuter1" result="shadowBlurOuter1"></feGaussianBlur>
            <feColorMatrix values="0 0 0 0 0.0745098039   0 0 0 0 0.0784313725   0 0 0 0 0.0823529412  0 0 0 1 0" type="matrix" in="shadowBlurOuter1"></feColorMatrix>
        </filter>
        <path d="M125,9.32005467 C124.948871,9.31759122 124.897498,9.31635039 124.845919,9.31635039 C124.393725,9.31635039 123.968131,9.39621146 123.569136,9.58255398 C123.223341,9.98185936 122.850946,10.3545444 122.425352,10.6473683 C74.4129992,44.4552242 32.678162,99.5593673 11.2920503,170.95517 C10.1482658,174.761881 6.7701113,176.039659 3.73775219,173.590586 C0.705393075,171.141513 -0.810786481,165.923922 0.439396662,162.09059 C23.6076843,90.0825195 66.8587011,34.7920339 116.201036,0.984178029 C118.674802,-0.719524944 122.079557,-0.107256688 123.808533,2.34181634 L125,2.34181634 L125,9.32005177 Z" id="path-11"></path>
        <filter x="-3.2%" y="-1.1%" width="106.4%" height="104.6%" filterUnits="objectBoundingBox" id="filter-12">
            <feOffset dx="0" dy="2" in="SourceAlpha" result="shadowOffsetOuter1"></feOffset>
            <feGaussianBlur stdDeviation="1" in="shadowOffsetOuter1" result="shadowBlurOuter1"></feGaussianBlur>
            <feColorMatrix values="0 0 0 0 0.0745098039   0 0 0 0 0.0784313725   0 0 0 0 0.0823529412  0 0 0 1 0" type="matrix" in="shadowBlurOuter1"></feColorMatrix>
        </filter>
        <path d="M133.341898,266.657143 C59.7813065,266.657143 0,206.849184 0,133.315245 C0,59.7813065 59.7813065,0 133.341898,0 C206.902489,0 266.657143,59.8079589 266.657143,133.341898 C266.657143,206.875836 206.849184,266.657143 133.341898,266.657143 M133.341898,11.9669223 C66.4177511,11.9669223 11.9935746,66.4177511 11.9935746,133.341898 C11.9935746,200.266044 66.4177511,254.716873 133.36855,254.716873 C200.319349,254.716873 254.716873,200.266044 254.716873,133.341898 C254.716873,66.4177511 200.266044,11.9669223 133.341898,11.9669223" id="path-13"></path>
        <filter x="-3.8%" y="-3.0%" width="107.5%" height="107.5%" filterUnits="objectBoundingBox" id="filter-14">
            <feOffset dx="0" dy="2" in="SourceAlpha" result="shadowOffsetOuter1"></feOffset>
            <feGaussianBlur stdDeviation="3" in="shadowOffsetOuter1" result="shadowBlurOuter1"></feGaussianBlur>
            <feColorMatrix values="0 0 0 0 0   0 0 0 0 0   0 0 0 0 0  0 0 0 0.147836538 0" type="matrix" in="shadowBlurOuter1" result="shadowMatrixOuter1"></feColorMatrix>
            <feOffset dx="0" dy="2" in="SourceAlpha" result="shadowOffsetOuter2"></feOffset>
            <feGaussianBlur stdDeviation="1" in="shadowOffsetOuter2" result="shadowBlurOuter2"></feGaussianBlur>
            <feColorMatrix values="0 0 0 0 0   0 0 0 0 0   0 0 0 0 0  0 0 0 0.417340472 0" type="matrix" in="shadowBlurOuter2" result="shadowMatrixOuter2"></feColorMatrix>
            <feMerge>
                <feMergeNode in="shadowMatrixOuter1"></feMergeNode>
                <feMergeNode in="shadowMatrixOuter2"></feMergeNode>
            </feMerge>
        </filter>
    </defs>
    <g id="logo-halfstack" stroke="none" stroke-width="1" fill="none" fill-rule="evenodd">
        <g id="text-light" transform="translate(10.000000, 375.000000)" fill="#FFFFFF" fill-rule="nonzero">
            <path d="M39.7916,17.9872 L21.95,61.6 C21.5999983,62.400004 21.0875034,62.999998 20.4125,63.4 C19.7374966,63.800002 19.0500035,64 18.35,64 C16.949993,64 15.8750038,63.400006 15.125,62.2 C14.3749963,60.999994 14.299997,59.7250067 14.9,58.375 L35.975,8.05 C36.7250038,6.29999125 37.9499915,5.425 39.65,5.425 C41.450009,5.425 42.6749968,6.29999125 43.325,8.05 L64.475,58.525 C65.0250028,59.925 64.9375036,61.1874944 64.2125,62.3125 C63.4874964,63.4375056 62.4000073,64 60.95,64 C60.1999963,64 59.4875034,63.7875021 58.8125,63.3625 C58.1374966,62.9374979 57.6500015,62.3500037 57.35,61.6 L39.7916,17.9872 Z M22.325,51.1 L25.325,44.65 L54.725,44.65 L57.725,51.1 L22.325,51.1 Z M92.85,64 C91.7499945,64 90.8375036,63.6250038 90.1125,62.875 C89.3874964,62.1249962 89.025,61.2000055 89.025,60.1 L89.025,9.325 C89.025,8.2249945 89.3999963,7.30000375 90.15,6.55 C90.9000038,5.79999625 91.7999948,5.425 92.85,5.425 C93.9500055,5.425 94.8749962,5.79999625 95.625,6.55 C96.3750038,7.30000375 96.75,8.2249945 96.75,9.325 L96.75,56.2 L123.9,56.2 C125.000006,56.2 125.924996,56.5749962 126.675,57.325 C127.425004,58.0750038 127.8,58.9999945 127.8,60.1 C127.8,61.2000055 127.425004,62.1249962 126.675,62.875 C125.924996,63.6250038 125.000006,64 123.9,64 L92.85,64 Z M156.7,64 C155.599995,64 154.675004,63.6250038 153.925,62.875 C153.174996,62.1249962 152.8,61.2000055 152.8,60.1 L152.8,9.325 C152.8,8.17499425 153.174996,7.23750363 153.925,6.5125 C154.675004,5.78749638 155.599995,5.425 156.7,5.425 L171.7,5.425 C175.450019,5.425 178.774986,6.24999175 181.675,7.9 C184.575015,9.55000825 186.837492,11.8374854 188.4625,14.7625 C190.087508,17.6875146 190.9,21.049981 190.9,24.85 C190.9,28.5000183 190.087508,31.7499858 188.4625,34.6 C186.837492,37.4500143 184.575015,39.674992 181.675,41.275 C178.774986,42.875008 175.450019,43.675 171.7,43.675 L160.6,43.675 L160.6,60.1 C160.6,61.2000055 160.237504,62.1249962 159.5125,62.875 C158.787496,63.6250038 157.850006,64 156.7,64 Z M160.6,36.475 L171.7,36.475 C174.000012,36.475 176.024991,35.975005 177.775,34.975 C179.525009,33.974995 180.899995,32.6000088 181.9,30.85 C182.900005,29.0999913 183.4,27.1000113 183.4,24.85 C183.4,22.449988 182.900005,20.3375091 181.9,18.5125 C180.899995,16.6874909 179.525009,15.2500053 177.775,14.2 C176.024991,13.1499948 174.000012,12.625 171.7,12.625 L160.6,12.625 L160.6,36.475 Z M219.05,64 C217.949995,64 217.025004,63.6250038 216.275,62.875 C215.524996,62.1249962 215.15,61.2000055 215.15,60.1 L215.15,9.325 C215.15,8.17499425 215.524996,7.23750363 216.275,6.5125 C217.025004,5.78749638 217.949995,5.425 219.05,5.425 C220.200006,5.425 221.137496,5.78749638 221.8625,6.5125 C222.587504,7.23750363 222.95,8.17499425 222.95,9.325 L222.95,30.85 L257.75,30.85 L257.75,9.325 C257.75,8.17499425 258.124996,7.23750363 258.875,6.5125 C259.625004,5.78749638 260.549995,5.425 261.65,5.425 C262.800006,5.425 263.724996,5.78749638 264.425,6.5125 C265.125003,7.23750363 265.475,8.17499425 265.475,9.325 L265.475,60.1 C265.475,61.2000055 265.125003,62.1249962 264.425,62.875 C263.724996,63.6250038 262.800006,64 261.65,64 C260.549995,64 259.625004,63.6250038 258.875,62.875 C258.124996,62.1249962 257.75,61.2000055 257.75,60.1 L257.75,37.75 L222.95,37.75 L222.95,60.1 C222.95,61.2000055 222.587504,62.1249962 221.8625,62.875 C221.137496,63.6250038 220.200006,64 219.05,64 Z M315.2166,17.9872 L297.375,61.6 C297.024998,62.400004 296.512503,62.999998 295.8375,63.4 C295.162497,63.800002 294.475004,64 293.775,64 C292.374993,64 291.300004,63.400006 290.55,62.2 C289.799996,60.999994 289.724997,59.7250067 290.325,58.375 L311.4,8.05 C312.150004,6.29999125 313.374992,5.425 315.075,5.425 C316.875009,5.425 318.099997,6.29999125 318.75,8.05 L339.9,58.525 C340.450003,59.925 340.362504,61.1874944 339.6375,62.3125 C338.912496,63.4375056 337.825007,64 336.375,64 C335.624996,64 334.912503,63.7875021 334.2375,63.3625 C333.562497,62.9374979 333.075002,62.3500037 332.775,61.6 L315.2166,17.9872 L315.2166,17.9872 Z M297.75,51.1 L300.75,44.65 L330.15,44.65 L333.15,51.1 L297.75,51.1 Z M405.95,64 C404.849995,64 403.925004,63.6250038 403.175,62.875 C402.424996,62.1249962 402.05,61.2000055 402.05,60.1 L402.05,9.325 C402.05,8.17499425 402.424996,7.23750363 403.175,6.5125 C403.925004,5.78749638 404.849995,5.425 405.95,5.425 C407.100006,5.425 408.037496,5.78749638 408.7625,6.5125 C409.487504,7.23750363 409.85,8.17499425 409.85,9.325 L409.85,30.85 L444.65,30.85 L444.65,9.325 C444.65,8.17499425 445.024996,7.23750363 445.775,6.5125 C446.525004,5.78749638 447.449995,5.425 448.55,5.425 C449.700006,5.425 450.624997,5.78749638 451.325,6.5125 C452.025004,7.23750363 452.375,8.17499425 452.375,9.325 L452.375,60.1 C452.375,61.2000055 452.025004,62.1249962 451.325,62.875 C450.624997,63.6250038 449.700006,64 448.55,64 C447.449995,64 446.525004,63.6250038 445.775,62.875 C445.024996,62.1249962 444.65,61.2000055 444.65,60.1 L444.65,37.75 L409.85,37.75 L409.85,60.1 C409.85,61.2000055 409.487504,62.1249962 408.7625,62.875 C408.037496,63.6250038 407.100006,64 405.95,64 Z M510.075,64.75 C505.674978,64.75 501.650018,64.0125074 498,62.5375 C494.349982,61.0624926 491.212513,58.9875134 488.5875,56.3125 C485.962487,53.6374866 483.925007,50.4625184 482.475,46.7875 C481.024993,43.1124816 480.3,39.075022 480.3,34.675 C480.3,30.274978 481.024993,26.2500183 482.475,22.6 C483.925007,18.9499817 485.962487,15.7875134 488.5875,13.1125 C491.212513,10.4374866 494.349982,8.36250737 498,6.8875 C501.650018,5.41249262 505.674978,4.675 510.075,4.675 C514.475022,4.675 518.487482,5.41249262 522.1125,6.8875 C525.737518,8.36250737 528.874987,10.4374866 531.525,13.1125 C534.175013,15.7875134 536.224993,18.9499817 537.675,22.6 C539.125007,26.2500183 539.85,30.274978 539.85,34.675 C539.85,39.075022 539.125007,43.1124816 537.675,46.7875 C536.224993,50.4625184 534.175013,53.6374866 531.525,56.3125 C528.874987,58.9875134 525.737518,61.0624926 522.1125,62.5375 C518.487482,64.0125074 514.475022,64.75 510.075,64.75 Z M510.075,57.7 C513.325016,57.7 516.312486,57.1125059 519.0375,55.9375 C521.762514,54.7624941 524.12499,53.1375104 526.125,51.0625 C528.12501,48.9874896 529.662495,46.550014 530.7375,43.75 C531.812505,40.949986 532.35,37.9250162 532.35,34.675 C532.35,31.4249837 531.812505,28.400014 530.7375,25.6 C529.662495,22.799986 528.12501,20.3625104 526.125,18.2875 C524.12499,16.2124896 521.762514,14.6000058 519.0375,13.45 C516.312486,12.2999942 513.325016,11.725 510.075,11.725 C506.824984,11.725 503.837514,12.2999942 501.1125,13.45 C498.387486,14.6000058 496.03751,16.2124896 494.0625,18.2875 C492.08749,20.3625104 490.550006,22.799986 489.45,25.6 C488.349995,28.400014 487.8,31.4249837 487.8,34.675 C487.8,37.9250162 488.349995,40.949986 489.45,43.75 C490.550006,46.550014 492.08749,48.9874896 494.0625,51.0625 C496.03751,53.1375104 498.387486,54.7624941 501.1125,55.9375 C503.837514,57.1125059 506.824984,57.7 510.075,57.7 Z M597.309466,52.1150485 L619,7.525 C619.800004,6.124993 620.949992,5.425 622.45,5.425 C623.550005,5.425 624.474996,5.78749638 625.225,6.5125 C625.975004,7.23750363 626.35,8.17499425 626.35,9.325 L626.35,60.1 C626.35,61.2000055 625.962504,62.1249962 625.1875,62.875 C624.412496,63.6250038 623.500005,64 622.45,64 C621.349994,64 620.425004,63.6250038 619.675,62.875 C618.924996,62.1249962 618.55,61.2000055 618.55,60.1 L618.55,22.8072519 L600.4,59.8 C599.549996,61.1000065 598.425007,61.75 597.025,61.75 C595.374992,61.75 594.175004,60.9750078 593.425,59.425 L575.5,23.5057915 L575.5,60.1 C575.5,61.2000055 575.125004,62.1249962 574.375,62.875 C573.624996,63.6250038 572.7,64 571.6,64 C570.499994,64 569.575004,63.6250038 568.825,62.875 C568.074996,62.1249962 567.7,61.2000055 567.7,60.1 L567.7,9.325 C567.7,8.17499425 568.074996,7.23750363 568.825,6.5125 C569.575004,5.78749638 570.499994,5.425 571.6,5.425 C573.100007,5.425 574.249996,6.124993 575.05,7.525 L597.309466,52.1150485 L597.309466,52.1150485 Z M660.875,64 C659.774995,64 658.850004,63.6250038 658.1,62.875 C657.349996,62.1249962 656.975,61.2000055 656.975,60.1 L656.975,9.325 C656.975,8.17499425 657.349996,7.23750363 658.1,6.5125 C658.850004,5.78749638 659.774995,5.425 660.875,5.425 L694.775,5.425 C695.925006,5.425 696.849997,5.76249663 697.55,6.4375 C698.250004,7.11250338 698.6,7.9999945 698.6,9.1 C698.6,10.1500053 698.250004,10.9999968 697.55,11.65 C696.849997,12.3000033 695.925006,12.625 694.775,12.625 L664.775,12.625 L664.775,30.85 L686.3,30.85 C687.450006,30.85 688.374996,31.1874966 689.075,31.8625 C689.775004,32.5375034 690.125,33.3999948 690.125,34.45 C690.125,35.5000053 689.775004,36.3624966 689.075,37.0375 C688.374996,37.7125034 687.450006,38.05 686.3,38.05 L664.775,38.05 L664.775,56.8 L694.775,56.8 C695.925006,56.8 696.849997,57.1249968 697.55,57.775 C698.250004,58.425 698.6,59.2749947 698.6,60.325 C698.6,61.425 698.250004,62.3124966 697.55,62.9875 C696.849997,63.6625034 695.925006,64 694.775,64 L660.875,64 Z M743.7,64.75 C740.499984,64.75 737.450014,64.25 734.55,63.25 C731.649986,62.25 729.125011,60.850009 726.975,59.05 C724.824989,57.25 723.250005,55.1750118 722.25,52.825 C721.749998,51.7749947 721.762497,50.8000045 722.2875,49.9 C722.812503,48.9999955 723.699994,48.4250013 724.95,48.175 C725.850005,47.974999 726.737496,48.1124976 727.6125,48.5875 C728.487504,49.0625024 729.149998,49.7749952 729.6,50.725 C730.200003,51.9750062 731.187493,53.1249947 732.5625,54.175 C733.937507,55.2250053 735.59999,56.0749967 737.55,56.725 C739.50001,57.3750032 741.549989,57.7 743.7,57.7 C746.100012,57.7 748.31249,57.3250038 750.3375,56.575 C752.36251,55.8249963 753.999994,54.7375071 755.25,53.3125 C756.500006,51.8874929 757.125,50.1250105 757.125,48.025 C757.125,45.3749867 756.08751,43.0000105 754.0125,40.9 C751.93749,38.7999895 748.525024,37.5000025 743.775,37 C737.574969,36.399997 732.700018,34.5750152 729.15,31.525 C725.599982,28.4749848 723.825,24.7000225 723.825,20.2 C723.825,16.8999835 724.749991,14.1000115 726.6,11.8 C728.450009,9.4999885 730.962484,7.75 734.1375,6.55 C737.312516,5.349994 740.849981,4.75 744.75,4.75 C747.800015,4.75 750.462489,5.17499575 752.7375,6.025 C755.012511,6.87500425 756.999991,8.0499925 758.7,9.55 C760.400009,11.0500075 761.874994,12.8249898 763.125,14.875 C763.825004,15.9750055 764.112501,17.0124951 763.9875,17.9875 C763.862499,18.9625049 763.375004,19.7249973 762.525,20.275 C761.574995,20.875003 760.550005,21.0000018 759.45,20.65 C758.349995,20.2999983 757.525003,19.6500048 756.975,18.7 C756.174996,17.25 755.200006,16.025005 754.05,15.025 C752.899994,14.024995 751.550008,13.2375029 750,12.6625 C748.449992,12.0874971 746.625011,11.8 744.525,11.8 C740.824982,11.75 737.725013,12.4374929 735.225,13.8625 C732.724987,15.2875071 731.475,17.4749853 731.475,20.425 C731.475,21.9250075 731.862496,23.3624931 732.6375,24.7375 C733.412504,26.1125069 734.83749,27.299995 736.9125,28.3 C738.98751,29.300005 741.974981,29.999998 745.875,30.4 C751.82503,31.000003 756.462483,32.8124849 759.7875,35.8375 C763.112517,38.8625151 764.775,42.8499752 764.775,47.8 C764.775,50.6500142 764.187506,53.1249895 763.0125,55.225 C761.837494,57.3250105 760.26251,59.0874929 758.2875,60.5125 C756.31249,61.9375071 754.062513,62.9999965 751.5375,63.7 C749.012487,64.4000035 746.400014,64.75 743.7,64.75 Z" id="ALPHAHOMES"></path>
        </g>
        <g id="emblem-light" transform="translate(228.000000, 0.000000)">
            <g id="ah-logo" transform="translate(20.108571, 20.108571)">
                <g id="ah-logo-emblem" fill-rule="nonzero">
                    <g id="logo-core" transform="translate(8.398650, 2.799550)">
                        <g id="H-bottom">
                            <use fill="black" fill-opacity="1" filter="url(#filter-2)" xlink:href="#path-1"></use>
                            <use fill="#14A84E" xlink:href="#path-1"></use>
                        </g>
                        <g id="H-right">
                            <use fill="black" fill-opacity="1" filter="url(#filter-4)" xlink:href="#path-3"></use>
                            <use fill="#81B753" xlink:href="#path-3"></use>
                        </g>
                        <g id="H-left">
                            <use fill="black" fill-opacity="1" filter="url(#filter-6)" xlink:href="#path-5"></use>
                            <use fill="#AF6A3D" xlink:href="#path-5"></use>
                        </g>
                        <g id="A-cross">
                            <use fill="black" fill-opacity="1" filter="url(#filter-8)" xlink:href="#path-7"></use>
                            <use fill="#F64D54" xlink:href="#path-7"></use>
                        </g>
                        <g id="A-right">
                            <use fill="black" fill-opacity="1" filter="url(#filter-10)" xlink:href="#path-9"></use>
                            <use fill="#F0B573" xlink:href="#path-9"></use>
                        </g>
                        <g id="A-left">
                            <use fill="black" fill-opacity="1" filter="url(#filter-12)" xlink:href="#path-11"></use>
                            <use fill="#3DA5D9" xlink:href="#path-11"></use>
                        </g>
                    </g>
                    <g id="ring">
                        <use fill="black" fill-opacity="1" filter="url(#filter-14)" xlink:href="#path-13"></use>
                        <use fill="#FFFFFF" xlink:href="#path-13"></use>
                    </g>
                </g>
            </g>
        </g>
    </g>
</svg>