<?xml version="1.0" encoding="UTF-8"?>
<svg width="974px" height="153px" viewBox="0 0 974 153" version="1.1" xmlns="http://www.w3.org/2000/svg" xmlns:xlink="http://www.w3.org/1999/xlink">
    <!-- Generator: Sketch 55.1 (78136) - https://sketchapp.com -->
    <title>logo-full-dark</title>
    <desc>Created with Sketch.</desc>
    <defs>
        <path d="M103.89738,101.460368 C79.2299294,119.953614 45.3204957,119.953614 20.6530448,101.460368 C19.2035828,100.370184 18.8179461,98.482304 19.7487933,97.3788249 L20.5998536,96.3551153 C21.5439986,95.2383413 23.3392039,95.1851616 24.64239,96.1556914 C46.9428294,112.880712 77.6208935,112.880712 99.9213329,96.1556914 C101.224519,95.1851616 103.019724,95.2383413 103.963869,96.3551153 L104.81493,97.3788249 C105.732479,98.4955989 105.36014,100.370184 103.89738,101.460368" id="path-1"></path>
        <filter x="-2.3%" y="-5.0%" width="104.6%" height="120.1%" filterUnits="objectBoundingBox" id="filter-2">
            <feOffset dx="0" dy="1" in="SourceAlpha" result="shadowOffsetOuter1"></feOffset>
            <feGaussianBlur stdDeviation="0.5" in="shadowOffsetOuter1" result="shadowBlurOuter1"></feGaussianBlur>
            <feColorMatrix values="0 0 0 0 0.0745098039   0 0 0 0 0.0784313725   0 0 0 0 0.0823529412  0 0 0 1 0" type="matrix" in="shadowBlurOuter1"></feColorMatrix>
        </filter>
        <path d="M95.0839702,119.781503 L95.0839702,119.781503 C93.5020643,118.999707 92.6778781,117.52887 93.2494911,116.50856 C102.023087,100.395608 104.947619,80.6386912 100.068968,61.0275328 C99.7632212,59.7687085 100.839981,58.27137 102.51494,57.7015864 L102.51494,57.7015864 C104.189899,57.1318027 105.878151,57.7943418 106.090845,58.7748998 C111.527815,79.8568951 108.603283,101.230408 99.2447814,118.814196 C98.5003552,120.311535 96.6791694,120.550049 95.0839702,119.781503" id="path-3"></path>
        <filter x="-12.7%" y="-1.6%" width="125.4%" height="106.4%" filterUnits="objectBoundingBox" id="filter-4">
            <feOffset dx="0" dy="1" in="SourceAlpha" result="shadowOffsetOuter1"></feOffset>
            <feGaussianBlur stdDeviation="0.5" in="shadowOffsetOuter1" result="shadowBlurOuter1"></feGaussianBlur>
            <feColorMatrix values="0 0 0 0 0.0745098039   0 0 0 0 0.0784313725   0 0 0 0 0.0823529412  0 0 0 1 0" type="matrix" in="shadowBlurOuter1"></feColorMatrix>
        </filter>
        <path d="M30.2603737,119.772849 L30.1673586,119.772849 C31.7486155,118.992158 32.5724636,117.5234 32.0143729,116.4913 C23.2310888,100.387892 20.3077567,80.6192045 25.1844062,61.0225339 C25.4900272,59.7654889 24.4137095,58.2702669 22.7394375,57.7012886 C21.0518776,57.1323103 19.3643177,57.793913 19.1649996,58.7730849 C13.7302595,79.8517454 16.6535916,101.221511 26.0082543,118.80691 C26.7656631,120.302132 28.5861017,120.553541 30.1806465,119.786081" id="path-5"></path>
        <filter x="-12.7%" y="-1.6%" width="125.4%" height="106.4%" filterUnits="objectBoundingBox" id="filter-6">
            <feOffset dx="0" dy="1" in="SourceAlpha" result="shadowOffsetOuter1"></feOffset>
            <feGaussianBlur stdDeviation="0.5" in="shadowOffsetOuter1" result="shadowBlurOuter1"></feGaussianBlur>
            <feColorMatrix values="0 0 0 0 0.0745098039   0 0 0 0 0.0784313725   0 0 0 0 0.0823529412  0 0 0 1 0" type="matrix" in="shadowBlurOuter1"></feColorMatrix>
        </filter>
        <path d="M111.84365,66.0012143 C79.8850564,55.4642332 45.3319895,55.4642332 13.3733962,66.0012143 C11.4175622,66.6466044 9.2754583,65.6851049 8.59690365,63.8147908 C7.91834901,61.9444766 9.02266343,59.8107379 11.0849374,59.1390054 C44.5469949,48.1146888 80.709966,48.1146888 114.172024,59.1390054 C116.234297,59.8239091 117.338612,61.9444766 116.660057,63.8147908 C115.968198,65.6851049 113.826094,66.6466044 111.883565,66.0012143" id="path-7"></path>
        <filter x="-1.8%" y="-6.5%" width="103.7%" height="126.1%" filterUnits="objectBoundingBox" id="filter-8">
            <feOffset dx="0" dy="1" in="SourceAlpha" result="shadowOffsetOuter1"></feOffset>
            <feGaussianBlur stdDeviation="0.5" in="shadowOffsetOuter1" result="shadowBlurOuter1"></feGaussianBlur>
            <feColorMatrix values="0 0 0 0 0.0745098039   0 0 0 0 0.0784313725   0 0 0 0 0.0823529412  0 0 0 1 0" type="matrix" in="shadowBlurOuter1"></feColorMatrix>
        </filter>
        <path d="M62.5,4.6432632 L62.5,1.16669627 L63.0081517,1.16669627 C63.5403009,0.407461464 64.3899437,2.06720636e-06 65.2530652,7.92262771e-12 L65.2530727,0 C65.7921039,-1.29100397e-06 66.3363998,0.158917318 66.8119004,0.49031891 C91.4830678,17.3201791 113.121876,44.8925031 124.69272,80.7537654 C125.304512,82.6635368 124.559722,85.2762101 123.056842,86.4830795 C121.540663,87.6766866 119.851585,87.0666208 119.279693,85.1701117 C108.586637,49.60062 87.7192185,22.1476567 63.7130422,5.30453422 C63.5401446,5.17191121 63.3805467,5.0260259 63.2342487,4.86687829 C63.0159524,4.73385137 62.7644803,4.65596166 62.5000001,4.64326465 Z" id="path-9"></path>
        <filter x="-3.2%" y="-1.1%" width="106.4%" height="104.6%" filterUnits="objectBoundingBox" id="filter-10">
            <feOffset dx="0" dy="1" in="SourceAlpha" result="shadowOffsetOuter1"></feOffset>
            <feGaussianBlur stdDeviation="0.5" in="shadowOffsetOuter1" result="shadowBlurOuter1"></feGaussianBlur>
            <feColorMatrix values="0 0 0 0 0.0745098039   0 0 0 0 0.0784313725   0 0 0 0 0.0823529412  0 0 0 1 0" type="matrix" in="shadowBlurOuter1"></feColorMatrix>
        </filter>
        <path d="M62.5000001,4.64326465 C62.4744354,4.64203735 62.4487492,4.64141917 62.4229596,4.64141917 C62.1968627,4.64141917 61.9840655,4.68120607 61.7845682,4.77404218 C61.6116706,4.9729767 61.4254731,5.15864891 61.2126759,5.30453422 C37.2064996,22.1476567 16.339081,49.60062 5.64602517,85.1701117 C5.07413288,87.0666208 3.38505565,87.7032112 1.86887609,86.4830795 C0.352696538,85.2629478 -0.405393241,82.6635368 0.219698331,80.7537654 C11.8038421,44.8792408 33.4293506,17.3334414 58.1005179,0.49031891 C59.3374012,-0.358468363 61.0397783,-0.0534354364 61.9042666,1.16669627 L62.5,1.16669627 L62.5,4.6432632 Z" id="path-11"></path>
        <filter x="-3.2%" y="-1.1%" width="106.4%" height="104.6%" filterUnits="objectBoundingBox" id="filter-12">
            <feOffset dx="0" dy="1" in="SourceAlpha" result="shadowOffsetOuter1"></feOffset>
            <feGaussianBlur stdDeviation="0.5" in="shadowOffsetOuter1" result="shadowBlurOuter1"></feGaussianBlur>
            <feColorMatrix values="0 0 0 0 0.0745098039   0 0 0 0 0.0784313725   0 0 0 0 0.0823529412  0 0 0 1 0" type="matrix" in="shadowBlurOuter1"></feColorMatrix>
        </filter>
        <path d="M66.6709488,133.328571 C29.8906532,133.328571 0,103.424592 0,66.6576226 C0,29.8906532 29.8906532,0 66.6709488,0 C103.451244,0 133.328571,29.9039794 133.328571,66.6709488 C133.328571,103.437918 103.424592,133.328571 66.6709488,133.328571 M66.6709488,5.98346113 C33.2088756,5.98346113 5.99678732,33.2088756 5.99678732,66.6709488 C5.99678732,100.133022 33.2088756,127.358436 66.684275,127.358436 C100.159674,127.358436 127.358436,100.133022 127.358436,66.6709488 C127.358436,33.2088756 100.133022,5.98346113 66.6709488,5.98346113" id="path-13"></path>
        <filter x="-11.3%" y="-6.8%" width="122.5%" height="122.5%" filterUnits="objectBoundingBox" id="filter-14">
            <feOffset dx="0" dy="6" in="SourceAlpha" result="shadowOffsetOuter1"></feOffset>
            <feGaussianBlur stdDeviation="4" in="shadowOffsetOuter1" result="shadowBlurOuter1"></feGaussianBlur>
            <feColorMatrix values="0 0 0 0 0   0 0 0 0 0   0 0 0 0 0  0 0 0 0.306872815 0" type="matrix" in="shadowBlurOuter1" result="shadowMatrixOuter1"></feColorMatrix>
            <feOffset dx="0" dy="1" in="SourceAlpha" result="shadowOffsetOuter2"></feOffset>
            <feGaussianBlur stdDeviation="1.5" in="shadowOffsetOuter2" result="shadowBlurOuter2"></feGaussianBlur>
            <feColorMatrix values="0 0 0 0 0   0 0 0 0 0   0 0 0 0 0  0 0 0 0.147836538 0" type="matrix" in="shadowBlurOuter2" result="shadowMatrixOuter2"></feColorMatrix>
            <feOffset dx="0" dy="2" in="SourceAlpha" result="shadowOffsetOuter3"></feOffset>
            <feGaussianBlur stdDeviation="0.5" in="shadowOffsetOuter3" result="shadowBlurOuter3"></feGaussianBlur>
            <feColorMatrix values="0 0 0 0 0   0 0 0 0 0   0 0 0 0 0  0 0 0 0.417340472 0" type="matrix" in="shadowBlurOuter3" result="shadowMatrixOuter3"></feColorMatrix>
            <feMerge>
                <feMergeNode in="shadowMatrixOuter1"></feMergeNode>
                <feMergeNode in="shadowMatrixOuter2"></feMergeNode>
                <feMergeNode in="shadowMatrixOuter3"></feMergeNode>
            </feMerge>
        </filter>
    </defs>
    <g id="logo-full-dark" stroke="none" stroke-width="1" fill="none" fill-rule="evenodd">
        <g id="text-dark" transform="translate(177.000000, 43.000000)" fill="#141414" fill-rule="nonzero">
            <path d="M33.3353383,19.9872 L15.1978954,63.6 C14.8420901,64.400004 14.3210972,64.999998 13.6349011,65.4 C12.9487051,65.800002 12.2498122,66 11.5382015,66 C10.1149801,66 9.0221658,65.400006 8.25972577,64.2 C7.49728573,62.999994 7.42104287,61.7250067 8.0309949,60.375 L29.4554528,10.05 C30.2178928,8.29999125 31.4631929,7.425 33.1913903,7.425 C35.0212464,7.425 36.2665464,8.29999125 36.9273278,10.05 L58.4280293,60.525 C58.987152,61.925 58.898202,63.1874944 58.1611767,64.3125 C57.4241513,65.4375056 56.3186298,66 54.8445791,66 C54.082139,66 53.3578319,65.7875021 52.6716358,65.3625 C51.9854398,64.9374979 51.4898612,64.3500037 51.1848852,63.6 L33.3353383,19.9872 Z M15.5791135,53.1 L18.6288584,46.65 L48.5163584,46.65 L51.5661033,53.1 L15.5791135,53.1 Z M87.2735332,66 C86.1552878,66 85.2276663,65.6250038 84.4906409,64.875 C83.7536156,64.1249962 83.3851084,63.2000055 83.3851084,62.1 L83.3851084,11.325 C83.3851084,10.2249945 83.7663227,9.30000375 84.5287628,8.55 C85.2912028,7.79999625 86.2061171,7.425 87.2735332,7.425 C88.3917786,7.425 89.3321072,7.79999625 90.0945472,8.55 C90.8569872,9.30000375 91.2382015,10.2249945 91.2382015,11.325 L91.2382015,58.2 L118.838393,58.2 C119.956638,58.2 120.896967,58.5749962 121.659407,59.325 C122.421847,60.0750038 122.803061,60.9999945 122.803061,62.1 C122.803061,63.2000055 122.421847,64.1249962 121.659407,64.875 C120.896967,65.6250038 119.956638,66 118.838393,66 L87.2735332,66 Z M152.18227,66 C151.064025,66 150.123696,65.6250038 149.361256,64.875 C148.598816,64.1249962 148.217602,63.2000055 148.217602,62.1 L148.217602,11.325 C148.217602,10.1749942 148.598816,9.23750363 149.361256,8.5125 C150.123696,7.78749638 151.064025,7.425 152.18227,7.425 L167.430995,7.425 C171.243195,7.425 174.623295,8.24999175 177.571397,9.9 C180.519498,11.5500083 182.819491,13.8374854 184.471445,16.7625 C186.123398,19.6875146 186.949362,23.049981 186.949362,26.85 C186.949362,30.5000183 186.123398,33.7499858 184.471445,36.6 C182.819491,39.4500143 180.519498,41.674992 177.571397,43.275 C174.623295,44.875008 171.243195,45.675 167.430995,45.675 L156.146939,45.675 L156.146939,62.1 C156.146939,63.2000055 155.778432,64.1249962 155.041406,64.875 C154.304381,65.6250038 153.351345,66 152.18227,66 Z M156.146939,38.475 L167.430995,38.475 C169.769144,38.475 171.827702,37.975005 173.606728,36.975 C175.385755,35.974995 176.783541,34.6000088 177.800128,32.85 C178.816714,31.0999913 179.325,29.1000113 179.325,26.85 C179.325,24.449988 178.816714,22.3375091 177.800128,20.5125 C176.783541,18.6874909 175.385755,17.2500053 173.606728,16.2 C171.827702,15.1499948 169.769144,14.625 167.430995,14.625 L156.146939,14.625 L156.146939,38.475 Z M215.566135,66 C214.44789,66 213.507561,65.6250038 212.745121,64.875 C211.982681,64.1249962 211.601467,63.2000055 211.601467,62.1 L211.601467,11.325 C211.601467,10.1749942 211.982681,9.23750363 212.745121,8.5125 C213.507561,7.78749638 214.44789,7.425 215.566135,7.425 C216.73521,7.425 217.688246,7.78749638 218.425271,8.5125 C219.162296,9.23750363 219.530804,10.1749942 219.530804,11.325 L219.530804,32.85 L254.907844,32.85 L254.907844,11.325 C254.907844,10.1749942 255.289059,9.23750363 256.051499,8.5125 C256.813939,7.78749638 257.754267,7.425 258.872513,7.425 C260.041587,7.425 260.981916,7.78749638 261.693527,8.5125 C262.405137,9.23750363 262.760937,10.1749942 262.760937,11.325 L262.760937,62.1 C262.760937,63.2000055 262.405137,64.1249962 261.693527,64.875 C260.981916,65.6250038 260.041587,66 258.872513,66 C257.754267,66 256.813939,65.6250038 256.051499,64.875 C255.289059,64.1249962 254.907844,63.2000055 254.907844,62.1 L254.907844,39.75 L219.530804,39.75 L219.530804,62.1 C219.530804,63.2000055 219.162296,64.1249962 218.425271,64.875 C217.688246,65.6250038 216.73521,66 215.566135,66 Z M313.327334,19.9872 L295.189892,63.6 C294.834086,64.400004 294.313093,64.999998 293.626897,65.4 C292.940701,65.800002 292.241808,66 291.530198,66 C290.106976,66 289.014162,65.400006 288.251722,64.2 C287.489282,62.999994 287.413039,61.7250067 288.022991,60.375 L309.447449,10.05 C310.209889,8.29999125 311.455189,7.425 313.183386,7.425 C315.013243,7.425 316.258543,8.29999125 316.919324,10.05 L338.420026,60.525 C338.979148,61.925 338.890198,63.1874944 338.153173,64.3125 C337.416147,65.4375056 336.310626,66 334.836575,66 C334.074135,66 333.349828,65.7875021 332.663632,65.3625 C331.977436,64.9374979 331.481857,64.3500037 331.176881,63.6 L313.327334,19.9872 L313.327334,19.9872 Z M295.57111,53.1 L298.620855,46.65 L328.508355,46.65 L331.558099,53.1 L295.57111,53.1 Z M405.565242,66 C404.446997,66 403.506668,65.6250038 402.744228,64.875 C401.981788,64.1249962 401.600574,63.2000055 401.600574,62.1 L401.600574,11.325 C401.600574,10.1749942 401.981788,9.23750363 402.744228,8.5125 C403.506668,7.78749638 404.446997,7.425 405.565242,7.425 C406.734317,7.425 407.687353,7.78749638 408.424378,8.5125 C409.161404,9.23750363 409.529911,10.1749942 409.529911,11.325 L409.529911,32.85 L444.906952,32.85 L444.906952,11.325 C444.906952,10.1749942 445.288166,9.23750363 446.050606,8.5125 C446.813046,7.78749638 447.753375,7.425 448.87162,7.425 C450.040695,7.425 450.981023,7.78749638 451.692634,8.5125 C452.404245,9.23750363 452.760045,10.1749942 452.760045,11.325 L452.760045,62.1 C452.760045,63.2000055 452.404245,64.1249962 451.692634,64.875 C450.981023,65.6250038 450.040695,66 448.87162,66 C447.753375,66 446.813046,65.6250038 446.050606,64.875 C445.288166,64.1249962 444.906952,63.2000055 444.906952,62.1 L444.906952,39.75 L409.529911,39.75 L409.529911,62.1 C409.529911,63.2000055 409.161404,64.1249962 408.424378,64.875 C407.687353,65.6250038 406.734317,66 405.565242,66 Z M511.416805,66.75 C506.943823,66.75 502.852123,66.0125074 499.141582,64.5375 C495.43104,63.0624926 492.241547,60.9875134 489.573007,58.3125 C486.904467,55.6374866 484.833203,52.4625184 483.359152,48.7875 C481.885101,45.1124816 481.148087,41.075022 481.148087,36.675 C481.148087,32.274978 481.885101,28.2500183 483.359152,24.6 C484.833203,20.9499817 486.904467,17.7875134 489.573007,15.1125 C492.241547,12.4374866 495.43104,10.3625074 499.141582,8.8875 C502.852123,7.41249262 506.943823,6.675 511.416805,6.675 C515.889786,6.675 519.968779,7.41249262 523.653906,8.8875 C527.339033,10.3625074 530.528526,12.4374866 533.222481,15.1125 C535.916436,17.7875134 538.000407,20.9499817 539.474458,24.6 C540.948509,28.2500183 541.685523,32.274978 541.685523,36.675 C541.685523,41.075022 540.948509,45.1124816 539.474458,48.7875 C538.000407,52.4625184 535.916436,55.6374866 533.222481,58.3125 C530.528526,60.9875134 527.339033,63.0624926 523.653906,64.5375 C519.968779,66.0125074 515.889786,66.75 511.416805,66.75 Z M511.416805,59.7 C514.720712,59.7 517.757719,59.1125059 520.527918,57.9375 C523.298117,56.7624941 525.699767,55.1375104 527.73294,53.0625 C529.766113,50.9874896 531.329092,48.550014 532.421923,45.75 C533.514754,42.949986 534.061161,39.9250162 534.061161,36.675 C534.061161,33.4249837 533.514754,30.400014 532.421923,27.6 C531.329092,24.799986 529.766113,22.3625104 527.73294,20.2875 C525.699767,18.2124896 523.298117,16.6000058 520.527918,15.45 C517.757719,14.2999942 514.720712,13.725 511.416805,13.725 C508.112898,13.725 505.075891,14.2999942 502.305692,15.45 C499.535493,16.6000058 497.14655,18.2124896 495.138791,20.2875 C493.131033,22.3625104 491.568054,24.799986 490.449809,27.6 C489.331563,30.400014 488.772449,33.4249837 488.772449,36.675 C488.772449,39.9250162 489.331563,42.949986 490.449809,45.75 C491.568054,48.550014 493.131033,50.9874896 495.138791,53.0625 C497.14655,55.1375104 499.535493,56.7624941 502.305692,57.9375 C505.075891,59.1125059 508.112898,59.7 511.416805,59.7 Z M600.097761,54.1150485 L622.147959,9.525 C622.961229,8.124993 624.130286,7.425 625.655166,7.425 C626.773411,7.425 627.71374,7.78749638 628.47618,8.5125 C629.23862,9.23750363 629.619834,10.1749942 629.619834,11.325 L629.619834,62.1 C629.619834,63.2000055 629.225913,64.1249962 628.438058,64.875 C627.650203,65.6250038 626.722582,66 625.655166,66 C624.53692,66 623.596592,65.6250038 622.834152,64.875 C622.071712,64.1249962 621.690497,63.2000055 621.690497,62.1 L621.690497,24.8072519 L603.239541,61.8 C602.375442,63.1000065 601.231799,63.75 599.808578,63.75 C598.13121,63.75 596.911324,62.9750078 596.148884,61.425 L577.926658,25.5057915 L577.926658,62.1 C577.926658,63.2000055 577.545444,64.1249962 576.783004,64.875 C576.020564,65.6250038 575.08023,66 573.96199,66 C572.843744,66 571.903416,65.6250038 571.140976,64.875 C570.378536,64.1249962 569.997321,63.2000055 569.997321,62.1 L569.997321,11.325 C569.997321,10.1749942 570.378536,9.23750363 571.140976,8.5125 C571.903416,7.78749638 572.843744,7.425 573.96199,7.425 C575.48687,7.425 576.655927,8.124993 577.469196,9.525 L600.097761,54.1150485 Z M664.717315,66 C663.59907,66 662.658741,65.6250038 661.896301,64.875 C661.133861,64.1249962 660.752647,63.2000055 660.752647,62.1 L660.752647,11.325 C660.752647,10.1749942 661.133861,9.23750363 661.896301,8.5125 C662.658741,7.78749638 663.59907,7.425 664.717315,7.425 L699.179432,7.425 C700.348507,7.425 701.288836,7.76249663 702.000446,8.4375 C702.712057,9.11250338 703.067857,9.9999945 703.067857,11.1 C703.067857,12.1500053 702.712057,12.9999968 702.000446,13.65 C701.288836,14.3000033 700.348507,14.625 699.179432,14.625 L668.681983,14.625 L668.681983,32.85 L690.563903,32.85 C691.732978,32.85 692.673306,33.1874966 693.384917,33.8625 C694.096528,34.5375034 694.452328,35.3999948 694.452328,36.45 C694.452328,37.5000053 694.096528,38.3624966 693.384917,39.0375 C692.673306,39.7125034 691.732978,40.05 690.563903,40.05 L668.681983,40.05 L668.681983,58.8 L699.179432,58.8 C700.348507,58.8 701.288836,59.1249968 702.000446,59.775 C702.712057,60.425 703.067857,61.2749947 703.067857,62.325 C703.067857,63.425 702.712057,64.3124966 702.000446,64.9875 C701.288836,65.6625034 700.348507,66 699.179432,66 L664.717315,66 Z M748.915689,66.75 C745.662611,66.75 742.562068,66.25 739.613967,65.25 C736.665865,64.25 734.099022,62.850009 731.913361,61.05 C729.7277,59.25 728.126599,57.1750118 727.110013,54.825 C726.601719,53.7749947 726.614427,52.8000045 727.148135,51.9 C727.681843,50.9999955 728.58405,50.4250013 729.854783,50.175 C730.769711,49.974999 731.671918,50.1124976 732.561432,50.5875 C733.450945,51.0625024 734.124424,51.7749952 734.581888,52.725 C735.19184,53.9750062 736.195704,55.1249947 737.593511,56.175 C738.991318,57.2250053 740.681368,58.0749967 742.663712,58.725 C744.646056,59.3750032 746.730027,59.7 748.915689,59.7 C751.355497,59.7 753.604661,59.3250038 755.663249,58.575 C757.721837,57.8249963 759.386473,56.7375071 760.657207,55.3125 C761.92794,53.8874929 762.563297,52.1250105 762.563297,50.025 C762.563297,47.3749867 761.508604,45.0000105 759.399187,42.9 C757.289769,40.7999895 753.820719,39.5000025 748.991932,39 C742.689095,38.399997 737.733309,36.5750152 734.124426,33.525 C730.515543,30.4749848 728.711129,26.7000225 728.711129,22.2 C728.711129,18.8999835 729.651457,16.1000115 731.532143,13.8 C733.412828,11.4999885 735.966964,9.75 739.194627,8.55 C742.42229,7.349994 746.018411,6.75 749.983099,6.75 C753.083689,6.75 755.790311,7.17499575 758.103045,8.025 C760.41578,8.87500425 762.436216,10.0499925 764.164413,11.55 C765.892611,13.0500075 767.392054,14.8249898 768.662787,16.875 C769.374398,17.9750055 769.666662,19.0124951 769.539589,19.9875 C769.412515,20.9625049 768.916937,21.7249973 768.052838,22.275 C767.087081,22.875003 766.045095,23.0000018 764.926849,22.65 C763.808604,22.2999983 762.969933,21.6500048 762.41081,20.7 C761.597541,19.25 760.606383,18.025005 759.437309,17.025 C758.268234,16.024995 756.895862,15.2375029 755.320153,14.6625 C753.744444,14.0874971 751.889201,13.8 749.754369,13.8 C745.992998,13.75 742.841626,14.4374929 740.300159,15.8625 C737.758693,17.2875071 736.487978,19.4749853 736.487978,22.425 C736.487978,23.9250075 736.8819,25.3624931 737.669754,26.7375 C738.457609,28.1125069 739.906224,29.299995 742.015641,30.3 C744.125058,31.300005 747.162066,31.999998 751.126754,32.4 C757.175445,33.000003 761.889795,34.8124849 765.269946,37.8375 C768.650097,40.8625151 770.340147,44.8499752 770.340147,49.8 C770.340147,52.6500142 769.742911,55.1249895 768.548422,57.225 C767.353932,59.3250105 765.752832,61.0874929 763.745073,62.5125 C761.737315,63.9375071 759.450029,64.9999965 756.883147,65.7 C754.316266,66.4000035 751.660473,66.75 748.915689,66.75 Z" id="ALPHAHOMES"></path>
        </g>
        <g id="emblem-dark">
            <g id="ah-logo" transform="translate(10.054286, 10.054286)">
                <g id="ah-logo-emblem" fill-rule="nonzero">
                    <g id="logo-core" transform="translate(4.199325, 1.399775)">
                        <g id="H-bottom">
                            <use fill="black" fill-opacity="1" filter="url(#filter-2)" xlink:href="#path-1"></use>
                            <use fill="#14A84E" xlink:href="#path-1"></use>
                        </g>
                        <g id="H-right">
                            <use fill="black" fill-opacity="1" filter="url(#filter-4)" xlink:href="#path-3"></use>
                            <use fill="#81B753" xlink:href="#path-3"></use>
                        </g>
                        <g id="H-left">
                            <use fill="black" fill-opacity="1" filter="url(#filter-6)" xlink:href="#path-5"></use>
                            <use fill="#AF6A3D" xlink:href="#path-5"></use>
                        </g>
                        <g id="A-cross">
                            <use fill="black" fill-opacity="1" filter="url(#filter-8)" xlink:href="#path-7"></use>
                            <use fill="#F64D54" xlink:href="#path-7"></use>
                        </g>
                        <g id="A-right">
                            <use fill="black" fill-opacity="1" filter="url(#filter-10)" xlink:href="#path-9"></use>
                            <use fill="#F0B573" xlink:href="#path-9"></use>
                        </g>
                        <g id="A-left">
                            <use fill="black" fill-opacity="1" filter="url(#filter-12)" xlink:href="#path-11"></use>
                            <use fill="#3DA5D9" xlink:href="#path-11"></use>
                        </g>
                    </g>
                    <g id="ring">
                        <use fill="black" fill-opacity="1" filter="url(#filter-14)" xlink:href="#path-13"></use>
                        <use fill="#131415" xlink:href="#path-13"></use>
                    </g>
                </g>
            </g>
        </g>
    </g>
</svg>