<?xml version="1.0" encoding="UTF-8"?>
<svg width="974px" height="153px" viewBox="0 0 974 153" version="1.1" xmlns="http://www.w3.org/2000/svg" xmlns:xlink="http://www.w3.org/1999/xlink">
    <!-- Generator: Sketch 55.1 (78136) - https://sketchapp.com -->
    <title>logo-full</title>
    <desc>Created with Sketch.</desc>
    <defs>
        <path d="M103.89738,101.460368 C79.2299294,119.953614 45.3204957,119.953614 20.6530448,101.460368 C19.2035828,100.370184 18.8179461,98.482304 19.7487933,97.3788249 L20.5998536,96.3551153 C21.5439986,95.2383413 23.3392039,95.1851616 24.64239,96.1556914 C46.9428294,112.880712 77.6208935,112.880712 99.9213329,96.1556914 C101.224519,95.1851616 103.019724,95.2383413 103.963869,96.3551153 L104.81493,97.3788249 C105.732479,98.4955989 105.36014,100.370184 103.89738,101.460368" id="path-1"></path>
        <filter x="-2.3%" y="-5.0%" width="104.6%" height="120.1%" filterUnits="objectBoundingBox" id="filter-2">
            <feOffset dx="0" dy="1" in="SourceAlpha" result="shadowOffsetOuter1"></feOffset>
            <feGaussianBlur stdDeviation="0.5" in="shadowOffsetOuter1" result="shadowBlurOuter1"></feGaussianBlur>
            <feColorMatrix values="0 0 0 0 0.0745098039   0 0 0 0 0.0784313725   0 0 0 0 0.0823529412  0 0 0 1 0" type="matrix" in="shadowBlurOuter1"></feColorMatrix>
        </filter>
        <path d="M95.0839702,119.781503 L95.0839702,119.781503 C93.5020643,118.999707 92.6778781,117.52887 93.2494911,116.50856 C102.023087,100.395608 104.947619,80.6386912 100.068968,61.0275328 C99.7632212,59.7687085 100.839981,58.27137 102.51494,57.7015864 L102.51494,57.7015864 C104.189899,57.1318027 105.878151,57.7943418 106.090845,58.7748998 C111.527815,79.8568951 108.603283,101.230408 99.2447814,118.814196 C98.5003552,120.311535 96.6791694,120.550049 95.0839702,119.781503" id="path-3"></path>
        <filter x="-12.7%" y="-1.6%" width="125.4%" height="106.4%" filterUnits="objectBoundingBox" id="filter-4">
            <feOffset dx="0" dy="1" in="SourceAlpha" result="shadowOffsetOuter1"></feOffset>
            <feGaussianBlur stdDeviation="0.5" in="shadowOffsetOuter1" result="shadowBlurOuter1"></feGaussianBlur>
            <feColorMatrix values="0 0 0 0 0.0745098039   0 0 0 0 0.0784313725   0 0 0 0 0.0823529412  0 0 0 1 0" type="matrix" in="shadowBlurOuter1"></feColorMatrix>
        </filter>
        <path d="M30.2603737,119.772849 L30.1673586,119.772849 C31.7486155,118.992158 32.5724636,117.5234 32.0143729,116.4913 C23.2310888,100.387892 20.3077567,80.6192045 25.1844062,61.0225339 C25.4900272,59.7654889 24.4137095,58.2702669 22.7394375,57.7012886 C21.0518776,57.1323103 19.3643177,57.793913 19.1649996,58.7730849 C13.7302595,79.8517454 16.6535916,101.221511 26.0082543,118.80691 C26.7656631,120.302132 28.5861017,120.553541 30.1806465,119.786081" id="path-5"></path>
        <filter x="-12.7%" y="-1.6%" width="125.4%" height="106.4%" filterUnits="objectBoundingBox" id="filter-6">
            <feOffset dx="0" dy="1" in="SourceAlpha" result="shadowOffsetOuter1"></feOffset>
            <feGaussianBlur stdDeviation="0.5" in="shadowOffsetOuter1" result="shadowBlurOuter1"></feGaussianBlur>
            <feColorMatrix values="0 0 0 0 0.0745098039   0 0 0 0 0.0784313725   0 0 0 0 0.0823529412  0 0 0 1 0" type="matrix" in="shadowBlurOuter1"></feColorMatrix>
        </filter>
        <path d="M111.84365,66.0012143 C79.8850564,55.4642332 45.3319895,55.4642332 13.3733962,66.0012143 C11.4175622,66.6466044 9.2754583,65.6851049 8.59690365,63.8147908 C7.91834901,61.9444766 9.02266343,59.8107379 11.0849374,59.1390054 C44.5469949,48.1146888 80.709966,48.1146888 114.172024,59.1390054 C116.234297,59.8239091 117.338612,61.9444766 116.660057,63.8147908 C115.968198,65.6851049 113.826094,66.6466044 111.883565,66.0012143" id="path-7"></path>
        <filter x="-1.8%" y="-6.5%" width="103.7%" height="126.1%" filterUnits="objectBoundingBox" id="filter-8">
            <feOffset dx="0" dy="1" in="SourceAlpha" result="shadowOffsetOuter1"></feOffset>
            <feGaussianBlur stdDeviation="0.5" in="shadowOffsetOuter1" result="shadowBlurOuter1"></feGaussianBlur>
            <feColorMatrix values="0 0 0 0 0.0745098039   0 0 0 0 0.0784313725   0 0 0 0 0.0823529412  0 0 0 1 0" type="matrix" in="shadowBlurOuter1"></feColorMatrix>
        </filter>
        <path d="M62.5,4.6432632 L62.5,1.16669627 L63.0081517,1.16669627 C63.5403009,0.407461464 64.3899437,2.06720636e-06 65.2530652,7.92262771e-12 L65.2530727,0 C65.7921039,-1.29100397e-06 66.3363998,0.158917318 66.8119004,0.49031891 C91.4830678,17.3201791 113.121876,44.8925031 124.69272,80.7537654 C125.304512,82.6635368 124.559722,85.2762101 123.056842,86.4830795 C121.540663,87.6766866 119.851585,87.0666208 119.279693,85.1701117 C108.586637,49.60062 87.7192185,22.1476567 63.7130422,5.30453422 C63.5401446,5.17191121 63.3805467,5.0260259 63.2342487,4.86687829 C63.0159524,4.73385137 62.7644803,4.65596166 62.5000001,4.64326465 Z" id="path-9"></path>
        <filter x="-3.2%" y="-1.1%" width="106.4%" height="104.6%" filterUnits="objectBoundingBox" id="filter-10">
            <feOffset dx="0" dy="1" in="SourceAlpha" result="shadowOffsetOuter1"></feOffset>
            <feGaussianBlur stdDeviation="0.5" in="shadowOffsetOuter1" result="shadowBlurOuter1"></feGaussianBlur>
            <feColorMatrix values="0 0 0 0 0.0745098039   0 0 0 0 0.0784313725   0 0 0 0 0.0823529412  0 0 0 1 0" type="matrix" in="shadowBlurOuter1"></feColorMatrix>
        </filter>
        <path d="M62.5000001,4.64326465 C62.4744354,4.64203735 62.4487492,4.64141917 62.4229596,4.64141917 C62.1968627,4.64141917 61.9840655,4.68120607 61.7845682,4.77404218 C61.6116706,4.9729767 61.4254731,5.15864891 61.2126759,5.30453422 C37.2064996,22.1476567 16.339081,49.60062 5.64602517,85.1701117 C5.07413288,87.0666208 3.38505565,87.7032112 1.86887609,86.4830795 C0.352696538,85.2629478 -0.405393241,82.6635368 0.219698331,80.7537654 C11.8038421,44.8792408 33.4293506,17.3334414 58.1005179,0.49031891 C59.3374012,-0.358468363 61.0397783,-0.0534354364 61.9042666,1.16669627 L62.5,1.16669627 L62.5,4.6432632 Z" id="path-11"></path>
        <filter x="-3.2%" y="-1.1%" width="106.4%" height="104.6%" filterUnits="objectBoundingBox" id="filter-12">
            <feOffset dx="0" dy="1" in="SourceAlpha" result="shadowOffsetOuter1"></feOffset>
            <feGaussianBlur stdDeviation="0.5" in="shadowOffsetOuter1" result="shadowBlurOuter1"></feGaussianBlur>
            <feColorMatrix values="0 0 0 0 0.0745098039   0 0 0 0 0.0784313725   0 0 0 0 0.0823529412  0 0 0 1 0" type="matrix" in="shadowBlurOuter1"></feColorMatrix>
        </filter>
        <path d="M66.6709488,133.328571 C29.8906532,133.328571 0,103.424592 0,66.6576226 C0,29.8906532 29.8906532,0 66.6709488,0 C103.451244,0 133.328571,29.9039794 133.328571,66.6709488 C133.328571,103.437918 103.424592,133.328571 66.6709488,133.328571 M66.6709488,5.98346113 C33.2088756,5.98346113 5.99678732,33.2088756 5.99678732,66.6709488 C5.99678732,100.133022 33.2088756,127.358436 66.684275,127.358436 C100.159674,127.358436 127.358436,100.133022 127.358436,66.6709488 C127.358436,33.2088756 100.133022,5.98346113 66.6709488,5.98346113" id="path-13"></path>
        <filter x="-3.8%" y="-3.0%" width="107.5%" height="107.5%" filterUnits="objectBoundingBox" id="filter-14">
            <feOffset dx="0" dy="1" in="SourceAlpha" result="shadowOffsetOuter1"></feOffset>
            <feGaussianBlur stdDeviation="1.5" in="shadowOffsetOuter1" result="shadowBlurOuter1"></feGaussianBlur>
            <feColorMatrix values="0 0 0 0 0   0 0 0 0 0   0 0 0 0 0  0 0 0 0.147836538 0" type="matrix" in="shadowBlurOuter1" result="shadowMatrixOuter1"></feColorMatrix>
            <feOffset dx="0" dy="1" in="SourceAlpha" result="shadowOffsetOuter2"></feOffset>
            <feGaussianBlur stdDeviation="0.5" in="shadowOffsetOuter2" result="shadowBlurOuter2"></feGaussianBlur>
            <feColorMatrix values="0 0 0 0 0   0 0 0 0 0   0 0 0 0 0  0 0 0 0.417340472 0" type="matrix" in="shadowBlurOuter2" result="shadowMatrixOuter2"></feColorMatrix>
            <feMerge>
                <feMergeNode in="shadowMatrixOuter1"></feMergeNode>
                <feMergeNode in="shadowMatrixOuter2"></feMergeNode>
            </feMerge>
        </filter>
    </defs>
    <g id="logo-full" stroke="none" stroke-width="1" fill="none" fill-rule="evenodd">
        <g id="text-light" transform="translate(177.000000, 43.000000)" fill="#FFFFFF" fill-rule="nonzero">
            <path d="M48.956,65.256 L43.772,53.448 L17.756,53.448 L12.572,65.256 C11.324,68.136 8.828,69.48 6.428,69.48 C3.164,69.48 0.188,66.984 0.188,63.24 C0.188,62.28 0.38,61.224 0.86,60.264 L24.668,6.216 C26.108,2.856 28.316,1.992 30.908,1.992 C33.404,1.992 35.516,2.856 36.956,6.216 L60.764,60.264 C61.148,61.224 61.34,62.28 61.34,63.24 C61.34,66.984 58.46,69.48 55.1,69.48 C52.7,69.48 50.204,68.136 48.956,65.256 Z M30.812,23.592 L22.844,41.832 L38.684,41.832 L30.812,23.592 Z M99.58,8.904 L99.58,56.136 L115.9,56.136 C120.412,56.136 122.908,58.344 122.908,62.568 C122.908,66.792 120.412,69 115.9,69 L92.956,69 C89.212,69 86.62,66.216 86.62,62.568 L86.62,8.808 C86.62,4.2 88.732,1.992 92.956,1.992 C97.372,1.992 99.58,4.392 99.58,8.904 Z M154.62,2.472 L169.404,2.472 C182.076,2.472 190.236,11.976 190.236,23.208 C190.236,34.536 182.076,44.04 169.404,44.04 L159.996,44.04 L159.996,62.568 C159.996,67.08 157.692,69.48 153.468,69.48 C149.34,69.48 147.036,67.08 147.036,62.568 L147.036,10.056 C147.036,4.968 149.532,2.472 154.62,2.472 Z M159.9,15.336 L159.9,32.136 L169.5,32.136 C174.012,32.136 177.372,28.2 177.372,23.592 C177.372,19.08 174.012,15.336 169.5,15.336 L159.9,15.336 Z M227.324,9 L227.324,27.816 L251.324,27.816 L251.324,9 C251.324,4.296 253.628,1.992 258.044,1.992 C262.076,1.992 264.188,4.296 264.188,9 L264.188,62.856 C264.188,67.176 262.172,69.48 257.948,69.48 C253.436,69.48 251.324,67.176 251.324,62.856 L251.324,40.872 L227.324,40.872 L227.324,62.856 C227.324,67.176 225.212,69.48 220.892,69.48 C216.572,69.48 214.364,67.176 214.364,62.856 L214.364,9 C214.364,4.296 216.572,1.992 220.988,1.992 C225.212,1.992 227.324,4.296 227.324,9 Z M338.62,65.256 L333.436,53.448 L307.42,53.448 L302.236,65.256 C300.988,68.136 298.492,69.48 296.092,69.48 C292.828,69.48 289.852,66.984 289.852,63.24 C289.852,62.28 290.044,61.224 290.524,60.264 L314.332,6.216 C315.772,2.856 317.98,1.992 320.572,1.992 C323.068,1.992 325.18,2.856 326.62,6.216 L350.428,60.264 C350.812,61.224 351.004,62.28 351.004,63.24 C351.004,66.984 348.124,69.48 344.764,69.48 C342.364,69.48 339.868,68.136 338.62,65.256 Z M320.476,23.592 L312.508,41.832 L328.348,41.832 L320.476,23.592 Z" id="ALPHA"></path>
            <path d="M438.568,9 L438.568,27.816 L462.568,27.816 L462.568,9 C462.568,4.296 464.872,1.992 469.288,1.992 C473.32,1.992 475.432,4.296 475.432,9 L475.432,62.856 C475.432,67.176 473.416,69.48 469.192,69.48 C464.68,69.48 462.568,67.176 462.568,62.856 L462.568,40.872 L438.568,40.872 L438.568,62.856 C438.568,67.176 436.456,69.48 432.136,69.48 C427.816,69.48 425.608,67.176 425.608,62.856 L425.608,9 C425.608,4.296 427.816,1.992 432.232,1.992 C436.456,1.992 438.568,4.296 438.568,9 Z M565.464,35.688 C565.464,55.08 550.008,70.44 530.616,70.44 C511.416,70.44 495.768,55.176 495.768,36.072 C495.768,17.16 510.648,0.84 530.136,0.84 C550.2,0.84 565.464,16.68 565.464,35.688 Z M530.52,13.704 C518.232,13.704 508.92,24.072 508.92,36.072 C508.92,47.976 518.328,57.768 530.52,57.768 C542.808,57.768 552.312,48.072 552.312,35.688 C552.312,23.688 542.52,13.704 530.52,13.704 Z M620.768,48.36 L638.528,6.984 C639.968,3.624 642.272,1.992 645.728,1.992 C649.472,1.992 652.832,4.296 652.832,9.768 L652.832,62.472 C652.832,67.176 650.816,69.48 646.496,69.48 C642.176,69.48 640.16,67.176 640.16,62.472 L640.16,35.208 L627.2,65.352 C626.048,67.944 623.36,69.48 620.768,69.48 C618.272,69.48 615.296,67.944 614.144,65.352 L601.376,35.208 L601.376,62.472 C601.376,67.176 599.36,69.48 595.04,69.48 C590.72,69.48 588.704,67.176 588.704,62.472 L588.704,9.768 C588.704,4.296 591.968,1.992 595.808,1.992 C599.264,1.992 601.568,3.624 603.008,6.984 L620.768,48.36 Z M682.368,2.472 L711.84,2.472 C715.488,2.472 718.272,5.256 718.272,8.904 C718.272,12.456 715.488,15.336 711.84,15.336 L688.896,15.336 L688.896,27.528 L711.264,27.528 C714.624,27.528 717.12,30.12 717.12,33.48 C717.12,36.648 714.624,39.432 711.264,39.432 L688.896,39.432 L688.896,56.136 L711.648,56.136 C715.2,56.136 718.08,58.824 718.08,62.568 C718.08,66.216 715.2,69 711.648,69 L682.368,69 C678.624,69 676.032,66.216 676.032,62.568 L676.032,8.904 C676.032,5.256 678.624,2.472 682.368,2.472 Z M767.992,19.12 C767.224,16.624 766.072,14.416 762.712,14.416 C759.16,14.416 757.624,16.912 757.624,19.504 C757.624,23.728 761.944,26.128 765.208,27.856 C770.584,30.736 774.136,32.944 776.728,35.248 C780.856,38.992 783.352,44.176 783.352,50.8 C783.352,64.72 772.504,71.152 762.52,71.152 C750.616,71.152 740.92,62.032 740.92,53.488 C740.92,49.072 743.512,46.864 747.352,46.864 C751.288,46.864 752.44,49.168 753.688,52.24 C755.416,56.272 757.72,58.48 762.136,58.48 C767.032,58.48 770.2,55.792 770.2,51.088 C770.2,47.728 768.568,45.52 766.264,43.696 C763.672,41.68 759.832,40.048 756.28,37.84 C749.944,33.904 744.664,28.24 744.664,19.408 C744.664,7.696 753.976,2.032 762.616,2.032 C771.544,2.032 780.472,8.08 780.472,17.104 C780.472,21.136 778.648,24.112 774.136,24.112 C769.72,24.112 768.664,21.328 767.992,19.12 Z" id="HOMES"></path>
        </g>
        <g id="emblem-light">
            <g id="ah-logo" transform="translate(10.054286, 10.054286)">
                <g id="ah-logo-emblem" fill-rule="nonzero">
                    <g id="logo-core" transform="translate(4.199325, 1.399775)">
                        <g id="H-bottom">
                            <use fill="black" fill-opacity="1" filter="url(#filter-2)" xlink:href="#path-1"></use>
                            <use fill="#14A84E" xlink:href="#path-1"></use>
                        </g>
                        <g id="H-right">
                            <use fill="black" fill-opacity="1" filter="url(#filter-4)" xlink:href="#path-3"></use>
                            <use fill="#81B753" xlink:href="#path-3"></use>
                        </g>
                        <g id="H-left">
                            <use fill="black" fill-opacity="1" filter="url(#filter-6)" xlink:href="#path-5"></use>
                            <use fill="#AF6A3D" xlink:href="#path-5"></use>
                        </g>
                        <g id="A-cross">
                            <use fill="black" fill-opacity="1" filter="url(#filter-8)" xlink:href="#path-7"></use>
                            <use fill="#F64D54" xlink:href="#path-7"></use>
                        </g>
                        <g id="A-right">
                            <use fill="black" fill-opacity="1" filter="url(#filter-10)" xlink:href="#path-9"></use>
                            <use fill="#F0B573" xlink:href="#path-9"></use>
                        </g>
                        <g id="A-left">
                            <use fill="black" fill-opacity="1" filter="url(#filter-12)" xlink:href="#path-11"></use>
                            <use fill="#3DA5D9" xlink:href="#path-11"></use>
                        </g>
                    </g>
                    <g id="ring">
                        <use fill="black" fill-opacity="1" filter="url(#filter-14)" xlink:href="#path-13"></use>
                        <use fill="#FFFFFF" xlink:href="#path-13"></use>
                    </g>
                </g>
            </g>
        </g>
    </g>
</svg>