<?xml version="1.0" encoding="UTF-8"?>
<svg width="797px" height="446px" viewBox="0 0 797 446" version="1.1" xmlns="http://www.w3.org/2000/svg" xmlns:xlink="http://www.w3.org/1999/xlink">
    <!-- Generator: Sketch 55.1 (78136) - https://sketchapp.com -->
    <title>logo-halfstack</title>
    <desc>Created with Sketch.</desc>
    <defs>
        <path d="M207.79476,203.653302 C158.459859,240.77332 90.6409913,240.77332 41.3060897,203.653302 C38.4071656,201.465062 37.6358922,197.675671 39.4975866,195.460746 L41.1997072,193.405935 C43.0879972,191.164324 46.6784078,191.057581 49.28478,193.005648 C93.8856587,226.576447 155.241787,226.576447 199.842666,193.005648 C202.449038,191.057581 206.039449,191.164324 207.927739,193.405935 L209.629859,195.460746 C211.464958,197.702357 210.72028,201.465062 207.79476,203.653302" id="path-1"></path>
        <filter x="-2.3%" y="-5.0%" width="104.6%" height="120.1%" filterUnits="objectBoundingBox" id="filter-2">
            <feOffset dx="0" dy="2" in="SourceAlpha" result="shadowOffsetOuter1"></feOffset>
            <feGaussianBlur stdDeviation="1" in="shadowOffsetOuter1" result="shadowBlurOuter1"></feGaussianBlur>
            <feColorMatrix values="0 0 0 0 0.0745098039   0 0 0 0 0.0784313725   0 0 0 0 0.0823529412  0 0 0 1 0" type="matrix" in="shadowBlurOuter1"></feColorMatrix>
        </filter>
        <path d="M190.16794,240.427855 L190.16794,240.427855 C187.004129,238.858618 185.355756,235.906325 186.498982,233.858337 C204.046173,201.516095 209.895237,161.859611 200.137935,122.495698 C199.526442,119.96896 201.679961,116.963472 205.02988,115.819791 L205.02988,115.819791 C208.379798,114.676109 211.756303,116.005971 212.181689,117.974167 C223.055631,160.290374 217.206567,203.191721 198.489563,238.486257 C197.00071,241.491745 193.358339,241.970495 190.16794,240.427855" id="path-3"></path>
        <filter x="-12.7%" y="-1.6%" width="125.4%" height="106.4%" filterUnits="objectBoundingBox" id="filter-4">
            <feOffset dx="0" dy="2" in="SourceAlpha" result="shadowOffsetOuter1"></feOffset>
            <feGaussianBlur stdDeviation="1" in="shadowOffsetOuter1" result="shadowBlurOuter1"></feGaussianBlur>
            <feColorMatrix values="0 0 0 0 0.0745098039   0 0 0 0 0.0784313725   0 0 0 0 0.0823529412  0 0 0 1 0" type="matrix" in="shadowBlurOuter1"></feColorMatrix>
        </filter>
        <path d="M60.5207474,240.410485 L60.3347172,240.410485 C63.497231,238.843466 65.1449272,235.895345 64.0287459,233.823693 C46.4621776,201.500606 40.6155134,161.820497 50.3688123,122.485664 C50.9800545,119.962498 48.827419,116.961258 45.478875,115.819193 C42.1037552,114.677128 38.7286355,116.005111 38.3299993,117.970524 C27.4605191,160.280038 33.3071832,203.173863 52.0165086,238.471631 C53.5313261,241.472871 57.1722034,241.977504 60.3612929,240.437044" id="path-5"></path>
        <filter x="-12.7%" y="-1.6%" width="125.4%" height="106.4%" filterUnits="objectBoundingBox" id="filter-6">
            <feOffset dx="0" dy="2" in="SourceAlpha" result="shadowOffsetOuter1"></feOffset>
            <feGaussianBlur stdDeviation="1" in="shadowOffsetOuter1" result="shadowBlurOuter1"></feGaussianBlur>
            <feColorMatrix values="0 0 0 0 0.0745098039   0 0 0 0 0.0784313725   0 0 0 0 0.0823529412  0 0 0 1 0" type="matrix" in="shadowBlurOuter1"></feColorMatrix>
        </filter>
        <path d="M223.687299,132.478972 C159.770113,111.32893 90.6639789,111.32893 26.7467923,132.478972 C22.8351244,133.774412 18.5509166,131.844471 17.1938073,128.090338 C15.836698,124.336206 18.0453269,120.053322 22.1698747,118.705007 C89.0939898,96.5767761 161.419932,96.5767761 228.344047,118.705007 C232.468595,120.07976 234.677224,124.336206 233.320114,128.090338 C231.936395,131.844471 227.652187,133.774412 223.767129,132.478972" id="path-7"></path>
        <filter x="-1.8%" y="-6.5%" width="103.7%" height="126.0%" filterUnits="objectBoundingBox" id="filter-8">
            <feOffset dx="0" dy="2" in="SourceAlpha" result="shadowOffsetOuter1"></feOffset>
            <feGaussianBlur stdDeviation="1" in="shadowOffsetOuter1" result="shadowBlurOuter1"></feGaussianBlur>
            <feColorMatrix values="0 0 0 0 0.0745098039   0 0 0 0 0.0784313725   0 0 0 0 0.0823529412  0 0 0 1 0" type="matrix" in="shadowBlurOuter1"></feColorMatrix>
        </filter>
        <path d="M125,9.32005177 L125,2.34181634 L126.016303,2.34181634 C127.080602,0.817864888 128.779887,4.14943981e-06 130.50613,1.58459863e-11 L130.506145,0 C131.584208,-2.59139269e-06 132.6728,0.318982053 133.623801,0.984178029 C182.966136,34.7654136 226.243752,90.1091398 249.38544,162.09059 C250.609024,165.923922 249.119444,171.168133 246.113684,173.590586 C243.081325,175.986418 239.703171,174.761881 238.559386,170.95517 C217.173274,99.5593673 175.438437,44.4552242 127.426084,10.6473683 C127.080289,10.3811647 126.761093,10.0883408 126.468497,9.76889649 C126.031905,9.50188217 125.528961,9.34554038 125,9.32005467 Z" id="path-9"></path>
        <filter x="-3.2%" y="-1.1%" width="106.4%" height="104.6%" filterUnits="objectBoundingBox" id="filter-10">
            <feOffset dx="0" dy="2" in="SourceAlpha" result="shadowOffsetOuter1"></feOffset>
            <feGaussianBlur stdDeviation="1" in="shadowOffsetOuter1" result="shadowBlurOuter1"></feGaussianBlur>
            <feColorMatrix values="0 0 0 0 0.0745098039   0 0 0 0 0.0784313725   0 0 0 0 0.0823529412  0 0 0 1 0" type="matrix" in="shadowBlurOuter1"></feColorMatrix>
        </filter>
        <path d="M125,9.32005467 C124.948871,9.31759122 124.897498,9.31635039 124.845919,9.31635039 C124.393725,9.31635039 123.968131,9.39621146 123.569136,9.58255398 C123.223341,9.98185936 122.850946,10.3545444 122.425352,10.6473683 C74.4129992,44.4552242 32.678162,99.5593673 11.2920503,170.95517 C10.1482658,174.761881 6.7701113,176.039659 3.73775219,173.590586 C0.705393075,171.141513 -0.810786481,165.923922 0.439396662,162.09059 C23.6076843,90.0825195 66.8587011,34.7920339 116.201036,0.984178029 C118.674802,-0.719524944 122.079557,-0.107256688 123.808533,2.34181634 L125,2.34181634 L125,9.32005177 Z" id="path-11"></path>
        <filter x="-3.2%" y="-1.1%" width="106.4%" height="104.6%" filterUnits="objectBoundingBox" id="filter-12">
            <feOffset dx="0" dy="2" in="SourceAlpha" result="shadowOffsetOuter1"></feOffset>
            <feGaussianBlur stdDeviation="1" in="shadowOffsetOuter1" result="shadowBlurOuter1"></feGaussianBlur>
            <feColorMatrix values="0 0 0 0 0.0745098039   0 0 0 0 0.0784313725   0 0 0 0 0.0823529412  0 0 0 1 0" type="matrix" in="shadowBlurOuter1"></feColorMatrix>
        </filter>
        <path d="M133.341898,266.657143 C59.7813065,266.657143 0,206.849184 0,133.315245 C0,59.7813065 59.7813065,0 133.341898,0 C206.902489,0 266.657143,59.8079589 266.657143,133.341898 C266.657143,206.875836 206.849184,266.657143 133.341898,266.657143 M133.341898,11.9669223 C66.4177511,11.9669223 11.9935746,66.4177511 11.9935746,133.341898 C11.9935746,200.266044 66.4177511,254.716873 133.36855,254.716873 C200.319349,254.716873 254.716873,200.266044 254.716873,133.341898 C254.716873,66.4177511 200.266044,11.9669223 133.341898,11.9669223" id="path-13"></path>
        <filter x="-3.8%" y="-3.0%" width="107.5%" height="107.5%" filterUnits="objectBoundingBox" id="filter-14">
            <feOffset dx="0" dy="2" in="SourceAlpha" result="shadowOffsetOuter1"></feOffset>
            <feGaussianBlur stdDeviation="3" in="shadowOffsetOuter1" result="shadowBlurOuter1"></feGaussianBlur>
            <feColorMatrix values="0 0 0 0 0   0 0 0 0 0   0 0 0 0 0  0 0 0 0.147836538 0" type="matrix" in="shadowBlurOuter1" result="shadowMatrixOuter1"></feColorMatrix>
            <feOffset dx="0" dy="2" in="SourceAlpha" result="shadowOffsetOuter2"></feOffset>
            <feGaussianBlur stdDeviation="1" in="shadowOffsetOuter2" result="shadowBlurOuter2"></feGaussianBlur>
            <feColorMatrix values="0 0 0 0 0   0 0 0 0 0   0 0 0 0 0  0 0 0 0.417340472 0" type="matrix" in="shadowBlurOuter2" result="shadowMatrixOuter2"></feColorMatrix>
            <feMerge>
                <feMergeNode in="shadowMatrixOuter1"></feMergeNode>
                <feMergeNode in="shadowMatrixOuter2"></feMergeNode>
            </feMerge>
        </filter>
    </defs>
    <g id="logo-halfstack" stroke="none" stroke-width="1" fill="none" fill-rule="evenodd">
        <g id="text-light" transform="translate(0.000000, 375.000000)" fill="#FFFFFF" fill-rule="nonzero">
            <path d="M48.956,65.256 L43.772,53.448 L17.756,53.448 L12.572,65.256 C11.324,68.136 8.828,69.48 6.428,69.48 C3.164,69.48 0.188,66.984 0.188,63.24 C0.188,62.28 0.38,61.224 0.86,60.264 L24.668,6.216 C26.108,2.856 28.316,1.992 30.908,1.992 C33.404,1.992 35.516,2.856 36.956,6.216 L60.764,60.264 C61.148,61.224 61.34,62.28 61.34,63.24 C61.34,66.984 58.46,69.48 55.1,69.48 C52.7,69.48 50.204,68.136 48.956,65.256 Z M30.812,23.592 L22.844,41.832 L38.684,41.832 L30.812,23.592 Z M99.58,8.904 L99.58,56.136 L115.9,56.136 C120.412,56.136 122.908,58.344 122.908,62.568 C122.908,66.792 120.412,69 115.9,69 L92.956,69 C89.212,69 86.62,66.216 86.62,62.568 L86.62,8.808 C86.62,4.2 88.732,1.992 92.956,1.992 C97.372,1.992 99.58,4.392 99.58,8.904 Z M154.62,2.472 L169.404,2.472 C182.076,2.472 190.236,11.976 190.236,23.208 C190.236,34.536 182.076,44.04 169.404,44.04 L159.996,44.04 L159.996,62.568 C159.996,67.08 157.692,69.48 153.468,69.48 C149.34,69.48 147.036,67.08 147.036,62.568 L147.036,10.056 C147.036,4.968 149.532,2.472 154.62,2.472 Z M159.9,15.336 L159.9,32.136 L169.5,32.136 C174.012,32.136 177.372,28.2 177.372,23.592 C177.372,19.08 174.012,15.336 169.5,15.336 L159.9,15.336 Z M227.324,9 L227.324,27.816 L251.324,27.816 L251.324,9 C251.324,4.296 253.628,1.992 258.044,1.992 C262.076,1.992 264.188,4.296 264.188,9 L264.188,62.856 C264.188,67.176 262.172,69.48 257.948,69.48 C253.436,69.48 251.324,67.176 251.324,62.856 L251.324,40.872 L227.324,40.872 L227.324,62.856 C227.324,67.176 225.212,69.48 220.892,69.48 C216.572,69.48 214.364,67.176 214.364,62.856 L214.364,9 C214.364,4.296 216.572,1.992 220.988,1.992 C225.212,1.992 227.324,4.296 227.324,9 Z M338.62,65.256 L333.436,53.448 L307.42,53.448 L302.236,65.256 C300.988,68.136 298.492,69.48 296.092,69.48 C292.828,69.48 289.852,66.984 289.852,63.24 C289.852,62.28 290.044,61.224 290.524,60.264 L314.332,6.216 C315.772,2.856 317.98,1.992 320.572,1.992 C323.068,1.992 325.18,2.856 326.62,6.216 L350.428,60.264 C350.812,61.224 351.004,62.28 351.004,63.24 C351.004,66.984 348.124,69.48 344.764,69.48 C342.364,69.48 339.868,68.136 338.62,65.256 Z M320.476,23.592 L312.508,41.832 L328.348,41.832 L320.476,23.592 Z" id="ALPHA"></path>
            <path d="M438.568,9 L438.568,27.816 L462.568,27.816 L462.568,9 C462.568,4.296 464.872,1.992 469.288,1.992 C473.32,1.992 475.432,4.296 475.432,9 L475.432,62.856 C475.432,67.176 473.416,69.48 469.192,69.48 C464.68,69.48 462.568,67.176 462.568,62.856 L462.568,40.872 L438.568,40.872 L438.568,62.856 C438.568,67.176 436.456,69.48 432.136,69.48 C427.816,69.48 425.608,67.176 425.608,62.856 L425.608,9 C425.608,4.296 427.816,1.992 432.232,1.992 C436.456,1.992 438.568,4.296 438.568,9 Z M565.464,35.688 C565.464,55.08 550.008,70.44 530.616,70.44 C511.416,70.44 495.768,55.176 495.768,36.072 C495.768,17.16 510.648,0.84 530.136,0.84 C550.2,0.84 565.464,16.68 565.464,35.688 Z M530.52,13.704 C518.232,13.704 508.92,24.072 508.92,36.072 C508.92,47.976 518.328,57.768 530.52,57.768 C542.808,57.768 552.312,48.072 552.312,35.688 C552.312,23.688 542.52,13.704 530.52,13.704 Z M620.768,48.36 L638.528,6.984 C639.968,3.624 642.272,1.992 645.728,1.992 C649.472,1.992 652.832,4.296 652.832,9.768 L652.832,62.472 C652.832,67.176 650.816,69.48 646.496,69.48 C642.176,69.48 640.16,67.176 640.16,62.472 L640.16,35.208 L627.2,65.352 C626.048,67.944 623.36,69.48 620.768,69.48 C618.272,69.48 615.296,67.944 614.144,65.352 L601.376,35.208 L601.376,62.472 C601.376,67.176 599.36,69.48 595.04,69.48 C590.72,69.48 588.704,67.176 588.704,62.472 L588.704,9.768 C588.704,4.296 591.968,1.992 595.808,1.992 C599.264,1.992 601.568,3.624 603.008,6.984 L620.768,48.36 Z M682.368,2.472 L711.84,2.472 C715.488,2.472 718.272,5.256 718.272,8.904 C718.272,12.456 715.488,15.336 711.84,15.336 L688.896,15.336 L688.896,27.528 L711.264,27.528 C714.624,27.528 717.12,30.12 717.12,33.48 C717.12,36.648 714.624,39.432 711.264,39.432 L688.896,39.432 L688.896,56.136 L711.648,56.136 C715.2,56.136 718.08,58.824 718.08,62.568 C718.08,66.216 715.2,69 711.648,69 L682.368,69 C678.624,69 676.032,66.216 676.032,62.568 L676.032,8.904 C676.032,5.256 678.624,2.472 682.368,2.472 Z M767.992,19.12 C767.224,16.624 766.072,14.416 762.712,14.416 C759.16,14.416 757.624,16.912 757.624,19.504 C757.624,23.728 761.944,26.128 765.208,27.856 C770.584,30.736 774.136,32.944 776.728,35.248 C780.856,38.992 783.352,44.176 783.352,50.8 C783.352,64.72 772.504,71.152 762.52,71.152 C750.616,71.152 740.92,62.032 740.92,53.488 C740.92,49.072 743.512,46.864 747.352,46.864 C751.288,46.864 752.44,49.168 753.688,52.24 C755.416,56.272 757.72,58.48 762.136,58.48 C767.032,58.48 770.2,55.792 770.2,51.088 C770.2,47.728 768.568,45.52 766.264,43.696 C763.672,41.68 759.832,40.048 756.28,37.84 C749.944,33.904 744.664,28.24 744.664,19.408 C744.664,7.696 753.976,2.032 762.616,2.032 C771.544,2.032 780.472,8.08 780.472,17.104 C780.472,21.136 778.648,24.112 774.136,24.112 C769.72,24.112 768.664,21.328 767.992,19.12 Z" id="HOMES"></path>
        </g>
        <g id="emblem-light" transform="translate(240.000000, 0.000000)">
            <g id="ah-logo" transform="translate(20.108571, 20.108571)">
                <g id="ah-logo-emblem" fill-rule="nonzero">
                    <g id="logo-core" transform="translate(8.398650, 2.799550)">
                        <g id="H-bottom">
                            <use fill="black" fill-opacity="1" filter="url(#filter-2)" xlink:href="#path-1"></use>
                            <use fill="#14A84E" xlink:href="#path-1"></use>
                        </g>
                        <g id="H-right">
                            <use fill="black" fill-opacity="1" filter="url(#filter-4)" xlink:href="#path-3"></use>
                            <use fill="#81B753" xlink:href="#path-3"></use>
                        </g>
                        <g id="H-left">
                            <use fill="black" fill-opacity="1" filter="url(#filter-6)" xlink:href="#path-5"></use>
                            <use fill="#AF6A3D" xlink:href="#path-5"></use>
                        </g>
                        <g id="A-cross">
                            <use fill="black" fill-opacity="1" filter="url(#filter-8)" xlink:href="#path-7"></use>
                            <use fill="#F64D54" xlink:href="#path-7"></use>
                        </g>
                        <g id="A-right">
                            <use fill="black" fill-opacity="1" filter="url(#filter-10)" xlink:href="#path-9"></use>
                            <use fill="#F0B573" xlink:href="#path-9"></use>
                        </g>
                        <g id="A-left">
                            <use fill="black" fill-opacity="1" filter="url(#filter-12)" xlink:href="#path-11"></use>
                            <use fill="#3DA5D9" xlink:href="#path-11"></use>
                        </g>
                    </g>
                    <g id="ring">
                        <use fill="black" fill-opacity="1" filter="url(#filter-14)" xlink:href="#path-13"></use>
                        <use fill="#FFFFFF" xlink:href="#path-13"></use>
                    </g>
                </g>
            </g>
        </g>
    </g>
</svg>