<?xml version="1.0" encoding="UTF-8"?>
<svg width="784px" height="71px" viewBox="0 0 784 71" version="1.1" xmlns="http://www.w3.org/2000/svg" xmlns:xlink="http://www.w3.org/1999/xlink">
    <!-- Generator: Sketch 55.1 (78136) - https://sketchapp.com -->
    <title>text-dark</title>
    <desc>Created with Sketch.</desc>
    <g id="text-dark" stroke="none" stroke-width="1" fill="none" fill-rule="evenodd">
        <path d="M48.956,64.416 L43.772,52.608 L17.756,52.608 L12.572,64.416 C11.324,67.296 8.828,68.64 6.428,68.64 C3.164,68.64 0.188,66.144 0.188,62.4 C0.188,61.44 0.38,60.384 0.86,59.424 L24.668,5.376 C26.108,2.016 28.316,1.152 30.908,1.152 C33.404,1.152 35.516,2.016 36.956,5.376 L60.764,59.424 C61.148,60.384 61.34,61.44 61.34,62.4 C61.34,66.144 58.46,68.64 55.1,68.64 C52.7,68.64 50.204,67.296 48.956,64.416 Z M30.812,22.752 L22.844,40.992 L38.684,40.992 L30.812,22.752 Z M99.58,8.064 L99.58,55.296 L115.9,55.296 C120.412,55.296 122.908,57.504 122.908,61.728 C122.908,65.952 120.412,68.16 115.9,68.16 L92.956,68.16 C89.212,68.16 86.62,65.376 86.62,61.728 L86.62,7.968 C86.62,3.36 88.732,1.152 92.956,1.152 C97.372,1.152 99.58,3.552 99.58,8.064 Z M154.62,1.632 L169.404,1.632 C182.076,1.632 190.236,11.136 190.236,22.368 C190.236,33.696 182.076,43.2 169.404,43.2 L159.996,43.2 L159.996,61.728 C159.996,66.24 157.692,68.64 153.468,68.64 C149.34,68.64 147.036,66.24 147.036,61.728 L147.036,9.216 C147.036,4.128 149.532,1.632 154.62,1.632 Z M159.9,14.496 L159.9,31.296 L169.5,31.296 C174.012,31.296 177.372,27.36 177.372,22.752 C177.372,18.24 174.012,14.496 169.5,14.496 L159.9,14.496 Z M227.324,8.16 L227.324,26.976 L251.324,26.976 L251.324,8.16 C251.324,3.456 253.628,1.152 258.044,1.152 C262.076,1.152 264.188,3.456 264.188,8.16 L264.188,62.016 C264.188,66.336 262.172,68.64 257.948,68.64 C253.436,68.64 251.324,66.336 251.324,62.016 L251.324,40.032 L227.324,40.032 L227.324,62.016 C227.324,66.336 225.212,68.64 220.892,68.64 C216.572,68.64 214.364,66.336 214.364,62.016 L214.364,8.16 C214.364,3.456 216.572,1.152 220.988,1.152 C225.212,1.152 227.324,3.456 227.324,8.16 Z M338.62,64.416 L333.436,52.608 L307.42,52.608 L302.236,64.416 C300.988,67.296 298.492,68.64 296.092,68.64 C292.828,68.64 289.852,66.144 289.852,62.4 C289.852,61.44 290.044,60.384 290.524,59.424 L314.332,5.376 C315.772,2.016 317.98,1.152 320.572,1.152 C323.068,1.152 325.18,2.016 326.62,5.376 L350.428,59.424 C350.812,60.384 351.004,61.44 351.004,62.4 C351.004,66.144 348.124,68.64 344.764,68.64 C342.364,68.64 339.868,67.296 338.62,64.416 Z M320.476,22.752 L312.508,40.992 L328.348,40.992 L320.476,22.752 Z" id="ALPHA" fill="#1A1A1A" fill-rule="nonzero"></path>
        <path d="M438.568,8.16 L438.568,26.976 L462.568,26.976 L462.568,8.16 C462.568,3.456 464.872,1.152 469.288,1.152 C473.32,1.152 475.432,3.456 475.432,8.16 L475.432,62.016 C475.432,66.336 473.416,68.64 469.192,68.64 C464.68,68.64 462.568,66.336 462.568,62.016 L462.568,40.032 L438.568,40.032 L438.568,62.016 C438.568,66.336 436.456,68.64 432.136,68.64 C427.816,68.64 425.608,66.336 425.608,62.016 L425.608,8.16 C425.608,3.456 427.816,1.152 432.232,1.152 C436.456,1.152 438.568,3.456 438.568,8.16 Z M565.464,34.848 C565.464,54.24 550.008,69.6 530.616,69.6 C511.416,69.6 495.768,54.336 495.768,35.232 C495.768,16.32 510.648,0 530.136,0 C550.2,0 565.464,15.84 565.464,34.848 Z M530.52,12.864 C518.232,12.864 508.92,23.232 508.92,35.232 C508.92,47.136 518.328,56.928 530.52,56.928 C542.808,56.928 552.312,47.232 552.312,34.848 C552.312,22.848 542.52,12.864 530.52,12.864 Z M620.768,47.52 L638.528,6.144 C639.968,2.784 642.272,1.152 645.728,1.152 C649.472,1.152 652.832,3.456 652.832,8.928 L652.832,61.632 C652.832,66.336 650.816,68.64 646.496,68.64 C642.176,68.64 640.16,66.336 640.16,61.632 L640.16,34.368 L627.2,64.512 C626.048,67.104 623.36,68.64 620.768,68.64 C618.272,68.64 615.296,67.104 614.144,64.512 L601.376,34.368 L601.376,61.632 C601.376,66.336 599.36,68.64 595.04,68.64 C590.72,68.64 588.704,66.336 588.704,61.632 L588.704,8.928 C588.704,3.456 591.968,1.152 595.808,1.152 C599.264,1.152 601.568,2.784 603.008,6.144 L620.768,47.52 Z M682.368,1.632 L711.84,1.632 C715.488,1.632 718.272,4.416 718.272,8.064 C718.272,11.616 715.488,14.496 711.84,14.496 L688.896,14.496 L688.896,26.688 L711.264,26.688 C714.624,26.688 717.12,29.28 717.12,32.64 C717.12,35.808 714.624,38.592 711.264,38.592 L688.896,38.592 L688.896,55.296 L711.648,55.296 C715.2,55.296 718.08,57.984 718.08,61.728 C718.08,65.376 715.2,68.16 711.648,68.16 L682.368,68.16 C678.624,68.16 676.032,65.376 676.032,61.728 L676.032,8.064 C676.032,4.416 678.624,1.632 682.368,1.632 Z M767.992,18.28 C767.224,15.784 766.072,13.576 762.712,13.576 C759.16,13.576 757.624,16.072 757.624,18.664 C757.624,22.888 761.944,25.288 765.208,27.016 C770.584,29.896 774.136,32.104 776.728,34.408 C780.856,38.152 783.352,43.336 783.352,49.96 C783.352,63.88 772.504,70.312 762.52,70.312 C750.616,70.312 740.92,61.192 740.92,52.648 C740.92,48.232 743.512,46.024 747.352,46.024 C751.288,46.024 752.44,48.328 753.688,51.4 C755.416,55.432 757.72,57.64 762.136,57.64 C767.032,57.64 770.2,54.952 770.2,50.248 C770.2,46.888 768.568,44.68 766.264,42.856 C763.672,40.84 759.832,39.208 756.28,37 C749.944,33.064 744.664,27.4 744.664,18.568 C744.664,6.856 753.976,1.192 762.616,1.192 C771.544,1.192 780.472,7.24 780.472,16.264 C780.472,20.296 778.648,23.272 774.136,23.272 C769.72,23.272 768.664,20.488 767.992,18.28 Z" id="HOMES" fill="#1A1A1A" fill-rule="nonzero"></path>
    </g>
</svg>