<?xml version="1.0" encoding="UTF-8"?>
<svg width="1024px" height="1024px" viewBox="0 0 1024 1024" version="1.1" xmlns="http://www.w3.org/2000/svg" xmlns:xlink="http://www.w3.org/1999/xlink">
    <!-- Generator: Sketch 55.1 (78136) - https://sketchapp.com -->
    <title>favicon</title>
    <desc>Created with Sketch.</desc>
    <defs>
        <filter x="-2.2%" y="-2.2%" width="104.4%" height="104.4%" filterUnits="objectBoundingBox" id="filter-1">
            <feOffset dx="0" dy="5" in="SourceAlpha" result="shadowOffsetOuter1"></feOffset>
            <feGaussianBlur stdDeviation="3" in="shadowOffsetOuter1" result="shadowBlurOuter1"></feGaussianBlur>
            <feColorMatrix values="0 0 0 0 0   0 0 0 0 0   0 0 0 0 0  0 0 0 0.928048514 0" type="matrix" in="shadowBlurOuter1" result="shadowMatrixOuter1"></feColorMatrix>
            <feMerge>
                <feMergeNode in="shadowMatrixOuter1"></feMergeNode>
                <feMergeNode in="SourceGraphic"></feMergeNode>
            </feMerge>
        </filter>
    </defs>
    <g id="favicon" stroke="none" stroke-width="1" fill="none" fill-rule="evenodd">
        <g id="emblem" filter="url(#filter-1)" transform="translate(26.000000, 26.000000)" fill="#FFFFFF" fill-rule="nonzero">
            <path d="M487.048676,974 C218.35902,974 0,755.543628 0,486.951324 C0,218.35902 218.35902,0 487.048676,0 C755.738331,0 974,218.456372 974,487.048676 C974,755.64098 755.543628,974 487.048676,974 M487.048676,43.7107446 C242.5995,43.7107446 43.808096,242.5995 43.808096,487.048676 C43.808096,731.497851 242.5995,930.386607 487.146027,930.386607 C731.692554,930.386607 930.386607,731.497851 930.386607,487.048676 C930.386607,242.5995 731.497851,43.7107446 487.048676,43.7107446" id="Shape"></path>
            <path d="M258.913569,890.806034 L258.234177,890.806034 C269.78383,885.080064 275.801296,874.307474 271.724948,866.737547 C207.570996,748.627267 186.218697,603.634038 221.838214,459.902465 C224.070499,450.682681 216.208971,439.715991 203.979927,435.542826 C191.653828,431.369661 179.327728,436.222179 177.871889,443.403905 C138.176025,598.005118 159.528324,754.741439 227.85568,883.721359 C233.387866,894.688049 246.684525,896.532005 258.331233,890.903085" id="Shape"></path>
            <path d="M732.724685,890.869507 L732.724685,890.869507 C721.170293,885.135431 715.150357,874.347594 719.325474,866.864139 C783.40866,748.683864 804.769722,603.776964 769.135586,459.939129 C766.902384,450.706295 774.767139,439.724082 787.001202,435.54501 L787.001202,435.54501 C799.235265,431.365938 811.566423,436.225324 813.119955,443.417216 C852.832111,598.042888 831.471049,754.80669 763.115651,883.774803 C757.67829,894.757016 744.376174,896.506395 732.724685,890.869507" id="Shape"></path>
            <path d="M797.64875,756.038321 C617.379785,891.987226 369.570695,891.987226 189.30173,756.038321 C178.709106,748.02408 175.890885,734.145759 182.693487,726.033782 L188.913009,718.508214 C195.812792,710.298503 208.932097,709.907564 218.45574,717.042194 C381.426659,839.99239 605.621,839.99239 768.591919,717.042194 C778.115563,709.907564 791.234867,710.298503 798.13465,718.508214 L804.354172,726.033782 C811.059595,734.243493 808.338554,748.02408 797.64875,756.038321" id="Shape"></path>
            <path d="M854.371496,495.535467 C621.008335,418.557557 368.700204,418.557557 135.337043,495.535467 C121.055451,500.250364 105.413707,493.226129 100.458868,479.562551 C95.5040303,465.898972 103.567786,450.310945 118.626608,445.403603 C362.968136,364.865466 627.031864,364.865466 871.373392,445.403603 C886.432214,450.407167 894.49597,465.898972 889.541132,479.562551 C884.48914,493.226129 868.847396,500.250364 854.662957,495.535467" id="Shape"></path>
            <path d="M948.434858,604.390647 C863.951179,341.320854 705.956989,139.056764 525.822249,15.5968643 C516.791235,9.2730712 504.361452,11.5107211 498.049453,20.5586097 L489.989516,20.5586097 C483.677517,11.6080102 471.247735,9.37036033 462.216721,15.5968643 C282.08198,139.154053 124.184898,341.223565 39.6041114,604.390647 C35.0400506,618.400281 40.5751882,637.46895 51.6454634,646.419549 C62.7157385,655.370149 75.0484134,650.700271 79.2240435,636.787926 C157.298616,375.858493 309.66056,174.470005 484.939917,50.9128166 C486.49364,49.8426362 487.853147,48.4805885 489.115547,47.0212516 C490.572162,46.3402277 492.125885,46.0483604 493.776716,46.0483604 C495.913084,46.0483604 497.952346,46.6320951 499.700284,47.7022755 C500.768468,48.869745 501.93376,49.9399254 503.19616,50.9128166 C678.475517,174.470005 830.837461,375.858493 908.912034,636.787926 C913.087664,650.700271 925.420339,655.175571 936.490614,646.419549 C947.463781,637.566239 952.901811,618.400281 948.434858,604.390647" id="Shape"></path>
        </g>
    </g>
</svg>